<?xml version="1.0" encoding="UTF-8"?>
<svg width="92px" height="34px" viewBox="0 0 92 34" version="1.1" xmlns="http://www.w3.org/2000/svg" xmlns:xlink="http://www.w3.org/1999/xlink">
    <title>Atom/Logo/Short</title>
    <g id="Atom/Logo/Short" stroke="none" stroke-width="1" fill="none" fill-rule="evenodd">
        <polygon id="Fill-2" fill="#FFBA08" points="18 5 18 11.0000816 12 11.0000816 12 16.9998369 6 16.9998369 6 23.0002447 0 23.0002447 0 29 6 29 12 29 18 29 24 29 24 23.0002447 24 16.9998369 24 11.0000816 24 5"></polygon>
        <path d="M42.66,23.14 C43.58,23.14 44.4066667,22.9933333 45.14,22.7 C45.8733333,22.4066667 46.48,21.9733333 46.96,21.4 L46.96,21.4 L45.62,19.86 C44.86,20.6333333 43.8933333,21.02 42.72,21.02 C41.8,21.02 41.03,20.79 40.41,20.33 C39.79,19.87 39.4066667,19.2466667 39.26,18.46 L39.26,18.46 L47.64,18.46 C47.6666667,18.14 47.68,17.8933333 47.68,17.72 C47.68,16.6266667 47.45,15.6633333 46.99,14.83 C46.53,13.9966667 45.89,13.35 45.07,12.89 C44.25,12.43 43.32,12.2 42.28,12.2 C41.2266667,12.2 40.28,12.4333333 39.44,12.9 C38.6,13.3666667 37.9433333,14.0166667 37.47,14.85 C36.9966667,15.6833333 36.76,16.62 36.76,17.66 C36.76,18.7133333 37.0033333,19.6566667 37.49,20.49 C37.9766667,21.3233333 38.6666667,21.9733333 39.56,22.44 C40.4533333,22.9066667 41.4866667,23.14 42.66,23.14 Z M45.3,16.8 L39.24,16.8 C39.36,16.0133333 39.6966667,15.3833333 40.25,14.91 C40.8033333,14.4366667 41.48,14.2 42.28,14.2 C43.0933333,14.2 43.7733333,14.44 44.32,14.92 C44.8666667,15.4 45.1933333,16.0266667 45.3,16.8 L45.3,16.8 Z M53.38,23.14 C54.8733333,23.14 56.0533333,22.84 56.92,22.24 C57.7866667,21.64 58.22,20.84 58.22,19.84 C58.22,19.08 58.0233333,18.4933333 57.63,18.08 C57.2366667,17.6666667 56.7666667,17.3733333 56.22,17.2 C55.6733333,17.0266667 54.9733333,16.8733333 54.12,16.74 C53.2666667,16.5933333 52.6366667,16.4366667 52.23,16.27 C51.8233333,16.1033333 51.62,15.82 51.62,15.42 C51.62,15.06 51.81,14.77 52.19,14.55 C52.57,14.33 53.1266667,14.22 53.86,14.22 C54.9933333,14.22 56.0133333,14.4866667 56.92,15.02 L56.92,15.02 L57.88,13.12 C57.4133333,12.84 56.8133333,12.6166667 56.08,12.45 C55.3466667,12.2833333 54.6133333,12.2 53.88,12.2 C52.44,12.2 51.2966667,12.5033333 50.45,13.11 C49.6033333,13.7166667 49.18,14.5266667 49.18,15.54 C49.18,16.3133333 49.3833333,16.9166667 49.79,17.35 C50.1966667,17.7833333 50.6766667,18.0866667 51.23,18.26 C51.7833333,18.4333333 52.5,18.5866667 53.38,18.72 C54.22,18.8533333 54.83,18.9933333 55.21,19.14 C55.59,19.2866667 55.78,19.5466667 55.78,19.92 C55.78,20.7066667 55.0333333,21.1 53.54,21.1 C52.8866667,21.1 52.2233333,21.0033333 51.55,20.81 C50.8766667,20.6166667 50.3,20.36 49.82,20.04 L49.82,20.04 L48.86,21.94 C49.3533333,22.2866667 50.0133333,22.5733333 50.84,22.8 C51.6666667,23.0266667 52.5133333,23.14 53.38,23.14 Z M62.88,23 L62.88,17.58 C62.88,16.54 63.13,15.7466667 63.63,15.2 C64.13,14.6533333 64.8066667,14.38 65.66,14.38 C66.4333333,14.38 67.0266667,14.6166667 67.44,15.09 C67.8533333,15.5633333 68.06,16.2666667 68.06,17.2 L68.06,17.2 L68.06,23 L70.56,23 L70.56,17.58 C70.56,16.5533333 70.8133333,15.7633333 71.32,15.21 C71.8266667,14.6566667 72.5,14.38 73.34,14.38 C74.1133333,14.38 74.7066667,14.6166667 75.12,15.09 C75.5333333,15.5633333 75.74,16.2666667 75.74,17.2 L75.74,17.2 L75.74,23 L78.24,23 L78.24,16.88 C78.24,15.32 77.8466667,14.15 77.06,13.37 C76.2733333,12.59 75.2066667,12.2 73.86,12.2 C73.02,12.2 72.2533333,12.3566667 71.56,12.67 C70.8666667,12.9833333 70.3,13.42 69.86,13.98 C69.5,13.3933333 69.01,12.95 68.39,12.65 C67.77,12.35 67.06,12.2 66.26,12.2 C65.5266667,12.2 64.86,12.3266667 64.26,12.58 C63.66,12.8333333 63.16,13.2 62.76,13.68 L62.76,13.68 L62.76,12.32 L60.38,12.32 L60.38,23 L62.88,23 Z M84.66,23.14 C85.46,23.14 86.1433333,23.0166667 86.71,22.77 C87.2766667,22.5233333 87.7133333,22.1666667 88.02,21.7 L88.02,21.7 L88.02,23 L90.38,23 L90.38,16.74 C90.38,15.22 89.9633333,14.0833333 89.13,13.33 C88.2966667,12.5766667 87.0933333,12.2 85.52,12.2 C84.64,12.2 83.8066667,12.3133333 83.02,12.54 C82.2333333,12.7666667 81.56,13.0933333 81,13.52 L81,13.52 L81.98,15.34 C82.38,15.0066667 82.87,14.7466667 83.45,14.56 C84.03,14.3733333 84.62,14.28 85.22,14.28 C86.1,14.28 86.7633333,14.48 87.21,14.88 C87.6566667,15.28 87.88,15.8533333 87.88,16.6 L87.88,16.6 L87.88,16.76 L85.12,16.76 C83.5866667,16.76 82.4633333,17.05 81.75,17.63 C81.0366667,18.21 80.68,18.98 80.68,19.94 C80.68,20.5533333 80.8433333,21.1033333 81.17,21.59 C81.4966667,22.0766667 81.96,22.4566667 82.56,22.73 C83.16,23.0033333 83.86,23.14 84.66,23.14 Z M85.18,21.32 C84.54,21.32 84.04,21.1866667 83.68,20.92 C83.32,20.6533333 83.14,20.2933333 83.14,19.84 C83.14,18.8933333 83.86,18.42 85.3,18.42 L85.3,18.42 L87.88,18.42 L87.88,19.66 C87.68,20.1933333 87.3366667,20.6033333 86.85,20.89 C86.3633333,21.1766667 85.8066667,21.32 85.18,21.32 Z" id="esma" fill="#FFFFFF" fill-rule="nonzero"></path>
    </g>
</svg>