<?xml version="1.0" encoding="UTF-8"?>
<svg width="445px" height="126px" viewBox="0 0 445 126" version="1.1" xmlns="http://www.w3.org/2000/svg" xmlns:xlink="http://www.w3.org/1999/xlink">
    <title>Group 22</title>
    <g id="Home-&gt;-Research-&gt;-Timeline" stroke="none" stroke-width="1" fill="none" fill-rule="evenodd">
        <g id="Desktop/Timeline/Early-development/Executive-summary" transform="translate(-826.000000, -653.000000)">
            <g id="Group-7" transform="translate(826.000000, 654.000000)">
                <g id="Group-4" transform="translate(170.500000, 0.000000)">
                    <path d="M25.516,72 L25.516,38.4 L11.02,38.4 L11.02,44.64 L17.74,44.64 L17.74,72 L25.516,72 Z M44.332,72 L44.332,38.4 L29.836,38.4 L29.836,44.64 L36.556,44.64 L36.556,72 L44.332,72 Z" id="11" fill="#2D3142" fill-rule="nonzero"></path>
                    <path d="M61.72,46 L61.72,41.584 C61.72,40.6346667 61.9733333,39.8906667 62.48,39.352 C62.9866667,38.8133333 63.672,38.544 64.536,38.544 C65.3146667,38.544 65.9146667,38.7733333 66.336,39.232 C66.7573333,39.6906667 66.968,40.3573333 66.968,41.232 L66.968,41.232 L66.968,46 L68.104,46 L68.104,41.584 C68.104,40.6346667 68.3546667,39.8906667 68.856,39.352 C69.3573333,38.8133333 70.0453333,38.544 70.92,38.544 C71.688,38.544 72.2826667,38.7733333 72.704,39.232 C73.1253333,39.6906667 73.336,40.3573333 73.336,41.232 L73.336,41.232 L73.336,46 L74.472,46 L74.472,41.12 C74.472,39.936 74.1706667,39.04 73.568,38.432 C72.9653333,37.824 72.136,37.52 71.08,37.52 C70.3333333,37.52 69.6693333,37.6773333 69.088,37.992 C68.5066667,38.3066667 68.0613333,38.7413333 67.752,39.296 C67.496,38.7093333 67.1093333,38.2666667 66.592,37.968 C66.0746667,37.6693333 65.464,37.52 64.76,37.52 C64.0666667,37.52 63.4533333,37.6586667 62.92,37.936 C62.3866667,38.2133333 61.9706667,38.608 61.672,39.12 L61.672,39.12 L61.672,37.584 L60.584,37.584 L60.584,46 L61.72,46 Z M81,46.08 C81.8106667,46.08 82.5413333,45.896 83.192,45.528 C83.8426667,45.16 84.352,44.6506667 84.72,44 C85.088,43.3493333 85.272,42.6133333 85.272,41.792 C85.272,40.9706667 85.088,40.2346667 84.72,39.584 C84.352,38.9333333 83.8426667,38.4266667 83.192,38.064 C82.5413333,37.7013333 81.8106667,37.52 81,37.52 C80.1893333,37.52 79.4586667,37.7013333 78.808,38.064 C78.1573333,38.4266667 77.6453333,38.9333333 77.272,39.584 C76.8986667,40.2346667 76.712,40.9706667 76.712,41.792 C76.712,42.6133333 76.8986667,43.3493333 77.272,44 C77.6453333,44.6506667 78.1573333,45.16 78.808,45.528 C79.4586667,45.896 80.1893333,46.08 81,46.08 Z M81,45.072 C80.4026667,45.072 79.8666667,44.936 79.392,44.664 C78.9173333,44.392 78.544,44.0053333 78.272,43.504 C78,43.0026667 77.864,42.432 77.864,41.792 C77.864,41.152 78,40.5813333 78.272,40.08 C78.544,39.5786667 78.9173333,39.192 79.392,38.92 C79.8666667,38.648 80.4026667,38.512 81,38.512 C81.5973333,38.512 82.1333333,38.648 82.608,38.92 C83.0826667,39.192 83.4533333,39.5786667 83.72,40.08 C83.9866667,40.5813333 84.12,41.152 84.12,41.792 C84.12,42.432 83.9866667,43.0026667 83.72,43.504 C83.4533333,44.0053333 83.0826667,44.392 82.608,44.664 C82.1333333,44.936 81.5973333,45.072 81,45.072 Z M88.728,46 L88.728,41.584 C88.728,40.6346667 88.992,39.8906667 89.52,39.352 C90.048,38.8133333 90.7653333,38.544 91.672,38.544 C92.4826667,38.544 93.1066667,38.7733333 93.544,39.232 C93.9813333,39.6906667 94.2,40.3573333 94.2,41.232 L94.2,41.232 L94.2,46 L95.336,46 L95.336,41.12 C95.336,39.9466667 95.024,39.0533333 94.4,38.44 C93.776,37.8266667 92.936,37.52 91.88,37.52 C91.1546667,37.52 90.5173333,37.6613333 89.968,37.944 C89.4186667,38.2266667 88.9893333,38.624 88.68,39.136 L88.68,39.136 L88.68,37.584 L87.592,37.584 L87.592,46 L88.728,46 Z M101.08,46.08 C101.421333,46.08 101.749333,46.0293333 102.064,45.928 C102.378667,45.8266667 102.642667,45.68 102.856,45.488 L102.856,45.488 L102.456,44.672 C102.296,44.8106667 102.106667,44.9173333 101.888,44.992 C101.669333,45.0666667 101.442667,45.104 101.208,45.104 C100.738667,45.104 100.378667,44.9733333 100.128,44.712 C99.8773333,44.4506667 99.752,44.0693333 99.752,43.568 L99.752,43.568 L99.752,38.544 L102.312,38.544 L102.312,37.584 L99.752,37.584 L99.752,35.744 L98.616,35.744 L98.616,37.584 L97.112,37.584 L97.112,38.544 L98.616,38.544 L98.616,43.632 C98.616,44.4106667 98.8293333,45.0133333 99.256,45.44 C99.6826667,45.8666667 100.290667,46.08 101.08,46.08 Z M106.056,46 L106.056,41.584 C106.056,40.6346667 106.32,39.8906667 106.848,39.352 C107.376,38.8133333 108.093333,38.544 109,38.544 C109.810667,38.544 110.434667,38.7733333 110.872,39.232 C111.309333,39.6906667 111.528,40.3573333 111.528,41.232 L111.528,41.232 L111.528,46 L112.664,46 L112.664,41.12 C112.664,39.9466667 112.352,39.0533333 111.728,38.44 C111.104,37.8266667 110.264,37.52 109.208,37.52 C108.504,37.52 107.88,37.6533333 107.336,37.92 C106.792,38.1866667 106.365333,38.5653333 106.056,39.056 L106.056,39.056 L106.056,34.128 L104.92,34.128 L104.92,46 L106.056,46 Z M118.008,46.08 C119.096,46.08 119.946667,45.864 120.56,45.432 C121.173333,45 121.48,44.416 121.48,43.68 C121.48,43.136 121.336,42.7093333 121.048,42.4 C120.76,42.0906667 120.413333,41.872 120.008,41.744 C119.602667,41.616 119.064,41.488 118.392,41.36 C117.848,41.264 117.421333,41.1706667 117.112,41.08 C116.802667,40.9893333 116.544,40.848 116.336,40.656 C116.128,40.464 116.024,40.208 116.024,39.888 C116.024,39.472 116.208,39.136 116.576,38.88 C116.944,38.624 117.490667,38.496 118.216,38.496 C119.176,38.496 120.002667,38.736 120.696,39.216 L120.696,39.216 L121.192,38.304 C120.84,38.0693333 120.392,37.88 119.848,37.736 C119.304,37.592 118.76,37.52 118.216,37.52 C117.170667,37.52 116.354667,37.744 115.768,38.192 C115.181333,38.64 114.888,39.216 114.888,39.92 C114.888,40.4853333 115.034667,40.928 115.328,41.248 C115.621333,41.568 115.976,41.7946667 116.392,41.928 C116.808,42.0613333 117.357333,42.192 118.04,42.32 C118.552,42.4053333 118.962667,42.4933333 119.272,42.584 C119.581333,42.6746667 119.837333,42.808 120.04,42.984 C120.242667,43.16 120.344,43.4026667 120.344,43.712 C120.344,44.1493333 120.16,44.488 119.792,44.728 C119.424,44.968 118.856,45.088 118.088,45.088 C117.512,45.088 116.957333,45 116.424,44.824 C115.890667,44.648 115.448,44.4213333 115.096,44.144 L115.096,44.144 L114.584,45.04 C114.936,45.3386667 115.424,45.5866667 116.048,45.784 C116.672,45.9813333 117.325333,46.08 118.008,46.08 Z M64.92,76.08 C65.7093333,76.08 66.424,75.8986667 67.064,75.536 C67.704,75.1733333 68.2053333,74.6666667 68.568,74.016 C68.9306667,73.3653333 69.112,72.624 69.112,71.792 C69.112,70.96 68.9306667,70.2186667 68.568,69.568 C68.2053333,68.9173333 67.704,68.4133333 67.064,68.056 C66.424,67.6986667 65.7093333,67.52 64.92,67.52 C64.2373333,67.52 63.6213333,67.6613333 63.072,67.944 C62.5226667,68.2266667 62.072,68.64 61.72,69.184 L61.72,69.184 L61.72,64.128 L60.584,64.128 L60.584,76 L61.672,76 L61.672,74.336 C62.0133333,74.9013333 62.464,75.3333333 63.024,75.632 C63.584,75.9306667 64.216,76.08 64.92,76.08 Z M64.84,75.072 C64.2426667,75.072 63.7066667,74.936 63.232,74.664 C62.7573333,74.392 62.384,74.0053333 62.112,73.504 C61.84,73.0026667 61.704,72.432 61.704,71.792 C61.704,71.152 61.84,70.5813333 62.112,70.08 C62.384,69.5786667 62.7573333,69.192 63.232,68.92 C63.7066667,68.648 64.2426667,68.512 64.84,68.512 C65.4266667,68.512 65.96,68.648 66.44,68.92 C66.92,69.192 67.296,69.5786667 67.568,70.08 C67.84,70.5813333 67.976,71.152 67.976,71.792 C67.976,72.432 67.84,73.0026667 67.568,73.504 C67.296,74.0053333 66.92,74.392 66.44,74.664 C65.96,74.936 65.4266667,75.072 64.84,75.072 Z M75,76.08 C75.672,76.08 76.288,75.9626667 76.848,75.728 C77.408,75.4933333 77.8746667,75.152 78.248,74.704 L78.248,74.704 L77.608,73.968 C77.288,74.3306667 76.9093333,74.6053333 76.472,74.792 C76.0346667,74.9786667 75.5546667,75.072 75.032,75.072 C74.104,75.072 73.336,74.8026667 72.728,74.264 C72.12,73.7253333 71.784,73.0186667 71.72,72.144 L71.72,72.144 L78.76,72.144 L78.776,71.792 C78.776,70.96 78.6,70.2213333 78.248,69.576 C77.896,68.9306667 77.4106667,68.4266667 76.792,68.064 C76.1733333,67.7013333 75.4746667,67.52 74.696,67.52 C73.9173333,67.52 73.216,67.7013333 72.592,68.064 C71.968,68.4266667 71.4773333,68.9333333 71.12,69.584 C70.7626667,70.2346667 70.584,70.9706667 70.584,71.792 C70.584,72.6133333 70.7706667,73.3493333 71.144,74 C71.5173333,74.6506667 72.0373333,75.16 72.704,75.528 C73.3706667,75.896 74.136,76.08 75,76.08 Z M77.688,71.296 L71.72,71.296 C71.7946667,70.464 72.1066667,69.7893333 72.656,69.272 C73.2053333,68.7546667 73.8853333,68.496 74.696,68.496 C75.5173333,68.496 76.2026667,68.7546667 76.752,69.272 C77.3013333,69.7893333 77.6133333,70.464 77.688,71.296 L77.688,71.296 Z M82.232,76 L82.232,71.584 C82.232,70.6346667 82.496,69.8906667 83.024,69.352 C83.552,68.8133333 84.2693333,68.544 85.176,68.544 C85.9866667,68.544 86.6106667,68.7733333 87.048,69.232 C87.4853333,69.6906667 87.704,70.3573333 87.704,71.232 L87.704,71.232 L87.704,76 L88.84,76 L88.84,71.12 C88.84,69.9466667 88.528,69.0533333 87.904,68.44 C87.28,67.8266667 86.44,67.52 85.384,67.52 C84.68,67.52 84.056,67.6533333 83.512,67.92 C82.968,68.1866667 82.5413333,68.5653333 82.232,69.056 L82.232,69.056 L82.232,64.128 L81.096,64.128 L81.096,76 L82.232,76 Z M92.504,65.744 C92.7386667,65.744 92.936,65.664 93.096,65.504 C93.256,65.344 93.336,65.1466667 93.336,64.912 C93.336,64.6986667 93.256,64.5146667 93.096,64.36 C92.936,64.2053333 92.7386667,64.128 92.504,64.128 C92.2693333,64.128 92.072,64.208 91.912,64.368 C91.752,64.528 91.672,64.7146667 91.672,64.928 C91.672,65.152 91.752,65.344 91.912,65.504 C92.072,65.664 92.2693333,65.744 92.504,65.744 Z M93.064,76 L93.064,67.584 L91.928,67.584 L91.928,76 L93.064,76 Z M97.368,76 L97.368,71.584 C97.368,70.6346667 97.632,69.8906667 98.16,69.352 C98.688,68.8133333 99.4053333,68.544 100.312,68.544 C101.122667,68.544 101.746667,68.7733333 102.184,69.232 C102.621333,69.6906667 102.84,70.3573333 102.84,71.232 L102.84,71.232 L102.84,76 L103.976,76 L103.976,71.12 C103.976,69.9466667 103.664,69.0533333 103.04,68.44 C102.416,67.8266667 101.576,67.52 100.52,67.52 C99.7946667,67.52 99.1573333,67.6613333 98.608,67.944 C98.0586667,68.2266667 97.6293333,68.624 97.32,69.136 L97.32,69.136 L97.32,67.584 L96.232,67.584 L96.232,76 L97.368,76 Z M110.408,76.08 C111.112,76.08 111.744,75.9306667 112.304,75.632 C112.864,75.3333333 113.314667,74.9013333 113.656,74.336 L113.656,74.336 L113.656,76 L114.744,76 L114.744,64.128 L113.608,64.128 L113.608,69.184 C113.256,68.64 112.805333,68.2266667 112.256,67.944 C111.706667,67.6613333 111.090667,67.52 110.408,67.52 C109.618667,67.52 108.904,67.6986667 108.264,68.056 C107.624,68.4133333 107.122667,68.9173333 106.76,69.568 C106.397333,70.2186667 106.216,70.96 106.216,71.792 C106.216,72.624 106.397333,73.3653333 106.76,74.016 C107.122667,74.6666667 107.624,75.1733333 108.264,75.536 C108.904,75.8986667 109.618667,76.08 110.408,76.08 Z M110.504,75.072 C109.906667,75.072 109.370667,74.936 108.896,74.664 C108.421333,74.392 108.048,74.0053333 107.776,73.504 C107.504,73.0026667 107.368,72.432 107.368,71.792 C107.368,71.152 107.504,70.5813333 107.776,70.08 C108.048,69.5786667 108.421333,69.192 108.896,68.92 C109.370667,68.648 109.906667,68.512 110.504,68.512 C111.090667,68.512 111.621333,68.648 112.096,68.92 C112.570667,69.192 112.944,69.5786667 113.216,70.08 C113.488,70.5813333 113.624,71.152 113.624,71.792 C113.624,72.432 113.488,73.0026667 113.216,73.504 C112.944,74.0053333 112.570667,74.392 112.096,74.664 C111.621333,74.936 111.090667,75.072 110.504,75.072 Z" id="monthsbehind" fill="#2D3142" fill-rule="nonzero"></path>
                    <rect id="Rectangle" stroke="#2D3142" stroke-width="1.5" stroke-linejoin="round" x="0" y="5" width="130" height="87.5"></rect>
                    <rect id="Rectangle" stroke="#2D3142" stroke-width="1.5" fill="#FFFFFF" stroke-linejoin="round" x="8" y="0" width="8" height="11"></rect>
                    <rect id="Rectangle-Copy-2" stroke="#2D3142" stroke-width="1.5" fill="#FFFFFF" stroke-linejoin="round" x="114" y="0" width="8" height="11"></rect>
                    <line x1="0" y1="16.5" x2="129.5" y2="16.5" id="Line-4" stroke="#2D3142" stroke-width="1.5" stroke-linecap="square"></line>
                </g>
                <path d="M40.268,86 L40.268,84.976 L33.996,84.976 L33.996,74.8 L32.812,74.8 L32.812,86 L40.268,86 Z M45.436,86.08 C46.2466667,86.08 46.9773333,85.896 47.628,85.528 C48.2786667,85.16 48.788,84.6506667 49.156,84 C49.524,83.3493333 49.708,82.6133333 49.708,81.792 C49.708,80.9706667 49.524,80.2346667 49.156,79.584 C48.788,78.9333333 48.2786667,78.4266667 47.628,78.064 C46.9773333,77.7013333 46.2466667,77.52 45.436,77.52 C44.6253333,77.52 43.8946667,77.7013333 43.244,78.064 C42.5933333,78.4266667 42.0813333,78.9333333 41.708,79.584 C41.3346667,80.2346667 41.148,80.9706667 41.148,81.792 C41.148,82.6133333 41.3346667,83.3493333 41.708,84 C42.0813333,84.6506667 42.5933333,85.16 43.244,85.528 C43.8946667,85.896 44.6253333,86.08 45.436,86.08 Z M45.436,85.072 C44.8386667,85.072 44.3026667,84.936 43.828,84.664 C43.3533333,84.392 42.98,84.0053333 42.708,83.504 C42.436,83.0026667 42.3,82.432 42.3,81.792 C42.3,81.152 42.436,80.5813333 42.708,80.08 C42.98,79.5786667 43.3533333,79.192 43.828,78.92 C44.3026667,78.648 44.8386667,78.512 45.436,78.512 C46.0333333,78.512 46.5693333,78.648 47.044,78.92 C47.5186667,79.192 47.8893333,79.5786667 48.156,80.08 C48.4226667,80.5813333 48.556,81.152 48.556,81.792 C48.556,82.432 48.4226667,83.0026667 48.156,83.504 C47.8893333,84.0053333 47.5186667,84.392 47.044,84.664 C46.5693333,84.936 46.0333333,85.072 45.436,85.072 Z M54.812,86 L57.468,79.104 L60.124,86 L61.196,86 L64.38,77.584 L63.34,77.584 L60.668,84.736 L57.98,77.584 L57.004,77.584 L54.3,84.736 L51.66,77.584 L50.572,77.584 L53.74,86 L54.812,86 Z M72.54,86.08 C73.628,86.08 74.4786667,85.864 75.092,85.432 C75.7053333,85 76.012,84.416 76.012,83.68 C76.012,83.136 75.868,82.7093333 75.58,82.4 C75.292,82.0906667 74.9453333,81.872 74.54,81.744 C74.1346667,81.616 73.596,81.488 72.924,81.36 C72.38,81.264 71.9533333,81.1706667 71.644,81.08 C71.3346667,80.9893333 71.076,80.848 70.868,80.656 C70.66,80.464 70.556,80.208 70.556,79.888 C70.556,79.472 70.74,79.136 71.108,78.88 C71.476,78.624 72.0226667,78.496 72.748,78.496 C73.708,78.496 74.5346667,78.736 75.228,79.216 L75.228,79.216 L75.724,78.304 C75.372,78.0693333 74.924,77.88 74.38,77.736 C73.836,77.592 73.292,77.52 72.748,77.52 C71.7026667,77.52 70.8866667,77.744 70.3,78.192 C69.7133333,78.64 69.42,79.216 69.42,79.92 C69.42,80.4853333 69.5666667,80.928 69.86,81.248 C70.1533333,81.568 70.508,81.7946667 70.924,81.928 C71.34,82.0613333 71.8893333,82.192 72.572,82.32 C73.084,82.4053333 73.4946667,82.4933333 73.804,82.584 C74.1133333,82.6746667 74.3693333,82.808 74.572,82.984 C74.7746667,83.16 74.876,83.4026667 74.876,83.712 C74.876,84.1493333 74.692,84.488 74.324,84.728 C73.956,84.968 73.388,85.088 72.62,85.088 C72.044,85.088 71.4893333,85 70.956,84.824 C70.4226667,84.648 69.98,84.4213333 69.628,84.144 L69.628,84.144 L69.116,85.04 C69.468,85.3386667 69.956,85.5866667 70.58,85.784 C71.204,85.9813333 71.8573333,86.08 72.54,86.08 Z M81.548,86.08 C82.3586667,86.08 83.0893333,85.896 83.74,85.528 C84.3906667,85.16 84.9,84.6506667 85.268,84 C85.636,83.3493333 85.82,82.6133333 85.82,81.792 C85.82,80.9706667 85.636,80.2346667 85.268,79.584 C84.9,78.9333333 84.3906667,78.4266667 83.74,78.064 C83.0893333,77.7013333 82.3586667,77.52 81.548,77.52 C80.7373333,77.52 80.0066667,77.7013333 79.356,78.064 C78.7053333,78.4266667 78.1933333,78.9333333 77.82,79.584 C77.4466667,80.2346667 77.26,80.9706667 77.26,81.792 C77.26,82.6133333 77.4466667,83.3493333 77.82,84 C78.1933333,84.6506667 78.7053333,85.16 79.356,85.528 C80.0066667,85.896 80.7373333,86.08 81.548,86.08 Z M81.548,85.072 C80.9506667,85.072 80.4146667,84.936 79.94,84.664 C79.4653333,84.392 79.092,84.0053333 78.82,83.504 C78.548,83.0026667 78.412,82.432 78.412,81.792 C78.412,81.152 78.548,80.5813333 78.82,80.08 C79.092,79.5786667 79.4653333,79.192 79.94,78.92 C80.4146667,78.648 80.9506667,78.512 81.548,78.512 C82.1453333,78.512 82.6813333,78.648 83.156,78.92 C83.6306667,79.192 84.0013333,79.5786667 84.268,80.08 C84.5346667,80.5813333 84.668,81.152 84.668,81.792 C84.668,82.432 84.5346667,83.0026667 84.268,83.504 C84.0013333,84.0053333 83.6306667,84.392 83.156,84.664 C82.6813333,84.936 82.1453333,85.072 81.548,85.072 Z M91.628,86.08 C92.3426667,86.08 92.988,85.9386667 93.564,85.656 C94.14,85.3733333 94.5933333,84.96 94.924,84.416 L94.924,84.416 L94.076,83.84 C93.7986667,84.256 93.4466667,84.5653333 93.02,84.768 C92.5933333,84.9706667 92.1293333,85.072 91.628,85.072 C91.02,85.072 90.4733333,84.936 89.988,84.664 C89.5026667,84.392 89.124,84.008 88.852,83.512 C88.58,83.016 88.444,82.4426667 88.444,81.792 C88.444,81.152 88.58,80.5813333 88.852,80.08 C89.124,79.5786667 89.5026667,79.192 89.988,78.92 C90.4733333,78.648 91.02,78.512 91.628,78.512 C92.1293333,78.512 92.5933333,78.616 93.02,78.824 C93.4466667,79.032 93.7986667,79.344 94.076,79.76 L94.076,79.76 L94.924,79.184 C94.5933333,78.64 94.1426667,78.2266667 93.572,77.944 C93.0013333,77.6613333 92.3533333,77.52 91.628,77.52 C90.796,77.52 90.052,77.7013333 89.396,78.064 C88.74,78.4266667 88.2253333,78.9333333 87.852,79.584 C87.4786667,80.2346667 87.292,80.9706667 87.292,81.792 C87.292,82.6133333 87.4786667,83.352 87.852,84.008 C88.2253333,84.664 88.74,85.1733333 89.396,85.536 C90.052,85.8986667 90.796,86.08 91.628,86.08 Z M97.724,75.744 C97.9586667,75.744 98.156,75.664 98.316,75.504 C98.476,75.344 98.556,75.1466667 98.556,74.912 C98.556,74.6986667 98.476,74.5146667 98.316,74.36 C98.156,74.2053333 97.9586667,74.128 97.724,74.128 C97.4893333,74.128 97.292,74.208 97.132,74.368 C96.972,74.528 96.892,74.7146667 96.892,74.928 C96.892,75.152 96.972,75.344 97.132,75.504 C97.292,75.664 97.4893333,75.744 97.724,75.744 Z M98.284,86 L98.284,77.584 L97.148,77.584 L97.148,86 L98.284,86 Z M104.892,86.08 C105.702667,86.08 106.433333,85.896 107.084,85.528 C107.734667,85.16 108.244,84.6506667 108.612,84 C108.98,83.3493333 109.164,82.6133333 109.164,81.792 C109.164,80.9706667 108.98,80.2346667 108.612,79.584 C108.244,78.9333333 107.734667,78.4266667 107.084,78.064 C106.433333,77.7013333 105.702667,77.52 104.892,77.52 C104.081333,77.52 103.350667,77.7013333 102.7,78.064 C102.049333,78.4266667 101.537333,78.9333333 101.164,79.584 C100.790667,80.2346667 100.604,80.9706667 100.604,81.792 C100.604,82.6133333 100.790667,83.3493333 101.164,84 C101.537333,84.6506667 102.049333,85.16 102.7,85.528 C103.350667,85.896 104.081333,86.08 104.892,86.08 Z M104.892,85.072 C104.294667,85.072 103.758667,84.936 103.284,84.664 C102.809333,84.392 102.436,84.0053333 102.164,83.504 C101.892,83.0026667 101.756,82.432 101.756,81.792 C101.756,81.152 101.892,80.5813333 102.164,80.08 C102.436,79.5786667 102.809333,79.192 103.284,78.92 C103.758667,78.648 104.294667,78.512 104.892,78.512 C105.489333,78.512 106.025333,78.648 106.5,78.92 C106.974667,79.192 107.345333,79.5786667 107.612,80.08 C107.878667,80.5813333 108.012,81.152 108.012,81.792 C108.012,82.432 107.878667,83.0026667 107.612,83.504 C107.345333,84.0053333 106.974667,84.392 106.5,84.664 C106.025333,84.936 105.489333,85.072 104.892,85.072 Z M115.052,82.16 L115.052,81.168 L110.86,81.168 L110.86,82.16 L115.052,82.16 Z M5.508,116.08 C6.18,116.08 6.796,115.962667 7.356,115.728 C7.916,115.493333 8.38266667,115.152 8.756,114.704 L8.756,114.704 L8.116,113.968 C7.796,114.330667 7.41733333,114.605333 6.98,114.792 C6.54266667,114.978667 6.06266667,115.072 5.54,115.072 C4.612,115.072 3.844,114.802667 3.236,114.264 C2.628,113.725333 2.292,113.018667 2.228,112.144 L2.228,112.144 L9.268,112.144 L9.284,111.792 C9.284,110.96 9.108,110.221333 8.756,109.576 C8.404,108.930667 7.91866667,108.426667 7.3,108.064 C6.68133333,107.701333 5.98266667,107.52 5.204,107.52 C4.42533333,107.52 3.724,107.701333 3.1,108.064 C2.476,108.426667 1.98533333,108.933333 1.628,109.584 C1.27066667,110.234667 1.092,110.970667 1.092,111.792 C1.092,112.613333 1.27866667,113.349333 1.652,114 C2.02533333,114.650667 2.54533333,115.16 3.212,115.528 C3.87866667,115.896 4.644,116.08 5.508,116.08 Z M8.196,111.296 L2.228,111.296 C2.30266667,110.464 2.61466667,109.789333 3.164,109.272 C3.71333333,108.754667 4.39333333,108.496 5.204,108.496 C6.02533333,108.496 6.71066667,108.754667 7.26,109.272 C7.80933333,109.789333 8.12133333,110.464 8.196,111.296 L8.196,111.296 Z M15.092,116.08 C15.8066667,116.08 16.452,115.938667 17.028,115.656 C17.604,115.373333 18.0573333,114.96 18.388,114.416 L18.388,114.416 L17.54,113.84 C17.2626667,114.256 16.9106667,114.565333 16.484,114.768 C16.0573333,114.970667 15.5933333,115.072 15.092,115.072 C14.484,115.072 13.9373333,114.936 13.452,114.664 C12.9666667,114.392 12.588,114.008 12.316,113.512 C12.044,113.016 11.908,112.442667 11.908,111.792 C11.908,111.152 12.044,110.581333 12.316,110.08 C12.588,109.578667 12.9666667,109.192 13.452,108.92 C13.9373333,108.648 14.484,108.512 15.092,108.512 C15.5933333,108.512 16.0573333,108.616 16.484,108.824 C16.9106667,109.032 17.2626667,109.344 17.54,109.76 L17.54,109.76 L18.388,109.184 C18.0573333,108.64 17.6066667,108.226667 17.036,107.944 C16.4653333,107.661333 15.8173333,107.52 15.092,107.52 C14.26,107.52 13.516,107.701333 12.86,108.064 C12.204,108.426667 11.6893333,108.933333 11.316,109.584 C10.9426667,110.234667 10.756,110.970667 10.756,111.792 C10.756,112.613333 10.9426667,113.352 11.316,114.008 C11.6893333,114.664 12.204,115.173333 12.86,115.536 C13.516,115.898667 14.26,116.08 15.092,116.08 Z M24.052,116.08 C24.8626667,116.08 25.5933333,115.896 26.244,115.528 C26.8946667,115.16 27.404,114.650667 27.772,114 C28.14,113.349333 28.324,112.613333 28.324,111.792 C28.324,110.970667 28.14,110.234667 27.772,109.584 C27.404,108.933333 26.8946667,108.426667 26.244,108.064 C25.5933333,107.701333 24.8626667,107.52 24.052,107.52 C23.2413333,107.52 22.5106667,107.701333 21.86,108.064 C21.2093333,108.426667 20.6973333,108.933333 20.324,109.584 C19.9506667,110.234667 19.764,110.970667 19.764,111.792 C19.764,112.613333 19.9506667,113.349333 20.324,114 C20.6973333,114.650667 21.2093333,115.16 21.86,115.528 C22.5106667,115.896 23.2413333,116.08 24.052,116.08 Z M24.052,115.072 C23.4546667,115.072 22.9186667,114.936 22.444,114.664 C21.9693333,114.392 21.596,114.005333 21.324,113.504 C21.052,113.002667 20.916,112.432 20.916,111.792 C20.916,111.152 21.052,110.581333 21.324,110.08 C21.596,109.578667 21.9693333,109.192 22.444,108.92 C22.9186667,108.648 23.4546667,108.512 24.052,108.512 C24.6493333,108.512 25.1853333,108.648 25.66,108.92 C26.1346667,109.192 26.5053333,109.578667 26.772,110.08 C27.0386667,110.581333 27.172,111.152 27.172,111.792 C27.172,112.432 27.0386667,113.002667 26.772,113.504 C26.5053333,114.005333 26.1346667,114.392 25.66,114.664 C25.1853333,114.936 24.6493333,115.072 24.052,115.072 Z M31.78,116 L31.78,111.584 C31.78,110.634667 32.044,109.890667 32.572,109.352 C33.1,108.813333 33.8173333,108.544 34.724,108.544 C35.5346667,108.544 36.1586667,108.773333 36.596,109.232 C37.0333333,109.690667 37.252,110.357333 37.252,111.232 L37.252,111.232 L37.252,116 L38.388,116 L38.388,111.12 C38.388,109.946667 38.076,109.053333 37.452,108.44 C36.828,107.826667 35.988,107.52 34.932,107.52 C34.2066667,107.52 33.5693333,107.661333 33.02,107.944 C32.4706667,108.226667 32.0413333,108.624 31.732,109.136 L31.732,109.136 L31.732,107.584 L30.644,107.584 L30.644,116 L31.78,116 Z M44.916,116.08 C45.7266667,116.08 46.4573333,115.896 47.108,115.528 C47.7586667,115.16 48.268,114.650667 48.636,114 C49.004,113.349333 49.188,112.613333 49.188,111.792 C49.188,110.970667 49.004,110.234667 48.636,109.584 C48.268,108.933333 47.7586667,108.426667 47.108,108.064 C46.4573333,107.701333 45.7266667,107.52 44.916,107.52 C44.1053333,107.52 43.3746667,107.701333 42.724,108.064 C42.0733333,108.426667 41.5613333,108.933333 41.188,109.584 C40.8146667,110.234667 40.628,110.970667 40.628,111.792 C40.628,112.613333 40.8146667,113.349333 41.188,114 C41.5613333,114.650667 42.0733333,115.16 42.724,115.528 C43.3746667,115.896 44.1053333,116.08 44.916,116.08 Z M44.916,115.072 C44.3186667,115.072 43.7826667,114.936 43.308,114.664 C42.8333333,114.392 42.46,114.005333 42.188,113.504 C41.916,113.002667 41.78,112.432 41.78,111.792 C41.78,111.152 41.916,110.581333 42.188,110.08 C42.46,109.578667 42.8333333,109.192 43.308,108.92 C43.7826667,108.648 44.3186667,108.512 44.916,108.512 C45.5133333,108.512 46.0493333,108.648 46.524,108.92 C46.9986667,109.192 47.3693333,109.578667 47.636,110.08 C47.9026667,110.581333 48.036,111.152 48.036,111.792 C48.036,112.432 47.9026667,113.002667 47.636,113.504 C47.3693333,114.005333 46.9986667,114.392 46.524,114.664 C46.0493333,114.936 45.5133333,115.072 44.916,115.072 Z M52.644,116 L52.644,111.584 C52.644,110.634667 52.8973333,109.890667 53.404,109.352 C53.9106667,108.813333 54.596,108.544 55.46,108.544 C56.2386667,108.544 56.8386667,108.773333 57.26,109.232 C57.6813333,109.690667 57.892,110.357333 57.892,111.232 L57.892,111.232 L57.892,116 L59.028,116 L59.028,111.584 C59.028,110.634667 59.2786667,109.890667 59.78,109.352 C60.2813333,108.813333 60.9693333,108.544 61.844,108.544 C62.612,108.544 63.2066667,108.773333 63.628,109.232 C64.0493333,109.690667 64.26,110.357333 64.26,111.232 L64.26,111.232 L64.26,116 L65.396,116 L65.396,111.12 C65.396,109.936 65.0946667,109.04 64.492,108.432 C63.8893333,107.824 63.06,107.52 62.004,107.52 C61.2573333,107.52 60.5933333,107.677333 60.012,107.992 C59.4306667,108.306667 58.9853333,108.741333 58.676,109.296 C58.42,108.709333 58.0333333,108.266667 57.516,107.968 C56.9986667,107.669333 56.388,107.52 55.684,107.52 C54.9906667,107.52 54.3773333,107.658667 53.844,107.936 C53.3106667,108.213333 52.8946667,108.608 52.596,109.12 L52.596,109.12 L52.596,107.584 L51.508,107.584 L51.508,116 L52.644,116 Z M69.06,105.744 C69.2946667,105.744 69.492,105.664 69.652,105.504 C69.812,105.344 69.892,105.146667 69.892,104.912 C69.892,104.698667 69.812,104.514667 69.652,104.36 C69.492,104.205333 69.2946667,104.128 69.06,104.128 C68.8253333,104.128 68.628,104.208 68.468,104.368 C68.308,104.528 68.228,104.714667 68.228,104.928 C68.228,105.152 68.308,105.344 68.468,105.504 C68.628,105.664 68.8253333,105.744 69.06,105.744 Z M69.62,116 L69.62,107.584 L68.484,107.584 L68.484,116 L69.62,116 Z M76.276,116.08 C76.9906667,116.08 77.636,115.938667 78.212,115.656 C78.788,115.373333 79.2413333,114.96 79.572,114.416 L79.572,114.416 L78.724,113.84 C78.4466667,114.256 78.0946667,114.565333 77.668,114.768 C77.2413333,114.970667 76.7773333,115.072 76.276,115.072 C75.668,115.072 75.1213333,114.936 74.636,114.664 C74.1506667,114.392 73.772,114.008 73.5,113.512 C73.228,113.016 73.092,112.442667 73.092,111.792 C73.092,111.152 73.228,110.581333 73.5,110.08 C73.772,109.578667 74.1506667,109.192 74.636,108.92 C75.1213333,108.648 75.668,108.512 76.276,108.512 C76.7773333,108.512 77.2413333,108.616 77.668,108.824 C78.0946667,109.032 78.4466667,109.344 78.724,109.76 L78.724,109.76 L79.572,109.184 C79.2413333,108.64 78.7906667,108.226667 78.22,107.944 C77.6493333,107.661333 77.0013333,107.52 76.276,107.52 C75.444,107.52 74.7,107.701333 74.044,108.064 C73.388,108.426667 72.8733333,108.933333 72.5,109.584 C72.1266667,110.234667 71.94,110.970667 71.94,111.792 C71.94,112.613333 72.1266667,113.352 72.5,114.008 C72.8733333,114.664 73.388,115.173333 74.044,115.536 C74.7,115.898667 75.444,116.08 76.276,116.08 Z M87.316,116 L87.316,108.544 L89.876,108.544 L89.876,107.584 L87.284,107.584 L87.284,106.592 C87.284,106.069333 87.4093333,105.674667 87.66,105.408 C87.9106667,105.141333 88.2813333,105.008 88.772,105.008 C89.2733333,105.008 89.6893333,105.146667 90.02,105.424 L90.02,105.424 L90.404,104.576 C90.2013333,104.405333 89.9506667,104.274667 89.652,104.184 C89.3533333,104.093333 89.044,104.048 88.724,104.048 C87.9133333,104.048 87.2866667,104.272 86.844,104.72 C86.4013333,105.168 86.18,105.776 86.18,106.544 L86.18,106.544 L86.18,107.584 L84.676,107.584 L84.676,108.544 L86.18,108.544 L86.18,116 L87.316,116 Z M93.78,116.08 C94.4626667,116.08 95.052,115.957333 95.548,115.712 C96.044,115.466667 96.42,115.125333 96.676,114.688 L96.676,114.688 L96.676,116 L97.764,116 L97.764,110.784 C97.764,109.706667 97.4706667,108.893333 96.884,108.344 C96.2973333,107.794667 95.4546667,107.52 94.356,107.52 C93.6946667,107.52 93.0653333,107.618667 92.468,107.816 C91.8706667,108.013333 91.3586667,108.293333 90.932,108.656 L90.932,108.656 L91.444,109.504 C91.796,109.194667 92.2173333,108.952 92.708,108.776 C93.1986667,108.6 93.7106667,108.512 94.244,108.512 C95.0226667,108.512 95.6146667,108.701333 96.02,109.08 C96.4253333,109.458667 96.628,110.010667 96.628,110.736 L96.628,110.736 L96.628,111.248 L93.956,111.248 C92.8253333,111.248 92.0013333,111.466667 91.484,111.904 C90.9666667,112.341333 90.708,112.917333 90.708,113.632 C90.708,114.368 90.9853333,114.96 91.54,115.408 C92.0946667,115.856 92.8413333,116.08 93.78,116.08 Z M93.956,115.184 C93.284,115.184 92.7613333,115.042667 92.388,114.76 C92.0146667,114.477333 91.828,114.090667 91.828,113.6 C91.828,112.597333 92.548,112.096 93.988,112.096 L93.988,112.096 L96.628,112.096 L96.628,113.472 C96.404,114.026667 96.0626667,114.450667 95.604,114.744 C95.1453333,115.037333 94.596,115.184 93.956,115.184 Z M101.988,116 L101.988,111.584 C101.988,110.634667 102.241333,109.890667 102.748,109.352 C103.254667,108.813333 103.94,108.544 104.804,108.544 C105.582667,108.544 106.182667,108.773333 106.604,109.232 C107.025333,109.690667 107.236,110.357333 107.236,111.232 L107.236,111.232 L107.236,116 L108.372,116 L108.372,111.584 C108.372,110.634667 108.622667,109.890667 109.124,109.352 C109.625333,108.813333 110.313333,108.544 111.188,108.544 C111.956,108.544 112.550667,108.773333 112.972,109.232 C113.393333,109.690667 113.604,110.357333 113.604,111.232 L113.604,111.232 L113.604,116 L114.74,116 L114.74,111.12 C114.74,109.936 114.438667,109.04 113.836,108.432 C113.233333,107.824 112.404,107.52 111.348,107.52 C110.601333,107.52 109.937333,107.677333 109.356,107.992 C108.774667,108.306667 108.329333,108.741333 108.02,109.296 C107.764,108.709333 107.377333,108.266667 106.86,107.968 C106.342667,107.669333 105.732,107.52 105.028,107.52 C104.334667,107.52 103.721333,107.658667 103.188,107.936 C102.654667,108.213333 102.238667,108.608 101.94,109.12 L101.94,109.12 L101.94,107.584 L100.852,107.584 L100.852,116 L101.988,116 Z M118.404,105.744 C118.638667,105.744 118.836,105.664 118.996,105.504 C119.156,105.344 119.236,105.146667 119.236,104.912 C119.236,104.698667 119.156,104.514667 118.996,104.36 C118.836,104.205333 118.638667,104.128 118.404,104.128 C118.169333,104.128 117.972,104.208 117.812,104.368 C117.652,104.528 117.572,104.714667 117.572,104.928 C117.572,105.152 117.652,105.344 117.812,105.504 C117.972,105.664 118.169333,105.744 118.404,105.744 Z M118.964,116 L118.964,107.584 L117.828,107.584 L117.828,116 L118.964,116 Z M123.268,116 L123.268,104.128 L122.132,104.128 L122.132,116 L123.268,116 Z M127.012,105.744 C127.246667,105.744 127.444,105.664 127.604,105.504 C127.764,105.344 127.844,105.146667 127.844,104.912 C127.844,104.698667 127.764,104.514667 127.604,104.36 C127.444,104.205333 127.246667,104.128 127.012,104.128 C126.777333,104.128 126.58,104.208 126.42,104.368 C126.26,104.528 126.18,104.714667 126.18,104.928 C126.18,105.152 126.26,105.344 126.42,105.504 C126.58,105.664 126.777333,105.744 127.012,105.744 Z M127.572,116 L127.572,107.584 L126.436,107.584 L126.436,116 L127.572,116 Z M134.308,116.08 C134.98,116.08 135.596,115.962667 136.156,115.728 C136.716,115.493333 137.182667,115.152 137.556,114.704 L137.556,114.704 L136.916,113.968 C136.596,114.330667 136.217333,114.605333 135.78,114.792 C135.342667,114.978667 134.862667,115.072 134.34,115.072 C133.412,115.072 132.644,114.802667 132.036,114.264 C131.428,113.725333 131.092,113.018667 131.028,112.144 L131.028,112.144 L138.068,112.144 L138.084,111.792 C138.084,110.96 137.908,110.221333 137.556,109.576 C137.204,108.930667 136.718667,108.426667 136.1,108.064 C135.481333,107.701333 134.782667,107.52 134.004,107.52 C133.225333,107.52 132.524,107.701333 131.9,108.064 C131.276,108.426667 130.785333,108.933333 130.428,109.584 C130.070667,110.234667 129.892,110.970667 129.892,111.792 C129.892,112.613333 130.078667,113.349333 130.452,114 C130.825333,114.650667 131.345333,115.16 132.012,115.528 C132.678667,115.896 133.444,116.08 134.308,116.08 Z M136.996,111.296 L131.028,111.296 C131.102667,110.464 131.414667,109.789333 131.964,109.272 C132.513333,108.754667 133.193333,108.496 134.004,108.496 C134.825333,108.496 135.510667,108.754667 136.06,109.272 C136.609333,109.789333 136.921333,110.464 136.996,111.296 L136.996,111.296 Z M142.66,116.08 C143.748,116.08 144.598667,115.864 145.212,115.432 C145.825333,115 146.132,114.416 146.132,113.68 C146.132,113.136 145.988,112.709333 145.7,112.4 C145.412,112.090667 145.065333,111.872 144.66,111.744 C144.254667,111.616 143.716,111.488 143.044,111.36 C142.5,111.264 142.073333,111.170667 141.764,111.08 C141.454667,110.989333 141.196,110.848 140.988,110.656 C140.78,110.464 140.676,110.208 140.676,109.888 C140.676,109.472 140.86,109.136 141.228,108.88 C141.596,108.624 142.142667,108.496 142.868,108.496 C143.828,108.496 144.654667,108.736 145.348,109.216 L145.348,109.216 L145.844,108.304 C145.492,108.069333 145.044,107.88 144.5,107.736 C143.956,107.592 143.412,107.52 142.868,107.52 C141.822667,107.52 141.006667,107.744 140.42,108.192 C139.833333,108.64 139.54,109.216 139.54,109.92 C139.54,110.485333 139.686667,110.928 139.98,111.248 C140.273333,111.568 140.628,111.794667 141.044,111.928 C141.46,112.061333 142.009333,112.192 142.692,112.32 C143.204,112.405333 143.614667,112.493333 143.924,112.584 C144.233333,112.674667 144.489333,112.808 144.692,112.984 C144.894667,113.16 144.996,113.402667 144.996,113.712 C144.996,114.149333 144.812,114.488 144.444,114.728 C144.076,114.968 143.508,115.088 142.74,115.088 C142.164,115.088 141.609333,115 141.076,114.824 C140.542667,114.648 140.1,114.421333 139.748,114.144 L139.748,114.144 L139.236,115.04 C139.588,115.338667 140.076,115.586667 140.7,115.784 C141.324,115.981333 141.977333,116.08 142.66,116.08 Z" id="Lowsocio-economicfamilies" fill="#2D3142" fill-rule="nonzero"></path>
                <path d="M327.332,86 L327.332,77.088 L331.732,84.576 L332.292,84.576 L336.692,77.04 L336.692,86 L337.828,86 L337.828,74.8 L336.852,74.8 L332.036,83.104 L327.172,74.8 L326.196,74.8 L326.196,86 L327.332,86 Z M341.812,75.744 C342.046667,75.744 342.244,75.664 342.404,75.504 C342.564,75.344 342.644,75.1466667 342.644,74.912 C342.644,74.6986667 342.564,74.5146667 342.404,74.36 C342.244,74.2053333 342.046667,74.128 341.812,74.128 C341.577333,74.128 341.38,74.208 341.22,74.368 C341.06,74.528 340.98,74.7146667 340.98,74.928 C340.98,75.152 341.06,75.344 341.22,75.504 C341.38,75.664 341.577333,75.744 341.812,75.744 Z M342.372,86 L342.372,77.584 L341.236,77.584 L341.236,86 L342.372,86 Z M348.884,86.08 C349.588,86.08 350.22,85.9306667 350.78,85.632 C351.34,85.3333333 351.790667,84.9013333 352.132,84.336 L352.132,84.336 L352.132,86 L353.22,86 L353.22,74.128 L352.084,74.128 L352.084,79.184 C351.732,78.64 351.281333,78.2266667 350.732,77.944 C350.182667,77.6613333 349.566667,77.52 348.884,77.52 C348.094667,77.52 347.38,77.6986667 346.74,78.056 C346.1,78.4133333 345.598667,78.9173333 345.236,79.568 C344.873333,80.2186667 344.692,80.96 344.692,81.792 C344.692,82.624 344.873333,83.3653333 345.236,84.016 C345.598667,84.6666667 346.1,85.1733333 346.74,85.536 C347.38,85.8986667 348.094667,86.08 348.884,86.08 Z M348.98,85.072 C348.382667,85.072 347.846667,84.936 347.372,84.664 C346.897333,84.392 346.524,84.0053333 346.252,83.504 C345.98,83.0026667 345.844,82.432 345.844,81.792 C345.844,81.152 345.98,80.5813333 346.252,80.08 C346.524,79.5786667 346.897333,79.192 347.372,78.92 C347.846667,78.648 348.382667,78.512 348.98,78.512 C349.566667,78.512 350.097333,78.648 350.572,78.92 C351.046667,79.192 351.42,79.5786667 351.692,80.08 C351.964,80.5813333 352.1,81.152 352.1,81.792 C352.1,82.432 351.964,83.0026667 351.692,83.504 C351.42,84.0053333 351.046667,84.392 350.572,84.664 C350.097333,84.936 349.566667,85.072 348.98,85.072 Z M359.732,86.08 C360.436,86.08 361.068,85.9306667 361.628,85.632 C362.188,85.3333333 362.638667,84.9013333 362.98,84.336 L362.98,84.336 L362.98,86 L364.068,86 L364.068,74.128 L362.932,74.128 L362.932,79.184 C362.58,78.64 362.129333,78.2266667 361.58,77.944 C361.030667,77.6613333 360.414667,77.52 359.732,77.52 C358.942667,77.52 358.228,77.6986667 357.588,78.056 C356.948,78.4133333 356.446667,78.9173333 356.084,79.568 C355.721333,80.2186667 355.54,80.96 355.54,81.792 C355.54,82.624 355.721333,83.3653333 356.084,84.016 C356.446667,84.6666667 356.948,85.1733333 357.588,85.536 C358.228,85.8986667 358.942667,86.08 359.732,86.08 Z M359.828,85.072 C359.230667,85.072 358.694667,84.936 358.22,84.664 C357.745333,84.392 357.372,84.0053333 357.1,83.504 C356.828,83.0026667 356.692,82.432 356.692,81.792 C356.692,81.152 356.828,80.5813333 357.1,80.08 C357.372,79.5786667 357.745333,79.192 358.22,78.92 C358.694667,78.648 359.230667,78.512 359.828,78.512 C360.414667,78.512 360.945333,78.648 361.42,78.92 C361.894667,79.192 362.268,79.5786667 362.54,80.08 C362.812,80.5813333 362.948,81.152 362.948,81.792 C362.948,82.432 362.812,83.0026667 362.54,83.504 C362.268,84.0053333 361.894667,84.392 361.42,84.664 C360.945333,84.936 360.414667,85.072 359.828,85.072 Z M368.372,86 L368.372,74.128 L367.236,74.128 L367.236,86 L368.372,86 Z M375.108,86.08 C375.78,86.08 376.396,85.9626667 376.956,85.728 C377.516,85.4933333 377.982667,85.152 378.356,84.704 L378.356,84.704 L377.716,83.968 C377.396,84.3306667 377.017333,84.6053333 376.58,84.792 C376.142667,84.9786667 375.662667,85.072 375.14,85.072 C374.212,85.072 373.444,84.8026667 372.836,84.264 C372.228,83.7253333 371.892,83.0186667 371.828,82.144 L371.828,82.144 L378.868,82.144 L378.884,81.792 C378.884,80.96 378.708,80.2213333 378.356,79.576 C378.004,78.9306667 377.518667,78.4266667 376.9,78.064 C376.281333,77.7013333 375.582667,77.52 374.804,77.52 C374.025333,77.52 373.324,77.7013333 372.7,78.064 C372.076,78.4266667 371.585333,78.9333333 371.228,79.584 C370.870667,80.2346667 370.692,80.9706667 370.692,81.792 C370.692,82.6133333 370.878667,83.3493333 371.252,84 C371.625333,84.6506667 372.145333,85.16 372.812,85.528 C373.478667,85.896 374.244,86.08 375.108,86.08 Z M377.796,81.296 L371.828,81.296 C371.902667,80.464 372.214667,79.7893333 372.764,79.272 C373.313333,78.7546667 373.993333,78.496 374.804,78.496 C375.625333,78.496 376.310667,78.7546667 376.86,79.272 C377.409333,79.7893333 377.721333,80.464 377.796,81.296 L377.796,81.296 Z M385.972,75.744 C386.206667,75.744 386.404,75.664 386.564,75.504 C386.724,75.344 386.804,75.1466667 386.804,74.912 C386.804,74.6986667 386.724,74.5146667 386.564,74.36 C386.404,74.2053333 386.206667,74.128 385.972,74.128 C385.737333,74.128 385.54,74.208 385.38,74.368 C385.22,74.528 385.14,74.7146667 385.14,74.928 C385.14,75.152 385.22,75.344 385.38,75.504 C385.54,75.664 385.737333,75.744 385.972,75.744 Z M386.532,86 L386.532,77.584 L385.396,77.584 L385.396,86 L386.532,86 Z M390.836,86 L390.836,81.584 C390.836,80.6346667 391.1,79.8906667 391.628,79.352 C392.156,78.8133333 392.873333,78.544 393.78,78.544 C394.590667,78.544 395.214667,78.7733333 395.652,79.232 C396.089333,79.6906667 396.308,80.3573333 396.308,81.232 L396.308,81.232 L396.308,86 L397.444,86 L397.444,81.12 C397.444,79.9466667 397.132,79.0533333 396.508,78.44 C395.884,77.8266667 395.044,77.52 393.988,77.52 C393.262667,77.52 392.625333,77.6613333 392.076,77.944 C391.526667,78.2266667 391.097333,78.624 390.788,79.136 L390.788,79.136 L390.788,77.584 L389.7,77.584 L389.7,86 L390.836,86 Z M404.02,86.08 C404.734667,86.08 405.38,85.9386667 405.956,85.656 C406.532,85.3733333 406.985333,84.96 407.316,84.416 L407.316,84.416 L406.468,83.84 C406.190667,84.256 405.838667,84.5653333 405.412,84.768 C404.985333,84.9706667 404.521333,85.072 404.02,85.072 C403.412,85.072 402.865333,84.936 402.38,84.664 C401.894667,84.392 401.516,84.008 401.244,83.512 C400.972,83.016 400.836,82.4426667 400.836,81.792 C400.836,81.152 400.972,80.5813333 401.244,80.08 C401.516,79.5786667 401.894667,79.192 402.38,78.92 C402.865333,78.648 403.412,78.512 404.02,78.512 C404.521333,78.512 404.985333,78.616 405.412,78.824 C405.838667,79.032 406.190667,79.344 406.468,79.76 L406.468,79.76 L407.316,79.184 C406.985333,78.64 406.534667,78.2266667 405.964,77.944 C405.393333,77.6613333 404.745333,77.52 404.02,77.52 C403.188,77.52 402.444,77.7013333 401.788,78.064 C401.132,78.4266667 400.617333,78.9333333 400.244,79.584 C399.870667,80.2346667 399.684,80.9706667 399.684,81.792 C399.684,82.6133333 399.870667,83.352 400.244,84.008 C400.617333,84.664 401.132,85.1733333 401.788,85.536 C402.444,85.8986667 403.188,86.08 404.02,86.08 Z M412.98,86.08 C413.790667,86.08 414.521333,85.896 415.172,85.528 C415.822667,85.16 416.332,84.6506667 416.7,84 C417.068,83.3493333 417.252,82.6133333 417.252,81.792 C417.252,80.9706667 417.068,80.2346667 416.7,79.584 C416.332,78.9333333 415.822667,78.4266667 415.172,78.064 C414.521333,77.7013333 413.790667,77.52 412.98,77.52 C412.169333,77.52 411.438667,77.7013333 410.788,78.064 C410.137333,78.4266667 409.625333,78.9333333 409.252,79.584 C408.878667,80.2346667 408.692,80.9706667 408.692,81.792 C408.692,82.6133333 408.878667,83.3493333 409.252,84 C409.625333,84.6506667 410.137333,85.16 410.788,85.528 C411.438667,85.896 412.169333,86.08 412.98,86.08 Z M412.98,85.072 C412.382667,85.072 411.846667,84.936 411.372,84.664 C410.897333,84.392 410.524,84.0053333 410.252,83.504 C409.98,83.0026667 409.844,82.432 409.844,81.792 C409.844,81.152 409.98,80.5813333 410.252,80.08 C410.524,79.5786667 410.897333,79.192 411.372,78.92 C411.846667,78.648 412.382667,78.512 412.98,78.512 C413.577333,78.512 414.113333,78.648 414.588,78.92 C415.062667,79.192 415.433333,79.5786667 415.7,80.08 C415.966667,80.5813333 416.1,81.152 416.1,81.792 C416.1,82.432 415.966667,83.0026667 415.7,83.504 C415.433333,84.0053333 415.062667,84.392 414.588,84.664 C414.113333,84.936 413.577333,85.072 412.98,85.072 Z M420.708,86 L420.708,81.584 C420.708,80.6346667 420.961333,79.8906667 421.468,79.352 C421.974667,78.8133333 422.66,78.544 423.524,78.544 C424.302667,78.544 424.902667,78.7733333 425.324,79.232 C425.745333,79.6906667 425.956,80.3573333 425.956,81.232 L425.956,81.232 L425.956,86 L427.092,86 L427.092,81.584 C427.092,80.6346667 427.342667,79.8906667 427.844,79.352 C428.345333,78.8133333 429.033333,78.544 429.908,78.544 C430.676,78.544 431.270667,78.7733333 431.692,79.232 C432.113333,79.6906667 432.324,80.3573333 432.324,81.232 L432.324,81.232 L432.324,86 L433.46,86 L433.46,81.12 C433.46,79.936 433.158667,79.04 432.556,78.432 C431.953333,77.824 431.124,77.52 430.068,77.52 C429.321333,77.52 428.657333,77.6773333 428.076,77.992 C427.494667,78.3066667 427.049333,78.7413333 426.74,79.296 C426.484,78.7093333 426.097333,78.2666667 425.58,77.968 C425.062667,77.6693333 424.452,77.52 423.748,77.52 C423.054667,77.52 422.441333,77.6586667 421.908,77.936 C421.374667,78.2133333 420.958667,78.608 420.66,79.12 L420.66,79.12 L420.66,77.584 L419.572,77.584 L419.572,86 L420.708,86 Z M440.116,86.08 C440.788,86.08 441.404,85.9626667 441.964,85.728 C442.524,85.4933333 442.990667,85.152 443.364,84.704 L443.364,84.704 L442.724,83.968 C442.404,84.3306667 442.025333,84.6053333 441.588,84.792 C441.150667,84.9786667 440.670667,85.072 440.148,85.072 C439.22,85.072 438.452,84.8026667 437.844,84.264 C437.236,83.7253333 436.9,83.0186667 436.836,82.144 L436.836,82.144 L443.876,82.144 L443.892,81.792 C443.892,80.96 443.716,80.2213333 443.364,79.576 C443.012,78.9306667 442.526667,78.4266667 441.908,78.064 C441.289333,77.7013333 440.590667,77.52 439.812,77.52 C439.033333,77.52 438.332,77.7013333 437.708,78.064 C437.084,78.4266667 436.593333,78.9333333 436.236,79.584 C435.878667,80.2346667 435.7,80.9706667 435.7,81.792 C435.7,82.6133333 435.886667,83.3493333 436.26,84 C436.633333,84.6506667 437.153333,85.16 437.82,85.528 C438.486667,85.896 439.252,86.08 440.116,86.08 Z M442.804,81.296 L436.836,81.296 C436.910667,80.464 437.222667,79.7893333 437.772,79.272 C438.321333,78.7546667 439.001333,78.496 439.812,78.496 C440.633333,78.496 441.318667,78.7546667 441.868,79.272 C442.417333,79.7893333 442.729333,80.464 442.804,81.296 L442.804,81.296 Z M356.292,116 L356.292,108.544 L358.852,108.544 L358.852,107.584 L356.26,107.584 L356.26,106.592 C356.26,106.069333 356.385333,105.674667 356.636,105.408 C356.886667,105.141333 357.257333,105.008 357.748,105.008 C358.249333,105.008 358.665333,105.146667 358.996,105.424 L358.996,105.424 L359.38,104.576 C359.177333,104.405333 358.926667,104.274667 358.628,104.184 C358.329333,104.093333 358.02,104.048 357.7,104.048 C356.889333,104.048 356.262667,104.272 355.82,104.72 C355.377333,105.168 355.156,105.776 355.156,106.544 L355.156,106.544 L355.156,107.584 L353.652,107.584 L353.652,108.544 L355.156,108.544 L355.156,116 L356.292,116 Z M362.756,116.08 C363.438667,116.08 364.028,115.957333 364.524,115.712 C365.02,115.466667 365.396,115.125333 365.652,114.688 L365.652,114.688 L365.652,116 L366.74,116 L366.74,110.784 C366.74,109.706667 366.446667,108.893333 365.86,108.344 C365.273333,107.794667 364.430667,107.52 363.332,107.52 C362.670667,107.52 362.041333,107.618667 361.444,107.816 C360.846667,108.013333 360.334667,108.293333 359.908,108.656 L359.908,108.656 L360.42,109.504 C360.772,109.194667 361.193333,108.952 361.684,108.776 C362.174667,108.6 362.686667,108.512 363.22,108.512 C363.998667,108.512 364.590667,108.701333 364.996,109.08 C365.401333,109.458667 365.604,110.010667 365.604,110.736 L365.604,110.736 L365.604,111.248 L362.932,111.248 C361.801333,111.248 360.977333,111.466667 360.46,111.904 C359.942667,112.341333 359.684,112.917333 359.684,113.632 C359.684,114.368 359.961333,114.96 360.516,115.408 C361.070667,115.856 361.817333,116.08 362.756,116.08 Z M362.932,115.184 C362.26,115.184 361.737333,115.042667 361.364,114.76 C360.990667,114.477333 360.804,114.090667 360.804,113.6 C360.804,112.597333 361.524,112.096 362.964,112.096 L362.964,112.096 L365.604,112.096 L365.604,113.472 C365.38,114.026667 365.038667,114.450667 364.58,114.744 C364.121333,115.037333 363.572,115.184 362.932,115.184 Z M370.964,116 L370.964,111.584 C370.964,110.634667 371.217333,109.890667 371.724,109.352 C372.230667,108.813333 372.916,108.544 373.78,108.544 C374.558667,108.544 375.158667,108.773333 375.58,109.232 C376.001333,109.690667 376.212,110.357333 376.212,111.232 L376.212,111.232 L376.212,116 L377.348,116 L377.348,111.584 C377.348,110.634667 377.598667,109.890667 378.1,109.352 C378.601333,108.813333 379.289333,108.544 380.164,108.544 C380.932,108.544 381.526667,108.773333 381.948,109.232 C382.369333,109.690667 382.58,110.357333 382.58,111.232 L382.58,111.232 L382.58,116 L383.716,116 L383.716,111.12 C383.716,109.936 383.414667,109.04 382.812,108.432 C382.209333,107.824 381.38,107.52 380.324,107.52 C379.577333,107.52 378.913333,107.677333 378.332,107.992 C377.750667,108.306667 377.305333,108.741333 376.996,109.296 C376.74,108.709333 376.353333,108.266667 375.836,107.968 C375.318667,107.669333 374.708,107.52 374.004,107.52 C373.310667,107.52 372.697333,107.658667 372.164,107.936 C371.630667,108.213333 371.214667,108.608 370.916,109.12 L370.916,109.12 L370.916,107.584 L369.828,107.584 L369.828,116 L370.964,116 Z M387.38,105.744 C387.614667,105.744 387.812,105.664 387.972,105.504 C388.132,105.344 388.212,105.146667 388.212,104.912 C388.212,104.698667 388.132,104.514667 387.972,104.36 C387.812,104.205333 387.614667,104.128 387.38,104.128 C387.145333,104.128 386.948,104.208 386.788,104.368 C386.628,104.528 386.548,104.714667 386.548,104.928 C386.548,105.152 386.628,105.344 386.788,105.504 C386.948,105.664 387.145333,105.744 387.38,105.744 Z M387.94,116 L387.94,107.584 L386.804,107.584 L386.804,116 L387.94,116 Z M392.244,116 L392.244,104.128 L391.108,104.128 L391.108,116 L392.244,116 Z M395.988,105.744 C396.222667,105.744 396.42,105.664 396.58,105.504 C396.74,105.344 396.82,105.146667 396.82,104.912 C396.82,104.698667 396.74,104.514667 396.58,104.36 C396.42,104.205333 396.222667,104.128 395.988,104.128 C395.753333,104.128 395.556,104.208 395.396,104.368 C395.236,104.528 395.156,104.714667 395.156,104.928 C395.156,105.152 395.236,105.344 395.396,105.504 C395.556,105.664 395.753333,105.744 395.988,105.744 Z M396.548,116 L396.548,107.584 L395.412,107.584 L395.412,116 L396.548,116 Z M403.284,116.08 C403.956,116.08 404.572,115.962667 405.132,115.728 C405.692,115.493333 406.158667,115.152 406.532,114.704 L406.532,114.704 L405.892,113.968 C405.572,114.330667 405.193333,114.605333 404.756,114.792 C404.318667,114.978667 403.838667,115.072 403.316,115.072 C402.388,115.072 401.62,114.802667 401.012,114.264 C400.404,113.725333 400.068,113.018667 400.004,112.144 L400.004,112.144 L407.044,112.144 L407.06,111.792 C407.06,110.96 406.884,110.221333 406.532,109.576 C406.18,108.930667 405.694667,108.426667 405.076,108.064 C404.457333,107.701333 403.758667,107.52 402.98,107.52 C402.201333,107.52 401.5,107.701333 400.876,108.064 C400.252,108.426667 399.761333,108.933333 399.404,109.584 C399.046667,110.234667 398.868,110.970667 398.868,111.792 C398.868,112.613333 399.054667,113.349333 399.428,114 C399.801333,114.650667 400.321333,115.16 400.988,115.528 C401.654667,115.896 402.42,116.08 403.284,116.08 Z M405.972,111.296 L400.004,111.296 C400.078667,110.464 400.390667,109.789333 400.94,109.272 C401.489333,108.754667 402.169333,108.496 402.98,108.496 C403.801333,108.496 404.486667,108.754667 405.036,109.272 C405.585333,109.789333 405.897333,110.464 405.972,111.296 L405.972,111.296 Z M411.636,116.08 C412.724,116.08 413.574667,115.864 414.188,115.432 C414.801333,115 415.108,114.416 415.108,113.68 C415.108,113.136 414.964,112.709333 414.676,112.4 C414.388,112.090667 414.041333,111.872 413.636,111.744 C413.230667,111.616 412.692,111.488 412.02,111.36 C411.476,111.264 411.049333,111.170667 410.74,111.08 C410.430667,110.989333 410.172,110.848 409.964,110.656 C409.756,110.464 409.652,110.208 409.652,109.888 C409.652,109.472 409.836,109.136 410.204,108.88 C410.572,108.624 411.118667,108.496 411.844,108.496 C412.804,108.496 413.630667,108.736 414.324,109.216 L414.324,109.216 L414.82,108.304 C414.468,108.069333 414.02,107.88 413.476,107.736 C412.932,107.592 412.388,107.52 411.844,107.52 C410.798667,107.52 409.982667,107.744 409.396,108.192 C408.809333,108.64 408.516,109.216 408.516,109.92 C408.516,110.485333 408.662667,110.928 408.956,111.248 C409.249333,111.568 409.604,111.794667 410.02,111.928 C410.436,112.061333 410.985333,112.192 411.668,112.32 C412.18,112.405333 412.590667,112.493333 412.9,112.584 C413.209333,112.674667 413.465333,112.808 413.668,112.984 C413.870667,113.16 413.972,113.402667 413.972,113.712 C413.972,114.149333 413.788,114.488 413.42,114.728 C413.052,114.968 412.484,115.088 411.716,115.088 C411.14,115.088 410.585333,115 410.052,114.824 C409.518667,114.648 409.076,114.421333 408.724,114.144 L408.724,114.144 L408.212,115.04 C408.564,115.338667 409.052,115.586667 409.676,115.784 C410.3,115.981333 410.953333,116.08 411.636,116.08 Z" id="Middleincomefamilies" fill="#2D3142" fill-rule="nonzero"></path>
                <g id="Group-20" transform="translate(54.000000, 0.000000)" stroke="#3772FF" stroke-width="1.5">
                    <circle id="Oval" cx="19.5" cy="11.5" r="11.5"></circle>
                    <path d="M39,44 C39,32.954305 30.2695526,24 19.5,24 C8.73044738,24 0,32.954305 0,44" id="Oval-Copy"></path>
                </g>
                <g id="Group-18" transform="translate(331.000000, 4.000000)" stroke="#3772FF" stroke-width="1.5">
                    <circle id="Oval" cx="7.5" cy="18.5" r="4.5"></circle>
                    <path d="M15,31 C15,26.581722 11.6421356,23 7.5,23 C3.35786438,23 0,26.581722 0,31" id="Oval-Copy"></path>
                    <circle id="Oval" cx="31.5" cy="4.5" r="4.5"></circle>
                    <path d="M39,17 C39,12.581722 35.6421356,9 31.5,9 C27.3578644,9 24,12.581722 24,17" id="Oval-Copy"></path>
                    <circle id="Oval" cx="54.5" cy="18.5" r="4.5"></circle>
                    <path d="M62,31 C62,26.581722 58.6421356,23 54.5,23 C50.3578644,23 47,26.581722 47,31" id="Oval-Copy"></path>
                    <circle id="Oval" cx="31.5" cy="35.5" r="4.5"></circle>
                    <path d="M39,48 C39,43.581722 35.6421356,40 31.5,40 C27.3578644,40 24,43.581722 24,48" id="Oval-Copy"></path>
                    <circle id="Oval" cx="77.5" cy="4.5" r="4.5"></circle>
                    <path d="M85,17 C85,12.581722 81.6421356,9 77.5,9 C73.3578644,9 70,12.581722 70,17" id="Oval-Copy"></path>
                    <circle id="Oval" cx="100.5" cy="18.5" r="4.5"></circle>
                    <path d="M108,31 C108,26.581722 104.642136,23 100.5,23 C96.3578644,23 93,26.581722 93,31" id="Oval-Copy"></path>
                    <circle id="Oval" cx="77.5" cy="35.5" r="4.5"></circle>
                    <path d="M85,48 C85,43.581722 81.6421356,40 77.5,40 C73.3578644,40 70,43.581722 70,48" id="Oval-Copy"></path>
                </g>
            </g>
        </g>
    </g>
</svg>