<?xml version="1.0" encoding="UTF-8"?>
<svg width="319px" height="338px" viewBox="0 0 319 338" version="1.1" xmlns="http://www.w3.org/2000/svg" xmlns:xlink="http://www.w3.org/1999/xlink">
    <title>Group 11</title>
    <g stroke="none" stroke-width="1" fill="none" fill-rule="evenodd">
        <g transform="translate(-176.000000, -1936.000000)">
            <g transform="translate(165.000000, 1810.000000)">
                <g transform="translate(13.000000, 126.000000)">
                    <text id="Half-a-grade-at-GCSE" font-family="Montserrat-Regular, Montserrat" font-size="16" font-weight="normal" line-spacing="30" fill="#2D3142">
                        <tspan x="136" y="20">Half a grade at </tspan>
                        <tspan x="136" y="50">GCSE level </tspan>
                        <tspan x="136" y="80">English</tspan>
                    </text>
                    <text id="A-third-of-a-grade-a" font-family="Montserrat-Regular, Montserrat" font-size="16" font-weight="normal" line-spacing="30" fill="#2D3142">
                        <tspan x="136" y="144">A third of a grade at </tspan>
                        <tspan x="136" y="174">GCSE level </tspan>
                        <tspan x="136" y="204">Mathematics</tspan>
                    </text>
                    <text id="More-likely-to-take" font-family="Montserrat-Regular, Montserrat" font-size="16" font-weight="normal" line-spacing="30" fill="#2D3142">
                        <tspan x="136" y="263">More likely to take </tspan>
                        <tspan x="136" y="293">four or more A-</tspan>
                        <tspan x="136" y="323">levels</tspan>
                    </text>
                    <g transform="translate(-0.000000, 249.000000)" fill="#2D3142" fill-rule="nonzero">
                        <g transform="translate(-1.194444, 4.777778)">
                            <path d="M10.1702925,0.361401335 C8.0988222,0.366461158 6.03556233,0.596153776 4.01443573,1.04628784 C3.60475469,1.13752972 3.31334605,1.50097898 3.31334605,1.92069751 L3.31334605,28.368739 C3.31334605,28.9082581 3.78674236,29.3253712 4.32196823,29.2574436 C6.09900327,29.0319135 7.88829464,28.9167964 9.67975323,28.9127336 C15.3153437,28.9127359 19.4232401,30.1215675 22.2556848,31.9735506 C22.8519148,32.3633932 23.6426197,31.9350534 23.6417625,31.2226864 L23.6116044,6.18186476 C23.6113411,5.96330921 23.5311897,5.75238892 23.3862407,5.58881516 C20.1066451,1.88781899 15.431991,0.361401335 10.1702925,0.361401335 Z M10.1706944,2.15238889 L10.6326169,2.15736043 C15.0830958,2.24051475 18.9858563,3.53668444 21.7621427,6.46798412 L21.8189167,6.53122222 L21.8475833,29.6616389 L21.5003428,29.4853311 C18.5307359,28.0177275 14.6298613,27.1210693 9.67772159,27.1210693 L8.7443429,27.1328197 C7.8113992,27.1542009 6.87987831,27.2044653 5.95084066,27.2835298 L5.10386111,27.3647222 L5.10386111,2.64808333 L5.83182968,2.5174305 C7.02702782,2.31842662 8.23431384,2.20053348 9.44542339,2.16470617 L10.1706944,2.15238889 Z" id="Stroke-1"></path>
                            <path d="M35.2940468,0.366469151 C30.08272,0.366469151 25.3659588,1.91732779 22.0784044,5.59057295 C21.9313834,5.75484218 21.8500957,5.96755454 21.8500957,6.18800757 L21.8500957,31.2186511 C21.8500957,31.9278871 22.6351246,32.355865 23.2312592,31.9716266 C26.1155175,30.1125785 30.2124535,28.9077474 35.8142622,28.9077474 C37.5913898,28.9162312 39.370824,29.0346485 41.1380709,29.2622951 C41.6738357,29.3313093 42.1483547,28.9139945 42.1483547,28.3738029 L42.1483547,1.92576144 C42.1483547,1.50591978 41.8567788,1.14239858 41.4469441,1.05128035 C39.4269293,0.602172028 37.3638251,0.372565509 35.2940468,0.366469151 Z M35.2898611,2.15716667 L36.0161983,2.17008829 C37.4702007,2.21362725 38.9182736,2.37478876 40.3555,2.65405556 L40.3555,27.3671111 L39.5228094,27.2861928 C38.29107,27.17876 37.0552603,27.1219878 35.8185336,27.1160909 L35.208393,27.1207182 C30.3703696,27.1945795 26.5647802,28.1482376 23.6416389,29.6652222 L23.6416389,6.53838889 L23.4134538,6.78544219 C26.2114382,3.65920257 30.2643757,2.25306185 34.8185316,2.16279274 L35.2898611,2.15716667 Z" id="Stroke-3"></path>
                            <path d="M4.20917939,2.76488344 C4.70393447,2.76488344 5.10501272,3.16596168 5.10501272,3.66071677 C5.10501272,4.11424227 4.76799558,4.4890532 4.33073866,4.5483722 L4.20917939,4.5565501 L2.16433333,4.55561111 L2.16433333,29.799 L2.27591332,29.7767778 C2.6919855,29.6924947 3.14139644,29.6090041 3.62175169,29.5282978 L4.11233302,29.4485932 C10.0009572,28.5238891 16.3015406,28.5512756 22.2823301,30.1580377 L22.998443,30.3584703 L23.1132529,30.400428 C23.5164769,30.5796563 23.735235,31.0337584 23.6084097,31.46919 C23.4815843,31.9046216 23.0531995,32.1702345 22.6167992,32.104911 L22.4978028,32.0787694 L21.7872647,31.8802863 C16.0907404,30.3560879 10.040994,30.3312246 4.39027647,31.2185697 C3.74976448,31.3191507 3.16212356,31.4253403 2.63315454,31.5324684 L1.78079522,31.7172072 L1.49709016,31.7867604 C0.966862808,31.9264732 0.447185202,31.5625456 0.38025142,31.0357487 L0.372999369,30.9204949 L0.372999369,3.66071677 C0.372999369,3.20719127 0.710016505,2.83238034 1.14727343,2.77306134 L1.2688327,2.76488344 L4.20917939,2.76488344 Z" id="Stroke-5"></path>
                            <path d="M44.089026,2.76482061 C44.5425515,2.76482061 44.9173625,3.10183774 44.9766815,3.53909466 L44.9848594,3.66065394 L44.9848594,30.9204321 C44.9848594,31.5079206 44.4288746,31.9363864 43.8607756,31.7866994 L43.5770744,31.7171495 L43.1103562,31.6128648 C42.4862756,31.4787391 41.7682546,31.3442559 40.9676223,31.2185355 C35.0813586,30.2942367 28.762076,30.3597527 22.860044,32.0787101 C22.3850257,32.2170584 21.8877939,31.9441334 21.7494456,31.4691152 C21.6110973,30.9940969 21.8840222,30.4968651 22.3590405,30.3585168 C28.5514059,28.5550003 35.1212907,28.4868861 41.2455556,29.4485574 C41.7462692,29.5271826 42.2168366,29.6092557 42.6548634,29.6927852 L43.1923056,29.799 L43.1923056,4.55561111 L41.1486794,4.55648728 C40.6951539,4.55648728 40.6704301,4.02059025 40.6111111,3.58333333 L40.6029332,3.46177406 C40.6029332,3.00824856 40.5898632,2.83231752 41.0271201,2.77299851 L41.1486794,2.76482061 L44.089026,2.76482061 Z" id="Stroke-7"></path>
                        </g>
                    </g>
                    <g transform="translate(-0.000000, 294.000000)" fill="#2D3142" fill-rule="nonzero">
                        <g transform="translate(-1.194444, 4.777778)">
                            <path d="M10.1702925,0.361401335 C8.0988222,0.366461158 6.03556233,0.596153776 4.01443573,1.04628784 C3.60475469,1.13752972 3.31334605,1.50097898 3.31334605,1.92069751 L3.31334605,28.368739 C3.31334605,28.9082581 3.78674236,29.3253712 4.32196823,29.2574436 C6.09900327,29.0319135 7.88829464,28.9167964 9.67975323,28.9127336 C15.3153437,28.9127359 19.4232401,30.1215675 22.2556848,31.9735506 C22.8519148,32.3633932 23.6426197,31.9350534 23.6417625,31.2226864 L23.6116044,6.18186476 C23.6113411,5.96330921 23.5311897,5.75238892 23.3862407,5.58881516 C20.1066451,1.88781899 15.431991,0.361401335 10.1702925,0.361401335 Z M10.1706944,2.15238889 L10.6326169,2.15736043 C15.0830958,2.24051475 18.9858563,3.53668444 21.7621427,6.46798412 L21.8189167,6.53122222 L21.8475833,29.6616389 L21.5003428,29.4853311 C18.5307359,28.0177275 14.6298613,27.1210693 9.67772159,27.1210693 L8.7443429,27.1328197 C7.8113992,27.1542009 6.87987831,27.2044653 5.95084066,27.2835298 L5.10386111,27.3647222 L5.10386111,2.64808333 L5.83182968,2.5174305 C7.02702782,2.31842662 8.23431384,2.20053348 9.44542339,2.16470617 L10.1706944,2.15238889 Z" id="Stroke-1"></path>
                            <path d="M35.2940468,0.366469151 C30.08272,0.366469151 25.3659588,1.91732779 22.0784044,5.59057295 C21.9313834,5.75484218 21.8500957,5.96755454 21.8500957,6.18800757 L21.8500957,31.2186511 C21.8500957,31.9278871 22.6351246,32.355865 23.2312592,31.9716266 C26.1155175,30.1125785 30.2124535,28.9077474 35.8142622,28.9077474 C37.5913898,28.9162312 39.370824,29.0346485 41.1380709,29.2622951 C41.6738357,29.3313093 42.1483547,28.9139945 42.1483547,28.3738029 L42.1483547,1.92576144 C42.1483547,1.50591978 41.8567788,1.14239858 41.4469441,1.05128035 C39.4269293,0.602172028 37.3638251,0.372565509 35.2940468,0.366469151 Z M35.2898611,2.15716667 L36.0161983,2.17008829 C37.4702007,2.21362725 38.9182736,2.37478876 40.3555,2.65405556 L40.3555,27.3671111 L39.5228094,27.2861928 C38.29107,27.17876 37.0552603,27.1219878 35.8185336,27.1160909 L35.208393,27.1207182 C30.3703696,27.1945795 26.5647802,28.1482376 23.6416389,29.6652222 L23.6416389,6.53838889 L23.4134538,6.78544219 C26.2114382,3.65920257 30.2643757,2.25306185 34.8185316,2.16279274 L35.2898611,2.15716667 Z" id="Stroke-3"></path>
                            <path d="M4.20917939,2.76488344 C4.70393447,2.76488344 5.10501272,3.16596168 5.10501272,3.66071677 C5.10501272,4.11424227 4.76799558,4.4890532 4.33073866,4.5483722 L4.20917939,4.5565501 L2.16433333,4.55561111 L2.16433333,29.799 L2.27591332,29.7767778 C2.6919855,29.6924947 3.14139644,29.6090041 3.62175169,29.5282978 L4.11233302,29.4485932 C10.0009572,28.5238891 16.3015406,28.5512756 22.2823301,30.1580377 L22.998443,30.3584703 L23.1132529,30.400428 C23.5164769,30.5796563 23.735235,31.0337584 23.6084097,31.46919 C23.4815843,31.9046216 23.0531995,32.1702345 22.6167992,32.104911 L22.4978028,32.0787694 L21.7872647,31.8802863 C16.0907404,30.3560879 10.040994,30.3312246 4.39027647,31.2185697 C3.74976448,31.3191507 3.16212356,31.4253403 2.63315454,31.5324684 L1.78079522,31.7172072 L1.49709016,31.7867604 C0.966862808,31.9264732 0.447185202,31.5625456 0.38025142,31.0357487 L0.372999369,30.9204949 L0.372999369,3.66071677 C0.372999369,3.20719127 0.710016505,2.83238034 1.14727343,2.77306134 L1.2688327,2.76488344 L4.20917939,2.76488344 Z" id="Stroke-5"></path>
                            <path d="M44.089026,2.76482061 C44.5425515,2.76482061 44.9173625,3.10183774 44.9766815,3.53909466 L44.9848594,3.66065394 L44.9848594,30.9204321 C44.9848594,31.5079206 44.4288746,31.9363864 43.8607756,31.7866994 L43.5770744,31.7171495 L43.1103562,31.6128648 C42.4862756,31.4787391 41.7682546,31.3442559 40.9676223,31.2185355 C35.0813586,30.2942367 28.762076,30.3597527 22.860044,32.0787101 C22.3850257,32.2170584 21.8877939,31.9441334 21.7494456,31.4691152 C21.6110973,30.9940969 21.8840222,30.4968651 22.3590405,30.3585168 C28.5514059,28.5550003 35.1212907,28.4868861 41.2455556,29.4485574 C41.7462692,29.5271826 42.2168366,29.6092557 42.6548634,29.6927852 L43.1923056,29.799 L43.1923056,4.55561111 L41.1486794,4.55648728 C40.6951539,4.55648728 40.6704301,4.02059025 40.6111111,3.58333333 L40.6029332,3.46177406 C40.6029332,3.00824856 40.5898632,2.83231752 41.0271201,2.77299851 L41.1486794,2.76482061 L44.089026,2.76482061 Z" id="Stroke-7"></path>
                        </g>
                    </g>
                    <g transform="translate(57.000000, 249.000000)" fill="#2D3142" fill-rule="nonzero">
                        <g transform="translate(-1.194444, 4.777778)">
                            <path d="M10.1702925,0.361401335 C8.0988222,0.366461158 6.03556233,0.596153776 4.01443573,1.04628784 C3.60475469,1.13752972 3.31334605,1.50097898 3.31334605,1.92069751 L3.31334605,28.368739 C3.31334605,28.9082581 3.78674236,29.3253712 4.32196823,29.2574436 C6.09900327,29.0319135 7.88829464,28.9167964 9.67975323,28.9127336 C15.3153437,28.9127359 19.4232401,30.1215675 22.2556848,31.9735506 C22.8519148,32.3633932 23.6426197,31.9350534 23.6417625,31.2226864 L23.6116044,6.18186476 C23.6113411,5.96330921 23.5311897,5.75238892 23.3862407,5.58881516 C20.1066451,1.88781899 15.431991,0.361401335 10.1702925,0.361401335 Z M10.1706944,2.15238889 L10.6326169,2.15736043 C15.0830958,2.24051475 18.9858563,3.53668444 21.7621427,6.46798412 L21.8189167,6.53122222 L21.8475833,29.6616389 L21.5003428,29.4853311 C18.5307359,28.0177275 14.6298613,27.1210693 9.67772159,27.1210693 L8.7443429,27.1328197 C7.8113992,27.1542009 6.87987831,27.2044653 5.95084066,27.2835298 L5.10386111,27.3647222 L5.10386111,2.64808333 L5.83182968,2.5174305 C7.02702782,2.31842662 8.23431384,2.20053348 9.44542339,2.16470617 L10.1706944,2.15238889 Z" id="Stroke-1"></path>
                            <path d="M35.2940468,0.366469151 C30.08272,0.366469151 25.3659588,1.91732779 22.0784044,5.59057295 C21.9313834,5.75484218 21.8500957,5.96755454 21.8500957,6.18800757 L21.8500957,31.2186511 C21.8500957,31.9278871 22.6351246,32.355865 23.2312592,31.9716266 C26.1155175,30.1125785 30.2124535,28.9077474 35.8142622,28.9077474 C37.5913898,28.9162312 39.370824,29.0346485 41.1380709,29.2622951 C41.6738357,29.3313093 42.1483547,28.9139945 42.1483547,28.3738029 L42.1483547,1.92576144 C42.1483547,1.50591978 41.8567788,1.14239858 41.4469441,1.05128035 C39.4269293,0.602172028 37.3638251,0.372565509 35.2940468,0.366469151 Z M35.2898611,2.15716667 L36.0161983,2.17008829 C37.4702007,2.21362725 38.9182736,2.37478876 40.3555,2.65405556 L40.3555,27.3671111 L39.5228094,27.2861928 C38.29107,27.17876 37.0552603,27.1219878 35.8185336,27.1160909 L35.208393,27.1207182 C30.3703696,27.1945795 26.5647802,28.1482376 23.6416389,29.6652222 L23.6416389,6.53838889 L23.4134538,6.78544219 C26.2114382,3.65920257 30.2643757,2.25306185 34.8185316,2.16279274 L35.2898611,2.15716667 Z" id="Stroke-3"></path>
                            <path d="M4.20917939,2.76488344 C4.70393447,2.76488344 5.10501272,3.16596168 5.10501272,3.66071677 C5.10501272,4.11424227 4.76799558,4.4890532 4.33073866,4.5483722 L4.20917939,4.5565501 L2.16433333,4.55561111 L2.16433333,29.799 L2.27591332,29.7767778 C2.6919855,29.6924947 3.14139644,29.6090041 3.62175169,29.5282978 L4.11233302,29.4485932 C10.0009572,28.5238891 16.3015406,28.5512756 22.2823301,30.1580377 L22.998443,30.3584703 L23.1132529,30.400428 C23.5164769,30.5796563 23.735235,31.0337584 23.6084097,31.46919 C23.4815843,31.9046216 23.0531995,32.1702345 22.6167992,32.104911 L22.4978028,32.0787694 L21.7872647,31.8802863 C16.0907404,30.3560879 10.040994,30.3312246 4.39027647,31.2185697 C3.74976448,31.3191507 3.16212356,31.4253403 2.63315454,31.5324684 L1.78079522,31.7172072 L1.49709016,31.7867604 C0.966862808,31.9264732 0.447185202,31.5625456 0.38025142,31.0357487 L0.372999369,30.9204949 L0.372999369,3.66071677 C0.372999369,3.20719127 0.710016505,2.83238034 1.14727343,2.77306134 L1.2688327,2.76488344 L4.20917939,2.76488344 Z" id="Stroke-5"></path>
                            <path d="M44.089026,2.76482061 C44.5425515,2.76482061 44.9173625,3.10183774 44.9766815,3.53909466 L44.9848594,3.66065394 L44.9848594,30.9204321 C44.9848594,31.5079206 44.4288746,31.9363864 43.8607756,31.7866994 L43.5770744,31.7171495 L43.1103562,31.6128648 C42.4862756,31.4787391 41.7682546,31.3442559 40.9676223,31.2185355 C35.0813586,30.2942367 28.762076,30.3597527 22.860044,32.0787101 C22.3850257,32.2170584 21.8877939,31.9441334 21.7494456,31.4691152 C21.6110973,30.9940969 21.8840222,30.4968651 22.3590405,30.3585168 C28.5514059,28.5550003 35.1212907,28.4868861 41.2455556,29.4485574 C41.7462692,29.5271826 42.2168366,29.6092557 42.6548634,29.6927852 L43.1923056,29.799 L43.1923056,4.55561111 L41.1486794,4.55648728 C40.6951539,4.55648728 40.6704301,4.02059025 40.6111111,3.58333333 L40.6029332,3.46177406 C40.6029332,3.00824856 40.5898632,2.83231752 41.0271201,2.77299851 L41.1486794,2.76482061 L44.089026,2.76482061 Z" id="Stroke-7"></path>
                        </g>
                    </g>
                    <g transform="translate(57.000000, 294.000000)" fill="#2D3142" fill-rule="nonzero">
                        <g transform="translate(-1.194444, 4.777778)">
                            <path d="M10.1702925,0.361401335 C8.0988222,0.366461158 6.03556233,0.596153776 4.01443573,1.04628784 C3.60475469,1.13752972 3.31334605,1.50097898 3.31334605,1.92069751 L3.31334605,28.368739 C3.31334605,28.9082581 3.78674236,29.3253712 4.32196823,29.2574436 C6.09900327,29.0319135 7.88829464,28.9167964 9.67975323,28.9127336 C15.3153437,28.9127359 19.4232401,30.1215675 22.2556848,31.9735506 C22.8519148,32.3633932 23.6426197,31.9350534 23.6417625,31.2226864 L23.6116044,6.18186476 C23.6113411,5.96330921 23.5311897,5.75238892 23.3862407,5.58881516 C20.1066451,1.88781899 15.431991,0.361401335 10.1702925,0.361401335 Z M10.1706944,2.15238889 L10.6326169,2.15736043 C15.0830958,2.24051475 18.9858563,3.53668444 21.7621427,6.46798412 L21.8189167,6.53122222 L21.8475833,29.6616389 L21.5003428,29.4853311 C18.5307359,28.0177275 14.6298613,27.1210693 9.67772159,27.1210693 L8.7443429,27.1328197 C7.8113992,27.1542009 6.87987831,27.2044653 5.95084066,27.2835298 L5.10386111,27.3647222 L5.10386111,2.64808333 L5.83182968,2.5174305 C7.02702782,2.31842662 8.23431384,2.20053348 9.44542339,2.16470617 L10.1706944,2.15238889 Z" id="Stroke-1"></path>
                            <path d="M35.2940468,0.366469151 C30.08272,0.366469151 25.3659588,1.91732779 22.0784044,5.59057295 C21.9313834,5.75484218 21.8500957,5.96755454 21.8500957,6.18800757 L21.8500957,31.2186511 C21.8500957,31.9278871 22.6351246,32.355865 23.2312592,31.9716266 C26.1155175,30.1125785 30.2124535,28.9077474 35.8142622,28.9077474 C37.5913898,28.9162312 39.370824,29.0346485 41.1380709,29.2622951 C41.6738357,29.3313093 42.1483547,28.9139945 42.1483547,28.3738029 L42.1483547,1.92576144 C42.1483547,1.50591978 41.8567788,1.14239858 41.4469441,1.05128035 C39.4269293,0.602172028 37.3638251,0.372565509 35.2940468,0.366469151 Z M35.2898611,2.15716667 L36.0161983,2.17008829 C37.4702007,2.21362725 38.9182736,2.37478876 40.3555,2.65405556 L40.3555,27.3671111 L39.5228094,27.2861928 C38.29107,27.17876 37.0552603,27.1219878 35.8185336,27.1160909 L35.208393,27.1207182 C30.3703696,27.1945795 26.5647802,28.1482376 23.6416389,29.6652222 L23.6416389,6.53838889 L23.4134538,6.78544219 C26.2114382,3.65920257 30.2643757,2.25306185 34.8185316,2.16279274 L35.2898611,2.15716667 Z" id="Stroke-3"></path>
                            <path d="M4.20917939,2.76488344 C4.70393447,2.76488344 5.10501272,3.16596168 5.10501272,3.66071677 C5.10501272,4.11424227 4.76799558,4.4890532 4.33073866,4.5483722 L4.20917939,4.5565501 L2.16433333,4.55561111 L2.16433333,29.799 L2.27591332,29.7767778 C2.6919855,29.6924947 3.14139644,29.6090041 3.62175169,29.5282978 L4.11233302,29.4485932 C10.0009572,28.5238891 16.3015406,28.5512756 22.2823301,30.1580377 L22.998443,30.3584703 L23.1132529,30.400428 C23.5164769,30.5796563 23.735235,31.0337584 23.6084097,31.46919 C23.4815843,31.9046216 23.0531995,32.1702345 22.6167992,32.104911 L22.4978028,32.0787694 L21.7872647,31.8802863 C16.0907404,30.3560879 10.040994,30.3312246 4.39027647,31.2185697 C3.74976448,31.3191507 3.16212356,31.4253403 2.63315454,31.5324684 L1.78079522,31.7172072 L1.49709016,31.7867604 C0.966862808,31.9264732 0.447185202,31.5625456 0.38025142,31.0357487 L0.372999369,30.9204949 L0.372999369,3.66071677 C0.372999369,3.20719127 0.710016505,2.83238034 1.14727343,2.77306134 L1.2688327,2.76488344 L4.20917939,2.76488344 Z" id="Stroke-5"></path>
                            <path d="M44.089026,2.76482061 C44.5425515,2.76482061 44.9173625,3.10183774 44.9766815,3.53909466 L44.9848594,3.66065394 L44.9848594,30.9204321 C44.9848594,31.5079206 44.4288746,31.9363864 43.8607756,31.7866994 L43.5770744,31.7171495 L43.1103562,31.6128648 C42.4862756,31.4787391 41.7682546,31.3442559 40.9676223,31.2185355 C35.0813586,30.2942367 28.762076,30.3597527 22.860044,32.0787101 C22.3850257,32.2170584 21.8877939,31.9441334 21.7494456,31.4691152 C21.6110973,30.9940969 21.8840222,30.4968651 22.3590405,30.3585168 C28.5514059,28.5550003 35.1212907,28.4868861 41.2455556,29.4485574 C41.7462692,29.5271826 42.2168366,29.6092557 42.6548634,29.6927852 L43.1923056,29.799 L43.1923056,4.55561111 L41.1486794,4.55648728 C40.6951539,4.55648728 40.6704301,4.02059025 40.6111111,3.58333333 L40.6029332,3.46177406 C40.6029332,3.00824856 40.5898632,2.83231752 41.0271201,2.77299851 L41.1486794,2.76482061 L44.089026,2.76482061 Z" id="Stroke-7"></path>
                        </g>
                    </g>
                    <circle id="Oval-Copy-7" fill="#3772FF" transform="translate(50.000000, 50.000000) rotate(-180.000000) translate(-50.000000, -50.000000) " cx="50" cy="50" r="50"></circle>
                    <path d="M75,75 C75,47.3857625 52.6142375,25 25,25 C-2.61423749,25 -25,47.3857625 -25,75" id="Oval-Copy-9" fill="#EFEFEF" transform="translate(25.000000, 50.000000) rotate(-90.000000) translate(-25.000000, -50.000000) "></path>
                    <circle id="Oval" fill="#FFFFFF" cx="50.4672897" cy="50.4672897" r="25.2336449"></circle>
                    <polygon id="Clip-2" points="-1.8189894e-12 125 49.7995098 125 49.7995098 198.730756 -1.8189894e-12 198.730756"></polygon>
                    <path d="M49.7995098,174.153192 L6.67892157,198.730756 C-7.07009804,175.22073 1.08872549,145.158364 24.9034314,131.585246 C32.8338235,127.064422 40.6426471,125 49.7995098,125 L49.7995098,174.153192 Z" id="Fill-1" fill="#EFEFEF"></path>
                    <polygon id="Clip-5" points="6.67892157 174.153192 92.920098 174.153192 92.920098 223.315966 6.67892157 223.315966"></polygon>
                    <path d="M49.7995098,174.153192 L92.920098,198.730756 C79.170098,222.240783 48.7181373,230.296192 24.9034314,216.722106 C16.9740196,212.20225 11.2573529,206.558721 6.67892157,198.730756 L49.7995098,174.153192 Z" id="Fill-4" fill="#EFEFEF"></path>
                    <path d="M49.7995098,174.153192 L49.7995098,125 C77.2985294,125 99.5906863,147.005989 99.5906863,174.153192 C99.5906863,183.193872 97.4985294,190.901824 92.920098,198.730756 L49.7995098,174.153192 Z" id="Fill-7" fill="#FFBA08"></path>
                    <ellipse id="Oval-Copy-10" fill="#FFFFFF" cx="50.4716981" cy="174.965666" rx="25" ry="24.7663551"></ellipse>
                </g>
            </g>
        </g>
    </g>
</svg>