<?xml version="1.0" encoding="UTF-8"?>
<svg width="445px" height="62px" viewBox="0 0 445 62" version="1.1" xmlns="http://www.w3.org/2000/svg" xmlns:xlink="http://www.w3.org/1999/xlink">
    <title>Group 11</title>
    <g id="Home-&gt;-Research-&gt;-Timeline" stroke="none" stroke-width="1" fill="none" fill-rule="evenodd">
        <g id="Desktop/Timeline/Impact-of-Covid-19" transform="translate(-164.000000, -992.000000)">
            <g id="Group-11" transform="translate(165.000000, 992.000000)">
                <text id="of-eligible-children" font-family="Montserrat-Regular, Montserrat" font-size="18" font-weight="normal" line-spacing="30" fill="#2D3142">
                    <tspan x="188.438" y="18">of eligible children accessed </tspan>
                    <tspan x="192.155" y="48">child care during lockdown</tspan>
                </text>
                <path d="M30,12 C36.0012891,12 39.0774609,15.0744141 41.7896484,17.7884766 C44.3439844,20.3410547 46.6653516,22.546875 51.2109375,22.546875 L51.2109375,22.546875 L54.7265625,22.546875 C57.6344531,22.546875 60,24.9124219 60,27.8203125 C60,36.3194531 53.1329297,43.2215625 44.7188672,43.5742969 C41.3167969,47.5951172 36.5939063,50.671875 30,50.671875 C23.3925,50.671875 18.6635156,47.5825781 15.2600391,43.5498047 C6.7425,43.0735547 0,36.2364844 0,27.8203125 C0,24.9124219 2.36554688,22.546875 5.2734375,22.546875 L5.2734375,22.546875 L8.7890625,22.546875 C13.3346484,22.546875 15.6560156,20.3410547 18.2103516,17.7884766 C20.9225391,15.0744141 23.9987109,12 30,12 Z M7.31601563,26.0625 L5.2734375,26.0625 C4.30359375,26.0625 3.515625,26.8504687 3.515625,27.8203125 C3.515625,33.3814453 7.36640625,38.0392969 12.4409766,39.5572266 C9.37792969,34.3389844 7.84300781,28.7095313 7.31601563,26.0625 L7.31601563,26.0625 Z M54.7265625,26.0625 L52.6839844,26.0625 C52.1569922,28.7095312 50.6220703,34.3389844 47.5590234,39.5572266 C52.6335938,38.0392969 56.484375,33.3814453 56.484375,27.8203125 C56.484375,26.8504687 55.6964063,26.0625 54.7265625,26.0625 L54.7265625,26.0625 Z" id="Combined-Shape" stroke="#3772FF" stroke-width="1.5" fill-rule="nonzero"></path>
                <text id="7%" font-family="Montserrat-Bold, Montserrat" font-size="48" font-weight="bold" line-spacing="62" fill="#2D3142">
                    <tspan x="85.5" y="46">7%</tspan>
                </text>
            </g>
        </g>
    </g>
</svg>