<?xml version="1.0" encoding="UTF-8"?>
<svg width="444px" height="397px" viewBox="0 0 444 397" version="1.1" xmlns="http://www.w3.org/2000/svg" xmlns:xlink="http://www.w3.org/1999/xlink">
    <title>Group 11</title>
    <g id="Home-&gt;-Issues-Chronology-&gt;-Timeline" stroke="none" stroke-width="1" fill="none" fill-rule="evenodd">
        <g id="Desktop/Timeline/Working-life/Recruitment-practices" transform="translate(-165.000000, -4135.000000)">
            <g id="Group-11" transform="translate(165.000000, 4135.704000)">
                <path d="M23,3.296 C24.6568542,3.296 26,4.63914575 26,6.296 C26,7.89368088 24.75108,9.19966088 23.1762728,9.29090731 L23,9.296 L3,9.296 C1.34314575,9.296 0,7.95285425 0,6.296 C0,4.69831912 1.24891996,3.39233912 2.82372721,3.30109269 L3,3.296 L23,3.296 Z" id="Line-5" fill="#DB7656"></path>
                <path d="M116,3.296 C117.656854,3.296 119,4.63914575 119,6.296 C119,7.89368088 117.75108,9.19966088 116.176273,9.29090731 L116,9.296 L96,9.296 C94.3431458,9.296 93,7.95285425 93,6.296 C93,4.69831912 94.24892,3.39233912 95.8237272,3.30109269 L96,3.296 L116,3.296 Z" id="Line-5-Copy-2" fill="#3772FF"></path>
                <path d="M210,3.296 C211.656854,3.296 213,4.63914575 213,6.296 C213,7.89368088 211.75108,9.19966088 210.176273,9.29090731 L210,9.296 L190,9.296 C188.343146,9.296 187,7.95285425 187,6.296 C187,4.69831912 188.24892,3.39233912 189.823727,3.30109269 L190,3.296 L210,3.296 Z" id="Line-5-Copy-3" fill="#FFBA08"></path>
                <path d="M304,3.296 C305.656854,3.296 307,4.63914575 307,6.296 C307,7.89368088 305.75108,9.19966088 304.176273,9.29090731 L304,9.296 L284,9.296 C282.343146,9.296 281,7.95285425 281,6.296 C281,4.69831912 282.24892,3.39233912 283.823727,3.30109269 L284,3.296 L304,3.296 Z" id="Line-5-Copy-4" fill="#7DCFB6"></path>
                <g id="Group-10" transform="translate(3.728000, 0.000000)" fill="#2D3142" fill-rule="nonzero">
                    <path d="M38.752,11.296 L38.752,10.272 L32.592,10.272 L36.4,6.528 C37.1146667,5.83466667 37.6,5.22133333 37.856,4.688 C38.112,4.15466667 38.24,3.6 38.24,3.024 C38.24,2.08533333 37.9066667,1.34666667 37.24,0.808 C36.5733333,0.269333333 35.6693333,0 34.528,0 C33.6746667,0 32.9093333,0.138666667 32.232,0.416 C31.5546667,0.693333333 30.9973333,1.088 30.56,1.6 L30.56,1.6 L31.376,2.304 C32.1013333,1.472 33.12,1.056 34.432,1.056 C35.2746667,1.056 35.9226667,1.24 36.376,1.608 C36.8293333,1.976 37.056,2.49066667 37.056,3.152 C37.056,3.57866667 36.952,4.00266667 36.744,4.424 C36.536,4.84533333 36.1386667,5.344 35.552,5.92 L35.552,5.92 L30.896,10.48 L30.896,11.296 L38.752,11.296 Z M44.656,11.392 C45.52,11.392 46.2906667,11.1626667 46.968,10.704 C47.6453333,10.2453333 48.176,9.58666667 48.56,8.728 C48.944,7.86933333 49.136,6.85866667 49.136,5.696 C49.136,4.53333333 48.944,3.52266667 48.56,2.664 C48.176,1.80533333 47.6453333,1.14666667 46.968,0.688 C46.2906667,0.229333333 45.52,0 44.656,0 C43.792,0 43.0213333,0.229333333 42.344,0.688 C41.6666667,1.14666667 41.1386667,1.80533333 40.76,2.664 C40.3813333,3.52266667 40.192,4.53333333 40.192,5.696 C40.192,6.85866667 40.3813333,7.86933333 40.76,8.728 C41.1386667,9.58666667 41.6666667,10.2453333 42.344,10.704 C43.0213333,11.1626667 43.792,11.392 44.656,11.392 Z M44.656,10.336 C44.0053333,10.336 43.432,10.1546667 42.936,9.792 C42.44,9.42933333 42.0533333,8.90133333 41.776,8.208 C41.4986667,7.51466667 41.36,6.67733333 41.36,5.696 C41.36,4.71466667 41.4986667,3.87733333 41.776,3.184 C42.0533333,2.49066667 42.44,1.96266667 42.936,1.6 C43.432,1.23733333 44.0053333,1.056 44.656,1.056 C45.3066667,1.056 45.88,1.23733333 46.376,1.6 C46.872,1.96266667 47.2586667,2.49066667 47.536,3.184 C47.8133333,3.87733333 47.952,4.71466667 47.952,5.696 C47.952,6.67733333 47.8133333,7.51466667 47.536,8.208 C47.2586667,8.90133333 46.872,9.42933333 46.376,9.792 C45.88,10.1546667 45.3066667,10.336 44.656,10.336 Z M53.888,11.296 L53.888,0.096 L50.096,0.096 L50.096,1.12 L52.736,1.12 L52.736,11.296 L53.888,11.296 Z M59.776,11.296 L64.464,0.912 L64.464,0.096 L56.24,0.096 L56.24,3.216 L57.376,3.216 L57.376,1.12 L63.136,1.12 L58.528,11.296 L59.776,11.296 Z" id="2017"></path>
                    <path d="M4.018,87.38 C4.65266667,87.38 5.22433333,87.2563333 5.733,87.009 C6.24166667,86.7616667 6.64066667,86.4093333 6.93,85.952 C7.21933333,85.4946667 7.364,84.9673333 7.364,84.37 C7.364,83.782 7.224,83.2663333 6.944,82.823 C6.664,82.3796667 6.27433333,82.0366667 5.775,81.794 C5.27566667,81.5513333 4.704,81.43 4.06,81.43 C3.36933333,81.43 2.758,81.577 2.226,81.871 C1.694,82.165 1.30666667,82.578 1.064,83.11 C1.036,82.8113333 1.022,82.5453333 1.022,82.312 C1.022,81.0053333 1.33,80.009 1.946,79.323 C2.562,78.637 3.41133333,78.294 4.494,78.294 C5.29666667,78.294 5.93133333,78.448 6.398,78.756 L6.398,78.756 L6.804,77.944 C6.22533333,77.5893333 5.45066667,77.412 4.48,77.412 C3.584,77.412 2.8,77.6056667 2.128,77.993 C1.456,78.3803333 0.933333333,78.952 0.56,79.708 C0.186666667,80.464 -1.80477855e-12,81.388 -1.80477855e-12,82.48 C-1.80477855e-12,84.0386667 0.345333333,85.245 1.036,86.099 C1.72666667,86.953 2.72066667,87.38 4.018,87.38 Z M3.976,86.526 C3.43466667,86.526 2.968,86.428 2.576,86.232 C2.184,86.036 1.88766667,85.7793333 1.687,85.462 C1.48633333,85.1446667 1.386,84.7993333 1.386,84.426 C1.386,84.0246667 1.49333333,83.6606667 1.708,83.334 C1.92266667,83.0073333 2.219,82.7506667 2.597,82.564 C2.975,82.3773333 3.41133333,82.284 3.906,82.284 C4.662,82.284 5.26166667,82.4753333 5.705,82.858 C6.14833333,83.2406667 6.37,83.754 6.37,84.398 C6.37,85.042 6.14833333,85.5576667 5.705,85.945 C5.26166667,86.3323333 4.68533333,86.526 3.976,86.526 Z M11.116,87.38 C12.012,87.38 12.796,87.1863333 13.468,86.799 C14.14,86.4116667 14.6626667,85.84 15.036,85.084 C15.4093333,84.328 15.596,83.404 15.596,82.312 C15.596,80.7533333 15.2506667,79.547 14.56,78.693 C13.8693333,77.839 12.8753333,77.412 11.578,77.412 C10.9433333,77.412 10.3716667,77.5356667 9.863,77.783 C9.35433333,78.0303333 8.95533333,78.3826667 8.666,78.84 C8.37666667,79.2973333 8.232,79.8246667 8.232,80.422 C8.232,81.01 8.372,81.5256667 8.652,81.969 C8.932,82.4123333 9.32166667,82.7553333 9.821,82.998 C10.3203333,83.2406667 10.892,83.362 11.536,83.362 C12.2266667,83.362 12.838,83.215 13.37,82.921 C13.902,82.627 14.2893333,82.214 14.532,81.682 C14.56,81.9713333 14.574,82.2373333 14.574,82.48 C14.574,83.7866667 14.266,84.783 13.65,85.469 C13.034,86.155 12.1846667,86.498 11.102,86.498 C10.2993333,86.498 9.66466667,86.344 9.198,86.036 L9.198,86.036 L8.792,86.848 C9.37066667,87.2026667 10.1453333,87.38 11.116,87.38 Z M11.69,82.508 C10.934,82.508 10.3343333,82.3166667 9.891,81.934 C9.44766667,81.5513333 9.226,81.038 9.226,80.394 C9.226,79.75 9.44766667,79.2343333 9.891,78.847 C10.3343333,78.4596667 10.9106667,78.266 11.62,78.266 C12.1613333,78.266 12.628,78.364 13.02,78.56 C13.412,78.756 13.7083333,79.0126667 13.909,79.33 C14.1096667,79.6473333 14.21,79.9926667 14.21,80.366 C14.21,80.7673333 14.1026667,81.1313333 13.888,81.458 C13.6733333,81.7846667 13.377,82.0413333 12.999,82.228 C12.621,82.4146667 12.1846667,82.508 11.69,82.508 Z M18.724,83.396 C19.284,83.396 19.74,83.188 20.092,82.772 C20.444,82.356 20.62,81.804 20.62,81.116 C20.62,80.428 20.444,79.876 20.092,79.46 C19.74,79.044 19.284,78.836 18.724,78.836 C18.156,78.836 17.698,79.046 17.35,79.466 C17.002,79.886 16.828,80.436 16.828,81.116 C16.828,81.796 17.002,82.346 17.35,82.766 C17.698,83.186 18.156,83.396 18.724,83.396 Z M18.784,87.296 L24.52,78.896 L23.812,78.896 L18.076,87.296 L18.784,87.296 Z M18.724,82.856 C18.324,82.856 18.008,82.7 17.776,82.388 C17.544,82.076 17.428,81.652 17.428,81.116 C17.428,80.58 17.544,80.156 17.776,79.844 C18.008,79.532 18.324,79.376 18.724,79.376 C19.116,79.376 19.43,79.53 19.666,79.838 C19.902,80.146 20.02,80.572 20.02,81.116 C20.02,81.66 19.902,82.086 19.666,82.394 C19.43,82.702 19.116,82.856 18.724,82.856 Z M23.872,87.356 C24.44,87.356 24.898,87.146 25.246,86.726 C25.594,86.306 25.768,85.756 25.768,85.076 C25.768,84.396 25.594,83.846 25.246,83.426 C24.898,83.006 24.44,82.796 23.872,82.796 C23.312,82.796 22.856,83.006 22.504,83.426 C22.152,83.846 21.976,84.396 21.976,85.076 C21.976,85.756 22.152,86.306 22.504,86.726 C22.856,87.146 23.312,87.356 23.872,87.356 Z M23.872,86.816 C23.48,86.816 23.166,86.662 22.93,86.354 C22.694,86.046 22.576,85.62 22.576,85.076 C22.576,84.532 22.694,84.106 22.93,83.798 C23.166,83.49 23.48,83.336 23.872,83.336 C24.272,83.336 24.588,83.492 24.82,83.804 C25.052,84.116 25.168,84.54 25.168,85.076 C25.168,85.612 25.052,86.036 24.82,86.348 C24.588,86.66 24.272,86.816 23.872,86.816 Z" id="69%"></path>
                    <path d="M156.954,51.296 L161.056,42.21 L161.056,41.496 L153.86,41.496 L153.86,44.226 L154.854,44.226 L154.854,42.392 L159.894,42.392 L155.862,51.296 L156.954,51.296 Z M164.976,51.38 C165.872,51.38 166.656,51.1863333 167.328,50.799 C168,50.4116667 168.522667,49.84 168.896,49.084 C169.269333,48.328 169.456,47.404 169.456,46.312 C169.456,44.7533333 169.110667,43.547 168.42,42.693 C167.729333,41.839 166.735333,41.412 165.438,41.412 C164.803333,41.412 164.231667,41.5356667 163.723,41.783 C163.214333,42.0303333 162.815333,42.3826667 162.526,42.84 C162.236667,43.2973333 162.092,43.8246667 162.092,44.422 C162.092,45.01 162.232,45.5256667 162.512,45.969 C162.792,46.4123333 163.181667,46.7553333 163.681,46.998 C164.180333,47.2406667 164.752,47.362 165.396,47.362 C166.086667,47.362 166.698,47.215 167.23,46.921 C167.762,46.627 168.149333,46.214 168.392,45.682 C168.42,45.9713333 168.434,46.2373333 168.434,46.48 C168.434,47.7866667 168.126,48.783 167.51,49.469 C166.894,50.155 166.044667,50.498 164.962,50.498 C164.159333,50.498 163.524667,50.344 163.058,50.036 L163.058,50.036 L162.652,50.848 C163.230667,51.2026667 164.005333,51.38 164.976,51.38 Z M165.55,46.508 C164.794,46.508 164.194333,46.3166667 163.751,45.934 C163.307667,45.5513333 163.086,45.038 163.086,44.394 C163.086,43.75 163.307667,43.2343333 163.751,42.847 C164.194333,42.4596667 164.770667,42.266 165.48,42.266 C166.021333,42.266 166.488,42.364 166.88,42.56 C167.272,42.756 167.568333,43.0126667 167.769,43.33 C167.969667,43.6473333 168.07,43.9926667 168.07,44.366 C168.07,44.7673333 167.962667,45.1313333 167.748,45.458 C167.533333,45.7846667 167.237,46.0413333 166.859,46.228 C166.481,46.4146667 166.044667,46.508 165.55,46.508 Z M172.584,47.396 C173.144,47.396 173.6,47.188 173.952,46.772 C174.304,46.356 174.48,45.804 174.48,45.116 C174.48,44.428 174.304,43.876 173.952,43.46 C173.6,43.044 173.144,42.836 172.584,42.836 C172.016,42.836 171.558,43.046 171.21,43.466 C170.862,43.886 170.688,44.436 170.688,45.116 C170.688,45.796 170.862,46.346 171.21,46.766 C171.558,47.186 172.016,47.396 172.584,47.396 Z M172.644,51.296 L178.38,42.896 L177.672,42.896 L171.936,51.296 L172.644,51.296 Z M172.584,46.856 C172.184,46.856 171.868,46.7 171.636,46.388 C171.404,46.076 171.288,45.652 171.288,45.116 C171.288,44.58 171.404,44.156 171.636,43.844 C171.868,43.532 172.184,43.376 172.584,43.376 C172.976,43.376 173.29,43.53 173.526,43.838 C173.762,44.146 173.88,44.572 173.88,45.116 C173.88,45.66 173.762,46.086 173.526,46.394 C173.29,46.702 172.976,46.856 172.584,46.856 Z M177.732,51.356 C178.3,51.356 178.758,51.146 179.106,50.726 C179.454,50.306 179.628,49.756 179.628,49.076 C179.628,48.396 179.454,47.846 179.106,47.426 C178.758,47.006 178.3,46.796 177.732,46.796 C177.172,46.796 176.716,47.006 176.364,47.426 C176.012,47.846 175.836,48.396 175.836,49.076 C175.836,49.756 176.012,50.306 176.364,50.726 C176.716,51.146 177.172,51.356 177.732,51.356 Z M177.732,50.816 C177.34,50.816 177.026,50.662 176.79,50.354 C176.554,50.046 176.436,49.62 176.436,49.076 C176.436,48.532 176.554,48.106 176.79,47.798 C177.026,47.49 177.34,47.336 177.732,47.336 C178.132,47.336 178.448,47.492 178.68,47.804 C178.912,48.116 179.028,48.54 179.028,49.076 C179.028,49.612 178.912,50.036 178.68,50.348 C178.448,50.66 178.132,50.816 177.732,50.816 Z" id="79%"></path>
                    <path d="M313.749,277.296 L313.749,267.496 L310.431,267.496 L310.431,268.392 L312.741,268.392 L312.741,277.296 L313.749,277.296 Z M319.811,277.38 C320.585667,277.38 321.26,277.265667 321.834,277.037 C322.408,276.808333 322.849,276.481667 323.157,276.057 C323.465,275.632333 323.619,275.135333 323.619,274.566 C323.619,273.987333 323.453333,273.492667 323.122,273.082 C322.790667,272.671333 322.317,272.363333 321.701,272.158 C322.205,271.962 322.592333,271.679667 322.863,271.311 C323.133667,270.942333 323.269,270.506 323.269,270.002 C323.269,269.479333 323.124333,269.022 322.835,268.63 C322.545667,268.238 322.142,267.937 321.624,267.727 C321.106,267.517 320.501667,267.412 319.811,267.412 C318.765667,267.412 317.932667,267.645333 317.312,268.112 C316.691333,268.578667 316.381,269.208667 316.381,270.002 C316.381,270.506 316.511667,270.942333 316.773,271.311 C317.034333,271.679667 317.417,271.962 317.921,272.158 C317.305,272.363333 316.836,272.669 316.514,273.075 C316.192,273.481 316.031,273.978 316.031,274.566 C316.031,275.434 316.367,276.12 317.039,276.624 C317.711,277.128 318.635,277.38 319.811,277.38 Z M319.811,271.794 C319.055,271.794 318.462333,271.635333 318.033,271.318 C317.603667,271.000667 317.389,270.571333 317.389,270.03 C317.389,269.488667 317.606,269.059333 318.04,268.742 C318.474,268.424667 319.064333,268.266 319.811,268.266 C320.548333,268.266 321.138667,268.424667 321.582,268.742 C322.025333,269.059333 322.247,269.493333 322.247,270.044 C322.247,270.576 322.03,271.000667 321.596,271.318 C321.162,271.635333 320.567,271.794 319.811,271.794 Z M319.811,276.526 C318.943,276.526 318.266333,276.351 317.781,276.001 C317.295667,275.651 317.053,275.168 317.053,274.552 C317.053,273.945333 317.298,273.467 317.788,273.117 C318.278,272.767 318.952333,272.592 319.811,272.592 C320.679,272.592 321.358,272.767 321.848,273.117 C322.338,273.467 322.583,273.945333 322.583,274.552 C322.583,275.158667 322.338,275.639333 321.848,275.994 C321.358,276.348667 320.679,276.526 319.811,276.526 Z M326.691,273.396 C327.251,273.396 327.707,273.188 328.059,272.772 C328.411,272.356 328.587,271.804 328.587,271.116 C328.587,270.428 328.411,269.876 328.059,269.46 C327.707,269.044 327.251,268.836 326.691,268.836 C326.123,268.836 325.665,269.046 325.317,269.466 C324.969,269.886 324.795,270.436 324.795,271.116 C324.795,271.796 324.969,272.346 325.317,272.766 C325.665,273.186 326.123,273.396 326.691,273.396 Z M326.751,277.296 L332.487,268.896 L331.779,268.896 L326.043,277.296 L326.751,277.296 Z M326.691,272.856 C326.291,272.856 325.975,272.7 325.743,272.388 C325.511,272.076 325.395,271.652 325.395,271.116 C325.395,270.58 325.511,270.156 325.743,269.844 C325.975,269.532 326.291,269.376 326.691,269.376 C327.083,269.376 327.397,269.53 327.633,269.838 C327.869,270.146 327.987,270.572 327.987,271.116 C327.987,271.66 327.869,272.086 327.633,272.394 C327.397,272.702 327.083,272.856 326.691,272.856 Z M331.839,277.356 C332.407,277.356 332.865,277.146 333.213,276.726 C333.561,276.306 333.735,275.756 333.735,275.076 C333.735,274.396 333.561,273.846 333.213,273.426 C332.865,273.006 332.407,272.796 331.839,272.796 C331.279,272.796 330.823,273.006 330.471,273.426 C330.119,273.846 329.943,274.396 329.943,275.076 C329.943,275.756 330.119,276.306 330.471,276.726 C330.823,277.146 331.279,277.356 331.839,277.356 Z M331.839,276.816 C331.447,276.816 331.133,276.662 330.897,276.354 C330.661,276.046 330.543,275.62 330.543,275.076 C330.543,274.532 330.661,274.106 330.897,273.798 C331.133,273.49 331.447,273.336 331.839,273.336 C332.239,273.336 332.555,273.492 332.787,273.804 C333.019,274.116 333.135,274.54 333.135,275.076 C333.135,275.612 333.019,276.036 332.787,276.348 C332.555,276.66 332.239,276.816 331.839,276.816 Z" id="18%"></path>
                    <path d="M347.749,277.296 L347.749,267.496 L344.431,267.496 L344.431,268.392 L346.741,268.392 L346.741,277.296 L347.749,277.296 Z M353.811,277.38 C354.585667,277.38 355.26,277.265667 355.834,277.037 C356.408,276.808333 356.849,276.481667 357.157,276.057 C357.465,275.632333 357.619,275.135333 357.619,274.566 C357.619,273.987333 357.453333,273.492667 357.122,273.082 C356.790667,272.671333 356.317,272.363333 355.701,272.158 C356.205,271.962 356.592333,271.679667 356.863,271.311 C357.133667,270.942333 357.269,270.506 357.269,270.002 C357.269,269.479333 357.124333,269.022 356.835,268.63 C356.545667,268.238 356.142,267.937 355.624,267.727 C355.106,267.517 354.501667,267.412 353.811,267.412 C352.765667,267.412 351.932667,267.645333 351.312,268.112 C350.691333,268.578667 350.381,269.208667 350.381,270.002 C350.381,270.506 350.511667,270.942333 350.773,271.311 C351.034333,271.679667 351.417,271.962 351.921,272.158 C351.305,272.363333 350.836,272.669 350.514,273.075 C350.192,273.481 350.031,273.978 350.031,274.566 C350.031,275.434 350.367,276.12 351.039,276.624 C351.711,277.128 352.635,277.38 353.811,277.38 Z M353.811,271.794 C353.055,271.794 352.462333,271.635333 352.033,271.318 C351.603667,271.000667 351.389,270.571333 351.389,270.03 C351.389,269.488667 351.606,269.059333 352.04,268.742 C352.474,268.424667 353.064333,268.266 353.811,268.266 C354.548333,268.266 355.138667,268.424667 355.582,268.742 C356.025333,269.059333 356.247,269.493333 356.247,270.044 C356.247,270.576 356.03,271.000667 355.596,271.318 C355.162,271.635333 354.567,271.794 353.811,271.794 Z M353.811,276.526 C352.943,276.526 352.266333,276.351 351.781,276.001 C351.295667,275.651 351.053,275.168 351.053,274.552 C351.053,273.945333 351.298,273.467 351.788,273.117 C352.278,272.767 352.952333,272.592 353.811,272.592 C354.679,272.592 355.358,272.767 355.848,273.117 C356.338,273.467 356.583,273.945333 356.583,274.552 C356.583,275.158667 356.338,275.639333 355.848,275.994 C355.358,276.348667 354.679,276.526 353.811,276.526 Z M360.691,273.396 C361.251,273.396 361.707,273.188 362.059,272.772 C362.411,272.356 362.587,271.804 362.587,271.116 C362.587,270.428 362.411,269.876 362.059,269.46 C361.707,269.044 361.251,268.836 360.691,268.836 C360.123,268.836 359.665,269.046 359.317,269.466 C358.969,269.886 358.795,270.436 358.795,271.116 C358.795,271.796 358.969,272.346 359.317,272.766 C359.665,273.186 360.123,273.396 360.691,273.396 Z M360.751,277.296 L366.487,268.896 L365.779,268.896 L360.043,277.296 L360.751,277.296 Z M360.691,272.856 C360.291,272.856 359.975,272.7 359.743,272.388 C359.511,272.076 359.395,271.652 359.395,271.116 C359.395,270.58 359.511,270.156 359.743,269.844 C359.975,269.532 360.291,269.376 360.691,269.376 C361.083,269.376 361.397,269.53 361.633,269.838 C361.869,270.146 361.987,270.572 361.987,271.116 C361.987,271.66 361.869,272.086 361.633,272.394 C361.397,272.702 361.083,272.856 360.691,272.856 Z M365.839,277.356 C366.407,277.356 366.865,277.146 367.213,276.726 C367.561,276.306 367.735,275.756 367.735,275.076 C367.735,274.396 367.561,273.846 367.213,273.426 C366.865,273.006 366.407,272.796 365.839,272.796 C365.279,272.796 364.823,273.006 364.471,273.426 C364.119,273.846 363.943,274.396 363.943,275.076 C363.943,275.756 364.119,276.306 364.471,276.726 C364.823,277.146 365.279,277.356 365.839,277.356 Z M365.839,276.816 C365.447,276.816 365.133,276.662 364.897,276.354 C364.661,276.046 364.543,275.62 364.543,275.076 C364.543,274.532 364.661,274.106 364.897,273.798 C365.133,273.49 365.447,273.336 365.839,273.336 C366.239,273.336 366.555,273.492 366.787,273.804 C367.019,274.116 367.135,274.54 367.135,275.076 C367.135,275.612 367.019,276.036 366.787,276.348 C366.555,276.66 366.239,276.816 365.839,276.816 Z" id="18%"></path>
                    <path d="M38.19,80.296 L42.292,71.21 L42.292,70.496 L35.096,70.496 L35.096,73.226 L36.09,73.226 L36.09,71.392 L41.13,71.392 L37.098,80.296 L38.19,80.296 Z M46.338,80.296 L46.338,70.496 L43.02,70.496 L43.02,71.392 L45.33,71.392 L45.33,80.296 L46.338,80.296 Z M50.348,76.396 C50.908,76.396 51.364,76.188 51.716,75.772 C52.068,75.356 52.244,74.804 52.244,74.116 C52.244,73.428 52.068,72.876 51.716,72.46 C51.364,72.044 50.908,71.836 50.348,71.836 C49.78,71.836 49.322,72.046 48.974,72.466 C48.626,72.886 48.452,73.436 48.452,74.116 C48.452,74.796 48.626,75.346 48.974,75.766 C49.322,76.186 49.78,76.396 50.348,76.396 Z M50.408,80.296 L56.144,71.896 L55.436,71.896 L49.7,80.296 L50.408,80.296 Z M50.348,75.856 C49.948,75.856 49.632,75.7 49.4,75.388 C49.168,75.076 49.052,74.652 49.052,74.116 C49.052,73.58 49.168,73.156 49.4,72.844 C49.632,72.532 49.948,72.376 50.348,72.376 C50.74,72.376 51.054,72.53 51.29,72.838 C51.526,73.146 51.644,73.572 51.644,74.116 C51.644,74.66 51.526,75.086 51.29,75.394 C51.054,75.702 50.74,75.856 50.348,75.856 Z M55.496,80.356 C56.064,80.356 56.522,80.146 56.87,79.726 C57.218,79.306 57.392,78.756 57.392,78.076 C57.392,77.396 57.218,76.846 56.87,76.426 C56.522,76.006 56.064,75.796 55.496,75.796 C54.936,75.796 54.48,76.006 54.128,76.426 C53.776,76.846 53.6,77.396 53.6,78.076 C53.6,78.756 53.776,79.306 54.128,79.726 C54.48,80.146 54.936,80.356 55.496,80.356 Z M55.496,79.816 C55.104,79.816 54.79,79.662 54.554,79.354 C54.318,79.046 54.2,78.62 54.2,78.076 C54.2,77.532 54.318,77.106 54.554,76.798 C54.79,76.49 55.104,76.336 55.496,76.336 C55.896,76.336 56.212,76.492 56.444,76.804 C56.676,77.116 56.792,77.54 56.792,78.076 C56.792,78.612 56.676,79.036 56.444,79.348 C56.212,79.66 55.896,79.816 55.496,79.816 Z" id="71%"></path>
                    <path d="M191.09,69.296 L195.192,60.21 L195.192,59.496 L187.996,59.496 L187.996,62.226 L188.99,62.226 L188.99,60.392 L194.03,60.392 L189.998,69.296 L191.09,69.296 Z M202.892,69.296 L202.892,66.72 L204.852,66.72 L204.852,65.824 L202.892,65.824 L202.892,63.556 L201.912,63.556 L201.912,65.824 L197.656,65.824 L202.668,59.496 L201.548,59.496 L196.354,65.992 L196.354,66.72 L201.884,66.72 L201.884,69.296 L202.892,69.296 Z M207.448,65.396 C208.008,65.396 208.464,65.188 208.816,64.772 C209.168,64.356 209.344,63.804 209.344,63.116 C209.344,62.428 209.168,61.876 208.816,61.46 C208.464,61.044 208.008,60.836 207.448,60.836 C206.88,60.836 206.422,61.046 206.074,61.466 C205.726,61.886 205.552,62.436 205.552,63.116 C205.552,63.796 205.726,64.346 206.074,64.766 C206.422,65.186 206.88,65.396 207.448,65.396 Z M207.508,69.296 L213.244,60.896 L212.536,60.896 L206.8,69.296 L207.508,69.296 Z M207.448,64.856 C207.048,64.856 206.732,64.7 206.5,64.388 C206.268,64.076 206.152,63.652 206.152,63.116 C206.152,62.58 206.268,62.156 206.5,61.844 C206.732,61.532 207.048,61.376 207.448,61.376 C207.84,61.376 208.154,61.53 208.39,61.838 C208.626,62.146 208.744,62.572 208.744,63.116 C208.744,63.66 208.626,64.086 208.39,64.394 C208.154,64.702 207.84,64.856 207.448,64.856 Z M212.596,69.356 C213.164,69.356 213.622,69.146 213.97,68.726 C214.318,68.306 214.492,67.756 214.492,67.076 C214.492,66.396 214.318,65.846 213.97,65.426 C213.622,65.006 213.164,64.796 212.596,64.796 C212.036,64.796 211.58,65.006 211.228,65.426 C210.876,65.846 210.7,66.396 210.7,67.076 C210.7,67.756 210.876,68.306 211.228,68.726 C211.58,69.146 212.036,69.356 212.596,69.356 Z M212.596,68.816 C212.204,68.816 211.89,68.662 211.654,68.354 C211.418,68.046 211.3,67.62 211.3,67.076 C211.3,66.532 211.418,66.106 211.654,65.798 C211.89,65.49 212.204,65.336 212.596,65.336 C212.996,65.336 213.312,65.492 213.544,65.804 C213.776,66.116 213.892,66.54 213.892,67.076 C213.892,67.612 213.776,68.036 213.544,68.348 C213.312,68.66 212.996,68.816 212.596,68.816 Z" id="74%"></path>
                    <path d="M384.766,260.296 L384.766,259.4 L379.376,259.4 L382.708,256.124 C383.333333,255.517333 383.758,254.980667 383.982,254.514 C384.206,254.047333 384.318,253.562 384.318,253.058 C384.318,252.236667 384.026333,251.590333 383.443,251.119 C382.859667,250.647667 382.068667,250.412 381.07,250.412 C380.323333,250.412 379.653667,250.533333 379.061,250.776 C378.468333,251.018667 377.980667,251.364 377.598,251.812 L377.598,251.812 L378.312,252.428 C378.946667,251.7 379.838,251.336 380.986,251.336 C381.723333,251.336 382.290333,251.497 382.687,251.819 C383.083667,252.141 383.282,252.591333 383.282,253.17 C383.282,253.543333 383.191,253.914333 383.009,254.283 C382.827,254.651667 382.479333,255.088 381.966,255.592 L381.966,255.592 L377.892,259.582 L377.892,260.296 L384.766,260.296 Z M392.718,260.296 L392.718,259.4 L387.328,259.4 L390.66,256.124 C391.285333,255.517333 391.71,254.980667 391.934,254.514 C392.158,254.047333 392.27,253.562 392.27,253.058 C392.27,252.236667 391.978333,251.590333 391.395,251.119 C390.811667,250.647667 390.020667,250.412 389.022,250.412 C388.275333,250.412 387.605667,250.533333 387.013,250.776 C386.420333,251.018667 385.932667,251.364 385.55,251.812 L385.55,251.812 L386.264,252.428 C386.898667,251.7 387.79,251.336 388.938,251.336 C389.675333,251.336 390.242333,251.497 390.639,251.819 C391.035667,252.141 391.234,252.591333 391.234,253.17 C391.234,253.543333 391.143,253.914333 390.961,254.283 C390.779,254.651667 390.431333,255.088 389.918,255.592 L389.918,255.592 L385.844,259.582 L385.844,260.296 L392.718,260.296 Z M395.65,256.396 C396.21,256.396 396.666,256.188 397.018,255.772 C397.37,255.356 397.546,254.804 397.546,254.116 C397.546,253.428 397.37,252.876 397.018,252.46 C396.666,252.044 396.21,251.836 395.65,251.836 C395.082,251.836 394.624,252.046 394.276,252.466 C393.928,252.886 393.754,253.436 393.754,254.116 C393.754,254.796 393.928,255.346 394.276,255.766 C394.624,256.186 395.082,256.396 395.65,256.396 Z M395.71,260.296 L401.446,251.896 L400.738,251.896 L395.002,260.296 L395.71,260.296 Z M395.65,255.856 C395.25,255.856 394.934,255.7 394.702,255.388 C394.47,255.076 394.354,254.652 394.354,254.116 C394.354,253.58 394.47,253.156 394.702,252.844 C394.934,252.532 395.25,252.376 395.65,252.376 C396.042,252.376 396.356,252.53 396.592,252.838 C396.828,253.146 396.946,253.572 396.946,254.116 C396.946,254.66 396.828,255.086 396.592,255.394 C396.356,255.702 396.042,255.856 395.65,255.856 Z M400.798,260.356 C401.366,260.356 401.824,260.146 402.172,259.726 C402.52,259.306 402.694,258.756 402.694,258.076 C402.694,257.396 402.52,256.846 402.172,256.426 C401.824,256.006 401.366,255.796 400.798,255.796 C400.238,255.796 399.782,256.006 399.43,256.426 C399.078,256.846 398.902,257.396 398.902,258.076 C398.902,258.756 399.078,259.306 399.43,259.726 C399.782,260.146 400.238,260.356 400.798,260.356 Z M400.798,259.816 C400.406,259.816 400.092,259.662 399.856,259.354 C399.62,259.046 399.502,258.62 399.502,258.076 C399.502,257.532 399.62,257.106 399.856,256.798 C400.092,256.49 400.406,256.336 400.798,256.336 C401.198,256.336 401.514,256.492 401.746,256.804 C401.978,257.116 402.094,257.54 402.094,258.076 C402.094,258.612 401.978,259.036 401.746,259.348 C401.514,259.66 401.198,259.816 400.798,259.816 Z" id="22%"></path>
                    <path d="M418.794,257.296 L418.794,256.4 L413.404,256.4 L416.736,253.124 C417.361333,252.517333 417.786,251.980667 418.01,251.514 C418.234,251.047333 418.346,250.562 418.346,250.058 C418.346,249.236667 418.054333,248.590333 417.471,248.119 C416.887667,247.647667 416.096667,247.412 415.098,247.412 C414.351333,247.412 413.681667,247.533333 413.089,247.776 C412.496333,248.018667 412.008667,248.364 411.626,248.812 L411.626,248.812 L412.34,249.428 C412.974667,248.7 413.866,248.336 415.014,248.336 C415.751333,248.336 416.318333,248.497 416.715,248.819 C417.111667,249.141 417.31,249.591333 417.31,250.17 C417.31,250.543333 417.219,250.914333 417.037,251.283 C416.855,251.651667 416.507333,252.088 415.994,252.592 L415.994,252.592 L411.92,256.582 L411.92,257.296 L418.794,257.296 Z M422.98,257.38 C423.745333,257.38 424.394,257.254 424.926,257.002 C425.458,256.75 425.859333,256.407 426.13,255.973 C426.400667,255.539 426.536,255.042 426.536,254.482 C426.536,253.679333 426.267667,253.028333 425.731,252.529 C425.194333,252.029667 424.412667,251.752 423.386,251.696 L423.386,251.696 L426.158,248.21 L426.158,247.496 L419.858,247.496 L419.858,248.392 L424.87,248.392 L422.154,251.794 L422.154,252.536 L422.854,252.536 C423.740667,252.536 424.403333,252.708667 424.842,253.054 C425.280667,253.399333 425.5,253.875333 425.5,254.482 C425.5,255.098 425.280667,255.581 424.842,255.931 C424.403333,256.281 423.782667,256.456 422.98,256.456 C422.364,256.456 421.785333,256.351 421.244,256.141 C420.702667,255.931 420.268667,255.658 419.942,255.322 L419.942,255.322 L419.452,256.12 C419.834667,256.502667 420.341,256.808333 420.971,257.037 C421.601,257.265667 422.270667,257.38 422.98,257.38 Z M429.622,253.396 C430.182,253.396 430.638,253.188 430.99,252.772 C431.342,252.356 431.518,251.804 431.518,251.116 C431.518,250.428 431.342,249.876 430.99,249.46 C430.638,249.044 430.182,248.836 429.622,248.836 C429.054,248.836 428.596,249.046 428.248,249.466 C427.9,249.886 427.726,250.436 427.726,251.116 C427.726,251.796 427.9,252.346 428.248,252.766 C428.596,253.186 429.054,253.396 429.622,253.396 Z M429.682,257.296 L435.418,248.896 L434.71,248.896 L428.974,257.296 L429.682,257.296 Z M429.622,252.856 C429.222,252.856 428.906,252.7 428.674,252.388 C428.442,252.076 428.326,251.652 428.326,251.116 C428.326,250.58 428.442,250.156 428.674,249.844 C428.906,249.532 429.222,249.376 429.622,249.376 C430.014,249.376 430.328,249.53 430.564,249.838 C430.8,250.146 430.918,250.572 430.918,251.116 C430.918,251.66 430.8,252.086 430.564,252.394 C430.328,252.702 430.014,252.856 429.622,252.856 Z M434.77,257.356 C435.338,257.356 435.796,257.146 436.144,256.726 C436.492,256.306 436.666,255.756 436.666,255.076 C436.666,254.396 436.492,253.846 436.144,253.426 C435.796,253.006 435.338,252.796 434.77,252.796 C434.21,252.796 433.754,253.006 433.402,253.426 C433.05,253.846 432.874,254.396 432.874,255.076 C432.874,255.756 433.05,256.306 433.402,256.726 C433.754,257.146 434.21,257.356 434.77,257.356 Z M434.77,256.816 C434.378,256.816 434.064,256.662 433.828,256.354 C433.592,256.046 433.474,255.62 433.474,255.076 C433.474,254.532 433.592,254.106 433.828,253.798 C434.064,253.49 434.378,253.336 434.77,253.336 C435.17,253.336 435.486,253.492 435.718,253.804 C435.95,254.116 436.066,254.54 436.066,255.076 C436.066,255.612 435.95,256.036 435.718,256.348 C435.486,256.66 435.17,256.816 434.77,256.816 Z" id="23%"></path>
                    <path d="M70.09,69.296 L74.192,60.21 L74.192,59.496 L66.996,59.496 L66.996,62.226 L67.99,62.226 L67.99,60.392 L73.03,60.392 L68.998,69.296 L70.09,69.296 Z M81.892,69.296 L81.892,66.72 L83.852,66.72 L83.852,65.824 L81.892,65.824 L81.892,63.556 L80.912,63.556 L80.912,65.824 L76.656,65.824 L81.668,59.496 L80.548,59.496 L75.354,65.992 L75.354,66.72 L80.884,66.72 L80.884,69.296 L81.892,69.296 Z M86.448,65.396 C87.008,65.396 87.464,65.188 87.816,64.772 C88.168,64.356 88.344,63.804 88.344,63.116 C88.344,62.428 88.168,61.876 87.816,61.46 C87.464,61.044 87.008,60.836 86.448,60.836 C85.88,60.836 85.422,61.046 85.074,61.466 C84.726,61.886 84.552,62.436 84.552,63.116 C84.552,63.796 84.726,64.346 85.074,64.766 C85.422,65.186 85.88,65.396 86.448,65.396 Z M86.508,69.296 L92.244,60.896 L91.536,60.896 L85.8,69.296 L86.508,69.296 Z M86.448,64.856 C86.048,64.856 85.732,64.7 85.5,64.388 C85.268,64.076 85.152,63.652 85.152,63.116 C85.152,62.58 85.268,62.156 85.5,61.844 C85.732,61.532 86.048,61.376 86.448,61.376 C86.84,61.376 87.154,61.53 87.39,61.838 C87.626,62.146 87.744,62.572 87.744,63.116 C87.744,63.66 87.626,64.086 87.39,64.394 C87.154,64.702 86.84,64.856 86.448,64.856 Z M91.596,69.356 C92.164,69.356 92.622,69.146 92.97,68.726 C93.318,68.306 93.492,67.756 93.492,67.076 C93.492,66.396 93.318,65.846 92.97,65.426 C92.622,65.006 92.164,64.796 91.596,64.796 C91.036,64.796 90.58,65.006 90.228,65.426 C89.876,65.846 89.7,66.396 89.7,67.076 C89.7,67.756 89.876,68.306 90.228,68.726 C90.58,69.146 91.036,69.356 91.596,69.356 Z M91.596,68.816 C91.204,68.816 90.89,68.662 90.654,68.354 C90.418,68.046 90.3,67.62 90.3,67.076 C90.3,66.532 90.418,66.106 90.654,65.798 C90.89,65.49 91.204,65.336 91.596,65.336 C91.996,65.336 92.312,65.492 92.544,65.804 C92.776,66.116 92.892,66.54 92.892,67.076 C92.892,67.612 92.776,68.036 92.544,68.348 C92.312,68.66 91.996,68.816 91.596,68.816 Z" id="74%"></path>
                    <path d="M226.305,113.38 C226.939667,113.38 227.511333,113.256333 228.02,113.009 C228.528667,112.761667 228.927667,112.409333 229.217,111.952 C229.506333,111.494667 229.651,110.967333 229.651,110.37 C229.651,109.782 229.511,109.266333 229.231,108.823 C228.951,108.379667 228.561333,108.036667 228.062,107.794 C227.562667,107.551333 226.991,107.43 226.347,107.43 C225.656333,107.43 225.045,107.577 224.513,107.871 C223.981,108.165 223.593667,108.578 223.351,109.11 C223.323,108.811333 223.309,108.545333 223.309,108.312 C223.309,107.005333 223.617,106.009 224.233,105.323 C224.849,104.637 225.698333,104.294 226.781,104.294 C227.583667,104.294 228.218333,104.448 228.685,104.756 L228.685,104.756 L229.091,103.944 C228.512333,103.589333 227.737667,103.412 226.767,103.412 C225.871,103.412 225.087,103.605667 224.415,103.993 C223.743,104.380333 223.220333,104.952 222.847,105.708 C222.473667,106.464 222.287,107.388 222.287,108.48 C222.287,110.038667 222.632333,111.245 223.323,112.099 C224.013667,112.953 225.007667,113.38 226.305,113.38 Z M226.263,112.526 C225.721667,112.526 225.255,112.428 224.863,112.232 C224.471,112.036 224.174667,111.779333 223.974,111.462 C223.773333,111.144667 223.673,110.799333 223.673,110.426 C223.673,110.024667 223.780333,109.660667 223.995,109.334 C224.209667,109.007333 224.506,108.750667 224.884,108.564 C225.262,108.377333 225.698333,108.284 226.193,108.284 C226.949,108.284 227.548667,108.475333 227.992,108.858 C228.435333,109.240667 228.657,109.754 228.657,110.398 C228.657,111.042 228.435333,111.557667 227.992,111.945 C227.548667,112.332333 226.972333,112.526 226.263,112.526 Z M237.505,113.296 L237.505,112.4 L232.115,112.4 L235.447,109.124 C236.072333,108.517333 236.497,107.980667 236.721,107.514 C236.945,107.047333 237.057,106.562 237.057,106.058 C237.057,105.236667 236.765333,104.590333 236.182,104.119 C235.598667,103.647667 234.807667,103.412 233.809,103.412 C233.062333,103.412 232.392667,103.533333 231.8,103.776 C231.207333,104.018667 230.719667,104.364 230.337,104.812 L230.337,104.812 L231.051,105.428 C231.685667,104.7 232.577,104.336 233.725,104.336 C234.462333,104.336 235.029333,104.497 235.426,104.819 C235.822667,105.141 236.021,105.591333 236.021,106.17 C236.021,106.543333 235.93,106.914333 235.748,107.283 C235.566,107.651667 235.218333,108.088 234.705,108.592 L234.705,108.592 L230.631,112.582 L230.631,113.296 L237.505,113.296 Z M240.437,109.396 C240.997,109.396 241.453,109.188 241.805,108.772 C242.157,108.356 242.333,107.804 242.333,107.116 C242.333,106.428 242.157,105.876 241.805,105.46 C241.453,105.044 240.997,104.836 240.437,104.836 C239.869,104.836 239.411,105.046 239.063,105.466 C238.715,105.886 238.541,106.436 238.541,107.116 C238.541,107.796 238.715,108.346 239.063,108.766 C239.411,109.186 239.869,109.396 240.437,109.396 Z M240.497,113.296 L246.233,104.896 L245.525,104.896 L239.789,113.296 L240.497,113.296 Z M240.437,108.856 C240.037,108.856 239.721,108.7 239.489,108.388 C239.257,108.076 239.141,107.652 239.141,107.116 C239.141,106.58 239.257,106.156 239.489,105.844 C239.721,105.532 240.037,105.376 240.437,105.376 C240.829,105.376 241.143,105.53 241.379,105.838 C241.615,106.146 241.733,106.572 241.733,107.116 C241.733,107.66 241.615,108.086 241.379,108.394 C241.143,108.702 240.829,108.856 240.437,108.856 Z M245.585,113.356 C246.153,113.356 246.611,113.146 246.959,112.726 C247.307,112.306 247.481,111.756 247.481,111.076 C247.481,110.396 247.307,109.846 246.959,109.426 C246.611,109.006 246.153,108.796 245.585,108.796 C245.025,108.796 244.569,109.006 244.217,109.426 C243.865,109.846 243.689,110.396 243.689,111.076 C243.689,111.756 243.865,112.306 244.217,112.726 C244.569,113.146 245.025,113.356 245.585,113.356 Z M245.585,112.816 C245.193,112.816 244.879,112.662 244.643,112.354 C244.407,112.046 244.289,111.62 244.289,111.076 C244.289,110.532 244.407,110.106 244.643,109.798 C244.879,109.49 245.193,109.336 245.585,109.336 C245.985,109.336 246.301,109.492 246.533,109.804 C246.765,110.116 246.881,110.54 246.881,111.076 C246.881,111.612 246.765,112.036 246.533,112.348 C246.301,112.66 245.985,112.816 245.585,112.816 Z" id="62%"></path>
                    <path d="M103.954,62.296 L108.056,53.21 L108.056,52.496 L100.86,52.496 L100.86,55.226 L101.854,55.226 L101.854,53.392 L106.894,53.392 L102.862,62.296 L103.954,62.296 Z M113.404,62.38 C114.038667,62.38 114.610333,62.2563333 115.119,62.009 C115.627667,61.7616667 116.026667,61.4093333 116.316,60.952 C116.605333,60.4946667 116.75,59.9673333 116.75,59.37 C116.75,58.782 116.61,58.2663333 116.33,57.823 C116.05,57.3796667 115.660333,57.0366667 115.161,56.794 C114.661667,56.5513333 114.09,56.43 113.446,56.43 C112.755333,56.43 112.144,56.577 111.612,56.871 C111.08,57.165 110.692667,57.578 110.45,58.11 C110.422,57.8113333 110.408,57.5453333 110.408,57.312 C110.408,56.0053333 110.716,55.009 111.332,54.323 C111.948,53.637 112.797333,53.294 113.88,53.294 C114.682667,53.294 115.317333,53.448 115.784,53.756 L115.784,53.756 L116.19,52.944 C115.611333,52.5893333 114.836667,52.412 113.866,52.412 C112.97,52.412 112.186,52.6056667 111.514,52.993 C110.842,53.3803333 110.319333,53.952 109.946,54.708 C109.572667,55.464 109.386,56.388 109.386,57.48 C109.386,59.0386667 109.731333,60.245 110.422,61.099 C111.112667,61.953 112.106667,62.38 113.404,62.38 Z M113.362,61.526 C112.820667,61.526 112.354,61.428 111.962,61.232 C111.57,61.036 111.273667,60.7793333 111.073,60.462 C110.872333,60.1446667 110.772,59.7993333 110.772,59.426 C110.772,59.0246667 110.879333,58.6606667 111.094,58.334 C111.308667,58.0073333 111.605,57.7506667 111.983,57.564 C112.361,57.3773333 112.797333,57.284 113.292,57.284 C114.048,57.284 114.647667,57.4753333 115.091,57.858 C115.534333,58.2406667 115.756,58.754 115.756,59.398 C115.756,60.042 115.534333,60.5576667 115.091,60.945 C114.647667,61.3323333 114.071333,61.526 113.362,61.526 Z M119.584,58.396 C120.144,58.396 120.6,58.188 120.952,57.772 C121.304,57.356 121.48,56.804 121.48,56.116 C121.48,55.428 121.304,54.876 120.952,54.46 C120.6,54.044 120.144,53.836 119.584,53.836 C119.016,53.836 118.558,54.046 118.21,54.466 C117.862,54.886 117.688,55.436 117.688,56.116 C117.688,56.796 117.862,57.346 118.21,57.766 C118.558,58.186 119.016,58.396 119.584,58.396 Z M119.644,62.296 L125.38,53.896 L124.672,53.896 L118.936,62.296 L119.644,62.296 Z M119.584,57.856 C119.184,57.856 118.868,57.7 118.636,57.388 C118.404,57.076 118.288,56.652 118.288,56.116 C118.288,55.58 118.404,55.156 118.636,54.844 C118.868,54.532 119.184,54.376 119.584,54.376 C119.976,54.376 120.29,54.53 120.526,54.838 C120.762,55.146 120.88,55.572 120.88,56.116 C120.88,56.66 120.762,57.086 120.526,57.394 C120.29,57.702 119.976,57.856 119.584,57.856 Z M124.732,62.356 C125.3,62.356 125.758,62.146 126.106,61.726 C126.454,61.306 126.628,60.756 126.628,60.076 C126.628,59.396 126.454,58.846 126.106,58.426 C125.758,58.006 125.3,57.796 124.732,57.796 C124.172,57.796 123.716,58.006 123.364,58.426 C123.012,58.846 122.836,59.396 122.836,60.076 C122.836,60.756 123.012,61.306 123.364,61.726 C123.716,62.146 124.172,62.356 124.732,62.356 Z M124.732,61.816 C124.34,61.816 124.026,61.662 123.79,61.354 C123.554,61.046 123.436,60.62 123.436,60.076 C123.436,59.532 123.554,59.106 123.79,58.798 C124.026,58.49 124.34,58.336 124.732,58.336 C125.132,58.336 125.448,58.492 125.68,58.804 C125.912,59.116 126.028,59.54 126.028,60.076 C126.028,60.612 125.912,61.036 125.68,61.348 C125.448,61.66 125.132,61.816 124.732,61.816 Z" id="76%"></path>
                    <path d="M260.147,120.38 C260.781667,120.38 261.353333,120.256333 261.862,120.009 C262.370667,119.761667 262.769667,119.409333 263.059,118.952 C263.348333,118.494667 263.493,117.967333 263.493,117.37 C263.493,116.782 263.353,116.266333 263.073,115.823 C262.793,115.379667 262.403333,115.036667 261.904,114.794 C261.404667,114.551333 260.833,114.43 260.189,114.43 C259.498333,114.43 258.887,114.577 258.355,114.871 C257.823,115.165 257.435667,115.578 257.193,116.11 C257.165,115.811333 257.151,115.545333 257.151,115.312 C257.151,114.005333 257.459,113.009 258.075,112.323 C258.691,111.637 259.540333,111.294 260.623,111.294 C261.425667,111.294 262.060333,111.448 262.527,111.756 L262.527,111.756 L262.933,110.944 C262.354333,110.589333 261.579667,110.412 260.609,110.412 C259.713,110.412 258.929,110.605667 258.257,110.993 C257.585,111.380333 257.062333,111.952 256.689,112.708 C256.315667,113.464 256.129,114.388 256.129,115.48 C256.129,117.038667 256.474333,118.245 257.165,119.099 C257.855667,119.953 258.849667,120.38 260.147,120.38 Z M260.105,119.526 C259.563667,119.526 259.097,119.428 258.705,119.232 C258.313,119.036 258.016667,118.779333 257.816,118.462 C257.615333,118.144667 257.515,117.799333 257.515,117.426 C257.515,117.024667 257.622333,116.660667 257.837,116.334 C258.051667,116.007333 258.348,115.750667 258.726,115.564 C259.104,115.377333 259.540333,115.284 260.035,115.284 C260.791,115.284 261.390667,115.475333 261.834,115.858 C262.277333,116.240667 262.499,116.754 262.499,117.398 C262.499,118.042 262.277333,118.557667 261.834,118.945 C261.390667,119.332333 260.814333,119.526 260.105,119.526 Z M268.561,120.38 C269.317,120.38 269.991333,120.179333 270.584,119.778 C271.176667,119.376667 271.641,118.800333 271.977,118.049 C272.313,117.297667 272.481,116.413333 272.481,115.396 C272.481,114.378667 272.313,113.494333 271.977,112.743 C271.641,111.991667 271.176667,111.415333 270.584,111.014 C269.991333,110.612667 269.317,110.412 268.561,110.412 C267.805,110.412 267.130667,110.612667 266.538,111.014 C265.945333,111.415333 265.483333,111.991667 265.152,112.743 C264.820667,113.494333 264.655,114.378667 264.655,115.396 C264.655,116.413333 264.820667,117.297667 265.152,118.049 C265.483333,118.800333 265.945333,119.376667 266.538,119.778 C267.130667,120.179333 267.805,120.38 268.561,120.38 Z M268.561,119.456 C267.991667,119.456 267.49,119.297333 267.056,118.98 C266.622,118.662667 266.283667,118.200667 266.041,117.594 C265.798333,116.987333 265.677,116.254667 265.677,115.396 C265.677,114.537333 265.798333,113.804667 266.041,113.198 C266.283667,112.591333 266.622,112.129333 267.056,111.812 C267.49,111.494667 267.991667,111.336 268.561,111.336 C269.130333,111.336 269.632,111.494667 270.066,111.812 C270.5,112.129333 270.838333,112.591333 271.081,113.198 C271.323667,113.804667 271.445,114.537333 271.445,115.396 C271.445,116.254667 271.323667,116.987333 271.081,117.594 C270.838333,118.200667 270.5,118.662667 270.066,118.98 C269.632,119.297333 269.130333,119.456 268.561,119.456 Z M275.595,116.396 C276.155,116.396 276.611,116.188 276.963,115.772 C277.315,115.356 277.491,114.804 277.491,114.116 C277.491,113.428 277.315,112.876 276.963,112.46 C276.611,112.044 276.155,111.836 275.595,111.836 C275.027,111.836 274.569,112.046 274.221,112.466 C273.873,112.886 273.699,113.436 273.699,114.116 C273.699,114.796 273.873,115.346 274.221,115.766 C274.569,116.186 275.027,116.396 275.595,116.396 Z M275.655,120.296 L281.391,111.896 L280.683,111.896 L274.947,120.296 L275.655,120.296 Z M275.595,115.856 C275.195,115.856 274.879,115.7 274.647,115.388 C274.415,115.076 274.299,114.652 274.299,114.116 C274.299,113.58 274.415,113.156 274.647,112.844 C274.879,112.532 275.195,112.376 275.595,112.376 C275.987,112.376 276.301,112.53 276.537,112.838 C276.773,113.146 276.891,113.572 276.891,114.116 C276.891,114.66 276.773,115.086 276.537,115.394 C276.301,115.702 275.987,115.856 275.595,115.856 Z M280.743,120.356 C281.311,120.356 281.769,120.146 282.117,119.726 C282.465,119.306 282.639,118.756 282.639,118.076 C282.639,117.396 282.465,116.846 282.117,116.426 C281.769,116.006 281.311,115.796 280.743,115.796 C280.183,115.796 279.727,116.006 279.375,116.426 C279.023,116.846 278.847,117.396 278.847,118.076 C278.847,118.756 279.023,119.306 279.375,119.726 C279.727,120.146 280.183,120.356 280.743,120.356 Z M280.743,119.816 C280.351,119.816 280.037,119.662 279.801,119.354 C279.565,119.046 279.447,118.62 279.447,118.076 C279.447,117.532 279.565,117.106 279.801,116.798 C280.037,116.49 280.351,116.336 280.743,116.336 C281.143,116.336 281.459,116.492 281.691,116.804 C281.923,117.116 282.039,117.54 282.039,118.076 C282.039,118.612 281.923,119.036 281.691,119.348 C281.459,119.66 281.143,119.816 280.743,119.816 Z" id="60%"></path>
                    <path d="M31.888,392.296 L31.888,390.536 L26.608,390.536 L29.6,387.688 C30.3253333,387.005333 30.816,386.397333 31.072,385.864 C31.328,385.330667 31.456,384.76 31.456,384.152 C31.456,383.16 31.0933333,382.376 30.368,381.8 C29.6426667,381.224 28.672,380.936 27.456,380.936 C26.5386667,380.936 25.7093333,381.098667 24.968,381.424 C24.2266667,381.749333 23.6373333,382.205333 23.2,382.792 L23.2,382.792 L24.656,383.912 C25.264,383.133333 26.1386667,382.744 27.28,382.744 C27.9626667,382.744 28.48,382.882667 28.832,383.16 C29.184,383.437333 29.36,383.837333 29.36,384.36 C29.36,384.712 29.272,385.066667 29.096,385.424 C28.92,385.781333 28.5813333,386.2 28.08,386.68 L28.08,386.68 L23.632,390.904 L23.632,392.296 L31.888,392.296 Z M34.336,386.312 C34.6986667,386.312 35.008,386.186667 35.264,385.936 C35.52,385.685333 35.648,385.368 35.648,384.984 C35.648,384.589333 35.5226667,384.269333 35.272,384.024 C35.0213333,383.778667 34.7093333,383.656 34.336,383.656 C33.9626667,383.656 33.6506667,383.778667 33.4,384.024 C33.1493333,384.269333 33.024,384.589333 33.024,384.984 C33.024,385.368 33.152,385.685333 33.408,385.936 C33.664,386.186667 33.9733333,386.312 34.336,386.312 Z M34.336,392.408 C34.6986667,392.408 35.008,392.282667 35.264,392.032 C35.52,391.781333 35.648,391.464 35.648,391.08 C35.648,390.685333 35.5226667,390.365333 35.272,390.12 C35.0213333,389.874667 34.7093333,389.752 34.336,389.752 C33.9626667,389.752 33.6506667,389.874667 33.4,390.12 C33.1493333,390.365333 33.024,390.685333 33.024,391.08 C33.024,391.464 33.152,391.781333 33.408,392.032 C33.664,392.282667 33.9733333,392.408 34.336,392.408 Z M40.864,392.296 L40.864,381.096 L36.416,381.096 L36.416,382.84 L38.784,382.84 L38.784,392.296 L40.864,392.296 Z M51.728,392.408 C52.3146667,392.408 52.8506667,392.306667 53.336,392.104 C53.8213333,391.901333 54.2293333,391.597333 54.56,391.192 L54.56,391.192 L54.56,392.296 L56.48,392.296 L56.48,380.424 L54.48,380.424 L54.48,384.808 C54.1493333,384.424 53.7493333,384.136 53.28,383.944 C52.8106667,383.752 52.2933333,383.656 51.728,383.656 C50.9066667,383.656 50.168,383.837333 49.512,384.2 C48.856,384.562667 48.3413333,385.074667 47.968,385.736 C47.5946667,386.397333 47.408,387.16 47.408,388.024 C47.408,388.888 47.5946667,389.653333 47.968,390.32 C48.3413333,390.986667 48.856,391.501333 49.512,391.864 C50.168,392.226667 50.9066667,392.408 51.728,392.408 Z M51.968,390.696 C51.488,390.696 51.056,390.586667 50.672,390.368 C50.288,390.149333 49.984,389.837333 49.76,389.432 C49.536,389.026667 49.424,388.557333 49.424,388.024 C49.424,387.490667 49.536,387.021333 49.76,386.616 C49.984,386.210667 50.288,385.898667 50.672,385.68 C51.056,385.461333 51.488,385.352 51.968,385.352 C52.448,385.352 52.88,385.461333 53.264,385.68 C53.648,385.898667 53.952,386.210667 54.176,386.616 C54.4,387.021333 54.512,387.490667 54.512,388.024 C54.512,388.557333 54.4,389.026667 54.176,389.432 C53.952,389.837333 53.648,390.149333 53.264,390.368 C52.88,390.586667 52.448,390.696 51.968,390.696 Z M63.12,392.408 C63.856,392.408 64.5173333,392.290667 65.104,392.056 C65.6906667,391.821333 66.176,391.474667 66.56,391.016 L66.56,391.016 L65.488,389.784 C64.88,390.402667 64.1066667,390.712 63.168,390.712 C62.432,390.712 61.816,390.528 61.32,390.16 C60.824,389.792 60.5173333,389.293333 60.4,388.664 L60.4,388.664 L67.104,388.664 C67.1253333,388.408 67.136,388.210667 67.136,388.072 C67.136,387.197333 66.952,386.426667 66.584,385.76 C66.216,385.093333 65.704,384.576 65.048,384.208 C64.392,383.84 63.648,383.656 62.816,383.656 C61.9733333,383.656 61.216,383.842667 60.544,384.216 C59.872,384.589333 59.3466667,385.109333 58.968,385.776 C58.5893333,386.442667 58.4,387.192 58.4,388.024 C58.4,388.866667 58.5946667,389.621333 58.984,390.288 C59.3733333,390.954667 59.9253333,391.474667 60.64,391.848 C61.3546667,392.221333 62.1813333,392.408 63.12,392.408 Z M65.232,387.336 L60.384,387.336 C60.48,386.706667 60.7493333,386.202667 61.192,385.824 C61.6346667,385.445333 62.176,385.256 62.816,385.256 C63.4666667,385.256 64.0106667,385.448 64.448,385.832 C64.8853333,386.216 65.1466667,386.717333 65.232,387.336 L65.232,387.336 Z M72.928,395.512 C76,395.512 77.536,394.008 77.536,391 L77.536,391 L77.536,383.752 L75.632,383.752 L75.632,384.888 C75.2906667,384.472 74.8666667,384.162667 74.36,383.96 C73.8533333,383.757333 73.2906667,383.656 72.672,383.656 C71.8613333,383.656 71.128,383.826667 70.472,384.168 C69.816,384.509333 69.2986667,384.992 68.92,385.616 C68.5413333,386.24 68.352,386.957333 68.352,387.768 C68.352,388.578667 68.5413333,389.298667 68.92,389.928 C69.2986667,390.557333 69.816,391.045333 70.472,391.392 C71.128,391.738667 71.8613333,391.912 72.672,391.912 C73.2586667,391.912 73.7973333,391.816 74.288,391.624 C74.7786667,391.432 75.1946667,391.149333 75.536,390.776 L75.536,390.776 L75.536,391.224 C75.536,392.098667 75.3173333,392.749333 74.88,393.176 C74.4426667,393.602667 73.7546667,393.816 72.816,393.816 C72.2293333,393.816 71.6506667,393.722667 71.08,393.536 C70.5093333,393.349333 70.0373333,393.101333 69.664,392.792 L69.664,392.792 L68.768,394.296 C69.248,394.690667 69.856,394.992 70.592,395.2 C71.328,395.408 72.1066667,395.512 72.928,395.512 Z M72.976,390.216 C72.208,390.216 71.5813333,389.989333 71.096,389.536 C70.6106667,389.082667 70.368,388.493333 70.368,387.768 C70.368,387.053333 70.6106667,386.472 71.096,386.024 C71.5813333,385.576 72.208,385.352 72.976,385.352 C73.7333333,385.352 74.3546667,385.576 74.84,386.024 C75.3253333,386.472 75.568,387.053333 75.568,387.768 C75.568,388.493333 75.3253333,389.082667 74.84,389.536 C74.3546667,389.989333 73.7333333,390.216 72.976,390.216 Z M82.16,392.296 L82.16,388.152 C82.16,387.298667 82.3786667,386.645333 82.816,386.192 C83.2533333,385.738667 83.8613333,385.512 84.64,385.512 C84.7786667,385.512 84.9333333,385.528 85.104,385.56 L85.104,385.56 L85.104,383.656 C83.6533333,383.656 82.64,384.104 82.064,385 L82.064,385 L82.064,383.752 L80.16,383.752 L80.16,392.296 L82.16,392.296 Z M90.896,392.408 C91.632,392.408 92.2933333,392.290667 92.88,392.056 C93.4666667,391.821333 93.952,391.474667 94.336,391.016 L94.336,391.016 L93.264,389.784 C92.656,390.402667 91.8826667,390.712 90.944,390.712 C90.208,390.712 89.592,390.528 89.096,390.16 C88.6,389.792 88.2933333,389.293333 88.176,388.664 L88.176,388.664 L94.88,388.664 C94.9013333,388.408 94.912,388.210667 94.912,388.072 C94.912,387.197333 94.728,386.426667 94.36,385.76 C93.992,385.093333 93.48,384.576 92.824,384.208 C92.168,383.84 91.424,383.656 90.592,383.656 C89.7493333,383.656 88.992,383.842667 88.32,384.216 C87.648,384.589333 87.1226667,385.109333 86.744,385.776 C86.3653333,386.442667 86.176,387.192 86.176,388.024 C86.176,388.866667 86.3706667,389.621333 86.76,390.288 C87.1493333,390.954667 87.7013333,391.474667 88.416,391.848 C89.1306667,392.221333 89.9573333,392.408 90.896,392.408 Z M93.008,387.336 L88.16,387.336 C88.256,386.706667 88.5253333,386.202667 88.968,385.824 C89.4106667,385.445333 89.952,385.256 90.592,385.256 C91.2426667,385.256 91.7866667,385.448 92.224,385.832 C92.6613333,386.216 92.9226667,386.717333 93.008,387.336 L93.008,387.336 Z M100.848,392.408 C101.584,392.408 102.245333,392.290667 102.832,392.056 C103.418667,391.821333 103.904,391.474667 104.288,391.016 L104.288,391.016 L103.216,389.784 C102.608,390.402667 101.834667,390.712 100.896,390.712 C100.16,390.712 99.544,390.528 99.048,390.16 C98.552,389.792 98.2453333,389.293333 98.128,388.664 L98.128,388.664 L104.832,388.664 C104.853333,388.408 104.864,388.210667 104.864,388.072 C104.864,387.197333 104.68,386.426667 104.312,385.76 C103.944,385.093333 103.432,384.576 102.776,384.208 C102.12,383.84 101.376,383.656 100.544,383.656 C99.7013333,383.656 98.944,383.842667 98.272,384.216 C97.6,384.589333 97.0746667,385.109333 96.696,385.776 C96.3173333,386.442667 96.128,387.192 96.128,388.024 C96.128,388.866667 96.3226667,389.621333 96.712,390.288 C97.1013333,390.954667 97.6533333,391.474667 98.368,391.848 C99.0826667,392.221333 99.9093333,392.408 100.848,392.408 Z M102.96,387.336 L98.112,387.336 C98.208,386.706667 98.4773333,386.202667 98.92,385.824 C99.3626667,385.445333 99.904,385.256 100.544,385.256 C101.194667,385.256 101.738667,385.448 102.176,385.832 C102.613333,386.216 102.874667,386.717333 102.96,387.336 L102.96,387.336 Z" id="2:1degree"></path>
                    <path d="M176.912,392.456 C178.458667,392.456 179.661333,392.021333 180.52,391.152 C181.378667,390.282667 181.808,389.037333 181.808,387.416 L181.808,387.416 L181.808,381.096 L179.76,381.096 L179.76,387.336 C179.76,389.533333 178.816,390.632 176.928,390.632 C175.029333,390.632 174.08,389.533333 174.08,387.336 L174.08,387.336 L174.08,381.096 L172,381.096 L172,387.416 C172,389.037333 172.432,390.282667 173.296,391.152 C174.16,392.021333 175.365333,392.456 176.912,392.456 Z M189.904,392.456 C190.821333,392.456 191.661333,392.296 192.424,391.976 C193.186667,391.656 193.829333,391.192 194.352,390.584 L194.352,390.584 L193.008,389.304 C192.197333,390.189333 191.2,390.632 190.016,390.632 C189.248,390.632 188.56,390.464 187.952,390.128 C187.344,389.792 186.869333,389.325333 186.528,388.728 C186.186667,388.130667 186.016,387.453333 186.016,386.696 C186.016,385.938667 186.186667,385.261333 186.528,384.664 C186.869333,384.066667 187.344,383.6 187.952,383.264 C188.56,382.928 189.248,382.76 190.016,382.76 C191.2,382.76 192.197333,383.197333 193.008,384.072 L193.008,384.072 L194.352,382.808 C193.829333,382.2 193.189333,381.736 192.432,381.416 C191.674667,381.096 190.837333,380.936 189.92,380.936 C188.789333,380.936 187.768,381.184 186.856,381.68 C185.944,382.176 185.226667,382.861333 184.704,383.736 C184.181333,384.610667 183.92,385.597333 183.92,386.696 C183.92,387.794667 184.178667,388.781333 184.696,389.656 C185.213333,390.530667 185.928,391.216 186.84,391.712 C187.752,392.208 188.773333,392.456 189.904,392.456 Z M196.912,392.296 L198.016,389.704 L203.616,389.704 L204.736,392.296 L206.912,392.296 L201.856,381.096 L199.808,381.096 L194.768,392.296 L196.912,392.296 Z M202.928,388.072 L198.72,388.072 L200.816,383.176 L202.928,388.072 Z M211.808,392.456 C212.789333,392.456 213.621333,392.306667 214.304,392.008 C214.986667,391.709333 215.496,391.309333 215.832,390.808 C216.168,390.306667 216.336,389.746667 216.336,389.128 C216.336,388.402667 216.146667,387.826667 215.768,387.4 C215.389333,386.973333 214.933333,386.656 214.4,386.448 C213.866667,386.24 213.184,386.04 212.352,385.848 C211.744,385.698667 211.264,385.565333 210.912,385.448 C210.56,385.330667 210.269333,385.170667 210.04,384.968 C209.810667,384.765333 209.696,384.504 209.696,384.184 C209.696,383.725333 209.896,383.357333 210.296,383.08 C210.696,382.802667 211.306667,382.664 212.128,382.664 C212.629333,382.664 213.146667,382.738667 213.68,382.888 C214.213333,383.037333 214.725333,383.256 215.216,383.544 L215.216,383.544 L215.872,381.928 C215.392,381.608 214.821333,381.362667 214.16,381.192 C213.498667,381.021333 212.826667,380.936 212.144,380.936 C211.162667,380.936 210.333333,381.085333 209.656,381.384 C208.978667,381.682667 208.472,382.085333 208.136,382.592 C207.8,383.098667 207.632,383.661333 207.632,384.28 C207.632,385.016 207.821333,385.6 208.2,386.032 C208.578667,386.464 209.032,386.781333 209.56,386.984 C210.088,387.186667 210.778667,387.389333 211.632,387.592 C212.24,387.741333 212.72,387.874667 213.072,387.992 C213.424,388.109333 213.714667,388.272 213.944,388.48 C214.173333,388.688 214.288,388.952 214.288,389.272 C214.288,389.709333 214.082667,390.061333 213.672,390.328 C213.261333,390.594667 212.64,390.728 211.808,390.728 C211.136,390.728 210.466667,390.613333 209.8,390.384 C209.133333,390.154667 208.570667,389.858667 208.112,389.496 L208.112,389.496 L207.392,391.112 C207.861333,391.517333 208.498667,391.842667 209.304,392.088 C210.109333,392.333333 210.944,392.456 211.808,392.456 Z M224.624,392.296 L224.624,380.424 L222.624,380.424 L222.624,392.296 L224.624,392.296 Z M231.264,392.408 C232,392.408 232.661333,392.290667 233.248,392.056 C233.834667,391.821333 234.32,391.474667 234.704,391.016 L234.704,391.016 L233.632,389.784 C233.024,390.402667 232.250667,390.712 231.312,390.712 C230.576,390.712 229.96,390.528 229.464,390.16 C228.968,389.792 228.661333,389.293333 228.544,388.664 L228.544,388.664 L235.248,388.664 C235.269333,388.408 235.28,388.210667 235.28,388.072 C235.28,387.197333 235.096,386.426667 234.728,385.76 C234.36,385.093333 233.848,384.576 233.192,384.208 C232.536,383.84 231.792,383.656 230.96,383.656 C230.117333,383.656 229.36,383.842667 228.688,384.216 C228.016,384.589333 227.490667,385.109333 227.112,385.776 C226.733333,386.442667 226.544,387.192 226.544,388.024 C226.544,388.866667 226.738667,389.621333 227.128,390.288 C227.517333,390.954667 228.069333,391.474667 228.784,391.848 C229.498667,392.221333 230.325333,392.408 231.264,392.408 Z M233.376,387.336 L228.528,387.336 C228.624,386.706667 228.893333,386.202667 229.336,385.824 C229.778667,385.445333 230.32,385.256 230.96,385.256 C231.610667,385.256 232.154667,385.448 232.592,385.832 C233.029333,386.216 233.290667,386.717333 233.376,387.336 L233.376,387.336 Z M241.536,392.296 L245.2,383.752 L243.28,383.752 L240.544,390.088 L237.888,383.752 L235.808,383.752 L239.472,392.296 L241.536,392.296 Z M250.464,392.408 C251.2,392.408 251.861333,392.290667 252.448,392.056 C253.034667,391.821333 253.52,391.474667 253.904,391.016 L253.904,391.016 L252.832,389.784 C252.224,390.402667 251.450667,390.712 250.512,390.712 C249.776,390.712 249.16,390.528 248.664,390.16 C248.168,389.792 247.861333,389.293333 247.744,388.664 L247.744,388.664 L254.448,388.664 C254.469333,388.408 254.48,388.210667 254.48,388.072 C254.48,387.197333 254.296,386.426667 253.928,385.76 C253.56,385.093333 253.048,384.576 252.392,384.208 C251.736,383.84 250.992,383.656 250.16,383.656 C249.317333,383.656 248.56,383.842667 247.888,384.216 C247.216,384.589333 246.690667,385.109333 246.312,385.776 C245.933333,386.442667 245.744,387.192 245.744,388.024 C245.744,388.866667 245.938667,389.621333 246.328,390.288 C246.717333,390.954667 247.269333,391.474667 247.984,391.848 C248.698667,392.221333 249.525333,392.408 250.464,392.408 Z M252.576,387.336 L247.728,387.336 C247.824,386.706667 248.093333,386.202667 248.536,385.824 C248.978667,385.445333 249.52,385.256 250.16,385.256 C250.810667,385.256 251.354667,385.448 251.792,385.832 C252.229333,386.216 252.490667,386.717333 252.576,387.336 L252.576,387.336 Z M258.4,392.296 L258.4,380.424 L256.4,380.424 L256.4,392.296 L258.4,392.296 Z M263.664,392.408 C264.858667,392.408 265.802667,392.168 266.496,391.688 C267.189333,391.208 267.536,390.568 267.536,389.768 C267.536,389.16 267.378667,388.690667 267.064,388.36 C266.749333,388.029333 266.373333,387.794667 265.936,387.656 C265.498667,387.517333 264.938667,387.394667 264.256,387.288 C263.573333,387.170667 263.069333,387.045333 262.744,386.912 C262.418667,386.778667 262.256,386.552 262.256,386.232 C262.256,385.944 262.408,385.712 262.712,385.536 C263.016,385.36 263.461333,385.272 264.048,385.272 C264.954667,385.272 265.770667,385.485333 266.496,385.912 L266.496,385.912 L267.264,384.392 C266.890667,384.168 266.410667,383.989333 265.824,383.856 C265.237333,383.722667 264.650667,383.656 264.064,383.656 C262.912,383.656 261.997333,383.898667 261.32,384.384 C260.642667,384.869333 260.304,385.517333 260.304,386.328 C260.304,386.946667 260.466667,387.429333 260.792,387.776 C261.117333,388.122667 261.501333,388.365333 261.944,388.504 C262.386667,388.642667 262.96,388.765333 263.664,388.872 C264.336,388.978667 264.824,389.090667 265.128,389.208 C265.432,389.325333 265.584,389.533333 265.584,389.832 C265.584,390.461333 264.986667,390.776 263.792,390.776 C263.269333,390.776 262.738667,390.698667 262.2,390.544 C261.661333,390.389333 261.2,390.184 260.816,389.928 L260.816,389.928 L260.048,391.448 C260.442667,391.725333 260.970667,391.954667 261.632,392.136 C262.293333,392.317333 262.970667,392.408 263.664,392.408 Z" id="UCASlevels"></path>
                    <path d="M316.584,392.296 C317.778667,392.296 318.84,392.064 319.768,391.6 C320.696,391.136 321.416,390.48 321.928,389.632 C322.44,388.784 322.696,387.805333 322.696,386.696 C322.696,385.586667 322.44,384.608 321.928,383.76 C321.416,382.912 320.696,382.256 319.768,381.792 C318.84,381.328 317.778667,381.096 316.584,381.096 L316.584,381.096 L311.688,381.096 L311.688,392.296 L316.584,392.296 Z M316.488,390.536 L313.768,390.536 L313.768,382.856 L316.488,382.856 C317.309333,382.856 318.032,383.013333 318.656,383.328 C319.28,383.642667 319.76,384.090667 320.096,384.672 C320.432,385.253333 320.6,385.928 320.6,386.696 C320.6,387.464 320.432,388.138667 320.096,388.72 C319.76,389.301333 319.28,389.749333 318.656,390.064 C318.032,390.378667 317.309333,390.536 316.488,390.536 L316.488,390.536 Z M328.728,392.408 C329.464,392.408 330.125333,392.290667 330.712,392.056 C331.298667,391.821333 331.784,391.474667 332.168,391.016 L332.168,391.016 L331.096,389.784 C330.488,390.402667 329.714667,390.712 328.776,390.712 C328.04,390.712 327.424,390.528 326.928,390.16 C326.432,389.792 326.125333,389.293333 326.008,388.664 L326.008,388.664 L332.712,388.664 C332.733333,388.408 332.744,388.210667 332.744,388.072 C332.744,387.197333 332.56,386.426667 332.192,385.76 C331.824,385.093333 331.312,384.576 330.656,384.208 C330,383.84 329.256,383.656 328.424,383.656 C327.581333,383.656 326.824,383.842667 326.152,384.216 C325.48,384.589333 324.954667,385.109333 324.576,385.776 C324.197333,386.442667 324.008,387.192 324.008,388.024 C324.008,388.866667 324.202667,389.621333 324.592,390.288 C324.981333,390.954667 325.533333,391.474667 326.248,391.848 C326.962667,392.221333 327.789333,392.408 328.728,392.408 Z M330.84,387.336 L325.992,387.336 C326.088,386.706667 326.357333,386.202667 326.8,385.824 C327.242667,385.445333 327.784,385.256 328.424,385.256 C329.074667,385.256 329.618667,385.448 330.056,385.832 C330.493333,386.216 330.754667,386.717333 330.84,387.336 L330.84,387.336 Z M338.536,395.512 C341.608,395.512 343.144,394.008 343.144,391 L343.144,391 L343.144,383.752 L341.24,383.752 L341.24,384.888 C340.898667,384.472 340.474667,384.162667 339.968,383.96 C339.461333,383.757333 338.898667,383.656 338.28,383.656 C337.469333,383.656 336.736,383.826667 336.08,384.168 C335.424,384.509333 334.906667,384.992 334.528,385.616 C334.149333,386.24 333.96,386.957333 333.96,387.768 C333.96,388.578667 334.149333,389.298667 334.528,389.928 C334.906667,390.557333 335.424,391.045333 336.08,391.392 C336.736,391.738667 337.469333,391.912 338.28,391.912 C338.866667,391.912 339.405333,391.816 339.896,391.624 C340.386667,391.432 340.802667,391.149333 341.144,390.776 L341.144,390.776 L341.144,391.224 C341.144,392.098667 340.925333,392.749333 340.488,393.176 C340.050667,393.602667 339.362667,393.816 338.424,393.816 C337.837333,393.816 337.258667,393.722667 336.688,393.536 C336.117333,393.349333 335.645333,393.101333 335.272,392.792 L335.272,392.792 L334.376,394.296 C334.856,394.690667 335.464,394.992 336.2,395.2 C336.936,395.408 337.714667,395.512 338.536,395.512 Z M338.584,390.216 C337.816,390.216 337.189333,389.989333 336.704,389.536 C336.218667,389.082667 335.976,388.493333 335.976,387.768 C335.976,387.053333 336.218667,386.472 336.704,386.024 C337.189333,385.576 337.816,385.352 338.584,385.352 C339.341333,385.352 339.962667,385.576 340.448,386.024 C340.933333,386.472 341.176,387.053333 341.176,387.768 C341.176,388.493333 340.933333,389.082667 340.448,389.536 C339.962667,389.989333 339.341333,390.216 338.584,390.216 Z M347.768,392.296 L347.768,388.152 C347.768,387.298667 347.986667,386.645333 348.424,386.192 C348.861333,385.738667 349.469333,385.512 350.248,385.512 C350.386667,385.512 350.541333,385.528 350.712,385.56 L350.712,385.56 L350.712,383.656 C349.261333,383.656 348.248,384.104 347.672,385 L347.672,385 L347.672,383.752 L345.768,383.752 L345.768,392.296 L347.768,392.296 Z M356.504,392.408 C357.24,392.408 357.901333,392.290667 358.488,392.056 C359.074667,391.821333 359.56,391.474667 359.944,391.016 L359.944,391.016 L358.872,389.784 C358.264,390.402667 357.490667,390.712 356.552,390.712 C355.816,390.712 355.2,390.528 354.704,390.16 C354.208,389.792 353.901333,389.293333 353.784,388.664 L353.784,388.664 L360.488,388.664 C360.509333,388.408 360.52,388.210667 360.52,388.072 C360.52,387.197333 360.336,386.426667 359.968,385.76 C359.6,385.093333 359.088,384.576 358.432,384.208 C357.776,383.84 357.032,383.656 356.2,383.656 C355.357333,383.656 354.6,383.842667 353.928,384.216 C353.256,384.589333 352.730667,385.109333 352.352,385.776 C351.973333,386.442667 351.784,387.192 351.784,388.024 C351.784,388.866667 351.978667,389.621333 352.368,390.288 C352.757333,390.954667 353.309333,391.474667 354.024,391.848 C354.738667,392.221333 355.565333,392.408 356.504,392.408 Z M358.616,387.336 L353.768,387.336 C353.864,386.706667 354.133333,386.202667 354.576,385.824 C355.018667,385.445333 355.56,385.256 356.2,385.256 C356.850667,385.256 357.394667,385.448 357.832,385.832 C358.269333,386.216 358.530667,386.717333 358.616,387.336 L358.616,387.336 Z M366.456,392.408 C367.192,392.408 367.853333,392.290667 368.44,392.056 C369.026667,391.821333 369.512,391.474667 369.896,391.016 L369.896,391.016 L368.824,389.784 C368.216,390.402667 367.442667,390.712 366.504,390.712 C365.768,390.712 365.152,390.528 364.656,390.16 C364.16,389.792 363.853333,389.293333 363.736,388.664 L363.736,388.664 L370.44,388.664 C370.461333,388.408 370.472,388.210667 370.472,388.072 C370.472,387.197333 370.288,386.426667 369.92,385.76 C369.552,385.093333 369.04,384.576 368.384,384.208 C367.728,383.84 366.984,383.656 366.152,383.656 C365.309333,383.656 364.552,383.842667 363.88,384.216 C363.208,384.589333 362.682667,385.109333 362.304,385.776 C361.925333,386.442667 361.736,387.192 361.736,388.024 C361.736,388.866667 361.930667,389.621333 362.32,390.288 C362.709333,390.954667 363.261333,391.474667 363.976,391.848 C364.690667,392.221333 365.517333,392.408 366.456,392.408 Z M368.568,387.336 L363.72,387.336 C363.816,386.706667 364.085333,386.202667 364.528,385.824 C364.970667,385.445333 365.512,385.256 366.152,385.256 C366.802667,385.256 367.346667,385.448 367.784,385.832 C368.221333,386.216 368.482667,386.717333 368.568,387.336 L368.568,387.336 Z M379.448,392.408 C380.642667,392.408 381.586667,392.168 382.28,391.688 C382.973333,391.208 383.32,390.568 383.32,389.768 C383.32,389.16 383.162667,388.690667 382.848,388.36 C382.533333,388.029333 382.157333,387.794667 381.72,387.656 C381.282667,387.517333 380.722667,387.394667 380.04,387.288 C379.357333,387.170667 378.853333,387.045333 378.528,386.912 C378.202667,386.778667 378.04,386.552 378.04,386.232 C378.04,385.944 378.192,385.712 378.496,385.536 C378.8,385.36 379.245333,385.272 379.832,385.272 C380.738667,385.272 381.554667,385.485333 382.28,385.912 L382.28,385.912 L383.048,384.392 C382.674667,384.168 382.194667,383.989333 381.608,383.856 C381.021333,383.722667 380.434667,383.656 379.848,383.656 C378.696,383.656 377.781333,383.898667 377.104,384.384 C376.426667,384.869333 376.088,385.517333 376.088,386.328 C376.088,386.946667 376.250667,387.429333 376.576,387.776 C376.901333,388.122667 377.285333,388.365333 377.728,388.504 C378.170667,388.642667 378.744,388.765333 379.448,388.872 C380.12,388.978667 380.608,389.090667 380.912,389.208 C381.216,389.325333 381.368,389.533333 381.368,389.832 C381.368,390.461333 380.770667,390.776 379.576,390.776 C379.053333,390.776 378.522667,390.698667 377.984,390.544 C377.445333,390.389333 376.984,390.184 376.6,389.928 L376.6,389.928 L375.832,391.448 C376.226667,391.725333 376.754667,391.954667 377.416,392.136 C378.077333,392.317333 378.754667,392.408 379.448,392.408 Z M388.664,392.408 C389.218667,392.408 389.736,392.304 390.216,392.096 C390.696,391.888 391.096,391.592 391.416,391.208 L391.416,391.208 L391.416,392.296 L393.32,392.296 L393.32,383.752 L391.32,383.752 L391.32,388.072 C391.32,388.904 391.109333,389.541333 390.688,389.984 C390.266667,390.426667 389.698667,390.648 388.984,390.648 C388.344,390.648 387.850667,390.458667 387.504,390.08 C387.157333,389.701333 386.984,389.128 386.984,388.36 L386.984,388.36 L386.984,383.752 L384.984,383.752 L384.984,388.632 C384.984,389.88 385.312,390.821333 385.968,391.456 C386.624,392.090667 387.522667,392.408 388.664,392.408 Z M400.68,392.408 C401.512,392.408 402.256,392.226667 402.912,391.864 C403.568,391.501333 404.082667,390.986667 404.456,390.32 C404.829333,389.653333 405.016,388.888 405.016,388.024 C405.016,387.16 404.829333,386.397333 404.456,385.736 C404.082667,385.074667 403.568,384.562667 402.912,384.2 C402.256,383.837333 401.512,383.656 400.68,383.656 C400.125333,383.656 399.616,383.752 399.152,383.944 C398.688,384.136 398.285333,384.418667 397.944,384.792 L397.944,384.792 L397.944,380.424 L395.944,380.424 L395.944,392.296 L397.848,392.296 L397.848,391.192 C398.178667,391.597333 398.586667,391.901333 399.072,392.104 C399.557333,392.306667 400.093333,392.408 400.68,392.408 Z M400.456,390.696 C399.976,390.696 399.544,390.586667 399.16,390.368 C398.776,390.149333 398.472,389.837333 398.248,389.432 C398.024,389.026667 397.912,388.557333 397.912,388.024 C397.912,387.490667 398.024,387.021333 398.248,386.616 C398.472,386.210667 398.776,385.898667 399.16,385.68 C399.544,385.461333 399.976,385.352 400.456,385.352 C401.192,385.352 401.797333,385.597333 402.272,386.088 C402.746667,386.578667 402.984,387.224 402.984,388.024 C402.984,388.824 402.746667,389.469333 402.272,389.96 C401.797333,390.450667 401.192,390.696 400.456,390.696 Z M408.008,382.344 C408.381333,382.344 408.688,382.224 408.928,381.984 C409.168,381.744 409.288,381.448 409.288,381.096 C409.288,380.765333 409.165333,380.490667 408.92,380.272 C408.674667,380.053333 408.370667,379.944 408.008,379.944 C407.645333,379.944 407.341333,380.058667 407.096,380.288 C406.850667,380.517333 406.728,380.802667 406.728,381.144 C406.728,381.485333 406.850667,381.770667 407.096,382 C407.341333,382.229333 407.645333,382.344 408.008,382.344 Z M406.04,395.512 C406.978667,395.512 407.709333,395.24 408.232,394.696 C408.754667,394.152 409.016,393.405333 409.016,392.456 L409.016,392.456 L409.016,383.752 L407.016,383.752 L407.016,392.504 C407.016,392.952 406.917333,393.290667 406.72,393.52 C406.522667,393.749333 406.237333,393.864 405.864,393.864 C405.384,393.864 404.994667,393.752 404.696,393.528 L404.696,393.528 L404.12,395.016 C404.557333,395.346667 405.197333,395.512 406.04,395.512 Z M415.656,392.408 C416.392,392.408 417.053333,392.290667 417.64,392.056 C418.226667,391.821333 418.712,391.474667 419.096,391.016 L419.096,391.016 L418.024,389.784 C417.416,390.402667 416.642667,390.712 415.704,390.712 C414.968,390.712 414.352,390.528 413.856,390.16 C413.36,389.792 413.053333,389.293333 412.936,388.664 L412.936,388.664 L419.64,388.664 C419.661333,388.408 419.672,388.210667 419.672,388.072 C419.672,387.197333 419.488,386.426667 419.12,385.76 C418.752,385.093333 418.24,384.576 417.584,384.208 C416.928,383.84 416.184,383.656 415.352,383.656 C414.509333,383.656 413.752,383.842667 413.08,384.216 C412.408,384.589333 411.882667,385.109333 411.504,385.776 C411.125333,386.442667 410.936,387.192 410.936,388.024 C410.936,388.866667 411.130667,389.621333 411.52,390.288 C411.909333,390.954667 412.461333,391.474667 413.176,391.848 C413.890667,392.221333 414.717333,392.408 415.656,392.408 Z M417.768,387.336 L412.92,387.336 C413.016,386.706667 413.285333,386.202667 413.728,385.824 C414.170667,385.445333 414.712,385.256 415.352,385.256 C416.002667,385.256 416.546667,385.448 416.984,385.832 C417.421333,386.216 417.682667,386.717333 417.768,387.336 L417.768,387.336 Z M425.512,392.408 C426.344,392.408 427.077333,392.234667 427.712,391.888 C428.346667,391.541333 428.829333,391.048 429.16,390.408 L429.16,390.408 L427.624,389.512 C427.378667,389.906667 427.072,390.202667 426.704,390.4 C426.336,390.597333 425.933333,390.696 425.496,390.696 C424.738667,390.696 424.117333,390.453333 423.632,389.968 C423.146667,389.482667 422.904,388.834667 422.904,388.024 C422.904,387.213333 423.149333,386.565333 423.64,386.08 C424.130667,385.594667 424.749333,385.352 425.496,385.352 C425.933333,385.352 426.336,385.450667 426.704,385.648 C427.072,385.845333 427.378667,386.141333 427.624,386.536 L427.624,386.536 L429.16,385.64 C428.84,385 428.362667,384.509333 427.728,384.168 C427.093333,383.826667 426.354667,383.656 425.512,383.656 C424.616,383.656 423.818667,383.842667 423.12,384.216 C422.421333,384.589333 421.874667,385.106667 421.48,385.768 C421.085333,386.429333 420.888,387.181333 420.888,388.024 C420.888,388.866667 421.085333,389.621333 421.48,390.288 C421.874667,390.954667 422.424,391.474667 423.128,391.848 C423.832,392.221333 424.626667,392.408 425.512,392.408 Z M434.104,392.408 C434.477333,392.408 434.832,392.36 435.168,392.264 C435.504,392.168 435.789333,392.024 436.024,391.832 L436.024,391.832 L435.464,390.408 C435.165333,390.642667 434.792,390.76 434.344,390.76 C433.96,390.76 433.666667,390.650667 433.464,390.432 C433.261333,390.213333 433.16,389.896 433.16,389.48 L433.16,389.48 L433.16,385.416 L435.448,385.416 L435.448,383.816 L433.16,383.816 L433.16,381.864 L431.16,381.864 L431.16,383.816 L429.752,383.816 L429.752,385.416 L431.16,385.416 L431.16,389.528 C431.16,390.466667 431.416,391.181333 431.928,391.672 C432.44,392.162667 433.165333,392.408 434.104,392.408 Z" id="Degreesubject"></path>
                    <path d="M131.752,11.296 L131.752,10.272 L125.592,10.272 L129.4,6.528 C130.114667,5.83466667 130.6,5.22133333 130.856,4.688 C131.112,4.15466667 131.24,3.6 131.24,3.024 C131.24,2.08533333 130.906667,1.34666667 130.24,0.808 C129.573333,0.269333333 128.669333,0 127.528,0 C126.674667,0 125.909333,0.138666667 125.232,0.416 C124.554667,0.693333333 123.997333,1.088 123.56,1.6 L123.56,1.6 L124.376,2.304 C125.101333,1.472 126.12,1.056 127.432,1.056 C128.274667,1.056 128.922667,1.24 129.376,1.608 C129.829333,1.976 130.056,2.49066667 130.056,3.152 C130.056,3.57866667 129.952,4.00266667 129.744,4.424 C129.536,4.84533333 129.138667,5.344 128.552,5.92 L128.552,5.92 L123.896,10.48 L123.896,11.296 L131.752,11.296 Z M137.656,11.392 C138.52,11.392 139.290667,11.1626667 139.968,10.704 C140.645333,10.2453333 141.176,9.58666667 141.56,8.728 C141.944,7.86933333 142.136,6.85866667 142.136,5.696 C142.136,4.53333333 141.944,3.52266667 141.56,2.664 C141.176,1.80533333 140.645333,1.14666667 139.968,0.688 C139.290667,0.229333333 138.52,0 137.656,0 C136.792,0 136.021333,0.229333333 135.344,0.688 C134.666667,1.14666667 134.138667,1.80533333 133.76,2.664 C133.381333,3.52266667 133.192,4.53333333 133.192,5.696 C133.192,6.85866667 133.381333,7.86933333 133.76,8.728 C134.138667,9.58666667 134.666667,10.2453333 135.344,10.704 C136.021333,11.1626667 136.792,11.392 137.656,11.392 Z M137.656,10.336 C137.005333,10.336 136.432,10.1546667 135.936,9.792 C135.44,9.42933333 135.053333,8.90133333 134.776,8.208 C134.498667,7.51466667 134.36,6.67733333 134.36,5.696 C134.36,4.71466667 134.498667,3.87733333 134.776,3.184 C135.053333,2.49066667 135.44,1.96266667 135.936,1.6 C136.432,1.23733333 137.005333,1.056 137.656,1.056 C138.306667,1.056 138.88,1.23733333 139.376,1.6 C139.872,1.96266667 140.258667,2.49066667 140.536,3.184 C140.813333,3.87733333 140.952,4.71466667 140.952,5.696 C140.952,6.67733333 140.813333,7.51466667 140.536,8.208 C140.258667,8.90133333 139.872,9.42933333 139.376,9.792 C138.88,10.1546667 138.306667,10.336 137.656,10.336 Z M146.888,11.296 L146.888,0.096 L143.096,0.096 L143.096,1.12 L145.736,1.12 L145.736,11.296 L146.888,11.296 Z M154.152,11.392 C154.877333,11.392 155.530667,11.2506667 156.112,10.968 C156.693333,10.6853333 157.149333,10.2826667 157.48,9.76 C157.810667,9.23733333 157.976,8.63466667 157.976,7.952 C157.976,7.28 157.816,6.69066667 157.496,6.184 C157.176,5.67733333 156.730667,5.28533333 156.16,5.008 C155.589333,4.73066667 154.936,4.592 154.2,4.592 C153.410667,4.592 152.712,4.76 152.104,5.096 C151.496,5.432 151.053333,5.904 150.776,6.512 C150.744,6.17066667 150.728,5.86666667 150.728,5.6 C150.728,4.10666667 151.08,2.968 151.784,2.184 C152.488,1.4 153.458667,1.008 154.696,1.008 C155.613333,1.008 156.338667,1.184 156.872,1.536 L156.872,1.536 L157.336,0.608 C156.674667,0.202666667 155.789333,0 154.68,0 C153.656,0 152.76,0.221333333 151.992,0.664 C151.224,1.10666667 150.626667,1.76 150.2,2.624 C149.773333,3.488 149.56,4.544 149.56,5.792 C149.56,7.57333333 149.954667,8.952 150.744,9.928 C151.533333,10.904 152.669333,11.392 154.152,11.392 Z M154.104,10.416 C153.485333,10.416 152.952,10.304 152.504,10.08 C152.056,9.856 151.717333,9.56266667 151.488,9.2 C151.258667,8.83733333 151.144,8.44266667 151.144,8.016 C151.144,7.55733333 151.266667,7.14133333 151.512,6.768 C151.757333,6.39466667 152.096,6.10133333 152.528,5.888 C152.96,5.67466667 153.458667,5.568 154.024,5.568 C154.888,5.568 155.573333,5.78666667 156.08,6.224 C156.586667,6.66133333 156.84,7.248 156.84,7.984 C156.84,8.72 156.586667,9.30933333 156.08,9.752 C155.573333,10.1946667 154.914667,10.416 154.104,10.416 Z" id="2016"></path>
                    <path d="M225.752,11.296 L225.752,10.272 L219.592,10.272 L223.4,6.528 C224.114667,5.83466667 224.6,5.22133333 224.856,4.688 C225.112,4.15466667 225.24,3.6 225.24,3.024 C225.24,2.08533333 224.906667,1.34666667 224.24,0.808 C223.573333,0.269333333 222.669333,0 221.528,0 C220.674667,0 219.909333,0.138666667 219.232,0.416 C218.554667,0.693333333 217.997333,1.088 217.56,1.6 L217.56,1.6 L218.376,2.304 C219.101333,1.472 220.12,1.056 221.432,1.056 C222.274667,1.056 222.922667,1.24 223.376,1.608 C223.829333,1.976 224.056,2.49066667 224.056,3.152 C224.056,3.57866667 223.952,4.00266667 223.744,4.424 C223.536,4.84533333 223.138667,5.344 222.552,5.92 L222.552,5.92 L217.896,10.48 L217.896,11.296 L225.752,11.296 Z M231.656,11.392 C232.52,11.392 233.290667,11.1626667 233.968,10.704 C234.645333,10.2453333 235.176,9.58666667 235.56,8.728 C235.944,7.86933333 236.136,6.85866667 236.136,5.696 C236.136,4.53333333 235.944,3.52266667 235.56,2.664 C235.176,1.80533333 234.645333,1.14666667 233.968,0.688 C233.290667,0.229333333 232.52,0 231.656,0 C230.792,0 230.021333,0.229333333 229.344,0.688 C228.666667,1.14666667 228.138667,1.80533333 227.76,2.664 C227.381333,3.52266667 227.192,4.53333333 227.192,5.696 C227.192,6.85866667 227.381333,7.86933333 227.76,8.728 C228.138667,9.58666667 228.666667,10.2453333 229.344,10.704 C230.021333,11.1626667 230.792,11.392 231.656,11.392 Z M231.656,10.336 C231.005333,10.336 230.432,10.1546667 229.936,9.792 C229.44,9.42933333 229.053333,8.90133333 228.776,8.208 C228.498667,7.51466667 228.36,6.67733333 228.36,5.696 C228.36,4.71466667 228.498667,3.87733333 228.776,3.184 C229.053333,2.49066667 229.44,1.96266667 229.936,1.6 C230.432,1.23733333 231.005333,1.056 231.656,1.056 C232.306667,1.056 232.88,1.23733333 233.376,1.6 C233.872,1.96266667 234.258667,2.49066667 234.536,3.184 C234.813333,3.87733333 234.952,4.71466667 234.952,5.696 C234.952,6.67733333 234.813333,7.51466667 234.536,8.208 C234.258667,8.90133333 233.872,9.42933333 233.376,9.792 C232.88,10.1546667 232.306667,10.336 231.656,10.336 Z M240.888,11.296 L240.888,0.096 L237.096,0.096 L237.096,1.12 L239.736,1.12 L239.736,11.296 L240.888,11.296 Z M247.096,11.392 C247.981333,11.392 248.728,11.2453333 249.336,10.952 C249.944,10.6586667 250.4,10.256 250.704,9.744 C251.008,9.232 251.16,8.65066667 251.16,8 C251.16,6.95466667 250.789333,6.14133333 250.048,5.56 C249.306667,4.97866667 248.125333,4.688 246.504,4.688 L246.504,4.688 L245.064,4.688 L245.448,1.12 L250.568,1.12 L250.568,0.096 L244.44,0.096 L243.864,5.712 L246.248,5.712 C247.602667,5.712 248.565333,5.90933333 249.136,6.304 C249.706667,6.69866667 249.992,7.28 249.992,8.048 C249.992,8.74133333 249.738667,9.296 249.232,9.712 C248.725333,10.128 248.008,10.336 247.08,10.336 C246.376,10.336 245.72,10.216 245.112,9.976 C244.504,9.736 244.013333,9.424 243.64,9.04 L243.64,9.04 L243.08,9.952 C243.517333,10.3893333 244.096,10.7386667 244.816,11 C245.536,11.2613333 246.296,11.392 247.096,11.392 Z" id="2015"></path>
                    <path d="M319.752,11.296 L319.752,10.272 L313.592,10.272 L317.4,6.528 C318.114667,5.83466667 318.6,5.22133333 318.856,4.688 C319.112,4.15466667 319.24,3.6 319.24,3.024 C319.24,2.08533333 318.906667,1.34666667 318.24,0.808 C317.573333,0.269333333 316.669333,0 315.528,0 C314.674667,0 313.909333,0.138666667 313.232,0.416 C312.554667,0.693333333 311.997333,1.088 311.56,1.6 L311.56,1.6 L312.376,2.304 C313.101333,1.472 314.12,1.056 315.432,1.056 C316.274667,1.056 316.922667,1.24 317.376,1.608 C317.829333,1.976 318.056,2.49066667 318.056,3.152 C318.056,3.57866667 317.952,4.00266667 317.744,4.424 C317.536,4.84533333 317.138667,5.344 316.552,5.92 L316.552,5.92 L311.896,10.48 L311.896,11.296 L319.752,11.296 Z M325.656,11.392 C326.52,11.392 327.290667,11.1626667 327.968,10.704 C328.645333,10.2453333 329.176,9.58666667 329.56,8.728 C329.944,7.86933333 330.136,6.85866667 330.136,5.696 C330.136,4.53333333 329.944,3.52266667 329.56,2.664 C329.176,1.80533333 328.645333,1.14666667 327.968,0.688 C327.290667,0.229333333 326.52,0 325.656,0 C324.792,0 324.021333,0.229333333 323.344,0.688 C322.666667,1.14666667 322.138667,1.80533333 321.76,2.664 C321.381333,3.52266667 321.192,4.53333333 321.192,5.696 C321.192,6.85866667 321.381333,7.86933333 321.76,8.728 C322.138667,9.58666667 322.666667,10.2453333 323.344,10.704 C324.021333,11.1626667 324.792,11.392 325.656,11.392 Z M325.656,10.336 C325.005333,10.336 324.432,10.1546667 323.936,9.792 C323.44,9.42933333 323.053333,8.90133333 322.776,8.208 C322.498667,7.51466667 322.36,6.67733333 322.36,5.696 C322.36,4.71466667 322.498667,3.87733333 322.776,3.184 C323.053333,2.49066667 323.44,1.96266667 323.936,1.6 C324.432,1.23733333 325.005333,1.056 325.656,1.056 C326.306667,1.056 326.88,1.23733333 327.376,1.6 C327.872,1.96266667 328.258667,2.49066667 328.536,3.184 C328.813333,3.87733333 328.952,4.71466667 328.952,5.696 C328.952,6.67733333 328.813333,7.51466667 328.536,8.208 C328.258667,8.90133333 327.872,9.42933333 327.376,9.792 C326.88,10.1546667 326.306667,10.336 325.656,10.336 Z M334.888,11.296 L334.888,0.096 L331.096,0.096 L331.096,1.12 L333.736,1.12 L333.736,11.296 L334.888,11.296 Z M344.84,11.296 L344.84,8.352 L347.08,8.352 L347.08,7.328 L344.84,7.328 L344.84,4.736 L343.72,4.736 L343.72,7.328 L338.856,7.328 L344.584,0.096 L343.304,0.096 L337.368,7.52 L337.368,8.352 L343.688,8.352 L343.688,11.296 L344.84,11.296 Z" id="2014"></path>
                </g>
                <rect id="Rectangle" fill="#DB7656" x="0" y="104.296" width="32" height="255"></rect>
                <rect id="Rectangle-Copy-16" fill="#DB7656" x="154" y="67.296" width="33" height="292"></rect>
                <rect id="Rectangle-Copy-17" fill="#DB7656" x="310" y="294.296" width="32" height="65"></rect>
                <rect id="Rectangle-Copy-2" fill="#3772FF" x="34" y="96.296" width="32" height="263"></rect>
                <rect id="Rectangle-Copy-25" fill="#3772FF" x="189" y="85.296" width="32" height="274"></rect>
                <rect id="Rectangle-Copy-28" fill="#3772FF" x="344" y="294.296" width="32" height="65"></rect>
                <rect id="Rectangle-Copy-13" fill="#FFBA08" x="68" y="85.296" width="32" height="274"></rect>
                <rect id="Rectangle-Copy-26" fill="#FFBA08" x="223" y="129.296" width="32" height="230"></rect>
                <rect id="Rectangle-Copy-29" fill="#FFBA08" x="378" y="277.296" width="32" height="82"></rect>
                <rect id="Rectangle-Copy-14" fill="#7DCFB6" x="102" y="78.296" width="32" height="281"></rect>
                <rect id="Rectangle-Copy-27" fill="#7DCFB6" x="257" y="136.296" width="33" height="223"></rect>
                <rect id="Rectangle-Copy-30" fill="#7DCFB6" x="412" y="273.296" width="32" height="86"></rect>
            </g>
        </g>
    </g>
</svg>