<?xml version="1.0" encoding="UTF-8"?>
<svg width="353px" height="406px" viewBox="0 0 353 406" version="1.1" xmlns="http://www.w3.org/2000/svg" xmlns:xlink="http://www.w3.org/1999/xlink">
    <title>Group 6</title>
    <g id="Home-&gt;-Chronology-&gt;-Timeline" stroke="none" stroke-width="1" fill="none" fill-rule="evenodd">
        <g id="Mobile/Timeline/School-years/Early-years-foundation-stage-Copy" transform="translate(-12.000000, -2267.000000)">
            <g id="Group-6" transform="translate(12.000000, 2267.000000)">
                <g id="Group-5">
                    <g id="Group-10" transform="translate(0.000000, 48.000000)">
                        <polygon id="Line" fill="#EFEFEF" fill-rule="nonzero" points="350.999182 291 350.999406 291.571188 40.9996296 292 40.999406 291.428812"></polygon>
                        <polygon id="Line-Copy-6" fill="#EFEFEF" fill-rule="nonzero" transform="translate(40.991302, 148.501037) rotate(-90.000000) translate(-40.991302, -148.501037) " points="182.992114 148.006822 182.992339 149.009735 -101.009735 148.995252 -101.009735 147.992339"></polygon>
                        <polygon id="Line-Copy" fill="#EFEFEF" fill-rule="nonzero" points="350.999182 234 350.999406 234.571188 40.9996296 235 40.999406 234.428812"></polygon>
                        <polygon id="Line-Copy-2" fill="#EFEFEF" fill-rule="nonzero" points="350.999182 177 350.999406 177.571188 40.9996296 178 40.999406 177.428812"></polygon>
                        <polygon id="Line-Copy-3" fill="#EFEFEF" fill-rule="nonzero" points="350.999182 120 350.999406 120.571188 40.9996296 121 40.999406 120.428812"></polygon>
                        <polygon id="Line-Copy-4" fill="#EFEFEF" fill-rule="nonzero" points="350.999182 63 350.999406 63.5711883 40.9996296 64 40.999406 63.4288117"></polygon>
                        <polygon id="Path" fill="#EFEFEF" fill-rule="nonzero" points="350.983836 6.000021 350.98406 6.57121053 40.9842836 7.0000231 40.98406 6.42883358"></polygon>
                        <path d="M51,57.870447 C62.1867563,72.7579308 71.231448,83.5504606 78.1340749,90.2480366 C85.0367019,96.9456125 96.6489189,106.196352 112.970726,118.000256 L142.730679,115.225034 C169.923107,103.50743 186.78708,97.6486285 193.3226,97.6486285 C199.858119,97.6486285 203.76776,97.6486285 205.051522,97.6486285 L215.905152,42.1441891 L226.758782,39.3689672 L236.211944,42.1441891 C240.564688,46.6526201 244.591035,50.1473441 248.290984,52.628361 C251.990932,55.1093779 258.234687,58.5013159 267.022248,62.8041749 L277.525761,14.3919695 C284.472815,14.7706554 289.666219,14.7706554 293.105972,14.3919695 C296.545725,14.0132835 301.622423,12.8826376 308.336066,11.0000315 L329.693208,20.8674874 L339.671546,28.5764373 L350,31.9683753" id="Path-7" stroke="#3772FF" stroke-width="3" stroke-linecap="round" stroke-linejoin="round"></path>
                        <path d="M42,142.359858 L60.9290981,154.483479 L73.0226886,157.902962 L82.4872377,155.726927 L93.8797504,160.389858 L104.395916,169.093997 L112.984118,172.513479 L134.542258,175.000376 L144.883154,166.6071 L154.522972,164.120203 L165.740216,151.68572 L175.555303,151.68572 L185.8962,139.872961 L196.587635,144.535893 L206.052184,117.18003 L228.311401,117.18003 L235.847986,119.356064 L247.415769,115.003995 L257.931934,99.7717535 L268.097561,92.0002016 L278.788996,107.543305 L301.223483,115.003995 L309.461146,115.003995 L319.802042,124.329858 C326.65441,122.940226 331.854069,122.422123 335.401021,122.775547 C338.947973,123.128972 344.147632,124.683282 351,127.438478" id="Path-8" stroke="#2D3142" stroke-width="3" stroke-linecap="round" stroke-linejoin="round"></path>
                        <path d="M42,193.31687 L64.960295,193.31687 L71.971072,190.554206 L84.0646625,190.554206 L104.571185,197.000422 L112.633579,194.851683 L123.850822,194.851683 L133.140102,193.31687 L156.450936,180.731401 L175.905842,160.164902 C189.579577,150.860886 200.563128,143.903065 208.856495,139.29144 C217.149861,134.679815 229.535567,128.642883 246.013613,121.180643 L258.808281,121.180643 L268.097561,100.000218 L298.068633,100.000218 L320.853659,111.357837 L329.44186,114.120501 L343.112876,112.892651 L351,115.348352" id="Path-9" stroke="#DF886C" stroke-width="3" stroke-linecap="round" stroke-linejoin="round"></path>
                        <path d="M42,235.000502 L53.7430516,235.000502 L72.4968803,228.712863 L83.3635848,228.712863 L92.8281339,225.569044 L102.818491,228.712863 L125.778786,228.712863 L135.068066,223.053989 L177.132728,189.415122 L187.298355,183.756247 L196.587635,181.241192 L206.052184,174.324789 L238.827567,162.692658 L258.457742,159.548839 L267.747022,151.374908 C276.935169,151.202935 283.8291,150.469377 288.428815,149.174235 C293.028529,147.879092 296.183378,145.783213 297.893364,142.886596 L308.935337,141.000305 L328.390244,149.174235 L351,149.174235" id="Path-10" stroke="#FFBA08" stroke-width="3" stroke-linecap="round" stroke-linejoin="round"></path>
                        <polyline id="Path-11" stroke="#7DCFB6" stroke-width="3" stroke-linecap="round" stroke-linejoin="round" points="166 249.814487 175.947844 263.000561 186.244734 246.988899 196.890672 243.849358 216.437312 239.767954 228.653962 239.767954 235.111334 237.570275 247.851555 237.570275 257.973922 229.407467 267.398195 219.04698 278.39318 210.570218 289.039117 216.535347 298.812437 210.570218 308.585757 213.395805 319.406219 210.570218 329.005015 192.360878 340 182.000391"></polyline>
                        <path d="M3.9175919,336.416091 L3.9175919,325.216091 L0.125591896,325.216091 L0.125591896,326.240091 L2.7655919,326.240091 L2.7655919,336.416091 L3.9175919,336.416091 Z M9.5495919,336.512091 C10.5735919,336.512091 11.4695919,336.290758 12.2375919,335.848091 C13.0055919,335.405424 13.6029252,334.752091 14.0295919,333.888091 C14.4562586,333.024091 14.6695919,331.968091 14.6695919,330.720091 C14.6695919,328.938758 14.2749252,327.560091 13.4855919,326.584091 C12.6962586,325.608091 11.5602586,325.120091 10.0775919,325.120091 C9.35225856,325.120091 8.69892523,325.261424 8.1175919,325.544091 C7.53625856,325.826758 7.08025856,326.229424 6.7495919,326.752091 C6.41892523,327.274758 6.2535919,327.877424 6.2535919,328.560091 C6.2535919,329.232091 6.4135919,329.821424 6.7335919,330.328091 C7.0535919,330.834758 7.49892523,331.226758 8.0695919,331.504091 C8.64025856,331.781424 9.2935919,331.920091 10.0295919,331.920091 C10.8189252,331.920091 11.5175919,331.752091 12.1255919,331.416091 C12.7335919,331.080091 13.1762586,330.608091 13.4535919,330.000091 C13.4855919,330.330758 13.5015919,330.634758 13.5015919,330.912091 C13.5015919,332.405424 13.1495919,333.544091 12.4455919,334.328091 C11.7415919,335.112091 10.7709252,335.504091 9.5335919,335.504091 C8.61625856,335.504091 7.89092523,335.328091 7.3575919,334.976091 L7.3575919,334.976091 L6.8935919,335.904091 C7.55492523,336.309424 8.44025856,336.512091 9.5495919,336.512091 Z M10.2055919,330.944091 C9.3415919,330.944091 8.65625856,330.725424 8.1495919,330.288091 C7.64292523,329.850758 7.3895919,329.264091 7.3895919,328.528091 C7.3895919,327.792091 7.64292523,327.202758 8.1495919,326.760091 C8.65625856,326.317424 9.31492523,326.096091 10.1255919,326.096091 C10.7442586,326.096091 11.2775919,326.208091 11.7255919,326.432091 C12.1735919,326.656091 12.5122586,326.949424 12.7415919,327.312091 C12.9709252,327.674758 13.0855919,328.069424 13.0855919,328.496091 C13.0855919,328.954758 12.9629252,329.370758 12.7175919,329.744091 C12.4722586,330.117424 12.1335919,330.410758 11.7015919,330.624091 C11.2695919,330.837424 10.7709252,330.944091 10.2055919,330.944091 Z M20.5895919,336.512091 C21.4749252,336.512091 22.2455919,336.381424 22.9015919,336.120091 C23.5575919,335.858758 24.0615919,335.485424 24.4135919,335.000091 C24.7655919,334.514758 24.9415919,333.946758 24.9415919,333.296091 C24.9415919,332.634758 24.7522586,332.069424 24.3735919,331.600091 C23.9949252,331.130758 23.4535919,330.778758 22.7495919,330.544091 C23.3255919,330.320091 23.7682586,329.997424 24.0775919,329.576091 C24.3869252,329.154758 24.5415919,328.656091 24.5415919,328.080091 C24.5415919,327.482758 24.3762586,326.960091 24.0455919,326.512091 C23.7149252,326.064091 23.2535919,325.720091 22.6615919,325.480091 C22.0695919,325.240091 21.3789252,325.120091 20.5895919,325.120091 C19.3949252,325.120091 18.4429252,325.386758 17.7335919,325.920091 C17.0242586,326.453424 16.6695919,327.173424 16.6695919,328.080091 C16.6695919,328.656091 16.8189252,329.154758 17.1175919,329.576091 C17.4162586,329.997424 17.8535919,330.320091 18.4295919,330.544091 C17.7255919,330.778758 17.1895919,331.128091 16.8215919,331.592091 C16.4535919,332.056091 16.2695919,332.624091 16.2695919,333.296091 C16.2695919,334.288091 16.6535919,335.072091 17.4215919,335.648091 C18.1895919,336.224091 19.2455919,336.512091 20.5895919,336.512091 Z M20.5895919,330.128091 C19.7255919,330.128091 19.0482586,329.946758 18.5575919,329.584091 C18.0669252,329.221424 17.8215919,328.730758 17.8215919,328.112091 C17.8215919,327.493424 18.0695919,327.002758 18.5655919,326.640091 C19.0615919,326.277424 19.7362586,326.096091 20.5895919,326.096091 C21.4322586,326.096091 22.1069252,326.277424 22.6135919,326.640091 C23.1202586,327.002758 23.3735919,327.498758 23.3735919,328.128091 C23.3735919,328.736091 23.1255919,329.221424 22.6295919,329.584091 C22.1335919,329.946758 21.4535919,330.128091 20.5895919,330.128091 Z M20.5895919,335.536091 C19.5975919,335.536091 18.8242586,335.336091 18.2695919,334.936091 C17.7149252,334.536091 17.4375919,333.984091 17.4375919,333.280091 C17.4375919,332.586758 17.7175919,332.040091 18.2775919,331.640091 C18.8375919,331.240091 19.6082586,331.040091 20.5895919,331.040091 C21.5815919,331.040091 22.3575919,331.240091 22.9175919,331.640091 C23.4775919,332.040091 23.7575919,332.586758 23.7575919,333.280091 C23.7575919,333.973424 23.4775919,334.522758 22.9175919,334.928091 C22.3575919,335.333424 21.5815919,335.536091 20.5895919,335.536091 Z M29.5015919,336.512091 C30.5255919,336.512091 31.4215919,336.290758 32.1895919,335.848091 C32.9575919,335.405424 33.5549252,334.752091 33.9815919,333.888091 C34.4082586,333.024091 34.6215919,331.968091 34.6215919,330.720091 C34.6215919,328.938758 34.2269252,327.560091 33.4375919,326.584091 C32.6482586,325.608091 31.5122586,325.120091 30.0295919,325.120091 C29.3042586,325.120091 28.6509252,325.261424 28.0695919,325.544091 C27.4882586,325.826758 27.0322586,326.229424 26.7015919,326.752091 C26.3709252,327.274758 26.2055919,327.877424 26.2055919,328.560091 C26.2055919,329.232091 26.3655919,329.821424 26.6855919,330.328091 C27.0055919,330.834758 27.4509252,331.226758 28.0215919,331.504091 C28.5922586,331.781424 29.2455919,331.920091 29.9815919,331.920091 C30.7709252,331.920091 31.4695919,331.752091 32.0775919,331.416091 C32.6855919,331.080091 33.1282586,330.608091 33.4055919,330.000091 C33.4375919,330.330758 33.4535919,330.634758 33.4535919,330.912091 C33.4535919,332.405424 33.1015919,333.544091 32.3975919,334.328091 C31.6935919,335.112091 30.7229252,335.504091 29.4855919,335.504091 C28.5682586,335.504091 27.8429252,335.328091 27.3095919,334.976091 L27.3095919,334.976091 L26.8455919,335.904091 C27.5069252,336.309424 28.3922586,336.512091 29.5015919,336.512091 Z M30.1575919,330.944091 C29.2935919,330.944091 28.6082586,330.725424 28.1015919,330.288091 C27.5949252,329.850758 27.3415919,329.264091 27.3415919,328.528091 C27.3415919,327.792091 27.5949252,327.202758 28.1015919,326.760091 C28.6082586,326.317424 29.2669252,326.096091 30.0775919,326.096091 C30.6962586,326.096091 31.2295919,326.208091 31.6775919,326.432091 C32.1255919,326.656091 32.4642586,326.949424 32.6935919,327.312091 C32.9229252,327.674758 33.0375919,328.069424 33.0375919,328.496091 C33.0375919,328.954758 32.9149252,329.370758 32.6695919,329.744091 C32.4242586,330.117424 32.0855919,330.410758 31.6535919,330.624091 C31.2215919,330.837424 30.7229252,330.944091 30.1575919,330.944091 Z M40.6055919,332.576091 L40.6055919,331.584091 L36.4135919,331.584091 L36.4135919,332.576091 L40.6055919,332.576091 Z M45.3575919,336.512091 C46.3815919,336.512091 47.2775919,336.290758 48.0455919,335.848091 C48.8135919,335.405424 49.4109252,334.752091 49.8375919,333.888091 C50.2642586,333.024091 50.4775919,331.968091 50.4775919,330.720091 C50.4775919,328.938758 50.0829252,327.560091 49.2935919,326.584091 C48.5042586,325.608091 47.3682586,325.120091 45.8855919,325.120091 C45.1602586,325.120091 44.5069252,325.261424 43.9255919,325.544091 C43.3442586,325.826758 42.8882586,326.229424 42.5575919,326.752091 C42.2269252,327.274758 42.0615919,327.877424 42.0615919,328.560091 C42.0615919,329.232091 42.2215919,329.821424 42.5415919,330.328091 C42.8615919,330.834758 43.3069252,331.226758 43.8775919,331.504091 C44.4482586,331.781424 45.1015919,331.920091 45.8375919,331.920091 C46.6269252,331.920091 47.3255919,331.752091 47.9335919,331.416091 C48.5415919,331.080091 48.9842586,330.608091 49.2615919,330.000091 C49.2935919,330.330758 49.3095919,330.634758 49.3095919,330.912091 C49.3095919,332.405424 48.9575919,333.544091 48.2535919,334.328091 C47.5495919,335.112091 46.5789252,335.504091 45.3415919,335.504091 C44.4242586,335.504091 43.6989252,335.328091 43.1655919,334.976091 L43.1655919,334.976091 L42.7015919,335.904091 C43.3629252,336.309424 44.2482586,336.512091 45.3575919,336.512091 Z M46.0135919,330.944091 C45.1495919,330.944091 44.4642586,330.725424 43.9575919,330.288091 C43.4509252,329.850758 43.1975919,329.264091 43.1975919,328.528091 C43.1975919,327.792091 43.4509252,327.202758 43.9575919,326.760091 C44.4642586,326.317424 45.1229252,326.096091 45.9335919,326.096091 C46.5522586,326.096091 47.0855919,326.208091 47.5335919,326.432091 C47.9815919,326.656091 48.3202586,326.949424 48.5495919,327.312091 C48.7789252,327.674758 48.8935919,328.069424 48.8935919,328.496091 C48.8935919,328.954758 48.7709252,329.370758 48.5255919,329.744091 C48.2802586,330.117424 47.9415919,330.410758 47.5095919,330.624091 C47.0775919,330.837424 46.5789252,330.944091 46.0135919,330.944091 Z M56.6055919,336.512091 C57.4695919,336.512091 58.2402586,336.282758 58.9175919,335.824091 C59.5949252,335.365424 60.1255919,334.706758 60.5095919,333.848091 C60.8935919,332.989424 61.0855919,331.978758 61.0855919,330.816091 C61.0855919,329.653424 60.8935919,328.642758 60.5095919,327.784091 C60.1255919,326.925424 59.5949252,326.266758 58.9175919,325.808091 C58.2402586,325.349424 57.4695919,325.120091 56.6055919,325.120091 C55.7415919,325.120091 54.9709252,325.349424 54.2935919,325.808091 C53.6162586,326.266758 53.0882586,326.925424 52.7095919,327.784091 C52.3309252,328.642758 52.1415919,329.653424 52.1415919,330.816091 C52.1415919,331.978758 52.3309252,332.989424 52.7095919,333.848091 C53.0882586,334.706758 53.6162586,335.365424 54.2935919,335.824091 C54.9709252,336.282758 55.7415919,336.512091 56.6055919,336.512091 Z M56.6055919,335.456091 C55.9549252,335.456091 55.3815919,335.274758 54.8855919,334.912091 C54.3895919,334.549424 54.0029252,334.021424 53.7255919,333.328091 C53.4482586,332.634758 53.3095919,331.797424 53.3095919,330.816091 C53.3095919,329.834758 53.4482586,328.997424 53.7255919,328.304091 C54.0029252,327.610758 54.3895919,327.082758 54.8855919,326.720091 C55.3815919,326.357424 55.9549252,326.176091 56.6055919,326.176091 C57.2562586,326.176091 57.8295919,326.357424 58.3255919,326.720091 C58.8215919,327.082758 59.2082586,327.610758 59.4855919,328.304091 C59.7629252,328.997424 59.9015919,329.834758 59.9015919,330.816091 C59.9015919,331.797424 59.7629252,332.634758 59.4855919,333.328091 C59.2082586,334.021424 58.8215919,334.549424 58.3255919,334.912091 C57.8295919,335.274758 57.2562586,335.456091 56.6055919,335.456091 Z" id="1989-90" fill="#2D3142" fill-rule="nonzero" transform="translate(30.605592, 330.816091) rotate(-45.000000) translate(-30.605592, -330.816091) "></path>
                        <path d="M37.4198907,334.29784 L37.4198907,323.09784 L33.6278907,323.09784 L33.6278907,324.12184 L36.2678907,324.12184 L36.2678907,334.29784 L37.4198907,334.29784 Z M43.0518907,334.39384 C44.0758907,334.39384 44.9718907,334.172507 45.7398907,333.72984 C46.5078907,333.287174 47.105224,332.63384 47.5318907,331.76984 C47.9585573,330.90584 48.1718907,329.84984 48.1718907,328.60184 C48.1718907,326.820507 47.777224,325.44184 46.9878907,324.46584 C46.1985573,323.48984 45.0625573,323.00184 43.5798907,323.00184 C42.8545573,323.00184 42.201224,323.143174 41.6198907,323.42584 C41.0385573,323.708507 40.5825573,324.111174 40.2518907,324.63384 C39.921224,325.156507 39.7558907,325.759174 39.7558907,326.44184 C39.7558907,327.11384 39.9158907,327.703174 40.2358907,328.20984 C40.5558907,328.716507 41.001224,329.108507 41.5718907,329.38584 C42.1425573,329.663174 42.7958907,329.80184 43.5318907,329.80184 C44.321224,329.80184 45.0198907,329.63384 45.6278907,329.29784 C46.2358907,328.96184 46.6785573,328.48984 46.9558907,327.88184 C46.9878907,328.212507 47.0038907,328.516507 47.0038907,328.79384 C47.0038907,330.287174 46.6518907,331.42584 45.9478907,332.20984 C45.2438907,332.99384 44.273224,333.38584 43.0358907,333.38584 C42.1185573,333.38584 41.393224,333.20984 40.8598907,332.85784 L40.8598907,332.85784 L40.3958907,333.78584 C41.057224,334.191174 41.9425573,334.39384 43.0518907,334.39384 Z M43.7078907,328.82584 C42.8438907,328.82584 42.1585573,328.607174 41.6518907,328.16984 C41.145224,327.732507 40.8918907,327.14584 40.8918907,326.40984 C40.8918907,325.67384 41.145224,325.084507 41.6518907,324.64184 C42.1585573,324.199174 42.817224,323.97784 43.6278907,323.97784 C44.2465573,323.97784 44.7798907,324.08984 45.2278907,324.31384 C45.6758907,324.53784 46.0145573,324.831174 46.2438907,325.19384 C46.473224,325.556507 46.5878907,325.951174 46.5878907,326.37784 C46.5878907,326.836507 46.465224,327.252507 46.2198907,327.62584 C45.9745573,327.999174 45.6358907,328.292507 45.2038907,328.50584 C44.7718907,328.719174 44.273224,328.82584 43.7078907,328.82584 Z M52.7958907,334.39384 C53.8198907,334.39384 54.7158907,334.172507 55.4838907,333.72984 C56.2518907,333.287174 56.849224,332.63384 57.2758907,331.76984 C57.7025573,330.90584 57.9158907,329.84984 57.9158907,328.60184 C57.9158907,326.820507 57.521224,325.44184 56.7318907,324.46584 C55.9425573,323.48984 54.8065573,323.00184 53.3238907,323.00184 C52.5985573,323.00184 51.945224,323.143174 51.3638907,323.42584 C50.7825573,323.708507 50.3265573,324.111174 49.9958907,324.63384 C49.665224,325.156507 49.4998907,325.759174 49.4998907,326.44184 C49.4998907,327.11384 49.6598907,327.703174 49.9798907,328.20984 C50.2998907,328.716507 50.745224,329.108507 51.3158907,329.38584 C51.8865573,329.663174 52.5398907,329.80184 53.2758907,329.80184 C54.065224,329.80184 54.7638907,329.63384 55.3718907,329.29784 C55.9798907,328.96184 56.4225573,328.48984 56.6998907,327.88184 C56.7318907,328.212507 56.7478907,328.516507 56.7478907,328.79384 C56.7478907,330.287174 56.3958907,331.42584 55.6918907,332.20984 C54.9878907,332.99384 54.017224,333.38584 52.7798907,333.38584 C51.8625573,333.38584 51.137224,333.20984 50.6038907,332.85784 L50.6038907,332.85784 L50.1398907,333.78584 C50.801224,334.191174 51.6865573,334.39384 52.7958907,334.39384 Z M53.4518907,328.82584 C52.5878907,328.82584 51.9025573,328.607174 51.3958907,328.16984 C50.889224,327.732507 50.6358907,327.14584 50.6358907,326.40984 C50.6358907,325.67384 50.889224,325.084507 51.3958907,324.64184 C51.9025573,324.199174 52.561224,323.97784 53.3718907,323.97784 C53.9905573,323.97784 54.5238907,324.08984 54.9718907,324.31384 C55.4198907,324.53784 55.7585573,324.831174 55.9878907,325.19384 C56.217224,325.556507 56.3318907,325.951174 56.3318907,326.37784 C56.3318907,326.836507 56.209224,327.252507 55.9638907,327.62584 C55.7185573,327.999174 55.3798907,328.292507 54.9478907,328.50584 C54.5158907,328.719174 54.017224,328.82584 53.4518907,328.82584 Z M62.9238907,334.39384 C63.7985573,334.39384 64.5398907,334.24984 65.1478907,333.96184 C65.7558907,333.67384 66.2145573,333.28184 66.5238907,332.78584 C66.833224,332.28984 66.9878907,331.72184 66.9878907,331.08184 C66.9878907,330.164507 66.681224,329.420507 66.0678907,328.84984 C65.4545573,328.279174 64.561224,327.96184 63.3878907,327.89784 L63.3878907,327.89784 L66.5558907,323.91384 L66.5558907,323.09784 L59.3558907,323.09784 L59.3558907,324.12184 L65.0838907,324.12184 L61.9798907,328.00984 L61.9798907,328.85784 L62.7798907,328.85784 C63.793224,328.85784 64.5505573,329.055174 65.0518907,329.44984 C65.553224,329.844507 65.8038907,330.388507 65.8038907,331.08184 C65.8038907,331.78584 65.553224,332.33784 65.0518907,332.73784 C64.5505573,333.13784 63.841224,333.33784 62.9238907,333.33784 C62.2198907,333.33784 61.5585573,333.21784 60.9398907,332.97784 C60.321224,332.73784 59.825224,332.42584 59.4518907,332.04184 L59.4518907,332.04184 L58.8918907,332.95384 C59.329224,333.391174 59.9078907,333.740507 60.6278907,334.00184 C61.3478907,334.263174 62.113224,334.39384 62.9238907,334.39384 Z M72.9238907,330.45784 L72.9238907,329.46584 L68.7318907,329.46584 L68.7318907,330.45784 L72.9238907,330.45784 Z M77.6758907,334.39384 C78.6998907,334.39384 79.5958907,334.172507 80.3638907,333.72984 C81.1318907,333.287174 81.729224,332.63384 82.1558907,331.76984 C82.5825573,330.90584 82.7958907,329.84984 82.7958907,328.60184 C82.7958907,326.820507 82.401224,325.44184 81.6118907,324.46584 C80.8225573,323.48984 79.6865573,323.00184 78.2038907,323.00184 C77.4785573,323.00184 76.825224,323.143174 76.2438907,323.42584 C75.6625573,323.708507 75.2065573,324.111174 74.8758907,324.63384 C74.545224,325.156507 74.3798907,325.759174 74.3798907,326.44184 C74.3798907,327.11384 74.5398907,327.703174 74.8598907,328.20984 C75.1798907,328.716507 75.625224,329.108507 76.1958907,329.38584 C76.7665573,329.663174 77.4198907,329.80184 78.1558907,329.80184 C78.945224,329.80184 79.6438907,329.63384 80.2518907,329.29784 C80.8598907,328.96184 81.3025573,328.48984 81.5798907,327.88184 C81.6118907,328.212507 81.6278907,328.516507 81.6278907,328.79384 C81.6278907,330.287174 81.2758907,331.42584 80.5718907,332.20984 C79.8678907,332.99384 78.897224,333.38584 77.6598907,333.38584 C76.7425573,333.38584 76.017224,333.20984 75.4838907,332.85784 L75.4838907,332.85784 L75.0198907,333.78584 C75.681224,334.191174 76.5665573,334.39384 77.6758907,334.39384 Z M78.3318907,328.82584 C77.4678907,328.82584 76.7825573,328.607174 76.2758907,328.16984 C75.769224,327.732507 75.5158907,327.14584 75.5158907,326.40984 C75.5158907,325.67384 75.769224,325.084507 76.2758907,324.64184 C76.7825573,324.199174 77.441224,323.97784 78.2518907,323.97784 C78.8705573,323.97784 79.4038907,324.08984 79.8518907,324.31384 C80.2998907,324.53784 80.6385573,324.831174 80.8678907,325.19384 C81.097224,325.556507 81.2118907,325.951174 81.2118907,326.37784 C81.2118907,326.836507 81.089224,327.252507 80.8438907,327.62584 C80.5985573,327.999174 80.2598907,328.292507 79.8278907,328.50584 C79.3958907,328.719174 78.897224,328.82584 78.3318907,328.82584 Z M91.7398907,334.29784 L91.7398907,331.35384 L93.9798907,331.35384 L93.9798907,330.32984 L91.7398907,330.32984 L91.7398907,327.73784 L90.6198907,327.73784 L90.6198907,330.32984 L85.7558907,330.32984 L91.4838907,323.09784 L90.2038907,323.09784 L84.2678907,330.52184 L84.2678907,331.35384 L90.5878907,331.35384 L90.5878907,334.29784 L91.7398907,334.29784 Z" id="1993-94" fill="#2D3142" fill-rule="nonzero" transform="translate(63.803891, 328.697840) rotate(-45.000000) translate(-63.803891, -328.697840) "></path>
                        <path d="M75.6815064,336.416091 L75.6815064,325.216091 L71.8895064,325.216091 L71.8895064,326.240091 L74.5295064,326.240091 L74.5295064,336.416091 L75.6815064,336.416091 Z M81.3135064,336.512091 C82.3375064,336.512091 83.2335064,336.290758 84.0015064,335.848091 C84.7695064,335.405424 85.3668397,334.752091 85.7935064,333.888091 C86.2201731,333.024091 86.4335064,331.968091 86.4335064,330.720091 C86.4335064,328.938758 86.0388397,327.560091 85.2495064,326.584091 C84.4601731,325.608091 83.3241731,325.120091 81.8415064,325.120091 C81.1161731,325.120091 80.4628397,325.261424 79.8815064,325.544091 C79.3001731,325.826758 78.8441731,326.229424 78.5135064,326.752091 C78.1828397,327.274758 78.0175064,327.877424 78.0175064,328.560091 C78.0175064,329.232091 78.1775064,329.821424 78.4975064,330.328091 C78.8175064,330.834758 79.2628397,331.226758 79.8335064,331.504091 C80.4041731,331.781424 81.0575064,331.920091 81.7935064,331.920091 C82.5828397,331.920091 83.2815064,331.752091 83.8895064,331.416091 C84.4975064,331.080091 84.9401731,330.608091 85.2175064,330.000091 C85.2495064,330.330758 85.2655064,330.634758 85.2655064,330.912091 C85.2655064,332.405424 84.9135064,333.544091 84.2095064,334.328091 C83.5055064,335.112091 82.5348397,335.504091 81.2975064,335.504091 C80.3801731,335.504091 79.6548397,335.328091 79.1215064,334.976091 L79.1215064,334.976091 L78.6575064,335.904091 C79.3188397,336.309424 80.2041731,336.512091 81.3135064,336.512091 Z M81.9695064,330.944091 C81.1055064,330.944091 80.4201731,330.725424 79.9135064,330.288091 C79.4068397,329.850758 79.1535064,329.264091 79.1535064,328.528091 C79.1535064,327.792091 79.4068397,327.202758 79.9135064,326.760091 C80.4201731,326.317424 81.0788397,326.096091 81.8895064,326.096091 C82.5081731,326.096091 83.0415064,326.208091 83.4895064,326.432091 C83.9375064,326.656091 84.2761731,326.949424 84.5055064,327.312091 C84.7348397,327.674758 84.8495064,328.069424 84.8495064,328.496091 C84.8495064,328.954758 84.7268397,329.370758 84.4815064,329.744091 C84.2361731,330.117424 83.8975064,330.410758 83.4655064,330.624091 C83.0335064,330.837424 82.5348397,330.944091 81.9695064,330.944091 Z M91.0575064,336.512091 C92.0815064,336.512091 92.9775064,336.290758 93.7455064,335.848091 C94.5135064,335.405424 95.1108397,334.752091 95.5375064,333.888091 C95.9641731,333.024091 96.1775064,331.968091 96.1775064,330.720091 C96.1775064,328.938758 95.7828397,327.560091 94.9935064,326.584091 C94.2041731,325.608091 93.0681731,325.120091 91.5855064,325.120091 C90.8601731,325.120091 90.2068397,325.261424 89.6255064,325.544091 C89.0441731,325.826758 88.5881731,326.229424 88.2575064,326.752091 C87.9268397,327.274758 87.7615064,327.877424 87.7615064,328.560091 C87.7615064,329.232091 87.9215064,329.821424 88.2415064,330.328091 C88.5615064,330.834758 89.0068397,331.226758 89.5775064,331.504091 C90.1481731,331.781424 90.8015064,331.920091 91.5375064,331.920091 C92.3268397,331.920091 93.0255064,331.752091 93.6335064,331.416091 C94.2415064,331.080091 94.6841731,330.608091 94.9615064,330.000091 C94.9935064,330.330758 95.0095064,330.634758 95.0095064,330.912091 C95.0095064,332.405424 94.6575064,333.544091 93.9535064,334.328091 C93.2495064,335.112091 92.2788397,335.504091 91.0415064,335.504091 C90.1241731,335.504091 89.3988397,335.328091 88.8655064,334.976091 L88.8655064,334.976091 L88.4015064,335.904091 C89.0628397,336.309424 89.9481731,336.512091 91.0575064,336.512091 Z M91.7135064,330.944091 C90.8495064,330.944091 90.1641731,330.725424 89.6575064,330.288091 C89.1508397,329.850758 88.8975064,329.264091 88.8975064,328.528091 C88.8975064,327.792091 89.1508397,327.202758 89.6575064,326.760091 C90.1641731,326.317424 90.8228397,326.096091 91.6335064,326.096091 C92.2521731,326.096091 92.7855064,326.208091 93.2335064,326.432091 C93.6815064,326.656091 94.0201731,326.949424 94.2495064,327.312091 C94.4788397,327.674758 94.5935064,328.069424 94.5935064,328.496091 C94.5935064,328.954758 94.4708397,329.370758 94.2255064,329.744091 C93.9801731,330.117424 93.6415064,330.410758 93.2095064,330.624091 C92.7775064,330.837424 92.2788397,330.944091 91.7135064,330.944091 Z M101.057506,336.416091 L105.745506,326.032091 L105.745506,325.216091 L97.5215064,325.216091 L97.5215064,328.336091 L98.6575064,328.336091 L98.6575064,326.240091 L104.417506,326.240091 L99.8095064,336.416091 L101.057506,336.416091 Z M111.585506,332.576091 L111.585506,331.584091 L107.393506,331.584091 L107.393506,332.576091 L111.585506,332.576091 Z M116.337506,336.512091 C117.361506,336.512091 118.257506,336.290758 119.025506,335.848091 C119.793506,335.405424 120.39084,334.752091 120.817506,333.888091 C121.244173,333.024091 121.457506,331.968091 121.457506,330.720091 C121.457506,328.938758 121.06284,327.560091 120.273506,326.584091 C119.484173,325.608091 118.348173,325.120091 116.865506,325.120091 C116.140173,325.120091 115.48684,325.261424 114.905506,325.544091 C114.324173,325.826758 113.868173,326.229424 113.537506,326.752091 C113.20684,327.274758 113.041506,327.877424 113.041506,328.560091 C113.041506,329.232091 113.201506,329.821424 113.521506,330.328091 C113.841506,330.834758 114.28684,331.226758 114.857506,331.504091 C115.428173,331.781424 116.081506,331.920091 116.817506,331.920091 C117.60684,331.920091 118.305506,331.752091 118.913506,331.416091 C119.521506,331.080091 119.964173,330.608091 120.241506,330.000091 C120.273506,330.330758 120.289506,330.634758 120.289506,330.912091 C120.289506,332.405424 119.937506,333.544091 119.233506,334.328091 C118.529506,335.112091 117.55884,335.504091 116.321506,335.504091 C115.404173,335.504091 114.67884,335.328091 114.145506,334.976091 L114.145506,334.976091 L113.681506,335.904091 C114.34284,336.309424 115.228173,336.512091 116.337506,336.512091 Z M116.993506,330.944091 C116.129506,330.944091 115.444173,330.725424 114.937506,330.288091 C114.43084,329.850758 114.177506,329.264091 114.177506,328.528091 C114.177506,327.792091 114.43084,327.202758 114.937506,326.760091 C115.444173,326.317424 116.10284,326.096091 116.913506,326.096091 C117.532173,326.096091 118.065506,326.208091 118.513506,326.432091 C118.961506,326.656091 119.300173,326.949424 119.529506,327.312091 C119.75884,327.674758 119.873506,328.069424 119.873506,328.496091 C119.873506,328.954758 119.75084,329.370758 119.505506,329.744091 C119.260173,330.117424 118.921506,330.410758 118.489506,330.624091 C118.057506,330.837424 117.55884,330.944091 116.993506,330.944091 Z M127.377506,336.512091 C128.26284,336.512091 129.033506,336.381424 129.689506,336.120091 C130.345506,335.858758 130.849506,335.485424 131.201506,335.000091 C131.553506,334.514758 131.729506,333.946758 131.729506,333.296091 C131.729506,332.634758 131.540173,332.069424 131.161506,331.600091 C130.78284,331.130758 130.241506,330.778758 129.537506,330.544091 C130.113506,330.320091 130.556173,329.997424 130.865506,329.576091 C131.17484,329.154758 131.329506,328.656091 131.329506,328.080091 C131.329506,327.482758 131.164173,326.960091 130.833506,326.512091 C130.50284,326.064091 130.041506,325.720091 129.449506,325.480091 C128.857506,325.240091 128.16684,325.120091 127.377506,325.120091 C126.18284,325.120091 125.23084,325.386758 124.521506,325.920091 C123.812173,326.453424 123.457506,327.173424 123.457506,328.080091 C123.457506,328.656091 123.60684,329.154758 123.905506,329.576091 C124.204173,329.997424 124.641506,330.320091 125.217506,330.544091 C124.513506,330.778758 123.977506,331.128091 123.609506,331.592091 C123.241506,332.056091 123.057506,332.624091 123.057506,333.296091 C123.057506,334.288091 123.441506,335.072091 124.209506,335.648091 C124.977506,336.224091 126.033506,336.512091 127.377506,336.512091 Z M127.377506,330.128091 C126.513506,330.128091 125.836173,329.946758 125.345506,329.584091 C124.85484,329.221424 124.609506,328.730758 124.609506,328.112091 C124.609506,327.493424 124.857506,327.002758 125.353506,326.640091 C125.849506,326.277424 126.524173,326.096091 127.377506,326.096091 C128.220173,326.096091 128.89484,326.277424 129.401506,326.640091 C129.908173,327.002758 130.161506,327.498758 130.161506,328.128091 C130.161506,328.736091 129.913506,329.221424 129.417506,329.584091 C128.921506,329.946758 128.241506,330.128091 127.377506,330.128091 Z M127.377506,335.536091 C126.385506,335.536091 125.612173,335.336091 125.057506,334.936091 C124.50284,334.536091 124.225506,333.984091 124.225506,333.280091 C124.225506,332.586758 124.505506,332.040091 125.065506,331.640091 C125.625506,331.240091 126.396173,331.040091 127.377506,331.040091 C128.369506,331.040091 129.145506,331.240091 129.705506,331.640091 C130.265506,332.040091 130.545506,332.586758 130.545506,333.280091 C130.545506,333.973424 130.265506,334.522758 129.705506,334.928091 C129.145506,335.333424 128.369506,335.536091 127.377506,335.536091 Z" id="1997-98" fill="#2D3142" fill-rule="nonzero" transform="translate(101.809506, 330.816091) rotate(-45.000000) translate(-101.809506, -330.816091) "></path>
                        <path d="M116.553714,336.416091 L116.553714,335.392091 L110.393714,335.392091 L114.201714,331.648091 C114.916381,330.954758 115.401714,330.341424 115.657714,329.808091 C115.913714,329.274758 116.041714,328.720091 116.041714,328.144091 C116.041714,327.205424 115.708381,326.466758 115.041714,325.928091 C114.375047,325.389424 113.471047,325.120091 112.329714,325.120091 C111.476381,325.120091 110.711047,325.258758 110.033714,325.536091 C109.356381,325.813424 108.799047,326.208091 108.361714,326.720091 L108.361714,326.720091 L109.177714,327.424091 C109.903047,326.592091 110.921714,326.176091 112.233714,326.176091 C113.076381,326.176091 113.724381,326.360091 114.177714,326.728091 C114.631047,327.096091 114.857714,327.610758 114.857714,328.272091 C114.857714,328.698758 114.753714,329.122758 114.545714,329.544091 C114.337714,329.965424 113.940381,330.464091 113.353714,331.040091 L113.353714,331.040091 L108.697714,335.600091 L108.697714,336.416091 L116.553714,336.416091 Z M122.457714,336.512091 C123.321714,336.512091 124.092381,336.282758 124.769714,335.824091 C125.447047,335.365424 125.977714,334.706758 126.361714,333.848091 C126.745714,332.989424 126.937714,331.978758 126.937714,330.816091 C126.937714,329.653424 126.745714,328.642758 126.361714,327.784091 C125.977714,326.925424 125.447047,326.266758 124.769714,325.808091 C124.092381,325.349424 123.321714,325.120091 122.457714,325.120091 C121.593714,325.120091 120.823047,325.349424 120.145714,325.808091 C119.468381,326.266758 118.940381,326.925424 118.561714,327.784091 C118.183047,328.642758 117.993714,329.653424 117.993714,330.816091 C117.993714,331.978758 118.183047,332.989424 118.561714,333.848091 C118.940381,334.706758 119.468381,335.365424 120.145714,335.824091 C120.823047,336.282758 121.593714,336.512091 122.457714,336.512091 Z M122.457714,335.456091 C121.807047,335.456091 121.233714,335.274758 120.737714,334.912091 C120.241714,334.549424 119.855047,334.021424 119.577714,333.328091 C119.300381,332.634758 119.161714,331.797424 119.161714,330.816091 C119.161714,329.834758 119.300381,328.997424 119.577714,328.304091 C119.855047,327.610758 120.241714,327.082758 120.737714,326.720091 C121.233714,326.357424 121.807047,326.176091 122.457714,326.176091 C123.108381,326.176091 123.681714,326.357424 124.177714,326.720091 C124.673714,327.082758 125.060381,327.610758 125.337714,328.304091 C125.615047,328.997424 125.753714,329.834758 125.753714,330.816091 C125.753714,331.797424 125.615047,332.634758 125.337714,333.328091 C125.060381,334.021424 124.673714,334.549424 124.177714,334.912091 C123.681714,335.274758 123.108381,335.456091 122.457714,335.456091 Z M133.049714,336.512091 C133.913714,336.512091 134.684381,336.282758 135.361714,335.824091 C136.039047,335.365424 136.569714,334.706758 136.953714,333.848091 C137.337714,332.989424 137.529714,331.978758 137.529714,330.816091 C137.529714,329.653424 137.337714,328.642758 136.953714,327.784091 C136.569714,326.925424 136.039047,326.266758 135.361714,325.808091 C134.684381,325.349424 133.913714,325.120091 133.049714,325.120091 C132.185714,325.120091 131.415047,325.349424 130.737714,325.808091 C130.060381,326.266758 129.532381,326.925424 129.153714,327.784091 C128.775047,328.642758 128.585714,329.653424 128.585714,330.816091 C128.585714,331.978758 128.775047,332.989424 129.153714,333.848091 C129.532381,334.706758 130.060381,335.365424 130.737714,335.824091 C131.415047,336.282758 132.185714,336.512091 133.049714,336.512091 Z M133.049714,335.456091 C132.399047,335.456091 131.825714,335.274758 131.329714,334.912091 C130.833714,334.549424 130.447047,334.021424 130.169714,333.328091 C129.892381,332.634758 129.753714,331.797424 129.753714,330.816091 C129.753714,329.834758 129.892381,328.997424 130.169714,328.304091 C130.447047,327.610758 130.833714,327.082758 131.329714,326.720091 C131.825714,326.357424 132.399047,326.176091 133.049714,326.176091 C133.700381,326.176091 134.273714,326.357424 134.769714,326.720091 C135.265714,327.082758 135.652381,327.610758 135.929714,328.304091 C136.207047,328.997424 136.345714,329.834758 136.345714,330.816091 C136.345714,331.797424 136.207047,332.634758 135.929714,333.328091 C135.652381,334.021424 135.265714,334.549424 134.769714,334.912091 C134.273714,335.274758 133.700381,335.456091 133.049714,335.456091 Z M142.281714,336.416091 L142.281714,325.216091 L138.489714,325.216091 L138.489714,326.240091 L141.129714,326.240091 L141.129714,336.416091 L142.281714,336.416091 Z M149.273714,332.576091 L149.273714,331.584091 L145.081714,331.584091 L145.081714,332.576091 L149.273714,332.576091 Z M155.529714,336.512091 C156.393714,336.512091 157.164381,336.282758 157.841714,335.824091 C158.519047,335.365424 159.049714,334.706758 159.433714,333.848091 C159.817714,332.989424 160.009714,331.978758 160.009714,330.816091 C160.009714,329.653424 159.817714,328.642758 159.433714,327.784091 C159.049714,326.925424 158.519047,326.266758 157.841714,325.808091 C157.164381,325.349424 156.393714,325.120091 155.529714,325.120091 C154.665714,325.120091 153.895047,325.349424 153.217714,325.808091 C152.540381,326.266758 152.012381,326.925424 151.633714,327.784091 C151.255047,328.642758 151.065714,329.653424 151.065714,330.816091 C151.065714,331.978758 151.255047,332.989424 151.633714,333.848091 C152.012381,334.706758 152.540381,335.365424 153.217714,335.824091 C153.895047,336.282758 154.665714,336.512091 155.529714,336.512091 Z M155.529714,335.456091 C154.879047,335.456091 154.305714,335.274758 153.809714,334.912091 C153.313714,334.549424 152.927047,334.021424 152.649714,333.328091 C152.372381,332.634758 152.233714,331.797424 152.233714,330.816091 C152.233714,329.834758 152.372381,328.997424 152.649714,328.304091 C152.927047,327.610758 153.313714,327.082758 153.809714,326.720091 C154.305714,326.357424 154.879047,326.176091 155.529714,326.176091 C156.180381,326.176091 156.753714,326.357424 157.249714,326.720091 C157.745714,327.082758 158.132381,327.610758 158.409714,328.304091 C158.687047,328.997424 158.825714,329.834758 158.825714,330.816091 C158.825714,331.797424 158.687047,332.634758 158.409714,333.328091 C158.132381,334.021424 157.745714,334.549424 157.249714,334.912091 C156.753714,335.274758 156.180381,335.456091 155.529714,335.456091 Z M169.305714,336.416091 L169.305714,335.392091 L163.145714,335.392091 L166.953714,331.648091 C167.668381,330.954758 168.153714,330.341424 168.409714,329.808091 C168.665714,329.274758 168.793714,328.720091 168.793714,328.144091 C168.793714,327.205424 168.460381,326.466758 167.793714,325.928091 C167.127047,325.389424 166.223047,325.120091 165.081714,325.120091 C164.228381,325.120091 163.463047,325.258758 162.785714,325.536091 C162.108381,325.813424 161.551047,326.208091 161.113714,326.720091 L161.113714,326.720091 L161.929714,327.424091 C162.655047,326.592091 163.673714,326.176091 164.985714,326.176091 C165.828381,326.176091 166.476381,326.360091 166.929714,326.728091 C167.383047,327.096091 167.609714,327.610758 167.609714,328.272091 C167.609714,328.698758 167.505714,329.122758 167.297714,329.544091 C167.089714,329.965424 166.692381,330.464091 166.105714,331.040091 L166.105714,331.040091 L161.449714,335.600091 L161.449714,336.416091 L169.305714,336.416091 Z" id="2001-02" fill="#2D3142" fill-rule="nonzero" transform="translate(138.833714, 330.816091) rotate(-45.000000) translate(-138.833714, -330.816091) "></path>
                        <path d="M150.033922,336.416091 L150.033922,335.392091 L143.873922,335.392091 L147.681922,331.648091 C148.396588,330.954758 148.881922,330.341424 149.137922,329.808091 C149.393922,329.274758 149.521922,328.720091 149.521922,328.144091 C149.521922,327.205424 149.188588,326.466758 148.521922,325.928091 C147.855255,325.389424 146.951255,325.120091 145.809922,325.120091 C144.956588,325.120091 144.191255,325.258758 143.513922,325.536091 C142.836588,325.813424 142.279255,326.208091 141.841922,326.720091 L141.841922,326.720091 L142.657922,327.424091 C143.383255,326.592091 144.401922,326.176091 145.713922,326.176091 C146.556588,326.176091 147.204588,326.360091 147.657922,326.728091 C148.111255,327.096091 148.337922,327.610758 148.337922,328.272091 C148.337922,328.698758 148.233922,329.122758 148.025922,329.544091 C147.817922,329.965424 147.420588,330.464091 146.833922,331.040091 L146.833922,331.040091 L142.177922,335.600091 L142.177922,336.416091 L150.033922,336.416091 Z M155.937922,336.512091 C156.801922,336.512091 157.572588,336.282758 158.249922,335.824091 C158.927255,335.365424 159.457922,334.706758 159.841922,333.848091 C160.225922,332.989424 160.417922,331.978758 160.417922,330.816091 C160.417922,329.653424 160.225922,328.642758 159.841922,327.784091 C159.457922,326.925424 158.927255,326.266758 158.249922,325.808091 C157.572588,325.349424 156.801922,325.120091 155.937922,325.120091 C155.073922,325.120091 154.303255,325.349424 153.625922,325.808091 C152.948588,326.266758 152.420588,326.925424 152.041922,327.784091 C151.663255,328.642758 151.473922,329.653424 151.473922,330.816091 C151.473922,331.978758 151.663255,332.989424 152.041922,333.848091 C152.420588,334.706758 152.948588,335.365424 153.625922,335.824091 C154.303255,336.282758 155.073922,336.512091 155.937922,336.512091 Z M155.937922,335.456091 C155.287255,335.456091 154.713922,335.274758 154.217922,334.912091 C153.721922,334.549424 153.335255,334.021424 153.057922,333.328091 C152.780588,332.634758 152.641922,331.797424 152.641922,330.816091 C152.641922,329.834758 152.780588,328.997424 153.057922,328.304091 C153.335255,327.610758 153.721922,327.082758 154.217922,326.720091 C154.713922,326.357424 155.287255,326.176091 155.937922,326.176091 C156.588588,326.176091 157.161922,326.357424 157.657922,326.720091 C158.153922,327.082758 158.540588,327.610758 158.817922,328.304091 C159.095255,328.997424 159.233922,329.834758 159.233922,330.816091 C159.233922,331.797424 159.095255,332.634758 158.817922,333.328091 C158.540588,334.021424 158.153922,334.549424 157.657922,334.912091 C157.161922,335.274758 156.588588,335.456091 155.937922,335.456091 Z M166.529922,336.512091 C167.393922,336.512091 168.164588,336.282758 168.841922,335.824091 C169.519255,335.365424 170.049922,334.706758 170.433922,333.848091 C170.817922,332.989424 171.009922,331.978758 171.009922,330.816091 C171.009922,329.653424 170.817922,328.642758 170.433922,327.784091 C170.049922,326.925424 169.519255,326.266758 168.841922,325.808091 C168.164588,325.349424 167.393922,325.120091 166.529922,325.120091 C165.665922,325.120091 164.895255,325.349424 164.217922,325.808091 C163.540588,326.266758 163.012588,326.925424 162.633922,327.784091 C162.255255,328.642758 162.065922,329.653424 162.065922,330.816091 C162.065922,331.978758 162.255255,332.989424 162.633922,333.848091 C163.012588,334.706758 163.540588,335.365424 164.217922,335.824091 C164.895255,336.282758 165.665922,336.512091 166.529922,336.512091 Z M166.529922,335.456091 C165.879255,335.456091 165.305922,335.274758 164.809922,334.912091 C164.313922,334.549424 163.927255,334.021424 163.649922,333.328091 C163.372588,332.634758 163.233922,331.797424 163.233922,330.816091 C163.233922,329.834758 163.372588,328.997424 163.649922,328.304091 C163.927255,327.610758 164.313922,327.082758 164.809922,326.720091 C165.305922,326.357424 165.879255,326.176091 166.529922,326.176091 C167.180588,326.176091 167.753922,326.357424 168.249922,326.720091 C168.745922,327.082758 169.132588,327.610758 169.409922,328.304091 C169.687255,328.997424 169.825922,329.834758 169.825922,330.816091 C169.825922,331.797424 169.687255,332.634758 169.409922,333.328091 C169.132588,334.021424 168.745922,334.549424 168.249922,334.912091 C167.753922,335.274758 167.180588,335.456091 166.529922,335.456091 Z M176.193922,336.512091 C177.079255,336.512091 177.825922,336.365424 178.433922,336.072091 C179.041922,335.778758 179.497922,335.376091 179.801922,334.864091 C180.105922,334.352091 180.257922,333.770758 180.257922,333.120091 C180.257922,332.074758 179.887255,331.261424 179.145922,330.680091 C178.404588,330.098758 177.223255,329.808091 175.601922,329.808091 L175.601922,329.808091 L174.161922,329.808091 L174.545922,326.240091 L179.665922,326.240091 L179.665922,325.216091 L173.537922,325.216091 L172.961922,330.832091 L175.345922,330.832091 C176.700588,330.832091 177.663255,331.029424 178.233922,331.424091 C178.804588,331.818758 179.089922,332.400091 179.089922,333.168091 C179.089922,333.861424 178.836588,334.416091 178.329922,334.832091 C177.823255,335.248091 177.105922,335.456091 176.177922,335.456091 C175.473922,335.456091 174.817922,335.336091 174.209922,335.096091 C173.601922,334.856091 173.111255,334.544091 172.737922,334.160091 L172.737922,334.160091 L172.177922,335.072091 C172.615255,335.509424 173.193922,335.858758 173.913922,336.120091 C174.633922,336.381424 175.393922,336.512091 176.193922,336.512091 Z M186.033922,332.576091 L186.033922,331.584091 L181.841922,331.584091 L181.841922,332.576091 L186.033922,332.576091 Z M192.289922,336.512091 C193.153922,336.512091 193.924588,336.282758 194.601922,335.824091 C195.279255,335.365424 195.809922,334.706758 196.193922,333.848091 C196.577922,332.989424 196.769922,331.978758 196.769922,330.816091 C196.769922,329.653424 196.577922,328.642758 196.193922,327.784091 C195.809922,326.925424 195.279255,326.266758 194.601922,325.808091 C193.924588,325.349424 193.153922,325.120091 192.289922,325.120091 C191.425922,325.120091 190.655255,325.349424 189.977922,325.808091 C189.300588,326.266758 188.772588,326.925424 188.393922,327.784091 C188.015255,328.642758 187.825922,329.653424 187.825922,330.816091 C187.825922,331.978758 188.015255,332.989424 188.393922,333.848091 C188.772588,334.706758 189.300588,335.365424 189.977922,335.824091 C190.655255,336.282758 191.425922,336.512091 192.289922,336.512091 Z M192.289922,335.456091 C191.639255,335.456091 191.065922,335.274758 190.569922,334.912091 C190.073922,334.549424 189.687255,334.021424 189.409922,333.328091 C189.132588,332.634758 188.993922,331.797424 188.993922,330.816091 C188.993922,329.834758 189.132588,328.997424 189.409922,328.304091 C189.687255,327.610758 190.073922,327.082758 190.569922,326.720091 C191.065922,326.357424 191.639255,326.176091 192.289922,326.176091 C192.940588,326.176091 193.513922,326.357424 194.009922,326.720091 C194.505922,327.082758 194.892588,327.610758 195.169922,328.304091 C195.447255,328.997424 195.585922,329.834758 195.585922,330.816091 C195.585922,331.797424 195.447255,332.634758 195.169922,333.328091 C194.892588,334.021424 194.505922,334.549424 194.009922,334.912091 C193.513922,335.274758 192.940588,335.456091 192.289922,335.456091 Z M203.009922,336.512091 C203.735255,336.512091 204.388588,336.370758 204.969922,336.088091 C205.551255,335.805424 206.007255,335.402758 206.337922,334.880091 C206.668588,334.357424 206.833922,333.754758 206.833922,333.072091 C206.833922,332.400091 206.673922,331.810758 206.353922,331.304091 C206.033922,330.797424 205.588588,330.405424 205.017922,330.128091 C204.447255,329.850758 203.793922,329.712091 203.057922,329.712091 C202.268588,329.712091 201.569922,329.880091 200.961922,330.216091 C200.353922,330.552091 199.911255,331.024091 199.633922,331.632091 C199.601922,331.290758 199.585922,330.986758 199.585922,330.720091 C199.585922,329.226758 199.937922,328.088091 200.641922,327.304091 C201.345922,326.520091 202.316588,326.128091 203.553922,326.128091 C204.471255,326.128091 205.196588,326.304091 205.729922,326.656091 L205.729922,326.656091 L206.193922,325.728091 C205.532588,325.322758 204.647255,325.120091 203.537922,325.120091 C202.513922,325.120091 201.617922,325.341424 200.849922,325.784091 C200.081922,326.226758 199.484588,326.880091 199.057922,327.744091 C198.631255,328.608091 198.417922,329.664091 198.417922,330.912091 C198.417922,332.693424 198.812588,334.072091 199.601922,335.048091 C200.391255,336.024091 201.527255,336.512091 203.009922,336.512091 Z M202.961922,335.536091 C202.343255,335.536091 201.809922,335.424091 201.361922,335.200091 C200.913922,334.976091 200.575255,334.682758 200.345922,334.320091 C200.116588,333.957424 200.001922,333.562758 200.001922,333.136091 C200.001922,332.677424 200.124588,332.261424 200.369922,331.888091 C200.615255,331.514758 200.953922,331.221424 201.385922,331.008091 C201.817922,330.794758 202.316588,330.688091 202.881922,330.688091 C203.745922,330.688091 204.431255,330.906758 204.937922,331.344091 C205.444588,331.781424 205.697922,332.368091 205.697922,333.104091 C205.697922,333.840091 205.444588,334.429424 204.937922,334.872091 C204.431255,335.314758 203.772588,335.536091 202.961922,335.536091 Z" id="2005-06" fill="#2D3142" fill-rule="nonzero" transform="translate(174.337922, 330.816091) rotate(-45.000000) translate(-174.337922, -330.816091) "></path>
                        <path d="M190.730129,336.416091 L190.730129,335.392091 L184.570129,335.392091 L188.378129,331.648091 C189.092796,330.954758 189.578129,330.341424 189.834129,329.808091 C190.090129,329.274758 190.218129,328.720091 190.218129,328.144091 C190.218129,327.205424 189.884796,326.466758 189.218129,325.928091 C188.551463,325.389424 187.647463,325.120091 186.506129,325.120091 C185.652796,325.120091 184.887463,325.258758 184.210129,325.536091 C183.532796,325.813424 182.975463,326.208091 182.538129,326.720091 L182.538129,326.720091 L183.354129,327.424091 C184.079463,326.592091 185.098129,326.176091 186.410129,326.176091 C187.252796,326.176091 187.900796,326.360091 188.354129,326.728091 C188.807463,327.096091 189.034129,327.610758 189.034129,328.272091 C189.034129,328.698758 188.930129,329.122758 188.722129,329.544091 C188.514129,329.965424 188.116796,330.464091 187.530129,331.040091 L187.530129,331.040091 L182.874129,335.600091 L182.874129,336.416091 L190.730129,336.416091 Z M196.634129,336.512091 C197.498129,336.512091 198.268796,336.282758 198.946129,335.824091 C199.623463,335.365424 200.154129,334.706758 200.538129,333.848091 C200.922129,332.989424 201.114129,331.978758 201.114129,330.816091 C201.114129,329.653424 200.922129,328.642758 200.538129,327.784091 C200.154129,326.925424 199.623463,326.266758 198.946129,325.808091 C198.268796,325.349424 197.498129,325.120091 196.634129,325.120091 C195.770129,325.120091 194.999463,325.349424 194.322129,325.808091 C193.644796,326.266758 193.116796,326.925424 192.738129,327.784091 C192.359463,328.642758 192.170129,329.653424 192.170129,330.816091 C192.170129,331.978758 192.359463,332.989424 192.738129,333.848091 C193.116796,334.706758 193.644796,335.365424 194.322129,335.824091 C194.999463,336.282758 195.770129,336.512091 196.634129,336.512091 Z M196.634129,335.456091 C195.983463,335.456091 195.410129,335.274758 194.914129,334.912091 C194.418129,334.549424 194.031463,334.021424 193.754129,333.328091 C193.476796,332.634758 193.338129,331.797424 193.338129,330.816091 C193.338129,329.834758 193.476796,328.997424 193.754129,328.304091 C194.031463,327.610758 194.418129,327.082758 194.914129,326.720091 C195.410129,326.357424 195.983463,326.176091 196.634129,326.176091 C197.284796,326.176091 197.858129,326.357424 198.354129,326.720091 C198.850129,327.082758 199.236796,327.610758 199.514129,328.304091 C199.791463,328.997424 199.930129,329.834758 199.930129,330.816091 C199.930129,331.797424 199.791463,332.634758 199.514129,333.328091 C199.236796,334.021424 198.850129,334.549424 198.354129,334.912091 C197.858129,335.274758 197.284796,335.456091 196.634129,335.456091 Z M207.226129,336.512091 C208.090129,336.512091 208.860796,336.282758 209.538129,335.824091 C210.215463,335.365424 210.746129,334.706758 211.130129,333.848091 C211.514129,332.989424 211.706129,331.978758 211.706129,330.816091 C211.706129,329.653424 211.514129,328.642758 211.130129,327.784091 C210.746129,326.925424 210.215463,326.266758 209.538129,325.808091 C208.860796,325.349424 208.090129,325.120091 207.226129,325.120091 C206.362129,325.120091 205.591463,325.349424 204.914129,325.808091 C204.236796,326.266758 203.708796,326.925424 203.330129,327.784091 C202.951463,328.642758 202.762129,329.653424 202.762129,330.816091 C202.762129,331.978758 202.951463,332.989424 203.330129,333.848091 C203.708796,334.706758 204.236796,335.365424 204.914129,335.824091 C205.591463,336.282758 206.362129,336.512091 207.226129,336.512091 Z M207.226129,335.456091 C206.575463,335.456091 206.002129,335.274758 205.506129,334.912091 C205.010129,334.549424 204.623463,334.021424 204.346129,333.328091 C204.068796,332.634758 203.930129,331.797424 203.930129,330.816091 C203.930129,329.834758 204.068796,328.997424 204.346129,328.304091 C204.623463,327.610758 205.010129,327.082758 205.506129,326.720091 C206.002129,326.357424 206.575463,326.176091 207.226129,326.176091 C207.876796,326.176091 208.450129,326.357424 208.946129,326.720091 C209.442129,327.082758 209.828796,327.610758 210.106129,328.304091 C210.383463,328.997424 210.522129,329.834758 210.522129,330.816091 C210.522129,331.797424 210.383463,332.634758 210.106129,333.328091 C209.828796,334.021424 209.442129,334.549424 208.946129,334.912091 C208.450129,335.274758 207.876796,335.456091 207.226129,335.456091 Z M216.314129,336.512091 C217.338129,336.512091 218.234129,336.290758 219.002129,335.848091 C219.770129,335.405424 220.367463,334.752091 220.794129,333.888091 C221.220796,333.024091 221.434129,331.968091 221.434129,330.720091 C221.434129,328.938758 221.039463,327.560091 220.250129,326.584091 C219.460796,325.608091 218.324796,325.120091 216.842129,325.120091 C216.116796,325.120091 215.463463,325.261424 214.882129,325.544091 C214.300796,325.826758 213.844796,326.229424 213.514129,326.752091 C213.183463,327.274758 213.018129,327.877424 213.018129,328.560091 C213.018129,329.232091 213.178129,329.821424 213.498129,330.328091 C213.818129,330.834758 214.263463,331.226758 214.834129,331.504091 C215.404796,331.781424 216.058129,331.920091 216.794129,331.920091 C217.583463,331.920091 218.282129,331.752091 218.890129,331.416091 C219.498129,331.080091 219.940796,330.608091 220.218129,330.000091 C220.250129,330.330758 220.266129,330.634758 220.266129,330.912091 C220.266129,332.405424 219.914129,333.544091 219.210129,334.328091 C218.506129,335.112091 217.535463,335.504091 216.298129,335.504091 C215.380796,335.504091 214.655463,335.328091 214.122129,334.976091 L214.122129,334.976091 L213.658129,335.904091 C214.319463,336.309424 215.204796,336.512091 216.314129,336.512091 Z M216.970129,330.944091 C216.106129,330.944091 215.420796,330.725424 214.914129,330.288091 C214.407463,329.850758 214.154129,329.264091 214.154129,328.528091 C214.154129,327.792091 214.407463,327.202758 214.914129,326.760091 C215.420796,326.317424 216.079463,326.096091 216.890129,326.096091 C217.508796,326.096091 218.042129,326.208091 218.490129,326.432091 C218.938129,326.656091 219.276796,326.949424 219.506129,327.312091 C219.735463,327.674758 219.850129,328.069424 219.850129,328.496091 C219.850129,328.954758 219.727463,329.370758 219.482129,329.744091 C219.236796,330.117424 218.898129,330.410758 218.466129,330.624091 C218.034129,330.837424 217.535463,330.944091 216.970129,330.944091 Z M227.418129,332.576091 L227.418129,331.584091 L223.226129,331.584091 L223.226129,332.576091 L227.418129,332.576091 Z M232.314129,336.416091 L232.314129,325.216091 L228.522129,325.216091 L228.522129,326.240091 L231.162129,326.240091 L231.162129,336.416091 L232.314129,336.416091 Z M239.450129,336.512091 C240.314129,336.512091 241.084796,336.282758 241.762129,335.824091 C242.439463,335.365424 242.970129,334.706758 243.354129,333.848091 C243.738129,332.989424 243.930129,331.978758 243.930129,330.816091 C243.930129,329.653424 243.738129,328.642758 243.354129,327.784091 C242.970129,326.925424 242.439463,326.266758 241.762129,325.808091 C241.084796,325.349424 240.314129,325.120091 239.450129,325.120091 C238.586129,325.120091 237.815463,325.349424 237.138129,325.808091 C236.460796,326.266758 235.932796,326.925424 235.554129,327.784091 C235.175463,328.642758 234.986129,329.653424 234.986129,330.816091 C234.986129,331.978758 235.175463,332.989424 235.554129,333.848091 C235.932796,334.706758 236.460796,335.365424 237.138129,335.824091 C237.815463,336.282758 238.586129,336.512091 239.450129,336.512091 Z M239.450129,335.456091 C238.799463,335.456091 238.226129,335.274758 237.730129,334.912091 C237.234129,334.549424 236.847463,334.021424 236.570129,333.328091 C236.292796,332.634758 236.154129,331.797424 236.154129,330.816091 C236.154129,329.834758 236.292796,328.997424 236.570129,328.304091 C236.847463,327.610758 237.234129,327.082758 237.730129,326.720091 C238.226129,326.357424 238.799463,326.176091 239.450129,326.176091 C240.100796,326.176091 240.674129,326.357424 241.170129,326.720091 C241.666129,327.082758 242.052796,327.610758 242.330129,328.304091 C242.607463,328.997424 242.746129,329.834758 242.746129,330.816091 C242.746129,331.797424 242.607463,332.634758 242.330129,333.328091 C242.052796,334.021424 241.666129,334.549424 241.170129,334.912091 C240.674129,335.274758 240.100796,335.456091 239.450129,335.456091 Z" id="2009-10" fill="#2D3142" fill-rule="nonzero" transform="translate(213.234129, 330.816091) rotate(-45.000000) translate(-213.234129, -330.816091) "></path>
                        <path d="M22.2927149,292.000603 L22.2927149,291.104603 L16.8047149,291.104603 L16.8047149,287.450603 L20.6827149,287.450603 L20.6827149,286.750603 L16.8047149,286.750603 L16.8047149,285.574603 C16.8047149,284.753269 17.0380482,284.125603 17.5047149,283.691603 C17.9713816,283.257603 18.6667149,283.040603 19.5907149,283.040603 C20.6453816,283.040603 21.4807149,283.264603 22.0967149,283.712603 L22.0967149,283.712603 L22.4747149,282.858603 C21.7560482,282.363936 20.8227149,282.116603 19.6747149,282.116603 C18.4240482,282.116603 17.4627149,282.426936 16.7907149,283.047603 C16.1187149,283.668269 15.7827149,284.510603 15.7827149,285.574603 L15.7827149,285.574603 L15.7827149,286.750603 L14.2007149,286.750603 L14.2007149,287.450603 L15.7827149,287.450603 L15.7827149,291.104603 L14.2007149,291.104603 L14.2007149,292.000603 L22.2927149,292.000603 Z M27.3327149,292.084603 C28.0887149,292.084603 28.7630482,291.883936 29.3557149,291.482603 C29.9483816,291.081269 30.4127149,290.504936 30.7487149,289.753603 C31.0847149,289.002269 31.2527149,288.117936 31.2527149,287.100603 C31.2527149,286.083269 31.0847149,285.198936 30.7487149,284.447603 C30.4127149,283.696269 29.9483816,283.119936 29.3557149,282.718603 C28.7630482,282.317269 28.0887149,282.116603 27.3327149,282.116603 C26.5767149,282.116603 25.9023816,282.317269 25.3097149,282.718603 C24.7170482,283.119936 24.2550482,283.696269 23.9237149,284.447603 C23.5923816,285.198936 23.4267149,286.083269 23.4267149,287.100603 C23.4267149,288.117936 23.5923816,289.002269 23.9237149,289.753603 C24.2550482,290.504936 24.7170482,291.081269 25.3097149,291.482603 C25.9023816,291.883936 26.5767149,292.084603 27.3327149,292.084603 Z M27.3327149,291.160603 C26.7633816,291.160603 26.2617149,291.001936 25.8277149,290.684603 C25.3937149,290.367269 25.0553816,289.905269 24.8127149,289.298603 C24.5700482,288.691936 24.4487149,287.959269 24.4487149,287.100603 C24.4487149,286.241936 24.5700482,285.509269 24.8127149,284.902603 C25.0553816,284.295936 25.3937149,283.833936 25.8277149,283.516603 C26.2617149,283.199269 26.7633816,283.040603 27.3327149,283.040603 C27.9020482,283.040603 28.4037149,283.199269 28.8377149,283.516603 C29.2717149,283.833936 29.6100482,284.295936 29.8527149,284.902603 C30.0953816,285.509269 30.2167149,286.241936 30.2167149,287.100603 C30.2167149,287.959269 30.0953816,288.691936 29.8527149,289.298603 C29.6100482,289.905269 29.2717149,290.367269 28.8377149,290.684603 C28.4037149,291.001936 27.9020482,291.160603 27.3327149,291.160603 Z" id="0" fill="#2D3142" fill-rule="nonzero"></path>
                        <path d="M15.2282121,239.388 L15.2282121,238.492 L9.74021214,238.492 L9.74021214,234.838 L13.6182121,234.838 L13.6182121,234.138 L9.74021214,234.138 L9.74021214,232.962 C9.74021214,232.140667 9.97354547,231.513 10.4402121,231.079 C10.9068788,230.645 11.6022121,230.428 12.5262121,230.428 C13.5808788,230.428 14.4162121,230.652 15.0322121,231.1 L15.0322121,231.1 L15.4102121,230.246 C14.6915455,229.751333 13.7582121,229.504 12.6102121,229.504 C11.3595455,229.504 10.3982121,229.814333 9.72621214,230.435 C9.05421214,231.055667 8.71821214,231.898 8.71821214,232.962 L8.71821214,232.962 L8.71821214,234.138 L7.13621214,234.138 L7.13621214,234.838 L8.71821214,234.838 L8.71821214,238.492 L7.13621214,238.492 L7.13621214,239.388 L15.2282121,239.388 Z M23.0542121,239.388 L23.0542121,238.492 L17.6642121,238.492 L20.9962121,235.216 C21.6215455,234.609333 22.0462121,234.072667 22.2702121,233.606 C22.4942121,233.139333 22.6062121,232.654 22.6062121,232.15 C22.6062121,231.328667 22.3145455,230.682333 21.7312121,230.211 C21.1478788,229.739667 20.3568788,229.504 19.3582121,229.504 C18.6115455,229.504 17.9418788,229.625333 17.3492121,229.868 C16.7565455,230.110667 16.2688788,230.456 15.8862121,230.904 L15.8862121,230.904 L16.6002121,231.52 C17.2348788,230.792 18.1262121,230.428 19.2742121,230.428 C20.0115455,230.428 20.5785455,230.589 20.9752121,230.911 C21.3718788,231.233 21.5702121,231.683333 21.5702121,232.262 C21.5702121,232.635333 21.4792121,233.006333 21.2972121,233.375 C21.1152121,233.743667 20.7675455,234.18 20.2542121,234.684 L20.2542121,234.684 L16.1802121,238.674 L16.1802121,239.388 L23.0542121,239.388 Z M25.9662121,239.388 L25.9662121,237.288 L27.7022121,235.692 L30.6702121,239.388 L31.8882121,239.388 L28.4442121,235.034 L31.5942121,232.024 L30.3622121,232.024 L25.9662121,236.042 L25.9662121,229 L24.9722121,229 L24.9722121,239.388 L25.9662121,239.388 Z" id="2k" fill="#2D3142" fill-rule="nonzero"></path>
                        <path d="M13.9262121,182.388 L13.9262121,181.492 L8.43821214,181.492 L8.43821214,177.838 L12.3162121,177.838 L12.3162121,177.138 L8.43821214,177.138 L8.43821214,175.962 C8.43821214,175.140667 8.67154547,174.513 9.13821214,174.079 C9.60487881,173.645 10.3002121,173.428 11.2242121,173.428 C12.2788788,173.428 13.1142121,173.652 13.7302121,174.1 L13.7302121,174.1 L14.1082121,173.246 C13.3895455,172.751333 12.4562121,172.504 11.3082121,172.504 C10.0575455,172.504 9.09621214,172.814333 8.42421214,173.435 C7.75221214,174.055667 7.41621214,174.898 7.41621214,175.962 L7.41621214,175.962 L7.41621214,177.138 L5.83421214,177.138 L5.83421214,177.838 L7.41621214,177.838 L7.41621214,181.492 L5.83421214,181.492 L5.83421214,182.388 L13.9262121,182.388 Z M21.4302121,182.388 L21.4302121,179.812 L23.3902121,179.812 L23.3902121,178.916 L21.4302121,178.916 L21.4302121,176.648 L20.4502121,176.648 L20.4502121,178.916 L16.1942121,178.916 L21.2062121,172.588 L20.0862121,172.588 L14.8922121,179.084 L14.8922121,179.812 L20.4222121,179.812 L20.4222121,182.388 L21.4302121,182.388 Z M25.9662121,182.388 L25.9662121,180.288 L27.7022121,178.692 L30.6702121,182.388 L31.8882121,182.388 L28.4442121,178.034 L31.5942121,175.024 L30.3622121,175.024 L25.9662121,179.042 L25.9662121,172 L24.9722121,172 L24.9722121,182.388 L25.9662121,182.388 Z" id="4k" fill="#2D3142" fill-rule="nonzero"></path>
                        <path d="M14.6542121,125.388 L14.6542121,124.492 L9.16621214,124.492 L9.16621214,120.838 L13.0442121,120.838 L13.0442121,120.138 L9.16621214,120.138 L9.16621214,118.962 C9.16621214,118.140667 9.39954547,117.513 9.86621214,117.079 C10.3328788,116.645 11.0282121,116.428 11.9522121,116.428 C13.0068788,116.428 13.8422121,116.652 14.4582121,117.1 L14.4582121,117.1 L14.8362121,116.246 C14.1175455,115.751333 13.1842121,115.504 12.0362121,115.504 C10.7855455,115.504 9.82421214,115.814333 9.15221214,116.435 C8.48021214,117.055667 8.14421214,117.898 8.14421214,118.962 L8.14421214,118.962 L8.14421214,120.138 L6.56221214,120.138 L6.56221214,120.838 L8.14421214,120.838 L8.14421214,124.492 L6.56221214,124.492 L6.56221214,125.388 L14.6542121,125.388 Z M19.8062121,125.472 C20.4408788,125.472 21.0125455,125.348333 21.5212121,125.101 C22.0298788,124.853667 22.4288788,124.501333 22.7182121,124.044 C23.0075455,123.586667 23.1522121,123.059333 23.1522121,122.462 C23.1522121,121.874 23.0122121,121.358333 22.7322121,120.915 C22.4522121,120.471667 22.0625455,120.128667 21.5632121,119.886 C21.0638788,119.643333 20.4922121,119.522 19.8482121,119.522 C19.1575455,119.522 18.5462121,119.669 18.0142121,119.963 C17.4822121,120.257 17.0948788,120.67 16.8522121,121.202 C16.8242121,120.903333 16.8102121,120.637333 16.8102121,120.404 C16.8102121,119.097333 17.1182121,118.101 17.7342121,117.415 C18.3502121,116.729 19.1995455,116.386 20.2822121,116.386 C21.0848788,116.386 21.7195455,116.54 22.1862121,116.848 L22.1862121,116.848 L22.5922121,116.036 C22.0135455,115.681333 21.2388788,115.504 20.2682121,115.504 C19.3722121,115.504 18.5882121,115.697667 17.9162121,116.085 C17.2442121,116.472333 16.7215455,117.044 16.3482121,117.8 C15.9748788,118.556 15.7882121,119.48 15.7882121,120.572 C15.7882121,122.130667 16.1335455,123.337 16.8242121,124.191 C17.5148788,125.045 18.5088788,125.472 19.8062121,125.472 Z M19.7642121,124.618 C19.2228788,124.618 18.7562121,124.52 18.3642121,124.324 C17.9722121,124.128 17.6758788,123.871333 17.4752121,123.554 C17.2745455,123.236667 17.1742121,122.891333 17.1742121,122.518 C17.1742121,122.116667 17.2815455,121.752667 17.4962121,121.426 C17.7108788,121.099333 18.0072121,120.842667 18.3852121,120.656 C18.7632121,120.469333 19.1995455,120.376 19.6942121,120.376 C20.4502121,120.376 21.0498788,120.567333 21.4932121,120.95 C21.9365455,121.332667 22.1582121,121.846 22.1582121,122.49 C22.1582121,123.134 21.9365455,123.649667 21.4932121,124.037 C21.0498788,124.424333 20.4735455,124.618 19.7642121,124.618 Z M25.9662121,125.388 L25.9662121,123.288 L27.7022121,121.692 L30.6702121,125.388 L31.8882121,125.388 L28.4442121,121.034 L31.5942121,118.024 L30.3622121,118.024 L25.9662121,122.042 L25.9662121,115 L24.9722121,115 L24.9722121,125.388 L25.9662121,125.388 Z" id="6k" fill="#2D3142" fill-rule="nonzero"></path>
                        <path d="M14.2482121,69.388 L14.2482121,68.492 L8.76021214,68.492 L8.76021214,64.838 L12.6382121,64.838 L12.6382121,64.138 L8.76021214,64.138 L8.76021214,62.962 C8.76021214,62.1406667 8.99354547,61.513 9.46021214,61.079 C9.92687881,60.645 10.6222121,60.428 11.5462121,60.428 C12.6008788,60.428 13.4362121,60.652 14.0522121,61.1 L14.0522121,61.1 L14.4302121,60.246 C13.7115455,59.7513333 12.7782121,59.504 11.6302121,59.504 C10.3795455,59.504 9.41821214,59.8143333 8.74621214,60.435 C8.07421214,61.0556667 7.73821214,61.898 7.73821214,62.962 L7.73821214,62.962 L7.73821214,64.138 L6.15621214,64.138 L6.15621214,64.838 L7.73821214,64.838 L7.73821214,68.492 L6.15621214,68.492 L6.15621214,69.388 L14.2482121,69.388 Z M19.1062121,69.472 C19.8808788,69.472 20.5552121,69.3576667 21.1292121,69.129 C21.7032121,68.9003333 22.1442121,68.5736667 22.4522121,68.149 C22.7602121,67.7243333 22.9142121,67.2273333 22.9142121,66.658 C22.9142121,66.0793333 22.7485455,65.5846667 22.4172121,65.174 C22.0858788,64.7633333 21.6122121,64.4553333 20.9962121,64.25 C21.5002121,64.054 21.8875455,63.7716667 22.1582121,63.403 C22.4288788,63.0343333 22.5642121,62.598 22.5642121,62.094 C22.5642121,61.5713333 22.4195455,61.114 22.1302121,60.722 C21.8408788,60.33 21.4372121,60.029 20.9192121,59.819 C20.4012121,59.609 19.7968788,59.504 19.1062121,59.504 C18.0608788,59.504 17.2278788,59.7373333 16.6072121,60.204 C15.9865455,60.6706667 15.6762121,61.3006667 15.6762121,62.094 C15.6762121,62.598 15.8068788,63.0343333 16.0682121,63.403 C16.3295455,63.7716667 16.7122121,64.054 17.2162121,64.25 C16.6002121,64.4553333 16.1312121,64.761 15.8092121,65.167 C15.4872121,65.573 15.3262121,66.07 15.3262121,66.658 C15.3262121,67.526 15.6622121,68.212 16.3342121,68.716 C17.0062121,69.22 17.9302121,69.472 19.1062121,69.472 Z M19.1062121,63.886 C18.3502121,63.886 17.7575455,63.7273333 17.3282121,63.41 C16.8988788,63.0926667 16.6842121,62.6633333 16.6842121,62.122 C16.6842121,61.5806667 16.9012121,61.1513333 17.3352121,60.834 C17.7692121,60.5166667 18.3595455,60.358 19.1062121,60.358 C19.8435455,60.358 20.4338788,60.5166667 20.8772121,60.834 C21.3205455,61.1513333 21.5422121,61.5853333 21.5422121,62.136 C21.5422121,62.668 21.3252121,63.0926667 20.8912121,63.41 C20.4572121,63.7273333 19.8622121,63.886 19.1062121,63.886 Z M19.1062121,68.618 C18.2382121,68.618 17.5615455,68.443 17.0762121,68.093 C16.5908788,67.743 16.3482121,67.26 16.3482121,66.644 C16.3482121,66.0373333 16.5932121,65.559 17.0832121,65.209 C17.5732121,64.859 18.2475455,64.684 19.1062121,64.684 C19.9742121,64.684 20.6532121,64.859 21.1432121,65.209 C21.6332121,65.559 21.8782121,66.0373333 21.8782121,66.644 C21.8782121,67.2506667 21.6332121,67.7313333 21.1432121,68.086 C20.6532121,68.4406667 19.9742121,68.618 19.1062121,68.618 Z M25.9662121,69.388 L25.9662121,67.288 L27.7022121,65.692 L30.6702121,69.388 L31.8882121,69.388 L28.4442121,65.034 L31.5942121,62.024 L30.3622121,62.024 L25.9662121,66.042 L25.9662121,59 L24.9722121,59 L24.9722121,69.388 L25.9662121,69.388 Z" id="8k" fill="#2D3142" fill-rule="nonzero"></path>
                        <path d="M8.85821214,10.388 L8.85821214,9.492 L3.37021214,9.492 L3.37021214,5.838 L7.24821214,5.838 L7.24821214,5.138 L3.37021214,5.138 L3.37021214,3.962 C3.37021214,3.14066667 3.60354547,2.513 4.07021214,2.079 C4.53687881,1.645 5.23221214,1.428 6.15621214,1.428 C7.21087881,1.428 8.04621214,1.652 8.66221214,2.1 L8.66221214,2.1 L9.04021214,1.246 C8.32154547,0.751333333 7.38821214,0.504 6.24021214,0.504 C4.98954547,0.504 4.02821214,0.814333333 3.35621214,1.435 C2.68421214,2.05566667 2.34821214,2.898 2.34821214,3.962 L2.34821214,3.962 L2.34821214,5.138 L0.766212141,5.138 L0.766212141,5.838 L2.34821214,5.838 L2.34821214,9.492 L0.766212141,9.492 L0.766212141,10.388 L8.85821214,10.388 Z M12.7082121,10.388 L12.7082121,0.588 L9.39021214,0.588 L9.39021214,1.484 L11.7002121,1.484 L11.7002121,10.388 L12.7082121,10.388 Z M18.9522121,10.472 C19.7082121,10.472 20.3825455,10.2713333 20.9752121,9.87 C21.5678788,9.46866667 22.0322121,8.89233333 22.3682121,8.141 C22.7042121,7.38966667 22.8722121,6.50533333 22.8722121,5.488 C22.8722121,4.47066667 22.7042121,3.58633333 22.3682121,2.835 C22.0322121,2.08366667 21.5678788,1.50733333 20.9752121,1.106 C20.3825455,0.704666667 19.7082121,0.504 18.9522121,0.504 C18.1962121,0.504 17.5218788,0.704666667 16.9292121,1.106 C16.3365455,1.50733333 15.8745455,2.08366667 15.5432121,2.835 C15.2118788,3.58633333 15.0462121,4.47066667 15.0462121,5.488 C15.0462121,6.50533333 15.2118788,7.38966667 15.5432121,8.141 C15.8745455,8.89233333 16.3365455,9.46866667 16.9292121,9.87 C17.5218788,10.2713333 18.1962121,10.472 18.9522121,10.472 Z M18.9522121,9.548 C18.3828788,9.548 17.8812121,9.38933333 17.4472121,9.072 C17.0132121,8.75466667 16.6748788,8.29266667 16.4322121,7.686 C16.1895455,7.07933333 16.0682121,6.34666667 16.0682121,5.488 C16.0682121,4.62933333 16.1895455,3.89666667 16.4322121,3.29 C16.6748788,2.68333333 17.0132121,2.22133333 17.4472121,1.904 C17.8812121,1.58666667 18.3828788,1.428 18.9522121,1.428 C19.5215455,1.428 20.0232121,1.58666667 20.4572121,1.904 C20.8912121,2.22133333 21.2295455,2.68333333 21.4722121,3.29 C21.7148788,3.89666667 21.8362121,4.62933333 21.8362121,5.488 C21.8362121,6.34666667 21.7148788,7.07933333 21.4722121,7.686 C21.2295455,8.29266667 20.8912121,8.75466667 20.4572121,9.072 C20.0232121,9.38933333 19.5215455,9.548 18.9522121,9.548 Z M25.9662121,10.388 L25.9662121,8.288 L27.7022121,6.692 L30.6702121,10.388 L31.8882121,10.388 L28.4442121,6.034 L31.5942121,3.024 L30.3622121,3.024 L25.9662121,7.042 L25.9662121,0 L24.9722121,0 L24.9722121,10.388 L25.9662121,10.388 Z" id="10k" fill="#2D3142" fill-rule="nonzero"></path>
                    </g>
                    <text id="Mean-expenditure-per" transform="translate(175.500000, 20.000000) rotate(-360.000000) translate(-175.500000, -20.000000) " font-family="Montserrat-SemiBold, Montserrat" font-size="16" font-weight="500" line-spacing="20" fill="#2D3142">
                        <tspan x="0" y="15">Mean expenditure per pupil, 2019-20 </tspan>
                        <tspan x="0" y="35">prices</tspan>
                    </text>
                </g>
                <path d="M234.550655,384.769133 L234.550655,383.745133 L228.390655,383.745133 L232.198655,380.001133 C232.913322,379.307799 233.398655,378.694466 233.654655,378.161133 C233.910655,377.627799 234.038655,377.073133 234.038655,376.497133 C234.038655,375.558466 233.705322,374.819799 233.038655,374.281133 C232.371989,373.742466 231.467989,373.473133 230.326655,373.473133 C229.473322,373.473133 228.707989,373.611799 228.030655,373.889133 C227.353322,374.166466 226.795989,374.561133 226.358655,375.073133 L226.358655,375.073133 L227.174655,375.777133 C227.899989,374.945133 228.918655,374.529133 230.230655,374.529133 C231.073322,374.529133 231.721322,374.713133 232.174655,375.081133 C232.627989,375.449133 232.854655,375.963799 232.854655,376.625133 C232.854655,377.051799 232.750655,377.475799 232.542655,377.897133 C232.334655,378.318466 231.937322,378.817133 231.350655,379.393133 L231.350655,379.393133 L226.694655,383.953133 L226.694655,384.769133 L234.550655,384.769133 Z M240.454655,384.865133 C241.318655,384.865133 242.089322,384.635799 242.766655,384.177133 C243.443989,383.718466 243.974655,383.059799 244.358655,382.201133 C244.742655,381.342466 244.934655,380.331799 244.934655,379.169133 C244.934655,378.006466 244.742655,376.995799 244.358655,376.137133 C243.974655,375.278466 243.443989,374.619799 242.766655,374.161133 C242.089322,373.702466 241.318655,373.473133 240.454655,373.473133 C239.590655,373.473133 238.819989,373.702466 238.142655,374.161133 C237.465322,374.619799 236.937322,375.278466 236.558655,376.137133 C236.179989,376.995799 235.990655,378.006466 235.990655,379.169133 C235.990655,380.331799 236.179989,381.342466 236.558655,382.201133 C236.937322,383.059799 237.465322,383.718466 238.142655,384.177133 C238.819989,384.635799 239.590655,384.865133 240.454655,384.865133 Z M240.454655,383.809133 C239.803989,383.809133 239.230655,383.627799 238.734655,383.265133 C238.238655,382.902466 237.851989,382.374466 237.574655,381.681133 C237.297322,380.987799 237.158655,380.150466 237.158655,379.169133 C237.158655,378.187799 237.297322,377.350466 237.574655,376.657133 C237.851989,375.963799 238.238655,375.435799 238.734655,375.073133 C239.230655,374.710466 239.803989,374.529133 240.454655,374.529133 C241.105322,374.529133 241.678655,374.710466 242.174655,375.073133 C242.670655,375.435799 243.057322,375.963799 243.334655,376.657133 C243.611989,377.350466 243.750655,378.187799 243.750655,379.169133 C243.750655,380.150466 243.611989,380.987799 243.334655,381.681133 C243.057322,382.374466 242.670655,382.902466 242.174655,383.265133 C241.678655,383.627799 241.105322,383.809133 240.454655,383.809133 Z M249.686655,384.769133 L249.686655,373.569133 L245.894655,373.569133 L245.894655,374.593133 L248.534655,374.593133 L248.534655,384.769133 L249.686655,384.769133 Z M255.702655,384.865133 C256.577322,384.865133 257.318655,384.721133 257.926655,384.433133 C258.534655,384.145133 258.993322,383.753133 259.302655,383.257133 C259.611989,382.761133 259.766655,382.193133 259.766655,381.553133 C259.766655,380.635799 259.459989,379.891799 258.846655,379.321133 C258.233322,378.750466 257.339989,378.433133 256.166655,378.369133 L256.166655,378.369133 L259.334655,374.385133 L259.334655,373.569133 L252.134655,373.569133 L252.134655,374.593133 L257.862655,374.593133 L254.758655,378.481133 L254.758655,379.329133 L255.558655,379.329133 C256.571989,379.329133 257.329322,379.526466 257.830655,379.921133 C258.331989,380.315799 258.582655,380.859799 258.582655,381.553133 C258.582655,382.257133 258.331989,382.809133 257.830655,383.209133 C257.329322,383.609133 256.619989,383.809133 255.702655,383.809133 C254.998655,383.809133 254.337322,383.689133 253.718655,383.449133 C253.099989,383.209133 252.603989,382.897133 252.230655,382.513133 L252.230655,382.513133 L251.670655,383.425133 C252.107989,383.862466 252.686655,384.211799 253.406655,384.473133 C254.126655,384.734466 254.891989,384.865133 255.702655,384.865133 Z M265.702655,380.929133 L265.702655,379.937133 L261.510655,379.937133 L261.510655,380.929133 L265.702655,380.929133 Z M270.598655,384.769133 L270.598655,373.569133 L266.806655,373.569133 L266.806655,374.593133 L269.446655,374.593133 L269.446655,384.769133 L270.598655,384.769133 Z M280.550655,384.769133 L280.550655,381.825133 L282.790655,381.825133 L282.790655,380.801133 L280.550655,380.801133 L280.550655,378.209133 L279.430655,378.209133 L279.430655,380.801133 L274.566655,380.801133 L280.294655,373.569133 L279.014655,373.569133 L273.078655,380.993133 L273.078655,381.825133 L279.398655,381.825133 L279.398655,384.769133 L280.550655,384.769133 Z" id="2013-14" fill="#2D3142" fill-rule="nonzero" transform="translate(254.574655, 379.169133) rotate(-45.000000) translate(-254.574655, -379.169133) "></path>
                <path d="M267.527037,382.650882 L267.527037,381.626882 L261.367037,381.626882 L265.175037,377.882882 C265.889704,377.189549 266.375037,376.576216 266.631037,376.042882 C266.887037,375.509549 267.015037,374.954882 267.015037,374.378882 C267.015037,373.440216 266.681704,372.701549 266.015037,372.162882 C265.348371,371.624216 264.444371,371.354882 263.303037,371.354882 C262.449704,371.354882 261.684371,371.493549 261.007037,371.770882 C260.329704,372.048216 259.772371,372.442882 259.335037,372.954882 L259.335037,372.954882 L260.151037,373.658882 C260.876371,372.826882 261.895037,372.410882 263.207037,372.410882 C264.049704,372.410882 264.697704,372.594882 265.151037,372.962882 C265.604371,373.330882 265.831037,373.845549 265.831037,374.506882 C265.831037,374.933549 265.727037,375.357549 265.519037,375.778882 C265.311037,376.200216 264.913704,376.698882 264.327037,377.274882 L264.327037,377.274882 L259.671037,381.834882 L259.671037,382.650882 L267.527037,382.650882 Z M273.431037,382.746882 C274.295037,382.746882 275.065704,382.517549 275.743037,382.058882 C276.420371,381.600216 276.951037,380.941549 277.335037,380.082882 C277.719037,379.224216 277.911037,378.213549 277.911037,377.050882 C277.911037,375.888216 277.719037,374.877549 277.335037,374.018882 C276.951037,373.160216 276.420371,372.501549 275.743037,372.042882 C275.065704,371.584216 274.295037,371.354882 273.431037,371.354882 C272.567037,371.354882 271.796371,371.584216 271.119037,372.042882 C270.441704,372.501549 269.913704,373.160216 269.535037,374.018882 C269.156371,374.877549 268.967037,375.888216 268.967037,377.050882 C268.967037,378.213549 269.156371,379.224216 269.535037,380.082882 C269.913704,380.941549 270.441704,381.600216 271.119037,382.058882 C271.796371,382.517549 272.567037,382.746882 273.431037,382.746882 Z M273.431037,381.690882 C272.780371,381.690882 272.207037,381.509549 271.711037,381.146882 C271.215037,380.784216 270.828371,380.256216 270.551037,379.562882 C270.273704,378.869549 270.135037,378.032216 270.135037,377.050882 C270.135037,376.069549 270.273704,375.232216 270.551037,374.538882 C270.828371,373.845549 271.215037,373.317549 271.711037,372.954882 C272.207037,372.592216 272.780371,372.410882 273.431037,372.410882 C274.081704,372.410882 274.655037,372.592216 275.151037,372.954882 C275.647037,373.317549 276.033704,373.845549 276.311037,374.538882 C276.588371,375.232216 276.727037,376.069549 276.727037,377.050882 C276.727037,378.032216 276.588371,378.869549 276.311037,379.562882 C276.033704,380.256216 275.647037,380.784216 275.151037,381.146882 C274.655037,381.509549 274.081704,381.690882 273.431037,381.690882 Z M282.663037,382.650882 L282.663037,371.450882 L278.871037,371.450882 L278.871037,372.474882 L281.511037,372.474882 L281.511037,382.650882 L282.663037,382.650882 Z M288.551037,382.650882 L293.239037,372.266882 L293.239037,371.450882 L285.015037,371.450882 L285.015037,374.570882 L286.151037,374.570882 L286.151037,372.474882 L291.911037,372.474882 L287.303037,382.650882 L288.551037,382.650882 Z M299.079037,378.810882 L299.079037,377.818882 L294.887037,377.818882 L294.887037,378.810882 L299.079037,378.810882 Z M303.975037,382.650882 L303.975037,371.450882 L300.183037,371.450882 L300.183037,372.474882 L302.823037,372.474882 L302.823037,382.650882 L303.975037,382.650882 Z M310.903037,382.746882 C311.788371,382.746882 312.559037,382.616216 313.215037,382.354882 C313.871037,382.093549 314.375037,381.720216 314.727037,381.234882 C315.079037,380.749549 315.255037,380.181549 315.255037,379.530882 C315.255037,378.869549 315.065704,378.304216 314.687037,377.834882 C314.308371,377.365549 313.767037,377.013549 313.063037,376.778882 C313.639037,376.554882 314.081704,376.232216 314.391037,375.810882 C314.700371,375.389549 314.855037,374.890882 314.855037,374.314882 C314.855037,373.717549 314.689704,373.194882 314.359037,372.746882 C314.028371,372.298882 313.567037,371.954882 312.975037,371.714882 C312.383037,371.474882 311.692371,371.354882 310.903037,371.354882 C309.708371,371.354882 308.756371,371.621549 308.047037,372.154882 C307.337704,372.688216 306.983037,373.408216 306.983037,374.314882 C306.983037,374.890882 307.132371,375.389549 307.431037,375.810882 C307.729704,376.232216 308.167037,376.554882 308.743037,376.778882 C308.039037,377.013549 307.503037,377.362882 307.135037,377.826882 C306.767037,378.290882 306.583037,378.858882 306.583037,379.530882 C306.583037,380.522882 306.967037,381.306882 307.735037,381.882882 C308.503037,382.458882 309.559037,382.746882 310.903037,382.746882 Z M310.903037,376.362882 C310.039037,376.362882 309.361704,376.181549 308.871037,375.818882 C308.380371,375.456216 308.135037,374.965549 308.135037,374.346882 C308.135037,373.728216 308.383037,373.237549 308.879037,372.874882 C309.375037,372.512216 310.049704,372.330882 310.903037,372.330882 C311.745704,372.330882 312.420371,372.512216 312.927037,372.874882 C313.433704,373.237549 313.687037,373.733549 313.687037,374.362882 C313.687037,374.970882 313.439037,375.456216 312.943037,375.818882 C312.447037,376.181549 311.767037,376.362882 310.903037,376.362882 Z M310.903037,381.770882 C309.911037,381.770882 309.137704,381.570882 308.583037,381.170882 C308.028371,380.770882 307.751037,380.218882 307.751037,379.514882 C307.751037,378.821549 308.031037,378.274882 308.591037,377.874882 C309.151037,377.474882 309.921704,377.274882 310.903037,377.274882 C311.895037,377.274882 312.671037,377.474882 313.231037,377.874882 C313.791037,378.274882 314.071037,378.821549 314.071037,379.514882 C314.071037,380.208216 313.791037,380.757549 313.231037,381.162882 C312.671037,381.568216 311.895037,381.770882 310.903037,381.770882 Z" id="2017-18" fill="#2D3142" fill-rule="nonzero" transform="translate(287.295037, 377.050882) rotate(-45.000000) translate(-287.295037, -377.050882) "></path>
                <path d="M297.396828,382.650882 L297.396828,381.626882 L291.236828,381.626882 L295.044828,377.882882 C295.759494,377.189549 296.244828,376.576216 296.500828,376.042882 C296.756828,375.509549 296.884828,374.954882 296.884828,374.378882 C296.884828,373.440216 296.551494,372.701549 295.884828,372.162882 C295.218161,371.624216 294.314161,371.354882 293.172828,371.354882 C292.319494,371.354882 291.554161,371.493549 290.876828,371.770882 C290.199494,372.048216 289.642161,372.442882 289.204828,372.954882 L289.204828,372.954882 L290.020828,373.658882 C290.746161,372.826882 291.764828,372.410882 293.076828,372.410882 C293.919494,372.410882 294.567494,372.594882 295.020828,372.962882 C295.474161,373.330882 295.700828,373.845549 295.700828,374.506882 C295.700828,374.933549 295.596828,375.357549 295.388828,375.778882 C295.180828,376.200216 294.783494,376.698882 294.196828,377.274882 L294.196828,377.274882 L289.540828,381.834882 L289.540828,382.650882 L297.396828,382.650882 Z M303.300828,382.746882 C304.164828,382.746882 304.935494,382.517549 305.612828,382.058882 C306.290161,381.600216 306.820828,380.941549 307.204828,380.082882 C307.588828,379.224216 307.780828,378.213549 307.780828,377.050882 C307.780828,375.888216 307.588828,374.877549 307.204828,374.018882 C306.820828,373.160216 306.290161,372.501549 305.612828,372.042882 C304.935494,371.584216 304.164828,371.354882 303.300828,371.354882 C302.436828,371.354882 301.666161,371.584216 300.988828,372.042882 C300.311494,372.501549 299.783494,373.160216 299.404828,374.018882 C299.026161,374.877549 298.836828,375.888216 298.836828,377.050882 C298.836828,378.213549 299.026161,379.224216 299.404828,380.082882 C299.783494,380.941549 300.311494,381.600216 300.988828,382.058882 C301.666161,382.517549 302.436828,382.746882 303.300828,382.746882 Z M303.300828,381.690882 C302.650161,381.690882 302.076828,381.509549 301.580828,381.146882 C301.084828,380.784216 300.698161,380.256216 300.420828,379.562882 C300.143494,378.869549 300.004828,378.032216 300.004828,377.050882 C300.004828,376.069549 300.143494,375.232216 300.420828,374.538882 C300.698161,373.845549 301.084828,373.317549 301.580828,372.954882 C302.076828,372.592216 302.650161,372.410882 303.300828,372.410882 C303.951494,372.410882 304.524828,372.592216 305.020828,372.954882 C305.516828,373.317549 305.903494,373.845549 306.180828,374.538882 C306.458161,375.232216 306.596828,376.069549 306.596828,377.050882 C306.596828,378.032216 306.458161,378.869549 306.180828,379.562882 C305.903494,380.256216 305.516828,380.784216 305.020828,381.146882 C304.524828,381.509549 303.951494,381.690882 303.300828,381.690882 Z M312.532828,382.650882 L312.532828,371.450882 L308.740828,371.450882 L308.740828,372.474882 L311.380828,372.474882 L311.380828,382.650882 L312.532828,382.650882 Z M318.164828,382.746882 C319.188828,382.746882 320.084828,382.525549 320.852828,382.082882 C321.620828,381.640216 322.218161,380.986882 322.644828,380.122882 C323.071494,379.258882 323.284828,378.202882 323.284828,376.954882 C323.284828,375.173549 322.890161,373.794882 322.100828,372.818882 C321.311494,371.842882 320.175494,371.354882 318.692828,371.354882 C317.967494,371.354882 317.314161,371.496216 316.732828,371.778882 C316.151494,372.061549 315.695494,372.464216 315.364828,372.986882 C315.034161,373.509549 314.868828,374.112216 314.868828,374.794882 C314.868828,375.466882 315.028828,376.056216 315.348828,376.562882 C315.668828,377.069549 316.114161,377.461549 316.684828,377.738882 C317.255494,378.016216 317.908828,378.154882 318.644828,378.154882 C319.434161,378.154882 320.132828,377.986882 320.740828,377.650882 C321.348828,377.314882 321.791494,376.842882 322.068828,376.234882 C322.100828,376.565549 322.116828,376.869549 322.116828,377.146882 C322.116828,378.640216 321.764828,379.778882 321.060828,380.562882 C320.356828,381.346882 319.386161,381.738882 318.148828,381.738882 C317.231494,381.738882 316.506161,381.562882 315.972828,381.210882 L315.972828,381.210882 L315.508828,382.138882 C316.170161,382.544216 317.055494,382.746882 318.164828,382.746882 Z M318.820828,377.178882 C317.956828,377.178882 317.271494,376.960216 316.764828,376.522882 C316.258161,376.085549 316.004828,375.498882 316.004828,374.762882 C316.004828,374.026882 316.258161,373.437549 316.764828,372.994882 C317.271494,372.552216 317.930161,372.330882 318.740828,372.330882 C319.359494,372.330882 319.892828,372.442882 320.340828,372.666882 C320.788828,372.890882 321.127494,373.184216 321.356828,373.546882 C321.586161,373.909549 321.700828,374.304216 321.700828,374.730882 C321.700828,375.189549 321.578161,375.605549 321.332828,375.978882 C321.087494,376.352216 320.748828,376.645549 320.316828,376.858882 C319.884828,377.072216 319.386161,377.178882 318.820828,377.178882 Z M329.268828,378.810882 L329.268828,377.818882 L325.076828,377.818882 L325.076828,378.810882 L329.268828,378.810882 Z M338.708828,382.650882 L338.708828,381.626882 L332.548828,381.626882 L336.356828,377.882882 C337.071494,377.189549 337.556828,376.576216 337.812828,376.042882 C338.068828,375.509549 338.196828,374.954882 338.196828,374.378882 C338.196828,373.440216 337.863494,372.701549 337.196828,372.162882 C336.530161,371.624216 335.626161,371.354882 334.484828,371.354882 C333.631494,371.354882 332.866161,371.493549 332.188828,371.770882 C331.511494,372.048216 330.954161,372.442882 330.516828,372.954882 L330.516828,372.954882 L331.332828,373.658882 C332.058161,372.826882 333.076828,372.410882 334.388828,372.410882 C335.231494,372.410882 335.879494,372.594882 336.332828,372.962882 C336.786161,373.330882 337.012828,373.845549 337.012828,374.506882 C337.012828,374.933549 336.908828,375.357549 336.700828,375.778882 C336.492828,376.200216 336.095494,376.698882 335.508828,377.274882 L335.508828,377.274882 L330.852828,381.834882 L330.852828,382.650882 L338.708828,382.650882 Z M344.612828,382.746882 C345.476828,382.746882 346.247494,382.517549 346.924828,382.058882 C347.602161,381.600216 348.132828,380.941549 348.516828,380.082882 C348.900828,379.224216 349.092828,378.213549 349.092828,377.050882 C349.092828,375.888216 348.900828,374.877549 348.516828,374.018882 C348.132828,373.160216 347.602161,372.501549 346.924828,372.042882 C346.247494,371.584216 345.476828,371.354882 344.612828,371.354882 C343.748828,371.354882 342.978161,371.584216 342.300828,372.042882 C341.623494,372.501549 341.095494,373.160216 340.716828,374.018882 C340.338161,374.877549 340.148828,375.888216 340.148828,377.050882 C340.148828,378.213549 340.338161,379.224216 340.716828,380.082882 C341.095494,380.941549 341.623494,381.600216 342.300828,382.058882 C342.978161,382.517549 343.748828,382.746882 344.612828,382.746882 Z M344.612828,381.690882 C343.962161,381.690882 343.388828,381.509549 342.892828,381.146882 C342.396828,380.784216 342.010161,380.256216 341.732828,379.562882 C341.455494,378.869549 341.316828,378.032216 341.316828,377.050882 C341.316828,376.069549 341.455494,375.232216 341.732828,374.538882 C342.010161,373.845549 342.396828,373.317549 342.892828,372.954882 C343.388828,372.592216 343.962161,372.410882 344.612828,372.410882 C345.263494,372.410882 345.836828,372.592216 346.332828,372.954882 C346.828828,373.317549 347.215494,373.845549 347.492828,374.538882 C347.770161,375.232216 347.908828,376.069549 347.908828,377.050882 C347.908828,378.032216 347.770161,378.869549 347.492828,379.562882 C347.215494,380.256216 346.828828,380.784216 346.332828,381.146882 C345.836828,381.509549 345.263494,381.690882 344.612828,381.690882 Z" id="2019-20" fill="#2D3142" fill-rule="nonzero" transform="translate(319.148828, 377.050882) rotate(-45.000000) translate(-319.148828, -377.050882) "></path>
            </g>
        </g>
    </g>
</svg>