<?xml version="1.0" encoding="UTF-8"?>
<svg width="436px" height="433px" viewBox="0 0 436 433" version="1.1" xmlns="http://www.w3.org/2000/svg" xmlns:xlink="http://www.w3.org/1999/xlink">
    <title>Group 14</title>
    <g id="Home-&gt;-Issues-Chronology-&gt;-Timeline" stroke="none" stroke-width="1" fill="none" fill-rule="evenodd">
        <g id="Desktop/Timeline/Further-education/Post-16" transform="translate(-166.000000, -1855.000000)">
            <g id="Group-14" transform="translate(166.000000, 1855.000000)">
                <path d="M22.327,410 L22.327,408.848 L15.397,408.848 L19.681,404.636 C20.485,403.856 21.031,403.166 21.319,402.566 C21.607,401.966 21.751,401.342 21.751,400.694 C21.751,399.638 21.376,398.807 20.626,398.201 C19.876,397.595 18.859,397.292 17.575,397.292 C16.615,397.292 15.754,397.448 14.992,397.76 C14.23,398.072 13.603,398.516 13.111,399.092 L13.111,399.092 L14.029,399.884 C14.845,398.948 15.991,398.48 17.467,398.48 C18.415,398.48 19.144,398.687 19.654,399.101 C20.164,399.515 20.419,400.094 20.419,400.838 C20.419,401.318 20.302,401.795 20.068,402.269 C19.834,402.743 19.387,403.304 18.727,403.952 L18.727,403.952 L13.489,409.082 L13.489,410 L22.327,410 Z M28.969,410.108 C29.941,410.108 30.808,409.85 31.57,409.334 C32.332,408.818 32.929,408.077 33.361,407.111 C33.793,406.145 34.009,405.008 34.009,403.7 C34.009,402.392 33.793,401.255 33.361,400.289 C32.929,399.323 32.332,398.582 31.57,398.066 C30.808,397.55 29.941,397.292 28.969,397.292 C27.997,397.292 27.13,397.55 26.368,398.066 C25.606,398.582 25.012,399.323 24.586,400.289 C24.16,401.255 23.947,402.392 23.947,403.7 C23.947,405.008 24.16,406.145 24.586,407.111 C25.012,408.077 25.606,408.818 26.368,409.334 C27.13,409.85 27.997,410.108 28.969,410.108 Z M28.969,408.92 C28.237,408.92 27.592,408.716 27.034,408.308 C26.476,407.9 26.041,407.306 25.729,406.526 C25.417,405.746 25.261,404.804 25.261,403.7 C25.261,402.596 25.417,401.654 25.729,400.874 C26.041,400.094 26.476,399.5 27.034,399.092 C27.592,398.684 28.237,398.48 28.969,398.48 C29.701,398.48 30.346,398.684 30.904,399.092 C31.462,399.5 31.897,400.094 32.209,400.874 C32.521,401.654 32.677,402.596 32.677,403.7 C32.677,404.804 32.521,405.746 32.209,406.526 C31.897,407.306 31.462,407.9 30.904,408.308 C30.346,408.716 29.701,408.92 28.969,408.92 Z M39.355,410 L39.355,397.4 L35.089,397.4 L35.089,398.552 L38.059,398.552 L38.059,410 L39.355,410 Z M47.383,410.108 C48.355,410.108 49.222,409.85 49.984,409.334 C50.746,408.818 51.343,408.077 51.775,407.111 C52.207,406.145 52.423,405.008 52.423,403.7 C52.423,402.392 52.207,401.255 51.775,400.289 C51.343,399.323 50.746,398.582 49.984,398.066 C49.222,397.55 48.355,397.292 47.383,397.292 C46.411,397.292 45.544,397.55 44.782,398.066 C44.02,398.582 43.426,399.323 43,400.289 C42.574,401.255 42.361,402.392 42.361,403.7 C42.361,405.008 42.574,406.145 43,407.111 C43.426,408.077 44.02,408.818 44.782,409.334 C45.544,409.85 46.411,410.108 47.383,410.108 Z M47.383,408.92 C46.651,408.92 46.006,408.716 45.448,408.308 C44.89,407.9 44.455,407.306 44.143,406.526 C43.831,405.746 43.675,404.804 43.675,403.7 C43.675,402.596 43.831,401.654 44.143,400.874 C44.455,400.094 44.89,399.5 45.448,399.092 C46.006,398.684 46.651,398.48 47.383,398.48 C48.115,398.48 48.76,398.684 49.318,399.092 C49.876,399.5 50.311,400.094 50.623,400.874 C50.935,401.654 51.091,402.596 51.091,403.7 C51.091,404.804 50.935,405.746 50.623,406.526 C50.311,407.306 49.876,407.9 49.318,408.308 C48.76,408.716 48.115,408.92 47.383,408.92 Z M59.137,405.68 L59.137,404.564 L54.421,404.564 L54.421,405.68 L59.137,405.68 Z M64.645,410 L64.645,397.4 L60.379,397.4 L60.379,398.552 L63.349,398.552 L63.349,410 L64.645,410 Z M71.143,410 L71.143,397.4 L66.877,397.4 L66.877,398.552 L69.847,398.552 L69.847,410 L71.143,410 Z" id="2010-11" fill="#2D3142" fill-rule="nonzero" transform="translate(42.127000, 403.700000) rotate(-45.000000) translate(-42.127000, -403.700000) "></path>
                <path d="M6.042,370.108 C7.014,370.108 7.881,369.85 8.643,369.334 C9.405,368.818 10.002,368.077 10.434,367.111 C10.866,366.145 11.082,365.008 11.082,363.7 C11.082,362.392 10.866,361.255 10.434,360.289 C10.002,359.323 9.405,358.582 8.643,358.066 C7.881,357.55 7.014,357.292 6.042,357.292 C5.07,357.292 4.203,357.55 3.441,358.066 C2.679,358.582 2.085,359.323 1.659,360.289 C1.233,361.255 1.02,362.392 1.02,363.7 C1.02,365.008 1.233,366.145 1.659,367.111 C2.085,368.077 2.679,368.818 3.441,369.334 C4.203,369.85 5.07,370.108 6.042,370.108 Z M6.042,368.92 C5.31,368.92 4.665,368.716 4.107,368.308 C3.549,367.9 3.114,367.306 2.802,366.526 C2.49,365.746 2.334,364.804 2.334,363.7 C2.334,362.596 2.49,361.654 2.802,360.874 C3.114,360.094 3.549,359.5 4.107,359.092 C4.665,358.684 5.31,358.48 6.042,358.48 C6.774,358.48 7.419,358.684 7.977,359.092 C8.535,359.5 8.97,360.094 9.282,360.874 C9.594,361.654 9.75,362.596 9.75,363.7 C9.75,364.804 9.594,365.746 9.282,366.526 C8.97,367.306 8.535,367.9 7.977,368.308 C7.419,368.716 6.774,368.92 6.042,368.92 Z" id="0" fill="#2D3142" fill-rule="nonzero"></path>
                <polygon id="1" fill="#2D3142" fill-rule="nonzero" points="9.93 296 9.93 283.4 5.664 283.4 5.664 284.552 8.634 284.552 8.634 296"></polygon>
                <path d="M11.316,219 L11.316,217.848 L4.386,217.848 L8.67,213.636 C9.474,212.856 10.02,212.166 10.308,211.566 C10.596,210.966 10.74,210.342 10.74,209.694 C10.74,208.638 10.365,207.807 9.615,207.201 C8.865,206.595 7.848,206.292 6.564,206.292 C5.604,206.292 4.743,206.448 3.981,206.76 C3.219,207.072 2.592,207.516 2.1,208.092 L2.1,208.092 L3.018,208.884 C3.834,207.948 4.98,207.48 6.456,207.48 C7.404,207.48 8.133,207.687 8.643,208.101 C9.153,208.515 9.408,209.094 9.408,209.838 C9.408,210.318 9.291,210.795 9.057,211.269 C8.823,211.743 8.376,212.304 7.716,212.952 L7.716,212.952 L2.478,218.082 L2.478,219 L11.316,219 Z" id="2" fill="#2D3142" fill-rule="nonzero"></path>
                <path d="M6.546,138.108 C7.53,138.108 8.364,137.946 9.048,137.622 C9.732,137.298 10.248,136.857 10.596,136.299 C10.944,135.741 11.118,135.102 11.118,134.382 C11.118,133.35 10.773,132.513 10.083,131.871 C9.393,131.229 8.388,130.872 7.068,130.8 L7.068,130.8 L10.632,126.318 L10.632,125.4 L2.532,125.4 L2.532,126.552 L8.976,126.552 L5.484,130.926 L5.484,131.88 L6.384,131.88 C7.524,131.88 8.376,132.102 8.94,132.546 C9.504,132.99 9.786,133.602 9.786,134.382 C9.786,135.174 9.504,135.795 8.94,136.245 C8.376,136.695 7.578,136.92 6.546,136.92 C5.754,136.92 5.01,136.785 4.314,136.515 C3.618,136.245 3.06,135.894 2.64,135.462 L2.64,135.462 L2.01,136.488 C2.502,136.98 3.153,137.373 3.963,137.667 C4.773,137.961 5.634,138.108 6.546,138.108 Z" id="3" fill="#2D3142" fill-rule="nonzero"></path>
                <polygon id="4" fill="#2D3142" fill-rule="nonzero" points="9.228 58 9.228 54.688 11.748 54.688 11.748 53.536 9.228 53.536 9.228 50.62 7.968 50.62 7.968 53.536 2.496 53.536 8.94 45.4 7.5 45.4 0.822 53.752 0.822 54.688 7.932 54.688 7.932 58"></polygon>
                <path d="M2.924,14 L2.924,5.756 L7.064,12.56 L8.108,12.56 L12.248,5.648 L12.266,14 L14.48,14 L14.462,1.4 L12.536,1.4 L7.622,9.752 L2.618,1.4 L0.692,1.4 L0.692,14 L2.924,14 Z M18.8,2.804 C19.22,2.804 19.565,2.669 19.835,2.399 C20.105,2.129 20.24,1.796 20.24,1.4 C20.24,1.028 20.102,0.719 19.826,0.473 C19.55,0.227 19.208,0.104 18.8,0.104 C18.392,0.104 18.05,0.233 17.774,0.491 C17.498,0.749 17.36,1.07 17.36,1.454 C17.36,1.838 17.498,2.159 17.774,2.417 C18.05,2.675 18.392,2.804 18.8,2.804 Z M19.916,14 L19.916,4.388 L17.666,4.388 L17.666,14 L19.916,14 Z M25.118,14 L25.118,0.644 L22.868,0.644 L22.868,14 L25.118,14 Z M30.32,14 L30.32,0.644 L28.07,0.644 L28.07,14 L30.32,14 Z M34.406,2.804 C34.826,2.804 35.171,2.669 35.441,2.399 C35.711,2.129 35.846,1.796 35.846,1.4 C35.846,1.028 35.708,0.719 35.432,0.473 C35.156,0.227 34.814,0.104 34.406,0.104 C33.998,0.104 33.656,0.233 33.38,0.491 C33.104,0.749 32.966,1.07 32.966,1.454 C32.966,1.838 33.104,2.159 33.38,2.417 C33.656,2.675 33.998,2.804 34.406,2.804 Z M35.522,14 L35.522,4.388 L33.272,4.388 L33.272,14 L35.522,14 Z M42.794,14.126 C43.778,14.126 44.66,13.916 45.44,13.496 C46.22,13.076 46.829,12.491 47.267,11.741 C47.705,10.991 47.924,10.142 47.924,9.194 C47.924,8.246 47.705,7.4 47.267,6.656 C46.829,5.912 46.22,5.33 45.44,4.91 C44.66,4.49 43.778,4.28 42.794,4.28 C41.822,4.28 40.946,4.49 40.166,4.91 C39.386,5.33 38.777,5.912 38.339,6.656 C37.901,7.4 37.682,8.246 37.682,9.194 C37.682,10.142 37.901,10.991 38.339,11.741 C38.777,12.491 39.386,13.076 40.166,13.496 C40.946,13.916 41.822,14.126 42.794,14.126 Z M42.794,12.2 C41.966,12.2 41.285,11.924 40.751,11.372 C40.217,10.82 39.95,10.094 39.95,9.194 C39.95,8.294 40.217,7.568 40.751,7.016 C41.285,6.464 41.966,6.188 42.794,6.188 C43.622,6.188 44.306,6.464 44.846,7.016 C45.386,7.568 45.656,8.294 45.656,9.194 C45.656,10.094 45.386,10.82 44.846,11.372 C44.306,11.924 43.622,12.2 42.794,12.2 Z M52.334,14 L52.334,9.14 C52.334,8.204 52.574,7.487 53.054,6.989 C53.534,6.491 54.188,6.242 55.016,6.242 C55.748,6.242 56.312,6.455 56.708,6.881 C57.104,7.307 57.302,7.94 57.302,8.78 L57.302,8.78 L57.302,14 L59.552,14 L59.552,8.492 C59.552,7.1 59.186,6.05 58.454,5.342 C57.722,4.634 56.75,4.28 55.538,4.28 C54.83,4.28 54.194,4.394 53.63,4.622 C53.066,4.85 52.598,5.186 52.226,5.63 L52.226,5.63 L52.226,4.388 L50.084,4.388 L50.084,14 L52.334,14 Z M65.384,14.126 C66.728,14.126 67.79,13.856 68.57,13.316 C69.35,12.776 69.74,12.056 69.74,11.156 C69.74,10.472 69.563,9.944 69.209,9.572 C68.855,9.2 68.432,8.936 67.94,8.78 C67.448,8.624 66.818,8.486 66.05,8.366 C65.282,8.234 64.715,8.093 64.349,7.943 C63.983,7.793 63.8,7.538 63.8,7.178 C63.8,6.854 63.971,6.593 64.313,6.395 C64.655,6.197 65.156,6.098 65.816,6.098 C66.836,6.098 67.754,6.338 68.57,6.818 L68.57,6.818 L69.434,5.108 C69.014,4.856 68.474,4.655 67.814,4.505 C67.154,4.355 66.494,4.28 65.834,4.28 C64.538,4.28 63.509,4.553 62.747,5.099 C61.985,5.645 61.604,6.374 61.604,7.286 C61.604,7.982 61.787,8.525 62.153,8.915 C62.519,9.305 62.951,9.578 63.449,9.734 C63.947,9.89 64.592,10.028 65.384,10.148 C66.14,10.268 66.689,10.394 67.031,10.526 C67.373,10.658 67.544,10.892 67.544,11.228 C67.544,11.936 66.872,12.29 65.528,12.29 C64.94,12.29 64.343,12.203 63.737,12.029 C63.131,11.855 62.612,11.624 62.18,11.336 L62.18,11.336 L61.316,13.046 C61.76,13.358 62.354,13.616 63.098,13.82 C63.842,14.024 64.604,14.126 65.384,14.126 Z" id="Millions" fill="#2D3142" fill-rule="nonzero"></path>
                <path d="M110.173,410 L110.173,408.848 L103.243,408.848 L107.527,404.636 C108.331,403.856 108.877,403.166 109.165,402.566 C109.453,401.966 109.597,401.342 109.597,400.694 C109.597,399.638 109.222,398.807 108.472,398.201 C107.722,397.595 106.705,397.292 105.421,397.292 C104.461,397.292 103.6,397.448 102.838,397.76 C102.076,398.072 101.449,398.516 100.957,399.092 L100.957,399.092 L101.875,399.884 C102.691,398.948 103.837,398.48 105.313,398.48 C106.261,398.48 106.99,398.687 107.5,399.101 C108.01,399.515 108.265,400.094 108.265,400.838 C108.265,401.318 108.148,401.795 107.914,402.269 C107.68,402.743 107.233,403.304 106.573,403.952 L106.573,403.952 L101.335,409.082 L101.335,410 L110.173,410 Z M116.815,410.108 C117.787,410.108 118.654,409.85 119.416,409.334 C120.178,408.818 120.775,408.077 121.207,407.111 C121.639,406.145 121.855,405.008 121.855,403.7 C121.855,402.392 121.639,401.255 121.207,400.289 C120.775,399.323 120.178,398.582 119.416,398.066 C118.654,397.55 117.787,397.292 116.815,397.292 C115.843,397.292 114.976,397.55 114.214,398.066 C113.452,398.582 112.858,399.323 112.432,400.289 C112.006,401.255 111.793,402.392 111.793,403.7 C111.793,405.008 112.006,406.145 112.432,407.111 C112.858,408.077 113.452,408.818 114.214,409.334 C114.976,409.85 115.843,410.108 116.815,410.108 Z M116.815,408.92 C116.083,408.92 115.438,408.716 114.88,408.308 C114.322,407.9 113.887,407.306 113.575,406.526 C113.263,405.746 113.107,404.804 113.107,403.7 C113.107,402.596 113.263,401.654 113.575,400.874 C113.887,400.094 114.322,399.5 114.88,399.092 C115.438,398.684 116.083,398.48 116.815,398.48 C117.547,398.48 118.192,398.684 118.75,399.092 C119.308,399.5 119.743,400.094 120.055,400.874 C120.367,401.654 120.523,402.596 120.523,403.7 C120.523,404.804 120.367,405.746 120.055,406.526 C119.743,407.306 119.308,407.9 118.75,408.308 C118.192,408.716 117.547,408.92 116.815,408.92 Z M127.201,410 L127.201,397.4 L122.935,397.4 L122.935,398.552 L125.905,398.552 L125.905,410 L127.201,410 Z M133.699,410 L133.699,397.4 L129.433,397.4 L129.433,398.552 L132.403,398.552 L132.403,410 L133.699,410 Z M141.565,405.68 L141.565,404.564 L136.849,404.564 L136.849,405.68 L141.565,405.68 Z M147.073,410 L147.073,397.4 L142.807,397.4 L142.807,398.552 L145.777,398.552 L145.777,410 L147.073,410 Z M158.683,410 L158.683,408.848 L151.753,408.848 L156.037,404.636 C156.841,403.856 157.387,403.166 157.675,402.566 C157.963,401.966 158.107,401.342 158.107,400.694 C158.107,399.638 157.732,398.807 156.982,398.201 C156.232,397.595 155.215,397.292 153.931,397.292 C152.971,397.292 152.11,397.448 151.348,397.76 C150.586,398.072 149.959,398.516 149.467,399.092 L149.467,399.092 L150.385,399.884 C151.201,398.948 152.347,398.48 153.823,398.48 C154.771,398.48 155.5,398.687 156.01,399.101 C156.52,399.515 156.775,400.094 156.775,400.838 C156.775,401.318 156.658,401.795 156.424,402.269 C156.19,402.743 155.743,403.304 155.083,403.952 L155.083,403.952 L149.845,409.082 L149.845,410 L158.683,410 Z" id="2011-12" fill="#2D3142" fill-rule="nonzero" transform="translate(129.820000, 403.700000) rotate(-45.000000) translate(-129.820000, -403.700000) "></path>
                <path d="M194.346,412 L194.346,410.848 L187.416,410.848 L191.7,406.636 C192.504,405.856 193.05,405.166 193.338,404.566 C193.626,403.966 193.77,403.342 193.77,402.694 C193.77,401.638 193.395,400.807 192.645,400.201 C191.895,399.595 190.878,399.292 189.594,399.292 C188.634,399.292 187.773,399.448 187.011,399.76 C186.249,400.072 185.622,400.516 185.13,401.092 L185.13,401.092 L186.048,401.884 C186.864,400.948 188.01,400.48 189.486,400.48 C190.434,400.48 191.163,400.687 191.673,401.101 C192.183,401.515 192.438,402.094 192.438,402.838 C192.438,403.318 192.321,403.795 192.087,404.269 C191.853,404.743 191.406,405.304 190.746,405.952 L190.746,405.952 L185.508,411.082 L185.508,412 L194.346,412 Z M200.988,412.108 C201.96,412.108 202.827,411.85 203.589,411.334 C204.351,410.818 204.948,410.077 205.38,409.111 C205.812,408.145 206.028,407.008 206.028,405.7 C206.028,404.392 205.812,403.255 205.38,402.289 C204.948,401.323 204.351,400.582 203.589,400.066 C202.827,399.55 201.96,399.292 200.988,399.292 C200.016,399.292 199.149,399.55 198.387,400.066 C197.625,400.582 197.031,401.323 196.605,402.289 C196.179,403.255 195.966,404.392 195.966,405.7 C195.966,407.008 196.179,408.145 196.605,409.111 C197.031,410.077 197.625,410.818 198.387,411.334 C199.149,411.85 200.016,412.108 200.988,412.108 Z M200.988,410.92 C200.256,410.92 199.611,410.716 199.053,410.308 C198.495,409.9 198.06,409.306 197.748,408.526 C197.436,407.746 197.28,406.804 197.28,405.7 C197.28,404.596 197.436,403.654 197.748,402.874 C198.06,402.094 198.495,401.5 199.053,401.092 C199.611,400.684 200.256,400.48 200.988,400.48 C201.72,400.48 202.365,400.684 202.923,401.092 C203.481,401.5 203.916,402.094 204.228,402.874 C204.54,403.654 204.696,404.596 204.696,405.7 C204.696,406.804 204.54,407.746 204.228,408.526 C203.916,409.306 203.481,409.9 202.923,410.308 C202.365,410.716 201.72,410.92 200.988,410.92 Z M211.374,412 L211.374,399.4 L207.108,399.4 L207.108,400.552 L210.078,400.552 L210.078,412 L211.374,412 Z M222.984,412 L222.984,410.848 L216.054,410.848 L220.338,406.636 C221.142,405.856 221.688,405.166 221.976,404.566 C222.264,403.966 222.408,403.342 222.408,402.694 C222.408,401.638 222.033,400.807 221.283,400.201 C220.533,399.595 219.516,399.292 218.232,399.292 C217.272,399.292 216.411,399.448 215.649,399.76 C214.887,400.072 214.26,400.516 213.768,401.092 L213.768,401.092 L214.686,401.884 C215.502,400.948 216.648,400.48 218.124,400.48 C219.072,400.48 219.801,400.687 220.311,401.101 C220.821,401.515 221.076,402.094 221.076,402.838 C221.076,403.318 220.959,403.795 220.725,404.269 C220.491,404.743 220.044,405.304 219.384,405.952 L219.384,405.952 L214.146,411.082 L214.146,412 L222.984,412 Z M229.464,407.68 L229.464,406.564 L224.748,406.564 L224.748,407.68 L229.464,407.68 Z M234.972,412 L234.972,399.4 L230.706,399.4 L230.706,400.552 L233.676,400.552 L233.676,412 L234.972,412 Z M241.74,412.108 C242.724,412.108 243.558,411.946 244.242,411.622 C244.926,411.298 245.442,410.857 245.79,410.299 C246.138,409.741 246.312,409.102 246.312,408.382 C246.312,407.35 245.967,406.513 245.277,405.871 C244.587,405.229 243.582,404.872 242.262,404.8 L242.262,404.8 L245.826,400.318 L245.826,399.4 L237.726,399.4 L237.726,400.552 L244.17,400.552 L240.678,404.926 L240.678,405.88 L241.578,405.88 C242.718,405.88 243.57,406.102 244.134,406.546 C244.698,406.99 244.98,407.602 244.98,408.382 C244.98,409.174 244.698,409.795 244.134,410.245 C243.57,410.695 242.772,410.92 241.74,410.92 C240.948,410.92 240.204,410.785 239.508,410.515 C238.812,410.245 238.254,409.894 237.834,409.462 L237.834,409.462 L237.204,410.488 C237.696,410.98 238.347,411.373 239.157,411.667 C239.967,411.961 240.828,412.108 241.74,412.108 Z" id="2012-13" fill="#2D3142" fill-rule="nonzero" transform="translate(215.721000, 405.700000) rotate(-45.000000) translate(-215.721000, -405.700000) "></path>
                <path d="M281.509,412 L281.509,410.848 L274.579,410.848 L278.863,406.636 C279.667,405.856 280.213,405.166 280.501,404.566 C280.789,403.966 280.933,403.342 280.933,402.694 C280.933,401.638 280.558,400.807 279.808,400.201 C279.058,399.595 278.041,399.292 276.757,399.292 C275.797,399.292 274.936,399.448 274.174,399.76 C273.412,400.072 272.785,400.516 272.293,401.092 L272.293,401.092 L273.211,401.884 C274.027,400.948 275.173,400.48 276.649,400.48 C277.597,400.48 278.326,400.687 278.836,401.101 C279.346,401.515 279.601,402.094 279.601,402.838 C279.601,403.318 279.484,403.795 279.25,404.269 C279.016,404.743 278.569,405.304 277.909,405.952 L277.909,405.952 L272.671,411.082 L272.671,412 L281.509,412 Z M288.151,412.108 C289.123,412.108 289.99,411.85 290.752,411.334 C291.514,410.818 292.111,410.077 292.543,409.111 C292.975,408.145 293.191,407.008 293.191,405.7 C293.191,404.392 292.975,403.255 292.543,402.289 C292.111,401.323 291.514,400.582 290.752,400.066 C289.99,399.55 289.123,399.292 288.151,399.292 C287.179,399.292 286.312,399.55 285.55,400.066 C284.788,400.582 284.194,401.323 283.768,402.289 C283.342,403.255 283.129,404.392 283.129,405.7 C283.129,407.008 283.342,408.145 283.768,409.111 C284.194,410.077 284.788,410.818 285.55,411.334 C286.312,411.85 287.179,412.108 288.151,412.108 Z M288.151,410.92 C287.419,410.92 286.774,410.716 286.216,410.308 C285.658,409.9 285.223,409.306 284.911,408.526 C284.599,407.746 284.443,406.804 284.443,405.7 C284.443,404.596 284.599,403.654 284.911,402.874 C285.223,402.094 285.658,401.5 286.216,401.092 C286.774,400.684 287.419,400.48 288.151,400.48 C288.883,400.48 289.528,400.684 290.086,401.092 C290.644,401.5 291.079,402.094 291.391,402.874 C291.703,403.654 291.859,404.596 291.859,405.7 C291.859,406.804 291.703,407.746 291.391,408.526 C291.079,409.306 290.644,409.9 290.086,410.308 C289.528,410.716 288.883,410.92 288.151,410.92 Z M298.537,412 L298.537,399.4 L294.271,399.4 L294.271,400.552 L297.241,400.552 L297.241,412 L298.537,412 Z M305.305,412.108 C306.289,412.108 307.123,411.946 307.807,411.622 C308.491,411.298 309.007,410.857 309.355,410.299 C309.703,409.741 309.877,409.102 309.877,408.382 C309.877,407.35 309.532,406.513 308.842,405.871 C308.152,405.229 307.147,404.872 305.827,404.8 L305.827,404.8 L309.391,400.318 L309.391,399.4 L301.291,399.4 L301.291,400.552 L307.735,400.552 L304.243,404.926 L304.243,405.88 L305.143,405.88 C306.283,405.88 307.135,406.102 307.699,406.546 C308.263,406.99 308.545,407.602 308.545,408.382 C308.545,409.174 308.263,409.795 307.699,410.245 C307.135,410.695 306.337,410.92 305.305,410.92 C304.513,410.92 303.769,410.785 303.073,410.515 C302.377,410.245 301.819,409.894 301.399,409.462 L301.399,409.462 L300.769,410.488 C301.261,410.98 301.912,411.373 302.722,411.667 C303.532,411.961 304.393,412.108 305.305,412.108 Z M316.555,407.68 L316.555,406.564 L311.839,406.564 L311.839,407.68 L316.555,407.68 Z M322.063,412 L322.063,399.4 L317.797,399.4 L317.797,400.552 L320.767,400.552 L320.767,412 L322.063,412 Z M333.259,412 L333.259,408.688 L335.779,408.688 L335.779,407.536 L333.259,407.536 L333.259,404.62 L331.999,404.62 L331.999,407.536 L326.527,407.536 L332.971,399.4 L331.531,399.4 L324.853,407.752 L324.853,408.688 L331.963,408.688 L331.963,412 L333.259,412 Z" id="2013-14" fill="#2D3142" fill-rule="nonzero" transform="translate(304.036000, 405.700000) rotate(-45.000000) translate(-304.036000, -405.700000) "></path>
                <path d="M368.491,412 L368.491,410.848 L361.561,410.848 L365.845,406.636 C366.649,405.856 367.195,405.166 367.483,404.566 C367.771,403.966 367.915,403.342 367.915,402.694 C367.915,401.638 367.54,400.807 366.79,400.201 C366.04,399.595 365.023,399.292 363.739,399.292 C362.779,399.292 361.918,399.448 361.156,399.76 C360.394,400.072 359.767,400.516 359.275,401.092 L359.275,401.092 L360.193,401.884 C361.009,400.948 362.155,400.48 363.631,400.48 C364.579,400.48 365.308,400.687 365.818,401.101 C366.328,401.515 366.583,402.094 366.583,402.838 C366.583,403.318 366.466,403.795 366.232,404.269 C365.998,404.743 365.551,405.304 364.891,405.952 L364.891,405.952 L359.653,411.082 L359.653,412 L368.491,412 Z M375.133,412.108 C376.105,412.108 376.972,411.85 377.734,411.334 C378.496,410.818 379.093,410.077 379.525,409.111 C379.957,408.145 380.173,407.008 380.173,405.7 C380.173,404.392 379.957,403.255 379.525,402.289 C379.093,401.323 378.496,400.582 377.734,400.066 C376.972,399.55 376.105,399.292 375.133,399.292 C374.161,399.292 373.294,399.55 372.532,400.066 C371.77,400.582 371.176,401.323 370.75,402.289 C370.324,403.255 370.111,404.392 370.111,405.7 C370.111,407.008 370.324,408.145 370.75,409.111 C371.176,410.077 371.77,410.818 372.532,411.334 C373.294,411.85 374.161,412.108 375.133,412.108 Z M375.133,410.92 C374.401,410.92 373.756,410.716 373.198,410.308 C372.64,409.9 372.205,409.306 371.893,408.526 C371.581,407.746 371.425,406.804 371.425,405.7 C371.425,404.596 371.581,403.654 371.893,402.874 C372.205,402.094 372.64,401.5 373.198,401.092 C373.756,400.684 374.401,400.48 375.133,400.48 C375.865,400.48 376.51,400.684 377.068,401.092 C377.626,401.5 378.061,402.094 378.373,402.874 C378.685,403.654 378.841,404.596 378.841,405.7 C378.841,406.804 378.685,407.746 378.373,408.526 C378.061,409.306 377.626,409.9 377.068,410.308 C376.51,410.716 375.865,410.92 375.133,410.92 Z M385.519,412 L385.519,399.4 L381.253,399.4 L381.253,400.552 L384.223,400.552 L384.223,412 L385.519,412 Z M396.715,412 L396.715,408.688 L399.235,408.688 L399.235,407.536 L396.715,407.536 L396.715,404.62 L395.455,404.62 L395.455,407.536 L389.983,407.536 L396.427,399.4 L394.987,399.4 L388.309,407.752 L388.309,408.688 L395.419,408.688 L395.419,412 L396.715,412 Z M405.283,407.68 L405.283,406.564 L400.567,406.564 L400.567,407.68 L405.283,407.68 Z M410.791,412 L410.791,399.4 L406.525,399.4 L406.525,400.552 L409.495,400.552 L409.495,412 L410.791,412 Z M417.775,412.108 C418.771,412.108 419.611,411.943 420.295,411.613 C420.979,411.283 421.492,410.83 421.834,410.254 C422.176,409.678 422.347,409.024 422.347,408.292 C422.347,407.116 421.93,406.201 421.096,405.547 C420.262,404.893 418.933,404.566 417.109,404.566 L417.109,404.566 L415.489,404.566 L415.921,400.552 L421.681,400.552 L421.681,399.4 L414.787,399.4 L414.139,405.718 L416.821,405.718 C418.345,405.718 419.428,405.94 420.07,406.384 C420.712,406.828 421.033,407.482 421.033,408.346 C421.033,409.126 420.748,409.75 420.178,410.218 C419.608,410.686 418.801,410.92 417.757,410.92 C416.965,410.92 416.227,410.785 415.543,410.515 C414.859,410.245 414.307,409.894 413.887,409.462 L413.887,409.462 L413.257,410.488 C413.749,410.98 414.4,411.373 415.21,411.667 C416.02,411.961 416.875,412.108 417.775,412.108 Z" id="2014-15" fill="#2D3142" fill-rule="nonzero" transform="translate(390.811000, 405.700000) rotate(-45.000000) translate(-390.811000, -405.700000) "></path>
                <polygon id="Path" fill="#EFEFEF" fill-rule="nonzero" points="435.999701 52 436 53.1663469 21.0002993 54.0419656 21 52.8756187"></polygon>
                <polygon id="Path-Copy" fill="#EFEFEF" fill-rule="nonzero" points="435.999701 131.25 436 132.416347 21.0002993 133.291966 21 132.125619"></polygon>
                <polygon id="Path-Copy-2" fill="#EFEFEF" fill-rule="nonzero" points="435.999701 210.5 436 211.666347 21.0002993 212.541966 21 211.375619"></polygon>
                <polygon id="Path-Copy-3" fill="#EFEFEF" fill-rule="nonzero" points="435.999701 289.75 436 290.916347 21.0002993 291.791966 21 290.625619"></polygon>
                <polygon id="Path-Copy-4" fill="#EFEFEF" fill-rule="nonzero" points="435.999701 369 436 370.166347 21.0002993 371.041966 21 369.875619"></polygon>
                <g id="Group-7" transform="translate(21.000000, 118.000000)">
                    <rect id="Rectangle" fill="#FFBA08" x="0" y="0" width="30" height="252"></rect>
                    <rect id="Rectangle-Copy" fill="#3772FF" x="34" y="72" width="30" height="180"></rect>
                </g>
                <g id="Group-10" transform="translate(108.000000, 120.000000)">
                    <rect id="Rectangle-Copy-2" fill="#FFBA08" x="0" y="0" width="30" height="250"></rect>
                    <rect id="Rectangle-Copy-4" fill="#3772FF" x="34" y="71" width="30" height="179"></rect>
                </g>
                <g id="Group-11" transform="translate(196.000000, 109.000000)">
                    <rect id="Rectangle-Copy-5" fill="#FFBA08" x="0" y="0" width="30" height="261"></rect>
                    <rect id="Rectangle-Copy-8" fill="#3772FF" x="34" y="66" width="30" height="195"></rect>
                </g>
                <g id="Group-12" transform="translate(284.000000, 137.000000)">
                    <rect id="Rectangle-Copy-9" fill="#FFBA08" x="0" y="0" width="30" height="233"></rect>
                    <rect id="Rectangle-Copy-10" fill="#3772FF" x="34" y="53" width="30" height="180"></rect>
                </g>
                <g id="Group-13" transform="translate(372.000000, 162.000000)">
                    <rect id="Rectangle-Copy-11" fill="#FFBA08" x="0" y="0" width="30" height="208"></rect>
                    <rect id="Rectangle-Copy-12" fill="#3772FF" x="34" y="50" width="30" height="158"></rect>
                </g>
            </g>
        </g>
    </g>
</svg>