<?xml version="1.0" encoding="UTF-8"?>
<svg width="446px" height="160px" viewBox="0 0 446 160" version="1.1" xmlns="http://www.w3.org/2000/svg" xmlns:xlink="http://www.w3.org/1999/xlink">
    <title>Group 7</title>
    <defs>
        <polygon id="path-1" points="0 0.389129414 126.244286 0.389129414 126.244286 158.037827 0 158.037827"></polygon>
        <polygon id="path-3" points="0.588722305 0.389129414 80.0940521 0.389129414 80.0940521 142.978759 0.588722305 142.978759"></polygon>
    </defs>
    <g id="Home-&gt;-Issues-Chronology-&gt;-Timeline" stroke="none" stroke-width="1" fill="none" fill-rule="evenodd">
        <g id="Desktop/Timeline/Further-education/Life-Stage-Overview" transform="translate(-830.000000, -653.000000)">
            <g id="Group-7" transform="translate(830.000000, 653.000000)">
                <g id="Group-14">
                    <g id="Group-13">
                        <g id="Group-3" transform="translate(0.000000, 0.385798)">
                            <mask id="mask-2" fill="white">
                                <use xlink:href="#path-1"></use>
                            </mask>
                            <g id="Clip-2"></g>
                            <path d="M79.5122063,79.2104956 L126.244286,142.978759 C90.7209038,168.566167 40.9998904,160.758789 15.1903483,125.541144 C-10.6199753,90.3227239 -2.74481812,41.0304159 32.7793453,15.4430071 C46.9886981,5.20773374 61.9474333,0.389129414 79.5122063,0.389129414 L79.5122063,79.2104956 Z" id="Fill-1" fill="#EFEFEF" mask="url(#mask-2)"></path>
                        </g>
                        <g id="Group-6" transform="translate(78.923484, 0.385798)">
                            <mask id="mask-4" fill="white">
                                <use xlink:href="#path-3"></use>
                            </mask>
                            <g id="Clip-5"></g>
                            <path d="M0.588722305,79.2104956 L0.588722305,0.389129414 C44.4983105,0.389129414 80.0943646,35.6788212 80.0943646,79.2104956 C80.0943646,105.33012 68.6348311,127.626623 47.3208019,142.978759 L0.588722305,79.2104956 Z" id="Fill-4" fill="#2D3142" mask="url(#mask-4)"></path>
                        </g>
                    </g>
                    <circle id="Oval" fill="#FFFFFF" cx="79.5" cy="79.5" r="28.5"></circle>
                </g>
                <path d="M211.832,52 L211.832,40.552 L216.26,40.552 L216.26,39.4 L206.072,39.4 L206.072,40.552 L210.5,40.552 L210.5,52 L211.832,52 Z M219.392,52 L219.392,47.032 C219.392,45.964 219.689,45.127 220.283,44.521 C220.877,43.915 221.684,43.612 222.704,43.612 C223.616,43.612 224.318,43.87 224.81,44.386 C225.302,44.902 225.548,45.652 225.548,46.636 L225.548,46.636 L225.548,52 L226.826,52 L226.826,46.51 C226.826,45.19 226.475,44.185 225.773,43.495 C225.071,42.805 224.126,42.46 222.938,42.46 C222.146,42.46 221.444,42.61 220.832,42.91 C220.22,43.21 219.74,43.636 219.392,44.188 L219.392,44.188 L219.392,38.644 L218.114,38.644 L218.114,52 L219.392,52 Z M234.314,52.09 C235.07,52.09 235.763,51.958 236.393,51.694 C237.023,51.43 237.548,51.046 237.968,50.542 L237.968,50.542 L237.248,49.714 C236.888,50.122 236.462,50.431 235.97,50.641 C235.478,50.851 234.938,50.956 234.35,50.956 C233.306,50.956 232.442,50.653 231.758,50.047 C231.074,49.441 230.696,48.646 230.624,47.662 L230.624,47.662 L238.544,47.662 L238.562,47.266 C238.562,46.33 238.364,45.499 237.968,44.773 C237.572,44.047 237.026,43.48 236.33,43.072 C235.634,42.664 234.848,42.46 233.972,42.46 C233.096,42.46 232.307,42.664 231.605,43.072 C230.903,43.48 230.351,44.05 229.949,44.782 C229.547,45.514 229.346,46.342 229.346,47.266 C229.346,48.19 229.556,49.018 229.976,49.75 C230.396,50.482 230.981,51.055 231.731,51.469 C232.481,51.883 233.342,52.09 234.314,52.09 Z M237.338,46.708 L230.624,46.708 C230.708,45.772 231.059,45.013 231.677,44.431 C232.295,43.849 233.06,43.558 233.972,43.558 C234.896,43.558 235.667,43.849 236.285,44.431 C236.903,45.013 237.254,45.772 237.338,46.708 L237.338,46.708 Z M248.552,52.09 C249.32,52.09 249.983,51.952 250.541,51.676 C251.099,51.4 251.522,51.016 251.81,50.524 L251.81,50.524 L251.81,52 L253.034,52 L253.034,46.132 C253.034,44.92 252.704,44.005 252.044,43.387 C251.384,42.769 250.436,42.46 249.2,42.46 C248.456,42.46 247.748,42.571 247.076,42.793 C246.404,43.015 245.828,43.33 245.348,43.738 L245.348,43.738 L245.924,44.692 C246.32,44.344 246.794,44.071 247.346,43.873 C247.898,43.675 248.474,43.576 249.074,43.576 C249.95,43.576 250.616,43.789 251.072,44.215 C251.528,44.641 251.756,45.262 251.756,46.078 L251.756,46.078 L251.756,46.654 L248.75,46.654 C247.478,46.654 246.551,46.9 245.969,47.392 C245.387,47.884 245.096,48.532 245.096,49.336 C245.096,50.164 245.408,50.83 246.032,51.334 C246.656,51.838 247.496,52.09 248.552,52.09 Z M248.75,51.082 C247.994,51.082 247.406,50.923 246.986,50.605 C246.566,50.287 246.356,49.852 246.356,49.3 C246.356,48.172 247.166,47.608 248.786,47.608 L248.786,47.608 L251.756,47.608 L251.756,49.156 C251.504,49.78 251.12,50.257 250.604,50.587 C250.088,50.917 249.47,51.082 248.75,51.082 Z M260.27,52.09 C261.062,52.09 261.773,51.922 262.403,51.586 C263.033,51.25 263.54,50.764 263.924,50.128 L263.924,50.128 L263.924,52 L265.148,52 L265.148,38.644 L263.87,38.644 L263.87,44.332 C263.474,43.72 262.967,43.255 262.349,42.937 C261.731,42.619 261.038,42.46 260.27,42.46 C259.382,42.46 258.578,42.661 257.858,43.063 C257.138,43.465 256.574,44.032 256.166,44.764 C255.758,45.496 255.554,46.33 255.554,47.266 C255.554,48.202 255.758,49.036 256.166,49.768 C256.574,50.5 257.138,51.07 257.858,51.478 C258.578,51.886 259.382,52.09 260.27,52.09 Z M260.378,50.956 C259.706,50.956 259.103,50.803 258.569,50.497 C258.035,50.191 257.615,49.756 257.309,49.192 C257.003,48.628 256.85,47.986 256.85,47.266 C256.85,46.546 257.003,45.904 257.309,45.34 C257.615,44.776 258.035,44.341 258.569,44.035 C259.103,43.729 259.706,43.576 260.378,43.576 C261.038,43.576 261.635,43.729 262.169,44.035 C262.703,44.341 263.123,44.776 263.429,45.34 C263.735,45.904 263.888,46.546 263.888,47.266 C263.888,47.986 263.735,48.628 263.429,49.192 C263.123,49.756 262.703,50.191 262.169,50.497 C261.635,50.803 261.038,50.956 260.378,50.956 Z M272.618,52.09 C273.374,52.09 274.046,51.931 274.634,51.613 C275.222,51.295 275.684,50.848 276.02,50.272 L276.02,50.272 L276.02,52 L277.244,52 L277.244,42.532 L275.966,42.532 L275.966,47.5 C275.966,48.58 275.678,49.423 275.102,50.029 C274.526,50.635 273.74,50.938 272.744,50.938 C271.832,50.938 271.13,50.68 270.638,50.164 C270.146,49.648 269.9,48.892 269.9,47.896 L269.9,47.896 L269.9,42.532 L268.622,42.532 L268.622,48.022 C268.622,49.354 268.979,50.365 269.693,51.055 C270.407,51.745 271.382,52.09 272.618,52.09 Z M282.104,52 L282.104,38.644 L280.826,38.644 L280.826,52 L282.104,52 Z M288.656,52.09 C289.04,52.09 289.409,52.033 289.763,51.919 C290.117,51.805 290.414,51.64 290.654,51.424 L290.654,51.424 L290.204,50.506 C290.024,50.662 289.811,50.782 289.565,50.866 C289.319,50.95 289.064,50.992 288.8,50.992 C288.272,50.992 287.867,50.845 287.585,50.551 C287.303,50.257 287.162,49.828 287.162,49.264 L287.162,49.264 L287.162,43.612 L290.042,43.612 L290.042,42.532 L287.162,42.532 L287.162,40.462 L285.884,40.462 L285.884,42.532 L284.192,42.532 L284.192,43.612 L285.884,43.612 L285.884,49.336 C285.884,50.212 286.124,50.89 286.604,51.37 C287.084,51.85 287.768,52.09 288.656,52.09 Z M300.23,52.09 C301.454,52.09 302.411,51.847 303.101,51.361 C303.791,50.875 304.136,50.218 304.136,49.39 C304.136,48.778 303.974,48.298 303.65,47.95 C303.326,47.602 302.936,47.356 302.48,47.212 C302.024,47.068 301.418,46.924 300.662,46.78 C300.05,46.672 299.57,46.567 299.222,46.465 C298.874,46.363 298.583,46.204 298.349,45.988 C298.115,45.772 297.998,45.484 297.998,45.124 C297.998,44.656 298.205,44.278 298.619,43.99 C299.033,43.702 299.648,43.558 300.464,43.558 C301.544,43.558 302.474,43.828 303.254,44.368 L303.254,44.368 L303.812,43.342 C303.416,43.078 302.912,42.865 302.3,42.703 C301.688,42.541 301.076,42.46 300.464,42.46 C299.288,42.46 298.37,42.712 297.71,43.216 C297.05,43.72 296.72,44.368 296.72,45.16 C296.72,45.796 296.885,46.294 297.215,46.654 C297.545,47.014 297.944,47.269 298.412,47.419 C298.88,47.569 299.498,47.716 300.266,47.86 C300.842,47.956 301.304,48.055 301.652,48.157 C302,48.259 302.288,48.409 302.516,48.607 C302.744,48.805 302.858,49.078 302.858,49.426 C302.858,49.918 302.651,50.299 302.237,50.569 C301.823,50.839 301.184,50.974 300.32,50.974 C299.672,50.974 299.048,50.875 298.448,50.677 C297.848,50.479 297.35,50.224 296.954,49.912 L296.954,49.912 L296.378,50.92 C296.774,51.256 297.323,51.535 298.025,51.757 C298.727,51.979 299.462,52.09 300.23,52.09 Z M307.772,52 L307.772,49.3 L310.004,47.248 L313.82,52 L315.386,52 L310.958,46.402 L315.008,42.532 L313.424,42.532 L307.772,47.698 L307.772,38.644 L306.494,38.644 L306.494,52 L307.772,52 Z M317.96,40.462 C318.224,40.462 318.446,40.372 318.626,40.192 C318.806,40.012 318.896,39.79 318.896,39.526 C318.896,39.286 318.806,39.079 318.626,38.905 C318.446,38.731 318.224,38.644 317.96,38.644 C317.696,38.644 317.474,38.734 317.294,38.914 C317.114,39.094 317.024,39.304 317.024,39.544 C317.024,39.796 317.114,40.012 317.294,40.192 C317.474,40.372 317.696,40.462 317.96,40.462 Z M318.59,52 L318.59,42.532 L317.312,42.532 L317.312,52 L318.59,52 Z M323.432,52 L323.432,38.644 L322.154,38.644 L322.154,52 L323.432,52 Z M328.274,52 L328.274,38.644 L326.996,38.644 L326.996,52 L328.274,52 Z M334.376,52.09 C335.6,52.09 336.557,51.847 337.247,51.361 C337.937,50.875 338.282,50.218 338.282,49.39 C338.282,48.778 338.12,48.298 337.796,47.95 C337.472,47.602 337.082,47.356 336.626,47.212 C336.17,47.068 335.564,46.924 334.808,46.78 C334.196,46.672 333.716,46.567 333.368,46.465 C333.02,46.363 332.729,46.204 332.495,45.988 C332.261,45.772 332.144,45.484 332.144,45.124 C332.144,44.656 332.351,44.278 332.765,43.99 C333.179,43.702 333.794,43.558 334.61,43.558 C335.69,43.558 336.62,43.828 337.4,44.368 L337.4,44.368 L337.958,43.342 C337.562,43.078 337.058,42.865 336.446,42.703 C335.834,42.541 335.222,42.46 334.61,42.46 C333.434,42.46 332.516,42.712 331.856,43.216 C331.196,43.72 330.866,44.368 330.866,45.16 C330.866,45.796 331.031,46.294 331.361,46.654 C331.691,47.014 332.09,47.269 332.558,47.419 C333.026,47.569 333.644,47.716 334.412,47.86 C334.988,47.956 335.45,48.055 335.798,48.157 C336.146,48.259 336.434,48.409 336.662,48.607 C336.89,48.805 337.004,49.078 337.004,49.426 C337.004,49.918 336.797,50.299 336.383,50.569 C335.969,50.839 335.33,50.974 334.466,50.974 C333.818,50.974 333.194,50.875 332.594,50.677 C331.994,50.479 331.496,50.224 331.1,49.912 L331.1,49.912 L330.524,50.92 C330.92,51.256 331.469,51.535 332.171,51.757 C332.873,51.979 333.608,52.09 334.376,52.09 Z M350.234,52.09 C351.122,52.09 351.926,51.886 352.646,51.478 C353.366,51.07 353.93,50.5 354.338,49.768 C354.746,49.036 354.95,48.202 354.95,47.266 C354.95,46.33 354.746,45.496 354.338,44.764 C353.93,44.032 353.366,43.465 352.646,43.063 C351.926,42.661 351.122,42.46 350.234,42.46 C349.466,42.46 348.773,42.619 348.155,42.937 C347.537,43.255 347.03,43.72 346.634,44.332 L346.634,44.332 L346.634,38.644 L345.356,38.644 L345.356,52 L346.58,52 L346.58,50.128 C346.964,50.764 347.471,51.25 348.101,51.586 C348.731,51.922 349.442,52.09 350.234,52.09 Z M350.144,50.956 C349.472,50.956 348.869,50.803 348.335,50.497 C347.801,50.191 347.381,49.756 347.075,49.192 C346.769,48.628 346.616,47.986 346.616,47.266 C346.616,46.546 346.769,45.904 347.075,45.34 C347.381,44.776 347.801,44.341 348.335,44.035 C348.869,43.729 349.472,43.576 350.144,43.576 C350.804,43.576 351.404,43.729 351.944,44.035 C352.484,44.341 352.907,44.776 353.213,45.34 C353.519,45.904 353.672,46.546 353.672,47.266 C353.672,47.986 353.519,48.628 353.213,49.192 C352.907,49.756 352.484,50.191 351.944,50.497 C351.404,50.803 350.804,50.956 350.144,50.956 Z M361.466,52.09 C362.222,52.09 362.894,51.931 363.482,51.613 C364.07,51.295 364.532,50.848 364.868,50.272 L364.868,50.272 L364.868,52 L366.092,52 L366.092,42.532 L364.814,42.532 L364.814,47.5 C364.814,48.58 364.526,49.423 363.95,50.029 C363.374,50.635 362.588,50.938 361.592,50.938 C360.68,50.938 359.978,50.68 359.486,50.164 C358.994,49.648 358.748,48.892 358.748,47.896 L358.748,47.896 L358.748,42.532 L357.47,42.532 L357.47,48.022 C357.47,49.354 357.827,50.365 358.541,51.055 C359.255,51.745 360.23,52.09 361.466,52.09 Z M373.436,52.09 C374.228,52.09 374.939,51.922 375.569,51.586 C376.199,51.25 376.706,50.764 377.09,50.128 L377.09,50.128 L377.09,52 L378.314,52 L378.314,38.644 L377.036,38.644 L377.036,44.332 C376.64,43.72 376.133,43.255 375.515,42.937 C374.897,42.619 374.204,42.46 373.436,42.46 C372.548,42.46 371.744,42.661 371.024,43.063 C370.304,43.465 369.74,44.032 369.332,44.764 C368.924,45.496 368.72,46.33 368.72,47.266 C368.72,48.202 368.924,49.036 369.332,49.768 C369.74,50.5 370.304,51.07 371.024,51.478 C371.744,51.886 372.548,52.09 373.436,52.09 Z M373.544,50.956 C372.872,50.956 372.269,50.803 371.735,50.497 C371.201,50.191 370.781,49.756 370.475,49.192 C370.169,48.628 370.016,47.986 370.016,47.266 C370.016,46.546 370.169,45.904 370.475,45.34 C370.781,44.776 371.201,44.341 371.735,44.035 C372.269,43.729 372.872,43.576 373.544,43.576 C374.204,43.576 374.801,43.729 375.335,44.035 C375.869,44.341 376.289,44.776 376.595,45.34 C376.901,45.904 377.054,46.546 377.054,47.266 C377.054,47.986 376.901,48.628 376.595,49.192 C376.289,49.756 375.869,50.191 375.335,50.497 C374.801,50.803 374.204,50.956 373.544,50.956 Z M385.91,55.582 C387.494,55.582 388.679,55.195 389.465,54.421 C390.251,53.647 390.644,52.456 390.644,50.848 L390.644,50.848 L390.644,42.532 L389.42,42.532 L389.42,44.35 C389.024,43.738 388.502,43.27 387.854,42.946 C387.206,42.622 386.48,42.46 385.676,42.46 C384.776,42.46 383.966,42.652 383.246,43.036 C382.526,43.42 381.959,43.96 381.545,44.656 C381.131,45.352 380.924,46.144 380.924,47.032 C380.924,47.92 381.131,48.715 381.545,49.417 C381.959,50.119 382.529,50.665 383.255,51.055 C383.981,51.445 384.788,51.64 385.676,51.64 C386.456,51.64 387.167,51.484 387.809,51.172 C388.451,50.86 388.97,50.404 389.366,49.804 L389.366,49.804 L389.366,51.01 C389.366,52.186 389.084,53.053 388.52,53.611 C387.956,54.169 387.074,54.448 385.874,54.448 C385.154,54.448 384.467,54.334 383.813,54.106 C383.159,53.878 382.604,53.56 382.148,53.152 L382.148,53.152 L381.5,54.124 C381.992,54.58 382.631,54.937 383.417,55.195 C384.203,55.453 385.034,55.582 385.91,55.582 Z M385.802,50.506 C385.118,50.506 384.503,50.359 383.957,50.065 C383.411,49.771 382.985,49.36 382.679,48.832 C382.373,48.304 382.22,47.704 382.22,47.032 C382.22,46.36 382.373,45.76 382.679,45.232 C382.985,44.704 383.411,44.296 383.957,44.008 C384.503,43.72 385.118,43.576 385.802,43.576 C386.498,43.576 387.119,43.723 387.665,44.017 C388.211,44.311 388.637,44.719 388.943,45.241 C389.249,45.763 389.402,46.36 389.402,47.032 C389.402,47.704 389.249,48.304 388.943,48.832 C388.637,49.36 388.208,49.771 387.656,50.065 C387.104,50.359 386.486,50.506 385.802,50.506 Z M398.24,52.09 C398.996,52.09 399.689,51.958 400.319,51.694 C400.949,51.43 401.474,51.046 401.894,50.542 L401.894,50.542 L401.174,49.714 C400.814,50.122 400.388,50.431 399.896,50.641 C399.404,50.851 398.864,50.956 398.276,50.956 C397.232,50.956 396.368,50.653 395.684,50.047 C395,49.441 394.622,48.646 394.55,47.662 L394.55,47.662 L402.47,47.662 L402.488,47.266 C402.488,46.33 402.29,45.499 401.894,44.773 C401.498,44.047 400.952,43.48 400.256,43.072 C399.56,42.664 398.774,42.46 397.898,42.46 C397.022,42.46 396.233,42.664 395.531,43.072 C394.829,43.48 394.277,44.05 393.875,44.782 C393.473,45.514 393.272,46.342 393.272,47.266 C393.272,48.19 393.482,49.018 393.902,49.75 C394.322,50.482 394.907,51.055 395.657,51.469 C396.407,51.883 397.268,52.09 398.24,52.09 Z M401.264,46.708 L394.55,46.708 C394.634,45.772 394.985,45.013 395.603,44.431 C396.221,43.849 396.986,43.558 397.898,43.558 C398.822,43.558 399.593,43.849 400.211,44.431 C400.829,45.013 401.18,45.772 401.264,46.708 L401.264,46.708 Z M408.086,52.09 C408.47,52.09 408.839,52.033 409.193,51.919 C409.547,51.805 409.844,51.64 410.084,51.424 L410.084,51.424 L409.634,50.506 C409.454,50.662 409.241,50.782 408.995,50.866 C408.749,50.95 408.494,50.992 408.23,50.992 C407.702,50.992 407.297,50.845 407.015,50.551 C406.733,50.257 406.592,49.828 406.592,49.264 L406.592,49.264 L406.592,43.612 L409.472,43.612 L409.472,42.532 L406.592,42.532 L406.592,40.462 L405.314,40.462 L405.314,42.532 L403.622,42.532 L403.622,43.612 L405.314,43.612 L405.314,49.336 C405.314,50.212 405.554,50.89 406.034,51.37 C406.514,51.85 407.198,52.09 408.086,52.09 Z M210.914,86 L213.902,78.242 L216.89,86 L218.096,86 L221.678,76.532 L220.508,76.532 L217.502,84.578 L214.478,76.532 L213.38,76.532 L210.338,84.578 L207.368,76.532 L206.144,76.532 L209.708,86 L210.914,86 Z M226.268,86.09 C227.036,86.09 227.699,85.952 228.257,85.676 C228.815,85.4 229.238,85.016 229.526,84.524 L229.526,84.524 L229.526,86 L230.75,86 L230.75,80.132 C230.75,78.92 230.42,78.005 229.76,77.387 C229.1,76.769 228.152,76.46 226.916,76.46 C226.172,76.46 225.464,76.571 224.792,76.793 C224.12,77.015 223.544,77.33 223.064,77.738 L223.064,77.738 L223.64,78.692 C224.036,78.344 224.51,78.071 225.062,77.873 C225.614,77.675 226.19,77.576 226.79,77.576 C227.666,77.576 228.332,77.789 228.788,78.215 C229.244,78.641 229.472,79.262 229.472,80.078 L229.472,80.078 L229.472,80.654 L226.466,80.654 C225.194,80.654 224.267,80.9 223.685,81.392 C223.103,81.884 222.812,82.532 222.812,83.336 C222.812,84.164 223.124,84.83 223.748,85.334 C224.372,85.838 225.212,86.09 226.268,86.09 Z M226.466,85.082 C225.71,85.082 225.122,84.923 224.702,84.605 C224.282,84.287 224.072,83.852 224.072,83.3 C224.072,82.172 224.882,81.608 226.502,81.608 L226.502,81.608 L229.472,81.608 L229.472,83.156 C229.22,83.78 228.836,84.257 228.32,84.587 C227.804,84.917 227.186,85.082 226.466,85.082 Z M236.762,86.09 C237.986,86.09 238.943,85.847 239.633,85.361 C240.323,84.875 240.668,84.218 240.668,83.39 C240.668,82.778 240.506,82.298 240.182,81.95 C239.858,81.602 239.468,81.356 239.012,81.212 C238.556,81.068 237.95,80.924 237.194,80.78 C236.582,80.672 236.102,80.567 235.754,80.465 C235.406,80.363 235.115,80.204 234.881,79.988 C234.647,79.772 234.53,79.484 234.53,79.124 C234.53,78.656 234.737,78.278 235.151,77.99 C235.565,77.702 236.18,77.558 236.996,77.558 C238.076,77.558 239.006,77.828 239.786,78.368 L239.786,78.368 L240.344,77.342 C239.948,77.078 239.444,76.865 238.832,76.703 C238.22,76.541 237.608,76.46 236.996,76.46 C235.82,76.46 234.902,76.712 234.242,77.216 C233.582,77.72 233.252,78.368 233.252,79.16 C233.252,79.796 233.417,80.294 233.747,80.654 C234.077,81.014 234.476,81.269 234.944,81.419 C235.412,81.569 236.03,81.716 236.798,81.86 C237.374,81.956 237.836,82.055 238.184,82.157 C238.532,82.259 238.82,82.409 239.048,82.607 C239.276,82.805 239.39,83.078 239.39,83.426 C239.39,83.918 239.183,84.299 238.769,84.569 C238.355,84.839 237.716,84.974 236.852,84.974 C236.204,84.974 235.58,84.875 234.98,84.677 C234.38,84.479 233.882,84.224 233.486,83.912 L233.486,83.912 L232.91,84.92 C233.306,85.256 233.855,85.535 234.557,85.757 C235.259,85.979 235.994,86.09 236.762,86.09 Z M251.666,86.09 C252.47,86.09 253.196,85.931 253.844,85.613 C254.492,85.295 255.002,84.83 255.374,84.218 L255.374,84.218 L254.42,83.57 C254.108,84.038 253.712,84.386 253.232,84.614 C252.752,84.842 252.23,84.956 251.666,84.956 C250.982,84.956 250.367,84.803 249.821,84.497 C249.275,84.191 248.849,83.759 248.543,83.201 C248.237,82.643 248.084,81.998 248.084,81.266 C248.084,80.546 248.237,79.904 248.543,79.34 C248.849,78.776 249.275,78.341 249.821,78.035 C250.367,77.729 250.982,77.576 251.666,77.576 C252.23,77.576 252.752,77.693 253.232,77.927 C253.712,78.161 254.108,78.512 254.42,78.98 L254.42,78.98 L255.374,78.332 C255.002,77.72 254.495,77.255 253.853,76.937 C253.211,76.619 252.482,76.46 251.666,76.46 C250.73,76.46 249.893,76.664 249.155,77.072 C248.417,77.48 247.838,78.05 247.418,78.782 C246.998,79.514 246.788,80.342 246.788,81.266 C246.788,82.19 246.998,83.021 247.418,83.759 C247.838,84.497 248.417,85.07 249.155,85.478 C249.893,85.886 250.73,86.09 251.666,86.09 Z M261.782,86.09 C262.538,86.09 263.21,85.931 263.798,85.613 C264.386,85.295 264.848,84.848 265.184,84.272 L265.184,84.272 L265.184,86 L266.408,86 L266.408,76.532 L265.13,76.532 L265.13,81.5 C265.13,82.58 264.842,83.423 264.266,84.029 C263.69,84.635 262.904,84.938 261.908,84.938 C260.996,84.938 260.294,84.68 259.802,84.164 C259.31,83.648 259.064,82.892 259.064,81.896 L259.064,81.896 L259.064,76.532 L257.786,76.532 L257.786,82.022 C257.786,83.354 258.143,84.365 258.857,85.055 C259.571,85.745 260.546,86.09 261.782,86.09 Z M272.978,86.09 C273.362,86.09 273.731,86.033 274.085,85.919 C274.439,85.805 274.736,85.64 274.976,85.424 L274.976,85.424 L274.526,84.506 C274.346,84.662 274.133,84.782 273.887,84.866 C273.641,84.95 273.386,84.992 273.122,84.992 C272.594,84.992 272.189,84.845 271.907,84.551 C271.625,84.257 271.484,83.828 271.484,83.264 L271.484,83.264 L271.484,77.612 L274.364,77.612 L274.364,76.532 L271.484,76.532 L271.484,74.462 L270.206,74.462 L270.206,76.532 L268.514,76.532 L268.514,77.612 L270.206,77.612 L270.206,83.336 C270.206,84.212 270.446,84.89 270.926,85.37 C271.406,85.85 272.09,86.09 272.978,86.09 Z M286.892,86.09 C287.78,86.09 288.584,85.886 289.304,85.478 C290.024,85.07 290.588,84.5 290.996,83.768 C291.404,83.036 291.608,82.202 291.608,81.266 C291.608,80.33 291.404,79.496 290.996,78.764 C290.588,78.032 290.024,77.465 289.304,77.063 C288.584,76.661 287.78,76.46 286.892,76.46 C286.124,76.46 285.431,76.619 284.813,76.937 C284.195,77.255 283.688,77.72 283.292,78.332 L283.292,78.332 L283.292,72.644 L282.014,72.644 L282.014,86 L283.238,86 L283.238,84.128 C283.622,84.764 284.129,85.25 284.759,85.586 C285.389,85.922 286.1,86.09 286.892,86.09 Z M286.802,84.956 C286.13,84.956 285.527,84.803 284.993,84.497 C284.459,84.191 284.039,83.756 283.733,83.192 C283.427,82.628 283.274,81.986 283.274,81.266 C283.274,80.546 283.427,79.904 283.733,79.34 C284.039,78.776 284.459,78.341 284.993,78.035 C285.527,77.729 286.13,77.576 286.802,77.576 C287.462,77.576 288.062,77.729 288.602,78.035 C289.142,78.341 289.565,78.776 289.871,79.34 C290.177,79.904 290.33,80.546 290.33,81.266 C290.33,81.986 290.177,82.628 289.871,83.192 C289.565,83.756 289.142,84.191 288.602,84.497 C288.062,84.803 287.462,84.956 286.802,84.956 Z M294.29,89.582 C294.998,89.582 295.604,89.396 296.108,89.024 C296.612,88.652 297.056,88.022 297.44,87.134 L297.44,87.134 L302.174,76.532 L300.914,76.532 L297.35,84.578 L293.786,76.532 L292.454,76.532 L296.684,85.982 L296.27,86.9 C296.006,87.476 295.721,87.884 295.415,88.124 C295.109,88.364 294.74,88.484 294.308,88.484 C293.636,88.484 293.06,88.244 292.58,87.764 L292.58,87.764 L291.986,88.718 C292.274,89.006 292.616,89.222 293.012,89.366 C293.408,89.51 293.834,89.582 294.29,89.582 Z M317.348,86 L317.348,83.354 L319.4,83.354 L319.4,80.978 L317.348,80.978 L317.348,78.62 L314.594,78.62 L314.594,80.978 L311.21,80.978 L316.718,73.4 L313.658,73.4 L307.718,81.392 L307.718,83.354 L314.504,83.354 L314.504,86 L317.348,86 Z M325.664,86.216 C326.708,86.216 327.638,85.958 328.454,85.442 C329.27,84.926 329.909,84.179 330.371,83.201 C330.833,82.223 331.064,81.056 331.064,79.7 C331.064,78.344 330.833,77.177 330.371,76.199 C329.909,75.221 329.27,74.474 328.454,73.958 C327.638,73.442 326.708,73.184 325.664,73.184 C324.62,73.184 323.69,73.442 322.874,73.958 C322.058,74.474 321.419,75.221 320.957,76.199 C320.495,77.177 320.264,78.344 320.264,79.7 C320.264,81.056 320.495,82.223 320.957,83.201 C321.419,84.179 322.058,84.926 322.874,85.442 C323.69,85.958 324.62,86.216 325.664,86.216 Z M325.664,83.75 C324.908,83.75 324.311,83.42 323.873,82.76 C323.435,82.1 323.216,81.08 323.216,79.7 C323.216,78.32 323.435,77.3 323.873,76.64 C324.311,75.98 324.908,75.65 325.664,75.65 C326.432,75.65 327.035,75.98 327.473,76.64 C327.911,77.3 328.13,78.32 328.13,79.7 C328.13,81.08 327.911,82.1 327.473,82.76 C327.035,83.42 326.432,83.75 325.664,83.75 Z M335.402,80.204 C336.326,80.204 337.076,79.889 337.652,79.259 C338.228,78.629 338.516,77.786 338.516,76.73 C338.516,75.674 338.228,74.831 337.652,74.201 C337.076,73.571 336.326,73.256 335.402,73.256 C334.478,73.256 333.725,73.571 333.143,74.201 C332.561,74.831 332.27,75.674 332.27,76.73 C332.27,77.786 332.561,78.629 333.143,79.259 C333.725,79.889 334.478,80.204 335.402,80.204 Z M336.446,86 L345.05,73.4 L342.908,73.4 L334.304,86 L336.446,86 Z M335.402,78.728 C335.006,78.728 334.688,78.557 334.448,78.215 C334.208,77.873 334.088,77.378 334.088,76.73 C334.088,76.082 334.208,75.587 334.448,75.245 C334.688,74.903 335.006,74.732 335.402,74.732 C335.81,74.732 336.131,74.9 336.365,75.236 C336.599,75.572 336.716,76.07 336.716,76.73 C336.716,77.39 336.599,77.888 336.365,78.224 C336.131,78.56 335.81,78.728 335.402,78.728 Z M343.952,86.144 C344.876,86.144 345.629,85.829 346.211,85.199 C346.793,84.569 347.084,83.726 347.084,82.67 C347.084,81.614 346.793,80.771 346.211,80.141 C345.629,79.511 344.876,79.196 343.952,79.196 C343.352,79.196 342.815,79.337 342.341,79.619 C341.867,79.901 341.498,80.306 341.234,80.834 C340.97,81.362 340.838,81.974 340.838,82.67 C340.838,83.366 340.97,83.978 341.234,84.506 C341.498,85.034 341.867,85.439 342.341,85.721 C342.815,86.003 343.352,86.144 343.952,86.144 Z M343.952,84.668 C343.556,84.668 343.238,84.5 342.998,84.164 C342.758,83.828 342.638,83.33 342.638,82.67 C342.638,82.01 342.758,81.512 342.998,81.176 C343.238,80.84 343.556,80.672 343.952,80.672 C344.36,80.672 344.681,80.843 344.915,81.185 C345.149,81.527 345.266,82.022 345.266,82.67 C345.266,83.318 345.149,83.813 344.915,84.155 C344.681,84.497 344.36,84.668 343.952,84.668 Z M359.198,86.09 C360.086,86.09 360.89,85.886 361.61,85.478 C362.33,85.07 362.894,84.5 363.302,83.768 C363.71,83.036 363.914,82.202 363.914,81.266 C363.914,80.33 363.71,79.496 363.302,78.764 C362.894,78.032 362.33,77.465 361.61,77.063 C360.89,76.661 360.086,76.46 359.198,76.46 C358.43,76.46 357.737,76.619 357.119,76.937 C356.501,77.255 355.994,77.72 355.598,78.332 L355.598,78.332 L355.598,72.644 L354.32,72.644 L354.32,86 L355.544,86 L355.544,84.128 C355.928,84.764 356.435,85.25 357.065,85.586 C357.695,85.922 358.406,86.09 359.198,86.09 Z M359.108,84.956 C358.436,84.956 357.833,84.803 357.299,84.497 C356.765,84.191 356.345,83.756 356.039,83.192 C355.733,82.628 355.58,81.986 355.58,81.266 C355.58,80.546 355.733,79.904 356.039,79.34 C356.345,78.776 356.765,78.341 357.299,78.035 C357.833,77.729 358.436,77.576 359.108,77.576 C359.768,77.576 360.368,77.729 360.908,78.035 C361.448,78.341 361.871,78.776 362.177,79.34 C362.483,79.904 362.636,80.546 362.636,81.266 C362.636,81.986 362.483,82.628 362.177,83.192 C361.871,83.756 361.448,84.191 360.908,84.497 C360.368,84.803 359.768,84.956 359.108,84.956 Z M370.538,86.09 C371.294,86.09 371.987,85.958 372.617,85.694 C373.247,85.43 373.772,85.046 374.192,84.542 L374.192,84.542 L373.472,83.714 C373.112,84.122 372.686,84.431 372.194,84.641 C371.702,84.851 371.162,84.956 370.574,84.956 C369.53,84.956 368.666,84.653 367.982,84.047 C367.298,83.441 366.92,82.646 366.848,81.662 L366.848,81.662 L374.768,81.662 L374.786,81.266 C374.786,80.33 374.588,79.499 374.192,78.773 C373.796,78.047 373.25,77.48 372.554,77.072 C371.858,76.664 371.072,76.46 370.196,76.46 C369.32,76.46 368.531,76.664 367.829,77.072 C367.127,77.48 366.575,78.05 366.173,78.782 C365.771,79.514 365.57,80.342 365.57,81.266 C365.57,82.19 365.78,83.018 366.2,83.75 C366.62,84.482 367.205,85.055 367.955,85.469 C368.705,85.883 369.566,86.09 370.538,86.09 Z M373.562,80.708 L366.848,80.708 C366.932,79.772 367.283,79.013 367.901,78.431 C368.519,77.849 369.284,77.558 370.196,77.558 C371.12,77.558 371.891,77.849 372.509,78.431 C373.127,79.013 373.478,79.772 373.562,80.708 L373.562,80.708 Z M380.384,86.09 C380.768,86.09 381.137,86.033 381.491,85.919 C381.845,85.805 382.142,85.64 382.382,85.424 L382.382,85.424 L381.932,84.506 C381.752,84.662 381.539,84.782 381.293,84.866 C381.047,84.95 380.792,84.992 380.528,84.992 C380,84.992 379.595,84.845 379.313,84.551 C379.031,84.257 378.89,83.828 378.89,83.264 L378.89,83.264 L378.89,77.612 L381.77,77.612 L381.77,76.532 L378.89,76.532 L378.89,74.462 L377.612,74.462 L377.612,76.532 L375.92,76.532 L375.92,77.612 L377.612,77.612 L377.612,83.336 C377.612,84.212 377.852,84.89 378.332,85.37 C378.812,85.85 379.496,86.09 380.384,86.09 Z M387.836,86 L390.824,78.242 L393.812,86 L395.018,86 L398.6,76.532 L397.43,76.532 L394.424,84.578 L391.4,76.532 L390.302,76.532 L387.26,84.578 L384.29,76.532 L383.066,76.532 L386.63,86 L387.836,86 Z M404.54,86.09 C405.296,86.09 405.989,85.958 406.619,85.694 C407.249,85.43 407.774,85.046 408.194,84.542 L408.194,84.542 L407.474,83.714 C407.114,84.122 406.688,84.431 406.196,84.641 C405.704,84.851 405.164,84.956 404.576,84.956 C403.532,84.956 402.668,84.653 401.984,84.047 C401.3,83.441 400.922,82.646 400.85,81.662 L400.85,81.662 L408.77,81.662 L408.788,81.266 C408.788,80.33 408.59,79.499 408.194,78.773 C407.798,78.047 407.252,77.48 406.556,77.072 C405.86,76.664 405.074,76.46 404.198,76.46 C403.322,76.46 402.533,76.664 401.831,77.072 C401.129,77.48 400.577,78.05 400.175,78.782 C399.773,79.514 399.572,80.342 399.572,81.266 C399.572,82.19 399.782,83.018 400.202,83.75 C400.622,84.482 401.207,85.055 401.957,85.469 C402.707,85.883 403.568,86.09 404.54,86.09 Z M407.564,80.708 L400.85,80.708 C400.934,79.772 401.285,79.013 401.903,78.431 C402.521,77.849 403.286,77.558 404.198,77.558 C405.122,77.558 405.893,77.849 406.511,78.431 C407.129,79.013 407.48,79.772 407.564,80.708 L407.564,80.708 Z M415.412,86.09 C416.168,86.09 416.861,85.958 417.491,85.694 C418.121,85.43 418.646,85.046 419.066,84.542 L419.066,84.542 L418.346,83.714 C417.986,84.122 417.56,84.431 417.068,84.641 C416.576,84.851 416.036,84.956 415.448,84.956 C414.404,84.956 413.54,84.653 412.856,84.047 C412.172,83.441 411.794,82.646 411.722,81.662 L411.722,81.662 L419.642,81.662 L419.66,81.266 C419.66,80.33 419.462,79.499 419.066,78.773 C418.67,78.047 418.124,77.48 417.428,77.072 C416.732,76.664 415.946,76.46 415.07,76.46 C414.194,76.46 413.405,76.664 412.703,77.072 C412.001,77.48 411.449,78.05 411.047,78.782 C410.645,79.514 410.444,80.342 410.444,81.266 C410.444,82.19 410.654,83.018 411.074,83.75 C411.494,84.482 412.079,85.055 412.829,85.469 C413.579,85.883 414.44,86.09 415.412,86.09 Z M418.436,80.708 L411.722,80.708 C411.806,79.772 412.157,79.013 412.775,78.431 C413.393,77.849 414.158,77.558 415.07,77.558 C415.994,77.558 416.765,77.849 417.383,78.431 C418.001,79.013 418.352,79.772 418.436,80.708 L418.436,80.708 Z M423.548,86 L423.548,81.032 C423.548,79.964 423.845,79.127 424.439,78.521 C425.033,77.915 425.84,77.612 426.86,77.612 C427.772,77.612 428.474,77.87 428.966,78.386 C429.458,78.902 429.704,79.652 429.704,80.636 L429.704,80.636 L429.704,86 L430.982,86 L430.982,80.51 C430.982,79.19 430.631,78.185 429.929,77.495 C429.227,76.805 428.282,76.46 427.094,76.46 C426.278,76.46 425.561,76.619 424.943,76.937 C424.325,77.255 423.842,77.702 423.494,78.278 L423.494,78.278 L423.494,76.532 L422.27,76.532 L422.27,86 L423.548,86 Z M215.54,120 L215.54,118.848 L208.61,118.848 L212.894,114.636 C213.698,113.856 214.244,113.166 214.532,112.566 C214.82,111.966 214.964,111.342 214.964,110.694 C214.964,109.638 214.589,108.807 213.839,108.201 C213.089,107.595 212.072,107.292 210.788,107.292 C209.828,107.292 208.967,107.448 208.205,107.76 C207.443,108.072 206.816,108.516 206.324,109.092 L206.324,109.092 L207.242,109.884 C208.058,108.948 209.204,108.48 210.68,108.48 C211.628,108.48 212.357,108.687 212.867,109.101 C213.377,109.515 213.632,110.094 213.632,110.838 C213.632,111.318 213.515,111.795 213.281,112.269 C213.047,112.743 212.6,113.304 211.94,113.952 L211.94,113.952 L206.702,119.082 L206.702,120 L215.54,120 Z M222.182,120.108 C223.154,120.108 224.021,119.85 224.783,119.334 C225.545,118.818 226.142,118.077 226.574,117.111 C227.006,116.145 227.222,115.008 227.222,113.7 C227.222,112.392 227.006,111.255 226.574,110.289 C226.142,109.323 225.545,108.582 224.783,108.066 C224.021,107.55 223.154,107.292 222.182,107.292 C221.21,107.292 220.343,107.55 219.581,108.066 C218.819,108.582 218.225,109.323 217.799,110.289 C217.373,111.255 217.16,112.392 217.16,113.7 C217.16,115.008 217.373,116.145 217.799,117.111 C218.225,118.077 218.819,118.818 219.581,119.334 C220.343,119.85 221.21,120.108 222.182,120.108 Z M222.182,118.92 C221.45,118.92 220.805,118.716 220.247,118.308 C219.689,117.9 219.254,117.306 218.942,116.526 C218.63,115.746 218.474,114.804 218.474,113.7 C218.474,112.596 218.63,111.654 218.942,110.874 C219.254,110.094 219.689,109.5 220.247,109.092 C220.805,108.684 221.45,108.48 222.182,108.48 C222.914,108.48 223.559,108.684 224.117,109.092 C224.675,109.5 225.11,110.094 225.422,110.874 C225.734,111.654 225.89,112.596 225.89,113.7 C225.89,114.804 225.734,115.746 225.422,116.526 C225.11,117.306 224.675,117.9 224.117,118.308 C223.559,118.716 222.914,118.92 222.182,118.92 Z M232.568,120 L232.568,107.4 L228.302,107.4 L228.302,108.552 L231.272,108.552 L231.272,120 L232.568,120 Z M240.596,120.108 C241.568,120.108 242.435,119.85 243.197,119.334 C243.959,118.818 244.556,118.077 244.988,117.111 C245.42,116.145 245.636,115.008 245.636,113.7 C245.636,112.392 245.42,111.255 244.988,110.289 C244.556,109.323 243.959,108.582 243.197,108.066 C242.435,107.55 241.568,107.292 240.596,107.292 C239.624,107.292 238.757,107.55 237.995,108.066 C237.233,108.582 236.639,109.323 236.213,110.289 C235.787,111.255 235.574,112.392 235.574,113.7 C235.574,115.008 235.787,116.145 236.213,117.111 C236.639,118.077 237.233,118.818 237.995,119.334 C238.757,119.85 239.624,120.108 240.596,120.108 Z M240.596,118.92 C239.864,118.92 239.219,118.716 238.661,118.308 C238.103,117.9 237.668,117.306 237.356,116.526 C237.044,115.746 236.888,114.804 236.888,113.7 C236.888,112.596 237.044,111.654 237.356,110.874 C237.668,110.094 238.103,109.5 238.661,109.092 C239.219,108.684 239.864,108.48 240.596,108.48 C241.328,108.48 241.973,108.684 242.531,109.092 C243.089,109.5 243.524,110.094 243.836,110.874 C244.148,111.654 244.304,112.596 244.304,113.7 C244.304,114.804 244.148,115.746 243.836,116.526 C243.524,117.306 243.089,117.9 242.531,118.308 C241.973,118.716 241.328,118.92 240.596,118.92 Z M255.716,120.09 C256.484,120.09 257.147,119.952 257.705,119.676 C258.263,119.4 258.686,119.016 258.974,118.524 L258.974,118.524 L258.974,120 L260.198,120 L260.198,114.132 C260.198,112.92 259.868,112.005 259.208,111.387 C258.548,110.769 257.6,110.46 256.364,110.46 C255.62,110.46 254.912,110.571 254.24,110.793 C253.568,111.015 252.992,111.33 252.512,111.738 L252.512,111.738 L253.088,112.692 C253.484,112.344 253.958,112.071 254.51,111.873 C255.062,111.675 255.638,111.576 256.238,111.576 C257.114,111.576 257.78,111.789 258.236,112.215 C258.692,112.641 258.92,113.262 258.92,114.078 L258.92,114.078 L258.92,114.654 L255.914,114.654 C254.642,114.654 253.715,114.9 253.133,115.392 C252.551,115.884 252.26,116.532 252.26,117.336 C252.26,118.164 252.572,118.83 253.196,119.334 C253.82,119.838 254.66,120.09 255.716,120.09 Z M255.914,119.082 C255.158,119.082 254.57,118.923 254.15,118.605 C253.73,118.287 253.52,117.852 253.52,117.3 C253.52,116.172 254.33,115.608 255.95,115.608 L255.95,115.608 L258.92,115.608 L258.92,117.156 C258.668,117.78 258.284,118.257 257.768,118.587 C257.252,118.917 256.634,119.082 255.914,119.082 Z M264.95,120 L264.95,115.032 C264.95,113.964 265.247,113.127 265.841,112.521 C266.435,111.915 267.242,111.612 268.262,111.612 C269.174,111.612 269.876,111.87 270.368,112.386 C270.86,112.902 271.106,113.652 271.106,114.636 L271.106,114.636 L271.106,120 L272.384,120 L272.384,114.51 C272.384,113.19 272.033,112.185 271.331,111.495 C270.629,110.805 269.684,110.46 268.496,110.46 C267.68,110.46 266.963,110.619 266.345,110.937 C265.727,111.255 265.244,111.702 264.896,112.278 L264.896,112.278 L264.896,110.532 L263.672,110.532 L263.672,120 L264.95,120 Z M279.62,120.09 C280.412,120.09 281.123,119.922 281.753,119.586 C282.383,119.25 282.89,118.764 283.274,118.128 L283.274,118.128 L283.274,120 L284.498,120 L284.498,106.644 L283.22,106.644 L283.22,112.332 C282.824,111.72 282.317,111.255 281.699,110.937 C281.081,110.619 280.388,110.46 279.62,110.46 C278.732,110.46 277.928,110.661 277.208,111.063 C276.488,111.465 275.924,112.032 275.516,112.764 C275.108,113.496 274.904,114.33 274.904,115.266 C274.904,116.202 275.108,117.036 275.516,117.768 C275.924,118.5 276.488,119.07 277.208,119.478 C277.928,119.886 278.732,120.09 279.62,120.09 Z M279.728,118.956 C279.056,118.956 278.453,118.803 277.919,118.497 C277.385,118.191 276.965,117.756 276.659,117.192 C276.353,116.628 276.2,115.986 276.2,115.266 C276.2,114.546 276.353,113.904 276.659,113.34 C276.965,112.776 277.385,112.341 277.919,112.035 C278.453,111.729 279.056,111.576 279.728,111.576 C280.388,111.576 280.985,111.729 281.519,112.035 C282.053,112.341 282.473,112.776 282.779,113.34 C283.085,113.904 283.238,114.546 283.238,115.266 C283.238,115.986 283.085,116.628 282.779,117.192 C282.473,117.756 282.053,118.191 281.519,118.497 C280.985,118.803 280.388,118.956 279.728,118.956 Z M300.536,120 L300.536,118.848 L293.606,118.848 L297.89,114.636 C298.694,113.856 299.24,113.166 299.528,112.566 C299.816,111.966 299.96,111.342 299.96,110.694 C299.96,109.638 299.585,108.807 298.835,108.201 C298.085,107.595 297.068,107.292 295.784,107.292 C294.824,107.292 293.963,107.448 293.201,107.76 C292.439,108.072 291.812,108.516 291.32,109.092 L291.32,109.092 L292.238,109.884 C293.054,108.948 294.2,108.48 295.676,108.48 C296.624,108.48 297.353,108.687 297.863,109.101 C298.373,109.515 298.628,110.094 298.628,110.838 C298.628,111.318 298.511,111.795 298.277,112.269 C298.043,112.743 297.596,113.304 296.936,113.952 L296.936,113.952 L291.698,119.082 L291.698,120 L300.536,120 Z M307.178,120.108 C308.15,120.108 309.017,119.85 309.779,119.334 C310.541,118.818 311.138,118.077 311.57,117.111 C312.002,116.145 312.218,115.008 312.218,113.7 C312.218,112.392 312.002,111.255 311.57,110.289 C311.138,109.323 310.541,108.582 309.779,108.066 C309.017,107.55 308.15,107.292 307.178,107.292 C306.206,107.292 305.339,107.55 304.577,108.066 C303.815,108.582 303.221,109.323 302.795,110.289 C302.369,111.255 302.156,112.392 302.156,113.7 C302.156,115.008 302.369,116.145 302.795,117.111 C303.221,118.077 303.815,118.818 304.577,119.334 C305.339,119.85 306.206,120.108 307.178,120.108 Z M307.178,118.92 C306.446,118.92 305.801,118.716 305.243,118.308 C304.685,117.9 304.25,117.306 303.938,116.526 C303.626,115.746 303.47,114.804 303.47,113.7 C303.47,112.596 303.626,111.654 303.938,110.874 C304.25,110.094 304.685,109.5 305.243,109.092 C305.801,108.684 306.446,108.48 307.178,108.48 C307.91,108.48 308.555,108.684 309.113,109.092 C309.671,109.5 310.106,110.094 310.418,110.874 C310.73,111.654 310.886,112.596 310.886,113.7 C310.886,114.804 310.73,115.746 310.418,116.526 C310.106,117.306 309.671,117.9 309.113,118.308 C308.555,118.716 307.91,118.92 307.178,118.92 Z M317.564,120 L317.564,107.4 L313.298,107.4 L313.298,108.552 L316.268,108.552 L316.268,120 L317.564,120 Z M325.736,120.108 C326.552,120.108 327.287,119.949 327.941,119.631 C328.595,119.313 329.108,118.86 329.48,118.272 C329.852,117.684 330.038,117.006 330.038,116.238 C330.038,115.482 329.858,114.819 329.498,114.249 C329.138,113.679 328.637,113.238 327.995,112.926 C327.353,112.614 326.618,112.458 325.79,112.458 C324.902,112.458 324.116,112.647 323.432,113.025 C322.748,113.403 322.25,113.934 321.938,114.618 C321.902,114.234 321.884,113.892 321.884,113.592 C321.884,111.912 322.28,110.631 323.072,109.749 C323.864,108.867 324.956,108.426 326.348,108.426 C327.38,108.426 328.196,108.624 328.796,109.02 L328.796,109.02 L329.318,107.976 C328.574,107.52 327.578,107.292 326.33,107.292 C325.178,107.292 324.17,107.541 323.306,108.039 C322.442,108.537 321.77,109.272 321.29,110.244 C320.81,111.216 320.57,112.404 320.57,113.808 C320.57,115.812 321.014,117.363 321.902,118.461 C322.79,119.559 324.068,120.108 325.736,120.108 Z M325.682,119.01 C324.986,119.01 324.386,118.884 323.882,118.632 C323.378,118.38 322.997,118.05 322.739,117.642 C322.481,117.234 322.352,116.79 322.352,116.31 C322.352,115.794 322.49,115.326 322.766,114.906 C323.042,114.486 323.423,114.156 323.909,113.916 C324.395,113.676 324.956,113.556 325.592,113.556 C326.564,113.556 327.335,113.802 327.905,114.294 C328.475,114.786 328.76,115.446 328.76,116.274 C328.76,117.102 328.475,117.765 327.905,118.263 C327.335,118.761 326.594,119.01 325.682,119.01 Z" id="Theadultskillsbudgetwascutby40%between2010and2016" fill="#2D3142" fill-rule="nonzero"></path>
            </g>
        </g>
    </g>
</svg>