<?xml version="1.0" encoding="UTF-8"?>
<svg width="692px" height="370px" viewBox="0 0 692 370" version="1.1" xmlns="http://www.w3.org/2000/svg" xmlns:xlink="http://www.w3.org/1999/xlink">
    <title>Group 10</title>
    <g id="Home-&gt;-Chronology-&gt;-Timeline" stroke="none" stroke-width="1" fill="none" fill-rule="evenodd">
        <g id="Tablet/Timeline/School-years/Family-circumstances-Copy" transform="translate(-38.000000, -1658.000000)">
            <g id="Group-10" transform="translate(38.000000, 1658.000000)">
                <polygon id="Line" fill="#EFEFEF" fill-rule="nonzero" points="690.001027 294.573082 690.001447 295.143444 107.845572 295.571635 107.845152 295.001274"></polygon>
                <polygon id="Line-Copy-6" fill="#EFEFEF" fill-rule="nonzero" transform="translate(108.000225, 151.501774) rotate(-90.000000) translate(-108.000225, -151.501774) " points="251.000301 151.000317 251.000525 152.00323 -35.0000756 152.00323 -35.0000756 151.000317"></polygon>
                <polygon id="Line-Copy" fill="#EFEFEF" fill-rule="nonzero" points="690.001027 237.655572 690.001447 238.225933 107.845572 238.654124 107.845152 238.083763"></polygon>
                <polygon id="Line-Copy-2" fill="#EFEFEF" fill-rule="nonzero" points="690.001027 180.738061 690.001447 181.308422 107.845572 181.736614 107.845152 181.166252"></polygon>
                <polygon id="Line-Copy-3" fill="#EFEFEF" fill-rule="nonzero" points="690.001027 123.82055 690.001447 124.390912 107.845572 124.819103 107.845152 124.248741"></polygon>
                <polygon id="Line-Copy-4" fill="#EFEFEF" fill-rule="nonzero" points="690.001027 66.9030391 690.001447 67.4734008 107.845572 67.9015919 107.845152 67.3312302"></polygon>
                <polygon id="Path" fill="#EFEFEF" fill-rule="nonzero" points="690.1561 10.000021 690.15652 10.5712105 108.000645 11.0000231 108.000225 10.4288336"></polygon>
                <path d="M123.991563,61.870447 C145.137185,76.7579308 162.233796,87.5504606 175.281398,94.2480366 C188.329,100.945613 210.278844,110.196352 241.130929,122.000256 L297.384297,119.225034 C348.784433,107.50743 380.661342,101.648628 393.015023,101.648628 C405.368703,101.648628 412.758852,101.648628 415.185468,101.648628 L435.701402,46.1441891 L456.217336,43.3689672 L474.086053,46.1441891 C482.313772,50.6526201 489.924522,54.1473441 496.918302,56.628361 C503.912083,59.1093779 515.71426,62.5013159 532.324834,66.8041749 L552.178964,18.3919695 C565.310544,18.7706554 575.127308,18.7706554 581.629256,18.3919695 C588.131205,18.0132835 597.727368,16.8826376 610.417745,15.0000315 L650.787809,24.8674874 L669.649232,32.5764373 L689.17246,35.9683753" id="Path-7" stroke="#3772FF" stroke-width="3" stroke-linecap="round" stroke-linejoin="round"></path>
                <path d="M107.016165,146.359858 L142.739774,158.483479 L165.563191,161.902962 L183.424996,159.726927 L204.925317,164.389858 L224.771766,173.093997 L240.9797,176.513479 L281.664922,179.000376 L301.180598,170.6071 L319.373177,168.120203 L340.542723,155.68572 L359.066076,155.68572 L378.581752,143.872961 L398.758976,148.535893 L416.620781,121.18003 L458.629099,121.18003 L472.852388,123.356064 L494.683483,119.003995 L514.529933,103.771754 L533.714834,96.0002016 L553.892058,111.543305 L596.231151,119.003995 L611.777536,119.003995 L631.293212,128.329858 C644.225223,126.940226 654.03819,126.422123 660.732112,126.775547 C667.426035,127.128972 677.239002,128.683282 690.171013,131.438478" id="Path-8" stroke="#2D3142" stroke-width="3" stroke-linecap="round" stroke-linejoin="round"></path>
                <path d="M107.016165,197.31687 L150.34758,197.31687 L163.578546,194.554206 L186.401964,194.554206 L225.102541,201.000422 L240.318152,198.851683 L261.487698,198.851683 L279.018729,197.31687 L323.011693,184.731401 L359.727625,164.164902 C385.533142,154.860886 406.261656,147.903065 421.913167,143.29144 C437.564678,138.679815 460.939386,132.642883 492.03729,125.180643 L516.183803,125.180643 L533.714834,104.000218 L590.277216,104.000218 L633.277857,115.357837 L649.485791,118.120501 L675.286175,116.892651 L690.171013,119.348352" id="Path-9" stroke="#DF886C" stroke-width="3" stroke-linecap="round" stroke-linejoin="round"></path>
                <path d="M107.016165,239.000502 L129.178034,239.000502 L164.570869,232.712863 L185.078867,232.712863 L202.940672,229.569044 L221.794799,232.712863 L265.126214,232.712863 L282.657245,227.053989 L362.043044,193.415122 L381.227945,187.756247 L398.758976,185.241192 L416.620781,178.324789 L478.475549,166.692658 L515.522255,163.548839 L533.053286,155.374908 C550.393456,155.202935 563.403907,154.469377 572.084637,153.174235 C580.765367,151.879092 586.719302,149.783213 589.946442,146.886596 L610.785214,145.000305 L647.501146,153.174235 L690.171013,153.174235" id="Path-10" stroke="#FFBA08" stroke-width="3" stroke-linecap="round" stroke-linejoin="round"></path>
                <polyline id="Path-11" stroke="#7DCFB6" stroke-width="3" stroke-linecap="round" stroke-linejoin="round" points="340.677525 253.814487 359.516822 267.000561 379.017146 250.988899 399.178498 247.849358 436.196063 243.767954 459.332041 243.767954 471.561058 241.570275 495.688578 241.570275 514.858389 233.407467 532.706143 223.04698 553.528524 214.570218 573.689876 220.535347 592.198659 214.570218 610.707441 217.395805 631.199307 214.570218 649.377576 196.360878 670.199956 186.000391"></polyline>
                <text id="1989-90" transform="translate(95.736952, 334.416091) rotate(-45.000000) translate(-95.736952, -334.416091) " font-family="Montserrat-Regular, Montserrat" font-size="16" font-weight="normal" line-spacing="30" fill="#2D3142">
                    <tspan x="67.7677483" y="334.416091">1989-90</tspan>
                </text>
                <text id="1993-94" transform="translate(164.948398, 332.297840) rotate(-45.000000) translate(-164.948398, -332.297840) " font-family="Montserrat-Regular, Montserrat" font-size="16" font-weight="normal" line-spacing="30" fill="#2D3142">
                    <tspan x="135.183536" y="332.29784">1993-94</tspan>
                </text>
                <text id="1997-98" transform="translate(234.159844, 334.416091) rotate(-45.000000) translate(-234.159844, -334.416091) " font-family="Montserrat-Regular, Montserrat" font-size="16" font-weight="normal" line-spacing="30" fill="#2D3142">
                    <tspan x="207.35864" y="334.416091">1997-98</tspan>
                </text>
                <text id="2001-02" transform="translate(305.489541, 334.416091) rotate(-45.000000) translate(-305.489541, -334.416091) " font-family="Montserrat-Regular, Montserrat" font-size="16" font-weight="normal" line-spacing="30" fill="#2D3142">
                    <tspan x="277.600337" y="334.416091">2001-02</tspan>
                </text>
                <text id="2005-06" transform="translate(376.819237, 334.416091) rotate(-45.000000) translate(-376.819237, -334.416091) " font-family="Montserrat-Regular, Montserrat" font-size="16" font-weight="normal" line-spacing="30" fill="#2D3142">
                    <tspan x="344.994033" y="334.416091">2005-06</tspan>
                </text>
                <text id="2009-10" transform="translate(448.148934, 334.416091) rotate(-45.000000) translate(-448.148934, -334.416091) " font-family="Montserrat-Regular, Montserrat" font-size="16" font-weight="normal" line-spacing="30" fill="#2D3142">
                    <tspan x="419.60373" y="334.416091">2009-10</tspan>
                </text>
                <text id="2013-14" transform="translate(519.831672, 334.769133) rotate(-45.000000) translate(-519.831672, -334.769133) " font-family="Montserrat-Regular, Montserrat" font-size="16" font-weight="normal" line-spacing="30" fill="#2D3142">
                    <tspan x="497.337744" y="334.769133">2013-14</tspan>
                </text>
                <text id="2017-18" transform="translate(589.749201, 332.650882) rotate(-45.000000) translate(-589.749201, -332.650882) " font-family="Montserrat-Regular, Montserrat" font-size="16" font-weight="normal" line-spacing="30" fill="#2D3142">
                    <tspan x="564.227615" y="332.650882">2017-18</tspan>
                </text>
                <text id="2019-20" transform="translate(657.548480, 332.650882) rotate(-45.000000) translate(-657.548480, -332.650882) " font-family="Montserrat-Regular, Montserrat" font-size="16" font-weight="normal" line-spacing="30" fill="#2D3142">
                    <tspan x="628.010894" y="332.650882">2019-20</tspan>
                </text>
                <text id="£0" font-family="Montserrat-Regular, Montserrat" font-size="16" font-weight="normal" line-spacing="30" fill="#2D3142">
                    <tspan x="70.216189" y="302.000603">£0</tspan>
                </text>
                <text id="£2k" font-family="Montserrat-Regular, Montserrat" font-size="16" font-weight="normal" line-spacing="30" fill="#2D3142">
                    <tspan x="73.1042121" y="245.000483">£2k</tspan>
                </text>
                <text id="£4k" font-family="Montserrat-Regular, Montserrat" font-size="16" font-weight="normal" line-spacing="30" fill="#2D3142">
                    <tspan x="71.6162121" y="185.000357">£4k</tspan>
                </text>
                <text id="£6k" font-family="Montserrat-Regular, Montserrat" font-size="16" font-weight="normal" line-spacing="30" fill="#2D3142">
                    <tspan x="72.4482121" y="125.000231">£6k</tspan>
                </text>
                <text id="£8k" font-family="Montserrat-Regular, Montserrat" font-size="16" font-weight="normal" line-spacing="30" fill="#2D3142">
                    <tspan x="71.9842121" y="73.0001218">£8k</tspan>
                </text>
                <text id="£10k" font-family="Montserrat-Regular, Montserrat" font-size="16" font-weight="normal" line-spacing="30" fill="#2D3142">
                    <tspan x="65.8242121" y="15">£10k</tspan>
                </text>
                <text id="Mean-expenditure-per" transform="translate(26.962373, 169.254703) rotate(-90.000000) translate(-26.962373, -169.254703) " font-family="Montserrat-SemiBold, Montserrat" font-size="16" font-weight="500" line-spacing="26" fill="#2D3142">
                    <tspan x="-89.9256266" y="158.254703">Mean expenditure per pupil, </tspan>
                    <tspan x="-31.3736266" y="184.254703">2019-20 prices</tspan>
                </text>
            </g>
        </g>
    </g>
</svg>