<?xml version="1.0" encoding="UTF-8"?>
<svg width="336px" height="60px" viewBox="0 0 336 60" version="1.1" xmlns="http://www.w3.org/2000/svg" xmlns:xlink="http://www.w3.org/1999/xlink">
    <title>Group 16 Copy</title>
    <g id="Home-&gt;-Issues-Chronology-&gt;-Timeline" stroke="none" stroke-width="1" fill="none" fill-rule="evenodd">
        <g id="Group-16-Copy" transform="translate(0.000000, 1.000000)">
            <g id="Group-14" transform="translate(38.000000, 19.500000) rotate(-270.000000) translate(-38.000000, -19.500000) translate(19.000000, -18.000000)">
                <rect id="Rectangle-Copy-38" fill="#C5532F" x="0" y="0" width="8" height="75"></rect>
                <rect id="Rectangle-Copy-39" fill="#DB7656" x="10" y="32" width="8" height="43"></rect>
                <rect id="Rectangle-Copy-40" fill="#FF9308" x="20" y="39" width="8" height="36"></rect>
                <rect id="Rectangle-Copy-42" fill="#FFDA7C" x="30" y="45" width="8" height="30"></rect>
            </g>
            <g id="Group-4-Copy-5" fill="#EFEFEF" fill-rule="nonzero">
                <polygon id="Line-Copy-15" points="0.500055024 -0.500055018 1.50005502 -0.499944976 1.49565337 39.500055 0.495653372 39.499945"></polygon>
                <polygon id="Line-Copy-24" points="44.500055 -0.500055018 45.500055 -0.499944976 45.4956534 39.500055 44.4956534 39.499945"></polygon>
                <polygon id="Line-Copy-25" points="84.500055 -0.500055018 85.500055 -0.499944976 85.4956534 39.500055 84.4956534 39.499945"></polygon>
                <polygon id="Line-Copy-26" points="124.500055 -0.500055018 125.500055 -0.499944976 125.495653 39.500055 124.495653 39.499945"></polygon>
                <polygon id="Line-Copy-27" points="164.500055 -0.500055018 165.500055 -0.499944976 165.495653 39.500055 164.495653 39.499945"></polygon>
                <polygon id="Line-Copy-28" points="204.500055 -0.500055018 205.500055 -0.499944976 205.495653 39.500055 204.495653 39.499945"></polygon>
                <polygon id="Line-Copy-29" points="244.500055 -0.500055018 245.500055 -0.499944976 245.495653 39.500055 244.495653 39.499945"></polygon>
                <polygon id="Line-Copy-30" points="284.500055 -0.500055018 285.500055 -0.499944976 285.495653 39.500055 284.495653 39.499945"></polygon>
                <polygon id="Line-Copy-31" points="323.500055 -0.500055018 324.500055 -0.499944976 324.495653 39.500055 323.495653 39.499945"></polygon>
            </g>
        </g>
    </g>
</svg>