<?xml version="1.0" encoding="UTF-8"?>
<svg width="336px" height="81px" viewBox="0 0 336 81" version="1.1" xmlns="http://www.w3.org/2000/svg" xmlns:xlink="http://www.w3.org/1999/xlink">
    <title>Group 39</title>
    <g id="Home-&gt;-Issues-Chronology-&gt;-Timeline" stroke="none" stroke-width="1" fill="none" fill-rule="evenodd">
        <g id="Group-39">
            <g id="Group-5-Copy" transform="translate(0.000000, 22.000000)">
                <g id="Group-12-Copy" transform="translate(143.500000, 29.500000) rotate(-270.000000) translate(-143.500000, -29.500000) translate(114.000000, -114.000000)">
                    <rect id="Rectangle" fill="#C5532F" x="0.5" y="-5.68434189e-14" width="8" height="287"></rect>
                    <rect id="Rectangle-Copy-9" fill="#DB7656" x="10.5" y="32" width="8" height="255"></rect>
                    <rect id="Rectangle-Copy-10" fill="#FF9308" x="20.5" y="11" width="8" height="276"></rect>
                    <rect id="Rectangle-Copy-11" fill="#FFBA08" x="30.5" y="192" width="8" height="95"></rect>
                    <rect id="Rectangle-Copy-12" fill="#FFDA7C" x="40.5" y="213" width="8" height="74"></rect>
                    <rect id="Rectangle-Copy-13" fill="#ECE1C4" x="50.5" y="185" width="8" height="102"></rect>
                </g>
                <g id="Group-4" transform="translate(0.000000, 1.000000)" fill="#EFEFEF" fill-rule="nonzero">
                    <polygon id="Line-Copy-15" points="0.00218345353 -0.500037646 1.00218345 -0.499962351 0.997816546 57.4979193 -0.0021834507 57.497844"></polygon>
                    <polygon id="Line-Copy-24" points="44.0021835 -0.500037646 45.0021835 -0.499962351 44.9978165 57.4979193 43.9978165 57.497844"></polygon>
                    <polygon id="Line-Copy-25" points="84.0021835 -0.500037646 85.0021835 -0.499962351 84.9978165 57.4979193 83.9978165 57.497844"></polygon>
                    <polygon id="Line-Copy-26" points="124.002183 -0.500037646 125.002183 -0.499962351 124.997817 57.4979193 123.997817 57.497844"></polygon>
                    <polygon id="Line-Copy-27" points="164.002183 -0.500037646 165.002183 -0.499962351 164.997817 57.4979193 163.997817 57.497844"></polygon>
                    <polygon id="Line-Copy-28" points="204.002183 -0.500037646 205.002183 -0.499962351 204.997817 57.4979193 203.997817 57.497844"></polygon>
                    <polygon id="Line-Copy-29" points="244.002183 -0.500037646 245.002183 -0.499962351 244.997817 57.4979193 243.997817 57.497844"></polygon>
                    <polygon id="Line-Copy-30" points="284.002183 -0.500037646 285.002183 -0.499962351 284.997817 57.4979193 283.997817 57.497844"></polygon>
                    <polygon id="Line-Copy-31" points="323.002183 -0.500037646 324.002183 -0.499962351 323.997817 57.4979193 322.997817 57.497844"></polygon>
                </g>
            </g>
            <path d="M3.59172414,9.16597701 C4.28689655,9.16597701 4.90697318,8.98145594 5.45195402,8.61241379 C5.99693487,8.24337165 6.42390805,7.71340996 6.73287356,7.02252874 C7.04183908,6.33164751 7.19632184,5.51846743 7.19632184,4.58298851 C7.19632184,3.64750958 7.04183908,2.8343295 6.73287356,2.14344828 C6.42390805,1.45256705 5.99693487,0.922605364 5.45195402,0.553563218 C4.90697318,0.184521073 4.28689655,-6.52811138e-13 3.59172414,-6.52811138e-13 C2.89655172,-6.52811138e-13 2.2764751,0.184521073 1.73149425,0.553563218 C1.18651341,0.922605364 0.761685824,1.45256705 0.457011494,2.14344828 C0.152337165,2.8343295 -2.13162821e-14,3.64750958 -2.13162821e-14,4.58298851 C-2.13162821e-14,5.51846743 0.152337165,6.33164751 0.457011494,7.02252874 C0.761685824,7.71340996 1.18651341,8.24337165 1.73149425,8.61241379 C2.2764751,8.98145594 2.89655172,9.16597701 3.59172414,9.16597701 Z M3.59172414,8.31632184 C3.06819923,8.31632184 2.60689655,8.17042146 2.20781609,7.87862069 C1.80873563,7.58681992 1.49762452,7.16199234 1.27448276,6.60413793 C1.051341,6.04628352 0.939770115,5.37256705 0.939770115,4.58298851 C0.939770115,3.79340996 1.051341,3.11969349 1.27448276,2.56183908 C1.49762452,2.00398467 1.80873563,1.57915709 2.20781609,1.28735632 C2.60689655,0.995555556 3.06819923,0.849655172 3.59172414,0.849655172 C4.11524904,0.849655172 4.57655172,0.995555556 4.97563218,1.28735632 C5.37471264,1.57915709 5.68582375,2.00398467 5.90896552,2.56183908 C6.13210728,3.11969349 6.24367816,3.79340996 6.24367816,4.58298851 C6.24367816,5.37256705 6.13210728,6.04628352 5.90896552,6.60413793 C5.68582375,7.16199234 5.37471264,7.58681992 4.97563218,7.87862069 C4.57655172,8.17042146 4.11524904,8.31632184 3.59172414,8.31632184 Z M10.1057471,5.42781609 C10.6314176,5.42781609 11.0594636,5.23256705 11.3898851,4.84206897 C11.7203065,4.45157088 11.8855172,3.93340996 11.8855172,3.28758621 C11.8855172,2.64176245 11.7203065,2.12360153 11.3898851,1.73310345 C11.0594636,1.34260536 10.6314176,1.14735632 10.1057471,1.14735632 C9.57256705,1.14735632 9.14264368,1.34448276 8.81597701,1.73873563 C8.48931034,2.13298851 8.32597701,2.64927203 8.32597701,3.28758621 C8.32597701,3.92590038 8.48931034,4.44218391 8.81597701,4.83643678 C9.14264368,5.23068966 9.57256705,5.42781609 10.1057471,5.42781609 Z M10.162069,9.08873563 L15.5464368,1.20367816 L14.8818391,1.20367816 L9.49747126,9.08873563 L10.162069,9.08873563 Z M10.1057471,4.92091954 C9.7302682,4.92091954 9.43363985,4.77448276 9.21586207,4.4816092 C8.99808429,4.18873563 8.8891954,3.79072797 8.8891954,3.28758621 C8.8891954,2.78444444 8.99808429,2.38643678 9.21586207,2.09356322 C9.43363985,1.80068966 9.7302682,1.65425287 10.1057471,1.65425287 C10.4737165,1.65425287 10.7684674,1.79881226 10.99,2.08793103 C11.2115326,2.37704981 11.3222989,2.77693487 11.3222989,3.28758621 C11.3222989,3.79823755 11.2115326,4.19812261 10.99,4.48724138 C10.7684674,4.77636015 10.4737165,4.92091954 10.1057471,4.92091954 Z M14.9381609,9.14505747 C15.471341,9.14505747 15.9012644,8.94793103 16.227931,8.55367816 C16.5545977,8.15942529 16.717931,7.64314176 16.717931,7.00482759 C16.717931,6.36651341 16.5545977,5.85022989 16.227931,5.45597701 C15.9012644,5.06172414 15.471341,4.8645977 14.9381609,4.8645977 C14.4124904,4.8645977 13.9844444,5.06172414 13.654023,5.45597701 C13.3236015,5.85022989 13.1583908,6.36651341 13.1583908,7.00482759 C13.1583908,7.64314176 13.3236015,8.15942529 13.654023,8.55367816 C13.9844444,8.94793103 14.4124904,9.14505747 14.9381609,9.14505747 Z M14.9381609,8.63816092 C14.5701916,8.63816092 14.2754406,8.49360153 14.053908,8.20448276 C13.8323755,7.91536398 13.7216092,7.51547893 13.7216092,7.00482759 C13.7216092,6.49417625 13.8323755,6.09429119 14.053908,5.80517241 C14.2754406,5.51605364 14.5701916,5.37149425 14.9381609,5.37149425 C15.3136398,5.37149425 15.6102682,5.51793103 15.828046,5.8108046 C16.0458238,6.10367816 16.1547126,6.50168582 16.1547126,7.00482759 C16.1547126,7.50796935 16.0458238,7.90597701 15.828046,8.19885057 C15.6102682,8.49172414 15.3136398,8.63816092 14.9381609,8.63816092 Z" id="0%" fill="#2D3142" fill-rule="nonzero"></path>
            <path d="M44.2611149,9.08873563 L44.2611149,8.26482759 L39.3047931,8.26482759 L42.3687011,5.25241379 C42.9437203,4.69455939 43.3342184,4.2010728 43.5401954,3.77195402 C43.7461724,3.34283525 43.8491609,2.89655172 43.8491609,2.43310345 C43.8491609,1.67785441 43.5809617,1.0835249 43.0445632,0.650114943 C42.5081648,0.216704981 41.7808084,4.74287276e-13 40.8624943,4.74287276e-13 C40.1759042,4.74287276e-13 39.5601188,0.111570881 39.0151379,0.334712644 C38.4701571,0.557854406 38.021728,0.875402299 37.6698506,1.28735632 L37.6698506,1.28735632 L38.3264023,1.8537931 C38.9100038,1.18436782 39.7296207,0.849655172 40.7852529,0.849655172 C41.4632605,0.849655172 41.9846398,0.997701149 42.3493908,1.2937931 C42.7141418,1.58988506 42.8965172,2.00398467 42.8965172,2.53609195 C42.8965172,2.87938697 42.8128391,3.2205364 42.6454828,3.55954023 C42.4781264,3.89854406 42.158433,4.29977011 41.6864023,4.76321839 L41.6864023,4.76321839 L37.9401954,8.43218391 L37.9401954,9.08873563 L44.2611149,9.08873563 Z M47.0031839,5.42781609 C47.5288544,5.42781609 47.9569004,5.23256705 48.2873218,4.84206897 C48.6177433,4.45157088 48.782954,3.93340996 48.782954,3.28758621 C48.782954,2.64176245 48.6177433,2.12360153 48.2873218,1.73310345 C47.9569004,1.34260536 47.5288544,1.14735632 47.0031839,1.14735632 C46.4700038,1.14735632 46.0400805,1.34448276 45.7134138,1.73873563 C45.3867471,2.13298851 45.2234138,2.64927203 45.2234138,3.28758621 C45.2234138,3.92590038 45.3867471,4.44218391 45.7134138,4.83643678 C46.0400805,5.23068966 46.4700038,5.42781609 47.0031839,5.42781609 Z M47.0595057,9.08873563 L52.4438736,1.20367816 L51.7792759,1.20367816 L46.394908,9.08873563 L47.0595057,9.08873563 Z M47.0031839,4.92091954 C46.627705,4.92091954 46.3310766,4.77448276 46.1132989,4.4816092 C45.8955211,4.18873563 45.7866322,3.79072797 45.7866322,3.28758621 C45.7866322,2.78444444 45.8955211,2.38643678 46.1132989,2.09356322 C46.3310766,1.80068966 46.627705,1.65425287 47.0031839,1.65425287 C47.3711533,1.65425287 47.6659042,1.79881226 47.8874368,2.08793103 C48.1089693,2.37704981 48.2197356,2.77693487 48.2197356,3.28758621 C48.2197356,3.79823755 48.1089693,4.19812261 47.8874368,4.48724138 C47.6659042,4.77636015 47.3711533,4.92091954 47.0031839,4.92091954 Z M51.8355977,9.14505747 C52.3687778,9.14505747 52.7987011,8.94793103 53.1253678,8.55367816 C53.4520345,8.15942529 53.6153678,7.64314176 53.6153678,7.00482759 C53.6153678,6.36651341 53.4520345,5.85022989 53.1253678,5.45597701 C52.7987011,5.06172414 52.3687778,4.8645977 51.8355977,4.8645977 C51.3099272,4.8645977 50.8818812,5.06172414 50.5514598,5.45597701 C50.2210383,5.85022989 50.0558276,6.36651341 50.0558276,7.00482759 C50.0558276,7.64314176 50.2210383,8.15942529 50.5514598,8.55367816 C50.8818812,8.94793103 51.3099272,9.14505747 51.8355977,9.14505747 Z M51.8355977,8.63816092 C51.4676284,8.63816092 51.1728774,8.49360153 50.9513448,8.20448276 C50.7298123,7.91536398 50.619046,7.51547893 50.619046,7.00482759 C50.619046,6.49417625 50.7298123,6.09429119 50.9513448,5.80517241 C51.1728774,5.51605364 51.4676284,5.37149425 51.8355977,5.37149425 C52.2110766,5.37149425 52.507705,5.51793103 52.7254828,5.8108046 C52.9432605,6.10367816 53.0521494,6.50168582 53.0521494,7.00482759 C53.0521494,7.50796935 52.9432605,7.90597701 52.7254828,8.19885057 C52.507705,8.49172414 52.2110766,8.63816092 51.8355977,8.63816092 Z" id="2%" fill="#2D3142" fill-rule="nonzero"></path>
            <path d="M159.342161,9.16597701 C160.054498,9.16597701 160.674575,9.06084291 161.202391,8.85057471 C161.730207,8.64030651 162.135724,8.33992337 162.418943,7.94942529 C162.702161,7.5589272 162.84377,7.10191571 162.84377,6.5783908 C162.84377,6.04628352 162.691433,5.59141762 162.386759,5.2137931 C162.082084,4.83616858 161.646529,4.55295019 161.080092,4.36413793 C161.54354,4.18390805 161.899709,3.92429119 162.148598,3.58528736 C162.397487,3.24628352 162.521931,2.84505747 162.521931,2.3816092 C162.521931,1.90099617 162.388904,1.48045977 162.122851,1.12 C161.856797,0.75954023 161.485609,0.482758621 161.009287,0.289655172 C160.532966,0.0965517241 159.977257,-6.52811138e-13 159.342161,-6.52811138e-13 C158.380935,-6.52811138e-13 157.614958,0.214559387 157.04423,0.643678161 C156.473502,1.07279693 156.188138,1.65210728 156.188138,2.3816092 C156.188138,2.84505747 156.308291,3.24628352 156.548598,3.58528736 C156.788904,3.92429119 157.140782,4.18390805 157.60423,4.36413793 C157.037793,4.55295019 156.606529,4.83402299 156.310437,5.20735632 C156.014345,5.58068966 155.866299,6.03770115 155.866299,6.5783908 C155.866299,7.37655172 156.175264,8.00735632 156.793195,8.4708046 C157.411126,8.93425287 158.260782,9.16597701 159.342161,9.16597701 Z M159.342161,4.02942529 C158.646989,4.02942529 158.102008,3.8835249 157.707218,3.59172414 C157.312429,3.29992337 157.115034,2.9051341 157.115034,2.40735632 C157.115034,1.90957854 157.314575,1.51478927 157.713655,1.22298851 C158.112736,0.931187739 158.655571,0.785287356 159.342161,0.785287356 C160.020169,0.785287356 160.563004,0.931187739 160.970667,1.22298851 C161.37833,1.51478927 161.582161,1.91386973 161.582161,2.42022989 C161.582161,2.90942529 161.382621,3.29992337 160.98354,3.59172414 C160.58446,3.8835249 160.037333,4.02942529 159.342161,4.02942529 Z M159.342161,8.38068966 C158.544,8.38068966 157.921778,8.21977011 157.475494,7.89793103 C157.029211,7.57609195 156.806069,7.13195402 156.806069,6.56551724 C156.806069,6.00766284 157.031356,5.56781609 157.481931,5.24597701 C157.932506,4.92413793 158.552582,4.76321839 159.342161,4.76321839 C160.140322,4.76321839 160.76469,4.92413793 161.215264,5.24597701 C161.665839,5.56781609 161.891126,6.00766284 161.891126,6.56551724 C161.891126,7.12337165 161.665839,7.56536398 161.215264,7.89149425 C160.76469,8.21762452 160.140322,8.38068966 159.342161,8.38068966 Z M165.714575,5.42781609 C166.240245,5.42781609 166.668291,5.23256705 166.998713,4.84206897 C167.329134,4.45157088 167.494345,3.93340996 167.494345,3.28758621 C167.494345,2.64176245 167.329134,2.12360153 166.998713,1.73310345 C166.668291,1.34260536 166.240245,1.14735632 165.714575,1.14735632 C165.181395,1.14735632 164.751471,1.34448276 164.424805,1.73873563 C164.098138,2.13298851 163.934805,2.64927203 163.934805,3.28758621 C163.934805,3.92590038 164.098138,4.44218391 164.424805,4.83643678 C164.751471,5.23068966 165.181395,5.42781609 165.714575,5.42781609 Z M165.770897,9.08873563 L171.155264,1.20367816 L170.490667,1.20367816 L165.106299,9.08873563 L165.770897,9.08873563 Z M165.714575,4.92091954 C165.339096,4.92091954 165.042467,4.77448276 164.82469,4.4816092 C164.606912,4.18873563 164.498023,3.79072797 164.498023,3.28758621 C164.498023,2.78444444 164.606912,2.38643678 164.82469,2.09356322 C165.042467,1.80068966 165.339096,1.65425287 165.714575,1.65425287 C166.082544,1.65425287 166.377295,1.79881226 166.598828,2.08793103 C166.82036,2.37704981 166.931126,2.77693487 166.931126,3.28758621 C166.931126,3.79823755 166.82036,4.19812261 166.598828,4.48724138 C166.377295,4.77636015 166.082544,4.92091954 165.714575,4.92091954 Z M170.546989,9.14505747 C171.080169,9.14505747 171.510092,8.94793103 171.836759,8.55367816 C172.163425,8.15942529 172.326759,7.64314176 172.326759,7.00482759 C172.326759,6.36651341 172.163425,5.85022989 171.836759,5.45597701 C171.510092,5.06172414 171.080169,4.8645977 170.546989,4.8645977 C170.021318,4.8645977 169.593272,5.06172414 169.262851,5.45597701 C168.932429,5.85022989 168.767218,6.36651341 168.767218,7.00482759 C168.767218,7.64314176 168.932429,8.15942529 169.262851,8.55367816 C169.593272,8.94793103 170.021318,9.14505747 170.546989,9.14505747 Z M170.546989,8.63816092 C170.179019,8.63816092 169.884268,8.49360153 169.662736,8.20448276 C169.441203,7.91536398 169.330437,7.51547893 169.330437,7.00482759 C169.330437,6.49417625 169.441203,6.09429119 169.662736,5.80517241 C169.884268,5.51605364 170.179019,5.37149425 170.546989,5.37149425 C170.922467,5.37149425 171.219096,5.51793103 171.436874,5.8108046 C171.654651,6.10367816 171.76354,6.50168582 171.76354,7.00482759 C171.76354,7.50796935 171.654651,7.90597701 171.436874,8.19885057 C171.219096,8.49172414 170.922467,8.63816092 170.546989,8.63816092 Z" id="8%" fill="#2D3142" fill-rule="nonzero"></path>
            <path d="M194.496379,9.08873563 L194.496379,0.0772413793 L191.445345,0.0772413793 L191.445345,0.901149425 L193.569483,0.901149425 L193.569483,9.08873563 L194.496379,9.08873563 Z M200.237989,9.16597701 C200.933161,9.16597701 201.553238,8.98145594 202.098218,8.61241379 C202.643199,8.24337165 203.070172,7.71340996 203.379138,7.02252874 C203.688103,6.33164751 203.842586,5.51846743 203.842586,4.58298851 C203.842586,3.64750958 203.688103,2.8343295 203.379138,2.14344828 C203.070172,1.45256705 202.643199,0.922605364 202.098218,0.553563218 C201.553238,0.184521073 200.933161,-6.52811138e-13 200.237989,-6.52811138e-13 C199.542816,-6.52811138e-13 198.922739,0.184521073 198.377759,0.553563218 C197.832778,0.922605364 197.40795,1.45256705 197.103276,2.14344828 C196.798602,2.8343295 196.646264,3.64750958 196.646264,4.58298851 C196.646264,5.51846743 196.798602,6.33164751 197.103276,7.02252874 C197.40795,7.71340996 197.832778,8.24337165 198.377759,8.61241379 C198.922739,8.98145594 199.542816,9.16597701 200.237989,9.16597701 Z M200.237989,8.31632184 C199.714464,8.31632184 199.253161,8.17042146 198.85408,7.87862069 C198.455,7.58681992 198.143889,7.16199234 197.920747,6.60413793 C197.697605,6.04628352 197.586034,5.37256705 197.586034,4.58298851 C197.586034,3.79340996 197.697605,3.11969349 197.920747,2.56183908 C198.143889,2.00398467 198.455,1.57915709 198.85408,1.28735632 C199.253161,0.995555556 199.714464,0.849655172 200.237989,0.849655172 C200.761513,0.849655172 201.222816,0.995555556 201.621897,1.28735632 C202.020977,1.57915709 202.332088,2.00398467 202.55523,2.56183908 C202.778372,3.11969349 202.889943,3.79340996 202.889943,4.58298851 C202.889943,5.37256705 202.778372,6.04628352 202.55523,6.60413793 C202.332088,7.16199234 202.020977,7.58681992 201.621897,7.87862069 C201.222816,8.17042146 200.761513,8.31632184 200.237989,8.31632184 Z M206.752011,5.42781609 C207.277682,5.42781609 207.705728,5.23256705 208.036149,4.84206897 C208.366571,4.45157088 208.531782,3.93340996 208.531782,3.28758621 C208.531782,2.64176245 208.366571,2.12360153 208.036149,1.73310345 C207.705728,1.34260536 207.277682,1.14735632 206.752011,1.14735632 C206.218831,1.14735632 205.788908,1.34448276 205.462241,1.73873563 C205.135575,2.13298851 204.972241,2.64927203 204.972241,3.28758621 C204.972241,3.92590038 205.135575,4.44218391 205.462241,4.83643678 C205.788908,5.23068966 206.218831,5.42781609 206.752011,5.42781609 Z M206.808333,9.08873563 L212.192701,1.20367816 L211.528103,1.20367816 L206.143736,9.08873563 L206.808333,9.08873563 Z M206.752011,4.92091954 C206.376533,4.92091954 206.079904,4.77448276 205.862126,4.4816092 C205.644349,4.18873563 205.53546,3.79072797 205.53546,3.28758621 C205.53546,2.78444444 205.644349,2.38643678 205.862126,2.09356322 C206.079904,1.80068966 206.376533,1.65425287 206.752011,1.65425287 C207.119981,1.65425287 207.414732,1.79881226 207.636264,2.08793103 C207.857797,2.37704981 207.968563,2.77693487 207.968563,3.28758621 C207.968563,3.79823755 207.857797,4.19812261 207.636264,4.48724138 C207.414732,4.77636015 207.119981,4.92091954 206.752011,4.92091954 Z M211.584425,9.14505747 C212.117605,9.14505747 212.547529,8.94793103 212.874195,8.55367816 C213.200862,8.15942529 213.364195,7.64314176 213.364195,7.00482759 C213.364195,6.36651341 213.200862,5.85022989 212.874195,5.45597701 C212.547529,5.06172414 212.117605,4.8645977 211.584425,4.8645977 C211.058755,4.8645977 210.630709,5.06172414 210.300287,5.45597701 C209.969866,5.85022989 209.804655,6.36651341 209.804655,7.00482759 C209.804655,7.64314176 209.969866,8.15942529 210.300287,8.55367816 C210.630709,8.94793103 211.058755,9.14505747 211.584425,9.14505747 Z M211.584425,8.63816092 C211.216456,8.63816092 210.921705,8.49360153 210.700172,8.20448276 C210.47864,7.91536398 210.367874,7.51547893 210.367874,7.00482759 C210.367874,6.49417625 210.47864,6.09429119 210.700172,5.80517241 C210.921705,5.51605364 211.216456,5.37149425 211.584425,5.37149425 C211.959904,5.37149425 212.256533,5.51793103 212.47431,5.8108046 C212.692088,6.10367816 212.800977,6.50168582 212.800977,7.00482759 C212.800977,7.50796935 212.692088,7.90597701 212.47431,8.19885057 C212.256533,8.49172414 211.959904,8.63816092 211.584425,8.63816092 Z" id="10%" fill="#2D3142" fill-rule="nonzero"></path>
            <path d="M119.406793,9.16597701 C119.990395,9.16597701 120.516065,9.05226054 120.983805,8.82482759 C121.451544,8.59739464 121.818441,8.27340996 122.084494,7.85287356 C122.350548,7.43233716 122.483575,6.94743295 122.483575,6.39816092 C122.483575,5.85747126 122.354839,5.38329502 122.097368,4.97563218 C121.839897,4.56796935 121.481582,4.25256705 121.022425,4.02942529 C120.563268,3.80628352 120.037598,3.69471264 119.445414,3.69471264 C118.810318,3.69471264 118.248172,3.82988506 117.758977,4.10022989 C117.269782,4.37057471 116.913613,4.75034483 116.690471,5.23954023 C116.664724,4.96490421 116.651851,4.72030651 116.651851,4.50574713 C116.651851,3.30421456 116.935069,2.38804598 117.501506,1.75724138 C118.067943,1.12643678 118.848939,0.811034483 119.844494,0.811034483 C120.582579,0.811034483 121.16618,0.952643678 121.595299,1.23586207 L121.595299,1.23586207 L121.968632,0.489195402 C121.436525,0.163065134 120.724188,-6.52811138e-13 119.831621,-6.52811138e-13 C119.007713,-6.52811138e-13 118.286793,0.178084291 117.668862,0.534252874 C117.050931,0.890421456 116.570318,1.41609195 116.227023,2.11126437 C115.883728,2.80643678 115.71208,3.65609195 115.71208,4.66022989 C115.71208,6.09348659 116.029628,7.20275862 116.664724,7.98804598 C117.29982,8.77333333 118.213843,9.16597701 119.406793,9.16597701 Z M119.368172,8.38068966 C118.870395,8.38068966 118.441276,8.29057471 118.080816,8.11034483 C117.720356,7.93011494 117.447866,7.69409962 117.263345,7.40229885 C117.078824,7.11049808 116.986563,6.79295019 116.986563,6.44965517 C116.986563,6.08061303 117.085261,5.74590038 117.282655,5.44551724 C117.48005,5.1451341 117.75254,4.90911877 118.100126,4.73747126 C118.447713,4.56582375 118.848939,4.48 119.303805,4.48 C119.998977,4.48 120.550395,4.6559387 120.958057,5.00781609 C121.36572,5.35969349 121.569552,5.83172414 121.569552,6.42390805 C121.569552,7.01609195 121.36572,7.4902682 120.958057,7.84643678 C120.550395,8.20260536 120.020433,8.38068966 119.368172,8.38068966 Z M125.135529,5.42781609 C125.661199,5.42781609 126.089245,5.23256705 126.419667,4.84206897 C126.750088,4.45157088 126.915299,3.93340996 126.915299,3.28758621 C126.915299,2.64176245 126.750088,2.12360153 126.419667,1.73310345 C126.089245,1.34260536 125.661199,1.14735632 125.135529,1.14735632 C124.602349,1.14735632 124.172425,1.34448276 123.845759,1.73873563 C123.519092,2.13298851 123.355759,2.64927203 123.355759,3.28758621 C123.355759,3.92590038 123.519092,4.44218391 123.845759,4.83643678 C124.172425,5.23068966 124.602349,5.42781609 125.135529,5.42781609 Z M125.191851,9.08873563 L130.576218,1.20367816 L129.911621,1.20367816 L124.527253,9.08873563 L125.191851,9.08873563 Z M125.135529,4.92091954 C124.76005,4.92091954 124.463421,4.77448276 124.245644,4.4816092 C124.027866,4.18873563 123.918977,3.79072797 123.918977,3.28758621 C123.918977,2.78444444 124.027866,2.38643678 124.245644,2.09356322 C124.463421,1.80068966 124.76005,1.65425287 125.135529,1.65425287 C125.503498,1.65425287 125.798249,1.79881226 126.019782,2.08793103 C126.241314,2.37704981 126.35208,2.77693487 126.35208,3.28758621 C126.35208,3.79823755 126.241314,4.19812261 126.019782,4.48724138 C125.798249,4.77636015 125.503498,4.92091954 125.135529,4.92091954 Z M129.967943,9.14505747 C130.501123,9.14505747 130.931046,8.94793103 131.257713,8.55367816 C131.584379,8.15942529 131.747713,7.64314176 131.747713,7.00482759 C131.747713,6.36651341 131.584379,5.85022989 131.257713,5.45597701 C130.931046,5.06172414 130.501123,4.8645977 129.967943,4.8645977 C129.442272,4.8645977 129.014226,5.06172414 128.683805,5.45597701 C128.353383,5.85022989 128.188172,6.36651341 128.188172,7.00482759 C128.188172,7.64314176 128.353383,8.15942529 128.683805,8.55367816 C129.014226,8.94793103 129.442272,9.14505747 129.967943,9.14505747 Z M129.967943,8.63816092 C129.599973,8.63816092 129.305222,8.49360153 129.08369,8.20448276 C128.862157,7.91536398 128.751391,7.51547893 128.751391,7.00482759 C128.751391,6.49417625 128.862157,6.09429119 129.08369,5.80517241 C129.305222,5.51605364 129.599973,5.37149425 129.967943,5.37149425 C130.343421,5.37149425 130.64005,5.51793103 130.857828,5.8108046 C131.075605,6.10367816 131.184494,6.50168582 131.184494,7.00482759 C131.184494,7.50796935 131.075605,7.90597701 130.857828,8.19885057 C130.64005,8.49172414 130.343421,8.63816092 129.967943,8.63816092 Z" id="6%" fill="#2D3142" fill-rule="nonzero"></path>
            <path d="M81.745908,9.08873563 L81.745908,6.72 L83.5482069,6.72 L83.5482069,5.89609195 L81.745908,5.89609195 L81.745908,3.81057471 L80.8447586,3.81057471 L80.8447586,5.89609195 L76.9311954,5.89609195 L81.539931,0.0772413793 L80.510046,0.0772413793 L75.733954,6.05057471 L75.733954,6.72 L80.8190115,6.72 L80.8190115,9.08873563 L81.745908,9.08873563 Z M85.9813103,5.42781609 C86.5069808,5.42781609 86.9350268,5.23256705 87.2654483,4.84206897 C87.5958697,4.45157088 87.7610805,3.93340996 87.7610805,3.28758621 C87.7610805,2.64176245 87.5958697,2.12360153 87.2654483,1.73310345 C86.9350268,1.34260536 86.5069808,1.14735632 85.9813103,1.14735632 C85.4481303,1.14735632 85.0182069,1.34448276 84.6915402,1.73873563 C84.3648736,2.13298851 84.2015402,2.64927203 84.2015402,3.28758621 C84.2015402,3.92590038 84.3648736,4.44218391 84.6915402,4.83643678 C85.0182069,5.23068966 85.4481303,5.42781609 85.9813103,5.42781609 Z M86.0376322,9.08873563 L91.422,1.20367816 L90.7574023,1.20367816 L85.3730345,9.08873563 L86.0376322,9.08873563 Z M85.9813103,4.92091954 C85.6058314,4.92091954 85.3092031,4.77448276 85.0914253,4.4816092 C84.8736475,4.18873563 84.7647586,3.79072797 84.7647586,3.28758621 C84.7647586,2.78444444 84.8736475,2.38643678 85.0914253,2.09356322 C85.3092031,1.80068966 85.6058314,1.65425287 85.9813103,1.65425287 C86.3492797,1.65425287 86.6440307,1.79881226 86.8655632,2.08793103 C87.0870958,2.37704981 87.1978621,2.77693487 87.1978621,3.28758621 C87.1978621,3.79823755 87.0870958,4.19812261 86.8655632,4.48724138 C86.6440307,4.77636015 86.3492797,4.92091954 85.9813103,4.92091954 Z M90.8137241,9.14505747 C91.3469042,9.14505747 91.7768276,8.94793103 92.1034943,8.55367816 C92.4301609,8.15942529 92.5934943,7.64314176 92.5934943,7.00482759 C92.5934943,6.36651341 92.4301609,5.85022989 92.1034943,5.45597701 C91.7768276,5.06172414 91.3469042,4.8645977 90.8137241,4.8645977 C90.2880536,4.8645977 89.8600077,5.06172414 89.5295862,5.45597701 C89.1991648,5.85022989 89.033954,6.36651341 89.033954,7.00482759 C89.033954,7.64314176 89.1991648,8.15942529 89.5295862,8.55367816 C89.8600077,8.94793103 90.2880536,9.14505747 90.8137241,9.14505747 Z M90.8137241,8.63816092 C90.4457548,8.63816092 90.1510038,8.49360153 89.9294713,8.20448276 C89.7079387,7.91536398 89.5971724,7.51547893 89.5971724,7.00482759 C89.5971724,6.49417625 89.7079387,6.09429119 89.9294713,5.80517241 C90.1510038,5.51605364 90.4457548,5.37149425 90.8137241,5.37149425 C91.1892031,5.37149425 91.4858314,5.51793103 91.7036092,5.8108046 C91.921387,6.10367816 92.0302759,6.50168582 92.0302759,7.00482759 C92.0302759,7.50796935 91.921387,7.90597701 91.7036092,8.19885057 C91.4858314,8.49172414 91.1892031,8.63816092 90.8137241,8.63816092 Z" id="4%" fill="#2D3142" fill-rule="nonzero"></path>
            <path d="M317.219034,9.08873563 L317.219034,0.0772413793 L314.168,0.0772413793 L314.168,0.901149425 L316.292138,0.901149425 L316.292138,9.08873563 L317.219034,9.08873563 Z M323.063632,9.16597701 C323.647234,9.16597701 324.172904,9.05226054 324.640644,8.82482759 C325.108383,8.59739464 325.47528,8.27340996 325.741333,7.85287356 C326.007387,7.43233716 326.140414,6.94743295 326.140414,6.39816092 C326.140414,5.85747126 326.011678,5.38329502 325.754207,4.97563218 C325.496736,4.56796935 325.138421,4.25256705 324.679264,4.02942529 C324.220107,3.80628352 323.694437,3.69471264 323.102253,3.69471264 C322.467157,3.69471264 321.905011,3.82988506 321.415816,4.10022989 C320.926621,4.37057471 320.570452,4.75034483 320.34731,5.23954023 C320.321563,4.96490421 320.30869,4.72030651 320.30869,4.50574713 C320.30869,3.30421456 320.591908,2.38804598 321.158345,1.75724138 C321.724782,1.12643678 322.505778,0.811034483 323.501333,0.811034483 C324.239418,0.811034483 324.823019,0.952643678 325.252138,1.23586207 L325.252138,1.23586207 L325.625471,0.489195402 C325.093364,0.163065134 324.381027,-6.52811138e-13 323.48846,-6.52811138e-13 C322.664552,-6.52811138e-13 321.943632,0.178084291 321.325701,0.534252874 C320.70777,0.890421456 320.227157,1.41609195 319.883862,2.11126437 C319.540567,2.80643678 319.36892,3.65609195 319.36892,4.66022989 C319.36892,6.09348659 319.686467,7.20275862 320.321563,7.98804598 C320.956659,8.77333333 321.870682,9.16597701 323.063632,9.16597701 Z M323.025011,8.38068966 C322.527234,8.38068966 322.098115,8.29057471 321.737655,8.11034483 C321.377195,7.93011494 321.104705,7.69409962 320.920184,7.40229885 C320.735663,7.11049808 320.643402,6.79295019 320.643402,6.44965517 C320.643402,6.08061303 320.7421,5.74590038 320.939494,5.44551724 C321.136889,5.1451341 321.409379,4.90911877 321.756966,4.73747126 C322.104552,4.56582375 322.505778,4.48 322.960644,4.48 C323.655816,4.48 324.207234,4.6559387 324.614897,5.00781609 C325.022559,5.35969349 325.226391,5.83172414 325.226391,6.42390805 C325.226391,7.01609195 325.022559,7.4902682 324.614897,7.84643678 C324.207234,8.20260536 323.677272,8.38068966 323.025011,8.38068966 Z M328.792368,5.42781609 C329.318038,5.42781609 329.746084,5.23256705 330.076506,4.84206897 C330.406927,4.45157088 330.572138,3.93340996 330.572138,3.28758621 C330.572138,2.64176245 330.406927,2.12360153 330.076506,1.73310345 C329.746084,1.34260536 329.318038,1.14735632 328.792368,1.14735632 C328.259188,1.14735632 327.829264,1.34448276 327.502598,1.73873563 C327.175931,2.13298851 327.012598,2.64927203 327.012598,3.28758621 C327.012598,3.92590038 327.175931,4.44218391 327.502598,4.83643678 C327.829264,5.23068966 328.259188,5.42781609 328.792368,5.42781609 Z M328.84869,9.08873563 L334.233057,1.20367816 L333.56846,1.20367816 L328.184092,9.08873563 L328.84869,9.08873563 Z M328.792368,4.92091954 C328.416889,4.92091954 328.120261,4.77448276 327.902483,4.4816092 C327.684705,4.18873563 327.575816,3.79072797 327.575816,3.28758621 C327.575816,2.78444444 327.684705,2.38643678 327.902483,2.09356322 C328.120261,1.80068966 328.416889,1.65425287 328.792368,1.65425287 C329.160337,1.65425287 329.455088,1.79881226 329.676621,2.08793103 C329.898153,2.37704981 330.00892,2.77693487 330.00892,3.28758621 C330.00892,3.79823755 329.898153,4.19812261 329.676621,4.48724138 C329.455088,4.77636015 329.160337,4.92091954 328.792368,4.92091954 Z M333.624782,9.14505747 C334.157962,9.14505747 334.587885,8.94793103 334.914552,8.55367816 C335.241218,8.15942529 335.404552,7.64314176 335.404552,7.00482759 C335.404552,6.36651341 335.241218,5.85022989 334.914552,5.45597701 C334.587885,5.06172414 334.157962,4.8645977 333.624782,4.8645977 C333.099111,4.8645977 332.671065,5.06172414 332.340644,5.45597701 C332.010222,5.85022989 331.845011,6.36651341 331.845011,7.00482759 C331.845011,7.64314176 332.010222,8.15942529 332.340644,8.55367816 C332.671065,8.94793103 333.099111,9.14505747 333.624782,9.14505747 Z M333.624782,8.63816092 C333.256812,8.63816092 332.962061,8.49360153 332.740529,8.20448276 C332.518996,7.91536398 332.40823,7.51547893 332.40823,7.00482759 C332.40823,6.49417625 332.518996,6.09429119 332.740529,5.80517241 C332.962061,5.51605364 333.256812,5.37149425 333.624782,5.37149425 C334.000261,5.37149425 334.296889,5.51793103 334.514667,5.8108046 C334.732444,6.10367816 334.841333,6.50168582 334.841333,7.00482759 C334.841333,7.50796935 334.732444,7.90597701 334.514667,8.19885057 C334.296889,8.49172414 334.000261,8.63816092 333.624782,8.63816092 Z" id="16%" fill="#2D3142" fill-rule="nonzero"></path>
            <path d="M277.361138,9.08873563 L277.361138,0.0772413793 L274.310103,0.0772413793 L274.310103,0.901149425 L276.434241,0.901149425 L276.434241,9.08873563 L277.361138,9.08873563 Z M285.368494,9.08873563 L285.368494,6.72 L287.170793,6.72 L287.170793,5.89609195 L285.368494,5.89609195 L285.368494,3.81057471 L284.467345,3.81057471 L284.467345,5.89609195 L280.553782,5.89609195 L285.162517,0.0772413793 L284.132632,0.0772413793 L279.35654,6.05057471 L279.35654,6.72 L284.441598,6.72 L284.441598,9.08873563 L285.368494,9.08873563 Z M289.603897,5.42781609 C290.129567,5.42781609 290.557613,5.23256705 290.888034,4.84206897 C291.218456,4.45157088 291.383667,3.93340996 291.383667,3.28758621 C291.383667,2.64176245 291.218456,2.12360153 290.888034,1.73310345 C290.557613,1.34260536 290.129567,1.14735632 289.603897,1.14735632 C289.070716,1.14735632 288.640793,1.34448276 288.314126,1.73873563 C287.98746,2.13298851 287.824126,2.64927203 287.824126,3.28758621 C287.824126,3.92590038 287.98746,4.44218391 288.314126,4.83643678 C288.640793,5.23068966 289.070716,5.42781609 289.603897,5.42781609 Z M289.660218,9.08873563 L295.044586,1.20367816 L294.379989,1.20367816 L288.995621,9.08873563 L289.660218,9.08873563 Z M289.603897,4.92091954 C289.228418,4.92091954 288.931789,4.77448276 288.714011,4.4816092 C288.496234,4.18873563 288.387345,3.79072797 288.387345,3.28758621 C288.387345,2.78444444 288.496234,2.38643678 288.714011,2.09356322 C288.931789,1.80068966 289.228418,1.65425287 289.603897,1.65425287 C289.971866,1.65425287 290.266617,1.79881226 290.488149,2.08793103 C290.709682,2.37704981 290.820448,2.77693487 290.820448,3.28758621 C290.820448,3.79823755 290.709682,4.19812261 290.488149,4.48724138 C290.266617,4.77636015 289.971866,4.92091954 289.603897,4.92091954 Z M294.43631,9.14505747 C294.96949,9.14505747 295.399414,8.94793103 295.72608,8.55367816 C296.052747,8.15942529 296.21608,7.64314176 296.21608,7.00482759 C296.21608,6.36651341 296.052747,5.85022989 295.72608,5.45597701 C295.399414,5.06172414 294.96949,4.8645977 294.43631,4.8645977 C293.91064,4.8645977 293.482594,5.06172414 293.152172,5.45597701 C292.821751,5.85022989 292.65654,6.36651341 292.65654,7.00482759 C292.65654,7.64314176 292.821751,8.15942529 293.152172,8.55367816 C293.482594,8.94793103 293.91064,9.14505747 294.43631,9.14505747 Z M294.43631,8.63816092 C294.068341,8.63816092 293.77359,8.49360153 293.552057,8.20448276 C293.330525,7.91536398 293.219759,7.51547893 293.219759,7.00482759 C293.219759,6.49417625 293.330525,6.09429119 293.552057,5.80517241 C293.77359,5.51605364 294.068341,5.37149425 294.43631,5.37149425 C294.811789,5.37149425 295.108418,5.51793103 295.326195,5.8108046 C295.543973,6.10367816 295.652862,6.50168582 295.652862,7.00482759 C295.652862,7.50796935 295.543973,7.90597701 295.326195,8.19885057 C295.108418,8.49172414 294.811789,8.63816092 294.43631,8.63816092 Z" id="14%" fill="#2D3142" fill-rule="nonzero"></path>
            <path d="M235.533816,9.08873563 L235.533816,0.0772413793 L232.482782,0.0772413793 L232.482782,0.901149425 L234.60692,0.901149425 L234.60692,9.08873563 L235.533816,9.08873563 Z M243.837264,9.08873563 L243.837264,8.26482759 L238.880943,8.26482759 L241.944851,5.25241379 C242.51987,4.69455939 242.910368,4.2010728 243.116345,3.77195402 C243.322322,3.34283525 243.42531,2.89655172 243.42531,2.43310345 C243.42531,1.67785441 243.157111,1.0835249 242.620713,0.650114943 C242.084314,0.216704981 241.356958,4.74287276e-13 240.438644,4.74287276e-13 C239.752054,4.74287276e-13 239.136268,0.111570881 238.591287,0.334712644 C238.046307,0.557854406 237.597877,0.875402299 237.246,1.28735632 L237.246,1.28735632 L237.902552,1.8537931 C238.486153,1.18436782 239.30577,0.849655172 240.361402,0.849655172 C241.03941,0.849655172 241.560789,0.997701149 241.92554,1.2937931 C242.290291,1.58988506 242.472667,2.00398467 242.472667,2.53609195 C242.472667,2.87938697 242.388989,3.2205364 242.221632,3.55954023 C242.054276,3.89854406 241.734582,4.29977011 241.262552,4.76321839 L241.262552,4.76321839 L237.516345,8.43218391 L237.516345,9.08873563 L243.837264,9.08873563 Z M246.579333,5.42781609 C247.105004,5.42781609 247.53305,5.23256705 247.863471,4.84206897 C248.193893,4.45157088 248.359103,3.93340996 248.359103,3.28758621 C248.359103,2.64176245 248.193893,2.12360153 247.863471,1.73310345 C247.53305,1.34260536 247.105004,1.14735632 246.579333,1.14735632 C246.046153,1.14735632 245.61623,1.34448276 245.289563,1.73873563 C244.962897,2.13298851 244.799563,2.64927203 244.799563,3.28758621 C244.799563,3.92590038 244.962897,4.44218391 245.289563,4.83643678 C245.61623,5.23068966 246.046153,5.42781609 246.579333,5.42781609 Z M246.635655,9.08873563 L252.020023,1.20367816 L251.355425,1.20367816 L245.971057,9.08873563 L246.635655,9.08873563 Z M246.579333,4.92091954 C246.203854,4.92091954 245.907226,4.77448276 245.689448,4.4816092 C245.47167,4.18873563 245.362782,3.79072797 245.362782,3.28758621 C245.362782,2.78444444 245.47167,2.38643678 245.689448,2.09356322 C245.907226,1.80068966 246.203854,1.65425287 246.579333,1.65425287 C246.947303,1.65425287 247.242054,1.79881226 247.463586,2.08793103 C247.685119,2.37704981 247.795885,2.77693487 247.795885,3.28758621 C247.795885,3.79823755 247.685119,4.19812261 247.463586,4.48724138 C247.242054,4.77636015 246.947303,4.92091954 246.579333,4.92091954 Z M251.411747,9.14505747 C251.944927,9.14505747 252.374851,8.94793103 252.701517,8.55367816 C253.028184,8.15942529 253.191517,7.64314176 253.191517,7.00482759 C253.191517,6.36651341 253.028184,5.85022989 252.701517,5.45597701 C252.374851,5.06172414 251.944927,4.8645977 251.411747,4.8645977 C250.886077,4.8645977 250.458031,5.06172414 250.127609,5.45597701 C249.797188,5.85022989 249.631977,6.36651341 249.631977,7.00482759 C249.631977,7.64314176 249.797188,8.15942529 250.127609,8.55367816 C250.458031,8.94793103 250.886077,9.14505747 251.411747,9.14505747 Z M251.411747,8.63816092 C251.043778,8.63816092 250.749027,8.49360153 250.527494,8.20448276 C250.305962,7.91536398 250.195195,7.51547893 250.195195,7.00482759 C250.195195,6.49417625 250.305962,6.09429119 250.527494,5.80517241 C250.749027,5.51605364 251.043778,5.37149425 251.411747,5.37149425 C251.787226,5.37149425 252.083854,5.51793103 252.301632,5.8108046 C252.51941,6.10367816 252.628299,6.50168582 252.628299,7.00482759 C252.628299,7.50796935 252.51941,7.90597701 252.301632,8.19885057 C252.083854,8.49172414 251.787226,8.63816092 251.411747,8.63816092 Z" id="12%" fill="#2D3142" fill-rule="nonzero"></path>
        </g>
    </g>
</svg>