<?xml version="1.0" encoding="UTF-8"?>
<svg width="336px" height="60px" viewBox="0 0 336 60" version="1.1" xmlns="http://www.w3.org/2000/svg" xmlns:xlink="http://www.w3.org/1999/xlink">
    <title>Group 9 Copy</title>
    <g id="Home-&gt;-Issues-Chronology-&gt;-Timeline" stroke="none" stroke-width="1" fill="none" fill-rule="evenodd">
        <g id="Group-9-Copy" transform="translate(0.000000, 1.000000)">
            <g id="Group-10" transform="translate(95.500000, 29.500000) rotate(-270.000000) translate(-95.500000, -29.500000) translate(66.000000, -66.000000)">
                <rect id="Rectangle-Copy-26" fill="#C5532F" x="0" y="26" width="8" height="165"></rect>
                <rect id="Rectangle-Copy-27" fill="#DB7656" x="11" y="76" width="8" height="115"></rect>
                <rect id="Rectangle-Copy-28" fill="#FF9308" x="21" y="-8.52651283e-14" width="8" height="191"></rect>
                <rect id="Rectangle-Copy-29" fill="#FFBA08" x="31" y="120" width="8" height="71"></rect>
                <rect id="Rectangle-Copy-30" fill="#FFDA7C" x="41" y="13" width="8" height="178"></rect>
                <rect id="Rectangle-Copy-31" fill="#ECE1C4" x="51" y="158" width="8" height="33"></rect>
            </g>
            <g id="Group-4-Copy-3" fill="#EFEFEF" fill-rule="nonzero">
                <polygon id="Line-Copy-15" points="0.00218345353 -0.500037646 1.00218345 -0.499962351 0.997816546 57.4979193 -0.0021834507 57.497844"></polygon>
                <polygon id="Line-Copy-24" points="44.0021835 -0.500037646 45.0021835 -0.499962351 44.9978165 57.4979193 43.9978165 57.497844"></polygon>
                <polygon id="Line-Copy-25" points="84.0021835 -0.500037646 85.0021835 -0.499962351 84.9978165 57.4979193 83.9978165 57.497844"></polygon>
                <polygon id="Line-Copy-26" points="124.002183 -0.500037646 125.002183 -0.499962351 124.997817 57.4979193 123.997817 57.497844"></polygon>
                <polygon id="Line-Copy-27" points="164.002183 -0.500037646 165.002183 -0.499962351 164.997817 57.4979193 163.997817 57.497844"></polygon>
                <polygon id="Line-Copy-28" points="204.002183 -0.500037646 205.002183 -0.499962351 204.997817 57.4979193 203.997817 57.497844"></polygon>
                <polygon id="Line-Copy-29" points="244.002183 -0.500037646 245.002183 -0.499962351 244.997817 57.4979193 243.997817 57.497844"></polygon>
                <polygon id="Line-Copy-30" points="284.002183 -0.500037646 285.002183 -0.499962351 284.997817 57.4979193 283.997817 57.497844"></polygon>
                <polygon id="Line-Copy-31" points="323.002183 -0.500037646 324.002183 -0.499962351 323.997817 57.4979193 322.997817 57.497844"></polygon>
            </g>
        </g>
    </g>
</svg>