<?xml version="1.0" encoding="UTF-8"?>
<svg width="351px" height="101px" viewBox="0 0 351 82" version="1.1" xmlns="http://www.w3.org/2000/svg" xmlns:xlink="http://www.w3.org/1999/xlink">
    <title>Group 17</title>
    <g id="Home-&gt;-Chronology-&gt;-Timeline" stroke="none" stroke-width="1" fill="none" fill-rule="evenodd">
        <g id="Mobile/Timeline/School-years/Family-circumstances" transform="translate(-12.000000, -9701.000000)">
            <g id="Group-17" transform="translate(12.000000, 9701.000000)">
                <g id="Group-15" transform="translate(0.000000, 42.000000)">
                    <polygon id="Rectangle-Copy-41" fill="#C5532F" transform="translate(22.000000, 4.000000) rotate(-270.000000) translate(-22.000000, -4.000000) " points="18 -17 26 -17 26 25 18 25"></polygon>
                    <polygon id="Rectangle-Copy-43" fill="#DB7656" transform="translate(18.000000, 14.000000) rotate(-270.000000) translate(-18.000000, -14.000000) " points="14 -3 22 -3 22 31 14 31"></polygon>
                    <polygon id="Rectangle-Copy-44" fill="#FF9308" transform="translate(6.000000, 24.000000) rotate(-270.000000) translate(-6.000000, -24.000000) " points="2 19 10 19 10 29 2 29"></polygon>
                    <polygon id="Rectangle-Copy-45" fill="#FFBA08" transform="translate(13.000000, 34.500000) rotate(-270.000000) translate(-13.000000, -34.500000) " points="9 22 17 22 17 47 9 47"></polygon>
                </g>
                <path d="M6.296,21.096 C7.16,21.096 7.93066667,20.8666667 8.608,20.408 C9.28533333,19.9493333 9.816,19.2906667 10.2,18.432 C10.584,17.5733333 10.776,16.5626667 10.776,15.4 C10.776,14.2373333 10.584,13.2266667 10.2,12.368 C9.816,11.5093333 9.28533333,10.8506667 8.608,10.392 C7.93066667,9.93333333 7.16,9.704 6.296,9.704 C5.432,9.704 4.66133333,9.93333333 3.984,10.392 C3.30666667,10.8506667 2.77866667,11.5093333 2.4,12.368 C2.02133333,13.2266667 1.832,14.2373333 1.832,15.4 C1.832,16.5626667 2.02133333,17.5733333 2.4,18.432 C2.77866667,19.2906667 3.30666667,19.9493333 3.984,20.408 C4.66133333,20.8666667 5.432,21.096 6.296,21.096 Z M6.296,20.04 C5.64533333,20.04 5.072,19.8586667 4.576,19.496 C4.08,19.1333333 3.69333333,18.6053333 3.416,17.912 C3.13866667,17.2186667 3,16.3813333 3,15.4 C3,14.4186667 3.13866667,13.5813333 3.416,12.888 C3.69333333,12.1946667 4.08,11.6666667 4.576,11.304 C5.072,10.9413333 5.64533333,10.76 6.296,10.76 C6.94666667,10.76 7.52,10.9413333 8.016,11.304 C8.512,11.6666667 8.89866667,12.1946667 9.176,12.888 C9.45333333,13.5813333 9.592,14.4186667 9.592,15.4 C9.592,16.3813333 9.45333333,17.2186667 9.176,17.912 C8.89866667,18.6053333 8.512,19.1333333 8.016,19.496 C7.52,19.8586667 6.94666667,20.04 6.296,20.04 Z M14.392,16.45 C15.0453333,16.45 15.5773333,16.2073333 15.988,15.722 C16.3986667,15.2366667 16.604,14.5926667 16.604,13.79 C16.604,12.9873333 16.3986667,12.3433333 15.988,11.858 C15.5773333,11.3726667 15.0453333,11.13 14.392,11.13 C13.7293333,11.13 13.195,11.375 12.789,11.865 C12.383,12.355 12.18,12.9966667 12.18,13.79 C12.18,14.5833333 12.383,15.225 12.789,15.715 C13.195,16.205 13.7293333,16.45 14.392,16.45 Z M14.462,21 L21.154,11.2 L20.328,11.2 L13.636,21 L14.462,21 Z M14.392,15.82 C13.9253333,15.82 13.5566667,15.638 13.286,15.274 C13.0153333,14.91 12.88,14.4153333 12.88,13.79 C12.88,13.1646667 13.0153333,12.67 13.286,12.306 C13.5566667,11.942 13.9253333,11.76 14.392,11.76 C14.8493333,11.76 15.2156667,11.9396667 15.491,12.299 C15.7663333,12.6583333 15.904,13.1553333 15.904,13.79 C15.904,14.4246667 15.7663333,14.9216667 15.491,15.281 C15.2156667,15.6403333 14.8493333,15.82 14.392,15.82 Z M20.398,21.07 C21.0606667,21.07 21.595,20.825 22.001,20.335 C22.407,19.845 22.61,19.2033333 22.61,18.41 C22.61,17.6166667 22.407,16.975 22.001,16.485 C21.595,15.995 21.0606667,15.75 20.398,15.75 C19.7446667,15.75 19.2126667,15.995 18.802,16.485 C18.3913333,16.975 18.186,17.6166667 18.186,18.41 C18.186,19.2033333 18.3913333,19.845 18.802,20.335 C19.2126667,20.825 19.7446667,21.07 20.398,21.07 Z M20.398,20.44 C19.9406667,20.44 19.5743333,20.2603333 19.299,19.901 C19.0236667,19.5416667 18.886,19.0446667 18.886,18.41 C18.886,17.7753333 19.0236667,17.2783333 19.299,16.919 C19.5743333,16.5596667 19.9406667,16.38 20.398,16.38 C20.8646667,16.38 21.2333333,16.562 21.504,16.926 C21.7746667,17.29 21.91,17.7846667 21.91,18.41 C21.91,19.0353333 21.7746667,19.53 21.504,19.894 C21.2333333,20.258 20.8646667,20.44 20.398,20.44 Z" id="0%" fill="#2D3142" fill-rule="nonzero"></path>
                <path d="M49.48,21 L49.48,19.976 L43.32,19.976 L47.128,16.232 C47.8426667,15.5386667 48.328,14.9253333 48.584,14.392 C48.84,13.8586667 48.968,13.304 48.968,12.728 C48.968,11.7893333 48.6346667,11.0506667 47.968,10.512 C47.3013333,9.97333333 46.3973333,9.704 45.256,9.704 C44.4026667,9.704 43.6373333,9.84266667 42.96,10.12 C42.2826667,10.3973333 41.7253333,10.792 41.288,11.304 L41.288,11.304 L42.104,12.008 C42.8293333,11.176 43.848,10.76 45.16,10.76 C46.0026667,10.76 46.6506667,10.944 47.104,11.312 C47.5573333,11.68 47.784,12.1946667 47.784,12.856 C47.784,13.2826667 47.68,13.7066667 47.472,14.128 C47.264,14.5493333 46.8666667,15.048 46.28,15.624 L46.28,15.624 L41.624,20.184 L41.624,21 L49.48,21 Z M52.888,16.45 C53.5413333,16.45 54.0733333,16.2073333 54.484,15.722 C54.8946667,15.2366667 55.1,14.5926667 55.1,13.79 C55.1,12.9873333 54.8946667,12.3433333 54.484,11.858 C54.0733333,11.3726667 53.5413333,11.13 52.888,11.13 C52.2253333,11.13 51.691,11.375 51.285,11.865 C50.879,12.355 50.676,12.9966667 50.676,13.79 C50.676,14.5833333 50.879,15.225 51.285,15.715 C51.691,16.205 52.2253333,16.45 52.888,16.45 Z M52.958,21 L59.65,11.2 L58.824,11.2 L52.132,21 L52.958,21 Z M52.888,15.82 C52.4213333,15.82 52.0526667,15.638 51.782,15.274 C51.5113333,14.91 51.376,14.4153333 51.376,13.79 C51.376,13.1646667 51.5113333,12.67 51.782,12.306 C52.0526667,11.942 52.4213333,11.76 52.888,11.76 C53.3453333,11.76 53.7116667,11.9396667 53.987,12.299 C54.2623333,12.6583333 54.4,13.1553333 54.4,13.79 C54.4,14.4246667 54.2623333,14.9216667 53.987,15.281 C53.7116667,15.6403333 53.3453333,15.82 52.888,15.82 Z M58.894,21.07 C59.5566667,21.07 60.091,20.825 60.497,20.335 C60.903,19.845 61.106,19.2033333 61.106,18.41 C61.106,17.6166667 60.903,16.975 60.497,16.485 C60.091,15.995 59.5566667,15.75 58.894,15.75 C58.2406667,15.75 57.7086667,15.995 57.298,16.485 C56.8873333,16.975 56.682,17.6166667 56.682,18.41 C56.682,19.2033333 56.8873333,19.845 57.298,20.335 C57.7086667,20.825 58.2406667,21.07 58.894,21.07 Z M58.894,20.44 C58.4366667,20.44 58.0703333,20.2603333 57.795,19.901 C57.5196667,19.5416667 57.382,19.0446667 57.382,18.41 C57.382,17.7753333 57.5196667,17.2783333 57.795,16.919 C58.0703333,16.5596667 58.4366667,16.38 58.894,16.38 C59.3606667,16.38 59.7293333,16.562 60,16.926 C60.2706667,17.29 60.406,17.7846667 60.406,18.41 C60.406,19.0353333 60.2706667,19.53 60,19.894 C59.7293333,20.258 59.3606667,20.44 58.894,20.44 Z" id="2%" fill="#2D3142" fill-rule="nonzero"></path>
                <g id="Group-4-Copy-6" transform="translate(0.000000, 42.000000)" fill="#EFEFEF" fill-rule="nonzero">
                    <polygon id="Line-Copy-15" points="0.500055024 -0.500055018 1.50005502 -0.499944976 1.49565337 39.500055 0.495653372 39.499945"></polygon>
                    <polygon id="Line-Copy-24" points="44.500055 -0.500055018 45.500055 -0.499944976 45.4956534 39.500055 44.4956534 39.499945"></polygon>
                    <polygon id="Line-Copy-25" points="84.500055 -0.500055018 85.500055 -0.499944976 85.4956534 39.500055 84.4956534 39.499945"></polygon>
                    <polygon id="Line-Copy-26" points="124.500055 -0.500055018 125.500055 -0.499944976 125.495653 39.500055 124.495653 39.499945"></polygon>
                    <polygon id="Line-Copy-27" points="164.500055 -0.500055018 165.500055 -0.499944976 165.495653 39.500055 164.495653 39.499945"></polygon>
                    <polygon id="Line-Copy-28" points="204.500055 -0.500055018 205.500055 -0.499944976 205.495653 39.500055 204.495653 39.499945"></polygon>
                    <polygon id="Line-Copy-29" points="244.500055 -0.500055018 245.500055 -0.499944976 245.495653 39.500055 244.495653 39.499945"></polygon>
                    <polygon id="Line-Copy-30" points="284.500055 -0.500055018 285.500055 -0.499944976 285.495653 39.500055 284.495653 39.499945"></polygon>
                    <polygon id="Line-Copy-31" points="323.500055 -0.500055018 324.500055 -0.499944976 324.495653 39.500055 323.495653 39.499945"></polygon>
                </g>
                <path d="M166.088,21.096 C166.973333,21.096 167.744,20.9653333 168.4,20.704 C169.056,20.4426667 169.56,20.0693333 169.912,19.584 C170.264,19.0986667 170.44,18.5306667 170.44,17.88 C170.44,17.2186667 170.250667,16.6533333 169.872,16.184 C169.493333,15.7146667 168.952,15.3626667 168.248,15.128 C168.824,14.904 169.266667,14.5813333 169.576,14.16 C169.885333,13.7386667 170.04,13.24 170.04,12.664 C170.04,12.0666667 169.874667,11.544 169.544,11.096 C169.213333,10.648 168.752,10.304 168.16,10.064 C167.568,9.824 166.877333,9.704 166.088,9.704 C164.893333,9.704 163.941333,9.97066667 163.232,10.504 C162.522667,11.0373333 162.168,11.7573333 162.168,12.664 C162.168,13.24 162.317333,13.7386667 162.616,14.16 C162.914667,14.5813333 163.352,14.904 163.928,15.128 C163.224,15.3626667 162.688,15.712 162.32,16.176 C161.952,16.64 161.768,17.208 161.768,17.88 C161.768,18.872 162.152,19.656 162.92,20.232 C163.688,20.808 164.744,21.096 166.088,21.096 Z M166.088,14.712 C165.224,14.712 164.546667,14.5306667 164.056,14.168 C163.565333,13.8053333 163.32,13.3146667 163.32,12.696 C163.32,12.0773333 163.568,11.5866667 164.064,11.224 C164.56,10.8613333 165.234667,10.68 166.088,10.68 C166.930667,10.68 167.605333,10.8613333 168.112,11.224 C168.618667,11.5866667 168.872,12.0826667 168.872,12.712 C168.872,13.32 168.624,13.8053333 168.128,14.168 C167.632,14.5306667 166.952,14.712 166.088,14.712 Z M166.088,20.12 C165.096,20.12 164.322667,19.92 163.768,19.52 C163.213333,19.12 162.936,18.568 162.936,17.864 C162.936,17.1706667 163.216,16.624 163.776,16.224 C164.336,15.824 165.106667,15.624 166.088,15.624 C167.08,15.624 167.856,15.824 168.416,16.224 C168.976,16.624 169.256,17.1706667 169.256,17.864 C169.256,18.5573333 168.976,19.1066667 168.416,19.512 C167.856,19.9173333 167.08,20.12 166.088,20.12 Z M174.008,16.45 C174.661333,16.45 175.193333,16.2073333 175.604,15.722 C176.014667,15.2366667 176.22,14.5926667 176.22,13.79 C176.22,12.9873333 176.014667,12.3433333 175.604,11.858 C175.193333,11.3726667 174.661333,11.13 174.008,11.13 C173.345333,11.13 172.811,11.375 172.405,11.865 C171.999,12.355 171.796,12.9966667 171.796,13.79 C171.796,14.5833333 171.999,15.225 172.405,15.715 C172.811,16.205 173.345333,16.45 174.008,16.45 Z M174.078,21 L180.77,11.2 L179.944,11.2 L173.252,21 L174.078,21 Z M174.008,15.82 C173.541333,15.82 173.172667,15.638 172.902,15.274 C172.631333,14.91 172.496,14.4153333 172.496,13.79 C172.496,13.1646667 172.631333,12.67 172.902,12.306 C173.172667,11.942 173.541333,11.76 174.008,11.76 C174.465333,11.76 174.831667,11.9396667 175.107,12.299 C175.382333,12.6583333 175.52,13.1553333 175.52,13.79 C175.52,14.4246667 175.382333,14.9216667 175.107,15.281 C174.831667,15.6403333 174.465333,15.82 174.008,15.82 Z M180.014,21.07 C180.676667,21.07 181.211,20.825 181.617,20.335 C182.023,19.845 182.226,19.2033333 182.226,18.41 C182.226,17.6166667 182.023,16.975 181.617,16.485 C181.211,15.995 180.676667,15.75 180.014,15.75 C179.360667,15.75 178.828667,15.995 178.418,16.485 C178.007333,16.975 177.802,17.6166667 177.802,18.41 C177.802,19.2033333 178.007333,19.845 178.418,20.335 C178.828667,20.825 179.360667,21.07 180.014,21.07 Z M180.014,20.44 C179.556667,20.44 179.190333,20.2603333 178.915,19.901 C178.639667,19.5416667 178.502,19.0446667 178.502,18.41 C178.502,17.7753333 178.639667,17.2783333 178.915,16.919 C179.190333,16.5596667 179.556667,16.38 180.014,16.38 C180.480667,16.38 180.849333,16.562 181.12,16.926 C181.390667,17.29 181.526,17.7846667 181.526,18.41 C181.526,19.0353333 181.390667,19.53 181.12,19.894 C180.849333,20.258 180.480667,20.44 180.014,20.44 Z" id="8%" fill="#2D3142" fill-rule="nonzero"></path>
                <path d="M205.936,21 L205.936,9.8 L202.144,9.8 L202.144,10.824 L204.784,10.824 L204.784,21 L205.936,21 Z M213.072,21.096 C213.936,21.096 214.706667,20.8666667 215.384,20.408 C216.061333,19.9493333 216.592,19.2906667 216.976,18.432 C217.36,17.5733333 217.552,16.5626667 217.552,15.4 C217.552,14.2373333 217.36,13.2266667 216.976,12.368 C216.592,11.5093333 216.061333,10.8506667 215.384,10.392 C214.706667,9.93333333 213.936,9.704 213.072,9.704 C212.208,9.704 211.437333,9.93333333 210.76,10.392 C210.082667,10.8506667 209.554667,11.5093333 209.176,12.368 C208.797333,13.2266667 208.608,14.2373333 208.608,15.4 C208.608,16.5626667 208.797333,17.5733333 209.176,18.432 C209.554667,19.2906667 210.082667,19.9493333 210.76,20.408 C211.437333,20.8666667 212.208,21.096 213.072,21.096 Z M213.072,20.04 C212.421333,20.04 211.848,19.8586667 211.352,19.496 C210.856,19.1333333 210.469333,18.6053333 210.192,17.912 C209.914667,17.2186667 209.776,16.3813333 209.776,15.4 C209.776,14.4186667 209.914667,13.5813333 210.192,12.888 C210.469333,12.1946667 210.856,11.6666667 211.352,11.304 C211.848,10.9413333 212.421333,10.76 213.072,10.76 C213.722667,10.76 214.296,10.9413333 214.792,11.304 C215.288,11.6666667 215.674667,12.1946667 215.952,12.888 C216.229333,13.5813333 216.368,14.4186667 216.368,15.4 C216.368,16.3813333 216.229333,17.2186667 215.952,17.912 C215.674667,18.6053333 215.288,19.1333333 214.792,19.496 C214.296,19.8586667 213.722667,20.04 213.072,20.04 Z M221.168,16.45 C221.821333,16.45 222.353333,16.2073333 222.764,15.722 C223.174667,15.2366667 223.38,14.5926667 223.38,13.79 C223.38,12.9873333 223.174667,12.3433333 222.764,11.858 C222.353333,11.3726667 221.821333,11.13 221.168,11.13 C220.505333,11.13 219.971,11.375 219.565,11.865 C219.159,12.355 218.956,12.9966667 218.956,13.79 C218.956,14.5833333 219.159,15.225 219.565,15.715 C219.971,16.205 220.505333,16.45 221.168,16.45 Z M221.238,21 L227.93,11.2 L227.104,11.2 L220.412,21 L221.238,21 Z M221.168,15.82 C220.701333,15.82 220.332667,15.638 220.062,15.274 C219.791333,14.91 219.656,14.4153333 219.656,13.79 C219.656,13.1646667 219.791333,12.67 220.062,12.306 C220.332667,11.942 220.701333,11.76 221.168,11.76 C221.625333,11.76 221.991667,11.9396667 222.267,12.299 C222.542333,12.6583333 222.68,13.1553333 222.68,13.79 C222.68,14.4246667 222.542333,14.9216667 222.267,15.281 C221.991667,15.6403333 221.625333,15.82 221.168,15.82 Z M227.174,21.07 C227.836667,21.07 228.371,20.825 228.777,20.335 C229.183,19.845 229.386,19.2033333 229.386,18.41 C229.386,17.6166667 229.183,16.975 228.777,16.485 C228.371,15.995 227.836667,15.75 227.174,15.75 C226.520667,15.75 225.988667,15.995 225.578,16.485 C225.167333,16.975 224.962,17.6166667 224.962,18.41 C224.962,19.2033333 225.167333,19.845 225.578,20.335 C225.988667,20.825 226.520667,21.07 227.174,21.07 Z M227.174,20.44 C226.716667,20.44 226.350333,20.2603333 226.075,19.901 C225.799667,19.5416667 225.662,19.0446667 225.662,18.41 C225.662,17.7753333 225.799667,17.2783333 226.075,16.919 C226.350333,16.5596667 226.716667,16.38 227.174,16.38 C227.640667,16.38 228.009333,16.562 228.28,16.926 C228.550667,17.29 228.686,17.7846667 228.686,18.41 C228.686,19.0353333 228.550667,19.53 228.28,19.894 C228.009333,20.258 227.640667,20.44 227.174,20.44 Z" id="10%" fill="#2D3142" fill-rule="nonzero"></path>
                <path d="M125.424,21.096 C126.149333,21.096 126.802667,20.9546667 127.384,20.672 C127.965333,20.3893333 128.421333,19.9866667 128.752,19.464 C129.082667,18.9413333 129.248,18.3386667 129.248,17.656 C129.248,16.984 129.088,16.3946667 128.768,15.888 C128.448,15.3813333 128.002667,14.9893333 127.432,14.712 C126.861333,14.4346667 126.208,14.296 125.472,14.296 C124.682667,14.296 123.984,14.464 123.376,14.8 C122.768,15.136 122.325333,15.608 122.048,16.216 C122.016,15.8746667 122,15.5706667 122,15.304 C122,13.8106667 122.352,12.672 123.056,11.888 C123.76,11.104 124.730667,10.712 125.968,10.712 C126.885333,10.712 127.610667,10.888 128.144,11.24 L128.144,11.24 L128.608,10.312 C127.946667,9.90666667 127.061333,9.704 125.952,9.704 C124.928,9.704 124.032,9.92533333 123.264,10.368 C122.496,10.8106667 121.898667,11.464 121.472,12.328 C121.045333,13.192 120.832,14.248 120.832,15.496 C120.832,17.2773333 121.226667,18.656 122.016,19.632 C122.805333,20.608 123.941333,21.096 125.424,21.096 Z M125.376,20.12 C124.757333,20.12 124.224,20.008 123.776,19.784 C123.328,19.56 122.989333,19.2666667 122.76,18.904 C122.530667,18.5413333 122.416,18.1466667 122.416,17.72 C122.416,17.2613333 122.538667,16.8453333 122.784,16.472 C123.029333,16.0986667 123.368,15.8053333 123.8,15.592 C124.232,15.3786667 124.730667,15.272 125.296,15.272 C126.16,15.272 126.845333,15.4906667 127.352,15.928 C127.858667,16.3653333 128.112,16.952 128.112,17.688 C128.112,18.424 127.858667,19.0133333 127.352,19.456 C126.845333,19.8986667 126.186667,20.12 125.376,20.12 Z M132.544,16.45 C133.197333,16.45 133.729333,16.2073333 134.14,15.722 C134.550667,15.2366667 134.756,14.5926667 134.756,13.79 C134.756,12.9873333 134.550667,12.3433333 134.14,11.858 C133.729333,11.3726667 133.197333,11.13 132.544,11.13 C131.881333,11.13 131.347,11.375 130.941,11.865 C130.535,12.355 130.332,12.9966667 130.332,13.79 C130.332,14.5833333 130.535,15.225 130.941,15.715 C131.347,16.205 131.881333,16.45 132.544,16.45 Z M132.614,21 L139.306,11.2 L138.48,11.2 L131.788,21 L132.614,21 Z M132.544,15.82 C132.077333,15.82 131.708667,15.638 131.438,15.274 C131.167333,14.91 131.032,14.4153333 131.032,13.79 C131.032,13.1646667 131.167333,12.67 131.438,12.306 C131.708667,11.942 132.077333,11.76 132.544,11.76 C133.001333,11.76 133.367667,11.9396667 133.643,12.299 C133.918333,12.6583333 134.056,13.1553333 134.056,13.79 C134.056,14.4246667 133.918333,14.9216667 133.643,15.281 C133.367667,15.6403333 133.001333,15.82 132.544,15.82 Z M138.55,21.07 C139.212667,21.07 139.747,20.825 140.153,20.335 C140.559,19.845 140.762,19.2033333 140.762,18.41 C140.762,17.6166667 140.559,16.975 140.153,16.485 C139.747,15.995 139.212667,15.75 138.55,15.75 C137.896667,15.75 137.364667,15.995 136.954,16.485 C136.543333,16.975 136.338,17.6166667 136.338,18.41 C136.338,19.2033333 136.543333,19.845 136.954,20.335 C137.364667,20.825 137.896667,21.07 138.55,21.07 Z M138.55,20.44 C138.092667,20.44 137.726333,20.2603333 137.451,19.901 C137.175667,19.5416667 137.038,19.0446667 137.038,18.41 C137.038,17.7753333 137.175667,17.2783333 137.451,16.919 C137.726333,16.5596667 138.092667,16.38 138.55,16.38 C139.016667,16.38 139.385333,16.562 139.656,16.926 C139.926667,17.29 140.062,17.7846667 140.062,18.41 C140.062,19.0353333 139.926667,19.53 139.656,19.894 C139.385333,20.258 139.016667,20.44 138.55,20.44 Z" id="6%" fill="#2D3142" fill-rule="nonzero"></path>
                <path d="M88.112,21 L88.112,18.056 L90.352,18.056 L90.352,17.032 L88.112,17.032 L88.112,14.44 L86.992,14.44 L86.992,17.032 L82.128,17.032 L87.856,9.8 L86.576,9.8 L80.64,17.224 L80.64,18.056 L86.96,18.056 L86.96,21 L88.112,21 Z M93.376,16.45 C94.0293333,16.45 94.5613333,16.2073333 94.972,15.722 C95.3826667,15.2366667 95.588,14.5926667 95.588,13.79 C95.588,12.9873333 95.3826667,12.3433333 94.972,11.858 C94.5613333,11.3726667 94.0293333,11.13 93.376,11.13 C92.7133333,11.13 92.179,11.375 91.773,11.865 C91.367,12.355 91.164,12.9966667 91.164,13.79 C91.164,14.5833333 91.367,15.225 91.773,15.715 C92.179,16.205 92.7133333,16.45 93.376,16.45 Z M93.446,21 L100.138,11.2 L99.312,11.2 L92.62,21 L93.446,21 Z M93.376,15.82 C92.9093333,15.82 92.5406667,15.638 92.27,15.274 C91.9993333,14.91 91.864,14.4153333 91.864,13.79 C91.864,13.1646667 91.9993333,12.67 92.27,12.306 C92.5406667,11.942 92.9093333,11.76 93.376,11.76 C93.8333333,11.76 94.1996667,11.9396667 94.475,12.299 C94.7503333,12.6583333 94.888,13.1553333 94.888,13.79 C94.888,14.4246667 94.7503333,14.9216667 94.475,15.281 C94.1996667,15.6403333 93.8333333,15.82 93.376,15.82 Z M99.382,21.07 C100.044667,21.07 100.579,20.825 100.985,20.335 C101.391,19.845 101.594,19.2033333 101.594,18.41 C101.594,17.6166667 101.391,16.975 100.985,16.485 C100.579,15.995 100.044667,15.75 99.382,15.75 C98.7286667,15.75 98.1966667,15.995 97.786,16.485 C97.3753333,16.975 97.17,17.6166667 97.17,18.41 C97.17,19.2033333 97.3753333,19.845 97.786,20.335 C98.1966667,20.825 98.7286667,21.07 99.382,21.07 Z M99.382,20.44 C98.9246667,20.44 98.5583333,20.2603333 98.283,19.901 C98.0076667,19.5416667 97.87,19.0446667 97.87,18.41 C97.87,17.7753333 98.0076667,17.2783333 98.283,16.919 C98.5583333,16.5596667 98.9246667,16.38 99.382,16.38 C99.8486667,16.38 100.217333,16.562 100.488,16.926 C100.758667,17.29 100.894,17.7846667 100.894,18.41 C100.894,19.0353333 100.758667,19.53 100.488,19.894 C100.217333,20.258 99.8486667,20.44 99.382,20.44 Z" id="4%" fill="#2D3142" fill-rule="nonzero"></path>
                <path d="M326.936,21 L326.936,9.8 L323.144,9.8 L323.144,10.824 L325.784,10.824 L325.784,21 L326.936,21 Z M334.2,21.096 C334.925333,21.096 335.578667,20.9546667 336.16,20.672 C336.741333,20.3893333 337.197333,19.9866667 337.528,19.464 C337.858667,18.9413333 338.024,18.3386667 338.024,17.656 C338.024,16.984 337.864,16.3946667 337.544,15.888 C337.224,15.3813333 336.778667,14.9893333 336.208,14.712 C335.637333,14.4346667 334.984,14.296 334.248,14.296 C333.458667,14.296 332.76,14.464 332.152,14.8 C331.544,15.136 331.101333,15.608 330.824,16.216 C330.792,15.8746667 330.776,15.5706667 330.776,15.304 C330.776,13.8106667 331.128,12.672 331.832,11.888 C332.536,11.104 333.506667,10.712 334.744,10.712 C335.661333,10.712 336.386667,10.888 336.92,11.24 L336.92,11.24 L337.384,10.312 C336.722667,9.90666667 335.837333,9.704 334.728,9.704 C333.704,9.704 332.808,9.92533333 332.04,10.368 C331.272,10.8106667 330.674667,11.464 330.248,12.328 C329.821333,13.192 329.608,14.248 329.608,15.496 C329.608,17.2773333 330.002667,18.656 330.792,19.632 C331.581333,20.608 332.717333,21.096 334.2,21.096 Z M334.152,20.12 C333.533333,20.12 333,20.008 332.552,19.784 C332.104,19.56 331.765333,19.2666667 331.536,18.904 C331.306667,18.5413333 331.192,18.1466667 331.192,17.72 C331.192,17.2613333 331.314667,16.8453333 331.56,16.472 C331.805333,16.0986667 332.144,15.8053333 332.576,15.592 C333.008,15.3786667 333.506667,15.272 334.072,15.272 C334.936,15.272 335.621333,15.4906667 336.128,15.928 C336.634667,16.3653333 336.888,16.952 336.888,17.688 C336.888,18.424 336.634667,19.0133333 336.128,19.456 C335.621333,19.8986667 334.962667,20.12 334.152,20.12 Z M341.32,16.45 C341.973333,16.45 342.505333,16.2073333 342.916,15.722 C343.326667,15.2366667 343.532,14.5926667 343.532,13.79 C343.532,12.9873333 343.326667,12.3433333 342.916,11.858 C342.505333,11.3726667 341.973333,11.13 341.32,11.13 C340.657333,11.13 340.123,11.375 339.717,11.865 C339.311,12.355 339.108,12.9966667 339.108,13.79 C339.108,14.5833333 339.311,15.225 339.717,15.715 C340.123,16.205 340.657333,16.45 341.32,16.45 Z M341.39,21 L348.082,11.2 L347.256,11.2 L340.564,21 L341.39,21 Z M341.32,15.82 C340.853333,15.82 340.484667,15.638 340.214,15.274 C339.943333,14.91 339.808,14.4153333 339.808,13.79 C339.808,13.1646667 339.943333,12.67 340.214,12.306 C340.484667,11.942 340.853333,11.76 341.32,11.76 C341.777333,11.76 342.143667,11.9396667 342.419,12.299 C342.694333,12.6583333 342.832,13.1553333 342.832,13.79 C342.832,14.4246667 342.694333,14.9216667 342.419,15.281 C342.143667,15.6403333 341.777333,15.82 341.32,15.82 Z M347.326,21.07 C347.988667,21.07 348.523,20.825 348.929,20.335 C349.335,19.845 349.538,19.2033333 349.538,18.41 C349.538,17.6166667 349.335,16.975 348.929,16.485 C348.523,15.995 347.988667,15.75 347.326,15.75 C346.672667,15.75 346.140667,15.995 345.73,16.485 C345.319333,16.975 345.114,17.6166667 345.114,18.41 C345.114,19.2033333 345.319333,19.845 345.73,20.335 C346.140667,20.825 346.672667,21.07 347.326,21.07 Z M347.326,20.44 C346.868667,20.44 346.502333,20.2603333 346.227,19.901 C345.951667,19.5416667 345.814,19.0446667 345.814,18.41 C345.814,17.7753333 345.951667,17.2783333 346.227,16.919 C346.502333,16.5596667 346.868667,16.38 347.326,16.38 C347.792667,16.38 348.161333,16.562 348.432,16.926 C348.702667,17.29 348.838,17.7846667 348.838,18.41 C348.838,19.0353333 348.702667,19.53 348.432,19.894 C348.161333,20.258 347.792667,20.44 347.326,20.44 Z" id="16%" fill="#2D3142" fill-rule="nonzero"></path>
                <path d="M285.936,21 L285.936,9.8 L282.144,9.8 L282.144,10.824 L284.784,10.824 L284.784,21 L285.936,21 Z M295.888,21 L295.888,18.056 L298.128,18.056 L298.128,17.032 L295.888,17.032 L295.888,14.44 L294.768,14.44 L294.768,17.032 L289.904,17.032 L295.632,9.8 L294.352,9.8 L288.416,17.224 L288.416,18.056 L294.736,18.056 L294.736,21 L295.888,21 Z M301.152,16.45 C301.805333,16.45 302.337333,16.2073333 302.748,15.722 C303.158667,15.2366667 303.364,14.5926667 303.364,13.79 C303.364,12.9873333 303.158667,12.3433333 302.748,11.858 C302.337333,11.3726667 301.805333,11.13 301.152,11.13 C300.489333,11.13 299.955,11.375 299.549,11.865 C299.143,12.355 298.94,12.9966667 298.94,13.79 C298.94,14.5833333 299.143,15.225 299.549,15.715 C299.955,16.205 300.489333,16.45 301.152,16.45 Z M301.222,21 L307.914,11.2 L307.088,11.2 L300.396,21 L301.222,21 Z M301.152,15.82 C300.685333,15.82 300.316667,15.638 300.046,15.274 C299.775333,14.91 299.64,14.4153333 299.64,13.79 C299.64,13.1646667 299.775333,12.67 300.046,12.306 C300.316667,11.942 300.685333,11.76 301.152,11.76 C301.609333,11.76 301.975667,11.9396667 302.251,12.299 C302.526333,12.6583333 302.664,13.1553333 302.664,13.79 C302.664,14.4246667 302.526333,14.9216667 302.251,15.281 C301.975667,15.6403333 301.609333,15.82 301.152,15.82 Z M307.158,21.07 C307.820667,21.07 308.355,20.825 308.761,20.335 C309.167,19.845 309.37,19.2033333 309.37,18.41 C309.37,17.6166667 309.167,16.975 308.761,16.485 C308.355,15.995 307.820667,15.75 307.158,15.75 C306.504667,15.75 305.972667,15.995 305.562,16.485 C305.151333,16.975 304.946,17.6166667 304.946,18.41 C304.946,19.2033333 305.151333,19.845 305.562,20.335 C305.972667,20.825 306.504667,21.07 307.158,21.07 Z M307.158,20.44 C306.700667,20.44 306.334333,20.2603333 306.059,19.901 C305.783667,19.5416667 305.646,19.0446667 305.646,18.41 C305.646,17.7753333 305.783667,17.2783333 306.059,16.919 C306.334333,16.5596667 306.700667,16.38 307.158,16.38 C307.624667,16.38 307.993333,16.562 308.264,16.926 C308.534667,17.29 308.67,17.7846667 308.67,18.41 C308.67,19.0353333 308.534667,19.53 308.264,19.894 C307.993333,20.258 307.624667,20.44 307.158,20.44 Z" id="14%" fill="#2D3142" fill-rule="nonzero"></path>
                <path d="M246.936,21 L246.936,9.8 L243.144,9.8 L243.144,10.824 L245.784,10.824 L245.784,21 L246.936,21 Z M257.256,21 L257.256,19.976 L251.096,19.976 L254.904,16.232 C255.618667,15.5386667 256.104,14.9253333 256.36,14.392 C256.616,13.8586667 256.744,13.304 256.744,12.728 C256.744,11.7893333 256.410667,11.0506667 255.744,10.512 C255.077333,9.97333333 254.173333,9.704 253.032,9.704 C252.178667,9.704 251.413333,9.84266667 250.736,10.12 C250.058667,10.3973333 249.501333,10.792 249.064,11.304 L249.064,11.304 L249.88,12.008 C250.605333,11.176 251.624,10.76 252.936,10.76 C253.778667,10.76 254.426667,10.944 254.88,11.312 C255.333333,11.68 255.56,12.1946667 255.56,12.856 C255.56,13.2826667 255.456,13.7066667 255.248,14.128 C255.04,14.5493333 254.642667,15.048 254.056,15.624 L254.056,15.624 L249.4,20.184 L249.4,21 L257.256,21 Z M260.664,16.45 C261.317333,16.45 261.849333,16.2073333 262.26,15.722 C262.670667,15.2366667 262.876,14.5926667 262.876,13.79 C262.876,12.9873333 262.670667,12.3433333 262.26,11.858 C261.849333,11.3726667 261.317333,11.13 260.664,11.13 C260.001333,11.13 259.467,11.375 259.061,11.865 C258.655,12.355 258.452,12.9966667 258.452,13.79 C258.452,14.5833333 258.655,15.225 259.061,15.715 C259.467,16.205 260.001333,16.45 260.664,16.45 Z M260.734,21 L267.426,11.2 L266.6,11.2 L259.908,21 L260.734,21 Z M260.664,15.82 C260.197333,15.82 259.828667,15.638 259.558,15.274 C259.287333,14.91 259.152,14.4153333 259.152,13.79 C259.152,13.1646667 259.287333,12.67 259.558,12.306 C259.828667,11.942 260.197333,11.76 260.664,11.76 C261.121333,11.76 261.487667,11.9396667 261.763,12.299 C262.038333,12.6583333 262.176,13.1553333 262.176,13.79 C262.176,14.4246667 262.038333,14.9216667 261.763,15.281 C261.487667,15.6403333 261.121333,15.82 260.664,15.82 Z M266.67,21.07 C267.332667,21.07 267.867,20.825 268.273,20.335 C268.679,19.845 268.882,19.2033333 268.882,18.41 C268.882,17.6166667 268.679,16.975 268.273,16.485 C267.867,15.995 267.332667,15.75 266.67,15.75 C266.016667,15.75 265.484667,15.995 265.074,16.485 C264.663333,16.975 264.458,17.6166667 264.458,18.41 C264.458,19.2033333 264.663333,19.845 265.074,20.335 C265.484667,20.825 266.016667,21.07 266.67,21.07 Z M266.67,20.44 C266.212667,20.44 265.846333,20.2603333 265.571,19.901 C265.295667,19.5416667 265.158,19.0446667 265.158,18.41 C265.158,17.7753333 265.295667,17.2783333 265.571,16.919 C265.846333,16.5596667 266.212667,16.38 266.67,16.38 C267.136667,16.38 267.505333,16.562 267.776,16.926 C268.046667,17.29 268.182,17.7846667 268.182,18.41 C268.182,19.0353333 268.046667,19.53 267.776,19.894 C267.505333,20.258 267.136667,20.44 266.67,20.44 Z" id="12%" fill="#2D3142" fill-rule="nonzero"></path>
            </g>
        </g>
    </g>
</svg>