<?xml version="1.0" encoding="UTF-8"?>
<svg width="336px" height="60px" viewBox="0 0 336 60" version="1.1" xmlns="http://www.w3.org/2000/svg" xmlns:xlink="http://www.w3.org/1999/xlink">
    <title>Group 6 Copy</title>
    <g id="Home-&gt;-Issues-Chronology-&gt;-Timeline" stroke="none" stroke-width="1" fill="none" fill-rule="evenodd">
        <g id="Group-6-Copy" transform="translate(0.000000, 1.000000)">
            <g id="Group-11" transform="translate(105.000000, 29.500000) rotate(-270.000000) translate(-105.000000, -29.500000) translate(76.000000, -75.000000)">
                <rect id="Rectangle-Copy-14" fill="#C5532F" x="0" y="0" width="8" height="209"></rect>
                <rect id="Rectangle-Copy-15" fill="#DB7656" x="10" y="13" width="8" height="196"></rect>
                <rect id="Rectangle-Copy-16" fill="#FF9308" x="20" y="99" width="8" height="110"></rect>
                <rect id="Rectangle-Copy-17" fill="#FFBA08" x="30" y="51" width="8" height="158"></rect>
                <rect id="Rectangle-Copy-18" fill="#FFDA7C" x="40" y="158" width="8" height="51"></rect>
                <rect id="Rectangle-Copy-19" fill="#ECE1C4" x="50" y="38" width="8" height="171"></rect>
            </g>
            <g id="Group-4-Copy" fill="#EFEFEF" fill-rule="nonzero">
                <polygon id="Line-Copy-15" points="0.00218345353 -0.500037646 1.00218345 -0.499962351 0.997816546 57.4979193 -0.0021834507 57.497844"></polygon>
                <polygon id="Line-Copy-24" points="44.0021835 -0.500037646 45.0021835 -0.499962351 44.9978165 57.4979193 43.9978165 57.497844"></polygon>
                <polygon id="Line-Copy-25" points="84.0021835 -0.500037646 85.0021835 -0.499962351 84.9978165 57.4979193 83.9978165 57.497844"></polygon>
                <polygon id="Line-Copy-26" points="124.002183 -0.500037646 125.002183 -0.499962351 124.997817 57.4979193 123.997817 57.497844"></polygon>
                <polygon id="Line-Copy-27" points="164.002183 -0.500037646 165.002183 -0.499962351 164.997817 57.4979193 163.997817 57.497844"></polygon>
                <polygon id="Line-Copy-28" points="204.002183 -0.500037646 205.002183 -0.499962351 204.997817 57.4979193 203.997817 57.497844"></polygon>
                <polygon id="Line-Copy-29" points="244.002183 -0.500037646 245.002183 -0.499962351 244.997817 57.4979193 243.997817 57.497844"></polygon>
                <polygon id="Line-Copy-30" points="284.002183 -0.500037646 285.002183 -0.499962351 284.997817 57.4979193 283.997817 57.497844"></polygon>
                <polygon id="Line-Copy-31" points="323.002183 -0.500037646 324.002183 -0.499962351 323.997817 57.4979193 322.997817 57.497844"></polygon>
            </g>
        </g>
    </g>
</svg>