<?xml version="1.0" encoding="UTF-8"?>
<svg width="351px" height="308px" viewBox="0 0 351 308" version="1.1" xmlns="http://www.w3.org/2000/svg" xmlns:xlink="http://www.w3.org/1999/xlink">
    <title>Group 32</title>
    <g id="Home-&gt;-Chronology-&gt;-Timeline" stroke="none" stroke-width="1" fill="none" fill-rule="evenodd">
        <g id="Mobile/Timeline/School-years/Early-years-foundation-stage-Copy" transform="translate(-12.000000, -1812.000000)">
            <g id="Group-32" transform="translate(12.000000, 1812.000000)">
                <path d="M205.024345,21.770069 C206.046414,21.770069 206.909793,21.6033103 207.614483,21.2697931 C208.319172,20.9362759 208.843655,20.4924828 209.187931,19.9384138 C209.532207,19.3843448 209.704345,18.7791724 209.704345,18.1228966 C209.704345,17.2729655 209.440759,16.5602069 208.913586,15.9846207 C208.386414,15.4090345 207.627931,15.0405517 206.638138,14.8791724 L206.638138,14.8791724 L209.187931,11.9743448 L209.187931,10.2798621 L201.280345,10.2798621 L201.280345,12.3777931 L206.089448,12.3777931 L203.765586,15.0082759 L203.765586,16.7350345 L204.959793,16.7350345 C206.369172,16.7350345 207.073862,17.1976552 207.073862,18.1228966 C207.073862,18.5855172 206.885586,18.9432414 206.509034,19.196069 C206.132483,19.4488966 205.616069,19.5753103 204.959793,19.5753103 C204.368069,19.5753103 203.789793,19.4865517 203.224966,19.3090345 C202.660138,19.1315172 202.162552,18.8813793 201.732207,18.5586207 L201.732207,18.5586207 L200.715517,20.5597241 C201.253448,20.9470345 201.907034,21.2455862 202.676276,21.4553793 C203.445517,21.6651724 204.228207,21.770069 205.024345,21.770069 Z M214.174552,21.770069 C215.314966,21.770069 216.320897,21.5333793 217.192345,21.06 C218.063793,20.5866207 218.738897,19.8926897 219.217655,18.9782069 C219.696414,18.0637241 219.935793,16.9663448 219.935793,15.686069 C219.935793,13.8786207 219.48931,12.4934483 218.596345,11.5305517 C217.703379,10.5676552 216.466138,10.0862069 214.884621,10.0862069 C214.088483,10.0862069 213.364966,10.2395172 212.714069,10.5461379 C212.063172,10.8527586 211.549448,11.2911724 211.172897,11.8613793 C210.796345,12.4315862 210.608069,13.0932414 210.608069,13.8463448 C210.608069,14.5456552 210.780207,15.1615862 211.124483,15.6941379 C211.468759,16.2266897 211.936759,16.6382069 212.528483,16.9286897 C213.120207,17.2191724 213.776483,17.3644138 214.49731,17.3644138 C215.691517,17.3644138 216.627517,17.0255172 217.30531,16.3477241 C217.262276,17.4128276 216.961034,18.2277931 216.401586,18.7926207 C215.842138,19.3574483 215.083655,19.6398621 214.126138,19.6398621 C213.265448,19.6398621 212.560759,19.4515862 212.012069,19.0750345 L212.012069,19.0750345 L211.043793,20.9954483 C211.431103,21.2428966 211.899103,21.4338621 212.447793,21.5683448 C212.996483,21.7028276 213.572069,21.770069 214.174552,21.770069 Z M215.078276,15.4117241 C214.49731,15.4117241 214.032,15.2584138 213.682345,14.9517931 C213.33269,14.6451724 213.157862,14.2336552 213.157862,13.7172414 C213.157862,13.2008276 213.33269,12.792 213.682345,12.4907586 C214.032,12.1895172 214.486552,12.0388966 215.046,12.0388966 C215.659241,12.0388966 216.14069,12.1948966 216.490345,12.5068966 C216.84,12.8188966 217.014828,13.2223448 217.014828,13.7172414 C217.014828,14.2121379 216.834621,14.6182759 216.474207,14.9356552 C216.113793,15.2530345 215.648483,15.4117241 215.078276,15.4117241 Z M223.403431,17.0295517 C224.128293,17.0295517 224.716655,16.7824397 225.168517,16.2882155 C225.620379,15.7939914 225.84631,15.1326724 225.84631,14.3042586 C225.84631,13.4758448 225.620379,12.8145259 225.168517,12.3203017 C224.716655,11.8260776 224.128293,11.5789655 223.403431,11.5789655 C222.678569,11.5789655 222.087853,11.8260776 221.631284,12.3203017 C221.174716,12.8145259 220.946431,13.4758448 220.946431,14.3042586 C220.946431,15.1326724 221.174716,15.7939914 221.631284,16.2882155 C222.087853,16.7824397 222.678569,17.0295517 223.403431,17.0295517 Z M224.222431,21.5764138 L230.972121,11.691931 L229.291759,11.691931 L222.542069,21.5764138 L224.222431,21.5764138 Z M223.403431,15.8716552 C223.092776,15.8716552 222.84331,15.7375086 222.655034,15.4692155 C222.466759,15.2009224 222.372621,14.8126034 222.372621,14.3042586 C222.372621,13.7959138 222.466759,13.4075948 222.655034,13.1393017 C222.84331,12.8710086 223.092776,12.7368621 223.403431,12.7368621 C223.7235,12.7368621 223.975319,12.8686552 224.158888,13.1322414 C224.342457,13.3958276 224.434241,13.7865 224.434241,14.3042586 C224.434241,14.8220172 224.342457,15.2126897 224.158888,15.4762759 C223.975319,15.7398621 223.7235,15.8716552 223.403431,15.8716552 Z M230.110759,21.6893793 C230.835621,21.6893793 231.426336,21.4422672 231.882905,20.9480431 C232.339474,20.453819 232.567759,19.7925 232.567759,18.9640862 C232.567759,18.1356724 232.339474,17.4743534 231.882905,16.9801293 C231.426336,16.4859052 230.835621,16.2387931 230.110759,16.2387931 C229.640069,16.2387931 229.218802,16.3494052 228.846957,16.5706293 C228.475112,16.7918534 228.185638,17.109569 227.978534,17.5237759 C227.771431,17.9379828 227.667879,18.4180862 227.667879,18.9640862 C227.667879,19.5100862 227.771431,19.9901897 227.978534,20.4043966 C228.185638,20.8186034 228.475112,21.136319 228.846957,21.3575431 C229.218802,21.5787672 229.640069,21.6893793 230.110759,21.6893793 Z M230.110759,20.5314828 C229.800103,20.5314828 229.550638,20.3996897 229.362362,20.1361034 C229.174086,19.8725172 229.079948,19.4818448 229.079948,18.9640862 C229.079948,18.4463276 229.174086,18.0556552 229.362362,17.792069 C229.550638,17.5284828 229.800103,17.3966897 230.110759,17.3966897 C230.430828,17.3966897 230.682647,17.5308362 230.866216,17.7991293 C231.049784,18.0674224 231.141569,18.4557414 231.141569,18.9640862 C231.141569,19.472431 231.049784,19.86075 230.866216,20.1290431 C230.682647,20.3973362 230.430828,20.5314828 230.110759,20.5314828 Z" id="39%" fill="#FFBA08" fill-rule="nonzero"></path>
                <path d="M9.27124138,37.6175172 L9.27124138,36.5846897 L3.05813793,36.5846897 L6.89896552,32.8084138 C7.6197931,32.1091034 8.10931034,31.4904828 8.36751724,30.9525517 C8.62572414,30.4146207 8.75482759,29.8551724 8.75482759,29.2742069 C8.75482759,28.3274483 8.41862069,27.5824138 7.7462069,27.0391034 C7.0737931,26.4957931 6.162,26.2241379 5.01082759,26.2241379 C4.15013793,26.2241379 3.3782069,26.364 2.69503448,26.6437241 C2.01186207,26.9234483 1.44972414,27.3215172 1.00862069,27.837931 L1.00862069,27.837931 L1.83165517,28.548 C2.56324138,27.7088276 3.59068966,27.2892414 4.914,27.2892414 C5.76393103,27.2892414 6.41751724,27.4748276 6.87475862,27.846 C7.332,28.2171724 7.56062069,28.7362759 7.56062069,29.4033103 C7.56062069,29.8336552 7.45572414,30.2613103 7.24593103,30.6862759 C7.03613793,31.1112414 6.63537931,31.6142069 6.04365517,32.1951724 L6.04365517,32.1951724 L1.34751724,36.7944828 L1.34751724,37.6175172 L9.27124138,37.6175172 Z M15.2261379,37.7143448 C16.0975862,37.7143448 16.8748966,37.4830345 17.558069,37.0204138 C18.2412414,36.5577931 18.7764828,35.8934483 19.1637931,35.0273793 C19.5511034,34.1613103 19.7447586,33.141931 19.7447586,31.9692414 C19.7447586,30.7965517 19.5511034,29.7771724 19.1637931,28.9111034 C18.7764828,28.0450345 18.2412414,27.3806897 17.558069,26.918069 C16.8748966,26.4554483 16.0975862,26.2241379 15.2261379,26.2241379 C14.3546897,26.2241379 13.5773793,26.4554483 12.8942069,26.918069 C12.2110345,27.3806897 11.6784828,28.0450345 11.2965517,28.9111034 C10.9146207,29.7771724 10.7236552,30.7965517 10.7236552,31.9692414 C10.7236552,33.141931 10.9146207,34.1613103 11.2965517,35.0273793 C11.6784828,35.8934483 12.2110345,36.5577931 12.8942069,37.0204138 C13.5773793,37.4830345 14.3546897,37.7143448 15.2261379,37.7143448 Z M15.2261379,36.6492414 C14.5698621,36.6492414 13.9915862,36.4663448 13.4913103,36.1005517 C12.9910345,35.7347586 12.6010345,35.2022069 12.3213103,34.5028966 C12.0415862,33.8035862 11.9017241,32.9590345 11.9017241,31.9692414 C11.9017241,30.9794483 12.0415862,30.1348966 12.3213103,29.4355862 C12.6010345,28.7362759 12.9910345,28.2037241 13.4913103,27.837931 C13.9915862,27.4721379 14.5698621,27.2892414 15.2261379,27.2892414 C15.8824138,27.2892414 16.4606897,27.4721379 16.9609655,27.837931 C17.4612414,28.2037241 17.8512414,28.7362759 18.1309655,29.4355862 C18.4106897,30.1348966 18.5505517,30.9794483 18.5505517,31.9692414 C18.5505517,32.9590345 18.4106897,33.8035862 18.1309655,34.5028966 C17.8512414,35.2022069 17.4612414,35.7347586 16.9609655,36.1005517 C16.4606897,36.4663448 15.8824138,36.6492414 15.2261379,36.6492414 Z M24.5377241,37.6175172 L24.5377241,26.3209655 L20.7130345,26.3209655 L20.7130345,27.3537931 L23.3757931,27.3537931 L23.3757931,37.6175172 L24.5377241,37.6175172 Z M31.8643448,37.7143448 C32.595931,37.7143448 33.2548966,37.5717931 33.8412414,37.2866897 C34.4275862,37.0015862 34.8875172,36.5954483 35.2210345,36.0682759 C35.5545517,35.5411034 35.7213103,34.9332414 35.7213103,34.2446897 C35.7213103,33.5668966 35.559931,32.9724828 35.2371724,32.4614483 C34.9144138,31.9504138 34.4652414,31.5550345 33.8896552,31.2753103 C33.314069,30.9955862 32.6551034,30.8557241 31.9127586,30.8557241 C31.1166207,30.8557241 30.411931,31.0251724 29.7986897,31.364069 C29.1854483,31.7029655 28.7389655,32.1790345 28.4592414,32.7922759 C28.4269655,32.448 28.4108276,32.1413793 28.4108276,31.8724138 C28.4108276,30.3662069 28.7658621,29.2177241 29.475931,28.4269655 C30.186,27.6362069 31.1650345,27.2408276 32.4130345,27.2408276 C33.3382759,27.2408276 34.0698621,27.4183448 34.6077931,27.7733793 L34.6077931,27.7733793 L35.0757931,26.8373793 C34.4087586,26.4285517 33.5157931,26.2241379 32.3968966,26.2241379 C31.364069,26.2241379 30.4603448,26.4473793 29.6857241,26.8938621 C28.9111034,27.3403448 28.3086207,27.9993103 27.8782759,28.8707586 C27.447931,29.7422069 27.2327586,30.8073103 27.2327586,32.066069 C27.2327586,33.8627586 27.6308276,35.2533103 28.4269655,36.2377241 C29.2231034,37.2221379 30.3688966,37.7143448 31.8643448,37.7143448 Z M31.815931,36.729931 C31.191931,36.729931 30.654,36.6169655 30.2021379,36.3910345 C29.7502759,36.1651034 29.4086897,35.8692414 29.1773793,35.5034483 C28.946069,35.1376552 28.8304138,34.7395862 28.8304138,34.3092414 C28.8304138,33.8466207 28.9541379,33.4270345 29.2015862,33.0504828 C29.4490345,32.673931 29.7906207,32.378069 30.2263448,32.1628966 C30.662069,31.9477241 31.1650345,31.8401379 31.7352414,31.8401379 C32.6066897,31.8401379 33.297931,32.0606897 33.8089655,32.5017931 C34.32,32.9428966 34.5755172,33.5346207 34.5755172,34.2769655 C34.5755172,35.0193103 34.32,35.6137241 33.8089655,36.0602069 C33.297931,36.5066897 32.6335862,36.729931 31.815931,36.729931 Z" id="2016" fill="#2D3142" fill-rule="nonzero"></path>
                <path d="M9.27124138,118.307172 L9.27124138,117.274345 L3.05813793,117.274345 L6.89896552,113.498069 C7.6197931,112.798759 8.10931034,112.180138 8.36751724,111.642207 C8.62572414,111.104276 8.75482759,110.544828 8.75482759,109.963862 C8.75482759,109.017103 8.41862069,108.272069 7.7462069,107.728759 C7.0737931,107.185448 6.162,106.913793 5.01082759,106.913793 C4.15013793,106.913793 3.3782069,107.053655 2.69503448,107.333379 C2.01186207,107.613103 1.44972414,108.011172 1.00862069,108.527586 L1.00862069,108.527586 L1.83165517,109.237655 C2.56324138,108.398483 3.59068966,107.978897 4.914,107.978897 C5.76393103,107.978897 6.41751724,108.164483 6.87475862,108.535655 C7.332,108.906828 7.56062069,109.425931 7.56062069,110.092966 C7.56062069,110.52331 7.45572414,110.950966 7.24593103,111.375931 C7.03613793,111.800897 6.63537931,112.303862 6.04365517,112.884828 L6.04365517,112.884828 L1.34751724,117.484138 L1.34751724,118.307172 L9.27124138,118.307172 Z M15.2261379,118.404 C16.0975862,118.404 16.8748966,118.17269 17.558069,117.710069 C18.2412414,117.247448 18.7764828,116.583103 19.1637931,115.717034 C19.5511034,114.850966 19.7447586,113.831586 19.7447586,112.658897 C19.7447586,111.486207 19.5511034,110.466828 19.1637931,109.600759 C18.7764828,108.73469 18.2412414,108.070345 17.558069,107.607724 C16.8748966,107.145103 16.0975862,106.913793 15.2261379,106.913793 C14.3546897,106.913793 13.5773793,107.145103 12.8942069,107.607724 C12.2110345,108.070345 11.6784828,108.73469 11.2965517,109.600759 C10.9146207,110.466828 10.7236552,111.486207 10.7236552,112.658897 C10.7236552,113.831586 10.9146207,114.850966 11.2965517,115.717034 C11.6784828,116.583103 12.2110345,117.247448 12.8942069,117.710069 C13.5773793,118.17269 14.3546897,118.404 15.2261379,118.404 Z M15.2261379,117.338897 C14.5698621,117.338897 13.9915862,117.156 13.4913103,116.790207 C12.9910345,116.424414 12.6010345,115.891862 12.3213103,115.192552 C12.0415862,114.493241 11.9017241,113.64869 11.9017241,112.658897 C11.9017241,111.669103 12.0415862,110.824552 12.3213103,110.125241 C12.6010345,109.425931 12.9910345,108.893379 13.4913103,108.527586 C13.9915862,108.161793 14.5698621,107.978897 15.2261379,107.978897 C15.8824138,107.978897 16.4606897,108.161793 16.9609655,108.527586 C17.4612414,108.893379 17.8512414,109.425931 18.1309655,110.125241 C18.4106897,110.824552 18.5505517,111.669103 18.5505517,112.658897 C18.5505517,113.64869 18.4106897,114.493241 18.1309655,115.192552 C17.8512414,115.891862 17.4612414,116.424414 16.9609655,116.790207 C16.4606897,117.156 15.8824138,117.338897 15.2261379,117.338897 Z M24.5377241,118.307172 L24.5377241,107.010621 L20.7130345,107.010621 L20.7130345,108.043448 L23.3757931,108.043448 L23.3757931,118.307172 L24.5377241,118.307172 Z M30.4764828,118.307172 L35.2048966,107.833655 L35.2048966,107.010621 L26.91,107.010621 L26.91,110.157517 L28.0557931,110.157517 L28.0557931,108.043448 L33.8654483,108.043448 L29.2177241,118.307172 L30.4764828,118.307172 Z" id="2017" fill="#2D3142" fill-rule="nonzero"></path>
                <path d="M8.26262069,198.996828 L8.26262069,197.964 L2.04951724,197.964 L5.89034483,194.187724 C6.61117241,193.488414 7.10068966,192.869793 7.35889655,192.331862 C7.61710345,191.793931 7.7462069,191.234483 7.7462069,190.653517 C7.7462069,189.706759 7.41,188.961724 6.73758621,188.418414 C6.06517241,187.875103 5.15337931,187.603448 4.0022069,187.603448 C3.14151724,187.603448 2.36958621,187.74331 1.68641379,188.023034 C1.00324138,188.302759 0.441103448,188.700828 0,189.217241 L0,189.217241 L0.823034483,189.92731 C1.55462069,189.088138 2.58206897,188.668552 3.90537931,188.668552 C4.75531034,188.668552 5.40889655,188.854138 5.86613793,189.22531 C6.32337931,189.596483 6.552,190.115586 6.552,190.782621 C6.552,191.212966 6.44710345,191.640621 6.23731034,192.065586 C6.02751724,192.490552 5.62675862,192.993517 5.03503448,193.574483 L5.03503448,193.574483 L0.338896552,198.173793 L0.338896552,198.996828 L8.26262069,198.996828 Z M14.2175172,199.093655 C15.0889655,199.093655 15.8662759,198.862345 16.5494483,198.399724 C17.2326207,197.937103 17.7678621,197.272759 18.1551724,196.40669 C18.5424828,195.540621 18.7361379,194.521241 18.7361379,193.348552 C18.7361379,192.175862 18.5424828,191.156483 18.1551724,190.290414 C17.7678621,189.424345 17.2326207,188.76 16.5494483,188.297379 C15.8662759,187.834759 15.0889655,187.603448 14.2175172,187.603448 C13.346069,187.603448 12.5687586,187.834759 11.8855862,188.297379 C11.2024138,188.76 10.6698621,189.424345 10.287931,190.290414 C9.906,191.156483 9.71503448,192.175862 9.71503448,193.348552 C9.71503448,194.521241 9.906,195.540621 10.287931,196.40669 C10.6698621,197.272759 11.2024138,197.937103 11.8855862,198.399724 C12.5687586,198.862345 13.346069,199.093655 14.2175172,199.093655 Z M14.2175172,198.028552 C13.5612414,198.028552 12.9829655,197.845655 12.4826897,197.479862 C11.9824138,197.114069 11.5924138,196.581517 11.3126897,195.882207 C11.0329655,195.182897 10.8931034,194.338345 10.8931034,193.348552 C10.8931034,192.358759 11.0329655,191.514207 11.3126897,190.814897 C11.5924138,190.115586 11.9824138,189.583034 12.4826897,189.217241 C12.9829655,188.851448 13.5612414,188.668552 14.2175172,188.668552 C14.8737931,188.668552 15.452069,188.851448 15.9523448,189.217241 C16.4526207,189.583034 16.8426207,190.115586 17.1223448,190.814897 C17.402069,191.514207 17.541931,192.358759 17.541931,193.348552 C17.541931,194.338345 17.402069,195.182897 17.1223448,195.882207 C16.8426207,196.581517 16.4526207,197.114069 15.9523448,197.479862 C15.452069,197.845655 14.8737931,198.028552 14.2175172,198.028552 Z M23.5291034,198.996828 L23.5291034,187.700276 L19.7044138,187.700276 L19.7044138,188.733103 L22.3671724,188.733103 L22.3671724,198.996828 L23.5291034,198.996828 Z M30.5168276,199.093655 C31.4097931,199.093655 32.1871034,198.961862 32.8487586,198.698276 C33.5104138,198.43469 34.0187586,198.058138 34.3737931,197.568621 C34.7288276,197.079103 34.9063448,196.506207 34.9063448,195.849931 C34.9063448,195.182897 34.7153793,194.61269 34.3334483,194.13931 C33.9515172,193.665931 33.4055172,193.310897 32.6954483,193.074207 C33.2764138,192.848276 33.7228966,192.522828 34.0348966,192.097862 C34.3468966,191.672897 34.5028966,191.169931 34.5028966,190.588966 C34.5028966,189.986483 34.3361379,189.45931 34.0026207,189.007448 C33.6691034,188.555586 33.2037931,188.208621 32.6066897,187.966552 C32.0095862,187.724483 31.3129655,187.603448 30.5168276,187.603448 C29.3118621,187.603448 28.3516552,187.872414 27.6362069,188.410345 C26.9207586,188.948276 26.5630345,189.674483 26.5630345,190.588966 C26.5630345,191.169931 26.7136552,191.672897 27.0148966,192.097862 C27.3161379,192.522828 27.7572414,192.848276 28.3382069,193.074207 C27.6281379,193.310897 27.0875172,193.663241 26.7163448,194.131241 C26.3451724,194.599241 26.1595862,195.172138 26.1595862,195.849931 C26.1595862,196.850483 26.5468966,197.641241 27.3215172,198.222207 C28.0961379,198.803172 29.1612414,199.093655 30.5168276,199.093655 Z M30.5168276,192.654621 C29.6453793,192.654621 28.9622069,192.471724 28.4673103,192.105931 C27.9724138,191.740138 27.7249655,191.245241 27.7249655,190.621241 C27.7249655,189.997241 27.9751034,189.502345 28.4753793,189.136552 C28.9756552,188.770759 29.6561379,188.587862 30.5168276,188.587862 C31.3667586,188.587862 32.0472414,188.770759 32.5582759,189.136552 C33.0693103,189.502345 33.3248276,190.002621 33.3248276,190.637379 C33.3248276,191.250621 33.0746897,191.740138 32.5744138,192.105931 C32.0741379,192.471724 31.3882759,192.654621 30.5168276,192.654621 Z M30.5168276,198.109241 C29.5162759,198.109241 28.7362759,197.907517 28.1768276,197.504069 C27.6173793,197.100621 27.3376552,196.543862 27.3376552,195.833793 C27.3376552,195.134483 27.620069,194.583103 28.1848966,194.179655 C28.7497241,193.776207 29.5270345,193.574483 30.5168276,193.574483 C31.5173793,193.574483 32.300069,193.776207 32.8648966,194.179655 C33.4297241,194.583103 33.7121379,195.134483 33.7121379,195.833793 C33.7121379,196.533103 33.4297241,197.087172 32.8648966,197.496 C32.300069,197.904828 31.5173793,198.109241 30.5168276,198.109241 Z" id="2018" fill="#2D3142" fill-rule="nonzero"></path>
                <path d="M9.27124138,279.686483 L9.27124138,278.653655 L3.05813793,278.653655 L6.89896552,274.877379 C7.6197931,274.178069 8.10931034,273.559448 8.36751724,273.021517 C8.62572414,272.483586 8.75482759,271.924138 8.75482759,271.343172 C8.75482759,270.396414 8.41862069,269.651379 7.7462069,269.108069 C7.0737931,268.564759 6.162,268.293103 5.01082759,268.293103 C4.15013793,268.293103 3.3782069,268.432966 2.69503448,268.71269 C2.01186207,268.992414 1.44972414,269.390483 1.00862069,269.906897 L1.00862069,269.906897 L1.83165517,270.616966 C2.56324138,269.777793 3.59068966,269.358207 4.914,269.358207 C5.76393103,269.358207 6.41751724,269.543793 6.87475862,269.914966 C7.332,270.286138 7.56062069,270.805241 7.56062069,271.472276 C7.56062069,271.902621 7.45572414,272.330276 7.24593103,272.755241 C7.03613793,273.180207 6.63537931,273.683172 6.04365517,274.264138 L6.04365517,274.264138 L1.34751724,278.863448 L1.34751724,279.686483 L9.27124138,279.686483 Z M15.2261379,279.78331 C16.0975862,279.78331 16.8748966,279.552 17.558069,279.089379 C18.2412414,278.626759 18.7764828,277.962414 19.1637931,277.096345 C19.5511034,276.230276 19.7447586,275.210897 19.7447586,274.038207 C19.7447586,272.865517 19.5511034,271.846138 19.1637931,270.980069 C18.7764828,270.114 18.2412414,269.449655 17.558069,268.987034 C16.8748966,268.524414 16.0975862,268.293103 15.2261379,268.293103 C14.3546897,268.293103 13.5773793,268.524414 12.8942069,268.987034 C12.2110345,269.449655 11.6784828,270.114 11.2965517,270.980069 C10.9146207,271.846138 10.7236552,272.865517 10.7236552,274.038207 C10.7236552,275.210897 10.9146207,276.230276 11.2965517,277.096345 C11.6784828,277.962414 12.2110345,278.626759 12.8942069,279.089379 C13.5773793,279.552 14.3546897,279.78331 15.2261379,279.78331 Z M15.2261379,278.718207 C14.5698621,278.718207 13.9915862,278.53531 13.4913103,278.169517 C12.9910345,277.803724 12.6010345,277.271172 12.3213103,276.571862 C12.0415862,275.872552 11.9017241,275.028 11.9017241,274.038207 C11.9017241,273.048414 12.0415862,272.203862 12.3213103,271.504552 C12.6010345,270.805241 12.9910345,270.27269 13.4913103,269.906897 C13.9915862,269.541103 14.5698621,269.358207 15.2261379,269.358207 C15.8824138,269.358207 16.4606897,269.541103 16.9609655,269.906897 C17.4612414,270.27269 17.8512414,270.805241 18.1309655,271.504552 C18.4106897,272.203862 18.5505517,273.048414 18.5505517,274.038207 C18.5505517,275.028 18.4106897,275.872552 18.1309655,276.571862 C17.8512414,277.271172 17.4612414,277.803724 16.9609655,278.169517 C16.4606897,278.53531 15.8824138,278.718207 15.2261379,278.718207 Z M24.5377241,279.686483 L24.5377241,268.389931 L20.7130345,268.389931 L20.7130345,269.422759 L23.3757931,269.422759 L23.3757931,279.686483 L24.5377241,279.686483 Z M30.2182759,279.78331 C31.2511034,279.78331 32.1548276,279.560069 32.9294483,279.113586 C33.704069,278.667103 34.3065517,278.008138 34.7368966,277.13669 C35.1672414,276.265241 35.3824138,275.200138 35.3824138,273.941379 C35.3824138,272.14469 34.9843448,270.754138 34.1882069,269.769724 C33.392069,268.78531 32.2462759,268.293103 30.7508276,268.293103 C30.0192414,268.293103 29.3602759,268.435655 28.773931,268.720759 C28.1875862,269.005862 27.7276552,269.412 27.3941379,269.939172 C27.0606207,270.466345 26.8938621,271.074207 26.8938621,271.762759 C26.8938621,272.440552 27.0552414,273.034966 27.378,273.546 C27.7007586,274.057034 28.149931,274.452414 28.7255172,274.732138 C29.3011034,275.011862 29.960069,275.151724 30.7024138,275.151724 C31.4985517,275.151724 32.2032414,274.982276 32.8164828,274.643379 C33.4297241,274.304483 33.8762069,273.828414 34.155931,273.215172 C34.1882069,273.54869 34.2043448,273.85531 34.2043448,274.135034 C34.2043448,275.641241 33.8493103,276.789724 33.1392414,277.580483 C32.4291724,278.371241 31.4501379,278.766621 30.2021379,278.766621 C29.2768966,278.766621 28.5453103,278.589103 28.0073793,278.234069 L28.0073793,278.234069 L27.5393793,279.170069 C28.2064138,279.578897 29.0993793,279.78331 30.2182759,279.78331 Z M30.879931,274.16731 C30.0084828,274.16731 29.3172414,273.946759 28.8062069,273.505655 C28.2951724,273.064552 28.0396552,272.472828 28.0396552,271.730483 C28.0396552,270.988138 28.2951724,270.393724 28.8062069,269.947241 C29.3172414,269.500759 29.9815862,269.277517 30.7992414,269.277517 C31.4232414,269.277517 31.9611724,269.390483 32.4130345,269.616414 C32.8648966,269.842345 33.2064828,270.138207 33.4377931,270.504 C33.6691034,270.869793 33.7847586,271.267862 33.7847586,271.698207 C33.7847586,272.160828 33.6610345,272.580414 33.4135862,272.956966 C33.1661379,273.333517 32.8245517,273.629379 32.3888276,273.844552 C31.9531034,274.059724 31.4501379,274.16731 30.879931,274.16731 Z" id="2019" fill="#2D3142" fill-rule="nonzero"></path>
                <path d="M210.357931,102.072414 L210.357931,99.7001379 L212.197655,99.7001379 L212.197655,97.569931 L210.357931,97.569931 L210.357931,95.4558621 L207.888828,95.4558621 L207.888828,97.569931 L204.854897,97.569931 L209.793103,90.7758621 L207.049655,90.7758621 L201.724138,97.9411034 L201.724138,99.7001379 L207.808138,99.7001379 L207.808138,102.072414 L210.357931,102.072414 Z M217.62,102.072414 L221.815862,92.4703448 L221.815862,90.7758621 L212.762483,90.7758621 L212.762483,94.7457931 L215.086345,94.7457931 L215.086345,92.906069 L218.830345,92.906069 L214.779724,102.072414 L217.62,102.072414 Z M225.186672,97.5255517 C225.911534,97.5255517 226.499897,97.2784397 226.951759,96.7842155 C227.403621,96.2899914 227.629552,95.6286724 227.629552,94.8002586 C227.629552,93.9718448 227.403621,93.3105259 226.951759,92.8163017 C226.499897,92.3220776 225.911534,92.0749655 225.186672,92.0749655 C224.46181,92.0749655 223.871095,92.3220776 223.414526,92.8163017 C222.957957,93.3105259 222.729672,93.9718448 222.729672,94.8002586 C222.729672,95.6286724 222.957957,96.2899914 223.414526,96.7842155 C223.871095,97.2784397 224.46181,97.5255517 225.186672,97.5255517 Z M226.005672,102.072414 L232.755362,92.187931 L231.075,92.187931 L224.32531,102.072414 L226.005672,102.072414 Z M225.186672,96.3676552 C224.876017,96.3676552 224.626552,96.2335086 224.438276,95.9652155 C224.25,95.6969224 224.155862,95.3086034 224.155862,94.8002586 C224.155862,94.2919138 224.25,93.9035948 224.438276,93.6353017 C224.626552,93.3670086 224.876017,93.2328621 225.186672,93.2328621 C225.506741,93.2328621 225.75856,93.3646552 225.942129,93.6282414 C226.125698,93.8918276 226.217483,94.2825 226.217483,94.8002586 C226.217483,95.3180172 226.125698,95.7086897 225.942129,95.9722759 C225.75856,96.2358621 225.506741,96.3676552 225.186672,96.3676552 Z M231.894,102.185379 C232.618862,102.185379 233.209578,101.938267 233.666147,101.444043 C234.122716,100.949819 234.351,100.2885 234.351,99.4600862 C234.351,98.6316724 234.122716,97.9703534 233.666147,97.4761293 C233.209578,96.9819052 232.618862,96.7347931 231.894,96.7347931 C231.42331,96.7347931 231.002043,96.8454052 230.630198,97.0666293 C230.258353,97.2878534 229.968879,97.605569 229.761776,98.0197759 C229.554672,98.4339828 229.451121,98.9140862 229.451121,99.4600862 C229.451121,100.006086 229.554672,100.48619 229.761776,100.900397 C229.968879,101.314603 230.258353,101.632319 230.630198,101.853543 C231.002043,102.074767 231.42331,102.185379 231.894,102.185379 Z M231.894,101.027483 C231.583345,101.027483 231.333879,100.89569 231.145603,100.632103 C230.957328,100.368517 230.86319,99.9778448 230.86319,99.4600862 C230.86319,98.9423276 230.957328,98.5516552 231.145603,98.288069 C231.333879,98.0244828 231.583345,97.8926897 231.894,97.8926897 C232.214069,97.8926897 232.465888,98.0268362 232.649457,98.2951293 C232.833026,98.5634224 232.92481,98.9517414 232.92481,99.4600862 C232.92481,99.968431 232.833026,100.35675 232.649457,100.625043 C232.465888,100.893336 232.214069,101.027483 231.894,101.027483 Z" id="47%" fill="#FFBA08" fill-rule="nonzero"></path>
                <path d="M205.024345,182.955724 C206.057172,182.955724 206.925931,182.786276 207.630621,182.447379 C208.33531,182.108483 208.859793,181.656621 209.204069,181.091793 C209.548345,180.526966 209.720483,179.900276 209.720483,179.211724 C209.720483,178.146621 209.341241,177.29669 208.582759,176.661931 C207.824276,176.027172 206.648897,175.709793 205.056621,175.709793 L205.056621,175.709793 L204.136759,175.709793 L204.314276,173.563448 L209.026552,173.563448 L209.026552,171.465517 L202.135655,171.465517 L201.55469,177.823862 L204.443379,177.823862 C205.411655,177.823862 206.092138,177.947586 206.484828,178.195034 C206.877517,178.442483 207.073862,178.808276 207.073862,179.292414 C207.073862,179.755034 206.885586,180.115448 206.509034,180.373655 C206.132483,180.631862 205.616069,180.760966 204.959793,180.760966 C204.368069,180.760966 203.792483,180.672207 203.233034,180.49469 C202.673586,180.317172 202.17869,180.067034 201.748345,179.744276 L201.748345,179.744276 L200.715517,181.745379 C201.253448,182.13269 201.907034,182.431241 202.676276,182.641034 C203.445517,182.850828 204.228207,182.955724 205.024345,182.955724 Z M215.142828,182.762069 L215.142828,171.465517 L210.269172,171.465517 L210.269172,173.563448 L212.528483,173.563448 L212.528483,182.762069 L215.142828,182.762069 Z M219.320534,178.215207 C220.045397,178.215207 220.633759,177.968095 221.085621,177.473871 C221.537483,176.979647 221.763414,176.318328 221.763414,175.489914 C221.763414,174.6615 221.537483,174.000181 221.085621,173.505957 C220.633759,173.011733 220.045397,172.764621 219.320534,172.764621 C218.595672,172.764621 218.004957,173.011733 217.548388,173.505957 C217.091819,174.000181 216.863534,174.6615 216.863534,175.489914 C216.863534,176.318328 217.091819,176.979647 217.548388,177.473871 C218.004957,177.968095 218.595672,178.215207 219.320534,178.215207 Z M220.139534,182.762069 L226.889224,172.877586 L225.208862,172.877586 L218.459172,182.762069 L220.139534,182.762069 Z M219.320534,177.05731 C219.009879,177.05731 218.760414,176.923164 218.572138,176.654871 C218.383862,176.386578 218.289724,175.998259 218.289724,175.489914 C218.289724,174.981569 218.383862,174.59325 218.572138,174.324957 C218.760414,174.056664 219.009879,173.922517 219.320534,173.922517 C219.640603,173.922517 219.892422,174.05431 220.075991,174.317897 C220.25956,174.581483 220.351345,174.972155 220.351345,175.489914 C220.351345,176.007672 220.25956,176.398345 220.075991,176.661931 C219.892422,176.925517 219.640603,177.05731 219.320534,177.05731 Z M226.027862,182.875034 C226.752724,182.875034 227.34344,182.627922 227.800009,182.133698 C228.256578,181.639474 228.484862,180.978155 228.484862,180.149741 C228.484862,179.321328 228.256578,178.660009 227.800009,178.165784 C227.34344,177.67156 226.752724,177.424448 226.027862,177.424448 C225.557172,177.424448 225.135905,177.53506 224.76406,177.756284 C224.392216,177.977509 224.102741,178.295224 223.895638,178.709431 C223.688534,179.123638 223.584983,179.603741 223.584983,180.149741 C223.584983,180.695741 223.688534,181.175845 223.895638,181.590052 C224.102741,182.004259 224.392216,182.321974 224.76406,182.543198 C225.135905,182.764422 225.557172,182.875034 226.027862,182.875034 Z M226.027862,181.717138 C225.717207,181.717138 225.467741,181.585345 225.279466,181.321759 C225.09119,181.058172 224.997052,180.6675 224.997052,180.149741 C224.997052,179.631983 225.09119,179.24131 225.279466,178.977724 C225.467741,178.714138 225.717207,178.582345 226.027862,178.582345 C226.347931,178.582345 226.59975,178.716491 226.783319,178.984784 C226.966888,179.253078 227.058672,179.641397 227.058672,180.149741 C227.058672,180.658086 226.966888,181.046405 226.783319,181.314698 C226.59975,181.582991 226.347931,181.717138 226.027862,181.717138 Z" id="51%" fill="#FFBA08" fill-rule="nonzero"></path>
                <path d="M205.024345,263.645379 C206.057172,263.645379 206.925931,263.475931 207.630621,263.137034 C208.33531,262.798138 208.859793,262.346276 209.204069,261.781448 C209.548345,261.216621 209.720483,260.589931 209.720483,259.901379 C209.720483,258.836276 209.341241,257.986345 208.582759,257.351586 C207.824276,256.716828 206.648897,256.399448 205.056621,256.399448 L205.056621,256.399448 L204.136759,256.399448 L204.314276,254.253103 L209.026552,254.253103 L209.026552,252.155172 L202.135655,252.155172 L201.55469,258.513517 L204.443379,258.513517 C205.411655,258.513517 206.092138,258.637241 206.484828,258.88469 C206.877517,259.132138 207.073862,259.497931 207.073862,259.982069 C207.073862,260.44469 206.885586,260.805103 206.509034,261.06331 C206.132483,261.321517 205.616069,261.450621 204.959793,261.450621 C204.368069,261.450621 203.792483,261.361862 203.233034,261.184345 C202.673586,261.006828 202.17869,260.75669 201.748345,260.433931 L201.748345,260.433931 L200.715517,262.435034 C201.253448,262.822345 201.907034,263.120897 202.676276,263.33069 C203.445517,263.540483 204.228207,263.645379 205.024345,263.645379 Z M215.142828,263.451724 L215.142828,252.155172 L210.269172,252.155172 L210.269172,254.253103 L212.528483,254.253103 L212.528483,263.451724 L215.142828,263.451724 Z M219.320534,258.904862 C220.045397,258.904862 220.633759,258.65775 221.085621,258.163526 C221.537483,257.669302 221.763414,257.007983 221.763414,256.179569 C221.763414,255.351155 221.537483,254.689836 221.085621,254.195612 C220.633759,253.701388 220.045397,253.454276 219.320534,253.454276 C218.595672,253.454276 218.004957,253.701388 217.548388,254.195612 C217.091819,254.689836 216.863534,255.351155 216.863534,256.179569 C216.863534,257.007983 217.091819,257.669302 217.548388,258.163526 C218.004957,258.65775 218.595672,258.904862 219.320534,258.904862 Z M220.139534,263.451724 L226.889224,253.567241 L225.208862,253.567241 L218.459172,263.451724 L220.139534,263.451724 Z M219.320534,257.746966 C219.009879,257.746966 218.760414,257.612819 218.572138,257.344526 C218.383862,257.076233 218.289724,256.687914 218.289724,256.179569 C218.289724,255.671224 218.383862,255.282905 218.572138,255.014612 C218.760414,254.746319 219.009879,254.612172 219.320534,254.612172 C219.640603,254.612172 219.892422,254.743966 220.075991,255.007552 C220.25956,255.271138 220.351345,255.66181 220.351345,256.179569 C220.351345,256.697328 220.25956,257.088 220.075991,257.351586 C219.892422,257.615172 219.640603,257.746966 219.320534,257.746966 Z M226.027862,263.56469 C226.752724,263.56469 227.34344,263.317578 227.800009,262.823353 C228.256578,262.329129 228.484862,261.66781 228.484862,260.839397 C228.484862,260.010983 228.256578,259.349664 227.800009,258.85544 C227.34344,258.361216 226.752724,258.114103 226.027862,258.114103 C225.557172,258.114103 225.135905,258.224716 224.76406,258.44594 C224.392216,258.667164 224.102741,258.984879 223.895638,259.399086 C223.688534,259.813293 223.584983,260.293397 223.584983,260.839397 C223.584983,261.385397 223.688534,261.8655 223.895638,262.279707 C224.102741,262.693914 224.392216,263.011629 224.76406,263.232853 C225.135905,263.454078 225.557172,263.56469 226.027862,263.56469 Z M226.027862,262.406793 C225.717207,262.406793 225.467741,262.275 225.279466,262.011414 C225.09119,261.747828 224.997052,261.357155 224.997052,260.839397 C224.997052,260.321638 225.09119,259.930966 225.279466,259.667379 C225.467741,259.403793 225.717207,259.272 226.027862,259.272 C226.347931,259.272 226.59975,259.406147 226.783319,259.67444 C226.966888,259.942733 227.058672,260.331052 227.058672,260.839397 C227.058672,261.347741 226.966888,261.73606 226.783319,262.004353 C226.59975,262.272647 226.347931,262.406793 226.027862,262.406793 Z" id="51%" fill="#FFBA08" fill-rule="nonzero"></path>
                <path d="M206.77531,134.735586 C207.571448,134.735586 208.294966,134.582276 208.945862,134.275655 C209.596759,133.969034 210.110483,133.530621 210.487034,132.960414 C210.863586,132.390207 211.051862,131.728552 211.051862,130.975448 C211.051862,130.276138 210.879724,129.660207 210.535448,129.127655 C210.191172,128.595103 209.723172,128.183586 209.131448,127.893103 C208.539724,127.602621 207.883448,127.457379 207.162621,127.457379 C205.968414,127.457379 205.037793,127.790897 204.370759,128.457931 C204.413793,127.392828 204.715034,126.580552 205.274483,126.021103 C205.833931,125.461655 206.592414,125.181931 207.549931,125.181931 C208.399862,125.181931 209.104552,125.370207 209.664,125.746759 L209.664,125.746759 L210.632276,123.826345 C210.244966,123.578897 209.774276,123.387931 209.220207,123.253448 C208.666138,123.118966 208.087862,123.051724 207.485379,123.051724 C206.344966,123.051724 205.341724,123.288414 204.475655,123.761793 C203.609586,124.235172 202.934483,124.929103 202.450345,125.843586 C201.966207,126.758069 201.724138,127.855448 201.724138,129.135724 C201.724138,130.932414 202.170621,132.314897 203.063586,133.283172 C203.956552,134.251448 205.193793,134.735586 206.77531,134.735586 Z M206.630069,132.782897 C206.016828,132.782897 205.53269,132.626897 205.177655,132.314897 C204.822621,132.002897 204.645103,131.599448 204.645103,131.104552 C204.645103,130.609655 204.828,130.203517 205.193793,129.886138 C205.559586,129.568759 206.027586,129.410069 206.597793,129.410069 C207.178759,129.410069 207.644069,129.563379 207.993724,129.87 C208.343379,130.176621 208.518207,130.588138 208.518207,131.104552 C208.518207,131.620966 208.343379,132.029793 207.993724,132.331034 C207.644069,132.632276 207.189517,132.782897 206.630069,132.782897 Z M216.651724,134.541931 L220.847586,124.939862 L220.847586,123.245379 L211.794207,123.245379 L211.794207,127.21531 L214.118069,127.21531 L214.118069,125.375586 L217.862069,125.375586 L213.811448,134.541931 L216.651724,134.541931 Z M224.218397,129.995069 C224.943259,129.995069 225.531621,129.747957 225.983483,129.253733 C226.435345,128.759509 226.661276,128.09819 226.661276,127.269776 C226.661276,126.441362 226.435345,125.780043 225.983483,125.285819 C225.531621,124.791595 224.943259,124.544483 224.218397,124.544483 C223.493534,124.544483 222.902819,124.791595 222.44625,125.285819 C221.989681,125.780043 221.761397,126.441362 221.761397,127.269776 C221.761397,128.09819 221.989681,128.759509 222.44625,129.253733 C222.902819,129.747957 223.493534,129.995069 224.218397,129.995069 Z M225.037397,134.541931 L231.787086,124.657448 L230.106724,124.657448 L223.357034,134.541931 L225.037397,134.541931 Z M224.218397,128.837172 C223.907741,128.837172 223.658276,128.703026 223.47,128.434733 C223.281724,128.16644 223.187586,127.778121 223.187586,127.269776 C223.187586,126.761431 223.281724,126.373112 223.47,126.104819 C223.658276,125.836526 223.907741,125.702379 224.218397,125.702379 C224.538466,125.702379 224.790284,125.834172 224.973853,126.097759 C225.157422,126.361345 225.249207,126.752017 225.249207,127.269776 C225.249207,127.787534 225.157422,128.178207 224.973853,128.441793 C224.790284,128.705379 224.538466,128.837172 224.218397,128.837172 Z M230.925724,134.654897 C231.650586,134.654897 232.241302,134.407784 232.697871,133.91356 C233.15444,133.419336 233.382724,132.758017 233.382724,131.929603 C233.382724,131.10119 233.15444,130.439871 232.697871,129.945647 C232.241302,129.451422 231.650586,129.20431 230.925724,129.20431 C230.455034,129.20431 230.033767,129.314922 229.661922,129.536147 C229.290078,129.757371 229.000603,130.075086 228.7935,130.489293 C228.586397,130.9035 228.482845,131.383603 228.482845,131.929603 C228.482845,132.475603 228.586397,132.955707 228.7935,133.369914 C229.000603,133.784121 229.290078,134.101836 229.661922,134.32306 C230.033767,134.544284 230.455034,134.654897 230.925724,134.654897 Z M230.925724,133.497 C230.615069,133.497 230.365603,133.365207 230.177328,133.101621 C229.989052,132.838034 229.894914,132.447362 229.894914,131.929603 C229.894914,131.411845 229.989052,131.021172 230.177328,130.757586 C230.365603,130.494 230.615069,130.362207 230.925724,130.362207 C231.245793,130.362207 231.497612,130.496353 231.681181,130.764647 C231.86475,131.03294 231.956534,131.421259 231.956534,131.929603 C231.956534,132.437948 231.86475,132.826267 231.681181,133.09456 C231.497612,133.362853 231.245793,133.497 230.925724,133.497 Z" id="67%" fill="#3772FF" fill-rule="nonzero"></path>
                <path d="M206.581655,215.231586 L210.777517,205.629517 L210.777517,203.935034 L201.724138,203.935034 L201.724138,207.904966 L204.048,207.904966 L204.048,206.065241 L207.792,206.065241 L203.741379,215.231586 L206.581655,215.231586 Z M216.780828,215.425241 C217.716828,215.425241 218.550621,215.193931 219.282207,214.73131 C220.013793,214.26869 220.58669,213.598966 221.000897,212.722138 C221.415103,211.84531 221.622207,210.799034 221.622207,209.58331 C221.622207,208.367586 221.415103,207.32131 221.000897,206.444483 C220.58669,205.567655 220.013793,204.897931 219.282207,204.43531 C218.550621,203.97269 217.716828,203.741379 216.780828,203.741379 C215.844828,203.741379 215.011034,203.97269 214.279448,204.43531 C213.547862,204.897931 212.974966,205.567655 212.560759,206.444483 C212.146552,207.32131 211.939448,208.367586 211.939448,209.58331 C211.939448,210.799034 212.146552,211.84531 212.560759,212.722138 C212.974966,213.598966 213.547862,214.26869 214.279448,214.73131 C215.011034,215.193931 215.844828,215.425241 216.780828,215.425241 Z M216.780828,213.214345 C216.103034,213.214345 215.567793,212.918483 215.175103,212.326759 C214.782414,211.735034 214.586069,210.820552 214.586069,209.58331 C214.586069,208.346069 214.782414,207.431586 215.175103,206.839862 C215.567793,206.248138 216.103034,205.952276 216.780828,205.952276 C217.469379,205.952276 218.01,206.248138 218.40269,206.839862 C218.795379,207.431586 218.991724,208.346069 218.991724,209.58331 C218.991724,210.820552 218.795379,211.735034 218.40269,212.326759 C218.01,212.918483 217.469379,213.214345 216.780828,213.214345 Z M225.105983,210.684724 C225.830845,210.684724 226.419207,210.437612 226.871069,209.943388 C227.322931,209.449164 227.548862,208.787845 227.548862,207.959431 C227.548862,207.131017 227.322931,206.469698 226.871069,205.975474 C226.419207,205.48125 225.830845,205.234138 225.105983,205.234138 C224.381121,205.234138 223.790405,205.48125 223.333836,205.975474 C222.877267,206.469698 222.648983,207.131017 222.648983,207.959431 C222.648983,208.787845 222.877267,209.449164 223.333836,209.943388 C223.790405,210.437612 224.381121,210.684724 225.105983,210.684724 Z M225.924983,215.231586 L232.674672,205.347103 L230.99431,205.347103 L224.244621,215.231586 L225.924983,215.231586 Z M225.105983,209.526828 C224.795328,209.526828 224.545862,209.392681 224.357586,209.124388 C224.16931,208.856095 224.075172,208.467776 224.075172,207.959431 C224.075172,207.451086 224.16931,207.062767 224.357586,206.794474 C224.545862,206.526181 224.795328,206.392034 225.105983,206.392034 C225.426052,206.392034 225.677871,206.523828 225.86144,206.787414 C226.045009,207.051 226.136793,207.441672 226.136793,207.959431 C226.136793,208.47719 226.045009,208.867862 225.86144,209.131448 C225.677871,209.395034 225.426052,209.526828 225.105983,209.526828 Z M231.81331,215.344552 C232.538172,215.344552 233.128888,215.09744 233.585457,214.603216 C234.042026,214.108991 234.27031,213.447672 234.27031,212.619259 C234.27031,211.790845 234.042026,211.129526 233.585457,210.635302 C233.128888,210.141078 232.538172,209.893966 231.81331,209.893966 C231.342621,209.893966 230.921353,210.004578 230.549509,210.225802 C230.177664,210.447026 229.88819,210.764741 229.681086,211.178948 C229.473983,211.593155 229.370431,212.073259 229.370431,212.619259 C229.370431,213.165259 229.473983,213.645362 229.681086,214.059569 C229.88819,214.473776 230.177664,214.791491 230.549509,215.012716 C230.921353,215.23394 231.342621,215.344552 231.81331,215.344552 Z M231.81331,214.186655 C231.502655,214.186655 231.25319,214.054862 231.064914,213.791276 C230.876638,213.52769 230.7825,213.137017 230.7825,212.619259 C230.7825,212.1015 230.876638,211.710828 231.064914,211.447241 C231.25319,211.183655 231.502655,211.051862 231.81331,211.051862 C232.133379,211.051862 232.385198,211.186009 232.568767,211.454302 C232.752336,211.722595 232.844121,212.110914 232.844121,212.619259 C232.844121,213.127603 232.752336,213.515922 232.568767,213.784216 C232.385198,214.052509 232.133379,214.186655 231.81331,214.186655 Z" id="70%" fill="#3772FF" fill-rule="nonzero"></path>
                <path d="M206.581655,295.727586 L210.777517,286.125517 L210.777517,284.431034 L201.724138,284.431034 L201.724138,288.400966 L204.048,288.400966 L204.048,286.561241 L207.792,286.561241 L203.741379,295.727586 L206.581655,295.727586 Z M216.29669,295.727586 L216.29669,284.431034 L211.423034,284.431034 L211.423034,286.528966 L213.682345,286.528966 L213.682345,295.727586 L216.29669,295.727586 Z M220.474397,291.180724 C221.199259,291.180724 221.787621,290.933612 222.239483,290.439388 C222.691345,289.945164 222.917276,289.283845 222.917276,288.455431 C222.917276,287.627017 222.691345,286.965698 222.239483,286.471474 C221.787621,285.97725 221.199259,285.730138 220.474397,285.730138 C219.749534,285.730138 219.158819,285.97725 218.70225,286.471474 C218.245681,286.965698 218.017397,287.627017 218.017397,288.455431 C218.017397,289.283845 218.245681,289.945164 218.70225,290.439388 C219.158819,290.933612 219.749534,291.180724 220.474397,291.180724 Z M221.293397,295.727586 L228.043086,285.843103 L226.362724,285.843103 L219.613034,295.727586 L221.293397,295.727586 Z M220.474397,290.022828 C220.163741,290.022828 219.914276,289.888681 219.726,289.620388 C219.537724,289.352095 219.443586,288.963776 219.443586,288.455431 C219.443586,287.947086 219.537724,287.558767 219.726,287.290474 C219.914276,287.022181 220.163741,286.888034 220.474397,286.888034 C220.794466,286.888034 221.046284,287.019828 221.229853,287.283414 C221.413422,287.547 221.505207,287.937672 221.505207,288.455431 C221.505207,288.97319 221.413422,289.363862 221.229853,289.627448 C221.046284,289.891034 220.794466,290.022828 220.474397,290.022828 Z M227.181724,295.840552 C227.906586,295.840552 228.497302,295.59344 228.953871,295.099216 C229.41044,294.604991 229.638724,293.943672 229.638724,293.115259 C229.638724,292.286845 229.41044,291.625526 228.953871,291.131302 C228.497302,290.637078 227.906586,290.389966 227.181724,290.389966 C226.711034,290.389966 226.289767,290.500578 225.917922,290.721802 C225.546078,290.943026 225.256603,291.260741 225.0495,291.674948 C224.842397,292.089155 224.738845,292.569259 224.738845,293.115259 C224.738845,293.661259 224.842397,294.141362 225.0495,294.555569 C225.256603,294.969776 225.546078,295.287491 225.917922,295.508716 C226.289767,295.72994 226.711034,295.840552 227.181724,295.840552 Z M227.181724,294.682655 C226.871069,294.682655 226.621603,294.550862 226.433328,294.287276 C226.245052,294.02369 226.150914,293.633017 226.150914,293.115259 C226.150914,292.5975 226.245052,292.206828 226.433328,291.943241 C226.621603,291.679655 226.871069,291.547862 227.181724,291.547862 C227.501793,291.547862 227.753612,291.682009 227.937181,291.950302 C228.12075,292.218595 228.212534,292.606914 228.212534,293.115259 C228.212534,293.623603 228.12075,294.011922 227.937181,294.280216 C227.753612,294.548509 227.501793,294.682655 227.181724,294.682655 Z" id="71%" fill="#3772FF" fill-rule="nonzero"></path>
                <g id="Group-25-Copy-8" transform="translate(278.856592, 16.105989)">
                    <path d="M19.6539828,18.1067586 L19.6539828,15.5367931 L22.280431,15.5367931 L22.280431,14.7036724 L19.6539828,14.7036724 L19.6539828,12.1195862 L18.7643793,12.1195862 L18.7643793,14.7036724 L16.137931,14.7036724 L16.137931,15.5367931 L18.7643793,15.5367931 L18.7643793,18.1067586 L19.6539828,18.1067586 Z M30.7528448,20.0554138 L30.7528448,19.1516897 L25.3163793,19.1516897 L28.6771034,15.8474483 C29.3078276,15.2355517 29.7361552,14.6942586 29.9620862,14.223569 C30.1880172,13.7528793 30.3009828,13.2633621 30.3009828,12.7550172 C30.3009828,11.9266034 30.0068017,11.2746983 29.4184397,10.7993017 C28.8300776,10.3239052 28.0322586,10.0862069 27.0249828,10.0862069 C26.2718793,10.0862069 25.5964397,10.2085862 24.9986638,10.4533448 C24.4008879,10.6981034 23.9090172,11.0464138 23.5230517,11.4982759 L23.5230517,11.4982759 L24.2432069,12.1195862 C24.8833448,11.3853103 25.7823621,11.0181724 26.9402586,11.0181724 C27.6839483,11.0181724 28.2558362,11.1805603 28.6559224,11.5053362 C29.0560086,11.8301121 29.2560517,12.2843276 29.2560517,12.8679828 C29.2560517,13.2445345 29.1642672,13.6187328 28.9806983,13.9905776 C28.7971293,14.3624224 28.4464655,14.8025172 27.9287069,15.3108621 L27.9287069,15.3108621 L23.8195862,19.3352586 L23.8195862,20.0554138 L30.7528448,20.0554138 Z M34.7631207,20.0554138 L34.7631207,10.170931 L31.4165172,10.170931 L31.4165172,11.0746552 L33.746431,11.0746552 L33.746431,20.0554138 L34.7631207,20.0554138 Z M38.7875172,22.7948276 L38.7875172,18.6574655 C39.0981724,19.137569 39.4959052,19.5023534 39.9807155,19.751819 C40.4655259,20.0012845 41.0091724,20.1260172 41.6116552,20.1260172 C42.3176897,20.1260172 42.9507672,19.9683362 43.5108879,19.6529741 C44.0710086,19.3376121 44.5111034,18.8928103 44.8311724,18.318569 C45.1512414,17.7443276 45.3112759,17.0853621 45.3112759,16.3416724 C45.3112759,15.6073966 45.1512414,14.9531379 44.8311724,14.3788966 C44.5111034,13.8046552 44.0686552,13.3598534 43.5038276,13.0444914 C42.939,12.7291293 42.3082759,12.5714483 41.6116552,12.5714483 C40.9903448,12.5714483 40.4325776,12.7032414 39.9383534,12.9668276 C39.4441293,13.2304138 39.0463966,13.6069655 38.7451552,14.0964828 L38.7451552,14.0964828 L38.7451552,12.627931 L37.7849483,12.627931 L37.7849483,22.7948276 L38.7875172,22.7948276 Z M41.5410517,19.2364138 C41.0138793,19.2364138 40.5408362,19.1163879 40.1219224,18.8763362 C39.7030086,18.6362845 39.3735259,18.2950345 39.1334741,17.8525862 C38.8934224,17.4101379 38.7733966,16.9065 38.7733966,16.3416724 C38.7733966,15.7768448 38.8934224,15.2755603 39.1334741,14.837819 C39.3735259,14.4000776 39.7030086,14.0588276 40.1219224,13.814069 C40.5408362,13.5693103 41.0138793,13.446931 41.5410517,13.446931 C42.0588103,13.446931 42.5295,13.5693103 42.9531207,13.814069 C43.3767414,14.0588276 43.7085776,14.4000776 43.9486293,14.837819 C44.188681,15.2755603 44.3087069,15.7768448 44.3087069,16.3416724 C44.3087069,16.9065 44.188681,17.4101379 43.9486293,17.8525862 C43.7085776,18.2950345 43.3767414,18.6362845 42.9531207,18.8763362 C42.5295,19.1163879 42.0588103,19.2364138 41.5410517,19.2364138 Z M48.3613448,22.7948276 L48.3613448,18.6574655 C48.672,19.137569 49.0697328,19.5023534 49.5545431,19.751819 C50.0393534,20.0012845 50.583,20.1260172 51.1854828,20.1260172 C51.8915172,20.1260172 52.5245948,19.9683362 53.0847155,19.6529741 C53.6448362,19.3376121 54.084931,18.8928103 54.405,18.318569 C54.725069,17.7443276 54.8851034,17.0853621 54.8851034,16.3416724 C54.8851034,15.6073966 54.725069,14.9531379 54.405,14.3788966 C54.084931,13.8046552 53.6424828,13.3598534 53.0776552,13.0444914 C52.5128276,12.7291293 51.8821034,12.5714483 51.1854828,12.5714483 C50.5641724,12.5714483 50.0064052,12.7032414 49.512181,12.9668276 C49.0179569,13.2304138 48.6202241,13.6069655 48.3189828,14.0964828 L48.3189828,14.0964828 L48.3189828,12.627931 L47.3587759,12.627931 L47.3587759,22.7948276 L48.3613448,22.7948276 Z M51.1148793,19.2364138 C50.5877069,19.2364138 50.1146638,19.1163879 49.69575,18.8763362 C49.2768362,18.6362845 48.9473534,18.2950345 48.7073017,17.8525862 C48.46725,17.4101379 48.3472241,16.9065 48.3472241,16.3416724 C48.3472241,15.7768448 48.46725,15.2755603 48.7073017,14.837819 C48.9473534,14.4000776 49.2768362,14.0588276 49.69575,13.814069 C50.1146638,13.5693103 50.5877069,13.446931 51.1148793,13.446931 C51.6326379,13.446931 52.1033276,13.5693103 52.5269483,13.814069 C52.950569,14.0588276 53.2824052,14.4000776 53.5224569,14.837819 C53.7625086,15.2755603 53.8825345,15.7768448 53.8825345,16.3416724 C53.8825345,16.9065 53.7625086,17.4101379 53.5224569,17.8525862 C53.2824052,18.2950345 52.950569,18.6362845 52.5269483,18.8763362 C52.1033276,19.1163879 51.6326379,19.2364138 51.1148793,19.2364138 Z" id="+21pp" fill="#2D3142" fill-rule="nonzero"></path>
                    <rect id="Rectangle" stroke="#F3F3F3" x="0" y="0" width="71.1347869" height="32.211979" rx="3"></rect>
                </g>
                <g id="Group-25-Copy-9" transform="translate(278.856592, 97.978103)">
                    <path d="M17.6367414,18.1067586 L17.6367414,15.5367931 L20.2631897,15.5367931 L20.2631897,14.7036724 L17.6367414,14.7036724 L17.6367414,12.1195862 L16.7471379,12.1195862 L16.7471379,14.7036724 L14.1206897,14.7036724 L14.1206897,15.5367931 L16.7471379,15.5367931 L16.7471379,18.1067586 L17.6367414,18.1067586 Z M28.7356034,20.0554138 L28.7356034,19.1516897 L23.2991379,19.1516897 L26.6598621,15.8474483 C27.2905862,15.2355517 27.7189138,14.6942586 27.9448448,14.223569 C28.1707759,13.7528793 28.2837414,13.2633621 28.2837414,12.7550172 C28.2837414,11.9266034 27.9895603,11.2746983 27.4011983,10.7993017 C26.8128362,10.3239052 26.0150172,10.0862069 25.0077414,10.0862069 C24.2546379,10.0862069 23.5791983,10.2085862 22.9814224,10.4533448 C22.3836466,10.6981034 21.8917759,11.0464138 21.5058103,11.4982759 L21.5058103,11.4982759 L22.2259655,12.1195862 C22.8661034,11.3853103 23.7651207,11.0181724 24.9230172,11.0181724 C25.6667069,11.0181724 26.2385948,11.1805603 26.638681,11.5053362 C27.0387672,11.8301121 27.2388103,12.2843276 27.2388103,12.8679828 C27.2388103,13.2445345 27.1470259,13.6187328 26.9634569,13.9905776 C26.7798879,14.3624224 26.4292241,14.8025172 25.9114655,15.3108621 L25.9114655,15.3108621 L21.8023448,19.3352586 L21.8023448,20.0554138 L28.7356034,20.0554138 Z M33.9461379,20.1401379 C34.7086552,20.1401379 35.3888017,19.9377414 35.9865776,19.5329483 C36.5843534,19.1281552 37.0526897,18.5468534 37.3915862,17.7890431 C37.7304828,17.0312328 37.899931,16.1392759 37.899931,15.1131724 C37.899931,14.087069 37.7304828,13.1951121 37.3915862,12.4373017 C37.0526897,11.6794914 36.5843534,11.0981897 35.9865776,10.6933966 C35.3888017,10.2886034 34.7086552,10.0862069 33.9461379,10.0862069 C33.1836207,10.0862069 32.5034741,10.2886034 31.9056983,10.6933966 C31.3079224,11.0981897 30.8419397,11.6794914 30.50775,12.4373017 C30.1735603,13.1951121 30.0064655,14.087069 30.0064655,15.1131724 C30.0064655,16.1392759 30.1735603,17.0312328 30.50775,17.7890431 C30.8419397,18.5468534 31.3079224,19.1281552 31.9056983,19.5329483 C32.5034741,19.9377414 33.1836207,20.1401379 33.9461379,20.1401379 Z M33.9461379,19.2081724 C33.3718966,19.2081724 32.8659052,19.0481379 32.4281638,18.728069 C31.9904224,18.408 31.6491724,17.9420172 31.4044138,17.3301207 C31.1596552,16.7182241 31.0372759,15.9792414 31.0372759,15.1131724 C31.0372759,14.2471034 31.1596552,13.5081207 31.4044138,12.8962241 C31.6491724,12.2843276 31.9904224,11.8183448 32.4281638,11.4982759 C32.8659052,11.1782069 33.3718966,11.0181724 33.9461379,11.0181724 C34.5203793,11.0181724 35.0263707,11.1782069 35.4641121,11.4982759 C35.9018534,11.8183448 36.2431034,12.2843276 36.4878621,12.8962241 C36.7326207,13.5081207 36.855,14.2471034 36.855,15.1131724 C36.855,15.9792414 36.7326207,16.7182241 36.4878621,17.3301207 C36.2431034,17.9420172 35.9018534,18.408 35.4641121,18.728069 C35.0263707,19.0481379 34.5203793,19.2081724 33.9461379,19.2081724 Z M41.0206034,22.7948276 L41.0206034,18.6574655 C41.3312586,19.137569 41.7289914,19.5023534 42.2138017,19.751819 C42.6986121,20.0012845 43.2422586,20.1260172 43.8447414,20.1260172 C44.5507759,20.1260172 45.1838534,19.9683362 45.7439741,19.6529741 C46.3040948,19.3376121 46.7441897,18.8928103 47.0642586,18.318569 C47.3843276,17.7443276 47.5443621,17.0853621 47.5443621,16.3416724 C47.5443621,15.6073966 47.3843276,14.9531379 47.0642586,14.3788966 C46.7441897,13.8046552 46.3017414,13.3598534 45.7369138,13.0444914 C45.1720862,12.7291293 44.5413621,12.5714483 43.8447414,12.5714483 C43.223431,12.5714483 42.6656638,12.7032414 42.1714397,12.9668276 C41.6772155,13.2304138 41.2794828,13.6069655 40.9782414,14.0964828 L40.9782414,14.0964828 L40.9782414,12.627931 L40.0180345,12.627931 L40.0180345,22.7948276 L41.0206034,22.7948276 Z M43.7741379,19.2364138 C43.2469655,19.2364138 42.7739224,19.1163879 42.3550086,18.8763362 C41.9360948,18.6362845 41.6066121,18.2950345 41.3665603,17.8525862 C41.1265086,17.4101379 41.0064828,16.9065 41.0064828,16.3416724 C41.0064828,15.7768448 41.1265086,15.2755603 41.3665603,14.837819 C41.6066121,14.4000776 41.9360948,14.0588276 42.3550086,13.814069 C42.7739224,13.5693103 43.2469655,13.446931 43.7741379,13.446931 C44.2918966,13.446931 44.7625862,13.5693103 45.1862069,13.814069 C45.6098276,14.0588276 45.9416638,14.4000776 46.1817155,14.837819 C46.4217672,15.2755603 46.5417931,15.7768448 46.5417931,16.3416724 C46.5417931,16.9065 46.4217672,17.4101379 46.1817155,17.8525862 C45.9416638,18.2950345 45.6098276,18.6362845 45.1862069,18.8763362 C44.7625862,19.1163879 44.2918966,19.2364138 43.7741379,19.2364138 Z M50.594431,22.7948276 L50.594431,18.6574655 C50.9050862,19.137569 51.302819,19.5023534 51.7876293,19.751819 C52.2724397,20.0012845 52.8160862,20.1260172 53.418569,20.1260172 C54.1246034,20.1260172 54.757681,19.9683362 55.3178017,19.6529741 C55.8779224,19.3376121 56.3180172,18.8928103 56.6380862,18.318569 C56.9581552,17.7443276 57.1181897,17.0853621 57.1181897,16.3416724 C57.1181897,15.6073966 56.9581552,14.9531379 56.6380862,14.3788966 C56.3180172,13.8046552 55.875569,13.3598534 55.3107414,13.0444914 C54.7459138,12.7291293 54.1151897,12.5714483 53.418569,12.5714483 C52.7972586,12.5714483 52.2394914,12.7032414 51.7452672,12.9668276 C51.2510431,13.2304138 50.8533103,13.6069655 50.552069,14.0964828 L50.552069,14.0964828 L50.552069,12.627931 L49.5918621,12.627931 L49.5918621,22.7948276 L50.594431,22.7948276 Z M53.3479655,19.2364138 C52.8207931,19.2364138 52.34775,19.1163879 51.9288362,18.8763362 C51.5099224,18.6362845 51.1804397,18.2950345 50.9403879,17.8525862 C50.7003362,17.4101379 50.5803103,16.9065 50.5803103,16.3416724 C50.5803103,15.7768448 50.7003362,15.2755603 50.9403879,14.837819 C51.1804397,14.4000776 51.5099224,14.0588276 51.9288362,13.814069 C52.34775,13.5693103 52.8207931,13.446931 53.3479655,13.446931 C53.8657241,13.446931 54.3364138,13.5693103 54.7600345,13.814069 C55.1836552,14.0588276 55.5154914,14.4000776 55.7555431,14.837819 C55.9955948,15.2755603 56.1156207,15.7768448 56.1156207,16.3416724 C56.1156207,16.9065 55.9955948,17.4101379 55.7555431,17.8525862 C55.5154914,18.2950345 55.1836552,18.6362845 54.7600345,18.8763362 C54.3364138,19.1163879 53.8657241,19.2364138 53.3479655,19.2364138 Z" id="+20pp" fill="#2D3142" fill-rule="nonzero"></path>
                    <rect id="Rectangle" stroke="#F3F3F3" x="0" y="0" width="71.1347869" height="32.211979" rx="3"></rect>
                </g>
                <g id="Group-25-Copy-10" transform="translate(278.856592, 177.165884)">
                    <path d="M15.6195,18.1067586 L15.6195,15.5367931 L18.2459483,15.5367931 L18.2459483,14.7036724 L15.6195,14.7036724 L15.6195,12.1195862 L14.7298966,12.1195862 L14.7298966,14.7036724 L12.1034483,14.7036724 L12.1034483,15.5367931 L14.7298966,15.5367931 L14.7298966,18.1067586 L15.6195,18.1067586 Z M26.7183621,20.0554138 L26.7183621,19.1516897 L21.2818966,19.1516897 L24.6426207,15.8474483 C25.2733448,15.2355517 25.7016724,14.6942586 25.9276034,14.223569 C26.1535345,13.7528793 26.2665,13.2633621 26.2665,12.7550172 C26.2665,11.9266034 25.972319,11.2746983 25.3839569,10.7993017 C24.7955948,10.3239052 23.9977759,10.0862069 22.9905,10.0862069 C22.2373966,10.0862069 21.5619569,10.2085862 20.964181,10.4533448 C20.3664052,10.6981034 19.8745345,11.0464138 19.488569,11.4982759 L19.488569,11.4982759 L20.2087241,12.1195862 C20.8488621,11.3853103 21.7478793,11.0181724 22.9057759,11.0181724 C23.6494655,11.0181724 24.2213534,11.1805603 24.6214397,11.5053362 C25.0215259,11.8301121 25.221569,12.2843276 25.221569,12.8679828 C25.221569,13.2445345 25.1297845,13.6187328 24.9462155,13.9905776 C24.7626466,14.3624224 24.4119828,14.8025172 23.8942241,15.3108621 L23.8942241,15.3108621 L19.7851034,19.3352586 L19.7851034,20.0554138 L26.7183621,20.0554138 Z M31.9288966,20.1401379 C32.6914138,20.1401379 33.3715603,19.9377414 33.9693362,19.5329483 C34.5671121,19.1281552 35.0354483,18.5468534 35.3743448,17.7890431 C35.7132414,17.0312328 35.8826897,16.1392759 35.8826897,15.1131724 C35.8826897,14.087069 35.7132414,13.1951121 35.3743448,12.4373017 C35.0354483,11.6794914 34.5671121,11.0981897 33.9693362,10.6933966 C33.3715603,10.2886034 32.6914138,10.0862069 31.9288966,10.0862069 C31.1663793,10.0862069 30.4862328,10.2886034 29.8884569,10.6933966 C29.290681,11.0981897 28.8246983,11.6794914 28.4905086,12.4373017 C28.156319,13.1951121 27.9892241,14.087069 27.9892241,15.1131724 C27.9892241,16.1392759 28.156319,17.0312328 28.4905086,17.7890431 C28.8246983,18.5468534 29.290681,19.1281552 29.8884569,19.5329483 C30.4862328,19.9377414 31.1663793,20.1401379 31.9288966,20.1401379 Z M31.9288966,19.2081724 C31.3546552,19.2081724 30.8486638,19.0481379 30.4109224,18.728069 C29.973181,18.408 29.631931,17.9420172 29.3871724,17.3301207 C29.1424138,16.7182241 29.0200345,15.9792414 29.0200345,15.1131724 C29.0200345,14.2471034 29.1424138,13.5081207 29.3871724,12.8962241 C29.631931,12.2843276 29.973181,11.8183448 30.4109224,11.4982759 C30.8486638,11.1782069 31.3546552,11.0181724 31.9288966,11.0181724 C32.5031379,11.0181724 33.0091293,11.1782069 33.4468707,11.4982759 C33.8846121,11.8183448 34.2258621,12.2843276 34.4706207,12.8962241 C34.7153793,13.5081207 34.8377586,14.2471034 34.8377586,15.1131724 C34.8377586,15.9792414 34.7153793,16.7182241 34.4706207,17.3301207 C34.2258621,17.9420172 33.8846121,18.408 33.4468707,18.728069 C33.0091293,19.0481379 32.5031379,19.2081724 31.9288966,19.2081724 Z M39.0033621,22.7948276 L39.0033621,18.6574655 C39.3140172,19.137569 39.71175,19.5023534 40.1965603,19.751819 C40.6813707,20.0012845 41.2250172,20.1260172 41.8275,20.1260172 C42.5335345,20.1260172 43.1666121,19.9683362 43.7267328,19.6529741 C44.2868534,19.3376121 44.7269483,18.8928103 45.0470172,18.318569 C45.3670862,17.7443276 45.5271207,17.0853621 45.5271207,16.3416724 C45.5271207,15.6073966 45.3670862,14.9531379 45.0470172,14.3788966 C44.7269483,13.8046552 44.2845,13.3598534 43.7196724,13.0444914 C43.1548448,12.7291293 42.5241207,12.5714483 41.8275,12.5714483 C41.2061897,12.5714483 40.6484224,12.7032414 40.1541983,12.9668276 C39.6599741,13.2304138 39.2622414,13.6069655 38.961,14.0964828 L38.961,14.0964828 L38.961,12.627931 L38.0007931,12.627931 L38.0007931,22.7948276 L39.0033621,22.7948276 Z M41.7568966,19.2364138 C41.2297241,19.2364138 40.756681,19.1163879 40.3377672,18.8763362 C39.9188534,18.6362845 39.5893707,18.2950345 39.349319,17.8525862 C39.1092672,17.4101379 38.9892414,16.9065 38.9892414,16.3416724 C38.9892414,15.7768448 39.1092672,15.2755603 39.349319,14.837819 C39.5893707,14.4000776 39.9188534,14.0588276 40.3377672,13.814069 C40.756681,13.5693103 41.2297241,13.446931 41.7568966,13.446931 C42.2746552,13.446931 42.7453448,13.5693103 43.1689655,13.814069 C43.5925862,14.0588276 43.9244224,14.4000776 44.1644741,14.837819 C44.4045259,15.2755603 44.5245517,15.7768448 44.5245517,16.3416724 C44.5245517,16.9065 44.4045259,17.4101379 44.1644741,17.8525862 C43.9244224,18.2950345 43.5925862,18.6362845 43.1689655,18.8763362 C42.7453448,19.1163879 42.2746552,19.2364138 41.7568966,19.2364138 Z M48.5771897,22.7948276 L48.5771897,18.6574655 C48.8878448,19.137569 49.2855776,19.5023534 49.7703879,19.751819 C50.2551983,20.0012845 50.7988448,20.1260172 51.4013276,20.1260172 C52.1073621,20.1260172 52.7404397,19.9683362 53.3005603,19.6529741 C53.860681,19.3376121 54.3007759,18.8928103 54.6208448,18.318569 C54.9409138,17.7443276 55.1009483,17.0853621 55.1009483,16.3416724 C55.1009483,15.6073966 54.9409138,14.9531379 54.6208448,14.3788966 C54.3007759,13.8046552 53.8583276,13.3598534 53.2935,13.0444914 C52.7286724,12.7291293 52.0979483,12.5714483 51.4013276,12.5714483 C50.7800172,12.5714483 50.22225,12.7032414 49.7280259,12.9668276 C49.2338017,13.2304138 48.836069,13.6069655 48.5348276,14.0964828 L48.5348276,14.0964828 L48.5348276,12.627931 L47.5746207,12.627931 L47.5746207,22.7948276 L48.5771897,22.7948276 Z M51.3307241,19.2364138 C50.8035517,19.2364138 50.3305086,19.1163879 49.9115948,18.8763362 C49.492681,18.6362845 49.1631983,18.2950345 48.9231466,17.8525862 C48.6830948,17.4101379 48.563069,16.9065 48.563069,16.3416724 C48.563069,15.7768448 48.6830948,15.2755603 48.9231466,14.837819 C49.1631983,14.4000776 49.492681,14.0588276 49.9115948,13.814069 C50.3305086,13.5693103 50.8035517,13.446931 51.3307241,13.446931 C51.8484828,13.446931 52.3191724,13.5693103 52.7427931,13.814069 C53.1664138,14.0588276 53.49825,14.4000776 53.7383017,14.837819 C53.9783534,15.2755603 54.0983793,15.7768448 54.0983793,16.3416724 C54.0983793,16.9065 53.9783534,17.4101379 53.7383017,17.8525862 C53.49825,18.2950345 53.1664138,18.6362845 52.7427931,18.8763362 C52.3191724,19.1163879 51.8484828,19.2364138 51.3307241,19.2364138 Z" id="+20pp" fill="#2D3142" fill-rule="nonzero"></path>
                    <rect id="Rectangle" stroke="#F3F3F3" x="0" y="0" width="67.1082895" height="32.211979" rx="3"></rect>
                </g>
                <g id="Group-25-Copy-11" transform="translate(278.856592, 257.695832)">
                    <path d="M17.6367414,18.1067586 L17.6367414,15.5367931 L20.2631897,15.5367931 L20.2631897,14.7036724 L17.6367414,14.7036724 L17.6367414,12.1195862 L16.7471379,12.1195862 L16.7471379,14.7036724 L14.1206897,14.7036724 L14.1206897,15.5367931 L16.7471379,15.5367931 L16.7471379,18.1067586 L17.6367414,18.1067586 Z M24.7253276,20.0554138 L24.7253276,10.170931 L21.3787241,10.170931 L21.3787241,11.0746552 L23.7086379,11.0746552 L23.7086379,20.0554138 L24.7253276,20.0554138 Z M29.6958103,20.1401379 C30.5995345,20.1401379 31.3902931,19.9448017 32.0680862,19.5541293 C32.7458793,19.1634569 33.2730517,18.5868621 33.6496034,17.8243448 C34.0261552,17.0618276 34.214431,16.1298621 34.214431,15.0284483 C34.214431,13.4563448 33.8661207,12.2396121 33.1695,11.37825 C32.4728793,10.5168879 31.4703103,10.0862069 30.1617931,10.0862069 C29.5216552,10.0862069 28.9450603,10.2109397 28.4320086,10.4604052 C27.9189569,10.7098707 27.5165172,11.0652414 27.2246897,11.5265172 C26.9328621,11.9877931 26.7869483,12.5196724 26.7869483,13.1221552 C26.7869483,13.7152241 26.9281552,14.2353362 27.210569,14.6824914 C27.4929828,15.1296466 27.8860086,15.4756034 28.3896466,15.7203621 C28.8932845,15.9651207 29.4698793,16.0875 30.119431,16.0875 C30.8160517,16.0875 31.4326552,15.9392328 31.9692414,15.6426983 C32.5058276,15.3461638 32.8965,14.9296034 33.1412586,14.3930172 C33.1695,14.6848448 33.1836207,14.9531379 33.1836207,15.1978966 C33.1836207,16.5158276 32.8729655,17.52075 32.2516552,18.2126638 C31.6303448,18.9045776 30.7736897,19.2505345 29.6816897,19.2505345 C28.8721034,19.2505345 28.2319655,19.0952069 27.7612759,18.7845517 L27.7612759,18.7845517 L27.3517759,19.6035517 C27.935431,19.9612759 28.7167759,20.1401379 29.6958103,20.1401379 Z M30.2747586,15.2261379 C29.5122414,15.2261379 28.9074052,15.0331552 28.46025,14.6471897 C28.0130948,14.2612241 27.7895172,13.7434655 27.7895172,13.0939138 C27.7895172,12.4443621 28.0130948,11.92425 28.46025,11.5335776 C28.9074052,11.1429052 29.4887069,10.947569 30.2041552,10.947569 C30.7501552,10.947569 31.2208448,11.0464138 31.6162241,11.2441034 C32.0116034,11.4417931 32.3104914,11.7006724 32.5128879,12.0207414 C32.7152845,12.3408103 32.8164828,12.6891207 32.8164828,13.0656724 C32.8164828,13.4704655 32.7082241,13.8376034 32.4917069,14.1670862 C32.2751897,14.496569 31.9763017,14.7554483 31.5950431,14.9437241 C31.2137845,15.132 30.7736897,15.2261379 30.2747586,15.2261379 Z M37.3492241,22.7948276 L37.3492241,18.6574655 C37.6598793,19.137569 38.0576121,19.5023534 38.5424224,19.751819 C39.0272328,20.0012845 39.5708793,20.1260172 40.1733621,20.1260172 C40.8793966,20.1260172 41.5124741,19.9683362 42.0725948,19.6529741 C42.6327155,19.3376121 43.0728103,18.8928103 43.3928793,18.318569 C43.7129483,17.7443276 43.8729828,17.0853621 43.8729828,16.3416724 C43.8729828,15.6073966 43.7129483,14.9531379 43.3928793,14.3788966 C43.0728103,13.8046552 42.6303621,13.3598534 42.0655345,13.0444914 C41.5007069,12.7291293 40.8699828,12.5714483 40.1733621,12.5714483 C39.5520517,12.5714483 38.9942845,12.7032414 38.5000603,12.9668276 C38.0058362,13.2304138 37.6081034,13.6069655 37.3068621,14.0964828 L37.3068621,14.0964828 L37.3068621,12.627931 L36.3466552,12.627931 L36.3466552,22.7948276 L37.3492241,22.7948276 Z M40.1027586,19.2364138 C39.5755862,19.2364138 39.1025431,19.1163879 38.6836293,18.8763362 C38.2647155,18.6362845 37.9352328,18.2950345 37.695181,17.8525862 C37.4551293,17.4101379 37.3351034,16.9065 37.3351034,16.3416724 C37.3351034,15.7768448 37.4551293,15.2755603 37.695181,14.837819 C37.9352328,14.4000776 38.2647155,14.0588276 38.6836293,13.814069 C39.1025431,13.5693103 39.5755862,13.446931 40.1027586,13.446931 C40.6205172,13.446931 41.0912069,13.5693103 41.5148276,13.814069 C41.9384483,14.0588276 42.2702845,14.4000776 42.5103362,14.837819 C42.7503879,15.2755603 42.8704138,15.7768448 42.8704138,16.3416724 C42.8704138,16.9065 42.7503879,17.4101379 42.5103362,17.8525862 C42.2702845,18.2950345 41.9384483,18.6362845 41.5148276,18.8763362 C41.0912069,19.1163879 40.6205172,19.2364138 40.1027586,19.2364138 Z M46.9230517,22.7948276 L46.9230517,18.6574655 C47.2337069,19.137569 47.6314397,19.5023534 48.11625,19.751819 C48.6010603,20.0012845 49.1447069,20.1260172 49.7471897,20.1260172 C50.4532241,20.1260172 51.0863017,19.9683362 51.6464224,19.6529741 C52.2065431,19.3376121 52.6466379,18.8928103 52.9667069,18.318569 C53.2867759,17.7443276 53.4468103,17.0853621 53.4468103,16.3416724 C53.4468103,15.6073966 53.2867759,14.9531379 52.9667069,14.3788966 C52.6466379,13.8046552 52.2041897,13.3598534 51.6393621,13.0444914 C51.0745345,12.7291293 50.4438103,12.5714483 49.7471897,12.5714483 C49.1258793,12.5714483 48.5681121,12.7032414 48.0738879,12.9668276 C47.5796638,13.2304138 47.181931,13.6069655 46.8806897,14.0964828 L46.8806897,14.0964828 L46.8806897,12.627931 L45.9204828,12.627931 L45.9204828,22.7948276 L46.9230517,22.7948276 Z M49.6765862,19.2364138 C49.1494138,19.2364138 48.6763707,19.1163879 48.2574569,18.8763362 C47.8385431,18.6362845 47.5090603,18.2950345 47.2690086,17.8525862 C47.0289569,17.4101379 46.908931,16.9065 46.908931,16.3416724 C46.908931,15.7768448 47.0289569,15.2755603 47.2690086,14.837819 C47.5090603,14.4000776 47.8385431,14.0588276 48.2574569,13.814069 C48.6763707,13.5693103 49.1494138,13.446931 49.6765862,13.446931 C50.1943448,13.446931 50.6650345,13.5693103 51.0886552,13.814069 C51.5122759,14.0588276 51.8441121,14.4000776 52.0841638,14.837819 C52.3242155,15.2755603 52.4442414,15.7768448 52.4442414,16.3416724 C52.4442414,16.9065 52.3242155,17.4101379 52.0841638,17.8525862 C51.8441121,18.2950345 51.5122759,18.6362845 51.0886552,18.8763362 C50.6650345,19.1163879 50.1943448,19.2364138 49.6765862,19.2364138 Z" id="+19pp" fill="#2D3142" fill-rule="nonzero"></path>
                    <rect id="Rectangle" stroke="#F3F3F3" x="0" y="0" width="67.1082895" height="32.211979" rx="3"></rect>
                </g>
                <path d="M206.77531,54.045931 C207.571448,54.045931 208.294966,53.8926207 208.945862,53.586 C209.596759,53.2793793 210.110483,52.8409655 210.487034,52.2707586 C210.863586,51.7005517 211.051862,51.0388966 211.051862,50.2857931 C211.051862,49.5864828 210.879724,48.9705517 210.535448,48.438 C210.191172,47.9054483 209.723172,47.493931 209.131448,47.2034483 C208.539724,46.9129655 207.883448,46.7677241 207.162621,46.7677241 C205.968414,46.7677241 205.037793,47.1012414 204.370759,47.7682759 C204.413793,46.7031724 204.715034,45.8908966 205.274483,45.3314483 C205.833931,44.772 206.592414,44.4922759 207.549931,44.4922759 C208.399862,44.4922759 209.104552,44.6805517 209.664,45.0571034 L209.664,45.0571034 L210.632276,43.1366897 C210.244966,42.8892414 209.774276,42.6982759 209.220207,42.5637931 C208.666138,42.4293103 208.087862,42.362069 207.485379,42.362069 C206.344966,42.362069 205.341724,42.5987586 204.475655,43.0721379 C203.609586,43.5455172 202.934483,44.2394483 202.450345,45.153931 C201.966207,46.0684138 201.724138,47.1657931 201.724138,48.446069 C201.724138,50.2427586 202.170621,51.6252414 203.063586,52.5935172 C203.956552,53.5617931 205.193793,54.045931 206.77531,54.045931 Z M206.630069,52.0932414 C206.016828,52.0932414 205.53269,51.9372414 205.177655,51.6252414 C204.822621,51.3132414 204.645103,50.9097931 204.645103,50.4148966 C204.645103,49.92 204.828,49.5138621 205.193793,49.1964828 C205.559586,48.8791034 206.027586,48.7204138 206.597793,48.7204138 C207.178759,48.7204138 207.644069,48.8737241 207.993724,49.1803448 C208.343379,49.4869655 208.518207,49.8984828 208.518207,50.4148966 C208.518207,50.9313103 208.343379,51.3401379 207.993724,51.6413793 C207.644069,51.9426207 207.189517,52.0932414 206.630069,52.0932414 Z M216.845379,54.045931 C217.781379,54.045931 218.615172,53.8146207 219.346759,53.352 C220.078345,52.8893793 220.651241,52.2196552 221.065448,51.3428276 C221.479655,50.466 221.686759,49.4197241 221.686759,48.204 C221.686759,46.9882759 221.479655,45.942 221.065448,45.0651724 C220.651241,44.1883448 220.078345,43.5186207 219.346759,43.056 C218.615172,42.5933793 217.781379,42.362069 216.845379,42.362069 C215.909379,42.362069 215.075586,42.5933793 214.344,43.056 C213.612414,43.5186207 213.039517,44.1883448 212.62531,45.0651724 C212.211103,45.942 212.004,46.9882759 212.004,48.204 C212.004,49.4197241 212.211103,50.466 212.62531,51.3428276 C213.039517,52.2196552 213.612414,52.8893793 214.344,53.352 C215.075586,53.8146207 215.909379,54.045931 216.845379,54.045931 Z M216.845379,51.8350345 C216.167586,51.8350345 215.632345,51.5391724 215.239655,50.9474483 C214.846966,50.3557241 214.650621,49.4412414 214.650621,48.204 C214.650621,46.9667586 214.846966,46.0522759 215.239655,45.4605517 C215.632345,44.8688276 216.167586,44.5729655 216.845379,44.5729655 C217.533931,44.5729655 218.074552,44.8688276 218.467241,45.4605517 C218.859931,46.0522759 219.056276,46.9667586 219.056276,48.204 C219.056276,49.4412414 218.859931,50.3557241 218.467241,50.9474483 C218.074552,51.5391724 217.533931,51.8350345 216.845379,51.8350345 Z M225.170534,49.3054138 C225.895397,49.3054138 226.483759,49.0583017 226.935621,48.5640776 C227.387483,48.0698534 227.613414,47.4085345 227.613414,46.5801207 C227.613414,45.7517069 227.387483,45.0903879 226.935621,44.5961638 C226.483759,44.1019397 225.895397,43.8548276 225.170534,43.8548276 C224.445672,43.8548276 223.854957,44.1019397 223.398388,44.5961638 C222.941819,45.0903879 222.713534,45.7517069 222.713534,46.5801207 C222.713534,47.4085345 222.941819,48.0698534 223.398388,48.5640776 C223.854957,49.0583017 224.445672,49.3054138 225.170534,49.3054138 Z M225.989534,53.8522759 L232.739224,43.9677931 L231.058862,43.9677931 L224.309172,53.8522759 L225.989534,53.8522759 Z M225.170534,48.1475172 C224.859879,48.1475172 224.610414,48.0133707 224.422138,47.7450776 C224.233862,47.4767845 224.139724,47.0884655 224.139724,46.5801207 C224.139724,46.0717759 224.233862,45.6834569 224.422138,45.4151638 C224.610414,45.1468707 224.859879,45.0127241 225.170534,45.0127241 C225.490603,45.0127241 225.742422,45.1445172 225.925991,45.4081034 C226.10956,45.6716897 226.201345,46.0623621 226.201345,46.5801207 C226.201345,47.0978793 226.10956,47.4885517 225.925991,47.7521379 C225.742422,48.0157241 225.490603,48.1475172 225.170534,48.1475172 Z M231.877862,53.9652414 C232.602724,53.9652414 233.19344,53.7181293 233.650009,53.2239052 C234.106578,52.729681 234.334862,52.0683621 234.334862,51.2399483 C234.334862,50.4115345 234.106578,49.7502155 233.650009,49.2559914 C233.19344,48.7617672 232.602724,48.5146552 231.877862,48.5146552 C231.407172,48.5146552 230.985905,48.6252672 230.61406,48.8464914 C230.242216,49.0677155 229.952741,49.385431 229.745638,49.7996379 C229.538534,50.2138448 229.434983,50.6939483 229.434983,51.2399483 C229.434983,51.7859483 229.538534,52.2660517 229.745638,52.6802586 C229.952741,53.0944655 230.242216,53.412181 230.61406,53.6334052 C230.985905,53.8546293 231.407172,53.9652414 231.877862,53.9652414 Z M231.877862,52.8073448 C231.567207,52.8073448 231.317741,52.6755517 231.129466,52.4119655 C230.94119,52.1483793 230.847052,51.7577069 230.847052,51.2399483 C230.847052,50.7221897 230.94119,50.3315172 231.129466,50.067931 C231.317741,49.8043448 231.567207,49.6725517 231.877862,49.6725517 C232.197931,49.6725517 232.44975,49.8066983 232.633319,50.0749914 C232.816888,50.3432845 232.908672,50.7316034 232.908672,51.2399483 C232.908672,51.7482931 232.816888,52.1366121 232.633319,52.4049052 C232.44975,52.6731983 232.197931,52.8073448 231.877862,52.8073448 Z" id="60%" fill="#3772FF" fill-rule="nonzero"></path>
                <rect id="Rectangle-Copy" fill="#F3F3F3" x="52.0305737" y="0" width="134.216579" height="306.0138"></rect>
                <g id="Group-26-Copy-2" transform="translate(52.448276, 0.000000)">
                    <rect id="Rectangle-Copy-50" fill="#FFBA08" x="0" y="0" width="52.3444658" height="32.211979"></rect>
                    <rect id="Rectangle-Copy-51" fill="#3772FF" x="0" y="32.2758621" width="80.5299475" height="32.211979"></rect>
                </g>
                <g id="Group-28-Copy-2" transform="translate(52.448276, 80.689655)">
                    <rect id="Rectangle-Copy-52" fill="#FFBA08" x="0" y="0" width="63.0817922" height="32.211979"></rect>
                    <rect id="Rectangle-Copy-53" fill="#3772FF" x="0" y="32.2758621" width="89.925108" height="32.211979"></rect>
                </g>
                <g id="Group-30-Copy-2" transform="translate(52.448276, 161.379310)">
                    <rect id="Rectangle-Copy-54" fill="#FFBA08" x="0" y="0" width="68.4504553" height="32.211979"></rect>
                    <rect id="Rectangle-Copy-55" fill="#3772FF" x="0" y="32.2758621" width="93.9516054" height="32.211979"></rect>
                </g>
                <g id="Group-31-Copy-2" transform="translate(52.448276, 242.068966)">
                    <rect id="Rectangle-Copy-56" fill="#FFBA08" x="0" y="0" width="68.4504553" height="32.211979"></rect>
                    <rect id="Rectangle-Copy-57" fill="#3772FF" x="0" y="32.2758621" width="95.2937712" height="32.211979"></rect>
                </g>
            </g>
        </g>
    </g>
</svg>