<?xml version="1.0" encoding="UTF-8"?>
<svg width="351px" height="304px" viewBox="0 0 351 304" version="1.1" xmlns="http://www.w3.org/2000/svg" xmlns:xlink="http://www.w3.org/1999/xlink">
    <title>Group 33</title>
    <g id="Home-&gt;-Chronology-&gt;-Timeline" stroke="none" stroke-width="1" fill="none" fill-rule="evenodd">
        <g id="Mobile/Timeline/School-years/Early-years-foundation-stage-Copy" transform="translate(-13.000000, -2187.000000)">
            <g id="Group-33" transform="translate(13.000000, 2187.000000)">
                <path d="M209.768897,21.392 L209.768897,19.28 L204.911379,19.28 L207.509586,16.848 C208.251931,16.1653333 208.752207,15.5573333 209.010414,15.024 C209.268621,14.4906667 209.397724,13.92 209.397724,13.312 C209.397724,12.64 209.222897,12.056 208.873241,11.56 C208.523586,11.064 208.034069,10.68 207.40469,10.408 C206.77531,10.136 206.041034,10 205.201862,10 C204.20131,10 203.313724,10.184 202.539103,10.552 C201.764483,10.92 201.156621,11.4293333 200.715517,12.08 L200.715517,12.08 L202.619793,13.296 C202.888759,12.9226667 203.222276,12.6426667 203.620345,12.456 C204.018414,12.2693333 204.464897,12.176 204.959793,12.176 C205.551517,12.176 206.00069,12.296 206.30731,12.536 C206.613931,12.776 206.767241,13.12 206.767241,13.568 C206.767241,13.8773333 206.686552,14.1893333 206.525172,14.504 C206.363793,14.8186667 206.051793,15.1946667 205.589172,15.632 L205.589172,15.632 L201.231931,19.712 L201.231931,21.392 L209.768897,21.392 Z M213.059017,16.884 C213.783879,16.884 214.372241,16.639 214.824103,16.149 C215.275966,15.659 215.501897,15.0033333 215.501897,14.182 C215.501897,13.3606667 215.275966,12.705 214.824103,12.215 C214.372241,11.725 213.783879,11.48 213.059017,11.48 C212.334155,11.48 211.74344,11.725 211.286871,12.215 C210.830302,12.705 210.602017,13.3606667 210.602017,14.182 C210.602017,15.0033333 210.830302,15.659 211.286871,16.149 C211.74344,16.639 212.334155,16.884 213.059017,16.884 Z M213.878017,21.392 L220.627707,11.592 L218.947345,11.592 L212.197655,21.392 L213.878017,21.392 Z M213.059017,15.736 C212.748362,15.736 212.498897,15.603 212.310621,15.337 C212.122345,15.071 212.028207,14.686 212.028207,14.182 C212.028207,13.678 212.122345,13.293 212.310621,13.027 C212.498897,12.761 212.748362,12.628 213.059017,12.628 C213.379086,12.628 213.630905,12.7586667 213.814474,13.02 C213.998043,13.2813333 214.089828,13.6686667 214.089828,14.182 C214.089828,14.6953333 213.998043,15.0826667 213.814474,15.344 C213.630905,15.6053333 213.379086,15.736 213.059017,15.736 Z M219.766345,21.504 C220.491207,21.504 221.081922,21.259 221.538491,20.769 C221.99506,20.279 222.223345,19.6233333 222.223345,18.802 C222.223345,17.9806667 221.99506,17.325 221.538491,16.835 C221.081922,16.345 220.491207,16.1 219.766345,16.1 C219.295655,16.1 218.874388,16.2096667 218.502543,16.429 C218.130698,16.6483333 217.841224,16.9633333 217.634121,17.374 C217.427017,17.7846667 217.323466,18.2606667 217.323466,18.802 C217.323466,19.3433333 217.427017,19.8193333 217.634121,20.23 C217.841224,20.6406667 218.130698,20.9556667 218.502543,21.175 C218.874388,21.3943333 219.295655,21.504 219.766345,21.504 Z M219.766345,20.356 C219.45569,20.356 219.206224,20.2253333 219.017948,19.964 C218.829672,19.7026667 218.735534,19.3153333 218.735534,18.802 C218.735534,18.2886667 218.829672,17.9013333 219.017948,17.64 C219.206224,17.3786667 219.45569,17.248 219.766345,17.248 C220.086414,17.248 220.338233,17.381 220.521802,17.647 C220.705371,17.913 220.797155,18.298 220.797155,18.802 C220.797155,19.306 220.705371,19.691 220.521802,19.957 C220.338233,20.223 220.086414,20.356 219.766345,20.356 Z" id="2%" fill="#FFBA08" fill-rule="nonzero"></path>
                <path d="M9.27124138,37.296 L9.27124138,36.272 L3.05813793,36.272 L6.89896552,32.528 C7.6197931,31.8346667 8.10931034,31.2213333 8.36751724,30.688 C8.62572414,30.1546667 8.75482759,29.6 8.75482759,29.024 C8.75482759,28.0853333 8.41862069,27.3466667 7.7462069,26.808 C7.0737931,26.2693333 6.162,26 5.01082759,26 C4.15013793,26 3.3782069,26.1386667 2.69503448,26.416 C2.01186207,26.6933333 1.44972414,27.088 1.00862069,27.6 L1.00862069,27.6 L1.83165517,28.304 C2.56324138,27.472 3.59068966,27.056 4.914,27.056 C5.76393103,27.056 6.41751724,27.24 6.87475862,27.608 C7.332,27.976 7.56062069,28.4906667 7.56062069,29.152 C7.56062069,29.5786667 7.45572414,30.0026667 7.24593103,30.424 C7.03613793,30.8453333 6.63537931,31.344 6.04365517,31.92 L6.04365517,31.92 L1.34751724,36.48 L1.34751724,37.296 L9.27124138,37.296 Z M15.2261379,37.392 C16.0975862,37.392 16.8748966,37.1626667 17.558069,36.704 C18.2412414,36.2453333 18.7764828,35.5866667 19.1637931,34.728 C19.5511034,33.8693333 19.7447586,32.8586667 19.7447586,31.696 C19.7447586,30.5333333 19.5511034,29.5226667 19.1637931,28.664 C18.7764828,27.8053333 18.2412414,27.1466667 17.558069,26.688 C16.8748966,26.2293333 16.0975862,26 15.2261379,26 C14.3546897,26 13.5773793,26.2293333 12.8942069,26.688 C12.2110345,27.1466667 11.6784828,27.8053333 11.2965517,28.664 C10.9146207,29.5226667 10.7236552,30.5333333 10.7236552,31.696 C10.7236552,32.8586667 10.9146207,33.8693333 11.2965517,34.728 C11.6784828,35.5866667 12.2110345,36.2453333 12.8942069,36.704 C13.5773793,37.1626667 14.3546897,37.392 15.2261379,37.392 Z M15.2261379,36.336 C14.5698621,36.336 13.9915862,36.1546667 13.4913103,35.792 C12.9910345,35.4293333 12.6010345,34.9013333 12.3213103,34.208 C12.0415862,33.5146667 11.9017241,32.6773333 11.9017241,31.696 C11.9017241,30.7146667 12.0415862,29.8773333 12.3213103,29.184 C12.6010345,28.4906667 12.9910345,27.9626667 13.4913103,27.6 C13.9915862,27.2373333 14.5698621,27.056 15.2261379,27.056 C15.8824138,27.056 16.4606897,27.2373333 16.9609655,27.6 C17.4612414,27.9626667 17.8512414,28.4906667 18.1309655,29.184 C18.4106897,29.8773333 18.5505517,30.7146667 18.5505517,31.696 C18.5505517,32.6773333 18.4106897,33.5146667 18.1309655,34.208 C17.8512414,34.9013333 17.4612414,35.4293333 16.9609655,35.792 C16.4606897,36.1546667 15.8824138,36.336 15.2261379,36.336 Z M24.5377241,37.296 L24.5377241,26.096 L20.7130345,26.096 L20.7130345,27.12 L23.3757931,27.12 L23.3757931,37.296 L24.5377241,37.296 Z M31.8643448,37.392 C32.595931,37.392 33.2548966,37.2506667 33.8412414,36.968 C34.4275862,36.6853333 34.8875172,36.2826667 35.2210345,35.76 C35.5545517,35.2373333 35.7213103,34.6346667 35.7213103,33.952 C35.7213103,33.28 35.559931,32.6906667 35.2371724,32.184 C34.9144138,31.6773333 34.4652414,31.2853333 33.8896552,31.008 C33.314069,30.7306667 32.6551034,30.592 31.9127586,30.592 C31.1166207,30.592 30.411931,30.76 29.7986897,31.096 C29.1854483,31.432 28.7389655,31.904 28.4592414,32.512 C28.4269655,32.1706667 28.4108276,31.8666667 28.4108276,31.6 C28.4108276,30.1066667 28.7658621,28.968 29.475931,28.184 C30.186,27.4 31.1650345,27.008 32.4130345,27.008 C33.3382759,27.008 34.0698621,27.184 34.6077931,27.536 L34.6077931,27.536 L35.0757931,26.608 C34.4087586,26.2026667 33.5157931,26 32.3968966,26 C31.364069,26 30.4603448,26.2213333 29.6857241,26.664 C28.9111034,27.1066667 28.3086207,27.76 27.8782759,28.624 C27.447931,29.488 27.2327586,30.544 27.2327586,31.792 C27.2327586,33.5733333 27.6308276,34.952 28.4269655,35.928 C29.2231034,36.904 30.3688966,37.392 31.8643448,37.392 Z M31.815931,36.416 C31.191931,36.416 30.654,36.304 30.2021379,36.08 C29.7502759,35.856 29.4086897,35.5626667 29.1773793,35.2 C28.946069,34.8373333 28.8304138,34.4426667 28.8304138,34.016 C28.8304138,33.5573333 28.9541379,33.1413333 29.2015862,32.768 C29.4490345,32.3946667 29.7906207,32.1013333 30.2263448,31.888 C30.662069,31.6746667 31.1650345,31.568 31.7352414,31.568 C32.6066897,31.568 33.297931,31.7866667 33.8089655,32.224 C34.32,32.6613333 34.5755172,33.248 34.5755172,33.984 C34.5755172,34.72 34.32,35.3093333 33.8089655,35.752 C33.297931,36.1946667 32.6335862,36.416 31.815931,36.416 Z" id="2016" fill="#2D3142" fill-rule="nonzero"></path>
                <path d="M9.27124138,117.296 L9.27124138,116.272 L3.05813793,116.272 L6.89896552,112.528 C7.6197931,111.834667 8.10931034,111.221333 8.36751724,110.688 C8.62572414,110.154667 8.75482759,109.6 8.75482759,109.024 C8.75482759,108.085333 8.41862069,107.346667 7.7462069,106.808 C7.0737931,106.269333 6.162,106 5.01082759,106 C4.15013793,106 3.3782069,106.138667 2.69503448,106.416 C2.01186207,106.693333 1.44972414,107.088 1.00862069,107.6 L1.00862069,107.6 L1.83165517,108.304 C2.56324138,107.472 3.59068966,107.056 4.914,107.056 C5.76393103,107.056 6.41751724,107.24 6.87475862,107.608 C7.332,107.976 7.56062069,108.490667 7.56062069,109.152 C7.56062069,109.578667 7.45572414,110.002667 7.24593103,110.424 C7.03613793,110.845333 6.63537931,111.344 6.04365517,111.92 L6.04365517,111.92 L1.34751724,116.48 L1.34751724,117.296 L9.27124138,117.296 Z M15.2261379,117.392 C16.0975862,117.392 16.8748966,117.162667 17.558069,116.704 C18.2412414,116.245333 18.7764828,115.586667 19.1637931,114.728 C19.5511034,113.869333 19.7447586,112.858667 19.7447586,111.696 C19.7447586,110.533333 19.5511034,109.522667 19.1637931,108.664 C18.7764828,107.805333 18.2412414,107.146667 17.558069,106.688 C16.8748966,106.229333 16.0975862,106 15.2261379,106 C14.3546897,106 13.5773793,106.229333 12.8942069,106.688 C12.2110345,107.146667 11.6784828,107.805333 11.2965517,108.664 C10.9146207,109.522667 10.7236552,110.533333 10.7236552,111.696 C10.7236552,112.858667 10.9146207,113.869333 11.2965517,114.728 C11.6784828,115.586667 12.2110345,116.245333 12.8942069,116.704 C13.5773793,117.162667 14.3546897,117.392 15.2261379,117.392 Z M15.2261379,116.336 C14.5698621,116.336 13.9915862,116.154667 13.4913103,115.792 C12.9910345,115.429333 12.6010345,114.901333 12.3213103,114.208 C12.0415862,113.514667 11.9017241,112.677333 11.9017241,111.696 C11.9017241,110.714667 12.0415862,109.877333 12.3213103,109.184 C12.6010345,108.490667 12.9910345,107.962667 13.4913103,107.6 C13.9915862,107.237333 14.5698621,107.056 15.2261379,107.056 C15.8824138,107.056 16.4606897,107.237333 16.9609655,107.6 C17.4612414,107.962667 17.8512414,108.490667 18.1309655,109.184 C18.4106897,109.877333 18.5505517,110.714667 18.5505517,111.696 C18.5505517,112.677333 18.4106897,113.514667 18.1309655,114.208 C17.8512414,114.901333 17.4612414,115.429333 16.9609655,115.792 C16.4606897,116.154667 15.8824138,116.336 15.2261379,116.336 Z M24.5377241,117.296 L24.5377241,106.096 L20.7130345,106.096 L20.7130345,107.12 L23.3757931,107.12 L23.3757931,117.296 L24.5377241,117.296 Z M30.4764828,117.296 L35.2048966,106.912 L35.2048966,106.096 L26.91,106.096 L26.91,109.216 L28.0557931,109.216 L28.0557931,107.12 L33.8654483,107.12 L29.2177241,117.296 L30.4764828,117.296 Z" id="2017" fill="#2D3142" fill-rule="nonzero"></path>
                <path d="M8.26262069,197.296 L8.26262069,196.272 L2.04951724,196.272 L5.89034483,192.528 C6.61117241,191.834667 7.10068966,191.221333 7.35889655,190.688 C7.61710345,190.154667 7.7462069,189.6 7.7462069,189.024 C7.7462069,188.085333 7.41,187.346667 6.73758621,186.808 C6.06517241,186.269333 5.15337931,186 4.0022069,186 C3.14151724,186 2.36958621,186.138667 1.68641379,186.416 C1.00324138,186.693333 0.441103448,187.088 9.17335173e-13,187.6 L9.17335173e-13,187.6 L0.823034483,188.304 C1.55462069,187.472 2.58206897,187.056 3.90537931,187.056 C4.75531034,187.056 5.40889655,187.24 5.86613793,187.608 C6.32337931,187.976 6.552,188.490667 6.552,189.152 C6.552,189.578667 6.44710345,190.002667 6.23731034,190.424 C6.02751724,190.845333 5.62675862,191.344 5.03503448,191.92 L5.03503448,191.92 L0.338896552,196.48 L0.338896552,197.296 L8.26262069,197.296 Z M14.2175172,197.392 C15.0889655,197.392 15.8662759,197.162667 16.5494483,196.704 C17.2326207,196.245333 17.7678621,195.586667 18.1551724,194.728 C18.5424828,193.869333 18.7361379,192.858667 18.7361379,191.696 C18.7361379,190.533333 18.5424828,189.522667 18.1551724,188.664 C17.7678621,187.805333 17.2326207,187.146667 16.5494483,186.688 C15.8662759,186.229333 15.0889655,186 14.2175172,186 C13.346069,186 12.5687586,186.229333 11.8855862,186.688 C11.2024138,187.146667 10.6698621,187.805333 10.287931,188.664 C9.906,189.522667 9.71503448,190.533333 9.71503448,191.696 C9.71503448,192.858667 9.906,193.869333 10.287931,194.728 C10.6698621,195.586667 11.2024138,196.245333 11.8855862,196.704 C12.5687586,197.162667 13.346069,197.392 14.2175172,197.392 Z M14.2175172,196.336 C13.5612414,196.336 12.9829655,196.154667 12.4826897,195.792 C11.9824138,195.429333 11.5924138,194.901333 11.3126897,194.208 C11.0329655,193.514667 10.8931034,192.677333 10.8931034,191.696 C10.8931034,190.714667 11.0329655,189.877333 11.3126897,189.184 C11.5924138,188.490667 11.9824138,187.962667 12.4826897,187.6 C12.9829655,187.237333 13.5612414,187.056 14.2175172,187.056 C14.8737931,187.056 15.452069,187.237333 15.9523448,187.6 C16.4526207,187.962667 16.8426207,188.490667 17.1223448,189.184 C17.402069,189.877333 17.541931,190.714667 17.541931,191.696 C17.541931,192.677333 17.402069,193.514667 17.1223448,194.208 C16.8426207,194.901333 16.4526207,195.429333 15.9523448,195.792 C15.452069,196.154667 14.8737931,196.336 14.2175172,196.336 Z M23.5291034,197.296 L23.5291034,186.096 L19.7044138,186.096 L19.7044138,187.12 L22.3671724,187.12 L22.3671724,197.296 L23.5291034,197.296 Z M30.5168276,197.392 C31.4097931,197.392 32.1871034,197.261333 32.8487586,197 C33.5104138,196.738667 34.0187586,196.365333 34.3737931,195.88 C34.7288276,195.394667 34.9063448,194.826667 34.9063448,194.176 C34.9063448,193.514667 34.7153793,192.949333 34.3334483,192.48 C33.9515172,192.010667 33.4055172,191.658667 32.6954483,191.424 C33.2764138,191.2 33.7228966,190.877333 34.0348966,190.456 C34.3468966,190.034667 34.5028966,189.536 34.5028966,188.96 C34.5028966,188.362667 34.3361379,187.84 34.0026207,187.392 C33.6691034,186.944 33.2037931,186.6 32.6066897,186.36 C32.0095862,186.12 31.3129655,186 30.5168276,186 C29.3118621,186 28.3516552,186.266667 27.6362069,186.8 C26.9207586,187.333333 26.5630345,188.053333 26.5630345,188.96 C26.5630345,189.536 26.7136552,190.034667 27.0148966,190.456 C27.3161379,190.877333 27.7572414,191.2 28.3382069,191.424 C27.6281379,191.658667 27.0875172,192.008 26.7163448,192.472 C26.3451724,192.936 26.1595862,193.504 26.1595862,194.176 C26.1595862,195.168 26.5468966,195.952 27.3215172,196.528 C28.0961379,197.104 29.1612414,197.392 30.5168276,197.392 Z M30.5168276,191.008 C29.6453793,191.008 28.9622069,190.826667 28.4673103,190.464 C27.9724138,190.101333 27.7249655,189.610667 27.7249655,188.992 C27.7249655,188.373333 27.9751034,187.882667 28.4753793,187.52 C28.9756552,187.157333 29.6561379,186.976 30.5168276,186.976 C31.3667586,186.976 32.0472414,187.157333 32.5582759,187.52 C33.0693103,187.882667 33.3248276,188.378667 33.3248276,189.008 C33.3248276,189.616 33.0746897,190.101333 32.5744138,190.464 C32.0741379,190.826667 31.3882759,191.008 30.5168276,191.008 Z M30.5168276,196.416 C29.5162759,196.416 28.7362759,196.216 28.1768276,195.816 C27.6173793,195.416 27.3376552,194.864 27.3376552,194.16 C27.3376552,193.466667 27.620069,192.92 28.1848966,192.52 C28.7497241,192.12 29.5270345,191.92 30.5168276,191.92 C31.5173793,191.92 32.300069,192.12 32.8648966,192.52 C33.4297241,192.92 33.7121379,193.466667 33.7121379,194.16 C33.7121379,194.853333 33.4297241,195.402667 32.8648966,195.808 C32.300069,196.213333 31.5173793,196.416 30.5168276,196.416 Z" id="2018" fill="#2D3142" fill-rule="nonzero"></path>
                <path d="M9.27124138,277.296 L9.27124138,276.272 L3.05813793,276.272 L6.89896552,272.528 C7.6197931,271.834667 8.10931034,271.221333 8.36751724,270.688 C8.62572414,270.154667 8.75482759,269.6 8.75482759,269.024 C8.75482759,268.085333 8.41862069,267.346667 7.7462069,266.808 C7.0737931,266.269333 6.162,266 5.01082759,266 C4.15013793,266 3.3782069,266.138667 2.69503448,266.416 C2.01186207,266.693333 1.44972414,267.088 1.00862069,267.6 L1.00862069,267.6 L1.83165517,268.304 C2.56324138,267.472 3.59068966,267.056 4.914,267.056 C5.76393103,267.056 6.41751724,267.24 6.87475862,267.608 C7.332,267.976 7.56062069,268.490667 7.56062069,269.152 C7.56062069,269.578667 7.45572414,270.002667 7.24593103,270.424 C7.03613793,270.845333 6.63537931,271.344 6.04365517,271.92 L6.04365517,271.92 L1.34751724,276.48 L1.34751724,277.296 L9.27124138,277.296 Z M15.2261379,277.392 C16.0975862,277.392 16.8748966,277.162667 17.558069,276.704 C18.2412414,276.245333 18.7764828,275.586667 19.1637931,274.728 C19.5511034,273.869333 19.7447586,272.858667 19.7447586,271.696 C19.7447586,270.533333 19.5511034,269.522667 19.1637931,268.664 C18.7764828,267.805333 18.2412414,267.146667 17.558069,266.688 C16.8748966,266.229333 16.0975862,266 15.2261379,266 C14.3546897,266 13.5773793,266.229333 12.8942069,266.688 C12.2110345,267.146667 11.6784828,267.805333 11.2965517,268.664 C10.9146207,269.522667 10.7236552,270.533333 10.7236552,271.696 C10.7236552,272.858667 10.9146207,273.869333 11.2965517,274.728 C11.6784828,275.586667 12.2110345,276.245333 12.8942069,276.704 C13.5773793,277.162667 14.3546897,277.392 15.2261379,277.392 Z M15.2261379,276.336 C14.5698621,276.336 13.9915862,276.154667 13.4913103,275.792 C12.9910345,275.429333 12.6010345,274.901333 12.3213103,274.208 C12.0415862,273.514667 11.9017241,272.677333 11.9017241,271.696 C11.9017241,270.714667 12.0415862,269.877333 12.3213103,269.184 C12.6010345,268.490667 12.9910345,267.962667 13.4913103,267.6 C13.9915862,267.237333 14.5698621,267.056 15.2261379,267.056 C15.8824138,267.056 16.4606897,267.237333 16.9609655,267.6 C17.4612414,267.962667 17.8512414,268.490667 18.1309655,269.184 C18.4106897,269.877333 18.5505517,270.714667 18.5505517,271.696 C18.5505517,272.677333 18.4106897,273.514667 18.1309655,274.208 C17.8512414,274.901333 17.4612414,275.429333 16.9609655,275.792 C16.4606897,276.154667 15.8824138,276.336 15.2261379,276.336 Z M24.5377241,277.296 L24.5377241,266.096 L20.7130345,266.096 L20.7130345,267.12 L23.3757931,267.12 L23.3757931,277.296 L24.5377241,277.296 Z M30.2182759,277.392 C31.2511034,277.392 32.1548276,277.170667 32.9294483,276.728 C33.704069,276.285333 34.3065517,275.632 34.7368966,274.768 C35.1672414,273.904 35.3824138,272.848 35.3824138,271.6 C35.3824138,269.818667 34.9843448,268.44 34.1882069,267.464 C33.392069,266.488 32.2462759,266 30.7508276,266 C30.0192414,266 29.3602759,266.141333 28.773931,266.424 C28.1875862,266.706667 27.7276552,267.109333 27.3941379,267.632 C27.0606207,268.154667 26.8938621,268.757333 26.8938621,269.44 C26.8938621,270.112 27.0552414,270.701333 27.378,271.208 C27.7007586,271.714667 28.149931,272.106667 28.7255172,272.384 C29.3011034,272.661333 29.960069,272.8 30.7024138,272.8 C31.4985517,272.8 32.2032414,272.632 32.8164828,272.296 C33.4297241,271.96 33.8762069,271.488 34.155931,270.88 C34.1882069,271.210667 34.2043448,271.514667 34.2043448,271.792 C34.2043448,273.285333 33.8493103,274.424 33.1392414,275.208 C32.4291724,275.992 31.4501379,276.384 30.2021379,276.384 C29.2768966,276.384 28.5453103,276.208 28.0073793,275.856 L28.0073793,275.856 L27.5393793,276.784 C28.2064138,277.189333 29.0993793,277.392 30.2182759,277.392 Z M30.879931,271.824 C30.0084828,271.824 29.3172414,271.605333 28.8062069,271.168 C28.2951724,270.730667 28.0396552,270.144 28.0396552,269.408 C28.0396552,268.672 28.2951724,268.082667 28.8062069,267.64 C29.3172414,267.197333 29.9815862,266.976 30.7992414,266.976 C31.4232414,266.976 31.9611724,267.088 32.4130345,267.312 C32.8648966,267.536 33.2064828,267.829333 33.4377931,268.192 C33.6691034,268.554667 33.7847586,268.949333 33.7847586,269.376 C33.7847586,269.834667 33.6610345,270.250667 33.4135862,270.624 C33.1661379,270.997333 32.8245517,271.290667 32.3888276,271.504 C31.9531034,271.717333 31.4501379,271.824 30.879931,271.824 Z" id="2019" fill="#2D3142" fill-rule="nonzero"></path>
                <path d="M210.357931,101.2 L210.357931,98.848 L212.197655,98.848 L212.197655,96.736 L210.357931,96.736 L210.357931,94.64 L207.888828,94.64 L207.888828,96.736 L204.854897,96.736 L209.793103,90 L207.049655,90 L201.724138,97.104 L201.724138,98.848 L207.808138,98.848 L207.808138,101.2 L210.357931,101.2 Z M215.181155,96.692 C215.906017,96.692 216.494379,96.447 216.946241,95.957 C217.398103,95.467 217.624034,94.8113333 217.624034,93.99 C217.624034,93.1686667 217.398103,92.513 216.946241,92.023 C216.494379,91.533 215.906017,91.288 215.181155,91.288 C214.456293,91.288 213.865578,91.533 213.409009,92.023 C212.95244,92.513 212.724155,93.1686667 212.724155,93.99 C212.724155,94.8113333 212.95244,95.467 213.409009,95.957 C213.865578,96.447 214.456293,96.692 215.181155,96.692 Z M216.000155,101.2 L222.749845,91.4 L221.069483,91.4 L214.319793,101.2 L216.000155,101.2 Z M215.181155,95.544 C214.8705,95.544 214.621034,95.411 214.432759,95.145 C214.244483,94.879 214.150345,94.494 214.150345,93.99 C214.150345,93.486 214.244483,93.101 214.432759,92.835 C214.621034,92.569 214.8705,92.436 215.181155,92.436 C215.501224,92.436 215.753043,92.5666667 215.936612,92.828 C216.120181,93.0893333 216.211966,93.4766667 216.211966,93.99 C216.211966,94.5033333 216.120181,94.8906667 215.936612,95.152 C215.753043,95.4133333 215.501224,95.544 215.181155,95.544 Z M221.888483,101.312 C222.613345,101.312 223.20406,101.067 223.660629,100.577 C224.117198,100.087 224.345483,99.4313333 224.345483,98.61 C224.345483,97.7886667 224.117198,97.133 223.660629,96.643 C223.20406,96.153 222.613345,95.908 221.888483,95.908 C221.417793,95.908 220.996526,96.0176667 220.624681,96.237 C220.252836,96.4563333 219.963362,96.7713333 219.756259,97.182 C219.549155,97.5926667 219.445603,98.0686667 219.445603,98.61 C219.445603,99.1513333 219.549155,99.6273333 219.756259,100.038 C219.963362,100.448667 220.252836,100.763667 220.624681,100.983 C220.996526,101.202333 221.417793,101.312 221.888483,101.312 Z M221.888483,100.164 C221.577828,100.164 221.328362,100.033333 221.140086,99.772 C220.95181,99.5106667 220.857672,99.1233333 220.857672,98.61 C220.857672,98.0966667 220.95181,97.7093333 221.140086,97.448 C221.328362,97.1866667 221.577828,97.056 221.888483,97.056 C222.208552,97.056 222.460371,97.189 222.64394,97.455 C222.827509,97.721 222.919293,98.106 222.919293,98.61 C222.919293,99.114 222.827509,99.499 222.64394,99.765 C222.460371,100.031 222.208552,100.164 221.888483,100.164 Z" id="4%" fill="#FFBA08" fill-rule="nonzero"></path>
                <path d="M210.357931,181.2 L210.357931,178.848 L212.197655,178.848 L212.197655,176.736 L210.357931,176.736 L210.357931,174.64 L207.888828,174.64 L207.888828,176.736 L204.854897,176.736 L209.793103,170 L207.049655,170 L201.724138,177.104 L201.724138,178.848 L207.808138,178.848 L207.808138,181.2 L210.357931,181.2 Z M215.181155,176.692 C215.906017,176.692 216.494379,176.447 216.946241,175.957 C217.398103,175.467 217.624034,174.811333 217.624034,173.99 C217.624034,173.168667 217.398103,172.513 216.946241,172.023 C216.494379,171.533 215.906017,171.288 215.181155,171.288 C214.456293,171.288 213.865578,171.533 213.409009,172.023 C212.95244,172.513 212.724155,173.168667 212.724155,173.99 C212.724155,174.811333 212.95244,175.467 213.409009,175.957 C213.865578,176.447 214.456293,176.692 215.181155,176.692 Z M216.000155,181.2 L222.749845,171.4 L221.069483,171.4 L214.319793,181.2 L216.000155,181.2 Z M215.181155,175.544 C214.8705,175.544 214.621034,175.411 214.432759,175.145 C214.244483,174.879 214.150345,174.494 214.150345,173.99 C214.150345,173.486 214.244483,173.101 214.432759,172.835 C214.621034,172.569 214.8705,172.436 215.181155,172.436 C215.501224,172.436 215.753043,172.566667 215.936612,172.828 C216.120181,173.089333 216.211966,173.476667 216.211966,173.99 C216.211966,174.503333 216.120181,174.890667 215.936612,175.152 C215.753043,175.413333 215.501224,175.544 215.181155,175.544 Z M221.888483,181.312 C222.613345,181.312 223.20406,181.067 223.660629,180.577 C224.117198,180.087 224.345483,179.431333 224.345483,178.61 C224.345483,177.788667 224.117198,177.133 223.660629,176.643 C223.20406,176.153 222.613345,175.908 221.888483,175.908 C221.417793,175.908 220.996526,176.017667 220.624681,176.237 C220.252836,176.456333 219.963362,176.771333 219.756259,177.182 C219.549155,177.592667 219.445603,178.068667 219.445603,178.61 C219.445603,179.151333 219.549155,179.627333 219.756259,180.038 C219.963362,180.448667 220.252836,180.763667 220.624681,180.983 C220.996526,181.202333 221.417793,181.312 221.888483,181.312 Z M221.888483,180.164 C221.577828,180.164 221.328362,180.033333 221.140086,179.772 C220.95181,179.510667 220.857672,179.123333 220.857672,178.61 C220.857672,178.096667 220.95181,177.709333 221.140086,177.448 C221.328362,177.186667 221.577828,177.056 221.888483,177.056 C222.208552,177.056 222.460371,177.189 222.64394,177.455 C222.827509,177.721 222.919293,178.106 222.919293,178.61 C222.919293,179.114 222.827509,179.499 222.64394,179.765 C222.460371,180.031 222.208552,180.164 221.888483,180.164 Z" id="4%" fill="#FFBA08" fill-rule="nonzero"></path>
                <path d="M205.024345,261.392 C206.057172,261.392 206.925931,261.224 207.630621,260.888 C208.33531,260.552 208.859793,260.104 209.204069,259.544 C209.548345,258.984 209.720483,258.362667 209.720483,257.68 C209.720483,256.624 209.341241,255.781333 208.582759,255.152 C207.824276,254.522667 206.648897,254.208 205.056621,254.208 L205.056621,254.208 L204.136759,254.208 L204.314276,252.08 L209.026552,252.08 L209.026552,250 L202.135655,250 L201.55469,256.304 L204.443379,256.304 C205.411655,256.304 206.092138,256.426667 206.484828,256.672 C206.877517,256.917333 207.073862,257.28 207.073862,257.76 C207.073862,258.218667 206.885586,258.576 206.509034,258.832 C206.132483,259.088 205.616069,259.216 204.959793,259.216 C204.368069,259.216 203.792483,259.128 203.233034,258.952 C202.673586,258.776 202.17869,258.528 201.748345,258.208 L201.748345,258.208 L200.715517,260.192 C201.253448,260.576 201.907034,260.872 202.676276,261.08 C203.445517,261.288 204.228207,261.392 205.024345,261.392 Z M212.994466,256.692 C213.719328,256.692 214.30769,256.447 214.759552,255.957 C215.211414,255.467 215.437345,254.811333 215.437345,253.99 C215.437345,253.168667 215.211414,252.513 214.759552,252.023 C214.30769,251.533 213.719328,251.288 212.994466,251.288 C212.269603,251.288 211.678888,251.533 211.222319,252.023 C210.76575,252.513 210.537466,253.168667 210.537466,253.99 C210.537466,254.811333 210.76575,255.467 211.222319,255.957 C211.678888,256.447 212.269603,256.692 212.994466,256.692 Z M213.813466,261.2 L220.563155,251.4 L218.882793,251.4 L212.133103,261.2 L213.813466,261.2 Z M212.994466,255.544 C212.68381,255.544 212.434345,255.411 212.246069,255.145 C212.057793,254.879 211.963655,254.494 211.963655,253.99 C211.963655,253.486 212.057793,253.101 212.246069,252.835 C212.434345,252.569 212.68381,252.436 212.994466,252.436 C213.314534,252.436 213.566353,252.566667 213.749922,252.828 C213.933491,253.089333 214.025276,253.476667 214.025276,253.99 C214.025276,254.503333 213.933491,254.890667 213.749922,255.152 C213.566353,255.413333 213.314534,255.544 212.994466,255.544 Z M219.701793,261.312 C220.426655,261.312 221.017371,261.067 221.47394,260.577 C221.930509,260.087 222.158793,259.431333 222.158793,258.61 C222.158793,257.788667 221.930509,257.133 221.47394,256.643 C221.017371,256.153 220.426655,255.908 219.701793,255.908 C219.231103,255.908 218.809836,256.017667 218.437991,256.237 C218.066147,256.456333 217.776672,256.771333 217.569569,257.182 C217.362466,257.592667 217.258914,258.068667 217.258914,258.61 C217.258914,259.151333 217.362466,259.627333 217.569569,260.038 C217.776672,260.448667 218.066147,260.763667 218.437991,260.983 C218.809836,261.202333 219.231103,261.312 219.701793,261.312 Z M219.701793,260.164 C219.391138,260.164 219.141672,260.033333 218.953397,259.772 C218.765121,259.510667 218.670983,259.123333 218.670983,258.61 C218.670983,258.096667 218.765121,257.709333 218.953397,257.448 C219.141672,257.186667 219.391138,257.056 219.701793,257.056 C220.021862,257.056 220.273681,257.189 220.45725,257.455 C220.640819,257.721 220.732603,258.106 220.732603,258.61 C220.732603,259.114 220.640819,259.499 220.45725,259.765 C220.273681,260.031 220.021862,260.164 219.701793,260.164 Z" id="5%" fill="#FFBA08" fill-rule="nonzero"></path>
                <path d="M205.589172,133.2 L205.589172,122 L200.715517,122 L200.715517,124.08 L202.974828,124.08 L202.974828,133.2 L205.589172,133.2 Z M211.915241,133.2 L211.915241,122 L207.041586,122 L207.041586,124.08 L209.300897,124.08 L209.300897,133.2 L211.915241,133.2 Z M216.092948,128.692 C216.81781,128.692 217.406172,128.447 217.858034,127.957 C218.309897,127.467 218.535828,126.811333 218.535828,125.99 C218.535828,125.168667 218.309897,124.513 217.858034,124.023 C217.406172,123.533 216.81781,123.288 216.092948,123.288 C215.368086,123.288 214.777371,123.533 214.320802,124.023 C213.864233,124.513 213.635948,125.168667 213.635948,125.99 C213.635948,126.811333 213.864233,127.467 214.320802,127.957 C214.777371,128.447 215.368086,128.692 216.092948,128.692 Z M216.911948,133.2 L223.661638,123.4 L221.981276,123.4 L215.231586,133.2 L216.911948,133.2 Z M216.092948,127.544 C215.782293,127.544 215.532828,127.411 215.344552,127.145 C215.156276,126.879 215.062138,126.494 215.062138,125.99 C215.062138,125.486 215.156276,125.101 215.344552,124.835 C215.532828,124.569 215.782293,124.436 216.092948,124.436 C216.413017,124.436 216.664836,124.566667 216.848405,124.828 C217.031974,125.089333 217.123759,125.476667 217.123759,125.99 C217.123759,126.503333 217.031974,126.890667 216.848405,127.152 C216.664836,127.413333 216.413017,127.544 216.092948,127.544 Z M222.800276,133.312 C223.525138,133.312 224.115853,133.067 224.572422,132.577 C225.028991,132.087 225.257276,131.431333 225.257276,130.61 C225.257276,129.788667 225.028991,129.133 224.572422,128.643 C224.115853,128.153 223.525138,127.908 222.800276,127.908 C222.329586,127.908 221.908319,128.017667 221.536474,128.237 C221.164629,128.456333 220.875155,128.771333 220.668052,129.182 C220.460948,129.592667 220.357397,130.068667 220.357397,130.61 C220.357397,131.151333 220.460948,131.627333 220.668052,132.038 C220.875155,132.448667 221.164629,132.763667 221.536474,132.983 C221.908319,133.202333 222.329586,133.312 222.800276,133.312 Z M222.800276,132.164 C222.489621,132.164 222.240155,132.033333 222.051879,131.772 C221.863603,131.510667 221.769466,131.123333 221.769466,130.61 C221.769466,130.096667 221.863603,129.709333 222.051879,129.448 C222.240155,129.186667 222.489621,129.056 222.800276,129.056 C223.120345,129.056 223.372164,129.189 223.555733,129.455 C223.739302,129.721 223.831086,130.106 223.831086,130.61 C223.831086,131.114 223.739302,131.499 223.555733,131.765 C223.372164,132.031 223.120345,132.164 222.800276,132.164 Z" id="11%" fill="#3772FF" fill-rule="nonzero"></path>
                <path d="M205.589172,213.392 L205.589172,202.192 L200.715517,202.192 L200.715517,204.272 L202.974828,204.272 L202.974828,213.392 L205.589172,213.392 Z M215.998138,213.392 L215.998138,211.28 L211.140621,211.28 L213.738828,208.848 C214.481172,208.165333 214.981448,207.557333 215.239655,207.024 C215.497862,206.490667 215.626966,205.92 215.626966,205.312 C215.626966,204.64 215.452138,204.056 215.102483,203.56 C214.752828,203.064 214.26331,202.68 213.633931,202.408 C213.004552,202.136 212.270276,202 211.431103,202 C210.430552,202 209.542966,202.184 208.768345,202.552 C207.993724,202.92 207.385862,203.429333 206.944759,204.08 L206.944759,204.08 L208.849034,205.296 C209.118,204.922667 209.451517,204.642667 209.849586,204.456 C210.247655,204.269333 210.694138,204.176 211.189034,204.176 C211.780759,204.176 212.229931,204.296 212.536552,204.536 C212.843172,204.776 212.996483,205.12 212.996483,205.568 C212.996483,205.877333 212.915793,206.189333 212.754414,206.504 C212.593034,206.818667 212.281034,207.194667 211.818414,207.632 L211.818414,207.632 L207.461172,211.712 L207.461172,213.392 L215.998138,213.392 Z M219.288259,208.884 C220.013121,208.884 220.601483,208.639 221.053345,208.149 C221.505207,207.659 221.731138,207.003333 221.731138,206.182 C221.731138,205.360667 221.505207,204.705 221.053345,204.215 C220.601483,203.725 220.013121,203.48 219.288259,203.48 C218.563397,203.48 217.972681,203.725 217.516112,204.215 C217.059543,204.705 216.831259,205.360667 216.831259,206.182 C216.831259,207.003333 217.059543,207.659 217.516112,208.149 C217.972681,208.639 218.563397,208.884 219.288259,208.884 Z M220.107259,213.392 L226.856948,203.592 L225.176586,203.592 L218.426897,213.392 L220.107259,213.392 Z M219.288259,207.736 C218.977603,207.736 218.728138,207.603 218.539862,207.337 C218.351586,207.071 218.257448,206.686 218.257448,206.182 C218.257448,205.678 218.351586,205.293 218.539862,205.027 C218.728138,204.761 218.977603,204.628 219.288259,204.628 C219.608328,204.628 219.860147,204.758667 220.043716,205.02 C220.227284,205.281333 220.319069,205.668667 220.319069,206.182 C220.319069,206.695333 220.227284,207.082667 220.043716,207.344 C219.860147,207.605333 219.608328,207.736 219.288259,207.736 Z M225.995586,213.504 C226.720448,213.504 227.311164,213.259 227.767733,212.769 C228.224302,212.279 228.452586,211.623333 228.452586,210.802 C228.452586,209.980667 228.224302,209.325 227.767733,208.835 C227.311164,208.345 226.720448,208.1 225.995586,208.1 C225.524897,208.1 225.103629,208.209667 224.731784,208.429 C224.35994,208.648333 224.070466,208.963333 223.863362,209.374 C223.656259,209.784667 223.552707,210.260667 223.552707,210.802 C223.552707,211.343333 223.656259,211.819333 223.863362,212.23 C224.070466,212.640667 224.35994,212.955667 224.731784,213.175 C225.103629,213.394333 225.524897,213.504 225.995586,213.504 Z M225.995586,212.356 C225.684931,212.356 225.435466,212.225333 225.24719,211.964 C225.058914,211.702667 224.964776,211.315333 224.964776,210.802 C224.964776,210.288667 225.058914,209.901333 225.24719,209.64 C225.435466,209.378667 225.684931,209.248 225.995586,209.248 C226.315655,209.248 226.567474,209.381 226.751043,209.647 C226.934612,209.913 227.026397,210.298 227.026397,210.802 C227.026397,211.306 226.934612,211.691 226.751043,211.957 C226.567474,212.223 226.315655,212.356 225.995586,212.356 Z" id="12%" fill="#3772FF" fill-rule="nonzero"></path>
                <path d="M205.589172,293.2 L205.589172,282 L200.715517,282 L200.715517,284.08 L202.974828,284.08 L202.974828,293.2 L205.589172,293.2 Z M211.22131,293.392 C212.243379,293.392 213.106759,293.226667 213.811448,292.896 C214.516138,292.565333 215.040621,292.125333 215.384897,291.576 C215.729172,291.026667 215.90131,290.426667 215.90131,289.776 C215.90131,288.933333 215.637724,288.226667 215.110552,287.656 C214.583379,287.085333 213.824897,286.72 212.835103,286.56 L212.835103,286.56 L215.384897,283.68 L215.384897,282 L207.47731,282 L207.47731,284.08 L212.286414,284.08 L209.962552,286.688 L209.962552,288.4 L211.156759,288.4 C212.566138,288.4 213.270828,288.858667 213.270828,289.776 C213.270828,290.234667 213.082552,290.589333 212.706,290.84 C212.329448,291.090667 211.813034,291.216 211.156759,291.216 C210.565034,291.216 209.986759,291.128 209.421931,290.952 C208.857103,290.776 208.359517,290.528 207.929172,290.208 L207.929172,290.208 L206.912483,292.192 C207.450414,292.576 208.104,292.872 208.873241,293.08 C209.642483,293.288 210.425172,293.392 211.22131,293.392 Z M219.320534,288.692 C220.045397,288.692 220.633759,288.447 221.085621,287.957 C221.537483,287.467 221.763414,286.811333 221.763414,285.99 C221.763414,285.168667 221.537483,284.513 221.085621,284.023 C220.633759,283.533 220.045397,283.288 219.320534,283.288 C218.595672,283.288 218.004957,283.533 217.548388,284.023 C217.091819,284.513 216.863534,285.168667 216.863534,285.99 C216.863534,286.811333 217.091819,287.467 217.548388,287.957 C218.004957,288.447 218.595672,288.692 219.320534,288.692 Z M220.139534,293.2 L226.889224,283.4 L225.208862,283.4 L218.459172,293.2 L220.139534,293.2 Z M219.320534,287.544 C219.009879,287.544 218.760414,287.411 218.572138,287.145 C218.383862,286.879 218.289724,286.494 218.289724,285.99 C218.289724,285.486 218.383862,285.101 218.572138,284.835 C218.760414,284.569 219.009879,284.436 219.320534,284.436 C219.640603,284.436 219.892422,284.566667 220.075991,284.828 C220.25956,285.089333 220.351345,285.476667 220.351345,285.99 C220.351345,286.503333 220.25956,286.890667 220.075991,287.152 C219.892422,287.413333 219.640603,287.544 219.320534,287.544 Z M226.027862,293.312 C226.752724,293.312 227.34344,293.067 227.800009,292.577 C228.256578,292.087 228.484862,291.431333 228.484862,290.61 C228.484862,289.788667 228.256578,289.133 227.800009,288.643 C227.34344,288.153 226.752724,287.908 226.027862,287.908 C225.557172,287.908 225.135905,288.017667 224.76406,288.237 C224.392216,288.456333 224.102741,288.771333 223.895638,289.182 C223.688534,289.592667 223.584983,290.068667 223.584983,290.61 C223.584983,291.151333 223.688534,291.627333 223.895638,292.038 C224.102741,292.448667 224.392216,292.763667 224.76406,292.983 C225.135905,293.202333 225.557172,293.312 226.027862,293.312 Z M226.027862,292.164 C225.717207,292.164 225.467741,292.033333 225.279466,291.772 C225.09119,291.510667 224.997052,291.123333 224.997052,290.61 C224.997052,290.096667 225.09119,289.709333 225.279466,289.448 C225.467741,289.186667 225.717207,289.056 226.027862,289.056 C226.347931,289.056 226.59975,289.189 226.783319,289.455 C226.966888,289.721 227.058672,290.106 227.058672,290.61 C227.058672,291.114 226.966888,291.499 226.783319,291.765 C226.59975,292.031 226.347931,292.164 226.027862,292.164 Z" id="13%" fill="#3772FF" fill-rule="nonzero"></path>
                <g id="Group-25-Copy-4" transform="translate(278.856592, 15.968331)">
                    <path d="M22.6798448,17.868 L22.6798448,15.32 L25.3062931,15.32 L25.3062931,14.494 L22.6798448,14.494 L22.6798448,11.932 L21.7902414,11.932 L21.7902414,14.494 L19.1637931,14.494 L19.1637931,15.32 L21.7902414,15.32 L21.7902414,17.868 L22.6798448,17.868 Z M30.1496897,19.884 C30.9310345,19.884 31.59,19.7556667 32.1265862,19.499 C32.6631724,19.2423333 33.0656121,18.89 33.3339052,18.442 C33.6021983,17.994 33.7363448,17.4853333 33.7363448,16.916 C33.7363448,16.0013333 33.4092155,15.2896667 32.7549569,14.781 C32.1006983,14.2723333 31.0581207,14.018 29.6272241,14.018 L29.6272241,14.018 L28.3563621,14.018 L28.6952586,10.896 L33.2138793,10.896 L33.2138793,10 L27.8056552,10 L27.2973103,14.914 L29.4012931,14.914 C30.5968448,14.914 31.4464397,15.0866667 31.9500776,15.432 C32.4537155,15.7773333 32.7055345,16.286 32.7055345,16.958 C32.7055345,17.5646667 32.4819569,18.05 32.0348017,18.414 C31.5876466,18.778 30.954569,18.96 30.135569,18.96 C29.5142586,18.96 28.9353103,18.855 28.3987241,18.645 C27.8621379,18.435 27.4291034,18.162 27.0996207,17.826 L27.0996207,17.826 L26.6053966,18.624 C26.9913621,19.0066667 27.5020603,19.3123333 28.1374914,19.541 C28.7729224,19.7696667 29.4436552,19.884 30.1496897,19.884 Z M36.687569,22.516 L36.687569,18.414 C36.9982241,18.89 37.3959569,19.2516667 37.8807672,19.499 C38.3655776,19.7463333 38.9092241,19.87 39.5117069,19.87 C40.2177414,19.87 40.850819,19.7136667 41.4109397,19.401 C41.9710603,19.0883333 42.4111552,18.6473333 42.7312241,18.078 C43.0512931,17.5086667 43.2113276,16.8553333 43.2113276,16.118 C43.2113276,15.39 43.0512931,14.7413333 42.7312241,14.172 C42.4111552,13.6026667 41.9687069,13.1616667 41.4038793,12.849 C40.8390517,12.5363333 40.2083276,12.38 39.5117069,12.38 C38.8903966,12.38 38.3326293,12.5106667 37.8384052,12.772 C37.344181,13.0333333 36.9464483,13.4066667 36.6452069,13.892 L36.6452069,13.892 L36.6452069,12.436 L35.685,12.436 L35.685,22.516 L36.687569,22.516 Z M39.4411034,18.988 C38.913931,18.988 38.4408879,18.869 38.0219741,18.631 C37.6030603,18.393 37.2735776,18.0546667 37.0335259,17.616 C36.7934741,17.1773333 36.6734483,16.678 36.6734483,16.118 C36.6734483,15.558 36.7934741,15.061 37.0335259,14.627 C37.2735776,14.193 37.6030603,13.8546667 38.0219741,13.612 C38.4408879,13.3693333 38.913931,13.248 39.4411034,13.248 C39.9588621,13.248 40.4295517,13.3693333 40.8531724,13.612 C41.2767931,13.8546667 41.6086293,14.193 41.848681,14.627 C42.0887328,15.061 42.2087586,15.558 42.2087586,16.118 C42.2087586,16.678 42.0887328,17.1773333 41.848681,17.616 C41.6086293,18.0546667 41.2767931,18.393 40.8531724,18.631 C40.4295517,18.869 39.9588621,18.988 39.4411034,18.988 Z M46.2613966,22.516 L46.2613966,18.414 C46.5720517,18.89 46.9697845,19.2516667 47.4545948,19.499 C47.9394052,19.7463333 48.4830517,19.87 49.0855345,19.87 C49.791569,19.87 50.4246466,19.7136667 50.9847672,19.401 C51.5448879,19.0883333 51.9849828,18.6473333 52.3050517,18.078 C52.6251207,17.5086667 52.7851552,16.8553333 52.7851552,16.118 C52.7851552,15.39 52.6251207,14.7413333 52.3050517,14.172 C51.9849828,13.6026667 51.5425345,13.1616667 50.9777069,12.849 C50.4128793,12.5363333 49.7821552,12.38 49.0855345,12.38 C48.4642241,12.38 47.9064569,12.5106667 47.4122328,12.772 C46.9180086,13.0333333 46.5202759,13.4066667 46.2190345,13.892 L46.2190345,13.892 L46.2190345,12.436 L45.2588276,12.436 L45.2588276,22.516 L46.2613966,22.516 Z M49.014931,18.988 C48.4877586,18.988 48.0147155,18.869 47.5958017,18.631 C47.1768879,18.393 46.8474052,18.0546667 46.6073534,17.616 C46.3673017,17.1773333 46.2472759,16.678 46.2472759,16.118 C46.2472759,15.558 46.3673017,15.061 46.6073534,14.627 C46.8474052,14.193 47.1768879,13.8546667 47.5958017,13.612 C48.0147155,13.3693333 48.4877586,13.248 49.014931,13.248 C49.5326897,13.248 50.0033793,13.3693333 50.427,13.612 C50.8506207,13.8546667 51.1824569,14.193 51.4225086,14.627 C51.6625603,15.061 51.7825862,15.558 51.7825862,16.118 C51.7825862,16.678 51.6625603,17.1773333 51.4225086,17.616 C51.1824569,18.0546667 50.8506207,18.393 50.427,18.631 C50.0033793,18.869 49.5326897,18.988 49.014931,18.988 Z" id="+5pp" fill="#2D3142" fill-rule="nonzero"></path>
                    <rect id="Rectangle" stroke="#F3F3F3" x="0" y="0" width="71.1347869" height="31.9366629" rx="3"></rect>
                </g>
                <g id="Group-25-Copy-5" transform="translate(278.856592, 97.140683)">
                    <path d="M21.6712241,17.868 L21.6712241,15.32 L24.2976724,15.32 L24.2976724,14.494 L21.6712241,14.494 L21.6712241,11.932 L20.7816207,11.932 L20.7816207,14.494 L18.1551724,14.494 L18.1551724,15.32 L20.7816207,15.32 L20.7816207,17.868 L21.6712241,17.868 Z M28.8586552,19.8 L32.9960172,10.714 L32.9960172,10 L25.7379828,10 L25.7379828,12.73 L26.7405517,12.73 L26.7405517,10.896 L31.824,10.896 L27.7572414,19.8 L28.8586552,19.8 Z M36.0037241,22.516 L36.0037241,18.414 C36.3143793,18.89 36.7121121,19.2516667 37.1969224,19.499 C37.6817328,19.7463333 38.2253793,19.87 38.8278621,19.87 C39.5338966,19.87 40.1669741,19.7136667 40.7270948,19.401 C41.2872155,19.0883333 41.7273103,18.6473333 42.0473793,18.078 C42.3674483,17.5086667 42.5274828,16.8553333 42.5274828,16.118 C42.5274828,15.39 42.3674483,14.7413333 42.0473793,14.172 C41.7273103,13.6026667 41.2848621,13.1616667 40.7200345,12.849 C40.1552069,12.5363333 39.5244828,12.38 38.8278621,12.38 C38.2065517,12.38 37.6487845,12.5106667 37.1545603,12.772 C36.6603362,13.0333333 36.2626034,13.4066667 35.9613621,13.892 L35.9613621,13.892 L35.9613621,12.436 L35.0011552,12.436 L35.0011552,22.516 L36.0037241,22.516 Z M38.7572586,18.988 C38.2300862,18.988 37.7570431,18.869 37.3381293,18.631 C36.9192155,18.393 36.5897328,18.0546667 36.349681,17.616 C36.1096293,17.1773333 35.9896034,16.678 35.9896034,16.118 C35.9896034,15.558 36.1096293,15.061 36.349681,14.627 C36.5897328,14.193 36.9192155,13.8546667 37.3381293,13.612 C37.7570431,13.3693333 38.2300862,13.248 38.7572586,13.248 C39.2750172,13.248 39.7457069,13.3693333 40.1693276,13.612 C40.5929483,13.8546667 40.9247845,14.193 41.1648362,14.627 C41.4048879,15.061 41.5249138,15.558 41.5249138,16.118 C41.5249138,16.678 41.4048879,17.1773333 41.1648362,17.616 C40.9247845,18.0546667 40.5929483,18.393 40.1693276,18.631 C39.7457069,18.869 39.2750172,18.988 38.7572586,18.988 Z M45.5775517,22.516 L45.5775517,18.414 C45.8882069,18.89 46.2859397,19.2516667 46.77075,19.499 C47.2555603,19.7463333 47.7992069,19.87 48.4016897,19.87 C49.1077241,19.87 49.7408017,19.7136667 50.3009224,19.401 C50.8610431,19.0883333 51.3011379,18.6473333 51.6212069,18.078 C51.9412759,17.5086667 52.1013103,16.8553333 52.1013103,16.118 C52.1013103,15.39 51.9412759,14.7413333 51.6212069,14.172 C51.3011379,13.6026667 50.8586897,13.1616667 50.2938621,12.849 C49.7290345,12.5363333 49.0983103,12.38 48.4016897,12.38 C47.7803793,12.38 47.2226121,12.5106667 46.7283879,12.772 C46.2341638,13.0333333 45.836431,13.4066667 45.5351897,13.892 L45.5351897,13.892 L45.5351897,12.436 L44.5749828,12.436 L44.5749828,22.516 L45.5775517,22.516 Z M48.3310862,18.988 C47.8039138,18.988 47.3308707,18.869 46.9119569,18.631 C46.4930431,18.393 46.1635603,18.0546667 45.9235086,17.616 C45.6834569,17.1773333 45.563431,16.678 45.563431,16.118 C45.563431,15.558 45.6834569,15.061 45.9235086,14.627 C46.1635603,14.193 46.4930431,13.8546667 46.9119569,13.612 C47.3308707,13.3693333 47.8039138,13.248 48.3310862,13.248 C48.8488448,13.248 49.3195345,13.3693333 49.7431552,13.612 C50.1667759,13.8546667 50.4986121,14.193 50.7386638,14.627 C50.9787155,15.061 51.0987414,15.558 51.0987414,16.118 C51.0987414,16.678 50.9787155,17.1773333 50.7386638,17.616 C50.4986121,18.0546667 50.1667759,18.393 49.7431552,18.631 C49.3195345,18.869 48.8488448,18.988 48.3310862,18.988 Z" id="+7pp" fill="#2D3142" fill-rule="nonzero"></path>
                    <rect id="Rectangle" stroke="#F3F3F3" x="0" y="0" width="71.1347869" height="31.9366629" rx="3"></rect>
                </g>
                <g id="Group-25-Copy-6" transform="translate(278.856592, 175.651646)">
                    <path d="M19.6539828,17.952 L19.6539828,15.404 L22.280431,15.404 L22.280431,14.578 L19.6539828,14.578 L19.6539828,12.016 L18.7643793,12.016 L18.7643793,14.578 L16.137931,14.578 L16.137931,15.404 L18.7643793,15.404 L18.7643793,17.952 L19.6539828,17.952 Z M27.7592586,19.968 C28.5406034,19.968 29.22075,19.8536667 29.7996983,19.625 C30.3786466,19.3963333 30.8234483,19.0696667 31.1341034,18.645 C31.4447586,18.2203333 31.6000862,17.7233333 31.6000862,17.154 C31.6000862,16.5753333 31.4329914,16.0806667 31.0988017,15.67 C30.7646121,15.2593333 30.2868621,14.9513333 29.6655517,14.746 C30.1738966,14.55 30.564569,14.2676667 30.837569,13.899 C31.110569,13.5303333 31.247069,13.094 31.247069,12.59 C31.247069,12.0673333 31.1011552,11.61 30.8093276,11.218 C30.5175,10.826 30.1103534,10.525 29.5878879,10.315 C29.0654224,10.105 28.4558793,10 27.7592586,10 C26.7049138,10 25.8647328,10.2333333 25.2387155,10.7 C24.6126983,11.1666667 24.2996897,11.7966667 24.2996897,12.59 C24.2996897,13.094 24.4314828,13.5303333 24.695069,13.899 C24.9586552,14.2676667 25.3446207,14.55 25.8529655,14.746 C25.2316552,14.9513333 24.7586121,15.257 24.4338362,15.663 C24.1090603,16.069 23.9466724,16.566 23.9466724,17.154 C23.9466724,18.022 24.285569,18.708 24.9633621,19.212 C25.6411552,19.716 26.5731207,19.968 27.7592586,19.968 Z M27.7592586,14.382 C26.9967414,14.382 26.3989655,14.2233333 25.965931,13.906 C25.5328966,13.5886667 25.3163793,13.1593333 25.3163793,12.618 C25.3163793,12.0766667 25.53525,11.6473333 25.9729914,11.33 C26.4107328,11.0126667 27.0061552,10.854 27.7592586,10.854 C28.5029483,10.854 29.0983707,11.0126667 29.5455259,11.33 C29.992681,11.6473333 30.2162586,12.0813333 30.2162586,12.632 C30.2162586,13.164 29.9973879,13.5886667 29.5596466,13.906 C29.1219052,14.2233333 28.5217759,14.382 27.7592586,14.382 Z M27.7592586,19.114 C26.8837759,19.114 26.2012759,18.939 25.7117586,18.589 C25.2222414,18.239 24.9774828,17.756 24.9774828,17.14 C24.9774828,16.5333333 25.2245948,16.055 25.718819,15.705 C26.2130431,15.355 26.8931897,15.18 27.7592586,15.18 C28.6347414,15.18 29.3195948,15.355 29.813819,15.705 C30.3080431,16.055 30.5551552,16.5333333 30.5551552,17.14 C30.5551552,17.7466667 30.3080431,18.2273333 29.813819,18.582 C29.3195948,18.9366667 28.6347414,19.114 27.7592586,19.114 Z M34.6783966,22.6 L34.6783966,18.498 C34.9890517,18.974 35.3867845,19.3356667 35.8715948,19.583 C36.3564052,19.8303333 36.9000517,19.954 37.5025345,19.954 C38.208569,19.954 38.8416466,19.7976667 39.4017672,19.485 C39.9618879,19.1723333 40.4019828,18.7313333 40.7220517,18.162 C41.0421207,17.5926667 41.2021552,16.9393333 41.2021552,16.202 C41.2021552,15.474 41.0421207,14.8253333 40.7220517,14.256 C40.4019828,13.6866667 39.9595345,13.2456667 39.3947069,12.933 C38.8298793,12.6203333 38.1991552,12.464 37.5025345,12.464 C36.8812241,12.464 36.3234569,12.5946667 35.8292328,12.856 C35.3350086,13.1173333 34.9372759,13.4906667 34.6360345,13.976 L34.6360345,13.976 L34.6360345,12.52 L33.6758276,12.52 L33.6758276,22.6 L34.6783966,22.6 Z M37.431931,19.072 C36.9047586,19.072 36.4317155,18.953 36.0128017,18.715 C35.5938879,18.477 35.2644052,18.1386667 35.0243534,17.7 C34.7843017,17.2613333 34.6642759,16.762 34.6642759,16.202 C34.6642759,15.642 34.7843017,15.145 35.0243534,14.711 C35.2644052,14.277 35.5938879,13.9386667 36.0128017,13.696 C36.4317155,13.4533333 36.9047586,13.332 37.431931,13.332 C37.9496897,13.332 38.4203793,13.4533333 38.844,13.696 C39.2676207,13.9386667 39.5994569,14.277 39.8395086,14.711 C40.0795603,15.145 40.1995862,15.642 40.1995862,16.202 C40.1995862,16.762 40.0795603,17.2613333 39.8395086,17.7 C39.5994569,18.1386667 39.2676207,18.477 38.844,18.715 C38.4203793,18.953 37.9496897,19.072 37.431931,19.072 Z M44.2522241,22.6 L44.2522241,18.498 C44.5628793,18.974 44.9606121,19.3356667 45.4454224,19.583 C45.9302328,19.8303333 46.4738793,19.954 47.0763621,19.954 C47.7823966,19.954 48.4154741,19.7976667 48.9755948,19.485 C49.5357155,19.1723333 49.9758103,18.7313333 50.2958793,18.162 C50.6159483,17.5926667 50.7759828,16.9393333 50.7759828,16.202 C50.7759828,15.474 50.6159483,14.8253333 50.2958793,14.256 C49.9758103,13.6866667 49.5333621,13.2456667 48.9685345,12.933 C48.4037069,12.6203333 47.7729828,12.464 47.0763621,12.464 C46.4550517,12.464 45.8972845,12.5946667 45.4030603,12.856 C44.9088362,13.1173333 44.5111034,13.4906667 44.2098621,13.976 L44.2098621,13.976 L44.2098621,12.52 L43.2496552,12.52 L43.2496552,22.6 L44.2522241,22.6 Z M47.0057586,19.072 C46.4785862,19.072 46.0055431,18.953 45.5866293,18.715 C45.1677155,18.477 44.8382328,18.1386667 44.598181,17.7 C44.3581293,17.2613333 44.2381034,16.762 44.2381034,16.202 C44.2381034,15.642 44.3581293,15.145 44.598181,14.711 C44.8382328,14.277 45.1677155,13.9386667 45.5866293,13.696 C46.0055431,13.4533333 46.4785862,13.332 47.0057586,13.332 C47.5235172,13.332 47.9942069,13.4533333 48.4178276,13.696 C48.8414483,13.9386667 49.1732845,14.277 49.4133362,14.711 C49.6533879,15.145 49.7734138,15.642 49.7734138,16.202 C49.7734138,16.762 49.6533879,17.2613333 49.4133362,17.7 C49.1732845,18.1386667 48.8414483,18.477 48.4178276,18.715 C47.9942069,18.953 47.5235172,19.072 47.0057586,19.072 Z" id="+8pp" fill="#2D3142" fill-rule="nonzero"></path>
                    <rect id="Rectangle" stroke="#F3F3F3" x="0" y="0" width="67.1082895" height="31.9366629" rx="3"></rect>
                </g>
                <g id="Group-25-Copy-7" transform="translate(278.856592, 255.493303)">
                    <path d="M19.6539828,17.952 L19.6539828,15.404 L22.280431,15.404 L22.280431,14.578 L19.6539828,14.578 L19.6539828,12.016 L18.7643793,12.016 L18.7643793,14.578 L16.137931,14.578 L16.137931,15.404 L18.7643793,15.404 L18.7643793,17.952 L19.6539828,17.952 Z M27.7592586,19.968 C28.5406034,19.968 29.22075,19.8536667 29.7996983,19.625 C30.3786466,19.3963333 30.8234483,19.0696667 31.1341034,18.645 C31.4447586,18.2203333 31.6000862,17.7233333 31.6000862,17.154 C31.6000862,16.5753333 31.4329914,16.0806667 31.0988017,15.67 C30.7646121,15.2593333 30.2868621,14.9513333 29.6655517,14.746 C30.1738966,14.55 30.564569,14.2676667 30.837569,13.899 C31.110569,13.5303333 31.247069,13.094 31.247069,12.59 C31.247069,12.0673333 31.1011552,11.61 30.8093276,11.218 C30.5175,10.826 30.1103534,10.525 29.5878879,10.315 C29.0654224,10.105 28.4558793,10 27.7592586,10 C26.7049138,10 25.8647328,10.2333333 25.2387155,10.7 C24.6126983,11.1666667 24.2996897,11.7966667 24.2996897,12.59 C24.2996897,13.094 24.4314828,13.5303333 24.695069,13.899 C24.9586552,14.2676667 25.3446207,14.55 25.8529655,14.746 C25.2316552,14.9513333 24.7586121,15.257 24.4338362,15.663 C24.1090603,16.069 23.9466724,16.566 23.9466724,17.154 C23.9466724,18.022 24.285569,18.708 24.9633621,19.212 C25.6411552,19.716 26.5731207,19.968 27.7592586,19.968 Z M27.7592586,14.382 C26.9967414,14.382 26.3989655,14.2233333 25.965931,13.906 C25.5328966,13.5886667 25.3163793,13.1593333 25.3163793,12.618 C25.3163793,12.0766667 25.53525,11.6473333 25.9729914,11.33 C26.4107328,11.0126667 27.0061552,10.854 27.7592586,10.854 C28.5029483,10.854 29.0983707,11.0126667 29.5455259,11.33 C29.992681,11.6473333 30.2162586,12.0813333 30.2162586,12.632 C30.2162586,13.164 29.9973879,13.5886667 29.5596466,13.906 C29.1219052,14.2233333 28.5217759,14.382 27.7592586,14.382 Z M27.7592586,19.114 C26.8837759,19.114 26.2012759,18.939 25.7117586,18.589 C25.2222414,18.239 24.9774828,17.756 24.9774828,17.14 C24.9774828,16.5333333 25.2245948,16.055 25.718819,15.705 C26.2130431,15.355 26.8931897,15.18 27.7592586,15.18 C28.6347414,15.18 29.3195948,15.355 29.813819,15.705 C30.3080431,16.055 30.5551552,16.5333333 30.5551552,17.14 C30.5551552,17.7466667 30.3080431,18.2273333 29.813819,18.582 C29.3195948,18.9366667 28.6347414,19.114 27.7592586,19.114 Z M34.6783966,22.6 L34.6783966,18.498 C34.9890517,18.974 35.3867845,19.3356667 35.8715948,19.583 C36.3564052,19.8303333 36.9000517,19.954 37.5025345,19.954 C38.208569,19.954 38.8416466,19.7976667 39.4017672,19.485 C39.9618879,19.1723333 40.4019828,18.7313333 40.7220517,18.162 C41.0421207,17.5926667 41.2021552,16.9393333 41.2021552,16.202 C41.2021552,15.474 41.0421207,14.8253333 40.7220517,14.256 C40.4019828,13.6866667 39.9595345,13.2456667 39.3947069,12.933 C38.8298793,12.6203333 38.1991552,12.464 37.5025345,12.464 C36.8812241,12.464 36.3234569,12.5946667 35.8292328,12.856 C35.3350086,13.1173333 34.9372759,13.4906667 34.6360345,13.976 L34.6360345,13.976 L34.6360345,12.52 L33.6758276,12.52 L33.6758276,22.6 L34.6783966,22.6 Z M37.431931,19.072 C36.9047586,19.072 36.4317155,18.953 36.0128017,18.715 C35.5938879,18.477 35.2644052,18.1386667 35.0243534,17.7 C34.7843017,17.2613333 34.6642759,16.762 34.6642759,16.202 C34.6642759,15.642 34.7843017,15.145 35.0243534,14.711 C35.2644052,14.277 35.5938879,13.9386667 36.0128017,13.696 C36.4317155,13.4533333 36.9047586,13.332 37.431931,13.332 C37.9496897,13.332 38.4203793,13.4533333 38.844,13.696 C39.2676207,13.9386667 39.5994569,14.277 39.8395086,14.711 C40.0795603,15.145 40.1995862,15.642 40.1995862,16.202 C40.1995862,16.762 40.0795603,17.2613333 39.8395086,17.7 C39.5994569,18.1386667 39.2676207,18.477 38.844,18.715 C38.4203793,18.953 37.9496897,19.072 37.431931,19.072 Z M44.2522241,22.6 L44.2522241,18.498 C44.5628793,18.974 44.9606121,19.3356667 45.4454224,19.583 C45.9302328,19.8303333 46.4738793,19.954 47.0763621,19.954 C47.7823966,19.954 48.4154741,19.7976667 48.9755948,19.485 C49.5357155,19.1723333 49.9758103,18.7313333 50.2958793,18.162 C50.6159483,17.5926667 50.7759828,16.9393333 50.7759828,16.202 C50.7759828,15.474 50.6159483,14.8253333 50.2958793,14.256 C49.9758103,13.6866667 49.5333621,13.2456667 48.9685345,12.933 C48.4037069,12.6203333 47.7729828,12.464 47.0763621,12.464 C46.4550517,12.464 45.8972845,12.5946667 45.4030603,12.856 C44.9088362,13.1173333 44.5111034,13.4906667 44.2098621,13.976 L44.2098621,13.976 L44.2098621,12.52 L43.2496552,12.52 L43.2496552,22.6 L44.2522241,22.6 Z M47.0057586,19.072 C46.4785862,19.072 46.0055431,18.953 45.5866293,18.715 C45.1677155,18.477 44.8382328,18.1386667 44.598181,17.7 C44.3581293,17.2613333 44.2381034,16.762 44.2381034,16.202 C44.2381034,15.642 44.3581293,15.145 44.598181,14.711 C44.8382328,14.277 45.1677155,13.9386667 45.5866293,13.696 C46.0055431,13.4533333 46.4785862,13.332 47.0057586,13.332 C47.5235172,13.332 47.9942069,13.4533333 48.4178276,13.696 C48.8414483,13.9386667 49.1732845,14.277 49.4133362,14.711 C49.6533879,15.145 49.7734138,15.642 49.7734138,16.202 C49.7734138,16.762 49.6533879,17.2613333 49.4133362,17.7 C49.1732845,18.1386667 48.8414483,18.477 48.4178276,18.715 C47.9942069,18.953 47.5235172,19.072 47.0057586,19.072 Z" id="+8pp" fill="#2D3142" fill-rule="nonzero"></path>
                    <rect id="Rectangle" stroke="#F3F3F3" x="0" y="0" width="67.1082895" height="31.9366629" rx="3"></rect>
                </g>
                <path d="M206.581655,53.2 L210.777517,43.68 L210.777517,42 L201.724138,42 L201.724138,45.936 L204.048,45.936 L204.048,44.112 L207.792,44.112 L203.741379,53.2 L206.581655,53.2 Z M214.148328,48.692 C214.87319,48.692 215.461552,48.447 215.913414,47.957 C216.365276,47.467 216.591207,46.8113333 216.591207,45.99 C216.591207,45.1686667 216.365276,44.513 215.913414,44.023 C215.461552,43.533 214.87319,43.288 214.148328,43.288 C213.423466,43.288 212.83275,43.533 212.376181,44.023 C211.919612,44.513 211.691328,45.1686667 211.691328,45.99 C211.691328,46.8113333 211.919612,47.467 212.376181,47.957 C212.83275,48.447 213.423466,48.692 214.148328,48.692 Z M214.967328,53.2 L221.717017,43.4 L220.036655,43.4 L213.286966,53.2 L214.967328,53.2 Z M214.148328,47.544 C213.837672,47.544 213.588207,47.411 213.399931,47.145 C213.211655,46.879 213.117517,46.494 213.117517,45.99 C213.117517,45.486 213.211655,45.101 213.399931,44.835 C213.588207,44.569 213.837672,44.436 214.148328,44.436 C214.468397,44.436 214.720216,44.5666667 214.903784,44.828 C215.087353,45.0893333 215.179138,45.4766667 215.179138,45.99 C215.179138,46.5033333 215.087353,46.8906667 214.903784,47.152 C214.720216,47.4133333 214.468397,47.544 214.148328,47.544 Z M220.855655,53.312 C221.580517,53.312 222.171233,53.067 222.627802,52.577 C223.084371,52.087 223.312655,51.4313333 223.312655,50.61 C223.312655,49.7886667 223.084371,49.133 222.627802,48.643 C222.171233,48.153 221.580517,47.908 220.855655,47.908 C220.384966,47.908 219.963698,48.0176667 219.591853,48.237 C219.220009,48.4563333 218.930534,48.7713333 218.723431,49.182 C218.516328,49.5926667 218.412776,50.0686667 218.412776,50.61 C218.412776,51.1513333 218.516328,51.6273333 218.723431,52.038 C218.930534,52.4486667 219.220009,52.7636667 219.591853,52.983 C219.963698,53.2023333 220.384966,53.312 220.855655,53.312 Z M220.855655,52.164 C220.545,52.164 220.295534,52.0333333 220.107259,51.772 C219.918983,51.5106667 219.824845,51.1233333 219.824845,50.61 C219.824845,50.0966667 219.918983,49.7093333 220.107259,49.448 C220.295534,49.1866667 220.545,49.056 220.855655,49.056 C221.175724,49.056 221.427543,49.189 221.611112,49.455 C221.794681,49.721 221.886466,50.106 221.886466,50.61 C221.886466,51.114 221.794681,51.499 221.611112,51.765 C221.427543,52.031 221.175724,52.164 220.855655,52.164 Z" id="7%" fill="#3772FF" fill-rule="nonzero"></path>
                <rect id="Rectangle-Copy-58" fill="#F3F3F3" x="52.0305737" y="1.70530257e-13" width="134.216579" height="303.398298"></rect>
                <g id="Group-26-Copy" transform="translate(52.448276, 0.000000)">
                    <rect id="Rectangle-Copy-50" fill="#FFBA08" x="0" y="0" width="2.68433158" height="31.9366629"></rect>
                    <rect id="Rectangle-Copy-51" fill="#3772FF" x="0" y="32" width="9.39516054" height="31.9366629"></rect>
                </g>
                <g id="Group-28-Copy" transform="translate(52.448276, 80.000000)">
                    <rect id="Rectangle-Copy-52" fill="#FFBA08" x="0" y="0" width="5.36866316" height="31.9366629"></rect>
                    <rect id="Rectangle-Copy-53" fill="#3772FF" x="0" y="32" width="14.7638237" height="31.9366629"></rect>
                </g>
                <g id="Group-30-Copy" transform="translate(52.448276, 160.000000)">
                    <rect id="Rectangle-Copy-54" fill="#FFBA08" x="0" y="0" width="5.36866316" height="31.9366629"></rect>
                    <rect id="Rectangle-Copy-55" fill="#3772FF" x="0" y="32" width="16.1059895" height="31.9366629"></rect>
                </g>
                <g id="Group-31-Copy" transform="translate(52.448276, 240.000000)">
                    <rect id="Rectangle-Copy-56" fill="#FFBA08" x="0" y="0" width="6.71082895" height="31.9366629"></rect>
                    <rect id="Rectangle-Copy-57" fill="#3772FF" x="0" y="32" width="17.4481553" height="31.9366629"></rect>
                </g>
            </g>
        </g>
    </g>
</svg>