<?xml version="1.0" encoding="UTF-8"?>
<svg width="389px" height="751px" viewBox="0 0 389 751" version="1.1" xmlns="http://www.w3.org/2000/svg" xmlns:xlink="http://www.w3.org/1999/xlink">
    <title>Group 3</title>
    <g id="Home-&gt;-Chronology-&gt;-Timeline" stroke="none" stroke-width="1" fill="none" fill-rule="evenodd">
        <g id="Tablet/Timeline/School-years/Family-circumstances" transform="translate(-338.000000, -5199.000000)">
            <g id="Group-3" transform="translate(339.000000, 5199.000000)">
                <path d="M5.296,12.096 C6.16,12.096 6.93066667,11.8666667 7.608,11.408 C8.28533333,10.9493333 8.816,10.2906667 9.2,9.432 C9.584,8.57333333 9.776,7.56266667 9.776,6.4 C9.776,5.23733333 9.584,4.22666667 9.2,3.368 C8.816,2.50933333 8.28533333,1.85066667 7.608,1.392 C6.93066667,0.933333333 6.16,0.704 5.296,0.704 C4.432,0.704 3.66133333,0.933333333 2.984,1.392 C2.30666667,1.85066667 1.77866667,2.50933333 1.4,3.368 C1.02133333,4.22666667 0.832,5.23733333 0.832,6.4 C0.832,7.56266667 1.02133333,8.57333333 1.4,9.432 C1.77866667,10.2906667 2.30666667,10.9493333 2.984,11.408 C3.66133333,11.8666667 4.432,12.096 5.296,12.096 Z M5.296,11.04 C4.64533333,11.04 4.072,10.8586667 3.576,10.496 C3.08,10.1333333 2.69333333,9.60533333 2.416,8.912 C2.13866667,8.21866667 2,7.38133333 2,6.4 C2,5.41866667 2.13866667,4.58133333 2.416,3.888 C2.69333333,3.19466667 3.08,2.66666667 3.576,2.304 C4.072,1.94133333 4.64533333,1.76 5.296,1.76 C5.94666667,1.76 6.52,1.94133333 7.016,2.304 C7.512,2.66666667 7.89866667,3.19466667 8.176,3.888 C8.45333333,4.58133333 8.592,5.41866667 8.592,6.4 C8.592,7.38133333 8.45333333,8.21866667 8.176,8.912 C7.89866667,9.60533333 7.512,10.1333333 7.016,10.496 C6.52,10.8586667 5.94666667,11.04 5.296,11.04 Z M13.392,7.45 C14.0453333,7.45 14.5773333,7.20733333 14.988,6.722 C15.3986667,6.23666667 15.604,5.59266667 15.604,4.79 C15.604,3.98733333 15.3986667,3.34333333 14.988,2.858 C14.5773333,2.37266667 14.0453333,2.13 13.392,2.13 C12.7293333,2.13 12.195,2.375 11.789,2.865 C11.383,3.355 11.18,3.99666667 11.18,4.79 C11.18,5.58333333 11.383,6.225 11.789,6.715 C12.195,7.205 12.7293333,7.45 13.392,7.45 Z M13.462,12 L20.154,2.2 L19.328,2.2 L12.636,12 L13.462,12 Z M13.392,6.82 C12.9253333,6.82 12.5566667,6.638 12.286,6.274 C12.0153333,5.91 11.88,5.41533333 11.88,4.79 C11.88,4.16466667 12.0153333,3.67 12.286,3.306 C12.5566667,2.942 12.9253333,2.76 13.392,2.76 C13.8493333,2.76 14.2156667,2.93966667 14.491,3.299 C14.7663333,3.65833333 14.904,4.15533333 14.904,4.79 C14.904,5.42466667 14.7663333,5.92166667 14.491,6.281 C14.2156667,6.64033333 13.8493333,6.82 13.392,6.82 Z M19.398,12.07 C20.0606667,12.07 20.595,11.825 21.001,11.335 C21.407,10.845 21.61,10.2033333 21.61,9.41 C21.61,8.61666667 21.407,7.975 21.001,7.485 C20.595,6.995 20.0606667,6.75 19.398,6.75 C18.7446667,6.75 18.2126667,6.995 17.802,7.485 C17.3913333,7.975 17.186,8.61666667 17.186,9.41 C17.186,10.2033333 17.3913333,10.845 17.802,11.335 C18.2126667,11.825 18.7446667,12.07 19.398,12.07 Z M19.398,11.44 C18.9406667,11.44 18.5743333,11.2603333 18.299,10.901 C18.0236667,10.5416667 17.886,10.0446667 17.886,9.41 C17.886,8.77533333 18.0236667,8.27833333 18.299,7.919 C18.5743333,7.55966667 18.9406667,7.38 19.398,7.38 C19.8646667,7.38 20.2333333,7.562 20.504,7.926 C20.7746667,8.29 20.91,8.78466667 20.91,9.41 C20.91,10.0353333 20.7746667,10.53 20.504,10.894 C20.2333333,11.258 19.8646667,11.44 19.398,11.44 Z" id="0%" fill="#2D3142" fill-rule="nonzero"></path>
                <path d="M364.936,12 L364.936,0.8 L361.144,0.8 L361.144,1.824 L363.784,1.824 L363.784,12 L364.936,12 Z M372.2,12.096 C372.925333,12.096 373.578667,11.9546667 374.16,11.672 C374.741333,11.3893333 375.197333,10.9866667 375.528,10.464 C375.858667,9.94133333 376.024,9.33866667 376.024,8.656 C376.024,7.984 375.864,7.39466667 375.544,6.888 C375.224,6.38133333 374.778667,5.98933333 374.208,5.712 C373.637333,5.43466667 372.984,5.296 372.248,5.296 C371.458667,5.296 370.76,5.464 370.152,5.8 C369.544,6.136 369.101333,6.608 368.824,7.216 C368.792,6.87466667 368.776,6.57066667 368.776,6.304 C368.776,4.81066667 369.128,3.672 369.832,2.888 C370.536,2.104 371.506667,1.712 372.744,1.712 C373.661333,1.712 374.386667,1.888 374.92,2.24 L374.92,2.24 L375.384,1.312 C374.722667,0.906666667 373.837333,0.704 372.728,0.704 C371.704,0.704 370.808,0.925333333 370.04,1.368 C369.272,1.81066667 368.674667,2.464 368.248,3.328 C367.821333,4.192 367.608,5.248 367.608,6.496 C367.608,8.27733333 368.002667,9.656 368.792,10.632 C369.581333,11.608 370.717333,12.096 372.2,12.096 Z M372.152,11.12 C371.533333,11.12 371,11.008 370.552,10.784 C370.104,10.56 369.765333,10.2666667 369.536,9.904 C369.306667,9.54133333 369.192,9.14666667 369.192,8.72 C369.192,8.26133333 369.314667,7.84533333 369.56,7.472 C369.805333,7.09866667 370.144,6.80533333 370.576,6.592 C371.008,6.37866667 371.506667,6.272 372.072,6.272 C372.936,6.272 373.621333,6.49066667 374.128,6.928 C374.634667,7.36533333 374.888,7.952 374.888,8.688 C374.888,9.424 374.634667,10.0133333 374.128,10.456 C373.621333,10.8986667 372.962667,11.12 372.152,11.12 Z M379.32,7.45 C379.973333,7.45 380.505333,7.20733333 380.916,6.722 C381.326667,6.23666667 381.532,5.59266667 381.532,4.79 C381.532,3.98733333 381.326667,3.34333333 380.916,2.858 C380.505333,2.37266667 379.973333,2.13 379.32,2.13 C378.657333,2.13 378.123,2.375 377.717,2.865 C377.311,3.355 377.108,3.99666667 377.108,4.79 C377.108,5.58333333 377.311,6.225 377.717,6.715 C378.123,7.205 378.657333,7.45 379.32,7.45 Z M379.39,12 L386.082,2.2 L385.256,2.2 L378.564,12 L379.39,12 Z M379.32,6.82 C378.853333,6.82 378.484667,6.638 378.214,6.274 C377.943333,5.91 377.808,5.41533333 377.808,4.79 C377.808,4.16466667 377.943333,3.67 378.214,3.306 C378.484667,2.942 378.853333,2.76 379.32,2.76 C379.777333,2.76 380.143667,2.93966667 380.419,3.299 C380.694333,3.65833333 380.832,4.15533333 380.832,4.79 C380.832,5.42466667 380.694333,5.92166667 380.419,6.281 C380.143667,6.64033333 379.777333,6.82 379.32,6.82 Z M385.326,12.07 C385.988667,12.07 386.523,11.825 386.929,11.335 C387.335,10.845 387.538,10.2033333 387.538,9.41 C387.538,8.61666667 387.335,7.975 386.929,7.485 C386.523,6.995 385.988667,6.75 385.326,6.75 C384.672667,6.75 384.140667,6.995 383.73,7.485 C383.319333,7.975 383.114,8.61666667 383.114,9.41 C383.114,10.2033333 383.319333,10.845 383.73,11.335 C384.140667,11.825 384.672667,12.07 385.326,12.07 Z M385.326,11.44 C384.868667,11.44 384.502333,11.2603333 384.227,10.901 C383.951667,10.5416667 383.814,10.0446667 383.814,9.41 C383.814,8.77533333 383.951667,8.27833333 384.227,7.919 C384.502333,7.55966667 384.868667,7.38 385.326,7.38 C385.792667,7.38 386.161333,7.562 386.432,7.926 C386.702667,8.29 386.838,8.78466667 386.838,9.41 C386.838,10.0353333 386.702667,10.53 386.432,10.894 C386.161333,11.258 385.792667,11.44 385.326,11.44 Z" id="16%" fill="#2D3142" fill-rule="nonzero"></path>
                <path d="M318.936,12 L318.936,0.8 L315.144,0.8 L315.144,1.824 L317.784,1.824 L317.784,12 L318.936,12 Z M328.888,12 L328.888,9.056 L331.128,9.056 L331.128,8.032 L328.888,8.032 L328.888,5.44 L327.768,5.44 L327.768,8.032 L322.904,8.032 L328.632,0.8 L327.352,0.8 L321.416,8.224 L321.416,9.056 L327.736,9.056 L327.736,12 L328.888,12 Z M334.152,7.45 C334.805333,7.45 335.337333,7.20733333 335.748,6.722 C336.158667,6.23666667 336.364,5.59266667 336.364,4.79 C336.364,3.98733333 336.158667,3.34333333 335.748,2.858 C335.337333,2.37266667 334.805333,2.13 334.152,2.13 C333.489333,2.13 332.955,2.375 332.549,2.865 C332.143,3.355 331.94,3.99666667 331.94,4.79 C331.94,5.58333333 332.143,6.225 332.549,6.715 C332.955,7.205 333.489333,7.45 334.152,7.45 Z M334.222,12 L340.914,2.2 L340.088,2.2 L333.396,12 L334.222,12 Z M334.152,6.82 C333.685333,6.82 333.316667,6.638 333.046,6.274 C332.775333,5.91 332.64,5.41533333 332.64,4.79 C332.64,4.16466667 332.775333,3.67 333.046,3.306 C333.316667,2.942 333.685333,2.76 334.152,2.76 C334.609333,2.76 334.975667,2.93966667 335.251,3.299 C335.526333,3.65833333 335.664,4.15533333 335.664,4.79 C335.664,5.42466667 335.526333,5.92166667 335.251,6.281 C334.975667,6.64033333 334.609333,6.82 334.152,6.82 Z M340.158,12.07 C340.820667,12.07 341.355,11.825 341.761,11.335 C342.167,10.845 342.37,10.2033333 342.37,9.41 C342.37,8.61666667 342.167,7.975 341.761,7.485 C341.355,6.995 340.820667,6.75 340.158,6.75 C339.504667,6.75 338.972667,6.995 338.562,7.485 C338.151333,7.975 337.946,8.61666667 337.946,9.41 C337.946,10.2033333 338.151333,10.845 338.562,11.335 C338.972667,11.825 339.504667,12.07 340.158,12.07 Z M340.158,11.44 C339.700667,11.44 339.334333,11.2603333 339.059,10.901 C338.783667,10.5416667 338.646,10.0446667 338.646,9.41 C338.646,8.77533333 338.783667,8.27833333 339.059,7.919 C339.334333,7.55966667 339.700667,7.38 340.158,7.38 C340.624667,7.38 340.993333,7.562 341.264,7.926 C341.534667,8.29 341.67,8.78466667 341.67,9.41 C341.67,10.0353333 341.534667,10.53 341.264,10.894 C340.993333,11.258 340.624667,11.44 340.158,11.44 Z" id="14%" fill="#2D3142" fill-rule="nonzero"></path>
                <path d="M273.936,12 L273.936,0.8 L270.144,0.8 L270.144,1.824 L272.784,1.824 L272.784,12 L273.936,12 Z M284.256,12 L284.256,10.976 L278.096,10.976 L281.904,7.232 C282.618667,6.53866667 283.104,5.92533333 283.36,5.392 C283.616,4.85866667 283.744,4.304 283.744,3.728 C283.744,2.78933333 283.410667,2.05066667 282.744,1.512 C282.077333,0.973333333 281.173333,0.704 280.032,0.704 C279.178667,0.704 278.413333,0.842666667 277.736,1.12 C277.058667,1.39733333 276.501333,1.792 276.064,2.304 L276.064,2.304 L276.88,3.008 C277.605333,2.176 278.624,1.76 279.936,1.76 C280.778667,1.76 281.426667,1.944 281.88,2.312 C282.333333,2.68 282.56,3.19466667 282.56,3.856 C282.56,4.28266667 282.456,4.70666667 282.248,5.128 C282.04,5.54933333 281.642667,6.048 281.056,6.624 L281.056,6.624 L276.4,11.184 L276.4,12 L284.256,12 Z M287.664,7.45 C288.317333,7.45 288.849333,7.20733333 289.26,6.722 C289.670667,6.23666667 289.876,5.59266667 289.876,4.79 C289.876,3.98733333 289.670667,3.34333333 289.26,2.858 C288.849333,2.37266667 288.317333,2.13 287.664,2.13 C287.001333,2.13 286.467,2.375 286.061,2.865 C285.655,3.355 285.452,3.99666667 285.452,4.79 C285.452,5.58333333 285.655,6.225 286.061,6.715 C286.467,7.205 287.001333,7.45 287.664,7.45 Z M287.734,12 L294.426,2.2 L293.6,2.2 L286.908,12 L287.734,12 Z M287.664,6.82 C287.197333,6.82 286.828667,6.638 286.558,6.274 C286.287333,5.91 286.152,5.41533333 286.152,4.79 C286.152,4.16466667 286.287333,3.67 286.558,3.306 C286.828667,2.942 287.197333,2.76 287.664,2.76 C288.121333,2.76 288.487667,2.93966667 288.763,3.299 C289.038333,3.65833333 289.176,4.15533333 289.176,4.79 C289.176,5.42466667 289.038333,5.92166667 288.763,6.281 C288.487667,6.64033333 288.121333,6.82 287.664,6.82 Z M293.67,12.07 C294.332667,12.07 294.867,11.825 295.273,11.335 C295.679,10.845 295.882,10.2033333 295.882,9.41 C295.882,8.61666667 295.679,7.975 295.273,7.485 C294.867,6.995 294.332667,6.75 293.67,6.75 C293.016667,6.75 292.484667,6.995 292.074,7.485 C291.663333,7.975 291.458,8.61666667 291.458,9.41 C291.458,10.2033333 291.663333,10.845 292.074,11.335 C292.484667,11.825 293.016667,12.07 293.67,12.07 Z M293.67,11.44 C293.212667,11.44 292.846333,11.2603333 292.571,10.901 C292.295667,10.5416667 292.158,10.0446667 292.158,9.41 C292.158,8.77533333 292.295667,8.27833333 292.571,7.919 C292.846333,7.55966667 293.212667,7.38 293.67,7.38 C294.136667,7.38 294.505333,7.562 294.776,7.926 C295.046667,8.29 295.182,8.78466667 295.182,9.41 C295.182,10.0353333 295.046667,10.53 294.776,10.894 C294.505333,11.258 294.136667,11.44 293.67,11.44 Z" id="12%" fill="#2D3142" fill-rule="nonzero"></path>
                <path d="M185.088,12.096 C185.973333,12.096 186.744,11.9653333 187.4,11.704 C188.056,11.4426667 188.56,11.0693333 188.912,10.584 C189.264,10.0986667 189.44,9.53066667 189.44,8.88 C189.44,8.21866667 189.250667,7.65333333 188.872,7.184 C188.493333,6.71466667 187.952,6.36266667 187.248,6.128 C187.824,5.904 188.266667,5.58133333 188.576,5.16 C188.885333,4.73866667 189.04,4.24 189.04,3.664 C189.04,3.06666667 188.874667,2.544 188.544,2.096 C188.213333,1.648 187.752,1.304 187.16,1.064 C186.568,0.824 185.877333,0.704 185.088,0.704 C183.893333,0.704 182.941333,0.970666667 182.232,1.504 C181.522667,2.03733333 181.168,2.75733333 181.168,3.664 C181.168,4.24 181.317333,4.73866667 181.616,5.16 C181.914667,5.58133333 182.352,5.904 182.928,6.128 C182.224,6.36266667 181.688,6.712 181.32,7.176 C180.952,7.64 180.768,8.208 180.768,8.88 C180.768,9.872 181.152,10.656 181.92,11.232 C182.688,11.808 183.744,12.096 185.088,12.096 Z M185.088,5.712 C184.224,5.712 183.546667,5.53066667 183.056,5.168 C182.565333,4.80533333 182.32,4.31466667 182.32,3.696 C182.32,3.07733333 182.568,2.58666667 183.064,2.224 C183.56,1.86133333 184.234667,1.68 185.088,1.68 C185.930667,1.68 186.605333,1.86133333 187.112,2.224 C187.618667,2.58666667 187.872,3.08266667 187.872,3.712 C187.872,4.32 187.624,4.80533333 187.128,5.168 C186.632,5.53066667 185.952,5.712 185.088,5.712 Z M185.088,11.12 C184.096,11.12 183.322667,10.92 182.768,10.52 C182.213333,10.12 181.936,9.568 181.936,8.864 C181.936,8.17066667 182.216,7.624 182.776,7.224 C183.336,6.824 184.106667,6.624 185.088,6.624 C186.08,6.624 186.856,6.824 187.416,7.224 C187.976,7.624 188.256,8.17066667 188.256,8.864 C188.256,9.55733333 187.976,10.1066667 187.416,10.512 C186.856,10.9173333 186.08,11.12 185.088,11.12 Z M193.008,7.45 C193.661333,7.45 194.193333,7.20733333 194.604,6.722 C195.014667,6.23666667 195.22,5.59266667 195.22,4.79 C195.22,3.98733333 195.014667,3.34333333 194.604,2.858 C194.193333,2.37266667 193.661333,2.13 193.008,2.13 C192.345333,2.13 191.811,2.375 191.405,2.865 C190.999,3.355 190.796,3.99666667 190.796,4.79 C190.796,5.58333333 190.999,6.225 191.405,6.715 C191.811,7.205 192.345333,7.45 193.008,7.45 Z M193.078,12 L199.77,2.2 L198.944,2.2 L192.252,12 L193.078,12 Z M193.008,6.82 C192.541333,6.82 192.172667,6.638 191.902,6.274 C191.631333,5.91 191.496,5.41533333 191.496,4.79 C191.496,4.16466667 191.631333,3.67 191.902,3.306 C192.172667,2.942 192.541333,2.76 193.008,2.76 C193.465333,2.76 193.831667,2.93966667 194.107,3.299 C194.382333,3.65833333 194.52,4.15533333 194.52,4.79 C194.52,5.42466667 194.382333,5.92166667 194.107,6.281 C193.831667,6.64033333 193.465333,6.82 193.008,6.82 Z M199.014,12.07 C199.676667,12.07 200.211,11.825 200.617,11.335 C201.023,10.845 201.226,10.2033333 201.226,9.41 C201.226,8.61666667 201.023,7.975 200.617,7.485 C200.211,6.995 199.676667,6.75 199.014,6.75 C198.360667,6.75 197.828667,6.995 197.418,7.485 C197.007333,7.975 196.802,8.61666667 196.802,9.41 C196.802,10.2033333 197.007333,10.845 197.418,11.335 C197.828667,11.825 198.360667,12.07 199.014,12.07 Z M199.014,11.44 C198.556667,11.44 198.190333,11.2603333 197.915,10.901 C197.639667,10.5416667 197.502,10.0446667 197.502,9.41 C197.502,8.77533333 197.639667,8.27833333 197.915,7.919 C198.190333,7.55966667 198.556667,7.38 199.014,7.38 C199.480667,7.38 199.849333,7.562 200.12,7.926 C200.390667,8.29 200.526,8.78466667 200.526,9.41 C200.526,10.0353333 200.390667,10.53 200.12,10.894 C199.849333,11.258 199.480667,11.44 199.014,11.44 Z" id="8%" fill="#2D3142" fill-rule="nonzero"></path>
                <path d="M228.936,12 L228.936,0.8 L225.144,0.8 L225.144,1.824 L227.784,1.824 L227.784,12 L228.936,12 Z M236.072,12.096 C236.936,12.096 237.706667,11.8666667 238.384,11.408 C239.061333,10.9493333 239.592,10.2906667 239.976,9.432 C240.36,8.57333333 240.552,7.56266667 240.552,6.4 C240.552,5.23733333 240.36,4.22666667 239.976,3.368 C239.592,2.50933333 239.061333,1.85066667 238.384,1.392 C237.706667,0.933333333 236.936,0.704 236.072,0.704 C235.208,0.704 234.437333,0.933333333 233.76,1.392 C233.082667,1.85066667 232.554667,2.50933333 232.176,3.368 C231.797333,4.22666667 231.608,5.23733333 231.608,6.4 C231.608,7.56266667 231.797333,8.57333333 232.176,9.432 C232.554667,10.2906667 233.082667,10.9493333 233.76,11.408 C234.437333,11.8666667 235.208,12.096 236.072,12.096 Z M236.072,11.04 C235.421333,11.04 234.848,10.8586667 234.352,10.496 C233.856,10.1333333 233.469333,9.60533333 233.192,8.912 C232.914667,8.21866667 232.776,7.38133333 232.776,6.4 C232.776,5.41866667 232.914667,4.58133333 233.192,3.888 C233.469333,3.19466667 233.856,2.66666667 234.352,2.304 C234.848,1.94133333 235.421333,1.76 236.072,1.76 C236.722667,1.76 237.296,1.94133333 237.792,2.304 C238.288,2.66666667 238.674667,3.19466667 238.952,3.888 C239.229333,4.58133333 239.368,5.41866667 239.368,6.4 C239.368,7.38133333 239.229333,8.21866667 238.952,8.912 C238.674667,9.60533333 238.288,10.1333333 237.792,10.496 C237.296,10.8586667 236.722667,11.04 236.072,11.04 Z M244.168,7.45 C244.821333,7.45 245.353333,7.20733333 245.764,6.722 C246.174667,6.23666667 246.38,5.59266667 246.38,4.79 C246.38,3.98733333 246.174667,3.34333333 245.764,2.858 C245.353333,2.37266667 244.821333,2.13 244.168,2.13 C243.505333,2.13 242.971,2.375 242.565,2.865 C242.159,3.355 241.956,3.99666667 241.956,4.79 C241.956,5.58333333 242.159,6.225 242.565,6.715 C242.971,7.205 243.505333,7.45 244.168,7.45 Z M244.238,12 L250.93,2.2 L250.104,2.2 L243.412,12 L244.238,12 Z M244.168,6.82 C243.701333,6.82 243.332667,6.638 243.062,6.274 C242.791333,5.91 242.656,5.41533333 242.656,4.79 C242.656,4.16466667 242.791333,3.67 243.062,3.306 C243.332667,2.942 243.701333,2.76 244.168,2.76 C244.625333,2.76 244.991667,2.93966667 245.267,3.299 C245.542333,3.65833333 245.68,4.15533333 245.68,4.79 C245.68,5.42466667 245.542333,5.92166667 245.267,6.281 C244.991667,6.64033333 244.625333,6.82 244.168,6.82 Z M250.174,12.07 C250.836667,12.07 251.371,11.825 251.777,11.335 C252.183,10.845 252.386,10.2033333 252.386,9.41 C252.386,8.61666667 252.183,7.975 251.777,7.485 C251.371,6.995 250.836667,6.75 250.174,6.75 C249.520667,6.75 248.988667,6.995 248.578,7.485 C248.167333,7.975 247.962,8.61666667 247.962,9.41 C247.962,10.2033333 248.167333,10.845 248.578,11.335 C248.988667,11.825 249.520667,12.07 250.174,12.07 Z M250.174,11.44 C249.716667,11.44 249.350333,11.2603333 249.075,10.901 C248.799667,10.5416667 248.662,10.0446667 248.662,9.41 C248.662,8.77533333 248.799667,8.27833333 249.075,7.919 C249.350333,7.55966667 249.716667,7.38 250.174,7.38 C250.640667,7.38 251.009333,7.562 251.28,7.926 C251.550667,8.29 251.686,8.78466667 251.686,9.41 C251.686,10.0353333 251.550667,10.53 251.28,10.894 C251.009333,11.258 250.640667,11.44 250.174,11.44 Z" id="10%" fill="#2D3142" fill-rule="nonzero"></path>
                <path d="M140.424,12.096 C141.149333,12.096 141.802667,11.9546667 142.384,11.672 C142.965333,11.3893333 143.421333,10.9866667 143.752,10.464 C144.082667,9.94133333 144.248,9.33866667 144.248,8.656 C144.248,7.984 144.088,7.39466667 143.768,6.888 C143.448,6.38133333 143.002667,5.98933333 142.432,5.712 C141.861333,5.43466667 141.208,5.296 140.472,5.296 C139.682667,5.296 138.984,5.464 138.376,5.8 C137.768,6.136 137.325333,6.608 137.048,7.216 C137.016,6.87466667 137,6.57066667 137,6.304 C137,4.81066667 137.352,3.672 138.056,2.888 C138.76,2.104 139.730667,1.712 140.968,1.712 C141.885333,1.712 142.610667,1.888 143.144,2.24 L143.144,2.24 L143.608,1.312 C142.946667,0.906666667 142.061333,0.704 140.952,0.704 C139.928,0.704 139.032,0.925333333 138.264,1.368 C137.496,1.81066667 136.898667,2.464 136.472,3.328 C136.045333,4.192 135.832,5.248 135.832,6.496 C135.832,8.27733333 136.226667,9.656 137.016,10.632 C137.805333,11.608 138.941333,12.096 140.424,12.096 Z M140.376,11.12 C139.757333,11.12 139.224,11.008 138.776,10.784 C138.328,10.56 137.989333,10.2666667 137.76,9.904 C137.530667,9.54133333 137.416,9.14666667 137.416,8.72 C137.416,8.26133333 137.538667,7.84533333 137.784,7.472 C138.029333,7.09866667 138.368,6.80533333 138.8,6.592 C139.232,6.37866667 139.730667,6.272 140.296,6.272 C141.16,6.272 141.845333,6.49066667 142.352,6.928 C142.858667,7.36533333 143.112,7.952 143.112,8.688 C143.112,9.424 142.858667,10.0133333 142.352,10.456 C141.845333,10.8986667 141.186667,11.12 140.376,11.12 Z M147.544,7.45 C148.197333,7.45 148.729333,7.20733333 149.14,6.722 C149.550667,6.23666667 149.756,5.59266667 149.756,4.79 C149.756,3.98733333 149.550667,3.34333333 149.14,2.858 C148.729333,2.37266667 148.197333,2.13 147.544,2.13 C146.881333,2.13 146.347,2.375 145.941,2.865 C145.535,3.355 145.332,3.99666667 145.332,4.79 C145.332,5.58333333 145.535,6.225 145.941,6.715 C146.347,7.205 146.881333,7.45 147.544,7.45 Z M147.614,12 L154.306,2.2 L153.48,2.2 L146.788,12 L147.614,12 Z M147.544,6.82 C147.077333,6.82 146.708667,6.638 146.438,6.274 C146.167333,5.91 146.032,5.41533333 146.032,4.79 C146.032,4.16466667 146.167333,3.67 146.438,3.306 C146.708667,2.942 147.077333,2.76 147.544,2.76 C148.001333,2.76 148.367667,2.93966667 148.643,3.299 C148.918333,3.65833333 149.056,4.15533333 149.056,4.79 C149.056,5.42466667 148.918333,5.92166667 148.643,6.281 C148.367667,6.64033333 148.001333,6.82 147.544,6.82 Z M153.55,12.07 C154.212667,12.07 154.747,11.825 155.153,11.335 C155.559,10.845 155.762,10.2033333 155.762,9.41 C155.762,8.61666667 155.559,7.975 155.153,7.485 C154.747,6.995 154.212667,6.75 153.55,6.75 C152.896667,6.75 152.364667,6.995 151.954,7.485 C151.543333,7.975 151.338,8.61666667 151.338,9.41 C151.338,10.2033333 151.543333,10.845 151.954,11.335 C152.364667,11.825 152.896667,12.07 153.55,12.07 Z M153.55,11.44 C153.092667,11.44 152.726333,11.2603333 152.451,10.901 C152.175667,10.5416667 152.038,10.0446667 152.038,9.41 C152.038,8.77533333 152.175667,8.27833333 152.451,7.919 C152.726333,7.55966667 153.092667,7.38 153.55,7.38 C154.016667,7.38 154.385333,7.562 154.656,7.926 C154.926667,8.29 155.062,8.78466667 155.062,9.41 C155.062,10.0353333 154.926667,10.53 154.656,10.894 C154.385333,11.258 154.016667,11.44 153.55,11.44 Z" id="6%" fill="#2D3142" fill-rule="nonzero"></path>
                <path d="M98.112,12 L98.112,9.056 L100.352,9.056 L100.352,8.032 L98.112,8.032 L98.112,5.44 L96.992,5.44 L96.992,8.032 L92.128,8.032 L97.856,0.8 L96.576,0.8 L90.64,8.224 L90.64,9.056 L96.96,9.056 L96.96,12 L98.112,12 Z M103.376,7.45 C104.029333,7.45 104.561333,7.20733333 104.972,6.722 C105.382667,6.23666667 105.588,5.59266667 105.588,4.79 C105.588,3.98733333 105.382667,3.34333333 104.972,2.858 C104.561333,2.37266667 104.029333,2.13 103.376,2.13 C102.713333,2.13 102.179,2.375 101.773,2.865 C101.367,3.355 101.164,3.99666667 101.164,4.79 C101.164,5.58333333 101.367,6.225 101.773,6.715 C102.179,7.205 102.713333,7.45 103.376,7.45 Z M103.446,12 L110.138,2.2 L109.312,2.2 L102.62,12 L103.446,12 Z M103.376,6.82 C102.909333,6.82 102.540667,6.638 102.27,6.274 C101.999333,5.91 101.864,5.41533333 101.864,4.79 C101.864,4.16466667 101.999333,3.67 102.27,3.306 C102.540667,2.942 102.909333,2.76 103.376,2.76 C103.833333,2.76 104.199667,2.93966667 104.475,3.299 C104.750333,3.65833333 104.888,4.15533333 104.888,4.79 C104.888,5.42466667 104.750333,5.92166667 104.475,6.281 C104.199667,6.64033333 103.833333,6.82 103.376,6.82 Z M109.382,12.07 C110.044667,12.07 110.579,11.825 110.985,11.335 C111.391,10.845 111.594,10.2033333 111.594,9.41 C111.594,8.61666667 111.391,7.975 110.985,7.485 C110.579,6.995 110.044667,6.75 109.382,6.75 C108.728667,6.75 108.196667,6.995 107.786,7.485 C107.375333,7.975 107.17,8.61666667 107.17,9.41 C107.17,10.2033333 107.375333,10.845 107.786,11.335 C108.196667,11.825 108.728667,12.07 109.382,12.07 Z M109.382,11.44 C108.924667,11.44 108.558333,11.2603333 108.283,10.901 C108.007667,10.5416667 107.87,10.0446667 107.87,9.41 C107.87,8.77533333 108.007667,8.27833333 108.283,7.919 C108.558333,7.55966667 108.924667,7.38 109.382,7.38 C109.848667,7.38 110.217333,7.562 110.488,7.926 C110.758667,8.29 110.894,8.78466667 110.894,9.41 C110.894,10.0353333 110.758667,10.53 110.488,10.894 C110.217333,11.258 109.848667,11.44 109.382,11.44 Z" id="4%" fill="#2D3142" fill-rule="nonzero"></path>
                <path d="M53.48,12 L53.48,10.976 L47.32,10.976 L51.128,7.232 C51.8426667,6.53866667 52.328,5.92533333 52.584,5.392 C52.84,4.85866667 52.968,4.304 52.968,3.728 C52.968,2.78933333 52.6346667,2.05066667 51.968,1.512 C51.3013333,0.973333333 50.3973333,0.704 49.256,0.704 C48.4026667,0.704 47.6373333,0.842666667 46.96,1.12 C46.2826667,1.39733333 45.7253333,1.792 45.288,2.304 L45.288,2.304 L46.104,3.008 C46.8293333,2.176 47.848,1.76 49.16,1.76 C50.0026667,1.76 50.6506667,1.944 51.104,2.312 C51.5573333,2.68 51.784,3.19466667 51.784,3.856 C51.784,4.28266667 51.68,4.70666667 51.472,5.128 C51.264,5.54933333 50.8666667,6.048 50.28,6.624 L50.28,6.624 L45.624,11.184 L45.624,12 L53.48,12 Z M56.888,7.45 C57.5413333,7.45 58.0733333,7.20733333 58.484,6.722 C58.8946667,6.23666667 59.1,5.59266667 59.1,4.79 C59.1,3.98733333 58.8946667,3.34333333 58.484,2.858 C58.0733333,2.37266667 57.5413333,2.13 56.888,2.13 C56.2253333,2.13 55.691,2.375 55.285,2.865 C54.879,3.355 54.676,3.99666667 54.676,4.79 C54.676,5.58333333 54.879,6.225 55.285,6.715 C55.691,7.205 56.2253333,7.45 56.888,7.45 Z M56.958,12 L63.65,2.2 L62.824,2.2 L56.132,12 L56.958,12 Z M56.888,6.82 C56.4213333,6.82 56.0526667,6.638 55.782,6.274 C55.5113333,5.91 55.376,5.41533333 55.376,4.79 C55.376,4.16466667 55.5113333,3.67 55.782,3.306 C56.0526667,2.942 56.4213333,2.76 56.888,2.76 C57.3453333,2.76 57.7116667,2.93966667 57.987,3.299 C58.2623333,3.65833333 58.4,4.15533333 58.4,4.79 C58.4,5.42466667 58.2623333,5.92166667 57.987,6.281 C57.7116667,6.64033333 57.3453333,6.82 56.888,6.82 Z M62.894,12.07 C63.5566667,12.07 64.091,11.825 64.497,11.335 C64.903,10.845 65.106,10.2033333 65.106,9.41 C65.106,8.61666667 64.903,7.975 64.497,7.485 C64.091,6.995 63.5566667,6.75 62.894,6.75 C62.2406667,6.75 61.7086667,6.995 61.298,7.485 C60.8873333,7.975 60.682,8.61666667 60.682,9.41 C60.682,10.2033333 60.8873333,10.845 61.298,11.335 C61.7086667,11.825 62.2406667,12.07 62.894,12.07 Z M62.894,11.44 C62.4366667,11.44 62.0703333,11.2603333 61.795,10.901 C61.5196667,10.5416667 61.382,10.0446667 61.382,9.41 C61.382,8.77533333 61.5196667,8.27833333 61.795,7.919 C62.0703333,7.55966667 62.4366667,7.38 62.894,7.38 C63.3606667,7.38 63.7293333,7.562 64,7.926 C64.2706667,8.29 64.406,8.78466667 64.406,9.41 C64.406,10.0353333 64.2706667,10.53 64,10.894 C63.7293333,11.258 63.3606667,11.44 62.894,11.44 Z" id="2%" fill="#2D3142" fill-rule="nonzero"></path>
                <g id="Group-12" transform="translate(162.000000, 61.500000) rotate(-270.000000) translate(-162.000000, -61.500000) translate(133.000000, -99.000000)">
                    <rect id="Rectangle" fill="#C5532F" x="0" y="0" width="8" height="321"></rect>
                    <rect id="Rectangle-Copy-9" fill="#DB7656" x="10" y="35" width="8" height="286"></rect>
                    <rect id="Rectangle-Copy-10" fill="#FF9308" x="20" y="12" width="8" height="309"></rect>
                    <rect id="Rectangle-Copy-11" fill="#FFBA08" x="30" y="213" width="8" height="108"></rect>
                    <rect id="Rectangle-Copy-12" fill="#FFDA7C" x="40" y="237" width="8" height="84"></rect>
                    <rect id="Rectangle-Copy-13" fill="#ECE1C4" x="50" y="205" width="8" height="116"></rect>
                </g>
                <g id="Group-11" transform="translate(118.000000, 145.500000) rotate(-270.000000) translate(-118.000000, -145.500000) translate(89.000000, 29.000000)">
                    <rect id="Rectangle-Copy-14" fill="#C5532F" x="0.5" y="1.13686838e-13" width="8" height="233"></rect>
                    <rect id="Rectangle-Copy-15" fill="#DB7656" x="10.5" y="14" width="8" height="219"></rect>
                    <rect id="Rectangle-Copy-16" fill="#FF9308" x="20.5" y="111" width="8" height="122"></rect>
                    <rect id="Rectangle-Copy-17" fill="#FFBA08" x="30.5" y="56" width="8" height="177"></rect>
                    <rect id="Rectangle-Copy-18" fill="#FFDA7C" x="40.5" y="176" width="8" height="57"></rect>
                    <rect id="Rectangle-Copy-19" fill="#ECE1C4" x="49.5" y="42" width="8" height="191"></rect>
                </g>
                <g id="Group-7" transform="translate(119.000000, 257.500000) rotate(-270.000000) translate(-119.000000, -257.500000) translate(90.000000, 140.000000)">
                    <rect id="Rectangle-Copy-20" fill="#C5532F" x="0" y="1.13686838e-13" width="8" height="235"></rect>
                    <rect id="Rectangle-Copy-21" fill="#DB7656" x="10" y="66" width="8" height="169"></rect>
                    <rect id="Rectangle-Copy-22" fill="#FF9308" x="20" y="60" width="8" height="175"></rect>
                    <rect id="Rectangle-Copy-23" fill="#FFBA08" x="30" y="114" width="8" height="121"></rect>
                    <rect id="Rectangle-Copy-24" fill="#FFDA7C" x="40" y="202" width="8" height="33"></rect>
                    <rect id="Rectangle-Copy-25" fill="#ECE1C4" x="50" y="119" width="8" height="116"></rect>
                </g>
                <g id="Group-10" transform="translate(108.500000, 368.000000) rotate(-270.000000) translate(-108.500000, -368.000000) translate(79.000000, 261.000000)">
                    <rect id="Rectangle-Copy-26" fill="#C5532F" x="0.5" y="29" width="8" height="185"></rect>
                    <rect id="Rectangle-Copy-27" fill="#DB7656" x="10.5" y="86" width="8" height="128"></rect>
                    <rect id="Rectangle-Copy-28" fill="#FF9308" x="20.5" y="0" width="8" height="214"></rect>
                    <rect id="Rectangle-Copy-29" fill="#FFBA08" x="30.5" y="133" width="8" height="81"></rect>
                    <rect id="Rectangle-Copy-30" fill="#FFDA7C" x="40.5" y="14" width="8" height="200"></rect>
                    <rect id="Rectangle-Copy-31" fill="#ECE1C4" x="50.5" y="177" width="8" height="37"></rect>
                </g>
                <g id="Group-13" transform="translate(106.500000, 483.000000) rotate(-270.000000) translate(-106.500000, -483.000000) translate(77.000000, 378.000000)">
                    <rect id="Rectangle-Copy-32" fill="#C5532F" x="0.5" y="3.41060513e-13" width="8" height="210"></rect>
                    <rect id="Rectangle-Copy-33" fill="#DB7656" x="10.5" y="61" width="8" height="149"></rect>
                    <rect id="Rectangle-Copy-34" fill="#FF9308" x="20.5" y="160" width="8" height="50"></rect>
                    <rect id="Rectangle-Copy-35" fill="#FFBA08" x="30.5" y="128" width="8" height="82"></rect>
                    <rect id="Rectangle-Copy-36" fill="#FFDA7C" x="40.5" y="177" width="8" height="33"></rect>
                    <rect id="Rectangle-Copy-37" fill="#ECE1C4" x="50.5" y="172" width="8" height="38"></rect>
                </g>
                <g id="Group-15" transform="translate(1.000000, 711.000000)">
                    <polygon id="Rectangle-Copy-41" fill="#C5532F" transform="translate(23.500000, 4.500000) rotate(-270.000000) translate(-23.500000, -4.500000) " points="19.5 -19 27.5 -19 27.5 28 19.5 28"></polygon>
                    <polygon id="Rectangle-Copy-43" fill="#DB7656" transform="translate(18.500000, 14.500000) rotate(-270.000000) translate(-18.500000, -14.500000) " points="14.5 -4 22.5 -4 22.5 33 14.5 33"></polygon>
                    <polygon id="Rectangle-Copy-44" fill="#FF9308" transform="translate(5.500000, 24.500000) rotate(-270.000000) translate(-5.500000, -24.500000) " points="1.5 19 9.5 19 9.5 30 1.5 30"></polygon>
                    <polygon id="Rectangle-Copy-45" fill="#FFBA08" transform="translate(14.000000, 35.000000) rotate(-270.000000) translate(-14.000000, -35.000000) " points="10 21 18 21 18 49 10 49"></polygon>
                </g>
                <g id="Group-14" transform="translate(43.500000, 586.500000) rotate(-270.000000) translate(-43.500000, -586.500000) translate(24.000000, 544.000000)">
                    <rect id="Rectangle-Copy-38" fill="#C5532F" x="0.5" y="5.68434189e-14" width="8" height="85"></rect>
                    <rect id="Rectangle-Copy-39" fill="#DB7656" x="10.5" y="36" width="8" height="49"></rect>
                    <rect id="Rectangle-Copy-40" fill="#FF9308" x="21" y="45" width="8" height="40"></rect>
                    <rect id="Rectangle-Copy-42" fill="#FFDA7C" x="30.5" y="52" width="8" height="33"></rect>
                </g>
                <polygon id="Line-Copy-6" fill="#EFEFEF" fill-rule="nonzero" points="-0.250174206 31.5001743 0.749825733 31.4998258 1.00017421 749.915135 0.000174266942 749.915484"></polygon>
                <polygon id="Line-Copy-7" fill="#EFEFEF" fill-rule="nonzero" points="45.4993031 31.5006978 46.4993022 31.4993031 47.5006969 749.499302 46.5006978 749.500697"></polygon>
                <polygon id="Line-Copy-8" fill="#EFEFEF" fill-rule="nonzero" points="90.4993031 31.5006978 91.4993022 31.4993031 92.5006969 749.499302 91.5006978 749.500697"></polygon>
                <polygon id="Line-Copy-9" fill="#EFEFEF" fill-rule="nonzero" points="314.499303 31.5006978 315.499302 31.4993031 316.500697 749.499302 315.500698 749.500697"></polygon>
                <polygon id="Line-Copy-14" fill="#EFEFEF" fill-rule="nonzero" points="359.7847 31.5003 360.7847 31.4997002 361.2153 749.4997 360.2153 749.5003"></polygon>
                <polygon id="Line-Copy-10" fill="#EFEFEF" fill-rule="nonzero" points="269.498607 31.5013966 270.498603 31.4986073 272.501393 749.498603 271.501397 749.501393"></polygon>
                <polygon id="Line-Copy-11" fill="#EFEFEF" fill-rule="nonzero" points="179.499303 31.5006978 180.499302 31.4993031 181.500697 749.499302 180.500698 749.500697"></polygon>
                <polygon id="Line-Copy-13" fill="#EFEFEF" fill-rule="nonzero" points="225.499303 31.5006978 226.499302 31.4993031 227.500697 749.499302 226.500698 749.500697"></polygon>
                <polygon id="Line-Copy-12" fill="#EFEFEF" fill-rule="nonzero" points="135.499303 31.5006978 136.499302 31.4993031 137.500697 749.499302 136.500698 749.500697"></polygon>
            </g>
        </g>
    </g>
</svg>