<?xml version="1.0" encoding="UTF-8"?>
<svg width="351px" height="238px" viewBox="0 0 351 238" version="1.1" xmlns="http://www.w3.org/2000/svg" xmlns:xlink="http://www.w3.org/1999/xlink">
    <title>Group 12 Copy 2</title>
    <defs>
        <path d="M0.0570501883,0.0173873752 C13.4226914,9.502733 24.1895723,16.1752939 32.3576926,20.0350701 C40.525813,23.8948463 51.2079152,27.357821 64.4039993,30.4239941 L64.4039993,25.6096147 C54.2569565,21.7962486 45.2704261,18.333274 37.444408,15.2206907 C29.6183898,12.1081075 17.1559372,7.0403397 0.0570501883,0.0173873752 Z" id="path-1"></path>
        <path d="M0,68.9360959 C12.9890831,56.8384295 23.8561616,48.6135816 32.6012356,44.2615524 C38.685778,41.2335498 47.3096773,37.350209 58.3256481,34.5952363 C61.5368825,33.7921421 66.8006237,32.9442196 74.1168716,32.051469 C90.1755273,32.8299144 105.457357,35.6280585 119.962359,40.4459013 C134.467362,45.2637441 156.201519,54.7604757 185.16483,68.9360959 C160.872002,46.5745676 142.618706,31.3967556 130.404942,23.4026599 C123.086953,18.6129235 112.690623,9.67767067 102.133558,5.08753476 C97.4250699,3.04031765 90.1237515,1.42926498 80.2296033,0.254376738 C73.8405407,0.999157504 69.340891,1.84707996 66.7306542,2.79814412 C60.5676626,5.04368756 55.9261725,8.97452157 51.9582193,11.7013299 C45.4694209,16.1604827 36.3852224,25.0636685 24.7056239,38.4108874 L0,68.9360959 Z" id="path-3"></path>
    </defs>
    <g id="Home-&gt;-Chronology-&gt;-Timeline" stroke="none" stroke-width="1" fill="none" fill-rule="evenodd">
        <g id="Mobile/Timeline/School-years/Early-years-foundation-stage-Copy" transform="translate(-12.000000, -2523.000000)">
            <g id="Group-12-Copy" transform="translate(12.000000, 2523.000000)">
                <line x1="77.4690111" y1="187.203436" x2="349.072165" y2="187.203436" id="Line" stroke="#F3F3F3" stroke-linecap="square"></line>
                <line x1="77.7284414" y1="158.969417" x2="349.331595" y2="158.969417" id="Line-Copy" stroke="#F3F3F3" stroke-linecap="square"></line>
                <line x1="77.7284414" y1="130.527484" x2="349.331595" y2="130.527484" id="Line-Copy-2" stroke="#F3F3F3" stroke-linecap="square"></line>
                <line x1="77.7284414" y1="103.179471" x2="349.331595" y2="103.179471" id="Line-Copy-3" stroke="#F3F3F3" stroke-linecap="square"></line>
                <line x1="77.7284414" y1="75.0110173" x2="349.331595" y2="75.0110173" id="Line-Copy-4" stroke="#F3F3F3" stroke-linecap="square"></line>
                <line x1="77.7284414" y1="47.1160442" x2="349.331595" y2="47.1160442" id="Line-Copy-5" stroke="#F3F3F3" stroke-linecap="square"></line>
                <g id="Group-35" transform="translate(285.318552, 151.311973)">
                    <mask id="mask-2" fill="white">
                        <use xlink:href="#path-1"></use>
                    </mask>
                    <use id="Path-6-Copy" fill-opacity="0.2" fill="#FFBA08" xlink:href="#path-1"></use>
                    <g id="Group-11-Copy-2" mask="url(#mask-2)" stroke-linecap="square">
                        <g transform="translate(28.752453, 20.995183) rotate(-345.000000) translate(-28.752453, -20.995183) translate(-10.236028, -14.960861)">
                            <g id="Group-10" transform="translate(0.000000, -0.000000)">
                                <line x1="0.705890966" y1="-2.06352723e-12" x2="0.705890966" y2="71.4555258" id="Line-5-Copy-15" stroke="#FFBA08" stroke-width="0.5"></line>
                                <line x1="3.17464348" y1="0" x2="3.17464348" y2="71.4555258" id="Line-5-Copy-16" stroke="#FFBA08" stroke-width="0.5"></line>
                                <line x1="5.64339599" y1="0" x2="5.64339599" y2="71.4555258" id="Line-5-Copy-17" stroke="#FFBA08" stroke-width="0.5"></line>
                                <line x1="8.11214851" y1="-1.03176361e-12" x2="8.11214851" y2="71.4555258" id="Line-5-Copy-18" stroke="#FFBA08" stroke-width="0.5"></line>
                                <line x1="10.580901" y1="-5.15881807e-13" x2="10.580901" y2="71.4555258" id="Line-5-Copy-19" stroke="#FFBA08" stroke-width="0.5"></line>
                            </g>
                            <g id="Group-10-Copy-2" transform="translate(59.230247, -0.000000)">
                                <line x1="0.725704722" y1="0" x2="0.725704722" y2="71.4555258" id="Line-5-Copy" stroke="#FFBA08" stroke-width="0.5"></line>
                                <line x1="3.19445724" y1="0" x2="3.19445724" y2="71.4555258" id="Line-5-Copy-2" stroke="#FFBA08" stroke-width="0.5"></line>
                                <line x1="5.66320975" y1="0" x2="5.66320975" y2="71.4555258" id="Line-5-Copy-3" stroke="#FFBA08" stroke-width="0.5"></line>
                                <line x1="8.13196226" y1="0" x2="8.13196226" y2="71.4555258" id="Line-5-Copy-4" stroke="#FFBA08" stroke-width="0.5"></line>
                                <line x1="10.6007148" y1="0" x2="10.6007148" y2="71.4555258" id="Line-5-Copy-5" stroke="#FFBA08" stroke-width="0.5"></line>
                                <line x1="13.0694673" y1="0" x2="13.0694673" y2="71.4555258" id="Line-5-Copy-6" stroke="#FFBA08" stroke-width="0.5"></line>
                                <line x1="15.5382198" y1="0" x2="15.5382198" y2="71.4555258" id="Line-5-Copy-7" stroke="#FFBA08" stroke-width="0.5"></line>
                                <line x1="18.0069723" y1="0" x2="18.0069723" y2="71.4555258" id="Line-5-Copy-8" stroke="#FFBA08" stroke-width="0.5"></line>
                            </g>
                            <g id="Group-10-Copy" transform="translate(12.432465, 0.000000)">
                                <line x1="0.617188128" y1="0" x2="0.617188128" y2="71.4555258" id="Line-5-Copy" stroke="#FFBA08" stroke-width="0.5"></line>
                                <line x1="3.08594064" y1="0" x2="3.08594064" y2="71.4555258" id="Line-5-Copy-2" stroke="#FFBA08" stroke-width="0.5"></line>
                                <line x1="5.55469315" y1="0" x2="5.55469315" y2="71.4555258" id="Line-5-Copy-3" stroke="#FFBA08" stroke-width="0.5"></line>
                                <line x1="8.02344567" y1="0" x2="8.02344567" y2="71.4555258" id="Line-5-Copy-4" stroke="#FFBA08" stroke-width="0.5"></line>
                                <line x1="10.4921982" y1="0" x2="10.4921982" y2="71.4555258" id="Line-5-Copy-5" stroke="#FFBA08" stroke-width="0.5"></line>
                                <line x1="12.9609507" y1="0" x2="12.9609507" y2="71.4555258" id="Line-5-Copy-6" stroke="#FFBA08" stroke-width="0.5"></line>
                                <line x1="15.4297032" y1="0" x2="15.4297032" y2="71.4555258" id="Line-5-Copy-7" stroke="#FFBA08" stroke-width="0.5"></line>
                                <line x1="17.8984557" y1="0" x2="17.8984557" y2="71.4555258" id="Line-5-Copy-8" stroke="#FFBA08" stroke-width="0.5"></line>
                                <line x1="20.3672082" y1="0" x2="20.3672082" y2="71.4555258" id="Line-5-Copy-9" stroke="#FFBA08" stroke-width="0.5"></line>
                                <line x1="22.8359607" y1="0" x2="22.8359607" y2="71.4555258" id="Line-5-Copy-10" stroke="#FFBA08" stroke-width="0.5"></line>
                                <line x1="25.3047133" y1="0" x2="25.3047133" y2="71.4555258" id="Line-5-Copy-11" stroke="#FFBA08" stroke-width="0.5"></line>
                                <line x1="27.7734658" y1="0" x2="27.7734658" y2="71.4555258" id="Line-5-Copy-12" stroke="#FFBA08" stroke-width="0.5"></line>
                                <line x1="30.2422183" y1="0" x2="30.2422183" y2="71.4555258" id="Line-5-Copy-13" stroke="#FFBA08" stroke-width="0.5"></line>
                                <line x1="32.7109708" y1="0" x2="32.7109708" y2="71.4555258" id="Line-5-Copy-14" stroke="#FFBA08" stroke-width="0.5"></line>
                                <line x1="35.1797233" y1="0" x2="35.1797233" y2="71.4555258" id="Line-5-Copy-15" stroke="#FFBA08" stroke-width="0.5"></line>
                                <line x1="37.6484758" y1="0" x2="37.6484758" y2="71.4555258" id="Line-5-Copy-16" stroke="#FFBA08" stroke-width="0.5"></line>
                                <line x1="40.1172283" y1="0" x2="40.1172283" y2="71.4555258" id="Line-5-Copy-17" stroke="#FFBA08" stroke-width="0.5"></line>
                                <line x1="42.5859809" y1="0" x2="42.5859809" y2="71.4555258" id="Line-5-Copy-18" stroke="#FFBA08" stroke-width="0.5"></line>
                                <line x1="45.0547334" y1="0" x2="45.0547334" y2="71.4555258" id="Line-5-Copy-19" stroke="#FFBA08" stroke-width="0.5"></line>
                            </g>
                        </g>
                    </g>
                </g>
                <g id="Group-34" transform="translate(91.147661, 76.651898)">
                    <mask id="mask-4" fill="white">
                        <use xlink:href="#path-3"></use>
                    </mask>
                    <use id="Path-5-Copy" fill-opacity="0.2" fill="#3772FF" xlink:href="#path-3"></use>
                    <g id="Group-11" mask="url(#mask-4)" stroke-linecap="square">
                        <g transform="translate(99.417658, 42.376051) rotate(-345.000000) translate(-99.417658, -42.376051) translate(6.076919, -12.916704)">
                            <g id="Group-10" transform="translate(0.175124, 0.292629)">
                                <line x1="0.509394307" y1="0" x2="0.509394307" y2="109.890751" id="Line-5-Copy" stroke="#3772FF" stroke-width="0.5"></line>
                                <line x1="2.98165467" y1="0" x2="2.98165467" y2="109.890751" id="Line-5-Copy-2" stroke="#3772FF" stroke-width="0.5"></line>
                                <line x1="5.45391504" y1="0" x2="5.45391504" y2="109.890751" id="Line-5-Copy-3" stroke="#3772FF" stroke-width="0.5"></line>
                                <line x1="7.92617541" y1="0" x2="7.92617541" y2="109.890751" id="Line-5-Copy-4" stroke="#3772FF" stroke-width="0.5"></line>
                                <line x1="10.3984358" y1="0" x2="10.3984358" y2="109.890751" id="Line-5-Copy-5" stroke="#3772FF" stroke-width="0.5"></line>
                                <line x1="12.8706961" y1="0" x2="12.8706961" y2="109.890751" id="Line-5-Copy-6" stroke="#3772FF" stroke-width="0.5"></line>
                                <line x1="15.3429565" y1="0" x2="15.3429565" y2="109.890751" id="Line-5-Copy-7" stroke="#3772FF" stroke-width="0.5"></line>
                                <line x1="17.8152169" y1="0" x2="17.8152169" y2="109.890751" id="Line-5-Copy-8" stroke="#3772FF" stroke-width="0.5"></line>
                                <line x1="20.2874772" y1="0" x2="20.2874772" y2="109.890751" id="Line-5-Copy-9" stroke="#3772FF" stroke-width="0.5"></line>
                                <line x1="22.7597376" y1="0" x2="22.7597376" y2="109.890751" id="Line-5-Copy-10" stroke="#3772FF" stroke-width="0.5"></line>
                                <line x1="25.231998" y1="0" x2="25.231998" y2="109.890751" id="Line-5-Copy-11" stroke="#3772FF" stroke-width="0.5"></line>
                                <line x1="27.7042584" y1="0" x2="27.7042584" y2="109.890751" id="Line-5-Copy-12" stroke="#3772FF" stroke-width="0.5"></line>
                                <line x1="30.1765187" y1="0" x2="30.1765187" y2="109.890751" id="Line-5-Copy-13" stroke="#3772FF" stroke-width="0.5"></line>
                                <line x1="32.6487791" y1="0" x2="32.6487791" y2="109.890751" id="Line-5-Copy-14" stroke="#3772FF" stroke-width="0.5"></line>
                                <line x1="35.1210395" y1="0" x2="35.1210395" y2="109.890751" id="Line-5-Copy-15" stroke="#3772FF" stroke-width="0.5"></line>
                                <line x1="37.5932998" y1="0" x2="37.5932998" y2="109.890751" id="Line-5-Copy-16" stroke="#3772FF" stroke-width="0.5"></line>
                                <line x1="40.0655602" y1="0" x2="40.0655602" y2="109.890751" id="Line-5-Copy-17" stroke="#3772FF" stroke-width="0.5"></line>
                                <line x1="42.5378206" y1="0" x2="42.5378206" y2="109.890751" id="Line-5-Copy-18" stroke="#3772FF" stroke-width="0.5"></line>
                                <line x1="45.0100809" y1="0" x2="45.0100809" y2="109.890751" id="Line-5-Copy-19" stroke="#3772FF" stroke-width="0.5"></line>
                            </g>
                            <g id="Group-10-Copy-2" transform="translate(93.462218, 0.082790)">
                                <line x1="0.726735877" y1="0" x2="0.726735877" y2="109.890751" id="Line-5-Copy" stroke="#3772FF" stroke-width="0.5"></line>
                                <line x1="3.19899624" y1="0" x2="3.19899624" y2="109.890751" id="Line-5-Copy-2" stroke="#3772FF" stroke-width="0.5"></line>
                                <line x1="5.67125661" y1="0" x2="5.67125661" y2="109.890751" id="Line-5-Copy-3" stroke="#3772FF" stroke-width="0.5"></line>
                                <line x1="8.14351698" y1="0" x2="8.14351698" y2="109.890751" id="Line-5-Copy-4" stroke="#3772FF" stroke-width="0.5"></line>
                                <line x1="10.6157773" y1="0" x2="10.6157773" y2="109.890751" id="Line-5-Copy-5" stroke="#3772FF" stroke-width="0.5"></line>
                                <line x1="13.0880377" y1="0" x2="13.0880377" y2="109.890751" id="Line-5-Copy-6" stroke="#3772FF" stroke-width="0.5"></line>
                                <line x1="15.5602981" y1="0" x2="15.5602981" y2="109.890751" id="Line-5-Copy-7" stroke="#3772FF" stroke-width="0.5"></line>
                                <line x1="18.0325585" y1="0" x2="18.0325585" y2="109.890751" id="Line-5-Copy-8" stroke="#3772FF" stroke-width="0.5"></line>
                                <line x1="20.5048188" y1="0" x2="20.5048188" y2="109.890751" id="Line-5-Copy-9" stroke="#3772FF" stroke-width="0.5"></line>
                                <line x1="22.9770792" y1="0" x2="22.9770792" y2="109.890751" id="Line-5-Copy-10" stroke="#3772FF" stroke-width="0.5"></line>
                                <line x1="25.4493396" y1="0" x2="25.4493396" y2="109.890751" id="Line-5-Copy-11" stroke="#3772FF" stroke-width="0.5"></line>
                                <line x1="27.9215999" y1="0" x2="27.9215999" y2="109.890751" id="Line-5-Copy-12" stroke="#3772FF" stroke-width="0.5"></line>
                                <line x1="30.3938603" y1="0" x2="30.3938603" y2="109.890751" id="Line-5-Copy-13" stroke="#3772FF" stroke-width="0.5"></line>
                                <line x1="32.8661207" y1="0" x2="32.8661207" y2="109.890751" id="Line-5-Copy-14" stroke="#3772FF" stroke-width="0.5"></line>
                                <line x1="35.338381" y1="0" x2="35.338381" y2="109.890751" id="Line-5-Copy-15" stroke="#3772FF" stroke-width="0.5"></line>
                                <line x1="37.8106414" y1="0" x2="37.8106414" y2="109.890751" id="Line-5-Copy-16" stroke="#3772FF" stroke-width="0.5"></line>
                                <line x1="40.2829018" y1="0" x2="40.2829018" y2="109.890751" id="Line-5-Copy-17" stroke="#3772FF" stroke-width="0.5"></line>
                                <line x1="42.7551621" y1="0" x2="42.7551621" y2="109.890751" id="Line-5-Copy-18" stroke="#3772FF" stroke-width="0.5"></line>
                                <line x1="45.2274225" y1="0" x2="45.2274225" y2="109.890751" id="Line-5-Copy-19" stroke="#3772FF" stroke-width="0.5"></line>
                            </g>
                            <g id="Group-10-Copy" transform="translate(47.130610, 0.367581)">
                                <line x1="0.618065092" y1="0" x2="0.618065092" y2="109.890751" id="Line-5-Copy" stroke="#3772FF" stroke-width="0.5"></line>
                                <line x1="3.09032546" y1="0" x2="3.09032546" y2="109.890751" id="Line-5-Copy-2" stroke="#3772FF" stroke-width="0.5"></line>
                                <line x1="5.56258583" y1="0" x2="5.56258583" y2="109.890751" id="Line-5-Copy-3" stroke="#3772FF" stroke-width="0.5"></line>
                                <line x1="8.03484619" y1="0" x2="8.03484619" y2="109.890751" id="Line-5-Copy-4" stroke="#3772FF" stroke-width="0.5"></line>
                                <line x1="10.5071066" y1="0" x2="10.5071066" y2="109.890751" id="Line-5-Copy-5" stroke="#3772FF" stroke-width="0.5"></line>
                                <line x1="12.9793669" y1="0" x2="12.9793669" y2="109.890751" id="Line-5-Copy-6" stroke="#3772FF" stroke-width="0.5"></line>
                                <line x1="15.4516273" y1="0" x2="15.4516273" y2="109.890751" id="Line-5-Copy-7" stroke="#3772FF" stroke-width="0.5"></line>
                                <line x1="17.9238877" y1="0" x2="17.9238877" y2="109.890751" id="Line-5-Copy-8" stroke="#3772FF" stroke-width="0.5"></line>
                                <line x1="20.396148" y1="0" x2="20.396148" y2="109.890751" id="Line-5-Copy-9" stroke="#3772FF" stroke-width="0.5"></line>
                                <line x1="22.8684084" y1="0" x2="22.8684084" y2="109.890751" id="Line-5-Copy-10" stroke="#3772FF" stroke-width="0.5"></line>
                                <line x1="25.3406688" y1="0" x2="25.3406688" y2="109.890751" id="Line-5-Copy-11" stroke="#3772FF" stroke-width="0.5"></line>
                                <line x1="27.8129291" y1="0" x2="27.8129291" y2="109.890751" id="Line-5-Copy-12" stroke="#3772FF" stroke-width="0.5"></line>
                                <line x1="30.2851895" y1="0" x2="30.2851895" y2="109.890751" id="Line-5-Copy-13" stroke="#3772FF" stroke-width="0.5"></line>
                                <line x1="32.7574499" y1="0" x2="32.7574499" y2="109.890751" id="Line-5-Copy-14" stroke="#3772FF" stroke-width="0.5"></line>
                                <line x1="35.2297102" y1="0" x2="35.2297102" y2="109.890751" id="Line-5-Copy-15" stroke="#3772FF" stroke-width="0.5"></line>
                                <line x1="37.7019706" y1="0" x2="37.7019706" y2="109.890751" id="Line-5-Copy-16" stroke="#3772FF" stroke-width="0.5"></line>
                                <line x1="40.174231" y1="0" x2="40.174231" y2="109.890751" id="Line-5-Copy-17" stroke="#3772FF" stroke-width="0.5"></line>
                                <line x1="42.6464913" y1="0" x2="42.6464913" y2="109.890751" id="Line-5-Copy-18" stroke="#3772FF" stroke-width="0.5"></line>
                                <line x1="45.1187517" y1="0" x2="45.1187517" y2="109.890751" id="Line-5-Copy-19" stroke="#3772FF" stroke-width="0.5"></line>
                            </g>
                            <g id="Group-10-Copy-3" transform="translate(140.701655, 0.157742)">
                                <line x1="0.551456391" y1="0" x2="0.551456391" y2="109.890751" id="Line-5-Copy" stroke="#3772FF" stroke-width="0.5"></line>
                                <line x1="3.02371676" y1="0" x2="3.02371676" y2="109.890751" id="Line-5-Copy-2" stroke="#3772FF" stroke-width="0.5"></line>
                                <line x1="5.49597713" y1="0" x2="5.49597713" y2="109.890751" id="Line-5-Copy-3" stroke="#3772FF" stroke-width="0.5"></line>
                                <line x1="7.96823749" y1="0" x2="7.96823749" y2="109.890751" id="Line-5-Copy-4" stroke="#3772FF" stroke-width="0.5"></line>
                                <line x1="10.4404979" y1="0" x2="10.4404979" y2="109.890751" id="Line-5-Copy-5" stroke="#3772FF" stroke-width="0.5"></line>
                                <line x1="12.9127582" y1="0" x2="12.9127582" y2="109.890751" id="Line-5-Copy-6" stroke="#3772FF" stroke-width="0.5"></line>
                                <line x1="15.3850186" y1="0" x2="15.3850186" y2="109.890751" id="Line-5-Copy-7" stroke="#3772FF" stroke-width="0.5"></line>
                                <line x1="17.857279" y1="0" x2="17.857279" y2="109.890751" id="Line-5-Copy-8" stroke="#3772FF" stroke-width="0.5"></line>
                                <line x1="20.3295393" y1="0" x2="20.3295393" y2="109.890751" id="Line-5-Copy-9" stroke="#3772FF" stroke-width="0.5"></line>
                                <line x1="22.8017997" y1="0" x2="22.8017997" y2="109.890751" id="Line-5-Copy-10" stroke="#3772FF" stroke-width="0.5"></line>
                                <line x1="25.2740601" y1="5.15806298e-13" x2="25.2740601" y2="109.890751" id="Line-5-Copy-11" stroke="#3772FF" stroke-width="0.5"></line>
                                <line x1="27.7463204" y1="0" x2="27.7463204" y2="109.890751" id="Line-5-Copy-12" stroke="#3772FF" stroke-width="0.5"></line>
                                <line x1="30.2185808" y1="0" x2="30.2185808" y2="109.890751" id="Line-5-Copy-13" stroke="#3772FF" stroke-width="0.5"></line>
                                <line x1="32.6908412" y1="0" x2="32.6908412" y2="109.890751" id="Line-5-Copy-14" stroke="#3772FF" stroke-width="0.5"></line>
                                <line x1="35.1631015" y1="0" x2="35.1631015" y2="109.890751" id="Line-5-Copy-15" stroke="#3772FF" stroke-width="0.5"></line>
                                <line x1="37.6353619" y1="0" x2="37.6353619" y2="109.890751" id="Line-5-Copy-16" stroke="#3772FF" stroke-width="0.5"></line>
                                <line x1="40.1076223" y1="0" x2="40.1076223" y2="109.890751" id="Line-5-Copy-17" stroke="#3772FF" stroke-width="0.5"></line>
                                <line x1="42.5798826" y1="0" x2="42.5798826" y2="109.890751" id="Line-5-Copy-18" stroke="#3772FF" stroke-width="0.5"></line>
                                <line x1="45.052143" y1="-5.15806298e-13" x2="45.052143" y2="109.890751" id="Line-5-Copy-19" stroke="#3772FF" stroke-width="0.5"></line>
                            </g>
                        </g>
                    </g>
                </g>
                <path d="M80.4819356,156.888923 C111.426831,122.809029 142.626767,106.786392 174.081743,108.821013 C196.211915,110.252472 225.055205,119.464691 279.923488,147.224475 C303.047146,158.923543 326.085791,168.672767 349.039422,176.472145" id="Path-3-Copy" stroke="#FFBA08" stroke-width="1.5" stroke-linecap="round" stroke-linejoin="round"></path>
                <path d="M80.4819356,157.478678 C94.1621794,141.393052 103.768699,130.09587 109.301495,123.587134 C137.202422,90.7647098 153.678516,74.9158192 176.377107,77.4640556 C199.075698,80.012292 214.888199,92.4986503 279.923488,147.79538 C286.339541,153.250676 297.231593,161.327471 313.333774,169.200566 C321.325038,173.107862 333.226921,177.354922 349.039422,181.941748" id="Path-4-Copy" stroke="#3772FF" stroke-width="1.5" stroke-linecap="round" stroke-linejoin="round"></path>
                <text id="18" font-family="Montserrat-Regular, Montserrat" font-size="14" font-weight="normal" line-spacing="24" fill="#2D3142">
                    <tspan x="70.1595094" y="204.395599">18</tspan>
                </text>
                <text id="42" font-family="Montserrat-Regular, Montserrat" font-size="14" font-weight="normal" line-spacing="24" fill="#2D3142">
                    <tspan x="199.500344" y="204.395599">42</tspan>
                </text>
                <text id="£0" font-family="Montserrat-Regular, Montserrat" font-size="14" font-weight="normal" line-spacing="24" fill="#2D3142">
                    <tspan x="52.0969385" y="182.950083">£0</tspan>
                </text>
                <text id="£5k" font-family="Montserrat-Regular, Montserrat" font-size="14" font-weight="normal" line-spacing="24" fill="#2D3142">
                    <tspan x="45.0269385" y="154.92429">£5k</tspan>
                </text>
                <text id="£10k" font-family="Montserrat-Regular, Montserrat" font-size="14" font-weight="normal" line-spacing="24" fill="#2D3142">
                    <tspan x="38.6289385" y="126.898496">£10k</tspan>
                </text>
                <text id="£15k" font-family="Montserrat-Regular, Montserrat" font-size="14" font-weight="normal" line-spacing="24" fill="#2D3142">
                    <tspan x="39.9729385" y="98.872702">£15k</tspan>
                </text>
                <text id="£20k" font-family="Montserrat-Regular, Montserrat" font-size="14" font-weight="normal" line-spacing="24" fill="#2D3142">
                    <tspan x="35.7309385" y="70.8469082">£20k</tspan>
                </text>
                <text id="£25k" font-family="Montserrat-Regular, Montserrat" font-size="14" font-weight="normal" line-spacing="24" fill="#2D3142">
                    <tspan x="37.0749385" y="42.8211144">£25k</tspan>
                </text>
                <text id="Discounted-Yearly-Pr" transform="translate(11.322581, 117.617102) rotate(-90.000000) translate(-11.322581, -117.617102) " font-family="Montserrat-SemiBold, Montserrat" font-size="14" font-weight="500" line-spacing="24" fill="#2D3142">
                    <tspan x="-100.719419" y="120.353763">Discounted Yearly Productivity </tspan>
                </text>
                <text id="Age" transform="translate(213.240701, 225.918437) rotate(-360.000000) translate(-213.240701, -225.918437) " font-family="Montserrat-SemiBold, Montserrat" font-size="14" font-weight="500" line-spacing="24" fill="#2D3142">
                    <tspan x="198.785701" y="228.655098">Age</tspan>
                </text>
                <text id="66" font-family="Montserrat-Regular, Montserrat" font-size="14" font-weight="normal" line-spacing="24" fill="#2D3142">
                    <tspan x="332.215179" y="204.395599">66</tspan>
                </text>
            </g>
        </g>
    </g>
</svg>