<?xml version="1.0" encoding="UTF-8"?>
<svg width="293px" height="190px" viewBox="0 0 293 190" version="1.1" xmlns="http://www.w3.org/2000/svg" xmlns:xlink="http://www.w3.org/1999/xlink">
    <title>Group 12</title>
    <g id="Home-&gt;-Chronology-&gt;-Timeline" stroke="none" stroke-width="1" fill="none" fill-rule="evenodd">
        <g id="Desktop/Timeline/School-years/Executive-summary" transform="translate(-906.000000, -728.000000)">
            <g id="Group-7" transform="translate(830.000000, 728.000000)">
                <g id="Group-12" transform="translate(76.000000, 0.000000)">
                    <rect id="Rectangle-Copy-5" fill-opacity="0.1" fill="#FFBA08" x="53" y="0" width="114" height="190"></rect>
                    <rect id="Rectangle-Copy-4" fill-opacity="0.1" fill="#3772FF" x="179" y="0" width="114" height="190"></rect>
                    <rect id="Rectangle" fill="#FFBA08" x="53" y="81" width="114" height="109"></rect>
                    <rect id="Rectangle-Copy" fill="#3772FF" x="179" y="50" width="114" height="140"></rect>
                    <path d="M96.535,111.216 C97.687,111.216 98.656,111.027 99.442,110.649 C100.228,110.271 100.813,109.767 101.197,109.137 C101.581,108.507 101.773,107.808 101.773,107.04 C101.773,105.852 101.35,104.904 100.504,104.196 C99.658,103.488 98.347,103.134 96.571,103.134 L96.571,103.134 L95.545,103.134 L95.743,100.74 L100.999,100.74 L100.999,98.4 L93.313,98.4 L92.665,105.492 L95.887,105.492 C96.967,105.492 97.726,105.63 98.164,105.906 C98.602,106.182 98.821,106.59 98.821,107.13 C98.821,107.646 98.611,108.048 98.191,108.336 C97.771,108.624 97.195,108.768 96.463,108.768 C95.803,108.768 95.161,108.669 94.537,108.471 C93.913,108.273 93.361,107.994 92.881,107.634 L92.881,107.634 L91.729,109.866 C92.329,110.298 93.058,110.631 93.916,110.865 C94.774,111.099 95.647,111.216 96.535,111.216 Z M108.145,111 L112.825,100.29 L112.825,98.4 L102.727,98.4 L102.727,102.828 L105.319,102.828 L105.319,100.776 L109.495,100.776 L104.977,111 L108.145,111 Z M116.635,105.848 C117.456333,105.848 118.123,105.568 118.635,105.008 C119.147,104.448 119.403,103.698667 119.403,102.76 C119.403,101.821333 119.147,101.072 118.635,100.512 C118.123,99.952 117.456333,99.672 116.635,99.672 C115.813667,99.672 115.144333,99.952 114.627,100.512 C114.109667,101.072 113.851,101.821333 113.851,102.76 C113.851,103.698667 114.109667,104.448 114.627,105.008 C115.144333,105.568 115.813667,105.848 116.635,105.848 Z M117.563,111 L125.211,99.8 L123.307,99.8 L115.659,111 L117.563,111 Z M116.635,104.536 C116.283,104.536 116.000333,104.384 115.787,104.08 C115.573667,103.776 115.467,103.336 115.467,102.76 C115.467,102.184 115.573667,101.744 115.787,101.44 C116.000333,101.136 116.283,100.984 116.635,100.984 C116.997667,100.984 117.283,101.133333 117.491,101.432 C117.699,101.730667 117.803,102.173333 117.803,102.76 C117.803,103.346667 117.699,103.789333 117.491,104.088 C117.283,104.386667 116.997667,104.536 116.635,104.536 Z M124.235,111.128 C125.056333,111.128 125.725667,110.848 126.243,110.288 C126.760333,109.728 127.019,108.978667 127.019,108.04 C127.019,107.101333 126.760333,106.352 126.243,105.792 C125.725667,105.232 125.056333,104.952 124.235,104.952 C123.701667,104.952 123.224333,105.077333 122.803,105.328 C122.381667,105.578667 122.053667,105.938667 121.819,106.408 C121.584333,106.877333 121.467,107.421333 121.467,108.04 C121.467,108.658667 121.584333,109.202667 121.819,109.672 C122.053667,110.141333 122.381667,110.501333 122.803,110.752 C123.224333,111.002667 123.701667,111.128 124.235,111.128 Z M124.235,109.816 C123.883,109.816 123.600333,109.666667 123.387,109.368 C123.173667,109.069333 123.067,108.626667 123.067,108.04 C123.067,107.453333 123.173667,107.010667 123.387,106.712 C123.600333,106.413333 123.883,106.264 124.235,106.264 C124.597667,106.264 124.883,106.416 125.091,106.72 C125.299,107.024 125.403,107.464 125.403,108.04 C125.403,108.616 125.299,109.056 125.091,109.36 C124.883,109.664 124.597667,109.816 124.235,109.816 Z" id="57%" fill="#2D3142" fill-rule="nonzero"></path>
                    <text id="0%" font-family="Montserrat-Regular, Montserrat" font-size="16" font-weight="normal" line-spacing="30" fill="#2D3142">
                        <tspan x="20.46" y="161">0</tspan>
                        <tspan x="31.052" y="161" font-size="12">%</tspan>
                    </text>
                    <text id="50%" font-family="Montserrat-Regular, Montserrat" font-size="16" font-weight="normal" line-spacing="30" fill="#2D3142">
                        <tspan x="10.404" y="88">50</tspan>
                        <tspan x="30.052" y="88" font-size="12">%</tspan>
                    </text>
                    <text id="100%" font-family="Montserrat-Regular, Montserrat" font-size="16" font-weight="normal" line-spacing="30" fill="#2D3142">
                        <tspan x="3.092" y="15">100</tspan>
                        <tspan x="30.052" y="15" font-size="12">%</tspan>
                    </text>
                    <path d="M223.089,80 L227.769,69.29 L227.769,67.4 L217.671,67.4 L217.671,71.828 L220.263,71.828 L220.263,69.776 L224.439,69.776 L219.921,80 L223.089,80 Z M238.551,80 L238.551,77.354 L240.603,77.354 L240.603,74.978 L238.551,74.978 L238.551,72.62 L235.797,72.62 L235.797,74.978 L232.413,74.978 L237.921,67.4 L234.861,67.4 L228.921,75.392 L228.921,77.354 L235.707,77.354 L235.707,80 L238.551,80 Z M243.981,74.848 C244.802333,74.848 245.469,74.568 245.981,74.008 C246.493,73.448 246.749,72.6986667 246.749,71.76 C246.749,70.8213333 246.493,70.072 245.981,69.512 C245.469,68.952 244.802333,68.672 243.981,68.672 C243.159667,68.672 242.490333,68.952 241.973,69.512 C241.455667,70.072 241.197,70.8213333 241.197,71.76 C241.197,72.6986667 241.455667,73.448 241.973,74.008 C242.490333,74.568 243.159667,74.848 243.981,74.848 Z M244.909,80 L252.557,68.8 L250.653,68.8 L243.005,80 L244.909,80 Z M243.981,73.536 C243.629,73.536 243.346333,73.384 243.133,73.08 C242.919667,72.776 242.813,72.336 242.813,71.76 C242.813,71.184 242.919667,70.744 243.133,70.44 C243.346333,70.136 243.629,69.984 243.981,69.984 C244.343667,69.984 244.629,70.1333333 244.837,70.432 C245.045,70.7306667 245.149,71.1733333 245.149,71.76 C245.149,72.3466667 245.045,72.7893333 244.837,73.088 C244.629,73.3866667 244.343667,73.536 243.981,73.536 Z M251.581,80.128 C252.402333,80.128 253.071667,79.848 253.589,79.288 C254.106333,78.728 254.365,77.9786667 254.365,77.04 C254.365,76.1013333 254.106333,75.352 253.589,74.792 C253.071667,74.232 252.402333,73.952 251.581,73.952 C251.047667,73.952 250.570333,74.0773333 250.149,74.328 C249.727667,74.5786667 249.399667,74.9386667 249.165,75.408 C248.930333,75.8773333 248.813,76.4213333 248.813,77.04 C248.813,77.6586667 248.930333,78.2026667 249.165,78.672 C249.399667,79.1413333 249.727667,79.5013333 250.149,79.752 C250.570333,80.0026667 251.047667,80.128 251.581,80.128 Z M251.581,78.816 C251.229,78.816 250.946333,78.6666667 250.733,78.368 C250.519667,78.0693333 250.413,77.6266667 250.413,77.04 C250.413,76.4533333 250.519667,76.0106667 250.733,75.712 C250.946333,75.4133333 251.229,75.264 251.581,75.264 C251.943667,75.264 252.229,75.416 252.437,75.72 C252.645,76.024 252.749,76.464 252.749,77.04 C252.749,77.616 252.645,78.056 252.437,78.36 C252.229,78.664 251.943667,78.816 251.581,78.816 Z" id="74%" fill="#FFFFFF" fill-rule="nonzero"></path>
                </g>
            </g>
        </g>
    </g>
</svg>