<?xml version="1.0" encoding="UTF-8"?>
<svg width="358px" height="34px" viewBox="0 0 358 34" version="1.1" xmlns="http://www.w3.org/2000/svg" xmlns:xlink="http://www.w3.org/1999/xlink">
    <title>Atom/Logo/Horizontal</title>
    <g id="Atom/Logo/Horizontal" stroke="none" stroke-width="1" fill="none" fill-rule="evenodd">
        <g id="Group-2">
            <polygon id="Fill-2" fill="#FFBA08" points="18 5 18 11.0000816 12 11.0000816 12 16.9998369 6 16.9998369 6 23.0002447 0 23.0002447 0 29 6 29 12 29 18 29 24 29 24 23.0002447 24 16.9998369 24 11.0000816 24 5"></polygon>
            <path d="M47.142,23 L47.142,21.038 L40.032,21.038 L40.032,17.564 L46.116,17.564 L46.116,15.638 L40.032,15.638 L40.032,12.362 L46.89,12.362 L46.89,10.4 L37.692,10.4 L37.692,23 L47.142,23 Z M51.786,23 L51.786,18.122 C51.786,17.186 52.011,16.472 52.461,15.98 C52.911,15.488 53.52,15.242 54.288,15.242 C54.984,15.242 55.518,15.455 55.89,15.881 C56.262,16.307 56.448,16.94 56.448,17.78 L56.448,17.78 L56.448,23 L58.698,23 L58.698,18.122 C58.698,17.198 58.926,16.487 59.382,15.989 C59.838,15.491 60.444,15.242 61.2,15.242 C61.896,15.242 62.43,15.455 62.802,15.881 C63.174,16.307 63.36,16.94 63.36,17.78 L63.36,17.78 L63.36,23 L65.61,23 L65.61,17.492 C65.61,16.088 65.256,15.035 64.548,14.333 C63.84,13.631 62.88,13.28 61.668,13.28 C60.912,13.28 60.222,13.421 59.598,13.703 C58.974,13.985 58.464,14.378 58.068,14.882 C57.744,14.354 57.303,13.955 56.745,13.685 C56.187,13.415 55.548,13.28 54.828,13.28 C54.168,13.28 53.568,13.394 53.028,13.622 C52.488,13.85 52.038,14.18 51.678,14.612 L51.678,14.612 L51.678,13.388 L49.536,13.388 L49.536,23 L51.786,23 Z M70.74,26.492 L70.74,21.83 C71.496,22.694 72.522,23.126 73.818,23.126 C74.754,23.126 75.591,22.922 76.329,22.514 C77.067,22.106 77.646,21.527 78.066,20.777 C78.486,20.027 78.696,19.166 78.696,18.194 C78.696,17.222 78.486,16.364 78.066,15.62 C77.646,14.876 77.067,14.3 76.329,13.892 C75.591,13.484 74.754,13.28 73.818,13.28 C73.158,13.28 72.555,13.394 72.009,13.622 C71.463,13.85 71.004,14.192 70.632,14.648 L70.632,14.648 L70.632,13.388 L68.49,13.388 L68.49,26.492 L70.74,26.492 Z M73.566,21.2 C73.026,21.2 72.54,21.077 72.108,20.831 C71.676,20.585 71.334,20.234 71.082,19.778 C70.83,19.322 70.704,18.794 70.704,18.194 C70.704,17.594 70.83,17.066 71.082,16.61 C71.334,16.154 71.676,15.803 72.108,15.557 C72.54,15.311 73.026,15.188 73.566,15.188 C74.394,15.188 75.075,15.464 75.609,16.016 C76.143,16.568 76.41,17.294 76.41,18.194 C76.41,19.094 76.143,19.82 75.609,20.372 C75.075,20.924 74.394,21.2 73.566,21.2 Z M83.088,23 L83.088,9.644 L80.838,9.644 L80.838,23 L83.088,23 Z M90.36,23.126 C91.344,23.126 92.226,22.916 93.006,22.496 C93.786,22.076 94.395,21.491 94.833,20.741 C95.271,19.991 95.49,19.142 95.49,18.194 C95.49,17.246 95.271,16.4 94.833,15.656 C94.395,14.912 93.786,14.33 93.006,13.91 C92.226,13.49 91.344,13.28 90.36,13.28 C89.388,13.28 88.512,13.49 87.732,13.91 C86.952,14.33 86.343,14.912 85.905,15.656 C85.467,16.4 85.248,17.246 85.248,18.194 C85.248,19.142 85.467,19.991 85.905,20.741 C86.343,21.491 86.952,22.076 87.732,22.496 C88.512,22.916 89.388,23.126 90.36,23.126 Z M90.36,21.2 C89.532,21.2 88.851,20.924 88.317,20.372 C87.783,19.82 87.516,19.094 87.516,18.194 C87.516,17.294 87.783,16.568 88.317,16.016 C88.851,15.464 89.532,15.188 90.36,15.188 C91.188,15.188 91.872,15.464 92.412,16.016 C92.952,16.568 93.222,17.294 93.222,18.194 C93.222,19.094 92.952,19.82 92.412,20.372 C91.872,20.924 91.188,21.2 90.36,21.2 Z M98.442,26.618 C99.294,26.618 100.02,26.405 100.62,25.979 C101.22,25.553 101.73,24.818 102.15,23.774 L102.15,23.774 L106.65,13.388 L104.49,13.388 L101.448,20.498 L98.424,13.388 L96.084,13.388 L100.278,23.036 L100.116,23.414 C99.9,23.894 99.663,24.236 99.405,24.44 C99.147,24.644 98.82,24.746 98.424,24.746 C98.124,24.746 97.827,24.686 97.533,24.566 C97.239,24.446 96.984,24.284 96.768,24.08 L96.768,24.08 L95.868,25.736 C96.168,26.012 96.552,26.228 97.02,26.384 C97.488,26.54 97.962,26.618 98.442,26.618 Z M112.572,23.126 C113.4,23.126 114.144,22.994 114.804,22.73 C115.464,22.466 116.01,22.076 116.442,21.56 L116.442,21.56 L115.236,20.174 C114.552,20.87 113.682,21.218 112.626,21.218 C111.798,21.218 111.105,21.011 110.547,20.597 C109.989,20.183 109.644,19.622 109.512,18.914 L109.512,18.914 L117.054,18.914 C117.078,18.626 117.09,18.404 117.09,18.248 C117.09,17.264 116.883,16.397 116.469,15.647 C116.055,14.897 115.479,14.315 114.741,13.901 C114.003,13.487 113.166,13.28 112.23,13.28 C111.282,13.28 110.43,13.49 109.674,13.91 C108.918,14.33 108.327,14.915 107.901,15.665 C107.475,16.415 107.262,17.258 107.262,18.194 C107.262,19.142 107.481,19.991 107.919,20.741 C108.357,21.491 108.978,22.076 109.782,22.496 C110.586,22.916 111.516,23.126 112.572,23.126 Z M114.948,17.42 L109.494,17.42 C109.602,16.712 109.905,16.145 110.403,15.719 C110.901,15.293 111.51,15.08 112.23,15.08 C112.962,15.08 113.574,15.296 114.066,15.728 C114.558,16.16 114.852,16.724 114.948,17.42 L114.948,17.42 Z M121.5,23 L121.5,18.338 C121.5,17.378 121.746,16.643 122.238,16.133 C122.73,15.623 123.414,15.368 124.29,15.368 C124.446,15.368 124.62,15.386 124.812,15.422 L124.812,15.422 L124.812,13.28 C123.18,13.28 122.04,13.784 121.392,14.792 L121.392,14.792 L121.392,13.388 L119.25,13.388 L119.25,23 L121.5,23 Z M127.674,15.098 L128.61,12.542 C128.766,12.134 128.871,11.828 128.925,11.624 C128.979,11.42 129.006,11.21 129.006,10.994 C129.006,10.562 128.868,10.208 128.592,9.932 C128.316,9.656 127.968,9.518 127.548,9.518 C127.128,9.518 126.78,9.656 126.504,9.932 C126.228,10.208 126.09,10.562 126.09,10.994 C126.09,11.318 126.165,11.597 126.315,11.831 C126.465,12.065 126.672,12.23 126.936,12.326 L126.936,12.326 L126.216,15.098 L127.674,15.098 Z M134.172,23.126 C135.516,23.126 136.578,22.856 137.358,22.316 C138.138,21.776 138.528,21.056 138.528,20.156 C138.528,19.472 138.351,18.944 137.997,18.572 C137.643,18.2 137.22,17.936 136.728,17.78 C136.236,17.624 135.606,17.486 134.838,17.366 C134.07,17.234 133.503,17.093 133.137,16.943 C132.771,16.793 132.588,16.538 132.588,16.178 C132.588,15.854 132.759,15.593 133.101,15.395 C133.443,15.197 133.944,15.098 134.604,15.098 C135.624,15.098 136.542,15.338 137.358,15.818 L137.358,15.818 L138.222,14.108 C137.802,13.856 137.262,13.655 136.602,13.505 C135.942,13.355 135.282,13.28 134.622,13.28 C133.326,13.28 132.297,13.553 131.535,14.099 C130.773,14.645 130.392,15.374 130.392,16.286 C130.392,16.982 130.575,17.525 130.941,17.915 C131.307,18.305 131.739,18.578 132.237,18.734 C132.735,18.89 133.38,19.028 134.172,19.148 C134.928,19.268 135.477,19.394 135.819,19.526 C136.161,19.658 136.332,19.892 136.332,20.228 C136.332,20.936 135.66,21.29 134.316,21.29 C133.728,21.29 133.131,21.203 132.525,21.029 C131.919,20.855 131.4,20.624 130.968,20.336 L130.968,20.336 L130.104,22.046 C130.548,22.358 131.142,22.616 131.886,22.82 C132.63,23.024 133.392,23.126 134.172,23.126 Z M149.562,23.18 C150.666,23.18 151.602,23.012 152.37,22.676 C153.138,22.34 153.711,21.89 154.089,21.326 C154.467,20.762 154.656,20.132 154.656,19.436 C154.656,18.62 154.443,17.972 154.017,17.492 C153.591,17.012 153.078,16.655 152.478,16.421 C151.878,16.187 151.11,15.962 150.174,15.746 C149.49,15.578 148.95,15.428 148.554,15.296 C148.158,15.164 147.831,14.984 147.573,14.756 C147.315,14.528 147.186,14.234 147.186,13.874 C147.186,13.358 147.411,12.944 147.861,12.632 C148.311,12.32 148.998,12.164 149.922,12.164 C150.486,12.164 151.068,12.248 151.668,12.416 C152.268,12.584 152.844,12.83 153.396,13.154 L153.396,13.154 L154.134,11.336 C153.594,10.976 152.952,10.7 152.208,10.508 C151.464,10.316 150.708,10.22 149.94,10.22 C148.836,10.22 147.903,10.388 147.141,10.724 C146.379,11.06 145.809,11.513 145.431,12.083 C145.053,12.653 144.864,13.286 144.864,13.982 C144.864,14.81 145.077,15.467 145.503,15.953 C145.929,16.439 146.439,16.796 147.033,17.024 C147.627,17.252 148.404,17.48 149.364,17.708 C150.048,17.876 150.588,18.026 150.984,18.158 C151.38,18.29 151.707,18.473 151.965,18.707 C152.223,18.941 152.352,19.238 152.352,19.598 C152.352,20.09 152.121,20.486 151.659,20.786 C151.197,21.086 150.498,21.236 149.562,21.236 C148.806,21.236 148.053,21.107 147.303,20.849 C146.553,20.591 145.92,20.258 145.404,19.85 L145.404,19.85 L144.594,21.668 C145.122,22.124 145.839,22.49 146.745,22.766 C147.651,23.042 148.59,23.18 149.562,23.18 Z M161.082,23.126 C162.066,23.126 162.948,22.916 163.728,22.496 C164.508,22.076 165.117,21.491 165.555,20.741 C165.993,19.991 166.212,19.142 166.212,18.194 C166.212,17.246 165.993,16.4 165.555,15.656 C165.117,14.912 164.508,14.33 163.728,13.91 C162.948,13.49 162.066,13.28 161.082,13.28 C160.11,13.28 159.234,13.49 158.454,13.91 C157.674,14.33 157.065,14.912 156.627,15.656 C156.189,16.4 155.97,17.246 155.97,18.194 C155.97,19.142 156.189,19.991 156.627,20.741 C157.065,21.491 157.674,22.076 158.454,22.496 C159.234,22.916 160.11,23.126 161.082,23.126 Z M161.082,21.2 C160.254,21.2 159.573,20.924 159.039,20.372 C158.505,19.82 158.238,19.094 158.238,18.194 C158.238,17.294 158.505,16.568 159.039,16.016 C159.573,15.464 160.254,15.188 161.082,15.188 C161.91,15.188 162.594,15.464 163.134,16.016 C163.674,16.568 163.944,17.294 163.944,18.194 C163.944,19.094 163.674,19.82 163.134,20.372 C162.594,20.924 161.91,21.2 161.082,21.2 Z M172.782,23.126 C173.718,23.126 174.543,22.931 175.257,22.541 C175.971,22.151 176.514,21.596 176.886,20.876 L176.886,20.876 L175.158,19.868 C174.882,20.312 174.537,20.645 174.123,20.867 C173.709,21.089 173.256,21.2 172.764,21.2 C171.912,21.2 171.213,20.927 170.667,20.381 C170.121,19.835 169.848,19.106 169.848,18.194 C169.848,17.282 170.124,16.553 170.676,16.007 C171.228,15.461 171.924,15.188 172.764,15.188 C173.256,15.188 173.709,15.299 174.123,15.521 C174.537,15.743 174.882,16.076 175.158,16.52 L175.158,16.52 L176.886,15.512 C176.526,14.792 175.989,14.24 175.275,13.856 C174.561,13.472 173.73,13.28 172.782,13.28 C171.774,13.28 170.877,13.49 170.091,13.91 C169.305,14.33 168.69,14.912 168.246,15.656 C167.802,16.4 167.58,17.246 167.58,18.194 C167.58,19.142 167.802,19.991 168.246,20.741 C168.69,21.491 169.308,22.076 170.1,22.496 C170.892,22.916 171.786,23.126 172.782,23.126 Z M179.964,11.804 C180.384,11.804 180.729,11.669 180.999,11.399 C181.269,11.129 181.404,10.796 181.404,10.4 C181.404,10.028 181.266,9.719 180.99,9.473 C180.714,9.227 180.372,9.104 179.964,9.104 C179.556,9.104 179.214,9.233 178.938,9.491 C178.662,9.749 178.524,10.07 178.524,10.454 C178.524,10.838 178.662,11.159 178.938,11.417 C179.214,11.675 179.556,11.804 179.964,11.804 Z M181.08,23 L181.08,13.388 L178.83,13.388 L178.83,23 L181.08,23 Z M186.93,23.126 C187.65,23.126 188.265,23.015 188.775,22.793 C189.285,22.571 189.678,22.25 189.954,21.83 L189.954,21.83 L189.954,23 L192.078,23 L192.078,17.366 C192.078,15.998 191.703,14.975 190.953,14.297 C190.203,13.619 189.12,13.28 187.704,13.28 C186.912,13.28 186.162,13.382 185.454,13.586 C184.746,13.79 184.14,14.084 183.636,14.468 L183.636,14.468 L184.518,16.106 C184.878,15.806 185.319,15.572 185.841,15.404 C186.363,15.236 186.894,15.152 187.434,15.152 C188.226,15.152 188.823,15.332 189.225,15.692 C189.627,16.052 189.828,16.568 189.828,17.24 L189.828,17.24 L189.828,17.384 L187.344,17.384 C185.964,17.384 184.953,17.645 184.311,18.167 C183.669,18.689 183.348,19.382 183.348,20.246 C183.348,20.798 183.495,21.293 183.789,21.731 C184.083,22.169 184.5,22.511 185.04,22.757 C185.58,23.003 186.21,23.126 186.93,23.126 Z M187.398,21.488 C186.822,21.488 186.372,21.368 186.048,21.128 C185.724,20.888 185.562,20.564 185.562,20.156 C185.562,19.304 186.21,18.878 187.506,18.878 L187.506,18.878 L189.828,18.878 L189.828,19.994 C189.648,20.474 189.339,20.843 188.901,21.101 C188.463,21.359 187.962,21.488 187.398,21.488 Z M197.208,23 L197.208,9.644 L194.958,9.644 L194.958,23 L197.208,23 Z M207.576,23 L207.576,14.756 L211.716,21.56 L212.76,21.56 L216.9,14.648 L216.918,23 L219.132,23 L219.114,10.4 L217.188,10.4 L212.274,18.752 L207.27,10.4 L205.344,10.4 L205.344,23 L207.576,23 Z M226.638,23.126 C227.622,23.126 228.504,22.916 229.284,22.496 C230.064,22.076 230.673,21.491 231.111,20.741 C231.549,19.991 231.768,19.142 231.768,18.194 C231.768,17.246 231.549,16.4 231.111,15.656 C230.673,14.912 230.064,14.33 229.284,13.91 C228.504,13.49 227.622,13.28 226.638,13.28 C225.666,13.28 224.79,13.49 224.01,13.91 C223.23,14.33 222.621,14.912 222.183,15.656 C221.745,16.4 221.526,17.246 221.526,18.194 C221.526,19.142 221.745,19.991 222.183,20.741 C222.621,21.491 223.23,22.076 224.01,22.496 C224.79,22.916 225.666,23.126 226.638,23.126 Z M226.638,21.2 C225.81,21.2 225.129,20.924 224.595,20.372 C224.061,19.82 223.794,19.094 223.794,18.194 C223.794,17.294 224.061,16.568 224.595,16.016 C225.129,15.464 225.81,15.188 226.638,15.188 C227.466,15.188 228.15,15.464 228.69,16.016 C229.23,16.568 229.5,17.294 229.5,18.194 C229.5,19.094 229.23,19.82 228.69,20.372 C228.15,20.924 227.466,21.2 226.638,21.2 Z M239.256,23.126 C240.192,23.126 241.029,22.922 241.767,22.514 C242.505,22.106 243.084,21.527 243.504,20.777 C243.924,20.027 244.134,19.166 244.134,18.194 C244.134,17.222 243.924,16.364 243.504,15.62 C243.084,14.876 242.505,14.3 241.767,13.892 C241.029,13.484 240.192,13.28 239.256,13.28 C238.632,13.28 238.059,13.388 237.537,13.604 C237.015,13.82 236.562,14.138 236.178,14.558 L236.178,14.558 L236.178,9.644 L233.928,9.644 L233.928,23 L236.07,23 L236.07,21.758 C236.442,22.214 236.901,22.556 237.447,22.784 C237.993,23.012 238.596,23.126 239.256,23.126 Z M239.004,21.2 C238.464,21.2 237.978,21.077 237.546,20.831 C237.114,20.585 236.772,20.234 236.52,19.778 C236.268,19.322 236.142,18.794 236.142,18.194 C236.142,17.594 236.268,17.066 236.52,16.61 C236.772,16.154 237.114,15.803 237.546,15.557 C237.978,15.311 238.464,15.188 239.004,15.188 C239.832,15.188 240.513,15.464 241.047,16.016 C241.581,16.568 241.848,17.294 241.848,18.194 C241.848,19.094 241.581,19.82 241.047,20.372 C240.513,20.924 239.832,21.2 239.004,21.2 Z M247.41,11.804 C247.83,11.804 248.175,11.669 248.445,11.399 C248.715,11.129 248.85,10.796 248.85,10.4 C248.85,10.028 248.712,9.719 248.436,9.473 C248.16,9.227 247.818,9.104 247.41,9.104 C247.002,9.104 246.66,9.233 246.384,9.491 C246.108,9.749 245.97,10.07 245.97,10.454 C245.97,10.838 246.108,11.159 246.384,11.417 C246.66,11.675 247.002,11.804 247.41,11.804 Z M248.526,23 L248.526,13.388 L246.276,13.388 L246.276,23 L248.526,23 Z M253.728,23 L253.728,9.644 L251.478,9.644 L251.478,23 L253.728,23 Z M257.814,11.804 C258.234,11.804 258.579,11.669 258.849,11.399 C259.119,11.129 259.254,10.796 259.254,10.4 C259.254,10.028 259.116,9.719 258.84,9.473 C258.564,9.227 258.222,9.104 257.814,9.104 C257.406,9.104 257.064,9.233 256.788,9.491 C256.512,9.749 256.374,10.07 256.374,10.454 C256.374,10.838 256.512,11.159 256.788,11.417 C257.064,11.675 257.406,11.804 257.814,11.804 Z M258.93,23 L258.93,13.388 L256.68,13.388 L256.68,23 L258.93,23 Z M265.5,23.126 C265.92,23.126 266.319,23.072 266.697,22.964 C267.075,22.856 267.396,22.694 267.66,22.478 L267.66,22.478 L267.03,20.876 C266.694,21.14 266.274,21.272 265.77,21.272 C265.338,21.272 265.008,21.149 264.78,20.903 C264.552,20.657 264.438,20.3 264.438,19.832 L264.438,19.832 L264.438,15.26 L267.012,15.26 L267.012,13.46 L264.438,13.46 L264.438,11.264 L262.188,11.264 L262.188,13.46 L260.604,13.46 L260.604,15.26 L262.188,15.26 L262.188,19.886 C262.188,20.942 262.476,21.746 263.052,22.298 C263.628,22.85 264.444,23.126 265.5,23.126 Z M270.306,26.618 C271.158,26.618 271.884,26.405 272.484,25.979 C273.084,25.553 273.594,24.818 274.014,23.774 L274.014,23.774 L278.514,13.388 L276.354,13.388 L273.312,20.498 L270.288,13.388 L267.948,13.388 L272.142,23.036 L271.98,23.414 C271.764,23.894 271.527,24.236 271.269,24.44 C271.011,24.644 270.684,24.746 270.288,24.746 C269.988,24.746 269.691,24.686 269.397,24.566 C269.103,24.446 268.848,24.284 268.632,24.08 L268.632,24.08 L267.732,25.736 C268.032,26.012 268.416,26.228 268.884,26.384 C269.352,26.54 269.826,26.618 270.306,26.618 Z M285.732,23 L286.974,20.084 L293.274,20.084 L294.534,23 L296.982,23 L291.294,10.4 L288.99,10.4 L283.32,23 L285.732,23 Z M292.5,18.248 L287.766,18.248 L290.124,12.74 L292.5,18.248 Z M300.618,23 L300.618,9.644 L298.368,9.644 L298.368,23 L300.618,23 Z M305.82,23 L305.82,9.644 L303.57,9.644 L303.57,23 L305.82,23 Z M309.906,11.804 C310.326,11.804 310.671,11.669 310.941,11.399 C311.211,11.129 311.346,10.796 311.346,10.4 C311.346,10.028 311.208,9.719 310.932,9.473 C310.656,9.227 310.314,9.104 309.906,9.104 C309.498,9.104 309.156,9.233 308.88,9.491 C308.604,9.749 308.466,10.07 308.466,10.454 C308.466,10.838 308.604,11.159 308.88,11.417 C309.156,11.675 309.498,11.804 309.906,11.804 Z M311.022,23 L311.022,13.388 L308.772,13.388 L308.772,23 L311.022,23 Z M316.872,23.126 C317.592,23.126 318.207,23.015 318.717,22.793 C319.227,22.571 319.62,22.25 319.896,21.83 L319.896,21.83 L319.896,23 L322.02,23 L322.02,17.366 C322.02,15.998 321.645,14.975 320.895,14.297 C320.145,13.619 319.062,13.28 317.646,13.28 C316.854,13.28 316.104,13.382 315.396,13.586 C314.688,13.79 314.082,14.084 313.578,14.468 L313.578,14.468 L314.46,16.106 C314.82,15.806 315.261,15.572 315.783,15.404 C316.305,15.236 316.836,15.152 317.376,15.152 C318.168,15.152 318.765,15.332 319.167,15.692 C319.569,16.052 319.77,16.568 319.77,17.24 L319.77,17.24 L319.77,17.384 L317.286,17.384 C315.906,17.384 314.895,17.645 314.253,18.167 C313.611,18.689 313.29,19.382 313.29,20.246 C313.29,20.798 313.437,21.293 313.731,21.731 C314.025,22.169 314.442,22.511 314.982,22.757 C315.522,23.003 316.152,23.126 316.872,23.126 Z M317.34,21.488 C316.764,21.488 316.314,21.368 315.99,21.128 C315.666,20.888 315.504,20.564 315.504,20.156 C315.504,19.304 316.152,18.878 317.448,18.878 L317.448,18.878 L319.77,18.878 L319.77,19.994 C319.59,20.474 319.281,20.843 318.843,21.101 C318.405,21.359 317.904,21.488 317.34,21.488 Z M327.15,23 L327.15,18.14 C327.15,17.204 327.39,16.487 327.87,15.989 C328.35,15.491 329.004,15.242 329.832,15.242 C330.564,15.242 331.128,15.455 331.524,15.881 C331.92,16.307 332.118,16.94 332.118,17.78 L332.118,17.78 L332.118,23 L334.368,23 L334.368,17.492 C334.368,16.1 334.002,15.05 333.27,14.342 C332.538,13.634 331.566,13.28 330.354,13.28 C329.646,13.28 329.01,13.394 328.446,13.622 C327.882,13.85 327.414,14.186 327.042,14.63 L327.042,14.63 L327.042,13.388 L324.9,13.388 L324.9,23 L327.15,23 Z M341.64,23.126 C342.576,23.126 343.401,22.931 344.115,22.541 C344.829,22.151 345.372,21.596 345.744,20.876 L345.744,20.876 L344.016,19.868 C343.74,20.312 343.395,20.645 342.981,20.867 C342.567,21.089 342.114,21.2 341.622,21.2 C340.77,21.2 340.071,20.927 339.525,20.381 C338.979,19.835 338.706,19.106 338.706,18.194 C338.706,17.282 338.982,16.553 339.534,16.007 C340.086,15.461 340.782,15.188 341.622,15.188 C342.114,15.188 342.567,15.299 342.981,15.521 C343.395,15.743 343.74,16.076 344.016,16.52 L344.016,16.52 L345.744,15.512 C345.384,14.792 344.847,14.24 344.133,13.856 C343.419,13.472 342.588,13.28 341.64,13.28 C340.632,13.28 339.735,13.49 338.949,13.91 C338.163,14.33 337.548,14.912 337.104,15.656 C336.66,16.4 336.438,17.246 336.438,18.194 C336.438,19.142 336.66,19.991 337.104,20.741 C337.548,21.491 338.166,22.076 338.958,22.496 C339.75,22.916 340.644,23.126 341.64,23.126 Z M352.206,23.126 C353.034,23.126 353.778,22.994 354.438,22.73 C355.098,22.466 355.644,22.076 356.076,21.56 L356.076,21.56 L354.87,20.174 C354.186,20.87 353.316,21.218 352.26,21.218 C351.432,21.218 350.739,21.011 350.181,20.597 C349.623,20.183 349.278,19.622 349.146,18.914 L349.146,18.914 L356.688,18.914 C356.712,18.626 356.724,18.404 356.724,18.248 C356.724,17.264 356.517,16.397 356.103,15.647 C355.689,14.897 355.113,14.315 354.375,13.901 C353.637,13.487 352.8,13.28 351.864,13.28 C350.916,13.28 350.064,13.49 349.308,13.91 C348.552,14.33 347.961,14.915 347.535,15.665 C347.109,16.415 346.896,17.258 346.896,18.194 C346.896,19.142 347.115,19.991 347.553,20.741 C347.991,21.491 348.612,22.076 349.416,22.496 C350.22,22.916 351.15,23.126 352.206,23.126 Z M354.582,17.42 L349.128,17.42 C349.236,16.712 349.539,16.145 350.037,15.719 C350.535,15.293 351.144,15.08 351.864,15.08 C352.596,15.08 353.208,15.296 353.7,15.728 C354.192,16.16 354.486,16.724 354.582,17.42 L354.582,17.42 Z" id="Employer’sSocialMobilityAlliance" fill="#FFFFFF" fill-rule="nonzero"></path>
        </g>
    </g>
</svg>