<?xml version="1.0" encoding="UTF-8"?>
<svg width="36px" height="36px" viewBox="0 0 36 36" version="1.1" xmlns="http://www.w3.org/2000/svg" xmlns:xlink="http://www.w3.org/1999/xlink">
    <title>Atom/Icon/Blocks</title>
    <g stroke="none" stroke-width="1" fill="none" fill-rule="evenodd">
        <g transform="translate(-309.000000, -1186.000000)" fill="#7DCFB6" fill-rule="nonzero">
            <g transform="translate(39.000000, 862.000000)">
                <g transform="translate(270.000000, 324.000000)">
                    <path d="M18,5.56578947 C15.8417293,5.56578947 14.0921053,7.31541354 14.0921053,9.47368421 C14.0921053,11.6319549 15.8417293,13.3815789 18,13.3815789 C20.1582707,13.3815789 21.9078947,11.6319549 21.9078947,9.47368421 C21.9078947,7.31541354 20.1582707,5.56578947 18,5.56578947 Z M18,6.98684211 C19.373445,6.98684211 20.4868421,8.10023924 20.4868421,9.47368421 C20.4868421,10.8471292 19.373445,11.9605263 18,11.9605263 C16.626555,11.9605263 15.5131579,10.8471292 15.5131579,9.47368421 C15.5131579,8.10023924 16.626555,6.98684211 18,6.98684211 Z" id="Oval"></path>
                    <path d="M12.5080467,23.7031613 L5.0475204,25.4616242 C4.50578417,25.5893127 4.31454609,26.2620555 4.70810834,26.6556177 L10.4101717,32.3576811 C10.803734,32.7512434 11.4764768,32.5600053 11.6041652,32.0182691 L13.3626282,24.5577428 C13.4837545,24.0438473 13.0219422,23.582035 12.5080467,23.7031613 Z M11.7161053,25.3487368 L10.5129474,30.4503158 L6.61452632,26.5518947 L11.7161053,25.3487368 Z" id="Rectangle" transform="translate(8.940817, 28.124972) rotate(-45.000000) translate(-8.940817, -28.124972) "></path>
                    <path d="M24.8002105,24.1522105 L22.3696392,24.5057857 L22.2704903,24.5270948 C21.7617385,24.6736717 21.578953,25.3308409 21.975856,25.7177258 L23.7344211,27.4329474 L23.3201938,29.855172 L23.3100279,29.9505357 C23.2880622,30.4825745 23.858829,30.8630109 24.3511316,30.6041921 L26.5263158,29.4603158 L28.7015,30.6041921 L28.7890548,30.6433294 C29.288266,30.8286291 29.8264592,30.403359 29.7324378,29.855172 L29.3172632,27.4329474 L31.0767756,25.7177258 L31.1444636,25.6422081 C31.4698967,25.224588 31.2314989,24.5854884 30.6829924,24.5057857 L28.2514737,24.1522105 L27.1634704,21.9487033 C26.9028396,21.4206077 26.149792,21.4206077 25.8891612,21.9487033 L24.8002105,24.1522105 Z M26.5263158,23.868 L27.1420719,25.1162868 L27.1921495,25.2020831 C27.3033686,25.365243 27.4786891,25.4761499 27.677054,25.504974 L29.0538947,25.704 L28.0576122,26.6762117 L27.9914899,26.7503509 C27.8706841,26.9065457 27.8193824,27.1075576 27.8532672,27.3051209 L28.0875789,28.6758947 L26.8569529,28.0289856 L26.7660094,27.9890098 C26.5801283,27.9223836 26.3731016,27.9357088 26.1956787,28.0289856 L24.9641053,28.6758947 L25.1993644,27.3051209 L25.2092805,27.2062753 C25.2152054,27.0089032 25.1385576,26.8161268 24.9950194,26.6762117 L23.9977895,25.704 L25.3755776,25.504974 C25.6070032,25.4713459 25.807063,25.325994 25.9105597,25.1162868 L26.5263158,23.868 Z" id="Star"></path>
                    <path d="M24.6315789,0.236842105 L11.3684211,0.236842105 C9.92957394,0.236842105 8.76315789,1.40325815 8.76315789,2.84210526 L8.76315789,16.1052632 C8.76315789,17.5441103 9.92957394,18.7105263 11.3684211,18.7105263 L24.6315789,18.7105263 C26.0704261,18.7105263 27.2368421,17.5441103 27.2368421,16.1052632 L27.2368421,2.84210526 C27.2368421,1.40325815 26.0704261,0.236842105 24.6315789,0.236842105 Z M11.3684211,1.65789474 L24.6315789,1.65789474 C25.2856004,1.65789474 25.8157895,2.18808385 25.8157895,2.84210526 L25.8157895,16.1052632 C25.8157895,16.7592846 25.2856004,17.2894737 24.6315789,17.2894737 L11.3684211,17.2894737 C10.7143996,17.2894737 10.1842105,16.7592846 10.1842105,16.1052632 L10.1842105,2.84210526 C10.1842105,2.18808385 10.7143996,1.65789474 11.3684211,1.65789474 Z" id="Rectangle"></path>
                    <path d="M16.1052632,17.2894737 L2.84210526,17.2894737 C1.40325815,17.2894737 0.236842105,18.4558897 0.236842105,19.8947368 L0.236842105,33.1578947 C0.236842105,34.5967418 1.40325815,35.7631579 2.84210526,35.7631579 L16.1052632,35.7631579 C17.5441103,35.7631579 18.7105263,34.5967418 18.7105263,33.1578947 L18.7105263,19.8947368 C18.7105263,18.4558897 17.5441103,17.2894737 16.1052632,17.2894737 Z M2.84210526,18.7105263 L16.1052632,18.7105263 C16.7592846,18.7105263 17.2894737,19.2407154 17.2894737,19.8947368 L17.2894737,33.1578947 C17.2894737,33.8119162 16.7592846,34.3421053 16.1052632,34.3421053 L2.84210526,34.3421053 C2.18808385,34.3421053 1.65789474,33.8119162 1.65789474,33.1578947 L1.65789474,19.8947368 C1.65789474,19.2407154 2.18808385,18.7105263 2.84210526,18.7105263 Z" id="Rectangle-Copy-4"></path>
                    <path d="M33.1578947,17.2894737 L19.8947368,17.2894737 C18.4558897,17.2894737 17.2894737,18.4558897 17.2894737,19.8947368 L17.2894737,33.1578947 C17.2894737,34.5967418 18.4558897,35.7631579 19.8947368,35.7631579 L33.1578947,35.7631579 C34.5967418,35.7631579 35.7631579,34.5967418 35.7631579,33.1578947 L35.7631579,19.8947368 C35.7631579,18.4558897 34.5967418,17.2894737 33.1578947,17.2894737 Z M19.8947368,18.7105263 L33.1578947,18.7105263 C33.8119162,18.7105263 34.3421053,19.2407154 34.3421053,19.8947368 L34.3421053,33.1578947 C34.3421053,33.8119162 33.8119162,34.3421053 33.1578947,34.3421053 L19.8947368,34.3421053 C19.2407154,34.3421053 18.7105263,33.8119162 18.7105263,33.1578947 L18.7105263,19.8947368 C18.7105263,19.2407154 19.2407154,18.7105263 19.8947368,18.7105263 Z" id="Rectangle-Copy-9"></path>
                </g>
            </g>
        </g>
    </g>
</svg>