<?xml version="1.0" encoding="UTF-8"?>
<svg width="38px" height="27px" viewBox="0 0 38 27" version="1.1" xmlns="http://www.w3.org/2000/svg" xmlns:xlink="http://www.w3.org/1999/xlink">
    <title>Atom/Icon/Book</title>
    <g id="Page-1" stroke="none" stroke-width="1" fill="none" fill-rule="evenodd" stroke-linejoin="round">
        <g id="Tablet/Home/Map-1" transform="translate(-308.000000, -1820.000000)" stroke="#2D3142" stroke-width="1.5">
            <g id="Further-education" transform="translate(39.000000, 1492.000000)">
                <g id="Group" transform="translate(270.000000, 324.000000)">
                    <g id="Book" transform="translate(0.000000, 5.000000)">
                        <path d="M7.10227854,22.4560115 C5.57150986,22.4594831 4.04252959,22.5578453 2.52396414,22.7505721 L2.52396414,0.608025822 C4.16256306,0.243086192 5.83587806,0.0566713688 7.51466348,0.0525685595 C10.6622546,0.0525685595 15.0049205,0.776346204 18.0178553,4.17641793 L18.0431034,25.1408268 C16.2925714,23.9962482 12.8756677,22.4560115 7.10227854,22.4560115 Z" id="Stroke-1"></path>
                        <path d="M18.0431034,4.1806575 C21.0560383,0.814249851 25.3987041,0.0568081291 28.5462953,0.0568081291 C30.2249755,0.0617525403 31.8983957,0.247956964 33.5369946,0.612265392 L33.5369946,22.7548117 C32.0269504,22.5602965 30.5063861,22.4590938 28.9840335,22.451835 C23.2442032,22.451835 19.8188834,23.9919665 18.0431034,25.1365451 L18.0431034,4.1806575 Z" id="Stroke-3"></path>
                        <path d="M18.0451022,25.1365662 C9.05374298,22.5177114 0.0622785415,24.886926 0.0622785415,24.886926 L0.0622785415,2.06478613 L2.52396414,2.06478613" id="Stroke-5" stroke-linecap="round"></path>
                        <path d="M33.4500571,2.06473353 L35.9117427,2.06473353 L35.9117427,24.8868734 C35.9117427,24.8868734 26.9203835,22.517764 17.9289191,25.1365136" id="Stroke-7" stroke-linecap="round"></path>
                    </g>
                </g>
            </g>
        </g>
    </g>
</svg>