<?xml version="1.0" encoding="UTF-8"?>
<svg width="36px" height="29px" viewBox="0 0 36 29" version="1.1" xmlns="http://www.w3.org/2000/svg" xmlns:xlink="http://www.w3.org/1999/xlink">
    <title>Atom/Icon/Briefcase</title>
    <g stroke="none" stroke-width="1" fill="none" fill-rule="evenodd">
        <g transform="translate(-309.000000, -2450.000000)">
            <g transform="translate(39.000000, 2122.000000)">
                <g transform="translate(270.000000, 324.000000)">
                    <g transform="translate(0.000000, 4.000000)">
                        <path d="M22.9864865,0.614864865 C23.3661823,0.614864865 23.6799774,0.897018746 23.7296399,1.26309431 L23.7364865,1.36486486 L23.7364865,4.64864865 C23.7364865,5.06286221 23.4007,5.39864865 22.9864865,5.39864865 C22.6067907,5.39864865 22.2929955,5.11649477 22.2433331,4.75041921 L22.2364865,4.64864865 L22.236,2.114 L13.52,2.114 L13.5202703,4.64864865 C13.5202703,5.02834441 13.2381164,5.34213961 12.8720408,5.39180203 L12.7702703,5.39864865 C12.3905745,5.39864865 12.0767793,5.11649477 12.0271169,4.75041921 L12.0202703,4.64864865 L12.0202703,1.36486486 C12.0202703,0.985169099 12.3024242,0.671373904 12.6684997,0.621711481 L12.7702703,0.614864865 L22.9864865,0.614864865 Z" id="Path-3" fill="#DF886C" fill-rule="nonzero"></path>
                        <path d="M34.2752497,4 L1.72475028,4 C0.772197002,4 0,4.772197 0,5.72475028 L0,26.7680355 C0,27.7205888 0.772197002,28.4927858 1.72475028,28.4927858 L34.2752497,28.4927858 C35.227803,28.4927858 36,27.7205888 36,26.7680355 L36,5.72475028 C36,4.772197 35.227803,4 34.2752497,4 Z M1.72475028,5.47835738 L34.2752497,5.47835738 C34.4113288,5.47835738 34.5216426,5.58867124 34.5216426,5.72475028 L34.5216426,26.7680355 C34.5216426,26.9041146 34.4113288,27.0144284 34.2752497,27.0144284 L1.72475028,27.0144284 C1.58867124,27.0144284 1.47835738,26.9041146 1.47835738,26.7680355 L1.47835738,5.72475028 C1.47835738,5.58867124 1.58867124,5.47835738 1.72475028,5.47835738 Z" id="Rectangle" fill="#DF886C" fill-rule="nonzero"></path>
                        <path d="M33.5876443,4 L2.16911251,4 C1.841128,4 1.51974466,4.09217153 1.24161436,4.26600297 C0.422025432,4.77824605 0.172872393,5.85790922 0.685115474,6.67749815 L6.73241277,16.3531738 C7.05220489,16.8648412 7.61302725,17.1756757 8.2164098,17.1756757 L27.540347,17.1756757 C28.1437295,17.1756757 28.7045519,16.8648412 29.024344,16.3531738 L35.0716413,6.67749815 C35.2454727,6.39936784 35.3376443,6.0779845 35.3376443,5.75 C35.3376443,4.78350169 34.5541426,4 33.5876443,4 Z M2.16911251,5.5 L33.5876443,5.5 C33.7257154,5.5 33.8376443,5.61192881 33.8376443,5.75 C33.8376443,5.79685493 33.8244769,5.84276683 33.7996438,5.88249974 L27.7523465,15.5581754 C27.7066619,15.6312708 27.6265445,15.6756757 27.540347,15.6756757 L8.2164098,15.6756757 C8.1302123,15.6756757 8.05009482,15.6312708 8.00441023,15.5581754 L1.95711293,5.88249974 C1.88393535,5.7654156 1.91952864,5.61117801 2.03661277,5.53800042 C2.07634567,5.51316736 2.12225758,5.5 2.16911251,5.5 Z" id="Rectangle-Copy" fill="#DF886C" fill-rule="nonzero"></path>
                        <rect id="Rectangle" stroke="#DF886C" stroke-width="1.5" fill="#FFFFFF" stroke-linejoin="round" x="14" y="15" width="9" height="3"></rect>
                    </g>
                </g>
            </g>
        </g>
    </g>
</svg>