<?xml version="1.0" encoding="UTF-8"?>
<svg width="36px" height="22px" viewBox="0 0 36 22" version="1.1" xmlns="http://www.w3.org/2000/svg" xmlns:xlink="http://www.w3.org/1999/xlink">
    <title>Atom/Icon/Cap</title>
    <g id="Page-1" stroke="none" stroke-width="1" fill="none" fill-rule="evenodd">
        <g id="Tablet/Home/Map-1" transform="translate(-669.000000, -1823.000000)" fill="#3772FF" fill-rule="nonzero">
            <g id="Higher-education" transform="translate(399.000000, 1492.000000)">
                <g id="Group" transform="translate(270.000000, 324.000000)">
                    <g id="Cap" transform="translate(0.000000, 7.000000)">
                        <path d="M33.1218072,15.2919715 C31.9278308,15.2919715 30.9599217,16.2598806 30.9599217,17.453857 C30.9599217,18.1401336 31.4161383,19.0929359 32.328332,20.4455499 L33.1218072,21.5972614 L33.7389027,20.7038828 C34.768667,19.2130774 35.2836927,18.1830259 35.2836927,17.453857 C35.2836927,16.2598806 34.3157836,15.2919715 33.1218072,15.2919715 Z M33.1218072,16.7919715 C33.4873565,16.7919715 33.7836927,17.0883077 33.7836927,17.453857 L33.7792681,17.514247 C33.7500655,17.7318841 33.5763073,18.1301252 33.2579367,18.6773965 L33.1214694,18.9052449 L33.0971574,18.8652966 C32.6722999,18.1622672 32.4599217,17.673044 32.4599217,17.453857 C32.4599217,17.0883077 32.7562579,16.7919715 33.1218072,16.7919715 Z" id="Oval"></path>
                        <polygon id="Line" points="33.8718072 7.52660121 33.8718072 16.7919715 32.3718072 16.7919715 32.3718072 7.52660121"></polygon>
                        <path d="M30.2980362,8.23254396 C30.677732,8.23254396 30.9915272,8.51469784 31.0411896,8.8807734 L31.0480362,8.98254396 L31.0480362,16.0419715 C31.0480362,16.2960813 30.9193678,16.5329082 30.7061795,16.6711925 C26.2364557,19.5704728 21.7435604,21.027628 17.2380952,21.027628 C12.7326301,21.027628 8.2397348,19.5704728 3.77001095,16.6711925 C3.58727816,16.5526631 3.46664158,16.361735 3.43590323,16.1495806 L3.42815428,16.0419715 L3.42815428,8.98254396 C3.42815428,8.5683304 3.76394072,8.23254396 4.17815428,8.23254396 C4.55785005,8.23254396 4.87164524,8.51469784 4.92130766,8.8807734 L4.92815428,8.98254396 L4.92746939,15.6302449 L5.04016337,15.7019209 C8.97290654,18.1622562 12.8859967,19.4317373 16.7879221,19.522398 L17.2380952,19.527628 C21.2892159,19.527628 25.3520246,18.2568845 29.4360271,15.7019209 L29.5474694,15.6302449 L29.5480362,8.98254396 C29.5480362,8.6028482 29.8301901,8.289053 30.1962656,8.23939058 L30.2980362,8.23254396 Z" id="Path-2"></path>
                        <path d="M17.231462,0.0387920737 L0.492798802,5.7370604 C-0.157712948,5.95851121 -0.166397193,6.87542794 0.479803457,7.10916009 L17.2184667,13.1635702 C17.373745,13.2197347 17.5435156,13.221375 17.6998502,13.1682212 L35.5069387,7.11381115 C36.170634,6.88815474 36.1621423,5.94651206 35.4944853,5.73286182 L17.6873967,0.0345934914 C17.538899,-0.0129257766 17.3790594,-0.0114538561 17.231462,0.0387920737 Z M17.4713076,1.49205595 L32.9532058,6.44521634 L17.4722771,11.7086158 L2.92109596,6.44521634 L17.4713076,1.49205595 Z" id="Path-3"></path>
                    </g>
                </g>
            </g>
        </g>
    </g>
</svg>