<?xml version="1.0" encoding="UTF-8"?>
<svg width="27px" height="36px" viewBox="0 0 27 36" version="1.1" xmlns="http://www.w3.org/2000/svg" xmlns:xlink="http://www.w3.org/1999/xlink">
    <title>Atom/Icon/Lightbulb</title>
    <g id="Page-1" stroke="none" stroke-width="1" fill="none" fill-rule="evenodd">
        <g id="Tablet/Home/Map-1" transform="translate(-428.000000, -2158.000000)" fill="#FFBA08" fill-rule="nonzero">
            <g id="Facts-Copy" transform="translate(399.000000, 2122.000000)">
                <g id="Group-5" transform="translate(24.000000, 36.000000)">
                    <g id="Group" transform="translate(0.314286, 0.000000)">
                        <g id="Group-4" transform="translate(4.714286, 0.000000)">
                            <path d="M13.2,0 C5.9098413,0 0,6.08625615 0,13.5940336 L0.00440915809,13.9473851 C0.124720339,18.7648061 2.69875361,23.0896422 6.68862496,25.4217673 L6.84461415,25.5103202 L6.84520971,29.4554744 C6.8452097,33.0699332 9.69034623,36 13.2,36 L13.4382392,35.995486 C16.8375086,35.8664617 19.5547903,32.9877873 19.5547903,29.4555127 L19.5546809,25.5103202 L19.7123811,25.4211786 C23.7990109,23.0320084 26.4,18.552225 26.4,13.5940336 C26.4,6.08625615 20.4901587,0 13.2,0 Z M13.2,1.63346198 C19.6141717,1.63346198 24.8138852,6.98839229 24.8138852,13.5940336 C24.8138852,18.1647891 22.3025032,22.2726307 18.4065128,24.2884972 L17.9695874,24.5145715 L17.9686755,29.4553574 C17.9686755,32.1677971 15.8336667,34.366538 13.2,34.366538 C10.5663333,34.366538 8.43132452,32.1677971 8.43132452,29.4555127 L8.43154905,24.5151074 L7.99444228,24.2889914 C4.09793222,22.2733203 1.58611482,18.1651834 1.58611482,13.5940336 C1.58611482,6.98839229 6.78582833,1.63346198 13.2,1.63346198 Z" id="Combined-Shape"></path>
                            <path d="M18.1265569,29 C18.5300484,29 18.8571429,29.3357864 18.8571429,29.75 C18.8571429,30.1296958 18.5822926,30.443491 18.2256931,30.4931534 L18.1265569,30.5 L8.27344313,30.5 C7.86995163,30.5 7.54285714,30.1642136 7.54285714,29.75 C7.54285714,29.3703042 7.81770737,29.056509 8.17430694,29.0068466 L8.27344313,29 L18.1265569,29 Z" id="Line-6"></path>
                        </g>
                    </g>
                </g>
            </g>
        </g>
    </g>
</svg>