<?xml version="1.0" encoding="UTF-8"?>
<svg width="31px" height="32px" viewBox="0 0 31 32" version="1.1" xmlns="http://www.w3.org/2000/svg" xmlns:xlink="http://www.w3.org/1999/xlink">
    <title>Atom/Icon/Pencil</title>
    <g id="Page-1" stroke="none" stroke-width="1" fill="none" fill-rule="evenodd">
        <g id="Tablet/Home/Map-1" transform="translate(-672.000000, -1187.000000)" fill="#FFBA08" fill-rule="nonzero">
            <g id="School-years" transform="translate(399.000000, 862.000000)">
                <g id="Group" transform="translate(270.000000, 324.000000)">
                    <g id="Pencil-icon" transform="translate(18.000000, 18.000000) rotate(-315.000000) translate(-18.000000, -18.000000) translate(13.000000, -2.000000)">
                        <path d="M4.50761583,-0.770161945 C1.59277965,-0.770161945 -0.770161945,1.59277965 -0.770161945,4.50761583 L-0.770161945,34.1426574 L4.50761583,40.4759908 L9.78539361,34.1426574 L9.78539361,4.50761583 C9.78539361,1.59277965 7.42245201,-0.770161945 4.50761583,-0.770161945 Z M4.71253128,0.902221154 C6.61155498,1.00845369 8.11872694,2.58202533 8.11872694,4.50761583 L8.11777778,33.5388889 L4.50777778,37.8711111 L0.895555556,33.5377778 L0.896504722,4.50761583 C0.896504722,2.51325424 2.51325424,0.896504722 4.50761583,0.896504722 L4.71253128,0.902221154 Z" id="Rectangle"></path>
                        <path d="M6.72983805,4.11872694 C7.15172224,4.11872694 7.50038357,4.43223126 7.55556404,4.83898188 L7.56317139,4.95206028 L7.56317139,31.6187269 C7.56317139,32.0789642 7.19007535,32.4520603 6.72983805,32.4520603 C6.30795387,32.4520603 5.95929254,32.138556 5.90411207,31.7318053 L5.89650472,31.6187269 L5.89650472,4.95206028 C5.89650472,4.49182299 6.26960076,4.11872694 6.72983805,4.11872694 Z" id="Line-5"></path>
                        <path d="M2.72983805,4.11872694 C3.15172224,4.11872694 3.50038357,4.43223126 3.55556404,4.83898188 L3.56317139,4.95206028 L3.56317139,22.7298381 C3.56317139,23.1900753 3.19007535,23.5631714 2.72983805,23.5631714 C2.30795387,23.5631714 1.95929254,23.2496671 1.90411207,22.8429165 L1.89650472,22.7298381 L1.89650472,4.95206028 C1.89650472,4.49182299 2.26960076,4.11872694 2.72983805,4.11872694 Z" id="Line-5-Copy"></path>
                        <polygon id="Line-4" points="9.34094917 33.4520603 9.34094917 35.1187269 0.118726944 35.1187269 0.118726944 33.4520603"></polygon>
                    </g>
                </g>
            </g>
        </g>
    </g>
</svg>