<?xml version="1.0" encoding="UTF-8"?>
<svg width="633px" height="646px" viewBox="0 0 633 646" version="1.1" xmlns="http://www.w3.org/2000/svg" xmlns:xlink="http://www.w3.org/1999/xlink">
    <title>Group 17</title>
    <g id="Home-&gt;-Chronology-&gt;-Timeline" stroke="none" stroke-width="1" fill="none" fill-rule="evenodd">
        <g id="Desktop/Timeline/School-years/Family-circumstances" transform="translate(-544.000000, -5199.000000)">
            <g id="Group-16" transform="translate(164.000000, 5199.000000)">
                <g id="Group-17" transform="translate(380.000000, 0.000000)">
                    <path d="M5.296,12.096 C6.16,12.096 6.93066667,11.8666667 7.608,11.408 C8.28533333,10.9493333 8.816,10.2906667 9.2,9.432 C9.584,8.57333333 9.776,7.56266667 9.776,6.4 C9.776,5.23733333 9.584,4.22666667 9.2,3.368 C8.816,2.50933333 8.28533333,1.85066667 7.608,1.392 C6.93066667,0.933333333 6.16,0.704 5.296,0.704 C4.432,0.704 3.66133333,0.933333333 2.984,1.392 C2.30666667,1.85066667 1.77866667,2.50933333 1.4,3.368 C1.02133333,4.22666667 0.832,5.23733333 0.832,6.4 C0.832,7.56266667 1.02133333,8.57333333 1.4,9.432 C1.77866667,10.2906667 2.30666667,10.9493333 2.984,11.408 C3.66133333,11.8666667 4.432,12.096 5.296,12.096 Z M5.296,11.04 C4.64533333,11.04 4.072,10.8586667 3.576,10.496 C3.08,10.1333333 2.69333333,9.60533333 2.416,8.912 C2.13866667,8.21866667 2,7.38133333 2,6.4 C2,5.41866667 2.13866667,4.58133333 2.416,3.888 C2.69333333,3.19466667 3.08,2.66666667 3.576,2.304 C4.072,1.94133333 4.64533333,1.76 5.296,1.76 C5.94666667,1.76 6.52,1.94133333 7.016,2.304 C7.512,2.66666667 7.89866667,3.19466667 8.176,3.888 C8.45333333,4.58133333 8.592,5.41866667 8.592,6.4 C8.592,7.38133333 8.45333333,8.21866667 8.176,8.912 C7.89866667,9.60533333 7.512,10.1333333 7.016,10.496 C6.52,10.8586667 5.94666667,11.04 5.296,11.04 Z M13.392,7.45 C14.0453333,7.45 14.5773333,7.20733333 14.988,6.722 C15.3986667,6.23666667 15.604,5.59266667 15.604,4.79 C15.604,3.98733333 15.3986667,3.34333333 14.988,2.858 C14.5773333,2.37266667 14.0453333,2.13 13.392,2.13 C12.7293333,2.13 12.195,2.375 11.789,2.865 C11.383,3.355 11.18,3.99666667 11.18,4.79 C11.18,5.58333333 11.383,6.225 11.789,6.715 C12.195,7.205 12.7293333,7.45 13.392,7.45 Z M13.462,12 L20.154,2.2 L19.328,2.2 L12.636,12 L13.462,12 Z M13.392,6.82 C12.9253333,6.82 12.5566667,6.638 12.286,6.274 C12.0153333,5.91 11.88,5.41533333 11.88,4.79 C11.88,4.16466667 12.0153333,3.67 12.286,3.306 C12.5566667,2.942 12.9253333,2.76 13.392,2.76 C13.8493333,2.76 14.2156667,2.93966667 14.491,3.299 C14.7663333,3.65833333 14.904,4.15533333 14.904,4.79 C14.904,5.42466667 14.7663333,5.92166667 14.491,6.281 C14.2156667,6.64033333 13.8493333,6.82 13.392,6.82 Z M19.398,12.07 C20.0606667,12.07 20.595,11.825 21.001,11.335 C21.407,10.845 21.61,10.2033333 21.61,9.41 C21.61,8.61666667 21.407,7.975 21.001,7.485 C20.595,6.995 20.0606667,6.75 19.398,6.75 C18.7446667,6.75 18.2126667,6.995 17.802,7.485 C17.3913333,7.975 17.186,8.61666667 17.186,9.41 C17.186,10.2033333 17.3913333,10.845 17.802,11.335 C18.2126667,11.825 18.7446667,12.07 19.398,12.07 Z M19.398,11.44 C18.9406667,11.44 18.5743333,11.2603333 18.299,10.901 C18.0236667,10.5416667 17.886,10.0446667 17.886,9.41 C17.886,8.77533333 18.0236667,8.27833333 18.299,7.919 C18.5743333,7.55966667 18.9406667,7.38 19.398,7.38 C19.8646667,7.38 20.2333333,7.562 20.504,7.926 C20.7746667,8.29 20.91,8.78466667 20.91,9.41 C20.91,10.0353333 20.7746667,10.53 20.504,10.894 C20.2333333,11.258 19.8646667,11.44 19.398,11.44 Z" id="0%" fill="#2D3142" fill-rule="nonzero"></path>
                    <path d="M609.936,12 L609.936,0.8 L606.144,0.8 L606.144,1.824 L608.784,1.824 L608.784,12 L609.936,12 Z M617.2,12.096 C617.925333,12.096 618.578667,11.9546667 619.16,11.672 C619.741333,11.3893333 620.197333,10.9866667 620.528,10.464 C620.858667,9.94133333 621.024,9.33866667 621.024,8.656 C621.024,7.984 620.864,7.39466667 620.544,6.888 C620.224,6.38133333 619.778667,5.98933333 619.208,5.712 C618.637333,5.43466667 617.984,5.296 617.248,5.296 C616.458667,5.296 615.76,5.464 615.152,5.8 C614.544,6.136 614.101333,6.608 613.824,7.216 C613.792,6.87466667 613.776,6.57066667 613.776,6.304 C613.776,4.81066667 614.128,3.672 614.832,2.888 C615.536,2.104 616.506667,1.712 617.744,1.712 C618.661333,1.712 619.386667,1.888 619.92,2.24 L619.92,2.24 L620.384,1.312 C619.722667,0.906666667 618.837333,0.704 617.728,0.704 C616.704,0.704 615.808,0.925333333 615.04,1.368 C614.272,1.81066667 613.674667,2.464 613.248,3.328 C612.821333,4.192 612.608,5.248 612.608,6.496 C612.608,8.27733333 613.002667,9.656 613.792,10.632 C614.581333,11.608 615.717333,12.096 617.2,12.096 Z M617.152,11.12 C616.533333,11.12 616,11.008 615.552,10.784 C615.104,10.56 614.765333,10.2666667 614.536,9.904 C614.306667,9.54133333 614.192,9.14666667 614.192,8.72 C614.192,8.26133333 614.314667,7.84533333 614.56,7.472 C614.805333,7.09866667 615.144,6.80533333 615.576,6.592 C616.008,6.37866667 616.506667,6.272 617.072,6.272 C617.936,6.272 618.621333,6.49066667 619.128,6.928 C619.634667,7.36533333 619.888,7.952 619.888,8.688 C619.888,9.424 619.634667,10.0133333 619.128,10.456 C618.621333,10.8986667 617.962667,11.12 617.152,11.12 Z M624.32,7.45 C624.973333,7.45 625.505333,7.20733333 625.916,6.722 C626.326667,6.23666667 626.532,5.59266667 626.532,4.79 C626.532,3.98733333 626.326667,3.34333333 625.916,2.858 C625.505333,2.37266667 624.973333,2.13 624.32,2.13 C623.657333,2.13 623.123,2.375 622.717,2.865 C622.311,3.355 622.108,3.99666667 622.108,4.79 C622.108,5.58333333 622.311,6.225 622.717,6.715 C623.123,7.205 623.657333,7.45 624.32,7.45 Z M624.39,12 L631.082,2.2 L630.256,2.2 L623.564,12 L624.39,12 Z M624.32,6.82 C623.853333,6.82 623.484667,6.638 623.214,6.274 C622.943333,5.91 622.808,5.41533333 622.808,4.79 C622.808,4.16466667 622.943333,3.67 623.214,3.306 C623.484667,2.942 623.853333,2.76 624.32,2.76 C624.777333,2.76 625.143667,2.93966667 625.419,3.299 C625.694333,3.65833333 625.832,4.15533333 625.832,4.79 C625.832,5.42466667 625.694333,5.92166667 625.419,6.281 C625.143667,6.64033333 624.777333,6.82 624.32,6.82 Z M630.326,12.07 C630.988667,12.07 631.523,11.825 631.929,11.335 C632.335,10.845 632.538,10.2033333 632.538,9.41 C632.538,8.61666667 632.335,7.975 631.929,7.485 C631.523,6.995 630.988667,6.75 630.326,6.75 C629.672667,6.75 629.140667,6.995 628.73,7.485 C628.319333,7.975 628.114,8.61666667 628.114,9.41 C628.114,10.2033333 628.319333,10.845 628.73,11.335 C629.140667,11.825 629.672667,12.07 630.326,12.07 Z M630.326,11.44 C629.868667,11.44 629.502333,11.2603333 629.227,10.901 C628.951667,10.5416667 628.814,10.0446667 628.814,9.41 C628.814,8.77533333 628.951667,8.27833333 629.227,7.919 C629.502333,7.55966667 629.868667,7.38 630.326,7.38 C630.792667,7.38 631.161333,7.562 631.432,7.926 C631.702667,8.29 631.838,8.78466667 631.838,9.41 C631.838,10.0353333 631.702667,10.53 631.432,10.894 C631.161333,11.258 630.792667,11.44 630.326,11.44 Z" id="16%" fill="#2D3142" fill-rule="nonzero"></path>
                    <path d="M534.936,12 L534.936,0.8 L531.144,0.8 L531.144,1.824 L533.784,1.824 L533.784,12 L534.936,12 Z M544.888,12 L544.888,9.056 L547.128,9.056 L547.128,8.032 L544.888,8.032 L544.888,5.44 L543.768,5.44 L543.768,8.032 L538.904,8.032 L544.632,0.8 L543.352,0.8 L537.416,8.224 L537.416,9.056 L543.736,9.056 L543.736,12 L544.888,12 Z M550.152,7.45 C550.805333,7.45 551.337333,7.20733333 551.748,6.722 C552.158667,6.23666667 552.364,5.59266667 552.364,4.79 C552.364,3.98733333 552.158667,3.34333333 551.748,2.858 C551.337333,2.37266667 550.805333,2.13 550.152,2.13 C549.489333,2.13 548.955,2.375 548.549,2.865 C548.143,3.355 547.94,3.99666667 547.94,4.79 C547.94,5.58333333 548.143,6.225 548.549,6.715 C548.955,7.205 549.489333,7.45 550.152,7.45 Z M550.222,12 L556.914,2.2 L556.088,2.2 L549.396,12 L550.222,12 Z M550.152,6.82 C549.685333,6.82 549.316667,6.638 549.046,6.274 C548.775333,5.91 548.64,5.41533333 548.64,4.79 C548.64,4.16466667 548.775333,3.67 549.046,3.306 C549.316667,2.942 549.685333,2.76 550.152,2.76 C550.609333,2.76 550.975667,2.93966667 551.251,3.299 C551.526333,3.65833333 551.664,4.15533333 551.664,4.79 C551.664,5.42466667 551.526333,5.92166667 551.251,6.281 C550.975667,6.64033333 550.609333,6.82 550.152,6.82 Z M556.158,12.07 C556.820667,12.07 557.355,11.825 557.761,11.335 C558.167,10.845 558.37,10.2033333 558.37,9.41 C558.37,8.61666667 558.167,7.975 557.761,7.485 C557.355,6.995 556.820667,6.75 556.158,6.75 C555.504667,6.75 554.972667,6.995 554.562,7.485 C554.151333,7.975 553.946,8.61666667 553.946,9.41 C553.946,10.2033333 554.151333,10.845 554.562,11.335 C554.972667,11.825 555.504667,12.07 556.158,12.07 Z M556.158,11.44 C555.700667,11.44 555.334333,11.2603333 555.059,10.901 C554.783667,10.5416667 554.646,10.0446667 554.646,9.41 C554.646,8.77533333 554.783667,8.27833333 555.059,7.919 C555.334333,7.55966667 555.700667,7.38 556.158,7.38 C556.624667,7.38 556.993333,7.562 557.264,7.926 C557.534667,8.29 557.67,8.78466667 557.67,9.41 C557.67,10.0353333 557.534667,10.53 557.264,10.894 C556.993333,11.258 556.624667,11.44 556.158,11.44 Z" id="14%" fill="#2D3142" fill-rule="nonzero"></path>
                    <path d="M457.936,12 L457.936,0.8 L454.144,0.8 L454.144,1.824 L456.784,1.824 L456.784,12 L457.936,12 Z M468.256,12 L468.256,10.976 L462.096,10.976 L465.904,7.232 C466.618667,6.53866667 467.104,5.92533333 467.36,5.392 C467.616,4.85866667 467.744,4.304 467.744,3.728 C467.744,2.78933333 467.410667,2.05066667 466.744,1.512 C466.077333,0.973333333 465.173333,0.704 464.032,0.704 C463.178667,0.704 462.413333,0.842666667 461.736,1.12 C461.058667,1.39733333 460.501333,1.792 460.064,2.304 L460.064,2.304 L460.88,3.008 C461.605333,2.176 462.624,1.76 463.936,1.76 C464.778667,1.76 465.426667,1.944 465.88,2.312 C466.333333,2.68 466.56,3.19466667 466.56,3.856 C466.56,4.28266667 466.456,4.70666667 466.248,5.128 C466.04,5.54933333 465.642667,6.048 465.056,6.624 L465.056,6.624 L460.4,11.184 L460.4,12 L468.256,12 Z M471.664,7.45 C472.317333,7.45 472.849333,7.20733333 473.26,6.722 C473.670667,6.23666667 473.876,5.59266667 473.876,4.79 C473.876,3.98733333 473.670667,3.34333333 473.26,2.858 C472.849333,2.37266667 472.317333,2.13 471.664,2.13 C471.001333,2.13 470.467,2.375 470.061,2.865 C469.655,3.355 469.452,3.99666667 469.452,4.79 C469.452,5.58333333 469.655,6.225 470.061,6.715 C470.467,7.205 471.001333,7.45 471.664,7.45 Z M471.734,12 L478.426,2.2 L477.6,2.2 L470.908,12 L471.734,12 Z M471.664,6.82 C471.197333,6.82 470.828667,6.638 470.558,6.274 C470.287333,5.91 470.152,5.41533333 470.152,4.79 C470.152,4.16466667 470.287333,3.67 470.558,3.306 C470.828667,2.942 471.197333,2.76 471.664,2.76 C472.121333,2.76 472.487667,2.93966667 472.763,3.299 C473.038333,3.65833333 473.176,4.15533333 473.176,4.79 C473.176,5.42466667 473.038333,5.92166667 472.763,6.281 C472.487667,6.64033333 472.121333,6.82 471.664,6.82 Z M477.67,12.07 C478.332667,12.07 478.867,11.825 479.273,11.335 C479.679,10.845 479.882,10.2033333 479.882,9.41 C479.882,8.61666667 479.679,7.975 479.273,7.485 C478.867,6.995 478.332667,6.75 477.67,6.75 C477.016667,6.75 476.484667,6.995 476.074,7.485 C475.663333,7.975 475.458,8.61666667 475.458,9.41 C475.458,10.2033333 475.663333,10.845 476.074,11.335 C476.484667,11.825 477.016667,12.07 477.67,12.07 Z M477.67,11.44 C477.212667,11.44 476.846333,11.2603333 476.571,10.901 C476.295667,10.5416667 476.158,10.0446667 476.158,9.41 C476.158,8.77533333 476.295667,8.27833333 476.571,7.919 C476.846333,7.55966667 477.212667,7.38 477.67,7.38 C478.136667,7.38 478.505333,7.562 478.776,7.926 C479.046667,8.29 479.182,8.78466667 479.182,9.41 C479.182,10.0353333 479.046667,10.53 478.776,10.894 C478.505333,11.258 478.136667,11.44 477.67,11.44 Z" id="12%" fill="#2D3142" fill-rule="nonzero"></path>
                    <path d="M309.088,12.096 C309.973333,12.096 310.744,11.9653333 311.4,11.704 C312.056,11.4426667 312.56,11.0693333 312.912,10.584 C313.264,10.0986667 313.44,9.53066667 313.44,8.88 C313.44,8.21866667 313.250667,7.65333333 312.872,7.184 C312.493333,6.71466667 311.952,6.36266667 311.248,6.128 C311.824,5.904 312.266667,5.58133333 312.576,5.16 C312.885333,4.73866667 313.04,4.24 313.04,3.664 C313.04,3.06666667 312.874667,2.544 312.544,2.096 C312.213333,1.648 311.752,1.304 311.16,1.064 C310.568,0.824 309.877333,0.704 309.088,0.704 C307.893333,0.704 306.941333,0.970666667 306.232,1.504 C305.522667,2.03733333 305.168,2.75733333 305.168,3.664 C305.168,4.24 305.317333,4.73866667 305.616,5.16 C305.914667,5.58133333 306.352,5.904 306.928,6.128 C306.224,6.36266667 305.688,6.712 305.32,7.176 C304.952,7.64 304.768,8.208 304.768,8.88 C304.768,9.872 305.152,10.656 305.92,11.232 C306.688,11.808 307.744,12.096 309.088,12.096 Z M309.088,5.712 C308.224,5.712 307.546667,5.53066667 307.056,5.168 C306.565333,4.80533333 306.32,4.31466667 306.32,3.696 C306.32,3.07733333 306.568,2.58666667 307.064,2.224 C307.56,1.86133333 308.234667,1.68 309.088,1.68 C309.930667,1.68 310.605333,1.86133333 311.112,2.224 C311.618667,2.58666667 311.872,3.08266667 311.872,3.712 C311.872,4.32 311.624,4.80533333 311.128,5.168 C310.632,5.53066667 309.952,5.712 309.088,5.712 Z M309.088,11.12 C308.096,11.12 307.322667,10.92 306.768,10.52 C306.213333,10.12 305.936,9.568 305.936,8.864 C305.936,8.17066667 306.216,7.624 306.776,7.224 C307.336,6.824 308.106667,6.624 309.088,6.624 C310.08,6.624 310.856,6.824 311.416,7.224 C311.976,7.624 312.256,8.17066667 312.256,8.864 C312.256,9.55733333 311.976,10.1066667 311.416,10.512 C310.856,10.9173333 310.08,11.12 309.088,11.12 Z M317.008,7.45 C317.661333,7.45 318.193333,7.20733333 318.604,6.722 C319.014667,6.23666667 319.22,5.59266667 319.22,4.79 C319.22,3.98733333 319.014667,3.34333333 318.604,2.858 C318.193333,2.37266667 317.661333,2.13 317.008,2.13 C316.345333,2.13 315.811,2.375 315.405,2.865 C314.999,3.355 314.796,3.99666667 314.796,4.79 C314.796,5.58333333 314.999,6.225 315.405,6.715 C315.811,7.205 316.345333,7.45 317.008,7.45 Z M317.078,12 L323.77,2.2 L322.944,2.2 L316.252,12 L317.078,12 Z M317.008,6.82 C316.541333,6.82 316.172667,6.638 315.902,6.274 C315.631333,5.91 315.496,5.41533333 315.496,4.79 C315.496,4.16466667 315.631333,3.67 315.902,3.306 C316.172667,2.942 316.541333,2.76 317.008,2.76 C317.465333,2.76 317.831667,2.93966667 318.107,3.299 C318.382333,3.65833333 318.52,4.15533333 318.52,4.79 C318.52,5.42466667 318.382333,5.92166667 318.107,6.281 C317.831667,6.64033333 317.465333,6.82 317.008,6.82 Z M323.014,12.07 C323.676667,12.07 324.211,11.825 324.617,11.335 C325.023,10.845 325.226,10.2033333 325.226,9.41 C325.226,8.61666667 325.023,7.975 324.617,7.485 C324.211,6.995 323.676667,6.75 323.014,6.75 C322.360667,6.75 321.828667,6.995 321.418,7.485 C321.007333,7.975 320.802,8.61666667 320.802,9.41 C320.802,10.2033333 321.007333,10.845 321.418,11.335 C321.828667,11.825 322.360667,12.07 323.014,12.07 Z M323.014,11.44 C322.556667,11.44 322.190333,11.2603333 321.915,10.901 C321.639667,10.5416667 321.502,10.0446667 321.502,9.41 C321.502,8.77533333 321.639667,8.27833333 321.915,7.919 C322.190333,7.55966667 322.556667,7.38 323.014,7.38 C323.480667,7.38 323.849333,7.562 324.12,7.926 C324.390667,8.29 324.526,8.78466667 324.526,9.41 C324.526,10.0353333 324.390667,10.53 324.12,10.894 C323.849333,11.258 323.480667,11.44 323.014,11.44 Z" id="8%" fill="#2D3142" fill-rule="nonzero"></path>
                    <path d="M382.936,12 L382.936,0.8 L379.144,0.8 L379.144,1.824 L381.784,1.824 L381.784,12 L382.936,12 Z M390.072,12.096 C390.936,12.096 391.706667,11.8666667 392.384,11.408 C393.061333,10.9493333 393.592,10.2906667 393.976,9.432 C394.36,8.57333333 394.552,7.56266667 394.552,6.4 C394.552,5.23733333 394.36,4.22666667 393.976,3.368 C393.592,2.50933333 393.061333,1.85066667 392.384,1.392 C391.706667,0.933333333 390.936,0.704 390.072,0.704 C389.208,0.704 388.437333,0.933333333 387.76,1.392 C387.082667,1.85066667 386.554667,2.50933333 386.176,3.368 C385.797333,4.22666667 385.608,5.23733333 385.608,6.4 C385.608,7.56266667 385.797333,8.57333333 386.176,9.432 C386.554667,10.2906667 387.082667,10.9493333 387.76,11.408 C388.437333,11.8666667 389.208,12.096 390.072,12.096 Z M390.072,11.04 C389.421333,11.04 388.848,10.8586667 388.352,10.496 C387.856,10.1333333 387.469333,9.60533333 387.192,8.912 C386.914667,8.21866667 386.776,7.38133333 386.776,6.4 C386.776,5.41866667 386.914667,4.58133333 387.192,3.888 C387.469333,3.19466667 387.856,2.66666667 388.352,2.304 C388.848,1.94133333 389.421333,1.76 390.072,1.76 C390.722667,1.76 391.296,1.94133333 391.792,2.304 C392.288,2.66666667 392.674667,3.19466667 392.952,3.888 C393.229333,4.58133333 393.368,5.41866667 393.368,6.4 C393.368,7.38133333 393.229333,8.21866667 392.952,8.912 C392.674667,9.60533333 392.288,10.1333333 391.792,10.496 C391.296,10.8586667 390.722667,11.04 390.072,11.04 Z M398.168,7.45 C398.821333,7.45 399.353333,7.20733333 399.764,6.722 C400.174667,6.23666667 400.38,5.59266667 400.38,4.79 C400.38,3.98733333 400.174667,3.34333333 399.764,2.858 C399.353333,2.37266667 398.821333,2.13 398.168,2.13 C397.505333,2.13 396.971,2.375 396.565,2.865 C396.159,3.355 395.956,3.99666667 395.956,4.79 C395.956,5.58333333 396.159,6.225 396.565,6.715 C396.971,7.205 397.505333,7.45 398.168,7.45 Z M398.238,12 L404.93,2.2 L404.104,2.2 L397.412,12 L398.238,12 Z M398.168,6.82 C397.701333,6.82 397.332667,6.638 397.062,6.274 C396.791333,5.91 396.656,5.41533333 396.656,4.79 C396.656,4.16466667 396.791333,3.67 397.062,3.306 C397.332667,2.942 397.701333,2.76 398.168,2.76 C398.625333,2.76 398.991667,2.93966667 399.267,3.299 C399.542333,3.65833333 399.68,4.15533333 399.68,4.79 C399.68,5.42466667 399.542333,5.92166667 399.267,6.281 C398.991667,6.64033333 398.625333,6.82 398.168,6.82 Z M404.174,12.07 C404.836667,12.07 405.371,11.825 405.777,11.335 C406.183,10.845 406.386,10.2033333 406.386,9.41 C406.386,8.61666667 406.183,7.975 405.777,7.485 C405.371,6.995 404.836667,6.75 404.174,6.75 C403.520667,6.75 402.988667,6.995 402.578,7.485 C402.167333,7.975 401.962,8.61666667 401.962,9.41 C401.962,10.2033333 402.167333,10.845 402.578,11.335 C402.988667,11.825 403.520667,12.07 404.174,12.07 Z M404.174,11.44 C403.716667,11.44 403.350333,11.2603333 403.075,10.901 C402.799667,10.5416667 402.662,10.0446667 402.662,9.41 C402.662,8.77533333 402.799667,8.27833333 403.075,7.919 C403.350333,7.55966667 403.716667,7.38 404.174,7.38 C404.640667,7.38 405.009333,7.562 405.28,7.926 C405.550667,8.29 405.686,8.78466667 405.686,9.41 C405.686,10.0353333 405.550667,10.53 405.28,10.894 C405.009333,11.258 404.640667,11.44 404.174,11.44 Z" id="10%" fill="#2D3142" fill-rule="nonzero"></path>
                    <path d="M233.424,12.096 C234.149333,12.096 234.802667,11.9546667 235.384,11.672 C235.965333,11.3893333 236.421333,10.9866667 236.752,10.464 C237.082667,9.94133333 237.248,9.33866667 237.248,8.656 C237.248,7.984 237.088,7.39466667 236.768,6.888 C236.448,6.38133333 236.002667,5.98933333 235.432,5.712 C234.861333,5.43466667 234.208,5.296 233.472,5.296 C232.682667,5.296 231.984,5.464 231.376,5.8 C230.768,6.136 230.325333,6.608 230.048,7.216 C230.016,6.87466667 230,6.57066667 230,6.304 C230,4.81066667 230.352,3.672 231.056,2.888 C231.76,2.104 232.730667,1.712 233.968,1.712 C234.885333,1.712 235.610667,1.888 236.144,2.24 L236.144,2.24 L236.608,1.312 C235.946667,0.906666667 235.061333,0.704 233.952,0.704 C232.928,0.704 232.032,0.925333333 231.264,1.368 C230.496,1.81066667 229.898667,2.464 229.472,3.328 C229.045333,4.192 228.832,5.248 228.832,6.496 C228.832,8.27733333 229.226667,9.656 230.016,10.632 C230.805333,11.608 231.941333,12.096 233.424,12.096 Z M233.376,11.12 C232.757333,11.12 232.224,11.008 231.776,10.784 C231.328,10.56 230.989333,10.2666667 230.76,9.904 C230.530667,9.54133333 230.416,9.14666667 230.416,8.72 C230.416,8.26133333 230.538667,7.84533333 230.784,7.472 C231.029333,7.09866667 231.368,6.80533333 231.8,6.592 C232.232,6.37866667 232.730667,6.272 233.296,6.272 C234.16,6.272 234.845333,6.49066667 235.352,6.928 C235.858667,7.36533333 236.112,7.952 236.112,8.688 C236.112,9.424 235.858667,10.0133333 235.352,10.456 C234.845333,10.8986667 234.186667,11.12 233.376,11.12 Z M240.544,7.45 C241.197333,7.45 241.729333,7.20733333 242.14,6.722 C242.550667,6.23666667 242.756,5.59266667 242.756,4.79 C242.756,3.98733333 242.550667,3.34333333 242.14,2.858 C241.729333,2.37266667 241.197333,2.13 240.544,2.13 C239.881333,2.13 239.347,2.375 238.941,2.865 C238.535,3.355 238.332,3.99666667 238.332,4.79 C238.332,5.58333333 238.535,6.225 238.941,6.715 C239.347,7.205 239.881333,7.45 240.544,7.45 Z M240.614,12 L247.306,2.2 L246.48,2.2 L239.788,12 L240.614,12 Z M240.544,6.82 C240.077333,6.82 239.708667,6.638 239.438,6.274 C239.167333,5.91 239.032,5.41533333 239.032,4.79 C239.032,4.16466667 239.167333,3.67 239.438,3.306 C239.708667,2.942 240.077333,2.76 240.544,2.76 C241.001333,2.76 241.367667,2.93966667 241.643,3.299 C241.918333,3.65833333 242.056,4.15533333 242.056,4.79 C242.056,5.42466667 241.918333,5.92166667 241.643,6.281 C241.367667,6.64033333 241.001333,6.82 240.544,6.82 Z M246.55,12.07 C247.212667,12.07 247.747,11.825 248.153,11.335 C248.559,10.845 248.762,10.2033333 248.762,9.41 C248.762,8.61666667 248.559,7.975 248.153,7.485 C247.747,6.995 247.212667,6.75 246.55,6.75 C245.896667,6.75 245.364667,6.995 244.954,7.485 C244.543333,7.975 244.338,8.61666667 244.338,9.41 C244.338,10.2033333 244.543333,10.845 244.954,11.335 C245.364667,11.825 245.896667,12.07 246.55,12.07 Z M246.55,11.44 C246.092667,11.44 245.726333,11.2603333 245.451,10.901 C245.175667,10.5416667 245.038,10.0446667 245.038,9.41 C245.038,8.77533333 245.175667,8.27833333 245.451,7.919 C245.726333,7.55966667 246.092667,7.38 246.55,7.38 C247.016667,7.38 247.385333,7.562 247.656,7.926 C247.926667,8.29 248.062,8.78466667 248.062,9.41 C248.062,10.0353333 247.926667,10.53 247.656,10.894 C247.385333,11.258 247.016667,11.44 246.55,11.44 Z" id="6%" fill="#2D3142" fill-rule="nonzero"></path>
                    <path d="M162.112,12 L162.112,9.056 L164.352,9.056 L164.352,8.032 L162.112,8.032 L162.112,5.44 L160.992,5.44 L160.992,8.032 L156.128,8.032 L161.856,0.8 L160.576,0.8 L154.64,8.224 L154.64,9.056 L160.96,9.056 L160.96,12 L162.112,12 Z M167.376,7.45 C168.029333,7.45 168.561333,7.20733333 168.972,6.722 C169.382667,6.23666667 169.588,5.59266667 169.588,4.79 C169.588,3.98733333 169.382667,3.34333333 168.972,2.858 C168.561333,2.37266667 168.029333,2.13 167.376,2.13 C166.713333,2.13 166.179,2.375 165.773,2.865 C165.367,3.355 165.164,3.99666667 165.164,4.79 C165.164,5.58333333 165.367,6.225 165.773,6.715 C166.179,7.205 166.713333,7.45 167.376,7.45 Z M167.446,12 L174.138,2.2 L173.312,2.2 L166.62,12 L167.446,12 Z M167.376,6.82 C166.909333,6.82 166.540667,6.638 166.27,6.274 C165.999333,5.91 165.864,5.41533333 165.864,4.79 C165.864,4.16466667 165.999333,3.67 166.27,3.306 C166.540667,2.942 166.909333,2.76 167.376,2.76 C167.833333,2.76 168.199667,2.93966667 168.475,3.299 C168.750333,3.65833333 168.888,4.15533333 168.888,4.79 C168.888,5.42466667 168.750333,5.92166667 168.475,6.281 C168.199667,6.64033333 167.833333,6.82 167.376,6.82 Z M173.382,12.07 C174.044667,12.07 174.579,11.825 174.985,11.335 C175.391,10.845 175.594,10.2033333 175.594,9.41 C175.594,8.61666667 175.391,7.975 174.985,7.485 C174.579,6.995 174.044667,6.75 173.382,6.75 C172.728667,6.75 172.196667,6.995 171.786,7.485 C171.375333,7.975 171.17,8.61666667 171.17,9.41 C171.17,10.2033333 171.375333,10.845 171.786,11.335 C172.196667,11.825 172.728667,12.07 173.382,12.07 Z M173.382,11.44 C172.924667,11.44 172.558333,11.2603333 172.283,10.901 C172.007667,10.5416667 171.87,10.0446667 171.87,9.41 C171.87,8.77533333 172.007667,8.27833333 172.283,7.919 C172.558333,7.55966667 172.924667,7.38 173.382,7.38 C173.848667,7.38 174.217333,7.562 174.488,7.926 C174.758667,8.29 174.894,8.78466667 174.894,9.41 C174.894,10.0353333 174.758667,10.53 174.488,10.894 C174.217333,11.258 173.848667,11.44 173.382,11.44 Z" id="4%" fill="#2D3142" fill-rule="nonzero"></path>
                    <path d="M85.48,12 L85.48,10.976 L79.32,10.976 L83.128,7.232 C83.8426667,6.53866667 84.328,5.92533333 84.584,5.392 C84.84,4.85866667 84.968,4.304 84.968,3.728 C84.968,2.78933333 84.6346667,2.05066667 83.968,1.512 C83.3013333,0.973333333 82.3973333,0.704 81.256,0.704 C80.4026667,0.704 79.6373333,0.842666667 78.96,1.12 C78.2826667,1.39733333 77.7253333,1.792 77.288,2.304 L77.288,2.304 L78.104,3.008 C78.8293333,2.176 79.848,1.76 81.16,1.76 C82.0026667,1.76 82.6506667,1.944 83.104,2.312 C83.5573333,2.68 83.784,3.19466667 83.784,3.856 C83.784,4.28266667 83.68,4.70666667 83.472,5.128 C83.264,5.54933333 82.8666667,6.048 82.28,6.624 L82.28,6.624 L77.624,11.184 L77.624,12 L85.48,12 Z M88.888,7.45 C89.5413333,7.45 90.0733333,7.20733333 90.484,6.722 C90.8946667,6.23666667 91.1,5.59266667 91.1,4.79 C91.1,3.98733333 90.8946667,3.34333333 90.484,2.858 C90.0733333,2.37266667 89.5413333,2.13 88.888,2.13 C88.2253333,2.13 87.691,2.375 87.285,2.865 C86.879,3.355 86.676,3.99666667 86.676,4.79 C86.676,5.58333333 86.879,6.225 87.285,6.715 C87.691,7.205 88.2253333,7.45 88.888,7.45 Z M88.958,12 L95.65,2.2 L94.824,2.2 L88.132,12 L88.958,12 Z M88.888,6.82 C88.4213333,6.82 88.0526667,6.638 87.782,6.274 C87.5113333,5.91 87.376,5.41533333 87.376,4.79 C87.376,4.16466667 87.5113333,3.67 87.782,3.306 C88.0526667,2.942 88.4213333,2.76 88.888,2.76 C89.3453333,2.76 89.7116667,2.93966667 89.987,3.299 C90.2623333,3.65833333 90.4,4.15533333 90.4,4.79 C90.4,5.42466667 90.2623333,5.92166667 89.987,6.281 C89.7116667,6.64033333 89.3453333,6.82 88.888,6.82 Z M94.894,12.07 C95.5566667,12.07 96.091,11.825 96.497,11.335 C96.903,10.845 97.106,10.2033333 97.106,9.41 C97.106,8.61666667 96.903,7.975 96.497,7.485 C96.091,6.995 95.5566667,6.75 94.894,6.75 C94.2406667,6.75 93.7086667,6.995 93.298,7.485 C92.8873333,7.975 92.682,8.61666667 92.682,9.41 C92.682,10.2033333 92.8873333,10.845 93.298,11.335 C93.7086667,11.825 94.2406667,12.07 94.894,12.07 Z M94.894,11.44 C94.4366667,11.44 94.0703333,11.2603333 93.795,10.901 C93.5196667,10.5416667 93.382,10.0446667 93.382,9.41 C93.382,8.77533333 93.5196667,8.27833333 93.795,7.919 C94.0703333,7.55966667 94.4366667,7.38 94.894,7.38 C95.3606667,7.38 95.7293333,7.562 96,7.926 C96.2706667,8.29 96.406,8.78466667 96.406,9.41 C96.406,10.0353333 96.2706667,10.53 96,10.894 C95.7293333,11.258 95.3606667,11.44 94.894,11.44 Z" id="2%" fill="#2D3142" fill-rule="nonzero"></path>
                    <rect id="Rectangle" fill="#C5532F" transform="translate(271.000000, 36.000000) rotate(-270.000000) translate(-271.000000, -36.000000) " x="267" y="-234" width="8" height="540"></rect>
                    <rect id="Rectangle-Copy-9" fill="#DB7656" transform="translate(242.000000, 46.000000) rotate(-270.000000) translate(-242.000000, -46.000000) " x="238" y="-195" width="8" height="482"></rect>
                    <rect id="Rectangle-Copy-10" fill="#FF9308" transform="translate(261.000000, 56.000000) rotate(-270.000000) translate(-261.000000, -56.000000) " x="257" y="-204" width="8" height="520"></rect>
                    <rect id="Rectangle-Copy-11" fill="#FFBA08" transform="translate(92.000000, 66.000000) rotate(-270.000000) translate(-92.000000, -66.000000) " x="88" y="-25" width="8" height="182"></rect>
                    <rect id="Rectangle-Copy-12" fill="#FFDA7C" transform="translate(72.000000, 76.000000) rotate(-270.000000) translate(-72.000000, -76.000000) " x="68" y="5" width="8" height="142"></rect>
                    <rect id="Rectangle-Copy-13" fill="#ECE1C4" transform="translate(98.500000, 86.000000) rotate(-270.000000) translate(-98.500000, -86.000000) " x="94.5" y="-11.5" width="8" height="195"></rect>
                    <rect id="Rectangle-Copy-14" fill="#C5532F" transform="translate(196.000000, 120.500000) rotate(-270.000000) translate(-196.000000, -120.500000) " x="192" y="-75" width="8" height="391"></rect>
                    <rect id="Rectangle-Copy-15" fill="#DB7656" transform="translate(184.000000, 130.500000) rotate(-270.000000) translate(-184.000000, -130.500000) " x="180" y="-53" width="8" height="367"></rect>
                    <rect id="Rectangle-Copy-16" fill="#FF9308" transform="translate(102.500000, 140.500000) rotate(-270.000000) translate(-102.500000, -140.500000) " x="98.5" y="38.5" width="8" height="204"></rect>
                    <rect id="Rectangle-Copy-17" fill="#FFBA08" transform="translate(149.500000, 150.500000) rotate(-270.000000) translate(-149.500000, -150.500000) " x="145.5" y="1.5" width="8" height="298"></rect>
                    <rect id="Rectangle-Copy-18" fill="#FFDA7C" transform="translate(48.000000, 160.500000) rotate(-270.000000) translate(-48.000000, -160.500000) " x="44" y="113" width="8" height="95"></rect>
                    <rect id="Rectangle-Copy-19" fill="#ECE1C4" transform="translate(160.000000, 170.500000) rotate(-270.000000) translate(-160.000000, -170.500000) " x="156" y="11" width="8" height="319"></rect>
                    <rect id="Rectangle-Copy-20" fill="#C5532F" transform="translate(198.000000, 204.000000) rotate(-270.000000) translate(-198.000000, -204.000000) " x="194" y="7" width="8" height="394"></rect>
                    <rect id="Rectangle-Copy-21" fill="#DB7656" transform="translate(143.000000, 214.000000) rotate(-270.000000) translate(-143.000000, -214.000000) " x="139" y="72" width="8" height="284"></rect>
                    <rect id="Rectangle-Copy-22" fill="#FF9308" transform="translate(147.500000, 224.000000) rotate(-270.000000) translate(-147.500000, -224.000000) " x="143.5" y="77.5" width="8" height="293"></rect>
                    <rect id="Rectangle-Copy-23" fill="#FFBA08" transform="translate(103.000000, 234.000000) rotate(-270.000000) translate(-103.000000, -234.000000) " x="99" y="132" width="8" height="204"></rect>
                    <rect id="Rectangle-Copy-24" fill="#FFDA7C" transform="translate(28.500000, 244.000000) rotate(-270.000000) translate(-28.500000, -244.000000) " x="24.5" y="216.5" width="8" height="55"></rect>
                    <rect id="Rectangle-Copy-25" fill="#ECE1C4" transform="translate(98.500000, 254.000000) rotate(-270.000000) translate(-98.500000, -254.000000) " x="94.5" y="156.5" width="8" height="195"></rect>
                    <rect id="Rectangle-Copy-26" fill="#C5532F" transform="translate(155.500000, 288.500000) rotate(-270.000000) translate(-155.500000, -288.500000) " x="151.5" y="133.5" width="8" height="310"></rect>
                    <rect id="Rectangle-Copy-27" fill="#DB7656" transform="translate(108.000000, 298.500000) rotate(-270.000000) translate(-108.000000, -298.500000) " x="104" y="191" width="8" height="215"></rect>
                    <rect id="Rectangle-Copy-28" fill="#FF9308" transform="translate(180.000000, 308.500000) rotate(-270.000000) translate(-180.000000, -308.500000) " x="176" y="129" width="8" height="359"></rect>
                    <rect id="Rectangle-Copy-29" fill="#FFBA08" transform="translate(68.000000, 318.500000) rotate(-270.000000) translate(-68.000000, -318.500000) " x="64" y="251" width="8" height="135"></rect>
                    <rect id="Rectangle-Copy-30" fill="#FFDA7C" transform="translate(168.500000, 328.500000) rotate(-270.000000) translate(-168.500000, -328.500000) " x="164.5" y="160.5" width="8" height="336"></rect>
                    <rect id="Rectangle-Copy-31" fill="#ECE1C4" transform="translate(31.500000, 338.500000) rotate(-270.000000) translate(-31.500000, -338.500000) " x="27.5" y="307.5" width="8" height="62"></rect>
                    <rect id="Rectangle-Copy-32" fill="#C5532F" transform="translate(177.000000, 387.500000) rotate(-270.000000) translate(-177.000000, -387.500000) " x="173" y="211" width="8" height="353"></rect>
                    <rect id="Rectangle-Copy-33" fill="#DB7656" transform="translate(125.500000, 397.500000) rotate(-270.000000) translate(-125.500000, -397.500000) " x="121.5" y="272.5" width="8" height="250"></rect>
                    <rect id="Rectangle-Copy-34" fill="#FF9308" transform="translate(42.500000, 407.500000) rotate(-270.000000) translate(-42.500000, -407.500000) " x="38.5" y="365.5" width="8" height="84"></rect>
                    <rect id="Rectangle-Copy-35" fill="#FFBA08" transform="translate(69.500000, 417.500000) rotate(-270.000000) translate(-69.500000, -417.500000) " x="65.5" y="348.5" width="8" height="138"></rect>
                    <rect id="Rectangle-Copy-36" fill="#FFDA7C" transform="translate(28.000000, 427.500000) rotate(-270.000000) translate(-28.000000, -427.500000) " x="24" y="400" width="8" height="55"></rect>
                    <rect id="Rectangle-Copy-37" fill="#ECE1C4" transform="translate(32.500000, 437.500000) rotate(-270.000000) translate(-32.500000, -437.500000) " x="28.5" y="405.5" width="8" height="64"></rect>
                    <rect id="Rectangle-Copy-41" fill="#C5532F" transform="translate(41.000000, 610.000000) rotate(-270.000000) translate(-41.000000, -610.000000) " x="37" y="570" width="8" height="80"></rect>
                    <rect id="Rectangle-Copy-43" fill="#DB7656" transform="translate(33.000000, 619.500000) rotate(-270.000000) translate(-33.000000, -619.500000) " x="29" y="587.5" width="8" height="64"></rect>
                    <rect id="Rectangle-Copy-44" fill="#FF9308" transform="translate(10.000000, 630.000000) rotate(-270.000000) translate(-10.000000, -630.000000) " x="6" y="621" width="8" height="18"></rect>
                    <rect id="Rectangle-Copy-45" fill="#FFBA08" transform="translate(25.500000, 640.500000) rotate(-270.000000) translate(-25.500000, -640.500000) " x="21.5" y="616" width="8" height="49"></rect>
                    <rect id="Rectangle-Copy-38" fill="#C5532F" transform="translate(73.000000, 511.000000) rotate(-270.000000) translate(-73.000000, -511.000000) " x="69" y="439" width="8" height="144"></rect>
                    <rect id="Rectangle-Copy-39" fill="#DB7656" transform="translate(43.000000, 521.000000) rotate(-270.000000) translate(-43.000000, -521.000000) " x="39" y="479" width="8" height="84"></rect>
                    <rect id="Rectangle-Copy-40" fill="#FF9308" transform="translate(35.500000, 531.000000) rotate(-270.000000) translate(-35.500000, -531.000000) " x="31.5" y="496.5" width="8" height="69"></rect>
                    <rect id="Rectangle-Copy-42" fill="#FFDA7C" transform="translate(28.500000, 541.000000) rotate(-270.000000) translate(-28.500000, -541.000000) " x="24.5" y="513.5" width="8" height="55"></rect>
                    <polygon id="Line-Copy-6" fill="#EFEFEF" fill-rule="nonzero" points="-0.00040799599 31.5004083 0.999591671 31.499592 1.500408 645.000406 0.500408329 645.001222"></polygon>
                    <polygon id="Line-Copy-7" fill="#EFEFEF" fill-rule="nonzero" points="76.4991837 31.5008177 77.4991823 31.4991837 78.5008163 644.499182 77.5008177 644.500816"></polygon>
                    <polygon id="Line-Copy-8" fill="#EFEFEF" fill-rule="nonzero" points="151.499184 31.5008177 152.499182 31.4991837 153.500816 644.499182 152.500818 644.500816"></polygon>
                    <polygon id="Line-Copy-9" fill="#EFEFEF" fill-rule="nonzero" points="529.499184 31.5008177 530.499182 31.4991837 531.500816 644.499182 530.500818 644.500816"></polygon>
                    <polygon id="Line-Copy-14" fill="#EFEFEF" fill-rule="nonzero" points="604.784649 31.5003514 605.784649 31.4996488 606.215351 644.499649 605.215351 644.500351"></polygon>
                    <polygon id="Line-Copy-10" fill="#EFEFEF" fill-rule="nonzero" points="453.499184 31.5008177 454.499182 31.4991837 455.500816 644.499182 454.500818 644.500816"></polygon>
                    <polygon id="Line-Copy-11" fill="#EFEFEF" fill-rule="nonzero" points="302.499184 31.5008177 303.499182 31.4991837 304.500816 644.499182 303.500818 644.500816"></polygon>
                    <polygon id="Line-Copy-13" fill="#EFEFEF" fill-rule="nonzero" points="378.499184 31.5008177 379.499182 31.4991837 380.500816 644.499182 379.500818 644.500816"></polygon>
                    <polygon id="Line-Copy-12" fill="#EFEFEF" fill-rule="nonzero" points="227.499184 31.5008177 228.499182 31.4991837 229.500816 644.499182 228.500818 644.500816"></polygon>
                </g>
            </g>
        </g>
    </g>
</svg>